G04 #@! TF.GenerationSoftware,KiCad,Pcbnew,(5.1.6)-1*
G04 #@! TF.CreationDate,2020-09-05T15:51:33-05:00*
G04 #@! TF.ProjectId,ContactorDriver,436f6e74-6163-4746-9f72-447269766572,rev?*
G04 #@! TF.SameCoordinates,Original*
G04 #@! TF.FileFunction,Soldermask,Top*
G04 #@! TF.FilePolarity,Negative*
%FSLAX46Y46*%
G04 Gerber Fmt 4.6, Leading zero omitted, Abs format (unit mm)*
G04 Created by KiCad (PCBNEW (5.1.6)-1) date 2020-09-05 15:51:33*
%MOMM*%
%LPD*%
G01*
G04 APERTURE LIST*
%ADD10C,0.100000*%
G04 APERTURE END LIST*
D10*
G36*
X227302585Y-163478802D02*
G01*
X227452410Y-163508604D01*
X227734674Y-163625521D01*
X227988705Y-163795259D01*
X228204741Y-164011295D01*
X228374479Y-164265326D01*
X228491396Y-164547590D01*
X228551000Y-164847240D01*
X228551000Y-165152760D01*
X228491396Y-165452410D01*
X228374479Y-165734674D01*
X228204741Y-165988705D01*
X227988705Y-166204741D01*
X227734674Y-166374479D01*
X227452410Y-166491396D01*
X227302585Y-166521198D01*
X227152761Y-166551000D01*
X226847239Y-166551000D01*
X226697415Y-166521198D01*
X226547590Y-166491396D01*
X226265326Y-166374479D01*
X226011295Y-166204741D01*
X225795259Y-165988705D01*
X225625521Y-165734674D01*
X225508604Y-165452410D01*
X225449000Y-165152760D01*
X225449000Y-164847240D01*
X225508604Y-164547590D01*
X225625521Y-164265326D01*
X225795259Y-164011295D01*
X226011295Y-163795259D01*
X226265326Y-163625521D01*
X226547590Y-163508604D01*
X226697415Y-163478802D01*
X226847239Y-163449000D01*
X227152761Y-163449000D01*
X227302585Y-163478802D01*
G37*
G36*
X167302585Y-163478802D02*
G01*
X167452410Y-163508604D01*
X167734674Y-163625521D01*
X167988705Y-163795259D01*
X168204741Y-164011295D01*
X168374479Y-164265326D01*
X168491396Y-164547590D01*
X168551000Y-164847240D01*
X168551000Y-165152760D01*
X168491396Y-165452410D01*
X168374479Y-165734674D01*
X168204741Y-165988705D01*
X167988705Y-166204741D01*
X167734674Y-166374479D01*
X167452410Y-166491396D01*
X167302585Y-166521198D01*
X167152761Y-166551000D01*
X166847239Y-166551000D01*
X166697415Y-166521198D01*
X166547590Y-166491396D01*
X166265326Y-166374479D01*
X166011295Y-166204741D01*
X165795259Y-165988705D01*
X165625521Y-165734674D01*
X165508604Y-165452410D01*
X165449000Y-165152760D01*
X165449000Y-164847240D01*
X165508604Y-164547590D01*
X165625521Y-164265326D01*
X165795259Y-164011295D01*
X166011295Y-163795259D01*
X166265326Y-163625521D01*
X166547590Y-163508604D01*
X166697415Y-163478802D01*
X166847239Y-163449000D01*
X167152761Y-163449000D01*
X167302585Y-163478802D01*
G37*
G36*
X219171304Y-158037002D02*
G01*
X219590139Y-158210489D01*
X219590141Y-158210490D01*
X219779891Y-158337277D01*
X219967082Y-158462354D01*
X220287646Y-158782918D01*
X220539511Y-159159861D01*
X220712998Y-159578696D01*
X220801440Y-160023327D01*
X220801440Y-160476673D01*
X220712998Y-160921304D01*
X220539511Y-161340139D01*
X220539510Y-161340141D01*
X220287645Y-161717083D01*
X219967083Y-162037645D01*
X219590141Y-162289510D01*
X219590140Y-162289511D01*
X219590139Y-162289511D01*
X219171304Y-162462998D01*
X218726673Y-162551440D01*
X218273327Y-162551440D01*
X217828696Y-162462998D01*
X217409861Y-162289511D01*
X217409860Y-162289511D01*
X217409859Y-162289510D01*
X217032917Y-162037645D01*
X216712355Y-161717083D01*
X216460490Y-161340141D01*
X216460489Y-161340139D01*
X216287002Y-160921304D01*
X216198560Y-160476673D01*
X216198560Y-160023327D01*
X216287002Y-159578696D01*
X216460489Y-159159861D01*
X216712354Y-158782918D01*
X217032918Y-158462354D01*
X217220109Y-158337277D01*
X217409859Y-158210490D01*
X217409861Y-158210489D01*
X217828696Y-158037002D01*
X218273327Y-157948560D01*
X218726673Y-157948560D01*
X219171304Y-158037002D01*
G37*
G36*
X208775256Y-156591298D02*
G01*
X208881579Y-156612447D01*
X209182042Y-156736903D01*
X209452451Y-156917585D01*
X209682415Y-157147549D01*
X209682416Y-157147551D01*
X209863098Y-157417960D01*
X209987553Y-157718422D01*
X210051000Y-158037389D01*
X210051000Y-158362611D01*
X210008702Y-158575256D01*
X209987553Y-158681579D01*
X209863097Y-158982042D01*
X209682415Y-159252451D01*
X209452451Y-159482415D01*
X209182042Y-159663097D01*
X208881579Y-159787553D01*
X208775256Y-159808702D01*
X208562611Y-159851000D01*
X208237389Y-159851000D01*
X208024744Y-159808702D01*
X207918421Y-159787553D01*
X207617958Y-159663097D01*
X207347549Y-159482415D01*
X207117585Y-159252451D01*
X206936903Y-158982042D01*
X206812447Y-158681579D01*
X206791298Y-158575256D01*
X206749000Y-158362611D01*
X206749000Y-158037389D01*
X206812447Y-157718422D01*
X206936902Y-157417960D01*
X207117584Y-157147551D01*
X207117585Y-157147549D01*
X207347549Y-156917585D01*
X207617958Y-156736903D01*
X207918421Y-156612447D01*
X208024744Y-156591298D01*
X208237389Y-156549000D01*
X208562611Y-156549000D01*
X208775256Y-156591298D01*
G37*
G36*
X170955256Y-153071298D02*
G01*
X171061579Y-153092447D01*
X171362042Y-153216903D01*
X171632451Y-153397585D01*
X171862415Y-153627549D01*
X172043097Y-153897958D01*
X172167553Y-154198421D01*
X172231000Y-154517391D01*
X172231000Y-154842609D01*
X172167553Y-155161579D01*
X172043097Y-155462042D01*
X171862415Y-155732451D01*
X171632451Y-155962415D01*
X171362042Y-156143097D01*
X171061579Y-156267553D01*
X170955256Y-156288702D01*
X170742611Y-156331000D01*
X170417389Y-156331000D01*
X170204744Y-156288702D01*
X170098421Y-156267553D01*
X169797958Y-156143097D01*
X169527549Y-155962415D01*
X169297585Y-155732451D01*
X169116903Y-155462042D01*
X168992447Y-155161579D01*
X168929000Y-154842609D01*
X168929000Y-154517391D01*
X168992447Y-154198421D01*
X169116903Y-153897958D01*
X169297585Y-153627549D01*
X169527549Y-153397585D01*
X169797958Y-153216903D01*
X170098421Y-153092447D01*
X170204744Y-153071298D01*
X170417389Y-153029000D01*
X170742611Y-153029000D01*
X170955256Y-153071298D01*
G37*
G36*
X173728276Y-145471884D02*
G01*
X173945569Y-145561890D01*
X173945571Y-145561891D01*
X174141130Y-145692560D01*
X174307440Y-145858870D01*
X174438110Y-146054431D01*
X174529513Y-146275097D01*
X174534516Y-146291589D01*
X174546067Y-146313199D01*
X174561613Y-146332141D01*
X174580555Y-146347686D01*
X174602165Y-146359237D01*
X174625614Y-146366350D01*
X174650000Y-146368752D01*
X174674387Y-146366350D01*
X174697836Y-146359237D01*
X174719446Y-146347686D01*
X174738388Y-146332140D01*
X174753933Y-146313198D01*
X174765484Y-146291588D01*
X174770486Y-146275098D01*
X174861890Y-146054431D01*
X174992560Y-145858870D01*
X175158870Y-145692560D01*
X175354429Y-145561891D01*
X175354431Y-145561890D01*
X175571724Y-145471884D01*
X175802400Y-145426000D01*
X176037600Y-145426000D01*
X176268276Y-145471884D01*
X176485569Y-145561890D01*
X176485571Y-145561891D01*
X176681130Y-145692560D01*
X176847440Y-145858870D01*
X176978110Y-146054431D01*
X177068116Y-146271724D01*
X177114000Y-146502400D01*
X177114000Y-146737600D01*
X177068116Y-146968276D01*
X176978110Y-147185569D01*
X176978109Y-147185571D01*
X176847440Y-147381130D01*
X176681130Y-147547440D01*
X176485571Y-147678109D01*
X176485570Y-147678110D01*
X176485569Y-147678110D01*
X176268276Y-147768116D01*
X176037600Y-147814000D01*
X175802400Y-147814000D01*
X175571724Y-147768116D01*
X175354431Y-147678110D01*
X175354430Y-147678110D01*
X175354429Y-147678109D01*
X175158870Y-147547440D01*
X174992560Y-147381130D01*
X174861891Y-147185571D01*
X174771885Y-146968277D01*
X174770487Y-146964903D01*
X174765484Y-146948411D01*
X174753933Y-146926801D01*
X174738387Y-146907859D01*
X174719445Y-146892314D01*
X174697835Y-146880763D01*
X174674386Y-146873650D01*
X174650000Y-146871248D01*
X174625613Y-146873650D01*
X174602164Y-146880763D01*
X174580554Y-146892314D01*
X174561612Y-146907860D01*
X174546067Y-146926802D01*
X174534516Y-146948412D01*
X174529514Y-146964902D01*
X174438110Y-147185569D01*
X174438109Y-147185571D01*
X174307440Y-147381130D01*
X174141130Y-147547440D01*
X173945571Y-147678109D01*
X173945570Y-147678110D01*
X173945569Y-147678110D01*
X173728276Y-147768116D01*
X173497600Y-147814000D01*
X173262400Y-147814000D01*
X173031724Y-147768116D01*
X172814431Y-147678110D01*
X172814430Y-147678110D01*
X172814429Y-147678109D01*
X172618870Y-147547440D01*
X172452560Y-147381130D01*
X172321891Y-147185571D01*
X172321890Y-147185569D01*
X172231884Y-146968276D01*
X172186000Y-146737600D01*
X172186000Y-146502400D01*
X172231884Y-146271724D01*
X172321890Y-146054431D01*
X172452560Y-145858870D01*
X172618870Y-145692560D01*
X172814429Y-145561891D01*
X172814431Y-145561890D01*
X173031724Y-145471884D01*
X173262400Y-145426000D01*
X173497600Y-145426000D01*
X173728276Y-145471884D01*
G37*
G36*
X181348276Y-145471884D02*
G01*
X181565569Y-145561890D01*
X181565571Y-145561891D01*
X181761130Y-145692560D01*
X181927440Y-145858870D01*
X182058110Y-146054431D01*
X182148116Y-146271724D01*
X182194000Y-146502400D01*
X182194000Y-146737600D01*
X182148116Y-146968276D01*
X182058110Y-147185569D01*
X182058109Y-147185571D01*
X181927440Y-147381130D01*
X181761130Y-147547440D01*
X181565571Y-147678109D01*
X181565570Y-147678110D01*
X181565569Y-147678110D01*
X181348276Y-147768116D01*
X181117600Y-147814000D01*
X180882400Y-147814000D01*
X180651724Y-147768116D01*
X180434431Y-147678110D01*
X180434430Y-147678110D01*
X180434429Y-147678109D01*
X180238870Y-147547440D01*
X180072560Y-147381130D01*
X179941891Y-147185571D01*
X179941890Y-147185569D01*
X179851884Y-146968276D01*
X179806000Y-146737600D01*
X179806000Y-146502400D01*
X179851884Y-146271724D01*
X179941890Y-146054431D01*
X180072560Y-145858870D01*
X180238870Y-145692560D01*
X180434429Y-145561891D01*
X180434431Y-145561890D01*
X180651724Y-145471884D01*
X180882400Y-145426000D01*
X181117600Y-145426000D01*
X181348276Y-145471884D01*
G37*
G36*
X173728276Y-137851884D02*
G01*
X173945569Y-137941890D01*
X173945571Y-137941891D01*
X174141130Y-138072560D01*
X174307440Y-138238870D01*
X174438110Y-138434431D01*
X174529513Y-138655097D01*
X174534516Y-138671589D01*
X174546067Y-138693199D01*
X174561613Y-138712141D01*
X174580555Y-138727686D01*
X174602165Y-138739237D01*
X174625614Y-138746350D01*
X174650000Y-138748752D01*
X174674387Y-138746350D01*
X174697836Y-138739237D01*
X174719446Y-138727686D01*
X174738388Y-138712140D01*
X174753933Y-138693198D01*
X174765484Y-138671588D01*
X174770486Y-138655098D01*
X174861890Y-138434431D01*
X174992560Y-138238870D01*
X175158870Y-138072560D01*
X175354429Y-137941891D01*
X175354431Y-137941890D01*
X175571724Y-137851884D01*
X175802400Y-137806000D01*
X176037600Y-137806000D01*
X176268276Y-137851884D01*
X176485569Y-137941890D01*
X176485571Y-137941891D01*
X176681130Y-138072560D01*
X176847440Y-138238870D01*
X176978110Y-138434431D01*
X177068116Y-138651724D01*
X177114000Y-138882400D01*
X177114000Y-139117600D01*
X177068116Y-139348276D01*
X176978110Y-139565569D01*
X176978109Y-139565571D01*
X176847440Y-139761130D01*
X176681130Y-139927440D01*
X176485571Y-140058109D01*
X176485570Y-140058110D01*
X176485569Y-140058110D01*
X176268276Y-140148116D01*
X176037600Y-140194000D01*
X175802400Y-140194000D01*
X175571724Y-140148116D01*
X175354431Y-140058110D01*
X175354430Y-140058110D01*
X175354429Y-140058109D01*
X175158870Y-139927440D01*
X174992560Y-139761130D01*
X174861891Y-139565571D01*
X174771885Y-139348277D01*
X174770487Y-139344903D01*
X174765484Y-139328411D01*
X174753933Y-139306801D01*
X174738387Y-139287859D01*
X174719445Y-139272314D01*
X174697835Y-139260763D01*
X174674386Y-139253650D01*
X174650000Y-139251248D01*
X174625613Y-139253650D01*
X174602164Y-139260763D01*
X174580554Y-139272314D01*
X174561612Y-139287860D01*
X174546067Y-139306802D01*
X174534516Y-139328412D01*
X174529514Y-139344902D01*
X174438110Y-139565569D01*
X174438109Y-139565571D01*
X174307440Y-139761130D01*
X174141130Y-139927440D01*
X173945571Y-140058109D01*
X173945570Y-140058110D01*
X173945569Y-140058110D01*
X173728276Y-140148116D01*
X173497600Y-140194000D01*
X173262400Y-140194000D01*
X173031724Y-140148116D01*
X172814431Y-140058110D01*
X172814430Y-140058110D01*
X172814429Y-140058109D01*
X172618870Y-139927440D01*
X172452560Y-139761130D01*
X172321891Y-139565571D01*
X172321890Y-139565569D01*
X172231884Y-139348276D01*
X172186000Y-139117600D01*
X172186000Y-138882400D01*
X172231884Y-138651724D01*
X172321890Y-138434431D01*
X172452560Y-138238870D01*
X172618870Y-138072560D01*
X172814429Y-137941891D01*
X172814431Y-137941890D01*
X173031724Y-137851884D01*
X173262400Y-137806000D01*
X173497600Y-137806000D01*
X173728276Y-137851884D01*
G37*
G36*
X181348276Y-137851884D02*
G01*
X181565569Y-137941890D01*
X181565571Y-137941891D01*
X181761130Y-138072560D01*
X181927440Y-138238870D01*
X182058110Y-138434431D01*
X182148116Y-138651724D01*
X182194000Y-138882400D01*
X182194000Y-139117600D01*
X182148116Y-139348276D01*
X182058110Y-139565569D01*
X182058109Y-139565571D01*
X181927440Y-139761130D01*
X181761130Y-139927440D01*
X181565571Y-140058109D01*
X181565570Y-140058110D01*
X181565569Y-140058110D01*
X181348276Y-140148116D01*
X181117600Y-140194000D01*
X180882400Y-140194000D01*
X180651724Y-140148116D01*
X180434431Y-140058110D01*
X180434430Y-140058110D01*
X180434429Y-140058109D01*
X180238870Y-139927440D01*
X180072560Y-139761130D01*
X179941891Y-139565571D01*
X179941890Y-139565569D01*
X179851884Y-139348276D01*
X179806000Y-139117600D01*
X179806000Y-138882400D01*
X179851884Y-138651724D01*
X179941890Y-138434431D01*
X180072560Y-138238870D01*
X180238870Y-138072560D01*
X180434429Y-137941891D01*
X180434431Y-137941890D01*
X180651724Y-137851884D01*
X180882400Y-137806000D01*
X181117600Y-137806000D01*
X181348276Y-137851884D01*
G37*
G36*
X170955256Y-129331298D02*
G01*
X171061579Y-129352447D01*
X171362042Y-129476903D01*
X171632451Y-129657585D01*
X171862415Y-129887549D01*
X172043097Y-130157958D01*
X172167553Y-130458421D01*
X172231000Y-130777391D01*
X172231000Y-131102609D01*
X172167553Y-131421579D01*
X172043097Y-131722042D01*
X171862415Y-131992451D01*
X171632451Y-132222415D01*
X171362042Y-132403097D01*
X171061579Y-132527553D01*
X170955256Y-132548702D01*
X170742611Y-132591000D01*
X170417389Y-132591000D01*
X170204744Y-132548702D01*
X170098421Y-132527553D01*
X169797958Y-132403097D01*
X169527549Y-132222415D01*
X169297585Y-131992451D01*
X169116903Y-131722042D01*
X168992447Y-131421579D01*
X168929000Y-131102609D01*
X168929000Y-130777391D01*
X168992447Y-130458421D01*
X169116903Y-130157958D01*
X169297585Y-129887549D01*
X169527549Y-129657585D01*
X169797958Y-129476903D01*
X170098421Y-129352447D01*
X170204744Y-129331298D01*
X170417389Y-129289000D01*
X170742611Y-129289000D01*
X170955256Y-129331298D01*
G37*
G36*
X177671304Y-118287002D02*
G01*
X178090139Y-118460489D01*
X178090141Y-118460490D01*
X178279891Y-118587277D01*
X178467082Y-118712354D01*
X178787646Y-119032918D01*
X179039511Y-119409861D01*
X179212998Y-119828696D01*
X179301440Y-120273327D01*
X179301440Y-120726673D01*
X179212998Y-121171304D01*
X179096560Y-121452410D01*
X179039510Y-121590141D01*
X178787645Y-121967083D01*
X178467083Y-122287645D01*
X178090141Y-122539510D01*
X178090140Y-122539511D01*
X178090139Y-122539511D01*
X177671304Y-122712998D01*
X177226673Y-122801440D01*
X176773327Y-122801440D01*
X176328696Y-122712998D01*
X175909861Y-122539511D01*
X175909860Y-122539511D01*
X175909859Y-122539510D01*
X175532917Y-122287645D01*
X175212355Y-121967083D01*
X174960490Y-121590141D01*
X174903440Y-121452410D01*
X174787002Y-121171304D01*
X174698560Y-120726673D01*
X174698560Y-120273327D01*
X174787002Y-119828696D01*
X174960489Y-119409861D01*
X175212354Y-119032918D01*
X175532918Y-118712354D01*
X175720109Y-118587277D01*
X175909859Y-118460490D01*
X175909861Y-118460489D01*
X176328696Y-118287002D01*
X176773327Y-118198560D01*
X177226673Y-118198560D01*
X177671304Y-118287002D01*
G37*
G36*
X167302585Y-119478802D02*
G01*
X167452410Y-119508604D01*
X167734674Y-119625521D01*
X167988705Y-119795259D01*
X168204741Y-120011295D01*
X168374479Y-120265326D01*
X168473325Y-120503963D01*
X168491396Y-120547591D01*
X168551000Y-120847239D01*
X168551000Y-121152761D01*
X168547311Y-121171305D01*
X168491396Y-121452410D01*
X168374479Y-121734674D01*
X168204741Y-121988705D01*
X167988705Y-122204741D01*
X167734674Y-122374479D01*
X167452410Y-122491396D01*
X167302585Y-122521198D01*
X167152761Y-122551000D01*
X166847239Y-122551000D01*
X166697415Y-122521198D01*
X166547590Y-122491396D01*
X166265326Y-122374479D01*
X166011295Y-122204741D01*
X165795259Y-121988705D01*
X165625521Y-121734674D01*
X165508604Y-121452410D01*
X165452689Y-121171305D01*
X165449000Y-121152761D01*
X165449000Y-120847239D01*
X165508604Y-120547591D01*
X165526675Y-120503963D01*
X165625521Y-120265326D01*
X165795259Y-120011295D01*
X166011295Y-119795259D01*
X166265326Y-119625521D01*
X166547590Y-119508604D01*
X166697415Y-119478802D01*
X166847239Y-119449000D01*
X167152761Y-119449000D01*
X167302585Y-119478802D01*
G37*
G36*
X229083698Y-120503962D02*
G01*
X229208541Y-120555674D01*
X229208543Y-120555675D01*
X229320899Y-120630749D01*
X229416451Y-120726301D01*
X229491526Y-120838659D01*
X229543238Y-120963502D01*
X229569600Y-121096034D01*
X229569600Y-121231166D01*
X229543238Y-121363698D01*
X229506492Y-121452409D01*
X229491525Y-121488543D01*
X229416451Y-121600899D01*
X229320899Y-121696451D01*
X229208543Y-121771525D01*
X229208542Y-121771526D01*
X229208541Y-121771526D01*
X229083698Y-121823238D01*
X228951166Y-121849600D01*
X228816034Y-121849600D01*
X228683502Y-121823238D01*
X228558659Y-121771526D01*
X228558658Y-121771526D01*
X228558657Y-121771525D01*
X228446301Y-121696451D01*
X228350749Y-121600899D01*
X228275675Y-121488543D01*
X228260708Y-121452409D01*
X228223962Y-121363698D01*
X228197600Y-121231166D01*
X228197600Y-121096034D01*
X228223962Y-120963502D01*
X228275674Y-120838659D01*
X228350749Y-120726301D01*
X228446301Y-120630749D01*
X228558657Y-120555675D01*
X228558659Y-120555674D01*
X228683502Y-120503962D01*
X228816034Y-120477600D01*
X228951166Y-120477600D01*
X229083698Y-120503962D01*
G37*
G36*
X187375256Y-116891298D02*
G01*
X187481579Y-116912447D01*
X187641571Y-116978718D01*
X187750006Y-117023633D01*
X187782042Y-117036903D01*
X188052451Y-117217585D01*
X188282415Y-117447549D01*
X188463097Y-117717958D01*
X188587553Y-118018421D01*
X188589864Y-118030038D01*
X188651000Y-118337389D01*
X188651000Y-118662611D01*
X188617141Y-118832829D01*
X188587553Y-118981579D01*
X188463097Y-119282042D01*
X188282415Y-119552451D01*
X188052451Y-119782415D01*
X187782042Y-119963097D01*
X187481579Y-120087553D01*
X187375256Y-120108702D01*
X187162611Y-120151000D01*
X186837389Y-120151000D01*
X186624744Y-120108702D01*
X186518421Y-120087553D01*
X186217958Y-119963097D01*
X185947549Y-119782415D01*
X185717585Y-119552451D01*
X185536903Y-119282042D01*
X185412447Y-118981579D01*
X185382859Y-118832829D01*
X185349000Y-118662611D01*
X185349000Y-118337389D01*
X185410136Y-118030038D01*
X185412447Y-118018421D01*
X185536903Y-117717958D01*
X185717585Y-117447549D01*
X185947549Y-117217585D01*
X186217958Y-117036903D01*
X186249995Y-117023633D01*
X186358429Y-116978718D01*
X186518421Y-116912447D01*
X186624744Y-116891298D01*
X186837389Y-116849000D01*
X187162611Y-116849000D01*
X187375256Y-116891298D01*
G37*
G36*
X227262171Y-117366463D02*
G01*
X227340623Y-117374190D01*
X227441282Y-117404725D01*
X227491613Y-117419992D01*
X227630765Y-117494371D01*
X227752733Y-117594467D01*
X227852829Y-117716435D01*
X227927208Y-117855587D01*
X227942475Y-117905918D01*
X227973010Y-118006577D01*
X227988475Y-118163600D01*
X227973010Y-118320623D01*
X227967924Y-118337389D01*
X227927208Y-118471613D01*
X227852829Y-118610765D01*
X227752733Y-118732733D01*
X227630765Y-118832829D01*
X227491613Y-118907208D01*
X227441282Y-118922475D01*
X227340623Y-118953010D01*
X227262171Y-118960737D01*
X227222946Y-118964600D01*
X226624254Y-118964600D01*
X226585029Y-118960737D01*
X226506577Y-118953010D01*
X226405918Y-118922475D01*
X226355587Y-118907208D01*
X226216435Y-118832829D01*
X226094467Y-118732733D01*
X225994371Y-118610765D01*
X225919992Y-118471613D01*
X225879276Y-118337389D01*
X225874190Y-118320623D01*
X225858725Y-118163600D01*
X225874190Y-118006577D01*
X225904725Y-117905918D01*
X225919992Y-117855587D01*
X225994371Y-117716435D01*
X226094467Y-117594467D01*
X226216435Y-117494371D01*
X226355587Y-117419992D01*
X226405918Y-117404725D01*
X226506577Y-117374190D01*
X226585029Y-117366463D01*
X226624254Y-117362600D01*
X227222946Y-117362600D01*
X227262171Y-117366463D01*
G37*
G36*
X215088674Y-116903465D02*
G01*
X215126367Y-116914899D01*
X215161103Y-116933466D01*
X215191548Y-116958452D01*
X215216534Y-116988897D01*
X215235101Y-117023633D01*
X215246535Y-117061326D01*
X215251000Y-117106661D01*
X215251000Y-117943339D01*
X215246535Y-117988674D01*
X215235101Y-118026367D01*
X215216534Y-118061103D01*
X215191548Y-118091548D01*
X215161103Y-118116534D01*
X215126367Y-118135101D01*
X215088674Y-118146535D01*
X215043339Y-118151000D01*
X213956661Y-118151000D01*
X213911326Y-118146535D01*
X213873633Y-118135101D01*
X213838897Y-118116534D01*
X213808452Y-118091548D01*
X213783466Y-118061103D01*
X213764899Y-118026367D01*
X213753465Y-117988674D01*
X213749000Y-117943339D01*
X213749000Y-117106661D01*
X213753465Y-117061326D01*
X213764899Y-117023633D01*
X213783466Y-116988897D01*
X213808452Y-116958452D01*
X213838897Y-116933466D01*
X213873633Y-116914899D01*
X213911326Y-116903465D01*
X213956661Y-116899000D01*
X215043339Y-116899000D01*
X215088674Y-116903465D01*
G37*
G36*
X215088674Y-114853465D02*
G01*
X215126367Y-114864899D01*
X215161103Y-114883466D01*
X215191548Y-114908452D01*
X215216534Y-114938897D01*
X215235101Y-114973633D01*
X215246535Y-115011326D01*
X215251000Y-115056661D01*
X215251000Y-115893339D01*
X215246535Y-115938674D01*
X215235101Y-115976367D01*
X215216534Y-116011103D01*
X215191548Y-116041548D01*
X215161103Y-116066534D01*
X215126367Y-116085101D01*
X215088674Y-116096535D01*
X215043339Y-116101000D01*
X213956661Y-116101000D01*
X213911326Y-116096535D01*
X213873633Y-116085101D01*
X213838897Y-116066534D01*
X213808452Y-116041548D01*
X213783466Y-116011103D01*
X213764899Y-115976367D01*
X213753465Y-115938674D01*
X213749000Y-115893339D01*
X213749000Y-115056661D01*
X213753465Y-115011326D01*
X213764899Y-114973633D01*
X213783466Y-114938897D01*
X213808452Y-114908452D01*
X213838897Y-114883466D01*
X213873633Y-114864899D01*
X213911326Y-114853465D01*
X213956661Y-114849000D01*
X215043339Y-114849000D01*
X215088674Y-114853465D01*
G37*
G36*
X227836648Y-114366722D02*
G01*
X227870987Y-114377139D01*
X227902636Y-114394056D01*
X227930378Y-114416822D01*
X227953144Y-114444564D01*
X227970061Y-114476213D01*
X227980478Y-114510552D01*
X227984600Y-114552407D01*
X227984600Y-115774793D01*
X227980478Y-115816648D01*
X227970061Y-115850987D01*
X227953144Y-115882636D01*
X227930378Y-115910378D01*
X227902636Y-115933144D01*
X227870987Y-115950061D01*
X227836648Y-115960478D01*
X227794793Y-115964600D01*
X226052407Y-115964600D01*
X226010552Y-115960478D01*
X225976213Y-115950061D01*
X225944564Y-115933144D01*
X225916822Y-115910378D01*
X225894056Y-115882636D01*
X225877139Y-115850987D01*
X225866722Y-115816648D01*
X225862600Y-115774793D01*
X225862600Y-114552407D01*
X225866722Y-114510552D01*
X225877139Y-114476213D01*
X225894056Y-114444564D01*
X225916822Y-114416822D01*
X225944564Y-114394056D01*
X225976213Y-114377139D01*
X226010552Y-114366722D01*
X226052407Y-114362600D01*
X227794793Y-114362600D01*
X227836648Y-114366722D01*
G37*
G36*
X229083698Y-111503962D02*
G01*
X229208541Y-111555674D01*
X229208543Y-111555675D01*
X229320899Y-111630749D01*
X229416451Y-111726301D01*
X229491526Y-111838659D01*
X229543238Y-111963502D01*
X229569600Y-112096034D01*
X229569600Y-112231166D01*
X229543238Y-112363698D01*
X229491526Y-112488541D01*
X229491525Y-112488543D01*
X229416451Y-112600899D01*
X229320899Y-112696451D01*
X229208543Y-112771525D01*
X229208542Y-112771526D01*
X229208541Y-112771526D01*
X229083698Y-112823238D01*
X228951166Y-112849600D01*
X228816034Y-112849600D01*
X228683502Y-112823238D01*
X228558659Y-112771526D01*
X228558658Y-112771526D01*
X228558657Y-112771525D01*
X228446301Y-112696451D01*
X228350749Y-112600899D01*
X228275675Y-112488543D01*
X228275674Y-112488541D01*
X228223962Y-112363698D01*
X228197600Y-112231166D01*
X228197600Y-112096034D01*
X228223962Y-111963502D01*
X228275674Y-111838659D01*
X228350749Y-111726301D01*
X228446301Y-111630749D01*
X228558657Y-111555675D01*
X228558659Y-111555674D01*
X228683502Y-111503962D01*
X228816034Y-111477600D01*
X228951166Y-111477600D01*
X229083698Y-111503962D01*
G37*
G36*
X218829400Y-110247000D02*
G01*
X215977400Y-110247000D01*
X215977400Y-109145000D01*
X218829400Y-109145000D01*
X218829400Y-110247000D01*
G37*
G36*
X213079400Y-110247000D02*
G01*
X210227400Y-110247000D01*
X210227400Y-109145000D01*
X213079400Y-109145000D01*
X213079400Y-110247000D01*
G37*
G36*
X228829698Y-108108762D02*
G01*
X228954541Y-108160474D01*
X228954543Y-108160475D01*
X229001047Y-108191548D01*
X229066899Y-108235549D01*
X229162451Y-108331101D01*
X229237526Y-108443459D01*
X229289238Y-108568302D01*
X229315600Y-108700834D01*
X229315600Y-108835966D01*
X229289238Y-108968498D01*
X229237526Y-109093341D01*
X229237525Y-109093343D01*
X229162451Y-109205699D01*
X229066899Y-109301251D01*
X228954543Y-109376325D01*
X228954542Y-109376326D01*
X228954541Y-109376326D01*
X228829698Y-109428038D01*
X228697166Y-109454400D01*
X228562034Y-109454400D01*
X228429502Y-109428038D01*
X228304659Y-109376326D01*
X228304658Y-109376326D01*
X228304657Y-109376325D01*
X228192301Y-109301251D01*
X228096749Y-109205699D01*
X228021675Y-109093343D01*
X228021674Y-109093341D01*
X227969962Y-108968498D01*
X227943600Y-108835966D01*
X227943600Y-108700834D01*
X227969962Y-108568302D01*
X228021674Y-108443459D01*
X228096749Y-108331101D01*
X228192301Y-108235549D01*
X228258153Y-108191548D01*
X228304657Y-108160475D01*
X228304659Y-108160474D01*
X228429502Y-108108762D01*
X228562034Y-108082400D01*
X228697166Y-108082400D01*
X228829698Y-108108762D01*
G37*
G36*
X199438674Y-106753465D02*
G01*
X199476367Y-106764899D01*
X199511103Y-106783466D01*
X199541548Y-106808452D01*
X199566534Y-106838897D01*
X199585101Y-106873633D01*
X199596535Y-106911326D01*
X199601000Y-106956661D01*
X199601000Y-108043339D01*
X199596535Y-108088674D01*
X199585101Y-108126367D01*
X199566534Y-108161103D01*
X199541548Y-108191548D01*
X199511103Y-108216534D01*
X199476367Y-108235101D01*
X199438674Y-108246535D01*
X199393339Y-108251000D01*
X198556661Y-108251000D01*
X198511326Y-108246535D01*
X198473633Y-108235101D01*
X198438897Y-108216534D01*
X198408452Y-108191548D01*
X198383466Y-108161103D01*
X198364899Y-108126367D01*
X198353465Y-108088674D01*
X198349000Y-108043339D01*
X198349000Y-106956661D01*
X198353465Y-106911326D01*
X198364899Y-106873633D01*
X198383466Y-106838897D01*
X198408452Y-106808452D01*
X198438897Y-106783466D01*
X198473633Y-106764899D01*
X198511326Y-106753465D01*
X198556661Y-106749000D01*
X199393339Y-106749000D01*
X199438674Y-106753465D01*
G37*
G36*
X204938674Y-106753465D02*
G01*
X204976367Y-106764899D01*
X205011103Y-106783466D01*
X205041548Y-106808452D01*
X205066534Y-106838897D01*
X205085101Y-106873633D01*
X205096535Y-106911326D01*
X205101000Y-106956661D01*
X205101000Y-108043339D01*
X205096535Y-108088674D01*
X205085101Y-108126367D01*
X205066534Y-108161103D01*
X205041548Y-108191548D01*
X205011103Y-108216534D01*
X204976367Y-108235101D01*
X204938674Y-108246535D01*
X204893339Y-108251000D01*
X204056661Y-108251000D01*
X204011326Y-108246535D01*
X203973633Y-108235101D01*
X203938897Y-108216534D01*
X203908452Y-108191548D01*
X203883466Y-108161103D01*
X203864899Y-108126367D01*
X203853465Y-108088674D01*
X203849000Y-108043339D01*
X203849000Y-106956661D01*
X203853465Y-106911326D01*
X203864899Y-106873633D01*
X203883466Y-106838897D01*
X203908452Y-106808452D01*
X203938897Y-106783466D01*
X203973633Y-106764899D01*
X204011326Y-106753465D01*
X204056661Y-106749000D01*
X204893339Y-106749000D01*
X204938674Y-106753465D01*
G37*
G36*
X201488674Y-106753465D02*
G01*
X201526367Y-106764899D01*
X201561103Y-106783466D01*
X201591548Y-106808452D01*
X201616534Y-106838897D01*
X201635101Y-106873633D01*
X201646535Y-106911326D01*
X201651000Y-106956661D01*
X201651000Y-108043339D01*
X201646535Y-108088674D01*
X201635101Y-108126367D01*
X201616534Y-108161103D01*
X201591548Y-108191548D01*
X201561103Y-108216534D01*
X201526367Y-108235101D01*
X201488674Y-108246535D01*
X201443339Y-108251000D01*
X200606661Y-108251000D01*
X200561326Y-108246535D01*
X200523633Y-108235101D01*
X200488897Y-108216534D01*
X200458452Y-108191548D01*
X200433466Y-108161103D01*
X200414899Y-108126367D01*
X200403465Y-108088674D01*
X200399000Y-108043339D01*
X200399000Y-106956661D01*
X200403465Y-106911326D01*
X200414899Y-106873633D01*
X200433466Y-106838897D01*
X200458452Y-106808452D01*
X200488897Y-106783466D01*
X200523633Y-106764899D01*
X200561326Y-106753465D01*
X200606661Y-106749000D01*
X201443339Y-106749000D01*
X201488674Y-106753465D01*
G37*
G36*
X206988674Y-106753465D02*
G01*
X207026367Y-106764899D01*
X207061103Y-106783466D01*
X207091548Y-106808452D01*
X207116534Y-106838897D01*
X207135101Y-106873633D01*
X207146535Y-106911326D01*
X207151000Y-106956661D01*
X207151000Y-108043339D01*
X207146535Y-108088674D01*
X207135101Y-108126367D01*
X207116534Y-108161103D01*
X207091548Y-108191548D01*
X207061103Y-108216534D01*
X207026367Y-108235101D01*
X206988674Y-108246535D01*
X206943339Y-108251000D01*
X206106661Y-108251000D01*
X206061326Y-108246535D01*
X206023633Y-108235101D01*
X205988897Y-108216534D01*
X205958452Y-108191548D01*
X205933466Y-108161103D01*
X205914899Y-108126367D01*
X205903465Y-108088674D01*
X205899000Y-108043339D01*
X205899000Y-106956661D01*
X205903465Y-106911326D01*
X205914899Y-106873633D01*
X205933466Y-106838897D01*
X205958452Y-106808452D01*
X205988897Y-106783466D01*
X206023633Y-106764899D01*
X206061326Y-106753465D01*
X206106661Y-106749000D01*
X206943339Y-106749000D01*
X206988674Y-106753465D01*
G37*
G36*
X227008171Y-104971263D02*
G01*
X227086623Y-104978990D01*
X227187282Y-105009525D01*
X227237613Y-105024792D01*
X227376765Y-105099171D01*
X227498733Y-105199267D01*
X227598829Y-105321235D01*
X227673208Y-105460387D01*
X227673208Y-105460388D01*
X227719010Y-105611377D01*
X227734475Y-105768400D01*
X227719010Y-105925423D01*
X227688475Y-106026082D01*
X227673208Y-106076413D01*
X227598829Y-106215565D01*
X227498733Y-106337533D01*
X227376765Y-106437629D01*
X227237613Y-106512008D01*
X227187282Y-106527275D01*
X227086623Y-106557810D01*
X227008171Y-106565537D01*
X226968946Y-106569400D01*
X226370254Y-106569400D01*
X226331029Y-106565537D01*
X226252577Y-106557810D01*
X226151918Y-106527275D01*
X226101587Y-106512008D01*
X225962435Y-106437629D01*
X225840467Y-106337533D01*
X225740371Y-106215565D01*
X225665992Y-106076413D01*
X225650725Y-106026082D01*
X225620190Y-105925423D01*
X225604725Y-105768400D01*
X225620190Y-105611377D01*
X225665992Y-105460388D01*
X225665992Y-105460387D01*
X225740371Y-105321235D01*
X225840467Y-105199267D01*
X225962435Y-105099171D01*
X226101587Y-105024792D01*
X226151918Y-105009525D01*
X226252577Y-104978990D01*
X226331029Y-104971263D01*
X226370254Y-104967400D01*
X226968946Y-104967400D01*
X227008171Y-104971263D01*
G37*
G36*
X218829400Y-106247000D02*
G01*
X215977400Y-106247000D01*
X215977400Y-105145000D01*
X218829400Y-105145000D01*
X218829400Y-106247000D01*
G37*
G36*
X213079400Y-106247000D02*
G01*
X210227400Y-106247000D01*
X210227400Y-105145000D01*
X213079400Y-105145000D01*
X213079400Y-106247000D01*
G37*
G36*
X169160098Y-104340362D02*
G01*
X169284941Y-104392074D01*
X169284943Y-104392075D01*
X169397299Y-104467149D01*
X169492851Y-104562701D01*
X169567926Y-104675059D01*
X169619638Y-104799902D01*
X169646000Y-104932434D01*
X169646000Y-105067566D01*
X169619638Y-105200098D01*
X169569461Y-105321235D01*
X169567925Y-105324943D01*
X169492851Y-105437299D01*
X169397299Y-105532851D01*
X169284943Y-105607925D01*
X169284942Y-105607926D01*
X169284941Y-105607926D01*
X169160098Y-105659638D01*
X169027566Y-105686000D01*
X168892434Y-105686000D01*
X168759902Y-105659638D01*
X168635059Y-105607926D01*
X168635058Y-105607926D01*
X168635057Y-105607925D01*
X168522701Y-105532851D01*
X168427149Y-105437299D01*
X168352075Y-105324943D01*
X168350539Y-105321235D01*
X168300362Y-105200098D01*
X168274000Y-105067566D01*
X168274000Y-104932434D01*
X168300362Y-104799902D01*
X168352074Y-104675059D01*
X168427149Y-104562701D01*
X168522701Y-104467149D01*
X168635057Y-104392075D01*
X168635059Y-104392074D01*
X168759902Y-104340362D01*
X168892434Y-104314000D01*
X169027566Y-104314000D01*
X169160098Y-104340362D01*
G37*
G36*
X206988674Y-102253465D02*
G01*
X207026367Y-102264899D01*
X207061103Y-102283466D01*
X207091548Y-102308452D01*
X207116534Y-102338897D01*
X207135101Y-102373633D01*
X207146535Y-102411326D01*
X207151000Y-102456661D01*
X207151000Y-103543339D01*
X207146535Y-103588674D01*
X207135101Y-103626367D01*
X207116534Y-103661103D01*
X207091548Y-103691548D01*
X207061103Y-103716534D01*
X207026367Y-103735101D01*
X206988674Y-103746535D01*
X206943339Y-103751000D01*
X206106661Y-103751000D01*
X206061326Y-103746535D01*
X206023633Y-103735101D01*
X205988897Y-103716534D01*
X205958452Y-103691548D01*
X205933466Y-103661103D01*
X205914899Y-103626367D01*
X205903465Y-103588674D01*
X205899000Y-103543339D01*
X205899000Y-102456661D01*
X205903465Y-102411326D01*
X205914899Y-102373633D01*
X205933466Y-102338897D01*
X205958452Y-102308452D01*
X205988897Y-102283466D01*
X206023633Y-102264899D01*
X206061326Y-102253465D01*
X206106661Y-102249000D01*
X206943339Y-102249000D01*
X206988674Y-102253465D01*
G37*
G36*
X204938674Y-102253465D02*
G01*
X204976367Y-102264899D01*
X205011103Y-102283466D01*
X205041548Y-102308452D01*
X205066534Y-102338897D01*
X205085101Y-102373633D01*
X205096535Y-102411326D01*
X205101000Y-102456661D01*
X205101000Y-103543339D01*
X205096535Y-103588674D01*
X205085101Y-103626367D01*
X205066534Y-103661103D01*
X205041548Y-103691548D01*
X205011103Y-103716534D01*
X204976367Y-103735101D01*
X204938674Y-103746535D01*
X204893339Y-103751000D01*
X204056661Y-103751000D01*
X204011326Y-103746535D01*
X203973633Y-103735101D01*
X203938897Y-103716534D01*
X203908452Y-103691548D01*
X203883466Y-103661103D01*
X203864899Y-103626367D01*
X203853465Y-103588674D01*
X203849000Y-103543339D01*
X203849000Y-102456661D01*
X203853465Y-102411326D01*
X203864899Y-102373633D01*
X203883466Y-102338897D01*
X203908452Y-102308452D01*
X203938897Y-102283466D01*
X203973633Y-102264899D01*
X204011326Y-102253465D01*
X204056661Y-102249000D01*
X204893339Y-102249000D01*
X204938674Y-102253465D01*
G37*
G36*
X227582648Y-101971522D02*
G01*
X227616987Y-101981939D01*
X227648636Y-101998856D01*
X227676378Y-102021622D01*
X227699144Y-102049364D01*
X227716061Y-102081013D01*
X227726478Y-102115352D01*
X227730600Y-102157207D01*
X227730600Y-103379593D01*
X227726478Y-103421448D01*
X227716061Y-103455787D01*
X227699144Y-103487436D01*
X227676378Y-103515178D01*
X227648636Y-103537944D01*
X227616987Y-103554861D01*
X227582648Y-103565278D01*
X227540793Y-103569400D01*
X225798407Y-103569400D01*
X225756552Y-103565278D01*
X225722213Y-103554861D01*
X225690564Y-103537944D01*
X225662822Y-103515178D01*
X225640056Y-103487436D01*
X225623139Y-103455787D01*
X225612722Y-103421448D01*
X225608600Y-103379593D01*
X225608600Y-102157207D01*
X225612722Y-102115352D01*
X225623139Y-102081013D01*
X225640056Y-102049364D01*
X225662822Y-102021622D01*
X225690564Y-101998856D01*
X225722213Y-101981939D01*
X225756552Y-101971522D01*
X225798407Y-101967400D01*
X227540793Y-101967400D01*
X227582648Y-101971522D01*
G37*
G36*
X191101000Y-103451000D02*
G01*
X184599000Y-103451000D01*
X184599000Y-97549000D01*
X191101000Y-97549000D01*
X191101000Y-103451000D01*
G37*
G36*
X195301000Y-103431000D02*
G01*
X192999000Y-103431000D01*
X192999000Y-102129000D01*
X195301000Y-102129000D01*
X195301000Y-103431000D01*
G37*
G36*
X167338571Y-101202863D02*
G01*
X167417023Y-101210590D01*
X167517682Y-101241125D01*
X167568013Y-101256392D01*
X167707165Y-101330771D01*
X167829133Y-101430867D01*
X167929229Y-101552835D01*
X168003608Y-101691987D01*
X168003608Y-101691988D01*
X168049410Y-101842977D01*
X168064875Y-102000000D01*
X168049410Y-102157023D01*
X168049354Y-102157207D01*
X168003608Y-102308013D01*
X167929229Y-102447165D01*
X167829133Y-102569133D01*
X167707165Y-102669229D01*
X167568013Y-102743608D01*
X167517682Y-102758875D01*
X167417023Y-102789410D01*
X167338571Y-102797137D01*
X167299346Y-102801000D01*
X166700654Y-102801000D01*
X166661429Y-102797137D01*
X166582977Y-102789410D01*
X166482318Y-102758875D01*
X166431987Y-102743608D01*
X166292835Y-102669229D01*
X166170867Y-102569133D01*
X166070771Y-102447165D01*
X165996392Y-102308013D01*
X165950646Y-102157207D01*
X165950590Y-102157023D01*
X165935125Y-102000000D01*
X165950590Y-101842977D01*
X165996392Y-101691988D01*
X165996392Y-101691987D01*
X166070771Y-101552835D01*
X166170867Y-101430867D01*
X166292835Y-101330771D01*
X166431987Y-101256392D01*
X166482318Y-101241125D01*
X166582977Y-101210590D01*
X166661429Y-101202863D01*
X166700654Y-101199000D01*
X167299346Y-101199000D01*
X167338571Y-101202863D01*
G37*
G36*
X215991400Y-100589200D02*
G01*
X214669400Y-100589200D01*
X214669400Y-99837200D01*
X215991400Y-99837200D01*
X215991400Y-100589200D01*
G37*
G36*
X228829698Y-99108762D02*
G01*
X228954541Y-99160474D01*
X228954543Y-99160475D01*
X228994697Y-99187305D01*
X229066899Y-99235549D01*
X229162451Y-99331101D01*
X229237526Y-99443459D01*
X229289238Y-99568302D01*
X229315600Y-99700834D01*
X229315600Y-99835966D01*
X229289238Y-99968498D01*
X229246663Y-100071282D01*
X229237525Y-100093343D01*
X229162451Y-100205699D01*
X229066899Y-100301251D01*
X228954543Y-100376325D01*
X228954542Y-100376326D01*
X228954541Y-100376326D01*
X228829698Y-100428038D01*
X228697166Y-100454400D01*
X228562034Y-100454400D01*
X228429502Y-100428038D01*
X228304659Y-100376326D01*
X228304658Y-100376326D01*
X228304657Y-100376325D01*
X228192301Y-100301251D01*
X228096749Y-100205699D01*
X228021675Y-100093343D01*
X228012537Y-100071282D01*
X227969962Y-99968498D01*
X227943600Y-99835966D01*
X227943600Y-99700834D01*
X227969962Y-99568302D01*
X228021674Y-99443459D01*
X228096749Y-99331101D01*
X228192301Y-99235549D01*
X228264503Y-99187305D01*
X228304657Y-99160475D01*
X228304659Y-99160474D01*
X228429502Y-99108762D01*
X228562034Y-99082400D01*
X228697166Y-99082400D01*
X228829698Y-99108762D01*
G37*
G36*
X208588674Y-98903465D02*
G01*
X208626367Y-98914899D01*
X208661103Y-98933466D01*
X208691548Y-98958452D01*
X208716534Y-98988897D01*
X208735101Y-99023633D01*
X208746535Y-99061326D01*
X208751000Y-99106661D01*
X208751000Y-99943339D01*
X208746535Y-99988674D01*
X208735101Y-100026367D01*
X208716534Y-100061103D01*
X208691548Y-100091548D01*
X208661103Y-100116534D01*
X208626367Y-100135101D01*
X208588674Y-100146535D01*
X208543339Y-100151000D01*
X207456661Y-100151000D01*
X207411326Y-100146535D01*
X207373633Y-100135101D01*
X207338897Y-100116534D01*
X207308452Y-100091548D01*
X207283466Y-100061103D01*
X207264899Y-100026367D01*
X207253465Y-99988674D01*
X207249000Y-99943339D01*
X207249000Y-99106661D01*
X207253465Y-99061326D01*
X207264899Y-99023633D01*
X207283466Y-98988897D01*
X207308452Y-98958452D01*
X207338897Y-98933466D01*
X207373633Y-98914899D01*
X207411326Y-98903465D01*
X207456661Y-98899000D01*
X208543339Y-98899000D01*
X208588674Y-98903465D01*
G37*
G36*
X202923241Y-97104760D02*
G01*
X203187305Y-97214139D01*
X203424958Y-97372934D01*
X203627066Y-97575042D01*
X203785861Y-97812695D01*
X203895240Y-98076759D01*
X203951000Y-98357088D01*
X203951000Y-98642912D01*
X203895240Y-98923241D01*
X203785861Y-99187305D01*
X203627066Y-99424958D01*
X203424958Y-99627066D01*
X203187305Y-99785861D01*
X202923241Y-99895240D01*
X202642912Y-99951000D01*
X202357088Y-99951000D01*
X202076759Y-99895240D01*
X201812695Y-99785861D01*
X201575042Y-99627066D01*
X201372934Y-99424958D01*
X201214139Y-99187305D01*
X201104760Y-98923241D01*
X201049000Y-98642912D01*
X201049000Y-98357088D01*
X201104760Y-98076759D01*
X201214139Y-97812695D01*
X201372934Y-97575042D01*
X201575042Y-97372934D01*
X201812695Y-97214139D01*
X202076759Y-97104760D01*
X202357088Y-97049000D01*
X202642912Y-97049000D01*
X202923241Y-97104760D01*
G37*
G36*
X167913048Y-98203122D02*
G01*
X167947387Y-98213539D01*
X167979036Y-98230456D01*
X168006778Y-98253222D01*
X168029544Y-98280964D01*
X168046461Y-98312613D01*
X168056878Y-98346952D01*
X168061000Y-98388807D01*
X168061000Y-99611193D01*
X168056878Y-99653048D01*
X168046461Y-99687387D01*
X168029544Y-99719036D01*
X168006778Y-99746778D01*
X167979036Y-99769544D01*
X167947387Y-99786461D01*
X167913048Y-99796878D01*
X167871193Y-99801000D01*
X166128807Y-99801000D01*
X166086952Y-99796878D01*
X166052613Y-99786461D01*
X166020964Y-99769544D01*
X165993222Y-99746778D01*
X165970456Y-99719036D01*
X165953539Y-99687387D01*
X165943122Y-99653048D01*
X165939000Y-99611193D01*
X165939000Y-98388807D01*
X165943122Y-98346952D01*
X165953539Y-98312613D01*
X165970456Y-98280964D01*
X165993222Y-98253222D01*
X166020964Y-98230456D01*
X166052613Y-98213539D01*
X166086952Y-98203122D01*
X166128807Y-98199000D01*
X167871193Y-98199000D01*
X167913048Y-98203122D01*
G37*
G36*
X213371400Y-99639200D02*
G01*
X212049400Y-99639200D01*
X212049400Y-98887200D01*
X213371400Y-98887200D01*
X213371400Y-99639200D01*
G37*
G36*
X195301000Y-98871000D02*
G01*
X192999000Y-98871000D01*
X192999000Y-97569000D01*
X195301000Y-97569000D01*
X195301000Y-98871000D01*
G37*
G36*
X215991400Y-98689200D02*
G01*
X214669400Y-98689200D01*
X214669400Y-97937200D01*
X215991400Y-97937200D01*
X215991400Y-98689200D01*
G37*
G36*
X208588674Y-96853465D02*
G01*
X208626367Y-96864899D01*
X208661103Y-96883466D01*
X208691548Y-96908452D01*
X208716534Y-96938897D01*
X208735101Y-96973633D01*
X208746535Y-97011326D01*
X208751000Y-97056661D01*
X208751000Y-97893339D01*
X208746535Y-97938674D01*
X208735101Y-97976367D01*
X208716534Y-98011103D01*
X208691548Y-98041548D01*
X208661103Y-98066534D01*
X208626367Y-98085101D01*
X208588674Y-98096535D01*
X208543339Y-98101000D01*
X207456661Y-98101000D01*
X207411326Y-98096535D01*
X207373633Y-98085101D01*
X207338897Y-98066534D01*
X207308452Y-98041548D01*
X207283466Y-98011103D01*
X207264899Y-97976367D01*
X207253465Y-97938674D01*
X207249000Y-97893339D01*
X207249000Y-97056661D01*
X207253465Y-97011326D01*
X207264899Y-96973633D01*
X207283466Y-96938897D01*
X207308452Y-96908452D01*
X207338897Y-96883466D01*
X207373633Y-96864899D01*
X207411326Y-96853465D01*
X207456661Y-96849000D01*
X208543339Y-96849000D01*
X208588674Y-96853465D01*
G37*
G36*
X176647900Y-97710000D02*
G01*
X175352100Y-97710000D01*
X175352100Y-96566600D01*
X176647900Y-96566600D01*
X176647900Y-97710000D01*
G37*
G36*
X212571674Y-95582965D02*
G01*
X212609367Y-95594399D01*
X212644103Y-95612966D01*
X212674548Y-95637952D01*
X212699534Y-95668397D01*
X212718101Y-95703133D01*
X212729535Y-95740826D01*
X212734000Y-95786161D01*
X212734000Y-96872839D01*
X212729535Y-96918174D01*
X212718101Y-96955867D01*
X212699534Y-96990603D01*
X212674548Y-97021048D01*
X212644103Y-97046034D01*
X212609367Y-97064601D01*
X212571674Y-97076035D01*
X212526339Y-97080500D01*
X211689661Y-97080500D01*
X211644326Y-97076035D01*
X211606633Y-97064601D01*
X211571897Y-97046034D01*
X211541452Y-97021048D01*
X211516466Y-96990603D01*
X211497899Y-96955867D01*
X211486465Y-96918174D01*
X211482000Y-96872839D01*
X211482000Y-95786161D01*
X211486465Y-95740826D01*
X211497899Y-95703133D01*
X211516466Y-95668397D01*
X211541452Y-95637952D01*
X211571897Y-95612966D01*
X211606633Y-95594399D01*
X211644326Y-95582965D01*
X211689661Y-95578500D01*
X212526339Y-95578500D01*
X212571674Y-95582965D01*
G37*
G36*
X210521674Y-95582965D02*
G01*
X210559367Y-95594399D01*
X210594103Y-95612966D01*
X210624548Y-95637952D01*
X210649534Y-95668397D01*
X210668101Y-95703133D01*
X210679535Y-95740826D01*
X210684000Y-95786161D01*
X210684000Y-96872839D01*
X210679535Y-96918174D01*
X210668101Y-96955867D01*
X210649534Y-96990603D01*
X210624548Y-97021048D01*
X210594103Y-97046034D01*
X210559367Y-97064601D01*
X210521674Y-97076035D01*
X210476339Y-97080500D01*
X209639661Y-97080500D01*
X209594326Y-97076035D01*
X209556633Y-97064601D01*
X209521897Y-97046034D01*
X209491452Y-97021048D01*
X209466466Y-96990603D01*
X209447899Y-96955867D01*
X209436465Y-96918174D01*
X209432000Y-96872839D01*
X209432000Y-95786161D01*
X209436465Y-95740826D01*
X209447899Y-95703133D01*
X209466466Y-95668397D01*
X209491452Y-95637952D01*
X209521897Y-95612966D01*
X209556633Y-95594399D01*
X209594326Y-95582965D01*
X209639661Y-95578500D01*
X210476339Y-95578500D01*
X210521674Y-95582965D01*
G37*
G36*
X169160098Y-95340362D02*
G01*
X169284941Y-95392074D01*
X169284943Y-95392075D01*
X169397299Y-95467149D01*
X169492851Y-95562701D01*
X169556674Y-95658218D01*
X169567926Y-95675059D01*
X169619638Y-95799902D01*
X169646000Y-95932434D01*
X169646000Y-96067566D01*
X169619638Y-96200098D01*
X169567926Y-96324941D01*
X169567925Y-96324943D01*
X169492851Y-96437299D01*
X169397299Y-96532851D01*
X169284943Y-96607925D01*
X169284942Y-96607926D01*
X169284941Y-96607926D01*
X169160098Y-96659638D01*
X169027566Y-96686000D01*
X168892434Y-96686000D01*
X168759902Y-96659638D01*
X168635059Y-96607926D01*
X168635058Y-96607926D01*
X168635057Y-96607925D01*
X168522701Y-96532851D01*
X168427149Y-96437299D01*
X168352075Y-96324943D01*
X168352074Y-96324941D01*
X168300362Y-96200098D01*
X168274000Y-96067566D01*
X168274000Y-95932434D01*
X168300362Y-95799902D01*
X168352074Y-95675059D01*
X168363327Y-95658218D01*
X168427149Y-95562701D01*
X168522701Y-95467149D01*
X168635057Y-95392075D01*
X168635059Y-95392074D01*
X168759902Y-95340362D01*
X168892434Y-95314000D01*
X169027566Y-95314000D01*
X169160098Y-95340362D01*
G37*
G36*
X176647900Y-94433400D02*
G01*
X175352100Y-94433400D01*
X175352100Y-93290000D01*
X176647900Y-93290000D01*
X176647900Y-94433400D01*
G37*
G36*
X212863500Y-93063900D02*
G01*
X210011500Y-93063900D01*
X210011500Y-91961900D01*
X212863500Y-91961900D01*
X212863500Y-93063900D01*
G37*
G36*
X218613500Y-93063900D02*
G01*
X215761500Y-93063900D01*
X215761500Y-91961900D01*
X218613500Y-91961900D01*
X218613500Y-93063900D01*
G37*
G36*
X169160098Y-90840362D02*
G01*
X169284941Y-90892074D01*
X169284943Y-90892075D01*
X169397299Y-90967149D01*
X169492851Y-91062701D01*
X169567926Y-91175059D01*
X169619638Y-91299902D01*
X169646000Y-91432434D01*
X169646000Y-91567566D01*
X169619638Y-91700098D01*
X169567926Y-91824941D01*
X169567925Y-91824943D01*
X169492851Y-91937299D01*
X169397299Y-92032851D01*
X169284943Y-92107925D01*
X169284942Y-92107926D01*
X169284941Y-92107926D01*
X169160098Y-92159638D01*
X169027566Y-92186000D01*
X168892434Y-92186000D01*
X168759902Y-92159638D01*
X168635059Y-92107926D01*
X168635058Y-92107926D01*
X168635057Y-92107925D01*
X168522701Y-92032851D01*
X168427149Y-91937299D01*
X168352075Y-91824943D01*
X168352074Y-91824941D01*
X168300362Y-91700098D01*
X168274000Y-91567566D01*
X168274000Y-91432434D01*
X168300362Y-91299902D01*
X168352074Y-91175059D01*
X168427149Y-91062701D01*
X168522701Y-90967149D01*
X168635057Y-90892075D01*
X168635059Y-90892074D01*
X168759902Y-90840362D01*
X168892434Y-90814000D01*
X169027566Y-90814000D01*
X169160098Y-90840362D01*
G37*
G36*
X201488674Y-90253465D02*
G01*
X201526367Y-90264899D01*
X201561103Y-90283466D01*
X201591548Y-90308452D01*
X201616534Y-90338897D01*
X201635101Y-90373633D01*
X201646535Y-90411326D01*
X201651000Y-90456661D01*
X201651000Y-91543339D01*
X201646535Y-91588674D01*
X201635101Y-91626367D01*
X201616534Y-91661103D01*
X201591548Y-91691548D01*
X201561103Y-91716534D01*
X201526367Y-91735101D01*
X201488674Y-91746535D01*
X201443339Y-91751000D01*
X200606661Y-91751000D01*
X200561326Y-91746535D01*
X200523633Y-91735101D01*
X200488897Y-91716534D01*
X200458452Y-91691548D01*
X200433466Y-91661103D01*
X200414899Y-91626367D01*
X200403465Y-91588674D01*
X200399000Y-91543339D01*
X200399000Y-90456661D01*
X200403465Y-90411326D01*
X200414899Y-90373633D01*
X200433466Y-90338897D01*
X200458452Y-90308452D01*
X200488897Y-90283466D01*
X200523633Y-90264899D01*
X200561326Y-90253465D01*
X200606661Y-90249000D01*
X201443339Y-90249000D01*
X201488674Y-90253465D01*
G37*
G36*
X199438674Y-90253465D02*
G01*
X199476367Y-90264899D01*
X199511103Y-90283466D01*
X199541548Y-90308452D01*
X199566534Y-90338897D01*
X199585101Y-90373633D01*
X199596535Y-90411326D01*
X199601000Y-90456661D01*
X199601000Y-91543339D01*
X199596535Y-91588674D01*
X199585101Y-91626367D01*
X199566534Y-91661103D01*
X199541548Y-91691548D01*
X199511103Y-91716534D01*
X199476367Y-91735101D01*
X199438674Y-91746535D01*
X199393339Y-91751000D01*
X198556661Y-91751000D01*
X198511326Y-91746535D01*
X198473633Y-91735101D01*
X198438897Y-91716534D01*
X198408452Y-91691548D01*
X198383466Y-91661103D01*
X198364899Y-91626367D01*
X198353465Y-91588674D01*
X198349000Y-91543339D01*
X198349000Y-90456661D01*
X198353465Y-90411326D01*
X198364899Y-90373633D01*
X198383466Y-90338897D01*
X198408452Y-90308452D01*
X198438897Y-90283466D01*
X198473633Y-90264899D01*
X198511326Y-90253465D01*
X198556661Y-90249000D01*
X199393339Y-90249000D01*
X199438674Y-90253465D01*
G37*
G36*
X206988674Y-90253465D02*
G01*
X207026367Y-90264899D01*
X207061103Y-90283466D01*
X207091548Y-90308452D01*
X207116534Y-90338897D01*
X207135101Y-90373633D01*
X207146535Y-90411326D01*
X207151000Y-90456661D01*
X207151000Y-91543339D01*
X207146535Y-91588674D01*
X207135101Y-91626367D01*
X207116534Y-91661103D01*
X207091548Y-91691548D01*
X207061103Y-91716534D01*
X207026367Y-91735101D01*
X206988674Y-91746535D01*
X206943339Y-91751000D01*
X206106661Y-91751000D01*
X206061326Y-91746535D01*
X206023633Y-91735101D01*
X205988897Y-91716534D01*
X205958452Y-91691548D01*
X205933466Y-91661103D01*
X205914899Y-91626367D01*
X205903465Y-91588674D01*
X205899000Y-91543339D01*
X205899000Y-90456661D01*
X205903465Y-90411326D01*
X205914899Y-90373633D01*
X205933466Y-90338897D01*
X205958452Y-90308452D01*
X205988897Y-90283466D01*
X206023633Y-90264899D01*
X206061326Y-90253465D01*
X206106661Y-90249000D01*
X206943339Y-90249000D01*
X206988674Y-90253465D01*
G37*
G36*
X204938674Y-90253465D02*
G01*
X204976367Y-90264899D01*
X205011103Y-90283466D01*
X205041548Y-90308452D01*
X205066534Y-90338897D01*
X205085101Y-90373633D01*
X205096535Y-90411326D01*
X205101000Y-90456661D01*
X205101000Y-91543339D01*
X205096535Y-91588674D01*
X205085101Y-91626367D01*
X205066534Y-91661103D01*
X205041548Y-91691548D01*
X205011103Y-91716534D01*
X204976367Y-91735101D01*
X204938674Y-91746535D01*
X204893339Y-91751000D01*
X204056661Y-91751000D01*
X204011326Y-91746535D01*
X203973633Y-91735101D01*
X203938897Y-91716534D01*
X203908452Y-91691548D01*
X203883466Y-91661103D01*
X203864899Y-91626367D01*
X203853465Y-91588674D01*
X203849000Y-91543339D01*
X203849000Y-90456661D01*
X203853465Y-90411326D01*
X203864899Y-90373633D01*
X203883466Y-90338897D01*
X203908452Y-90308452D01*
X203938897Y-90283466D01*
X203973633Y-90264899D01*
X204011326Y-90253465D01*
X204056661Y-90249000D01*
X204893339Y-90249000D01*
X204938674Y-90253465D01*
G37*
G36*
X229274198Y-88677762D02*
G01*
X229399041Y-88729474D01*
X229399043Y-88729475D01*
X229511399Y-88804549D01*
X229606951Y-88900101D01*
X229682026Y-89012459D01*
X229733738Y-89137302D01*
X229760100Y-89269834D01*
X229760100Y-89404966D01*
X229733738Y-89537498D01*
X229682026Y-89662341D01*
X229682025Y-89662343D01*
X229606951Y-89774699D01*
X229511399Y-89870251D01*
X229399043Y-89945325D01*
X229399042Y-89945326D01*
X229399041Y-89945326D01*
X229274198Y-89997038D01*
X229141666Y-90023400D01*
X229006534Y-90023400D01*
X228874002Y-89997038D01*
X228749159Y-89945326D01*
X228749158Y-89945326D01*
X228749157Y-89945325D01*
X228636801Y-89870251D01*
X228541249Y-89774699D01*
X228466175Y-89662343D01*
X228466174Y-89662341D01*
X228414462Y-89537498D01*
X228388100Y-89404966D01*
X228388100Y-89269834D01*
X228414462Y-89137302D01*
X228466174Y-89012459D01*
X228541249Y-88900101D01*
X228636801Y-88804549D01*
X228749157Y-88729475D01*
X228749159Y-88729474D01*
X228874002Y-88677762D01*
X229006534Y-88651400D01*
X229141666Y-88651400D01*
X229274198Y-88677762D01*
G37*
G36*
X167338571Y-87702863D02*
G01*
X167417023Y-87710590D01*
X167517682Y-87741125D01*
X167568013Y-87756392D01*
X167707165Y-87830771D01*
X167829133Y-87930867D01*
X167929229Y-88052835D01*
X168003608Y-88191987D01*
X168003608Y-88191988D01*
X168049410Y-88342977D01*
X168064875Y-88500000D01*
X168049410Y-88657023D01*
X168027432Y-88729474D01*
X168003608Y-88808013D01*
X167929229Y-88947165D01*
X167829133Y-89069133D01*
X167707165Y-89169229D01*
X167568013Y-89243608D01*
X167517682Y-89258875D01*
X167417023Y-89289410D01*
X167338571Y-89297137D01*
X167299346Y-89301000D01*
X166700654Y-89301000D01*
X166661429Y-89297137D01*
X166582977Y-89289410D01*
X166482318Y-89258875D01*
X166431987Y-89243608D01*
X166292835Y-89169229D01*
X166170867Y-89069133D01*
X166070771Y-88947165D01*
X165996392Y-88808013D01*
X165972568Y-88729474D01*
X165950590Y-88657023D01*
X165935125Y-88500000D01*
X165950590Y-88342977D01*
X165996392Y-88191988D01*
X165996392Y-88191987D01*
X166070771Y-88052835D01*
X166170867Y-87930867D01*
X166292835Y-87830771D01*
X166431987Y-87756392D01*
X166482318Y-87741125D01*
X166582977Y-87710590D01*
X166661429Y-87702863D01*
X166700654Y-87699000D01*
X167299346Y-87699000D01*
X167338571Y-87702863D01*
G37*
G36*
X212863500Y-89063900D02*
G01*
X210011500Y-89063900D01*
X210011500Y-87961900D01*
X212863500Y-87961900D01*
X212863500Y-89063900D01*
G37*
G36*
X218613500Y-89063900D02*
G01*
X215761500Y-89063900D01*
X215761500Y-87961900D01*
X218613500Y-87961900D01*
X218613500Y-89063900D01*
G37*
G36*
X204938674Y-85753465D02*
G01*
X204976367Y-85764899D01*
X205011103Y-85783466D01*
X205041548Y-85808452D01*
X205066534Y-85838897D01*
X205085101Y-85873633D01*
X205096535Y-85911326D01*
X205101000Y-85956661D01*
X205101000Y-87043339D01*
X205096535Y-87088674D01*
X205085101Y-87126367D01*
X205066534Y-87161103D01*
X205041548Y-87191548D01*
X205011103Y-87216534D01*
X204976367Y-87235101D01*
X204938674Y-87246535D01*
X204893339Y-87251000D01*
X204056661Y-87251000D01*
X204011326Y-87246535D01*
X203973633Y-87235101D01*
X203938897Y-87216534D01*
X203908452Y-87191548D01*
X203883466Y-87161103D01*
X203864899Y-87126367D01*
X203853465Y-87088674D01*
X203849000Y-87043339D01*
X203849000Y-85956661D01*
X203853465Y-85911326D01*
X203864899Y-85873633D01*
X203883466Y-85838897D01*
X203908452Y-85808452D01*
X203938897Y-85783466D01*
X203973633Y-85764899D01*
X204011326Y-85753465D01*
X204056661Y-85749000D01*
X204893339Y-85749000D01*
X204938674Y-85753465D01*
G37*
G36*
X206988674Y-85753465D02*
G01*
X207026367Y-85764899D01*
X207061103Y-85783466D01*
X207091548Y-85808452D01*
X207116534Y-85838897D01*
X207135101Y-85873633D01*
X207146535Y-85911326D01*
X207151000Y-85956661D01*
X207151000Y-87043339D01*
X207146535Y-87088674D01*
X207135101Y-87126367D01*
X207116534Y-87161103D01*
X207091548Y-87191548D01*
X207061103Y-87216534D01*
X207026367Y-87235101D01*
X206988674Y-87246535D01*
X206943339Y-87251000D01*
X206106661Y-87251000D01*
X206061326Y-87246535D01*
X206023633Y-87235101D01*
X205988897Y-87216534D01*
X205958452Y-87191548D01*
X205933466Y-87161103D01*
X205914899Y-87126367D01*
X205903465Y-87088674D01*
X205899000Y-87043339D01*
X205899000Y-85956661D01*
X205903465Y-85911326D01*
X205914899Y-85873633D01*
X205933466Y-85838897D01*
X205958452Y-85808452D01*
X205988897Y-85783466D01*
X206023633Y-85764899D01*
X206061326Y-85753465D01*
X206106661Y-85749000D01*
X206943339Y-85749000D01*
X206988674Y-85753465D01*
G37*
G36*
X227452671Y-85540263D02*
G01*
X227531123Y-85547990D01*
X227631782Y-85578525D01*
X227682113Y-85593792D01*
X227821265Y-85668171D01*
X227943233Y-85768267D01*
X228043329Y-85890235D01*
X228117708Y-86029387D01*
X228117708Y-86029388D01*
X228163510Y-86180377D01*
X228178975Y-86337400D01*
X228163510Y-86494423D01*
X228132975Y-86595082D01*
X228117708Y-86645413D01*
X228043329Y-86784565D01*
X227943233Y-86906533D01*
X227821265Y-87006629D01*
X227682113Y-87081008D01*
X227656841Y-87088674D01*
X227531123Y-87126810D01*
X227452671Y-87134537D01*
X227413446Y-87138400D01*
X226814754Y-87138400D01*
X226775529Y-87134537D01*
X226697077Y-87126810D01*
X226571359Y-87088674D01*
X226546087Y-87081008D01*
X226406935Y-87006629D01*
X226284967Y-86906533D01*
X226184871Y-86784565D01*
X226110492Y-86645413D01*
X226095225Y-86595082D01*
X226064690Y-86494423D01*
X226049225Y-86337400D01*
X226064690Y-86180377D01*
X226110492Y-86029388D01*
X226110492Y-86029387D01*
X226184871Y-85890235D01*
X226284967Y-85768267D01*
X226406935Y-85668171D01*
X226546087Y-85593792D01*
X226596418Y-85578525D01*
X226697077Y-85547990D01*
X226775529Y-85540263D01*
X226814754Y-85536400D01*
X227413446Y-85536400D01*
X227452671Y-85540263D01*
G37*
G36*
X191026000Y-86951000D02*
G01*
X184524000Y-86951000D01*
X184524000Y-81049000D01*
X191026000Y-81049000D01*
X191026000Y-86951000D01*
G37*
G36*
X195226000Y-86931000D02*
G01*
X192924000Y-86931000D01*
X192924000Y-85629000D01*
X195226000Y-85629000D01*
X195226000Y-86931000D01*
G37*
G36*
X167338571Y-84702863D02*
G01*
X167417023Y-84710590D01*
X167517682Y-84741125D01*
X167568013Y-84756392D01*
X167707165Y-84830771D01*
X167829133Y-84930867D01*
X167929229Y-85052835D01*
X168003608Y-85191987D01*
X168003608Y-85191988D01*
X168049410Y-85342977D01*
X168064875Y-85500000D01*
X168049410Y-85657023D01*
X168046028Y-85668171D01*
X168003608Y-85808013D01*
X167929229Y-85947165D01*
X167829133Y-86069133D01*
X167707165Y-86169229D01*
X167568013Y-86243608D01*
X167517682Y-86258875D01*
X167417023Y-86289410D01*
X167338571Y-86297137D01*
X167299346Y-86301000D01*
X166700654Y-86301000D01*
X166661429Y-86297137D01*
X166582977Y-86289410D01*
X166482318Y-86258875D01*
X166431987Y-86243608D01*
X166292835Y-86169229D01*
X166170867Y-86069133D01*
X166070771Y-85947165D01*
X165996392Y-85808013D01*
X165953972Y-85668171D01*
X165950590Y-85657023D01*
X165935125Y-85500000D01*
X165950590Y-85342977D01*
X165996392Y-85191988D01*
X165996392Y-85191987D01*
X166070771Y-85052835D01*
X166170867Y-84930867D01*
X166292835Y-84830771D01*
X166431987Y-84756392D01*
X166482318Y-84741125D01*
X166582977Y-84710590D01*
X166661429Y-84702863D01*
X166700654Y-84699000D01*
X167299346Y-84699000D01*
X167338571Y-84702863D01*
G37*
G36*
X213580600Y-84524000D02*
G01*
X212258600Y-84524000D01*
X212258600Y-83772000D01*
X213580600Y-83772000D01*
X213580600Y-84524000D01*
G37*
G36*
X228027148Y-82540522D02*
G01*
X228061487Y-82550939D01*
X228093136Y-82567856D01*
X228120878Y-82590622D01*
X228143644Y-82618364D01*
X228160561Y-82650013D01*
X228170978Y-82684352D01*
X228175100Y-82726207D01*
X228175100Y-83948593D01*
X228170978Y-83990448D01*
X228160561Y-84024787D01*
X228143644Y-84056436D01*
X228120878Y-84084178D01*
X228093136Y-84106944D01*
X228061487Y-84123861D01*
X228027148Y-84134278D01*
X227985293Y-84138400D01*
X226242907Y-84138400D01*
X226201052Y-84134278D01*
X226166713Y-84123861D01*
X226135064Y-84106944D01*
X226107322Y-84084178D01*
X226084556Y-84056436D01*
X226067639Y-84024787D01*
X226057222Y-83990448D01*
X226053100Y-83948593D01*
X226053100Y-82726207D01*
X226057222Y-82684352D01*
X226067639Y-82650013D01*
X226084556Y-82618364D01*
X226107322Y-82590622D01*
X226135064Y-82567856D01*
X226166713Y-82550939D01*
X226201052Y-82540522D01*
X226242907Y-82536400D01*
X227985293Y-82536400D01*
X228027148Y-82540522D01*
G37*
G36*
X208588674Y-82403465D02*
G01*
X208626367Y-82414899D01*
X208661103Y-82433466D01*
X208691548Y-82458452D01*
X208716534Y-82488897D01*
X208735101Y-82523633D01*
X208746535Y-82561326D01*
X208751000Y-82606661D01*
X208751000Y-83443339D01*
X208746535Y-83488674D01*
X208735101Y-83526367D01*
X208716534Y-83561103D01*
X208691548Y-83591548D01*
X208661103Y-83616534D01*
X208626367Y-83635101D01*
X208588674Y-83646535D01*
X208543339Y-83651000D01*
X207456661Y-83651000D01*
X207411326Y-83646535D01*
X207373633Y-83635101D01*
X207338897Y-83616534D01*
X207308452Y-83591548D01*
X207283466Y-83561103D01*
X207264899Y-83526367D01*
X207253465Y-83488674D01*
X207249000Y-83443339D01*
X207249000Y-82606661D01*
X207253465Y-82561326D01*
X207264899Y-82523633D01*
X207283466Y-82488897D01*
X207308452Y-82458452D01*
X207338897Y-82433466D01*
X207373633Y-82414899D01*
X207411326Y-82403465D01*
X207456661Y-82399000D01*
X208543339Y-82399000D01*
X208588674Y-82403465D01*
G37*
G36*
X210960600Y-83574000D02*
G01*
X209638600Y-83574000D01*
X209638600Y-82822000D01*
X210960600Y-82822000D01*
X210960600Y-83574000D01*
G37*
G36*
X202923241Y-80604760D02*
G01*
X203187305Y-80714139D01*
X203424958Y-80872934D01*
X203627066Y-81075042D01*
X203785861Y-81312695D01*
X203895240Y-81576759D01*
X203951000Y-81857088D01*
X203951000Y-82142912D01*
X203895240Y-82423241D01*
X203785861Y-82687305D01*
X203627066Y-82924958D01*
X203424958Y-83127066D01*
X203187305Y-83285861D01*
X202923241Y-83395240D01*
X202642912Y-83451000D01*
X202357088Y-83451000D01*
X202076759Y-83395240D01*
X201812695Y-83285861D01*
X201575042Y-83127066D01*
X201372934Y-82924958D01*
X201214139Y-82687305D01*
X201104760Y-82423241D01*
X201049000Y-82142912D01*
X201049000Y-81857088D01*
X201104760Y-81576759D01*
X201214139Y-81312695D01*
X201372934Y-81075042D01*
X201575042Y-80872934D01*
X201812695Y-80714139D01*
X202076759Y-80604760D01*
X202357088Y-80549000D01*
X202642912Y-80549000D01*
X202923241Y-80604760D01*
G37*
G36*
X167338571Y-81702863D02*
G01*
X167417023Y-81710590D01*
X167517682Y-81741125D01*
X167568013Y-81756392D01*
X167707165Y-81830771D01*
X167829133Y-81930867D01*
X167929229Y-82052835D01*
X168003608Y-82191987D01*
X168003608Y-82191988D01*
X168049410Y-82342977D01*
X168064875Y-82500000D01*
X168049410Y-82657023D01*
X168028423Y-82726207D01*
X168003608Y-82808013D01*
X167929229Y-82947165D01*
X167829133Y-83069133D01*
X167707165Y-83169229D01*
X167568013Y-83243608D01*
X167517682Y-83258875D01*
X167417023Y-83289410D01*
X167338571Y-83297137D01*
X167299346Y-83301000D01*
X166700654Y-83301000D01*
X166661429Y-83297137D01*
X166582977Y-83289410D01*
X166482318Y-83258875D01*
X166431987Y-83243608D01*
X166292835Y-83169229D01*
X166170867Y-83069133D01*
X166070771Y-82947165D01*
X165996392Y-82808013D01*
X165971577Y-82726207D01*
X165950590Y-82657023D01*
X165935125Y-82500000D01*
X165950590Y-82342977D01*
X165996392Y-82191988D01*
X165996392Y-82191987D01*
X166070771Y-82052835D01*
X166170867Y-81930867D01*
X166292835Y-81830771D01*
X166431987Y-81756392D01*
X166482318Y-81741125D01*
X166582977Y-81710590D01*
X166661429Y-81702863D01*
X166700654Y-81699000D01*
X167299346Y-81699000D01*
X167338571Y-81702863D01*
G37*
G36*
X213580600Y-82624000D02*
G01*
X212258600Y-82624000D01*
X212258600Y-81872000D01*
X213580600Y-81872000D01*
X213580600Y-82624000D01*
G37*
G36*
X195226000Y-82371000D02*
G01*
X192924000Y-82371000D01*
X192924000Y-81069000D01*
X195226000Y-81069000D01*
X195226000Y-82371000D01*
G37*
G36*
X208588674Y-80353465D02*
G01*
X208626367Y-80364899D01*
X208661103Y-80383466D01*
X208691548Y-80408452D01*
X208716534Y-80438897D01*
X208735101Y-80473633D01*
X208746535Y-80511326D01*
X208751000Y-80556661D01*
X208751000Y-81393339D01*
X208746535Y-81438674D01*
X208735101Y-81476367D01*
X208716534Y-81511103D01*
X208691548Y-81541548D01*
X208661103Y-81566534D01*
X208626367Y-81585101D01*
X208588674Y-81596535D01*
X208543339Y-81601000D01*
X207456661Y-81601000D01*
X207411326Y-81596535D01*
X207373633Y-81585101D01*
X207338897Y-81566534D01*
X207308452Y-81541548D01*
X207283466Y-81511103D01*
X207264899Y-81476367D01*
X207253465Y-81438674D01*
X207249000Y-81393339D01*
X207249000Y-80556661D01*
X207253465Y-80511326D01*
X207264899Y-80473633D01*
X207283466Y-80438897D01*
X207308452Y-80408452D01*
X207338897Y-80383466D01*
X207373633Y-80364899D01*
X207411326Y-80353465D01*
X207456661Y-80349000D01*
X208543339Y-80349000D01*
X208588674Y-80353465D01*
G37*
G36*
X176647900Y-81210000D02*
G01*
X175352100Y-81210000D01*
X175352100Y-80066600D01*
X176647900Y-80066600D01*
X176647900Y-81210000D01*
G37*
G36*
X229274198Y-79677762D02*
G01*
X229389780Y-79725638D01*
X229399043Y-79729475D01*
X229505685Y-79800731D01*
X229511399Y-79804549D01*
X229606951Y-79900101D01*
X229682026Y-80012459D01*
X229733738Y-80137302D01*
X229760100Y-80269834D01*
X229760100Y-80404966D01*
X229733738Y-80537498D01*
X229699078Y-80621173D01*
X229682025Y-80662343D01*
X229606951Y-80774699D01*
X229511399Y-80870251D01*
X229399043Y-80945325D01*
X229399042Y-80945326D01*
X229399041Y-80945326D01*
X229274198Y-80997038D01*
X229141666Y-81023400D01*
X229006534Y-81023400D01*
X228874002Y-80997038D01*
X228749159Y-80945326D01*
X228749158Y-80945326D01*
X228749157Y-80945325D01*
X228636801Y-80870251D01*
X228541249Y-80774699D01*
X228466175Y-80662343D01*
X228449122Y-80621173D01*
X228414462Y-80537498D01*
X228388100Y-80404966D01*
X228388100Y-80269834D01*
X228414462Y-80137302D01*
X228466174Y-80012459D01*
X228541249Y-79900101D01*
X228636801Y-79804549D01*
X228642515Y-79800731D01*
X228749157Y-79729475D01*
X228758420Y-79725638D01*
X228874002Y-79677762D01*
X229006534Y-79651400D01*
X229141666Y-79651400D01*
X229274198Y-79677762D01*
G37*
G36*
X167913048Y-78703122D02*
G01*
X167947387Y-78713539D01*
X167979036Y-78730456D01*
X168006778Y-78753222D01*
X168029544Y-78780964D01*
X168046461Y-78812613D01*
X168056878Y-78846952D01*
X168061000Y-78888807D01*
X168061000Y-80111193D01*
X168056878Y-80153048D01*
X168046461Y-80187387D01*
X168029544Y-80219036D01*
X168006778Y-80246778D01*
X167979036Y-80269544D01*
X167947387Y-80286461D01*
X167913048Y-80296878D01*
X167871193Y-80301000D01*
X166128807Y-80301000D01*
X166086952Y-80296878D01*
X166052613Y-80286461D01*
X166020964Y-80269544D01*
X165993222Y-80246778D01*
X165970456Y-80219036D01*
X165953539Y-80187387D01*
X165943122Y-80153048D01*
X165939000Y-80111193D01*
X165939000Y-78888807D01*
X165943122Y-78846952D01*
X165953539Y-78812613D01*
X165970456Y-78780964D01*
X165993222Y-78753222D01*
X166020964Y-78730456D01*
X166052613Y-78713539D01*
X166086952Y-78703122D01*
X166128807Y-78699000D01*
X167871193Y-78699000D01*
X167913048Y-78703122D01*
G37*
G36*
X213264874Y-78349065D02*
G01*
X213302567Y-78360499D01*
X213337303Y-78379066D01*
X213367748Y-78404052D01*
X213392734Y-78434497D01*
X213411301Y-78469233D01*
X213422735Y-78506926D01*
X213427200Y-78552261D01*
X213427200Y-79638939D01*
X213422735Y-79684274D01*
X213411301Y-79721967D01*
X213392734Y-79756703D01*
X213367748Y-79787148D01*
X213337303Y-79812134D01*
X213302567Y-79830701D01*
X213264874Y-79842135D01*
X213219539Y-79846600D01*
X212382861Y-79846600D01*
X212337526Y-79842135D01*
X212299833Y-79830701D01*
X212265097Y-79812134D01*
X212234652Y-79787148D01*
X212209666Y-79756703D01*
X212191099Y-79721967D01*
X212179665Y-79684274D01*
X212175200Y-79638939D01*
X212175200Y-78552261D01*
X212179665Y-78506926D01*
X212191099Y-78469233D01*
X212209666Y-78434497D01*
X212234652Y-78404052D01*
X212265097Y-78379066D01*
X212299833Y-78360499D01*
X212337526Y-78349065D01*
X212382861Y-78344600D01*
X213219539Y-78344600D01*
X213264874Y-78349065D01*
G37*
G36*
X211214874Y-78349065D02*
G01*
X211252567Y-78360499D01*
X211287303Y-78379066D01*
X211317748Y-78404052D01*
X211342734Y-78434497D01*
X211361301Y-78469233D01*
X211372735Y-78506926D01*
X211377200Y-78552261D01*
X211377200Y-79638939D01*
X211372735Y-79684274D01*
X211361301Y-79721967D01*
X211342734Y-79756703D01*
X211317748Y-79787148D01*
X211287303Y-79812134D01*
X211252567Y-79830701D01*
X211214874Y-79842135D01*
X211169539Y-79846600D01*
X210332861Y-79846600D01*
X210287526Y-79842135D01*
X210249833Y-79830701D01*
X210215097Y-79812134D01*
X210184652Y-79787148D01*
X210159666Y-79756703D01*
X210141099Y-79721967D01*
X210129665Y-79684274D01*
X210125200Y-79638939D01*
X210125200Y-78552261D01*
X210129665Y-78506926D01*
X210141099Y-78469233D01*
X210159666Y-78434497D01*
X210184652Y-78404052D01*
X210215097Y-78379066D01*
X210249833Y-78360499D01*
X210287526Y-78349065D01*
X210332861Y-78344600D01*
X211169539Y-78344600D01*
X211214874Y-78349065D01*
G37*
G36*
X176647900Y-77933400D02*
G01*
X175352100Y-77933400D01*
X175352100Y-76790000D01*
X176647900Y-76790000D01*
X176647900Y-77933400D01*
G37*
G36*
X169160098Y-75840362D02*
G01*
X169284941Y-75892074D01*
X169284943Y-75892075D01*
X169397299Y-75967149D01*
X169492851Y-76062701D01*
X169567926Y-76175059D01*
X169619638Y-76299902D01*
X169646000Y-76432434D01*
X169646000Y-76567566D01*
X169619638Y-76700098D01*
X169582399Y-76790000D01*
X169567925Y-76824943D01*
X169492851Y-76937299D01*
X169397299Y-77032851D01*
X169284943Y-77107925D01*
X169284942Y-77107926D01*
X169284941Y-77107926D01*
X169160098Y-77159638D01*
X169027566Y-77186000D01*
X168892434Y-77186000D01*
X168759902Y-77159638D01*
X168635059Y-77107926D01*
X168635058Y-77107926D01*
X168635057Y-77107925D01*
X168522701Y-77032851D01*
X168427149Y-76937299D01*
X168352075Y-76824943D01*
X168337601Y-76790000D01*
X168300362Y-76700098D01*
X168274000Y-76567566D01*
X168274000Y-76432434D01*
X168300362Y-76299902D01*
X168352074Y-76175059D01*
X168427149Y-76062701D01*
X168522701Y-75967149D01*
X168635057Y-75892075D01*
X168635059Y-75892074D01*
X168759902Y-75840362D01*
X168892434Y-75814000D01*
X169027566Y-75814000D01*
X169160098Y-75840362D01*
G37*
G36*
X206967600Y-75296600D02*
G01*
X204115600Y-75296600D01*
X204115600Y-74194600D01*
X206967600Y-74194600D01*
X206967600Y-75296600D01*
G37*
G36*
X201217600Y-75296600D02*
G01*
X198365600Y-75296600D01*
X198365600Y-74194600D01*
X201217600Y-74194600D01*
X201217600Y-75296600D01*
G37*
G36*
X210268541Y-72065260D02*
G01*
X210532605Y-72174639D01*
X210770258Y-72333434D01*
X210972366Y-72535542D01*
X211131161Y-72773195D01*
X211240540Y-73037259D01*
X211296300Y-73317588D01*
X211296300Y-73603412D01*
X211240540Y-73883741D01*
X211131161Y-74147805D01*
X210972366Y-74385458D01*
X210770258Y-74587566D01*
X210532605Y-74746361D01*
X210268541Y-74855740D01*
X209988212Y-74911500D01*
X209702388Y-74911500D01*
X209422059Y-74855740D01*
X209157995Y-74746361D01*
X208920342Y-74587566D01*
X208718234Y-74385458D01*
X208559439Y-74147805D01*
X208450060Y-73883741D01*
X208394300Y-73603412D01*
X208394300Y-73317588D01*
X208450060Y-73037259D01*
X208559439Y-72773195D01*
X208718234Y-72535542D01*
X208920342Y-72333434D01*
X209157995Y-72174639D01*
X209422059Y-72065260D01*
X209702388Y-72009500D01*
X209988212Y-72009500D01*
X210268541Y-72065260D01*
G37*
G36*
X191738674Y-72503465D02*
G01*
X191776367Y-72514899D01*
X191811103Y-72533466D01*
X191841548Y-72558452D01*
X191866534Y-72588897D01*
X191885101Y-72623633D01*
X191896535Y-72661326D01*
X191901000Y-72706661D01*
X191901000Y-73793339D01*
X191896535Y-73838674D01*
X191885101Y-73876367D01*
X191866534Y-73911103D01*
X191841548Y-73941548D01*
X191811103Y-73966534D01*
X191776367Y-73985101D01*
X191738674Y-73996535D01*
X191693339Y-74001000D01*
X190856661Y-74001000D01*
X190811326Y-73996535D01*
X190773633Y-73985101D01*
X190738897Y-73966534D01*
X190708452Y-73941548D01*
X190683466Y-73911103D01*
X190664899Y-73876367D01*
X190653465Y-73838674D01*
X190649000Y-73793339D01*
X190649000Y-72706661D01*
X190653465Y-72661326D01*
X190664899Y-72623633D01*
X190683466Y-72588897D01*
X190708452Y-72558452D01*
X190738897Y-72533466D01*
X190773633Y-72514899D01*
X190811326Y-72503465D01*
X190856661Y-72499000D01*
X191693339Y-72499000D01*
X191738674Y-72503465D01*
G37*
G36*
X196738674Y-72503465D02*
G01*
X196776367Y-72514899D01*
X196811103Y-72533466D01*
X196841548Y-72558452D01*
X196866534Y-72588897D01*
X196885101Y-72623633D01*
X196896535Y-72661326D01*
X196901000Y-72706661D01*
X196901000Y-73793339D01*
X196896535Y-73838674D01*
X196885101Y-73876367D01*
X196866534Y-73911103D01*
X196841548Y-73941548D01*
X196811103Y-73966534D01*
X196776367Y-73985101D01*
X196738674Y-73996535D01*
X196693339Y-74001000D01*
X195856661Y-74001000D01*
X195811326Y-73996535D01*
X195773633Y-73985101D01*
X195738897Y-73966534D01*
X195708452Y-73941548D01*
X195683466Y-73911103D01*
X195664899Y-73876367D01*
X195653465Y-73838674D01*
X195649000Y-73793339D01*
X195649000Y-72706661D01*
X195653465Y-72661326D01*
X195664899Y-72623633D01*
X195683466Y-72588897D01*
X195708452Y-72558452D01*
X195738897Y-72533466D01*
X195773633Y-72514899D01*
X195811326Y-72503465D01*
X195856661Y-72499000D01*
X196693339Y-72499000D01*
X196738674Y-72503465D01*
G37*
G36*
X194688674Y-72503465D02*
G01*
X194726367Y-72514899D01*
X194761103Y-72533466D01*
X194791548Y-72558452D01*
X194816534Y-72588897D01*
X194835101Y-72623633D01*
X194846535Y-72661326D01*
X194851000Y-72706661D01*
X194851000Y-73793339D01*
X194846535Y-73838674D01*
X194835101Y-73876367D01*
X194816534Y-73911103D01*
X194791548Y-73941548D01*
X194761103Y-73966534D01*
X194726367Y-73985101D01*
X194688674Y-73996535D01*
X194643339Y-74001000D01*
X193806661Y-74001000D01*
X193761326Y-73996535D01*
X193723633Y-73985101D01*
X193688897Y-73966534D01*
X193658452Y-73941548D01*
X193633466Y-73911103D01*
X193614899Y-73876367D01*
X193603465Y-73838674D01*
X193599000Y-73793339D01*
X193599000Y-72706661D01*
X193603465Y-72661326D01*
X193614899Y-72623633D01*
X193633466Y-72588897D01*
X193658452Y-72558452D01*
X193688897Y-72533466D01*
X193723633Y-72514899D01*
X193761326Y-72503465D01*
X193806661Y-72499000D01*
X194643339Y-72499000D01*
X194688674Y-72503465D01*
G37*
G36*
X189688674Y-72503465D02*
G01*
X189726367Y-72514899D01*
X189761103Y-72533466D01*
X189791548Y-72558452D01*
X189816534Y-72588897D01*
X189835101Y-72623633D01*
X189846535Y-72661326D01*
X189851000Y-72706661D01*
X189851000Y-73793339D01*
X189846535Y-73838674D01*
X189835101Y-73876367D01*
X189816534Y-73911103D01*
X189791548Y-73941548D01*
X189761103Y-73966534D01*
X189726367Y-73985101D01*
X189688674Y-73996535D01*
X189643339Y-74001000D01*
X188806661Y-74001000D01*
X188761326Y-73996535D01*
X188723633Y-73985101D01*
X188688897Y-73966534D01*
X188658452Y-73941548D01*
X188633466Y-73911103D01*
X188614899Y-73876367D01*
X188603465Y-73838674D01*
X188599000Y-73793339D01*
X188599000Y-72706661D01*
X188603465Y-72661326D01*
X188614899Y-72623633D01*
X188633466Y-72588897D01*
X188658452Y-72558452D01*
X188688897Y-72533466D01*
X188723633Y-72514899D01*
X188761326Y-72503465D01*
X188806661Y-72499000D01*
X189643339Y-72499000D01*
X189688674Y-72503465D01*
G37*
G36*
X183423241Y-70604760D02*
G01*
X183687305Y-70714139D01*
X183924958Y-70872934D01*
X184127066Y-71075042D01*
X184285861Y-71312695D01*
X184395240Y-71576759D01*
X184451000Y-71857088D01*
X184451000Y-72142912D01*
X184395240Y-72423241D01*
X184285861Y-72687305D01*
X184127066Y-72924958D01*
X183924958Y-73127066D01*
X183687305Y-73285861D01*
X183423241Y-73395240D01*
X183142912Y-73451000D01*
X182857088Y-73451000D01*
X182576759Y-73395240D01*
X182312695Y-73285861D01*
X182075042Y-73127066D01*
X181872934Y-72924958D01*
X181714139Y-72687305D01*
X181604760Y-72423241D01*
X181549000Y-72142912D01*
X181549000Y-71857088D01*
X181604760Y-71576759D01*
X181714139Y-71312695D01*
X181872934Y-71075042D01*
X182075042Y-70872934D01*
X182312695Y-70714139D01*
X182576759Y-70604760D01*
X182857088Y-70549000D01*
X183142912Y-70549000D01*
X183423241Y-70604760D01*
G37*
G36*
X227302585Y-69478802D02*
G01*
X227452410Y-69508604D01*
X227734674Y-69625521D01*
X227988705Y-69795259D01*
X228204741Y-70011295D01*
X228374479Y-70265326D01*
X228491396Y-70547590D01*
X228551000Y-70847240D01*
X228551000Y-71152760D01*
X228491396Y-71452410D01*
X228374479Y-71734674D01*
X228204741Y-71988705D01*
X227988705Y-72204741D01*
X227734674Y-72374479D01*
X227452410Y-72491396D01*
X227334252Y-72514899D01*
X227152761Y-72551000D01*
X226847239Y-72551000D01*
X226665748Y-72514899D01*
X226547590Y-72491396D01*
X226265326Y-72374479D01*
X226011295Y-72204741D01*
X225795259Y-71988705D01*
X225625521Y-71734674D01*
X225508604Y-71452410D01*
X225449000Y-71152760D01*
X225449000Y-70847240D01*
X225508604Y-70547590D01*
X225625521Y-70265326D01*
X225795259Y-70011295D01*
X226011295Y-69795259D01*
X226265326Y-69625521D01*
X226547590Y-69508604D01*
X226697415Y-69478802D01*
X226847239Y-69449000D01*
X227152761Y-69449000D01*
X227302585Y-69478802D01*
G37*
G36*
X167302585Y-69478802D02*
G01*
X167452410Y-69508604D01*
X167734674Y-69625521D01*
X167988705Y-69795259D01*
X168204741Y-70011295D01*
X168374479Y-70265326D01*
X168491396Y-70547590D01*
X168551000Y-70847240D01*
X168551000Y-71152760D01*
X168491396Y-71452410D01*
X168374479Y-71734674D01*
X168204741Y-71988705D01*
X167988705Y-72204741D01*
X167734674Y-72374479D01*
X167452410Y-72491396D01*
X167334252Y-72514899D01*
X167152761Y-72551000D01*
X166847239Y-72551000D01*
X166665748Y-72514899D01*
X166547590Y-72491396D01*
X166265326Y-72374479D01*
X166011295Y-72204741D01*
X165795259Y-71988705D01*
X165625521Y-71734674D01*
X165508604Y-71452410D01*
X165449000Y-71152760D01*
X165449000Y-70847240D01*
X165508604Y-70547590D01*
X165625521Y-70265326D01*
X165795259Y-70011295D01*
X166011295Y-69795259D01*
X166265326Y-69625521D01*
X166547590Y-69508604D01*
X166697415Y-69478802D01*
X166847239Y-69449000D01*
X167152761Y-69449000D01*
X167302585Y-69478802D01*
G37*
G36*
X206967600Y-71296600D02*
G01*
X204115600Y-71296600D01*
X204115600Y-70194600D01*
X206967600Y-70194600D01*
X206967600Y-71296600D01*
G37*
G36*
X201217600Y-71296600D02*
G01*
X198365600Y-71296600D01*
X198365600Y-70194600D01*
X201217600Y-70194600D01*
X201217600Y-71296600D01*
G37*
M02*
