G04 #@! TF.GenerationSoftware,KiCad,Pcbnew,(5.1.6)-1*
G04 #@! TF.CreationDate,2020-09-12T13:54:30-05:00*
G04 #@! TF.ProjectId,ContactorDriver,436f6e74-6163-4746-9f72-447269766572,rev?*
G04 #@! TF.SameCoordinates,Original*
G04 #@! TF.FileFunction,Paste,Top*
G04 #@! TF.FilePolarity,Positive*
%FSLAX46Y46*%
G04 Gerber Fmt 4.6, Leading zero omitted, Abs format (unit mm)*
G04 Created by KiCad (PCBNEW (5.1.6)-1) date 2020-09-12 13:54:30*
%MOMM*%
%LPD*%
G01*
G04 APERTURE LIST*
%ADD10R,2.750000X1.000000*%
%ADD11R,1.220000X0.650000*%
%ADD12R,1.193800X1.041400*%
%ADD13R,3.050000X2.750000*%
%ADD14R,2.200000X1.200000*%
G04 APERTURE END LIST*
D10*
X211398000Y-108591100D03*
X217148000Y-108591100D03*
X217148000Y-104591100D03*
X211398000Y-104591100D03*
X211399400Y-92106500D03*
X217149400Y-92106500D03*
X217149400Y-88106500D03*
X211399400Y-88106500D03*
X205541600Y-70745600D03*
X199791600Y-70745600D03*
X199791600Y-74745600D03*
X205541600Y-74745600D03*
G36*
G01*
X219804401Y-118770200D02*
X218904399Y-118770200D01*
G75*
G02*
X218654400Y-118520201I0J249999D01*
G01*
X218654400Y-117870199D01*
G75*
G02*
X218904399Y-117620200I249999J0D01*
G01*
X219804401Y-117620200D01*
G75*
G02*
X220054400Y-117870199I0J-249999D01*
G01*
X220054400Y-118520201D01*
G75*
G02*
X219804401Y-118770200I-249999J0D01*
G01*
G37*
G36*
G01*
X219804401Y-116720200D02*
X218904399Y-116720200D01*
G75*
G02*
X218654400Y-116470201I0J249999D01*
G01*
X218654400Y-115820199D01*
G75*
G02*
X218904399Y-115570200I249999J0D01*
G01*
X219804401Y-115570200D01*
G75*
G02*
X220054400Y-115820199I0J-249999D01*
G01*
X220054400Y-116470201D01*
G75*
G02*
X219804401Y-116720200I-249999J0D01*
G01*
G37*
G36*
G01*
X200450000Y-91450001D02*
X200450000Y-90549999D01*
G75*
G02*
X200699999Y-90300000I249999J0D01*
G01*
X201350001Y-90300000D01*
G75*
G02*
X201600000Y-90549999I0J-249999D01*
G01*
X201600000Y-91450001D01*
G75*
G02*
X201350001Y-91700000I-249999J0D01*
G01*
X200699999Y-91700000D01*
G75*
G02*
X200450000Y-91450001I0J249999D01*
G01*
G37*
G36*
G01*
X198400000Y-91450001D02*
X198400000Y-90549999D01*
G75*
G02*
X198649999Y-90300000I249999J0D01*
G01*
X199300001Y-90300000D01*
G75*
G02*
X199550000Y-90549999I0J-249999D01*
G01*
X199550000Y-91450001D01*
G75*
G02*
X199300001Y-91700000I-249999J0D01*
G01*
X198649999Y-91700000D01*
G75*
G02*
X198400000Y-91450001I0J249999D01*
G01*
G37*
G36*
G01*
X198400000Y-107950001D02*
X198400000Y-107049999D01*
G75*
G02*
X198649999Y-106800000I249999J0D01*
G01*
X199300001Y-106800000D01*
G75*
G02*
X199550000Y-107049999I0J-249999D01*
G01*
X199550000Y-107950001D01*
G75*
G02*
X199300001Y-108200000I-249999J0D01*
G01*
X198649999Y-108200000D01*
G75*
G02*
X198400000Y-107950001I0J249999D01*
G01*
G37*
G36*
G01*
X200450000Y-107950001D02*
X200450000Y-107049999D01*
G75*
G02*
X200699999Y-106800000I249999J0D01*
G01*
X201350001Y-106800000D01*
G75*
G02*
X201600000Y-107049999I0J-249999D01*
G01*
X201600000Y-107950001D01*
G75*
G02*
X201350001Y-108200000I-249999J0D01*
G01*
X200699999Y-108200000D01*
G75*
G02*
X200450000Y-107950001I0J249999D01*
G01*
G37*
D11*
X214132800Y-84455000D03*
X216752800Y-83505000D03*
X216752800Y-85405000D03*
X216727400Y-101915000D03*
X216727400Y-100015000D03*
X214107400Y-100965000D03*
G36*
G01*
X211322500Y-80525199D02*
X211322500Y-81425201D01*
G75*
G02*
X211072501Y-81675200I-249999J0D01*
G01*
X210422499Y-81675200D01*
G75*
G02*
X210172500Y-81425201I0J249999D01*
G01*
X210172500Y-80525199D01*
G75*
G02*
X210422499Y-80275200I249999J0D01*
G01*
X211072501Y-80275200D01*
G75*
G02*
X211322500Y-80525199I0J-249999D01*
G01*
G37*
G36*
G01*
X213372500Y-80525199D02*
X213372500Y-81425201D01*
G75*
G02*
X213122501Y-81675200I-249999J0D01*
G01*
X212472499Y-81675200D01*
G75*
G02*
X212222500Y-81425201I0J249999D01*
G01*
X212222500Y-80525199D01*
G75*
G02*
X212472499Y-80275200I249999J0D01*
G01*
X213122501Y-80275200D01*
G75*
G02*
X213372500Y-80525199I0J-249999D01*
G01*
G37*
G36*
G01*
X205950000Y-86950001D02*
X205950000Y-86049999D01*
G75*
G02*
X206199999Y-85800000I249999J0D01*
G01*
X206850001Y-85800000D01*
G75*
G02*
X207100000Y-86049999I0J-249999D01*
G01*
X207100000Y-86950001D01*
G75*
G02*
X206850001Y-87200000I-249999J0D01*
G01*
X206199999Y-87200000D01*
G75*
G02*
X205950000Y-86950001I0J249999D01*
G01*
G37*
G36*
G01*
X203900000Y-86950001D02*
X203900000Y-86049999D01*
G75*
G02*
X204149999Y-85800000I249999J0D01*
G01*
X204800001Y-85800000D01*
G75*
G02*
X205050000Y-86049999I0J-249999D01*
G01*
X205050000Y-86950001D01*
G75*
G02*
X204800001Y-87200000I-249999J0D01*
G01*
X204149999Y-87200000D01*
G75*
G02*
X203900000Y-86950001I0J249999D01*
G01*
G37*
G36*
G01*
X205950000Y-91450001D02*
X205950000Y-90549999D01*
G75*
G02*
X206199999Y-90300000I249999J0D01*
G01*
X206850001Y-90300000D01*
G75*
G02*
X207100000Y-90549999I0J-249999D01*
G01*
X207100000Y-91450001D01*
G75*
G02*
X206850001Y-91700000I-249999J0D01*
G01*
X206199999Y-91700000D01*
G75*
G02*
X205950000Y-91450001I0J249999D01*
G01*
G37*
G36*
G01*
X203900000Y-91450001D02*
X203900000Y-90549999D01*
G75*
G02*
X204149999Y-90300000I249999J0D01*
G01*
X204800001Y-90300000D01*
G75*
G02*
X205050000Y-90549999I0J-249999D01*
G01*
X205050000Y-91450001D01*
G75*
G02*
X204800001Y-91700000I-249999J0D01*
G01*
X204149999Y-91700000D01*
G75*
G02*
X203900000Y-91450001I0J249999D01*
G01*
G37*
G36*
G01*
X213385200Y-97022499D02*
X213385200Y-97922501D01*
G75*
G02*
X213135201Y-98172500I-249999J0D01*
G01*
X212485199Y-98172500D01*
G75*
G02*
X212235200Y-97922501I0J249999D01*
G01*
X212235200Y-97022499D01*
G75*
G02*
X212485199Y-96772500I249999J0D01*
G01*
X213135201Y-96772500D01*
G75*
G02*
X213385200Y-97022499I0J-249999D01*
G01*
G37*
G36*
G01*
X211335200Y-97022499D02*
X211335200Y-97922501D01*
G75*
G02*
X211085201Y-98172500I-249999J0D01*
G01*
X210435199Y-98172500D01*
G75*
G02*
X210185200Y-97922501I0J249999D01*
G01*
X210185200Y-97022499D01*
G75*
G02*
X210435199Y-96772500I249999J0D01*
G01*
X211085201Y-96772500D01*
G75*
G02*
X211335200Y-97022499I0J-249999D01*
G01*
G37*
G36*
G01*
X208450001Y-83600000D02*
X207549999Y-83600000D01*
G75*
G02*
X207300000Y-83350001I0J249999D01*
G01*
X207300000Y-82699999D01*
G75*
G02*
X207549999Y-82450000I249999J0D01*
G01*
X208450001Y-82450000D01*
G75*
G02*
X208700000Y-82699999I0J-249999D01*
G01*
X208700000Y-83350001D01*
G75*
G02*
X208450001Y-83600000I-249999J0D01*
G01*
G37*
G36*
G01*
X208450001Y-81550000D02*
X207549999Y-81550000D01*
G75*
G02*
X207300000Y-81300001I0J249999D01*
G01*
X207300000Y-80649999D01*
G75*
G02*
X207549999Y-80400000I249999J0D01*
G01*
X208450001Y-80400000D01*
G75*
G02*
X208700000Y-80649999I0J-249999D01*
G01*
X208700000Y-81300001D01*
G75*
G02*
X208450001Y-81550000I-249999J0D01*
G01*
G37*
G36*
G01*
X208450001Y-100100000D02*
X207549999Y-100100000D01*
G75*
G02*
X207300000Y-99850001I0J249999D01*
G01*
X207300000Y-99199999D01*
G75*
G02*
X207549999Y-98950000I249999J0D01*
G01*
X208450001Y-98950000D01*
G75*
G02*
X208700000Y-99199999I0J-249999D01*
G01*
X208700000Y-99850001D01*
G75*
G02*
X208450001Y-100100000I-249999J0D01*
G01*
G37*
G36*
G01*
X208450001Y-98050000D02*
X207549999Y-98050000D01*
G75*
G02*
X207300000Y-97800001I0J249999D01*
G01*
X207300000Y-97149999D01*
G75*
G02*
X207549999Y-96900000I249999J0D01*
G01*
X208450001Y-96900000D01*
G75*
G02*
X208700000Y-97149999I0J-249999D01*
G01*
X208700000Y-97800001D01*
G75*
G02*
X208450001Y-98050000I-249999J0D01*
G01*
G37*
G36*
G01*
X203900000Y-107950001D02*
X203900000Y-107049999D01*
G75*
G02*
X204149999Y-106800000I249999J0D01*
G01*
X204800001Y-106800000D01*
G75*
G02*
X205050000Y-107049999I0J-249999D01*
G01*
X205050000Y-107950001D01*
G75*
G02*
X204800001Y-108200000I-249999J0D01*
G01*
X204149999Y-108200000D01*
G75*
G02*
X203900000Y-107950001I0J249999D01*
G01*
G37*
G36*
G01*
X205950000Y-107950001D02*
X205950000Y-107049999D01*
G75*
G02*
X206199999Y-106800000I249999J0D01*
G01*
X206850001Y-106800000D01*
G75*
G02*
X207100000Y-107049999I0J-249999D01*
G01*
X207100000Y-107950001D01*
G75*
G02*
X206850001Y-108200000I-249999J0D01*
G01*
X206199999Y-108200000D01*
G75*
G02*
X205950000Y-107950001I0J249999D01*
G01*
G37*
G36*
G01*
X205950000Y-103450001D02*
X205950000Y-102549999D01*
G75*
G02*
X206199999Y-102300000I249999J0D01*
G01*
X206850001Y-102300000D01*
G75*
G02*
X207100000Y-102549999I0J-249999D01*
G01*
X207100000Y-103450001D01*
G75*
G02*
X206850001Y-103700000I-249999J0D01*
G01*
X206199999Y-103700000D01*
G75*
G02*
X205950000Y-103450001I0J249999D01*
G01*
G37*
G36*
G01*
X203900000Y-103450001D02*
X203900000Y-102549999D01*
G75*
G02*
X204149999Y-102300000I249999J0D01*
G01*
X204800001Y-102300000D01*
G75*
G02*
X205050000Y-102549999I0J-249999D01*
G01*
X205050000Y-103450001D01*
G75*
G02*
X204800001Y-103700000I-249999J0D01*
G01*
X204149999Y-103700000D01*
G75*
G02*
X203900000Y-103450001I0J249999D01*
G01*
G37*
G36*
G01*
X196850000Y-72799999D02*
X196850000Y-73700001D01*
G75*
G02*
X196600001Y-73950000I-249999J0D01*
G01*
X195949999Y-73950000D01*
G75*
G02*
X195700000Y-73700001I0J249999D01*
G01*
X195700000Y-72799999D01*
G75*
G02*
X195949999Y-72550000I249999J0D01*
G01*
X196600001Y-72550000D01*
G75*
G02*
X196850000Y-72799999I0J-249999D01*
G01*
G37*
G36*
G01*
X194800000Y-72799999D02*
X194800000Y-73700001D01*
G75*
G02*
X194550001Y-73950000I-249999J0D01*
G01*
X193899999Y-73950000D01*
G75*
G02*
X193650000Y-73700001I0J249999D01*
G01*
X193650000Y-72799999D01*
G75*
G02*
X193899999Y-72550000I249999J0D01*
G01*
X194550001Y-72550000D01*
G75*
G02*
X194800000Y-72799999I0J-249999D01*
G01*
G37*
G36*
G01*
X191850000Y-72799999D02*
X191850000Y-73700001D01*
G75*
G02*
X191600001Y-73950000I-249999J0D01*
G01*
X190949999Y-73950000D01*
G75*
G02*
X190700000Y-73700001I0J249999D01*
G01*
X190700000Y-72799999D01*
G75*
G02*
X190949999Y-72550000I249999J0D01*
G01*
X191600001Y-72550000D01*
G75*
G02*
X191850000Y-72799999I0J-249999D01*
G01*
G37*
G36*
G01*
X189800000Y-72799999D02*
X189800000Y-73700001D01*
G75*
G02*
X189550001Y-73950000I-249999J0D01*
G01*
X188899999Y-73950000D01*
G75*
G02*
X188650000Y-73700001I0J249999D01*
G01*
X188650000Y-72799999D01*
G75*
G02*
X188899999Y-72550000I249999J0D01*
G01*
X189550001Y-72550000D01*
G75*
G02*
X189800000Y-72799999I0J-249999D01*
G01*
G37*
D12*
X176000000Y-77361700D03*
X176000000Y-80638300D03*
X176000000Y-97138300D03*
X176000000Y-93861700D03*
D13*
X189450000Y-82475000D03*
X186100000Y-85525000D03*
X189450000Y-85525000D03*
X186100000Y-82475000D03*
D14*
X194075000Y-81720000D03*
X194075000Y-86280000D03*
X194150000Y-102780000D03*
X194150000Y-98220000D03*
D13*
X186175000Y-98975000D03*
X189525000Y-102025000D03*
X186175000Y-102025000D03*
X189525000Y-98975000D03*
M02*
