G04 #@! TF.GenerationSoftware,KiCad,Pcbnew,(5.1.6)-1*
G04 #@! TF.CreationDate,2020-09-12T11:45:34-05:00*
G04 #@! TF.ProjectId,ContactorDriver,436f6e74-6163-4746-9f72-447269766572,rev?*
G04 #@! TF.SameCoordinates,Original*
G04 #@! TF.FileFunction,Copper,L1,Top*
G04 #@! TF.FilePolarity,Positive*
%FSLAX46Y46*%
G04 Gerber Fmt 4.6, Leading zero omitted, Abs format (unit mm)*
G04 Created by KiCad (PCBNEW (5.1.6)-1) date 2020-09-12 11:45:34*
%MOMM*%
%LPD*%
G01*
G04 APERTURE LIST*
G04 #@! TA.AperFunction,SMDPad,CuDef*
%ADD10R,2.750000X1.000000*%
G04 #@! TD*
G04 #@! TA.AperFunction,ComponentPad*
%ADD11O,2.020000X1.500000*%
G04 #@! TD*
G04 #@! TA.AperFunction,SMDPad,CuDef*
%ADD12R,1.220000X0.650000*%
G04 #@! TD*
G04 #@! TA.AperFunction,ComponentPad*
%ADD13C,2.800000*%
G04 #@! TD*
G04 #@! TA.AperFunction,ComponentPad*
%ADD14C,2.286000*%
G04 #@! TD*
G04 #@! TA.AperFunction,ComponentPad*
%ADD15C,4.500880*%
G04 #@! TD*
G04 #@! TA.AperFunction,SMDPad,CuDef*
%ADD16R,1.193800X1.041400*%
G04 #@! TD*
G04 #@! TA.AperFunction,SMDPad,CuDef*
%ADD17R,6.400000X5.800000*%
G04 #@! TD*
G04 #@! TA.AperFunction,SMDPad,CuDef*
%ADD18R,2.200000X1.200000*%
G04 #@! TD*
G04 #@! TA.AperFunction,ViaPad*
%ADD19C,0.800000*%
G04 #@! TD*
G04 #@! TA.AperFunction,Conductor*
%ADD20C,0.250000*%
G04 #@! TD*
G04 #@! TA.AperFunction,Conductor*
%ADD21C,0.254000*%
G04 #@! TD*
G04 APERTURE END LIST*
D10*
X211653400Y-109696000D03*
X217403400Y-109696000D03*
X217403400Y-105696000D03*
X211653400Y-105696000D03*
X211412100Y-93363800D03*
X217162100Y-93363800D03*
X217162100Y-89363800D03*
X211412100Y-89363800D03*
X205541600Y-70745600D03*
X199791600Y-70745600D03*
X199791600Y-74745600D03*
X205541600Y-74745600D03*
G04 #@! TA.AperFunction,SMDPad,CuDef*
G36*
G01*
X219804401Y-118770200D02*
X218904399Y-118770200D01*
G75*
G02*
X218654400Y-118520201I0J249999D01*
G01*
X218654400Y-117870199D01*
G75*
G02*
X218904399Y-117620200I249999J0D01*
G01*
X219804401Y-117620200D01*
G75*
G02*
X220054400Y-117870199I0J-249999D01*
G01*
X220054400Y-118520201D01*
G75*
G02*
X219804401Y-118770200I-249999J0D01*
G01*
G37*
G04 #@! TD.AperFunction*
G04 #@! TA.AperFunction,SMDPad,CuDef*
G36*
G01*
X219804401Y-116720200D02*
X218904399Y-116720200D01*
G75*
G02*
X218654400Y-116470201I0J249999D01*
G01*
X218654400Y-115820199D01*
G75*
G02*
X218904399Y-115570200I249999J0D01*
G01*
X219804401Y-115570200D01*
G75*
G02*
X220054400Y-115820199I0J-249999D01*
G01*
X220054400Y-116470201D01*
G75*
G02*
X219804401Y-116720200I-249999J0D01*
G01*
G37*
G04 #@! TD.AperFunction*
G04 #@! TA.AperFunction,SMDPad,CuDef*
G36*
G01*
X200450000Y-91450001D02*
X200450000Y-90549999D01*
G75*
G02*
X200699999Y-90300000I249999J0D01*
G01*
X201350001Y-90300000D01*
G75*
G02*
X201600000Y-90549999I0J-249999D01*
G01*
X201600000Y-91450001D01*
G75*
G02*
X201350001Y-91700000I-249999J0D01*
G01*
X200699999Y-91700000D01*
G75*
G02*
X200450000Y-91450001I0J249999D01*
G01*
G37*
G04 #@! TD.AperFunction*
G04 #@! TA.AperFunction,SMDPad,CuDef*
G36*
G01*
X198400000Y-91450001D02*
X198400000Y-90549999D01*
G75*
G02*
X198649999Y-90300000I249999J0D01*
G01*
X199300001Y-90300000D01*
G75*
G02*
X199550000Y-90549999I0J-249999D01*
G01*
X199550000Y-91450001D01*
G75*
G02*
X199300001Y-91700000I-249999J0D01*
G01*
X198649999Y-91700000D01*
G75*
G02*
X198400000Y-91450001I0J249999D01*
G01*
G37*
G04 #@! TD.AperFunction*
G04 #@! TA.AperFunction,SMDPad,CuDef*
G36*
G01*
X198400000Y-107950001D02*
X198400000Y-107049999D01*
G75*
G02*
X198649999Y-106800000I249999J0D01*
G01*
X199300001Y-106800000D01*
G75*
G02*
X199550000Y-107049999I0J-249999D01*
G01*
X199550000Y-107950001D01*
G75*
G02*
X199300001Y-108200000I-249999J0D01*
G01*
X198649999Y-108200000D01*
G75*
G02*
X198400000Y-107950001I0J249999D01*
G01*
G37*
G04 #@! TD.AperFunction*
G04 #@! TA.AperFunction,SMDPad,CuDef*
G36*
G01*
X200450000Y-107950001D02*
X200450000Y-107049999D01*
G75*
G02*
X200699999Y-106800000I249999J0D01*
G01*
X201350001Y-106800000D01*
G75*
G02*
X201600000Y-107049999I0J-249999D01*
G01*
X201600000Y-107950001D01*
G75*
G02*
X201350001Y-108200000I-249999J0D01*
G01*
X200699999Y-108200000D01*
G75*
G02*
X200450000Y-107950001I0J249999D01*
G01*
G37*
G04 #@! TD.AperFunction*
G04 #@! TA.AperFunction,ComponentPad*
G36*
G01*
X166240000Y-78750000D02*
X167760000Y-78750000D01*
G75*
G02*
X168010000Y-79000000I0J-250000D01*
G01*
X168010000Y-80000000D01*
G75*
G02*
X167760000Y-80250000I-250000J0D01*
G01*
X166240000Y-80250000D01*
G75*
G02*
X165990000Y-80000000I0J250000D01*
G01*
X165990000Y-79000000D01*
G75*
G02*
X166240000Y-78750000I250000J0D01*
G01*
G37*
G04 #@! TD.AperFunction*
D11*
X167000000Y-82500000D03*
X167000000Y-85500000D03*
X167000000Y-88500000D03*
G04 #@! TA.AperFunction,ComponentPad*
G36*
G01*
X166240000Y-98250000D02*
X167760000Y-98250000D01*
G75*
G02*
X168010000Y-98500000I0J-250000D01*
G01*
X168010000Y-99500000D01*
G75*
G02*
X167760000Y-99750000I-250000J0D01*
G01*
X166240000Y-99750000D01*
G75*
G02*
X165990000Y-99500000I0J250000D01*
G01*
X165990000Y-98500000D01*
G75*
G02*
X166240000Y-98250000I250000J0D01*
G01*
G37*
G04 #@! TD.AperFunction*
X167000000Y-102000000D03*
D12*
X212367500Y-82829400D03*
X214987500Y-81879400D03*
X214987500Y-83779400D03*
X215330400Y-100213200D03*
X215330400Y-98313200D03*
X212710400Y-99263200D03*
G04 #@! TA.AperFunction,SMDPad,CuDef*
G36*
G01*
X210598600Y-78455099D02*
X210598600Y-79355101D01*
G75*
G02*
X210348601Y-79605100I-249999J0D01*
G01*
X209698599Y-79605100D01*
G75*
G02*
X209448600Y-79355101I0J249999D01*
G01*
X209448600Y-78455099D01*
G75*
G02*
X209698599Y-78205100I249999J0D01*
G01*
X210348601Y-78205100D01*
G75*
G02*
X210598600Y-78455099I0J-249999D01*
G01*
G37*
G04 #@! TD.AperFunction*
G04 #@! TA.AperFunction,SMDPad,CuDef*
G36*
G01*
X212648600Y-78455099D02*
X212648600Y-79355101D01*
G75*
G02*
X212398601Y-79605100I-249999J0D01*
G01*
X211748599Y-79605100D01*
G75*
G02*
X211498600Y-79355101I0J249999D01*
G01*
X211498600Y-78455099D01*
G75*
G02*
X211748599Y-78205100I249999J0D01*
G01*
X212398601Y-78205100D01*
G75*
G02*
X212648600Y-78455099I0J-249999D01*
G01*
G37*
G04 #@! TD.AperFunction*
G04 #@! TA.AperFunction,SMDPad,CuDef*
G36*
G01*
X205950000Y-86950001D02*
X205950000Y-86049999D01*
G75*
G02*
X206199999Y-85800000I249999J0D01*
G01*
X206850001Y-85800000D01*
G75*
G02*
X207100000Y-86049999I0J-249999D01*
G01*
X207100000Y-86950001D01*
G75*
G02*
X206850001Y-87200000I-249999J0D01*
G01*
X206199999Y-87200000D01*
G75*
G02*
X205950000Y-86950001I0J249999D01*
G01*
G37*
G04 #@! TD.AperFunction*
G04 #@! TA.AperFunction,SMDPad,CuDef*
G36*
G01*
X203900000Y-86950001D02*
X203900000Y-86049999D01*
G75*
G02*
X204149999Y-85800000I249999J0D01*
G01*
X204800001Y-85800000D01*
G75*
G02*
X205050000Y-86049999I0J-249999D01*
G01*
X205050000Y-86950001D01*
G75*
G02*
X204800001Y-87200000I-249999J0D01*
G01*
X204149999Y-87200000D01*
G75*
G02*
X203900000Y-86950001I0J249999D01*
G01*
G37*
G04 #@! TD.AperFunction*
G04 #@! TA.AperFunction,SMDPad,CuDef*
G36*
G01*
X205950000Y-91450001D02*
X205950000Y-90549999D01*
G75*
G02*
X206199999Y-90300000I249999J0D01*
G01*
X206850001Y-90300000D01*
G75*
G02*
X207100000Y-90549999I0J-249999D01*
G01*
X207100000Y-91450001D01*
G75*
G02*
X206850001Y-91700000I-249999J0D01*
G01*
X206199999Y-91700000D01*
G75*
G02*
X205950000Y-91450001I0J249999D01*
G01*
G37*
G04 #@! TD.AperFunction*
G04 #@! TA.AperFunction,SMDPad,CuDef*
G36*
G01*
X203900000Y-91450001D02*
X203900000Y-90549999D01*
G75*
G02*
X204149999Y-90300000I249999J0D01*
G01*
X204800001Y-90300000D01*
G75*
G02*
X205050000Y-90549999I0J-249999D01*
G01*
X205050000Y-91450001D01*
G75*
G02*
X204800001Y-91700000I-249999J0D01*
G01*
X204149999Y-91700000D01*
G75*
G02*
X203900000Y-91450001I0J249999D01*
G01*
G37*
G04 #@! TD.AperFunction*
G04 #@! TA.AperFunction,SMDPad,CuDef*
G36*
G01*
X212683000Y-95879499D02*
X212683000Y-96779501D01*
G75*
G02*
X212433001Y-97029500I-249999J0D01*
G01*
X211782999Y-97029500D01*
G75*
G02*
X211533000Y-96779501I0J249999D01*
G01*
X211533000Y-95879499D01*
G75*
G02*
X211782999Y-95629500I249999J0D01*
G01*
X212433001Y-95629500D01*
G75*
G02*
X212683000Y-95879499I0J-249999D01*
G01*
G37*
G04 #@! TD.AperFunction*
G04 #@! TA.AperFunction,SMDPad,CuDef*
G36*
G01*
X210633000Y-95879499D02*
X210633000Y-96779501D01*
G75*
G02*
X210383001Y-97029500I-249999J0D01*
G01*
X209732999Y-97029500D01*
G75*
G02*
X209483000Y-96779501I0J249999D01*
G01*
X209483000Y-95879499D01*
G75*
G02*
X209732999Y-95629500I249999J0D01*
G01*
X210383001Y-95629500D01*
G75*
G02*
X210633000Y-95879499I0J-249999D01*
G01*
G37*
G04 #@! TD.AperFunction*
G04 #@! TA.AperFunction,SMDPad,CuDef*
G36*
G01*
X208450001Y-83600000D02*
X207549999Y-83600000D01*
G75*
G02*
X207300000Y-83350001I0J249999D01*
G01*
X207300000Y-82699999D01*
G75*
G02*
X207549999Y-82450000I249999J0D01*
G01*
X208450001Y-82450000D01*
G75*
G02*
X208700000Y-82699999I0J-249999D01*
G01*
X208700000Y-83350001D01*
G75*
G02*
X208450001Y-83600000I-249999J0D01*
G01*
G37*
G04 #@! TD.AperFunction*
G04 #@! TA.AperFunction,SMDPad,CuDef*
G36*
G01*
X208450001Y-81550000D02*
X207549999Y-81550000D01*
G75*
G02*
X207300000Y-81300001I0J249999D01*
G01*
X207300000Y-80649999D01*
G75*
G02*
X207549999Y-80400000I249999J0D01*
G01*
X208450001Y-80400000D01*
G75*
G02*
X208700000Y-80649999I0J-249999D01*
G01*
X208700000Y-81300001D01*
G75*
G02*
X208450001Y-81550000I-249999J0D01*
G01*
G37*
G04 #@! TD.AperFunction*
G04 #@! TA.AperFunction,SMDPad,CuDef*
G36*
G01*
X208450001Y-100100000D02*
X207549999Y-100100000D01*
G75*
G02*
X207300000Y-99850001I0J249999D01*
G01*
X207300000Y-99199999D01*
G75*
G02*
X207549999Y-98950000I249999J0D01*
G01*
X208450001Y-98950000D01*
G75*
G02*
X208700000Y-99199999I0J-249999D01*
G01*
X208700000Y-99850001D01*
G75*
G02*
X208450001Y-100100000I-249999J0D01*
G01*
G37*
G04 #@! TD.AperFunction*
G04 #@! TA.AperFunction,SMDPad,CuDef*
G36*
G01*
X208450001Y-98050000D02*
X207549999Y-98050000D01*
G75*
G02*
X207300000Y-97800001I0J249999D01*
G01*
X207300000Y-97149999D01*
G75*
G02*
X207549999Y-96900000I249999J0D01*
G01*
X208450001Y-96900000D01*
G75*
G02*
X208700000Y-97149999I0J-249999D01*
G01*
X208700000Y-97800001D01*
G75*
G02*
X208450001Y-98050000I-249999J0D01*
G01*
G37*
G04 #@! TD.AperFunction*
G04 #@! TA.AperFunction,SMDPad,CuDef*
G36*
G01*
X203900000Y-107950001D02*
X203900000Y-107049999D01*
G75*
G02*
X204149999Y-106800000I249999J0D01*
G01*
X204800001Y-106800000D01*
G75*
G02*
X205050000Y-107049999I0J-249999D01*
G01*
X205050000Y-107950001D01*
G75*
G02*
X204800001Y-108200000I-249999J0D01*
G01*
X204149999Y-108200000D01*
G75*
G02*
X203900000Y-107950001I0J249999D01*
G01*
G37*
G04 #@! TD.AperFunction*
G04 #@! TA.AperFunction,SMDPad,CuDef*
G36*
G01*
X205950000Y-107950001D02*
X205950000Y-107049999D01*
G75*
G02*
X206199999Y-106800000I249999J0D01*
G01*
X206850001Y-106800000D01*
G75*
G02*
X207100000Y-107049999I0J-249999D01*
G01*
X207100000Y-107950001D01*
G75*
G02*
X206850001Y-108200000I-249999J0D01*
G01*
X206199999Y-108200000D01*
G75*
G02*
X205950000Y-107950001I0J249999D01*
G01*
G37*
G04 #@! TD.AperFunction*
G04 #@! TA.AperFunction,SMDPad,CuDef*
G36*
G01*
X205950000Y-103450001D02*
X205950000Y-102549999D01*
G75*
G02*
X206199999Y-102300000I249999J0D01*
G01*
X206850001Y-102300000D01*
G75*
G02*
X207100000Y-102549999I0J-249999D01*
G01*
X207100000Y-103450001D01*
G75*
G02*
X206850001Y-103700000I-249999J0D01*
G01*
X206199999Y-103700000D01*
G75*
G02*
X205950000Y-103450001I0J249999D01*
G01*
G37*
G04 #@! TD.AperFunction*
G04 #@! TA.AperFunction,SMDPad,CuDef*
G36*
G01*
X203900000Y-103450001D02*
X203900000Y-102549999D01*
G75*
G02*
X204149999Y-102300000I249999J0D01*
G01*
X204800001Y-102300000D01*
G75*
G02*
X205050000Y-102549999I0J-249999D01*
G01*
X205050000Y-103450001D01*
G75*
G02*
X204800001Y-103700000I-249999J0D01*
G01*
X204149999Y-103700000D01*
G75*
G02*
X203900000Y-103450001I0J249999D01*
G01*
G37*
G04 #@! TD.AperFunction*
D13*
X202500000Y-82000000D03*
X183000000Y-72000000D03*
X209845300Y-72000000D03*
X202500000Y-98500000D03*
G04 #@! TA.AperFunction,SMDPad,CuDef*
G36*
G01*
X196850000Y-72799999D02*
X196850000Y-73700001D01*
G75*
G02*
X196600001Y-73950000I-249999J0D01*
G01*
X195949999Y-73950000D01*
G75*
G02*
X195700000Y-73700001I0J249999D01*
G01*
X195700000Y-72799999D01*
G75*
G02*
X195949999Y-72550000I249999J0D01*
G01*
X196600001Y-72550000D01*
G75*
G02*
X196850000Y-72799999I0J-249999D01*
G01*
G37*
G04 #@! TD.AperFunction*
G04 #@! TA.AperFunction,SMDPad,CuDef*
G36*
G01*
X194800000Y-72799999D02*
X194800000Y-73700001D01*
G75*
G02*
X194550001Y-73950000I-249999J0D01*
G01*
X193899999Y-73950000D01*
G75*
G02*
X193650000Y-73700001I0J249999D01*
G01*
X193650000Y-72799999D01*
G75*
G02*
X193899999Y-72550000I249999J0D01*
G01*
X194550001Y-72550000D01*
G75*
G02*
X194800000Y-72799999I0J-249999D01*
G01*
G37*
G04 #@! TD.AperFunction*
G04 #@! TA.AperFunction,SMDPad,CuDef*
G36*
G01*
X191850000Y-72799999D02*
X191850000Y-73700001D01*
G75*
G02*
X191600001Y-73950000I-249999J0D01*
G01*
X190949999Y-73950000D01*
G75*
G02*
X190700000Y-73700001I0J249999D01*
G01*
X190700000Y-72799999D01*
G75*
G02*
X190949999Y-72550000I249999J0D01*
G01*
X191600001Y-72550000D01*
G75*
G02*
X191850000Y-72799999I0J-249999D01*
G01*
G37*
G04 #@! TD.AperFunction*
G04 #@! TA.AperFunction,SMDPad,CuDef*
G36*
G01*
X189800000Y-72799999D02*
X189800000Y-73700001D01*
G75*
G02*
X189550001Y-73950000I-249999J0D01*
G01*
X188899999Y-73950000D01*
G75*
G02*
X188650000Y-73700001I0J249999D01*
G01*
X188650000Y-72799999D01*
G75*
G02*
X188899999Y-72550000I249999J0D01*
G01*
X189550001Y-72550000D01*
G75*
G02*
X189800000Y-72799999I0J-249999D01*
G01*
G37*
G04 #@! TD.AperFunction*
D14*
X181000000Y-139000000D03*
X181000000Y-146620000D03*
X175920000Y-139000000D03*
X173380000Y-139000000D03*
X175920000Y-146620000D03*
X173380000Y-146620000D03*
D15*
X177000000Y-120500000D03*
X218500000Y-160250000D03*
D16*
X176000000Y-77361700D03*
X176000000Y-80638300D03*
X176000000Y-97138300D03*
X176000000Y-93861700D03*
G04 #@! TA.AperFunction,ComponentPad*
G36*
G01*
X227734400Y-119279100D02*
X226214400Y-119279100D01*
G75*
G02*
X225964400Y-119029100I0J250000D01*
G01*
X225964400Y-118029100D01*
G75*
G02*
X226214400Y-117779100I250000J0D01*
G01*
X227734400Y-117779100D01*
G75*
G02*
X227984400Y-118029100I0J-250000D01*
G01*
X227984400Y-119029100D01*
G75*
G02*
X227734400Y-119279100I-250000J0D01*
G01*
G37*
G04 #@! TD.AperFunction*
D11*
X226974400Y-115529100D03*
G04 #@! TA.AperFunction,ComponentPad*
G36*
G01*
X227709000Y-84468400D02*
X226189000Y-84468400D01*
G75*
G02*
X225939000Y-84218400I0J250000D01*
G01*
X225939000Y-83218400D01*
G75*
G02*
X226189000Y-82968400I250000J0D01*
G01*
X227709000Y-82968400D01*
G75*
G02*
X227959000Y-83218400I0J-250000D01*
G01*
X227959000Y-84218400D01*
G75*
G02*
X227709000Y-84468400I-250000J0D01*
G01*
G37*
G04 #@! TD.AperFunction*
X226949000Y-80718400D03*
X226923600Y-97215700D03*
G04 #@! TA.AperFunction,ComponentPad*
G36*
G01*
X227683600Y-100965700D02*
X226163600Y-100965700D01*
G75*
G02*
X225913600Y-100715700I0J250000D01*
G01*
X225913600Y-99715700D01*
G75*
G02*
X226163600Y-99465700I250000J0D01*
G01*
X227683600Y-99465700D01*
G75*
G02*
X227933600Y-99715700I0J-250000D01*
G01*
X227933600Y-100715700D01*
G75*
G02*
X227683600Y-100965700I-250000J0D01*
G01*
G37*
G04 #@! TD.AperFunction*
D17*
X187775000Y-84000000D03*
D18*
X194075000Y-81720000D03*
X194075000Y-86280000D03*
X194150000Y-102780000D03*
X194150000Y-98220000D03*
D17*
X187850000Y-100500000D03*
D19*
X175958500Y-93827600D03*
X176022000Y-77431900D03*
X208000000Y-97475000D03*
X208000000Y-80975000D03*
X219476900Y-118317700D03*
X189225000Y-73250000D03*
D20*
X209145500Y-96329500D02*
X208000000Y-97475000D01*
X210058000Y-96329500D02*
X209145500Y-96329500D01*
X189225000Y-73250000D02*
X189225000Y-73250000D01*
X203656800Y-76631800D02*
X208000000Y-80975000D01*
X192606800Y-76631800D02*
X203656800Y-76631800D01*
X226974400Y-118529100D02*
X219688300Y-118529100D01*
X219354400Y-118195200D02*
X219476900Y-118317700D01*
X219688300Y-118529100D02*
X219476900Y-118317700D01*
X206525000Y-91000000D02*
X206525000Y-91018500D01*
X206525000Y-91018500D02*
X206603600Y-91097100D01*
X208000000Y-80928700D02*
X210023600Y-78905100D01*
X208000000Y-80975000D02*
X208000000Y-80928700D01*
X219970500Y-115529100D02*
X219354400Y-116145200D01*
X226974400Y-115529100D02*
X219970500Y-115529100D01*
X194225000Y-73250000D02*
X191275000Y-73250000D01*
X226260700Y-83030100D02*
X226949000Y-83718400D01*
X226888000Y-83779400D02*
X226949000Y-83718400D01*
X214987500Y-83779400D02*
X226888000Y-83779400D01*
X214987500Y-83408000D02*
X214987500Y-83779400D01*
X212073600Y-80865500D02*
X214987500Y-83779400D01*
X212073600Y-78905100D02*
X212073600Y-80865500D01*
X204925010Y-90813600D02*
X204793205Y-90681795D01*
X204925010Y-91186400D02*
X204925010Y-90813600D01*
X204475000Y-91000000D02*
X201025000Y-91000000D01*
X198975000Y-107500000D02*
X198975000Y-107500000D01*
X200755500Y-107769500D02*
X201025000Y-107500000D01*
X201025000Y-107500000D02*
X204024991Y-107500000D01*
X204925010Y-107313600D02*
X204793205Y-107181795D01*
X207300000Y-99525000D02*
X208000000Y-99525000D01*
X206525000Y-100300000D02*
X207300000Y-99525000D01*
X206525000Y-103000000D02*
X206525000Y-100300000D01*
X203525000Y-99525000D02*
X202500000Y-98500000D01*
X208000000Y-99525000D02*
X203525000Y-99525000D01*
X208261800Y-99263200D02*
X208000000Y-99525000D01*
X212710400Y-99263200D02*
X208261800Y-99263200D01*
X204435000Y-103040000D02*
X204475000Y-103000000D01*
X204255000Y-102780000D02*
X204475000Y-103000000D01*
X194150000Y-102780000D02*
X204255000Y-102780000D01*
X217162100Y-93363800D02*
X211412100Y-93363800D01*
X211412100Y-94975400D02*
X210058000Y-96329500D01*
X211412100Y-93363800D02*
X211412100Y-94975400D01*
X217403400Y-109696000D02*
X211653400Y-109696000D01*
X217403400Y-116244200D02*
X219354400Y-118195200D01*
X217403400Y-109696000D02*
X217403400Y-116244200D01*
X189225000Y-73250000D02*
X192606800Y-76631800D01*
X212108000Y-96990800D02*
X212108000Y-96329500D01*
X215330400Y-100213200D02*
X212108000Y-96990800D01*
X226921100Y-100213200D02*
X226923600Y-100215700D01*
X215330400Y-100213200D02*
X226921100Y-100213200D01*
X207300000Y-83025000D02*
X208000000Y-83025000D01*
X206525000Y-83800000D02*
X207300000Y-83025000D01*
X206525000Y-86500000D02*
X206525000Y-83800000D01*
X203525000Y-83025000D02*
X202500000Y-82000000D01*
X208000000Y-83025000D02*
X203525000Y-83025000D01*
X212171900Y-83025000D02*
X212367500Y-82829400D01*
X211246700Y-83025000D02*
X212171900Y-83025000D01*
X211246700Y-83025000D02*
X211473400Y-83025000D01*
X208000000Y-83025000D02*
X211246700Y-83025000D01*
X204435000Y-86540000D02*
X204475000Y-86500000D01*
X204255000Y-86280000D02*
X204475000Y-86500000D01*
X194075000Y-86280000D02*
X204255000Y-86280000D01*
X205541600Y-74745600D02*
X199791600Y-74745600D01*
X198296000Y-73250000D02*
X199791600Y-74745600D01*
X196275000Y-73250000D02*
X198296000Y-73250000D01*
X168861700Y-80638300D02*
X167000000Y-82500000D01*
X176000000Y-80638300D02*
X168861700Y-80638300D01*
X217162100Y-89363800D02*
X211412100Y-89363800D01*
X171138300Y-102000000D02*
X167000000Y-102000000D01*
X176000000Y-97138300D02*
X171138300Y-102000000D01*
X194850000Y-107500000D02*
X187850000Y-100500000D01*
X198975000Y-107500000D02*
X194850000Y-107500000D01*
X187850000Y-100500000D02*
X185755100Y-100500000D01*
X182393400Y-97138300D02*
X176000000Y-97138300D01*
X185755100Y-100500000D02*
X182393400Y-97138300D01*
X184413300Y-80638300D02*
X187775000Y-84000000D01*
X176000000Y-80638300D02*
X184413300Y-80638300D01*
X194775000Y-91000000D02*
X198975000Y-91000000D01*
X187775000Y-84000000D02*
X194775000Y-91000000D01*
X208161200Y-89363800D02*
X206525000Y-91000000D01*
X211412100Y-89363800D02*
X208161200Y-89363800D01*
X217403400Y-105696000D02*
X211653400Y-105696000D01*
X208329000Y-105696000D02*
X206525000Y-107500000D01*
X211653400Y-105696000D02*
X208329000Y-105696000D01*
D21*
G36*
X192373000Y-72748000D02*
G01*
X192223702Y-72748000D01*
X192216741Y-72677322D01*
X192180958Y-72559359D01*
X192122848Y-72450644D01*
X192044646Y-72355354D01*
X191949356Y-72277152D01*
X191840641Y-72219042D01*
X191722678Y-72183259D01*
X191600001Y-72171176D01*
X190949999Y-72171176D01*
X190827322Y-72183259D01*
X190709359Y-72219042D01*
X190600644Y-72277152D01*
X190505354Y-72355354D01*
X190427152Y-72450644D01*
X190369042Y-72559359D01*
X190333259Y-72677322D01*
X190321176Y-72799999D01*
X190321176Y-73636242D01*
X190178824Y-73493890D01*
X190178824Y-72799999D01*
X190166741Y-72677322D01*
X190130958Y-72559359D01*
X190072848Y-72450644D01*
X189994646Y-72355354D01*
X189899356Y-72277152D01*
X189790641Y-72219042D01*
X189672678Y-72183259D01*
X189550001Y-72171176D01*
X188899999Y-72171176D01*
X188777322Y-72183259D01*
X188659359Y-72219042D01*
X188550644Y-72277152D01*
X188455354Y-72355354D01*
X188377152Y-72450644D01*
X188319042Y-72559359D01*
X188283259Y-72677322D01*
X188271176Y-72799999D01*
X188271176Y-73700001D01*
X188283259Y-73822678D01*
X188319042Y-73940641D01*
X188377152Y-74049356D01*
X188455354Y-74144646D01*
X188550644Y-74222848D01*
X188659359Y-74280958D01*
X188777322Y-74316741D01*
X188899999Y-74328824D01*
X189550001Y-74328824D01*
X189589955Y-74324889D01*
X192234403Y-76969338D01*
X192250116Y-76988484D01*
X192326555Y-77051217D01*
X192373000Y-77076042D01*
X192373000Y-93373000D01*
X176975724Y-93373000D01*
X176975724Y-93341000D01*
X176968445Y-93267095D01*
X176946888Y-93196030D01*
X176911881Y-93130537D01*
X176864769Y-93073131D01*
X176807363Y-93026019D01*
X176741870Y-92991012D01*
X176670805Y-92969455D01*
X176596900Y-92962176D01*
X175403100Y-92962176D01*
X175329195Y-92969455D01*
X175258130Y-92991012D01*
X175192637Y-93026019D01*
X175135231Y-93073131D01*
X175088119Y-93130537D01*
X175053112Y-93196030D01*
X175031555Y-93267095D01*
X175024276Y-93341000D01*
X175024276Y-93373000D01*
X164402000Y-93373000D01*
X164402000Y-91400327D01*
X167948000Y-91400327D01*
X167948000Y-91599673D01*
X167986890Y-91795190D01*
X168063177Y-91979362D01*
X168173928Y-92145113D01*
X168314887Y-92286072D01*
X168480638Y-92396823D01*
X168664810Y-92473110D01*
X168860327Y-92512000D01*
X169059673Y-92512000D01*
X169255190Y-92473110D01*
X169439362Y-92396823D01*
X169605113Y-92286072D01*
X169746072Y-92145113D01*
X169856823Y-91979362D01*
X169933110Y-91795190D01*
X169972000Y-91599673D01*
X169972000Y-91400327D01*
X169933110Y-91204810D01*
X169856823Y-91020638D01*
X169746072Y-90854887D01*
X169605113Y-90713928D01*
X169439362Y-90603177D01*
X169255190Y-90526890D01*
X169059673Y-90488000D01*
X168860327Y-90488000D01*
X168664810Y-90526890D01*
X168480638Y-90603177D01*
X168314887Y-90713928D01*
X168173928Y-90854887D01*
X168063177Y-91020638D01*
X167986890Y-91204810D01*
X167948000Y-91400327D01*
X164402000Y-91400327D01*
X164402000Y-88500000D01*
X165607547Y-88500000D01*
X165629307Y-88720931D01*
X165693750Y-88933371D01*
X165798400Y-89129157D01*
X165939235Y-89300765D01*
X166110843Y-89441600D01*
X166306629Y-89546250D01*
X166519069Y-89610693D01*
X166684635Y-89627000D01*
X167315365Y-89627000D01*
X167480931Y-89610693D01*
X167693371Y-89546250D01*
X167889157Y-89441600D01*
X168060765Y-89300765D01*
X168201600Y-89129157D01*
X168306250Y-88933371D01*
X168370693Y-88720931D01*
X168392453Y-88500000D01*
X168370693Y-88279069D01*
X168306250Y-88066629D01*
X168201600Y-87870843D01*
X168060765Y-87699235D01*
X167889157Y-87558400D01*
X167693371Y-87453750D01*
X167480931Y-87389307D01*
X167315365Y-87373000D01*
X166684635Y-87373000D01*
X166519069Y-87389307D01*
X166306629Y-87453750D01*
X166110843Y-87558400D01*
X165939235Y-87699235D01*
X165798400Y-87870843D01*
X165693750Y-88066629D01*
X165629307Y-88279069D01*
X165607547Y-88500000D01*
X164402000Y-88500000D01*
X164402000Y-85500000D01*
X165607547Y-85500000D01*
X165629307Y-85720931D01*
X165693750Y-85933371D01*
X165798400Y-86129157D01*
X165939235Y-86300765D01*
X166110843Y-86441600D01*
X166306629Y-86546250D01*
X166519069Y-86610693D01*
X166684635Y-86627000D01*
X167315365Y-86627000D01*
X167480931Y-86610693D01*
X167693371Y-86546250D01*
X167889157Y-86441600D01*
X168060765Y-86300765D01*
X168201600Y-86129157D01*
X168306250Y-85933371D01*
X168370693Y-85720931D01*
X168392453Y-85500000D01*
X168370693Y-85279069D01*
X168306250Y-85066629D01*
X168201600Y-84870843D01*
X168060765Y-84699235D01*
X167889157Y-84558400D01*
X167693371Y-84453750D01*
X167480931Y-84389307D01*
X167315365Y-84373000D01*
X166684635Y-84373000D01*
X166519069Y-84389307D01*
X166306629Y-84453750D01*
X166110843Y-84558400D01*
X165939235Y-84699235D01*
X165798400Y-84870843D01*
X165693750Y-85066629D01*
X165629307Y-85279069D01*
X165607547Y-85500000D01*
X164402000Y-85500000D01*
X164402000Y-79000000D01*
X165611176Y-79000000D01*
X165611176Y-80000000D01*
X165623259Y-80122677D01*
X165659042Y-80240641D01*
X165717152Y-80349356D01*
X165795354Y-80444646D01*
X165890644Y-80522848D01*
X165999359Y-80580958D01*
X166117323Y-80616741D01*
X166240000Y-80628824D01*
X167760000Y-80628824D01*
X167882677Y-80616741D01*
X168000641Y-80580958D01*
X168109356Y-80522848D01*
X168204646Y-80444646D01*
X168282848Y-80349356D01*
X168340958Y-80240641D01*
X168376741Y-80122677D01*
X168388824Y-80000000D01*
X168388824Y-79000000D01*
X168376741Y-78877323D01*
X168340958Y-78759359D01*
X168282848Y-78650644D01*
X168204646Y-78555354D01*
X168109356Y-78477152D01*
X168000641Y-78419042D01*
X167882677Y-78383259D01*
X167760000Y-78371176D01*
X166240000Y-78371176D01*
X166117323Y-78383259D01*
X165999359Y-78419042D01*
X165890644Y-78477152D01*
X165795354Y-78555354D01*
X165717152Y-78650644D01*
X165659042Y-78759359D01*
X165623259Y-78877323D01*
X165611176Y-79000000D01*
X164402000Y-79000000D01*
X164402000Y-76400327D01*
X167948000Y-76400327D01*
X167948000Y-76599673D01*
X167986890Y-76795190D01*
X168063177Y-76979362D01*
X168173928Y-77145113D01*
X168314887Y-77286072D01*
X168480638Y-77396823D01*
X168664810Y-77473110D01*
X168860327Y-77512000D01*
X169059673Y-77512000D01*
X169255190Y-77473110D01*
X169439362Y-77396823D01*
X169605113Y-77286072D01*
X169746072Y-77145113D01*
X169856823Y-76979362D01*
X169914134Y-76841000D01*
X175024276Y-76841000D01*
X175024276Y-77882400D01*
X175031555Y-77956305D01*
X175053112Y-78027370D01*
X175088119Y-78092863D01*
X175135231Y-78150269D01*
X175192637Y-78197381D01*
X175258130Y-78232388D01*
X175329195Y-78253945D01*
X175403100Y-78261224D01*
X176596900Y-78261224D01*
X176670805Y-78253945D01*
X176741870Y-78232388D01*
X176807363Y-78197381D01*
X176864769Y-78150269D01*
X176911881Y-78092863D01*
X176946888Y-78027370D01*
X176968445Y-77956305D01*
X176975724Y-77882400D01*
X176975724Y-76841000D01*
X176968445Y-76767095D01*
X176946888Y-76696030D01*
X176911881Y-76630537D01*
X176864769Y-76573131D01*
X176807363Y-76526019D01*
X176741870Y-76491012D01*
X176670805Y-76469455D01*
X176596900Y-76462176D01*
X175403100Y-76462176D01*
X175329195Y-76469455D01*
X175258130Y-76491012D01*
X175192637Y-76526019D01*
X175135231Y-76573131D01*
X175088119Y-76630537D01*
X175053112Y-76696030D01*
X175031555Y-76767095D01*
X175024276Y-76841000D01*
X169914134Y-76841000D01*
X169933110Y-76795190D01*
X169972000Y-76599673D01*
X169972000Y-76400327D01*
X169933110Y-76204810D01*
X169856823Y-76020638D01*
X169746072Y-75854887D01*
X169605113Y-75713928D01*
X169439362Y-75603177D01*
X169255190Y-75526890D01*
X169059673Y-75488000D01*
X168860327Y-75488000D01*
X168664810Y-75526890D01*
X168480638Y-75603177D01*
X168314887Y-75713928D01*
X168173928Y-75854887D01*
X168063177Y-76020638D01*
X167986890Y-76204810D01*
X167948000Y-76400327D01*
X164402000Y-76400327D01*
X164402000Y-71019658D01*
X164422054Y-70815132D01*
X165123000Y-70815132D01*
X165123000Y-71184868D01*
X165195132Y-71547501D01*
X165336624Y-71889093D01*
X165542039Y-72196518D01*
X165803482Y-72457961D01*
X166110907Y-72663376D01*
X166452499Y-72804868D01*
X166815132Y-72877000D01*
X167184868Y-72877000D01*
X167547501Y-72804868D01*
X167889093Y-72663376D01*
X168196518Y-72457961D01*
X168457961Y-72196518D01*
X168663376Y-71889093D01*
X168689932Y-71824981D01*
X181223000Y-71824981D01*
X181223000Y-72175019D01*
X181291289Y-72518332D01*
X181425243Y-72841725D01*
X181619714Y-73132771D01*
X181867229Y-73380286D01*
X182158275Y-73574757D01*
X182481668Y-73708711D01*
X182824981Y-73777000D01*
X183175019Y-73777000D01*
X183518332Y-73708711D01*
X183841725Y-73574757D01*
X184132771Y-73380286D01*
X184380286Y-73132771D01*
X184574757Y-72841725D01*
X184708711Y-72518332D01*
X184777000Y-72175019D01*
X184777000Y-71824981D01*
X184708711Y-71481668D01*
X184574757Y-71158275D01*
X184380286Y-70867229D01*
X184132771Y-70619714D01*
X183841725Y-70425243D01*
X183518332Y-70291289D01*
X183175019Y-70223000D01*
X182824981Y-70223000D01*
X182481668Y-70291289D01*
X182158275Y-70425243D01*
X181867229Y-70619714D01*
X181619714Y-70867229D01*
X181425243Y-71158275D01*
X181291289Y-71481668D01*
X181223000Y-71824981D01*
X168689932Y-71824981D01*
X168804868Y-71547501D01*
X168877000Y-71184868D01*
X168877000Y-70815132D01*
X168804868Y-70452499D01*
X168663376Y-70110907D01*
X168457961Y-69803482D01*
X168196518Y-69542039D01*
X167889093Y-69336624D01*
X167547501Y-69195132D01*
X167184868Y-69123000D01*
X166815132Y-69123000D01*
X166452499Y-69195132D01*
X166110907Y-69336624D01*
X165803482Y-69542039D01*
X165542039Y-69803482D01*
X165336624Y-70110907D01*
X165195132Y-70452499D01*
X165123000Y-70815132D01*
X164422054Y-70815132D01*
X164453369Y-70495758D01*
X164599812Y-70010714D01*
X164837674Y-69563358D01*
X165157904Y-69170718D01*
X165548294Y-68847759D01*
X165993980Y-68606778D01*
X166477987Y-68456952D01*
X167000820Y-68402000D01*
X192373000Y-68402000D01*
X192373000Y-72748000D01*
G37*
X192373000Y-72748000D02*
X192223702Y-72748000D01*
X192216741Y-72677322D01*
X192180958Y-72559359D01*
X192122848Y-72450644D01*
X192044646Y-72355354D01*
X191949356Y-72277152D01*
X191840641Y-72219042D01*
X191722678Y-72183259D01*
X191600001Y-72171176D01*
X190949999Y-72171176D01*
X190827322Y-72183259D01*
X190709359Y-72219042D01*
X190600644Y-72277152D01*
X190505354Y-72355354D01*
X190427152Y-72450644D01*
X190369042Y-72559359D01*
X190333259Y-72677322D01*
X190321176Y-72799999D01*
X190321176Y-73636242D01*
X190178824Y-73493890D01*
X190178824Y-72799999D01*
X190166741Y-72677322D01*
X190130958Y-72559359D01*
X190072848Y-72450644D01*
X189994646Y-72355354D01*
X189899356Y-72277152D01*
X189790641Y-72219042D01*
X189672678Y-72183259D01*
X189550001Y-72171176D01*
X188899999Y-72171176D01*
X188777322Y-72183259D01*
X188659359Y-72219042D01*
X188550644Y-72277152D01*
X188455354Y-72355354D01*
X188377152Y-72450644D01*
X188319042Y-72559359D01*
X188283259Y-72677322D01*
X188271176Y-72799999D01*
X188271176Y-73700001D01*
X188283259Y-73822678D01*
X188319042Y-73940641D01*
X188377152Y-74049356D01*
X188455354Y-74144646D01*
X188550644Y-74222848D01*
X188659359Y-74280958D01*
X188777322Y-74316741D01*
X188899999Y-74328824D01*
X189550001Y-74328824D01*
X189589955Y-74324889D01*
X192234403Y-76969338D01*
X192250116Y-76988484D01*
X192326555Y-77051217D01*
X192373000Y-77076042D01*
X192373000Y-93373000D01*
X176975724Y-93373000D01*
X176975724Y-93341000D01*
X176968445Y-93267095D01*
X176946888Y-93196030D01*
X176911881Y-93130537D01*
X176864769Y-93073131D01*
X176807363Y-93026019D01*
X176741870Y-92991012D01*
X176670805Y-92969455D01*
X176596900Y-92962176D01*
X175403100Y-92962176D01*
X175329195Y-92969455D01*
X175258130Y-92991012D01*
X175192637Y-93026019D01*
X175135231Y-93073131D01*
X175088119Y-93130537D01*
X175053112Y-93196030D01*
X175031555Y-93267095D01*
X175024276Y-93341000D01*
X175024276Y-93373000D01*
X164402000Y-93373000D01*
X164402000Y-91400327D01*
X167948000Y-91400327D01*
X167948000Y-91599673D01*
X167986890Y-91795190D01*
X168063177Y-91979362D01*
X168173928Y-92145113D01*
X168314887Y-92286072D01*
X168480638Y-92396823D01*
X168664810Y-92473110D01*
X168860327Y-92512000D01*
X169059673Y-92512000D01*
X169255190Y-92473110D01*
X169439362Y-92396823D01*
X169605113Y-92286072D01*
X169746072Y-92145113D01*
X169856823Y-91979362D01*
X169933110Y-91795190D01*
X169972000Y-91599673D01*
X169972000Y-91400327D01*
X169933110Y-91204810D01*
X169856823Y-91020638D01*
X169746072Y-90854887D01*
X169605113Y-90713928D01*
X169439362Y-90603177D01*
X169255190Y-90526890D01*
X169059673Y-90488000D01*
X168860327Y-90488000D01*
X168664810Y-90526890D01*
X168480638Y-90603177D01*
X168314887Y-90713928D01*
X168173928Y-90854887D01*
X168063177Y-91020638D01*
X167986890Y-91204810D01*
X167948000Y-91400327D01*
X164402000Y-91400327D01*
X164402000Y-88500000D01*
X165607547Y-88500000D01*
X165629307Y-88720931D01*
X165693750Y-88933371D01*
X165798400Y-89129157D01*
X165939235Y-89300765D01*
X166110843Y-89441600D01*
X166306629Y-89546250D01*
X166519069Y-89610693D01*
X166684635Y-89627000D01*
X167315365Y-89627000D01*
X167480931Y-89610693D01*
X167693371Y-89546250D01*
X167889157Y-89441600D01*
X168060765Y-89300765D01*
X168201600Y-89129157D01*
X168306250Y-88933371D01*
X168370693Y-88720931D01*
X168392453Y-88500000D01*
X168370693Y-88279069D01*
X168306250Y-88066629D01*
X168201600Y-87870843D01*
X168060765Y-87699235D01*
X167889157Y-87558400D01*
X167693371Y-87453750D01*
X167480931Y-87389307D01*
X167315365Y-87373000D01*
X166684635Y-87373000D01*
X166519069Y-87389307D01*
X166306629Y-87453750D01*
X166110843Y-87558400D01*
X165939235Y-87699235D01*
X165798400Y-87870843D01*
X165693750Y-88066629D01*
X165629307Y-88279069D01*
X165607547Y-88500000D01*
X164402000Y-88500000D01*
X164402000Y-85500000D01*
X165607547Y-85500000D01*
X165629307Y-85720931D01*
X165693750Y-85933371D01*
X165798400Y-86129157D01*
X165939235Y-86300765D01*
X166110843Y-86441600D01*
X166306629Y-86546250D01*
X166519069Y-86610693D01*
X166684635Y-86627000D01*
X167315365Y-86627000D01*
X167480931Y-86610693D01*
X167693371Y-86546250D01*
X167889157Y-86441600D01*
X168060765Y-86300765D01*
X168201600Y-86129157D01*
X168306250Y-85933371D01*
X168370693Y-85720931D01*
X168392453Y-85500000D01*
X168370693Y-85279069D01*
X168306250Y-85066629D01*
X168201600Y-84870843D01*
X168060765Y-84699235D01*
X167889157Y-84558400D01*
X167693371Y-84453750D01*
X167480931Y-84389307D01*
X167315365Y-84373000D01*
X166684635Y-84373000D01*
X166519069Y-84389307D01*
X166306629Y-84453750D01*
X166110843Y-84558400D01*
X165939235Y-84699235D01*
X165798400Y-84870843D01*
X165693750Y-85066629D01*
X165629307Y-85279069D01*
X165607547Y-85500000D01*
X164402000Y-85500000D01*
X164402000Y-79000000D01*
X165611176Y-79000000D01*
X165611176Y-80000000D01*
X165623259Y-80122677D01*
X165659042Y-80240641D01*
X165717152Y-80349356D01*
X165795354Y-80444646D01*
X165890644Y-80522848D01*
X165999359Y-80580958D01*
X166117323Y-80616741D01*
X166240000Y-80628824D01*
X167760000Y-80628824D01*
X167882677Y-80616741D01*
X168000641Y-80580958D01*
X168109356Y-80522848D01*
X168204646Y-80444646D01*
X168282848Y-80349356D01*
X168340958Y-80240641D01*
X168376741Y-80122677D01*
X168388824Y-80000000D01*
X168388824Y-79000000D01*
X168376741Y-78877323D01*
X168340958Y-78759359D01*
X168282848Y-78650644D01*
X168204646Y-78555354D01*
X168109356Y-78477152D01*
X168000641Y-78419042D01*
X167882677Y-78383259D01*
X167760000Y-78371176D01*
X166240000Y-78371176D01*
X166117323Y-78383259D01*
X165999359Y-78419042D01*
X165890644Y-78477152D01*
X165795354Y-78555354D01*
X165717152Y-78650644D01*
X165659042Y-78759359D01*
X165623259Y-78877323D01*
X165611176Y-79000000D01*
X164402000Y-79000000D01*
X164402000Y-76400327D01*
X167948000Y-76400327D01*
X167948000Y-76599673D01*
X167986890Y-76795190D01*
X168063177Y-76979362D01*
X168173928Y-77145113D01*
X168314887Y-77286072D01*
X168480638Y-77396823D01*
X168664810Y-77473110D01*
X168860327Y-77512000D01*
X169059673Y-77512000D01*
X169255190Y-77473110D01*
X169439362Y-77396823D01*
X169605113Y-77286072D01*
X169746072Y-77145113D01*
X169856823Y-76979362D01*
X169914134Y-76841000D01*
X175024276Y-76841000D01*
X175024276Y-77882400D01*
X175031555Y-77956305D01*
X175053112Y-78027370D01*
X175088119Y-78092863D01*
X175135231Y-78150269D01*
X175192637Y-78197381D01*
X175258130Y-78232388D01*
X175329195Y-78253945D01*
X175403100Y-78261224D01*
X176596900Y-78261224D01*
X176670805Y-78253945D01*
X176741870Y-78232388D01*
X176807363Y-78197381D01*
X176864769Y-78150269D01*
X176911881Y-78092863D01*
X176946888Y-78027370D01*
X176968445Y-77956305D01*
X176975724Y-77882400D01*
X176975724Y-76841000D01*
X176968445Y-76767095D01*
X176946888Y-76696030D01*
X176911881Y-76630537D01*
X176864769Y-76573131D01*
X176807363Y-76526019D01*
X176741870Y-76491012D01*
X176670805Y-76469455D01*
X176596900Y-76462176D01*
X175403100Y-76462176D01*
X175329195Y-76469455D01*
X175258130Y-76491012D01*
X175192637Y-76526019D01*
X175135231Y-76573131D01*
X175088119Y-76630537D01*
X175053112Y-76696030D01*
X175031555Y-76767095D01*
X175024276Y-76841000D01*
X169914134Y-76841000D01*
X169933110Y-76795190D01*
X169972000Y-76599673D01*
X169972000Y-76400327D01*
X169933110Y-76204810D01*
X169856823Y-76020638D01*
X169746072Y-75854887D01*
X169605113Y-75713928D01*
X169439362Y-75603177D01*
X169255190Y-75526890D01*
X169059673Y-75488000D01*
X168860327Y-75488000D01*
X168664810Y-75526890D01*
X168480638Y-75603177D01*
X168314887Y-75713928D01*
X168173928Y-75854887D01*
X168063177Y-76020638D01*
X167986890Y-76204810D01*
X167948000Y-76400327D01*
X164402000Y-76400327D01*
X164402000Y-71019658D01*
X164422054Y-70815132D01*
X165123000Y-70815132D01*
X165123000Y-71184868D01*
X165195132Y-71547501D01*
X165336624Y-71889093D01*
X165542039Y-72196518D01*
X165803482Y-72457961D01*
X166110907Y-72663376D01*
X166452499Y-72804868D01*
X166815132Y-72877000D01*
X167184868Y-72877000D01*
X167547501Y-72804868D01*
X167889093Y-72663376D01*
X168196518Y-72457961D01*
X168457961Y-72196518D01*
X168663376Y-71889093D01*
X168689932Y-71824981D01*
X181223000Y-71824981D01*
X181223000Y-72175019D01*
X181291289Y-72518332D01*
X181425243Y-72841725D01*
X181619714Y-73132771D01*
X181867229Y-73380286D01*
X182158275Y-73574757D01*
X182481668Y-73708711D01*
X182824981Y-73777000D01*
X183175019Y-73777000D01*
X183518332Y-73708711D01*
X183841725Y-73574757D01*
X184132771Y-73380286D01*
X184380286Y-73132771D01*
X184574757Y-72841725D01*
X184708711Y-72518332D01*
X184777000Y-72175019D01*
X184777000Y-71824981D01*
X184708711Y-71481668D01*
X184574757Y-71158275D01*
X184380286Y-70867229D01*
X184132771Y-70619714D01*
X183841725Y-70425243D01*
X183518332Y-70291289D01*
X183175019Y-70223000D01*
X182824981Y-70223000D01*
X182481668Y-70291289D01*
X182158275Y-70425243D01*
X181867229Y-70619714D01*
X181619714Y-70867229D01*
X181425243Y-71158275D01*
X181291289Y-71481668D01*
X181223000Y-71824981D01*
X168689932Y-71824981D01*
X168804868Y-71547501D01*
X168877000Y-71184868D01*
X168877000Y-70815132D01*
X168804868Y-70452499D01*
X168663376Y-70110907D01*
X168457961Y-69803482D01*
X168196518Y-69542039D01*
X167889093Y-69336624D01*
X167547501Y-69195132D01*
X167184868Y-69123000D01*
X166815132Y-69123000D01*
X166452499Y-69195132D01*
X166110907Y-69336624D01*
X165803482Y-69542039D01*
X165542039Y-69803482D01*
X165336624Y-70110907D01*
X165195132Y-70452499D01*
X165123000Y-70815132D01*
X164422054Y-70815132D01*
X164453369Y-70495758D01*
X164599812Y-70010714D01*
X164837674Y-69563358D01*
X165157904Y-69170718D01*
X165548294Y-68847759D01*
X165993980Y-68606778D01*
X166477987Y-68456952D01*
X167000820Y-68402000D01*
X192373000Y-68402000D01*
X192373000Y-72748000D01*
G36*
X175024276Y-94382400D02*
G01*
X175031555Y-94456305D01*
X175053112Y-94527370D01*
X175088119Y-94592863D01*
X175135231Y-94650269D01*
X175192637Y-94697381D01*
X175258130Y-94732388D01*
X175329195Y-94753945D01*
X175403100Y-94761224D01*
X176596900Y-94761224D01*
X176670805Y-94753945D01*
X176741870Y-94732388D01*
X176807363Y-94697381D01*
X176864769Y-94650269D01*
X176911881Y-94592863D01*
X176946888Y-94527370D01*
X176968445Y-94456305D01*
X176975724Y-94382400D01*
X176975724Y-94127000D01*
X192373000Y-94127000D01*
X192373000Y-111373000D01*
X164402000Y-111373000D01*
X164402000Y-104900327D01*
X167948000Y-104900327D01*
X167948000Y-105099673D01*
X167986890Y-105295190D01*
X168063177Y-105479362D01*
X168173928Y-105645113D01*
X168314887Y-105786072D01*
X168480638Y-105896823D01*
X168664810Y-105973110D01*
X168860327Y-106012000D01*
X169059673Y-106012000D01*
X169255190Y-105973110D01*
X169439362Y-105896823D01*
X169605113Y-105786072D01*
X169746072Y-105645113D01*
X169856823Y-105479362D01*
X169933110Y-105295190D01*
X169972000Y-105099673D01*
X169972000Y-104900327D01*
X169933110Y-104704810D01*
X169856823Y-104520638D01*
X169746072Y-104354887D01*
X169605113Y-104213928D01*
X169439362Y-104103177D01*
X169255190Y-104026890D01*
X169059673Y-103988000D01*
X168860327Y-103988000D01*
X168664810Y-104026890D01*
X168480638Y-104103177D01*
X168314887Y-104213928D01*
X168173928Y-104354887D01*
X168063177Y-104520638D01*
X167986890Y-104704810D01*
X167948000Y-104900327D01*
X164402000Y-104900327D01*
X164402000Y-98500000D01*
X165611176Y-98500000D01*
X165611176Y-99500000D01*
X165623259Y-99622677D01*
X165659042Y-99740641D01*
X165717152Y-99849356D01*
X165795354Y-99944646D01*
X165890644Y-100022848D01*
X165999359Y-100080958D01*
X166117323Y-100116741D01*
X166240000Y-100128824D01*
X167760000Y-100128824D01*
X167882677Y-100116741D01*
X168000641Y-100080958D01*
X168109356Y-100022848D01*
X168204646Y-99944646D01*
X168282848Y-99849356D01*
X168340958Y-99740641D01*
X168376741Y-99622677D01*
X168388824Y-99500000D01*
X168388824Y-98500000D01*
X168376741Y-98377323D01*
X168340958Y-98259359D01*
X168282848Y-98150644D01*
X168204646Y-98055354D01*
X168109356Y-97977152D01*
X168000641Y-97919042D01*
X167882677Y-97883259D01*
X167760000Y-97871176D01*
X166240000Y-97871176D01*
X166117323Y-97883259D01*
X165999359Y-97919042D01*
X165890644Y-97977152D01*
X165795354Y-98055354D01*
X165717152Y-98150644D01*
X165659042Y-98259359D01*
X165623259Y-98377323D01*
X165611176Y-98500000D01*
X164402000Y-98500000D01*
X164402000Y-95900327D01*
X167948000Y-95900327D01*
X167948000Y-96099673D01*
X167986890Y-96295190D01*
X168063177Y-96479362D01*
X168173928Y-96645113D01*
X168314887Y-96786072D01*
X168480638Y-96896823D01*
X168664810Y-96973110D01*
X168860327Y-97012000D01*
X169059673Y-97012000D01*
X169255190Y-96973110D01*
X169439362Y-96896823D01*
X169605113Y-96786072D01*
X169746072Y-96645113D01*
X169856823Y-96479362D01*
X169933110Y-96295190D01*
X169972000Y-96099673D01*
X169972000Y-95900327D01*
X169933110Y-95704810D01*
X169856823Y-95520638D01*
X169746072Y-95354887D01*
X169605113Y-95213928D01*
X169439362Y-95103177D01*
X169255190Y-95026890D01*
X169059673Y-94988000D01*
X168860327Y-94988000D01*
X168664810Y-95026890D01*
X168480638Y-95103177D01*
X168314887Y-95213928D01*
X168173928Y-95354887D01*
X168063177Y-95520638D01*
X167986890Y-95704810D01*
X167948000Y-95900327D01*
X164402000Y-95900327D01*
X164402000Y-94127000D01*
X175024276Y-94127000D01*
X175024276Y-94382400D01*
G37*
X175024276Y-94382400D02*
X175031555Y-94456305D01*
X175053112Y-94527370D01*
X175088119Y-94592863D01*
X175135231Y-94650269D01*
X175192637Y-94697381D01*
X175258130Y-94732388D01*
X175329195Y-94753945D01*
X175403100Y-94761224D01*
X176596900Y-94761224D01*
X176670805Y-94753945D01*
X176741870Y-94732388D01*
X176807363Y-94697381D01*
X176864769Y-94650269D01*
X176911881Y-94592863D01*
X176946888Y-94527370D01*
X176968445Y-94456305D01*
X176975724Y-94382400D01*
X176975724Y-94127000D01*
X192373000Y-94127000D01*
X192373000Y-111373000D01*
X164402000Y-111373000D01*
X164402000Y-104900327D01*
X167948000Y-104900327D01*
X167948000Y-105099673D01*
X167986890Y-105295190D01*
X168063177Y-105479362D01*
X168173928Y-105645113D01*
X168314887Y-105786072D01*
X168480638Y-105896823D01*
X168664810Y-105973110D01*
X168860327Y-106012000D01*
X169059673Y-106012000D01*
X169255190Y-105973110D01*
X169439362Y-105896823D01*
X169605113Y-105786072D01*
X169746072Y-105645113D01*
X169856823Y-105479362D01*
X169933110Y-105295190D01*
X169972000Y-105099673D01*
X169972000Y-104900327D01*
X169933110Y-104704810D01*
X169856823Y-104520638D01*
X169746072Y-104354887D01*
X169605113Y-104213928D01*
X169439362Y-104103177D01*
X169255190Y-104026890D01*
X169059673Y-103988000D01*
X168860327Y-103988000D01*
X168664810Y-104026890D01*
X168480638Y-104103177D01*
X168314887Y-104213928D01*
X168173928Y-104354887D01*
X168063177Y-104520638D01*
X167986890Y-104704810D01*
X167948000Y-104900327D01*
X164402000Y-104900327D01*
X164402000Y-98500000D01*
X165611176Y-98500000D01*
X165611176Y-99500000D01*
X165623259Y-99622677D01*
X165659042Y-99740641D01*
X165717152Y-99849356D01*
X165795354Y-99944646D01*
X165890644Y-100022848D01*
X165999359Y-100080958D01*
X166117323Y-100116741D01*
X166240000Y-100128824D01*
X167760000Y-100128824D01*
X167882677Y-100116741D01*
X168000641Y-100080958D01*
X168109356Y-100022848D01*
X168204646Y-99944646D01*
X168282848Y-99849356D01*
X168340958Y-99740641D01*
X168376741Y-99622677D01*
X168388824Y-99500000D01*
X168388824Y-98500000D01*
X168376741Y-98377323D01*
X168340958Y-98259359D01*
X168282848Y-98150644D01*
X168204646Y-98055354D01*
X168109356Y-97977152D01*
X168000641Y-97919042D01*
X167882677Y-97883259D01*
X167760000Y-97871176D01*
X166240000Y-97871176D01*
X166117323Y-97883259D01*
X165999359Y-97919042D01*
X165890644Y-97977152D01*
X165795354Y-98055354D01*
X165717152Y-98150644D01*
X165659042Y-98259359D01*
X165623259Y-98377323D01*
X165611176Y-98500000D01*
X164402000Y-98500000D01*
X164402000Y-95900327D01*
X167948000Y-95900327D01*
X167948000Y-96099673D01*
X167986890Y-96295190D01*
X168063177Y-96479362D01*
X168173928Y-96645113D01*
X168314887Y-96786072D01*
X168480638Y-96896823D01*
X168664810Y-96973110D01*
X168860327Y-97012000D01*
X169059673Y-97012000D01*
X169255190Y-96973110D01*
X169439362Y-96896823D01*
X169605113Y-96786072D01*
X169746072Y-96645113D01*
X169856823Y-96479362D01*
X169933110Y-96295190D01*
X169972000Y-96099673D01*
X169972000Y-95900327D01*
X169933110Y-95704810D01*
X169856823Y-95520638D01*
X169746072Y-95354887D01*
X169605113Y-95213928D01*
X169439362Y-95103177D01*
X169255190Y-95026890D01*
X169059673Y-94988000D01*
X168860327Y-94988000D01*
X168664810Y-95026890D01*
X168480638Y-95103177D01*
X168314887Y-95213928D01*
X168173928Y-95354887D01*
X168063177Y-95520638D01*
X167986890Y-95704810D01*
X167948000Y-95900327D01*
X164402000Y-95900327D01*
X164402000Y-94127000D01*
X175024276Y-94127000D01*
X175024276Y-94382400D01*
G36*
X227504242Y-68453369D02*
G01*
X227989286Y-68599812D01*
X228436642Y-68837674D01*
X228829282Y-69157904D01*
X229152241Y-69548294D01*
X229393222Y-69993980D01*
X229543048Y-70477987D01*
X229598000Y-71000820D01*
X229598001Y-71001114D01*
X229598000Y-121873000D01*
X225967334Y-121873000D01*
X225987510Y-121824290D01*
X226026400Y-121628773D01*
X226026400Y-121429427D01*
X225987510Y-121233910D01*
X225911223Y-121049738D01*
X225800472Y-120883987D01*
X225659513Y-120743028D01*
X225493762Y-120632277D01*
X225309590Y-120555990D01*
X225114073Y-120517100D01*
X224914727Y-120517100D01*
X224719210Y-120555990D01*
X224535038Y-120632277D01*
X224369287Y-120743028D01*
X224228328Y-120883987D01*
X224117577Y-121049738D01*
X224041290Y-121233910D01*
X224002400Y-121429427D01*
X224002400Y-121628773D01*
X224041290Y-121824290D01*
X224061466Y-121873000D01*
X193127000Y-121873000D01*
X193127000Y-109196000D01*
X209899576Y-109196000D01*
X209899576Y-110196000D01*
X209906855Y-110269905D01*
X209928412Y-110340970D01*
X209963419Y-110406463D01*
X210010531Y-110463869D01*
X210067937Y-110510981D01*
X210133430Y-110545988D01*
X210204495Y-110567545D01*
X210278400Y-110574824D01*
X213028400Y-110574824D01*
X213102305Y-110567545D01*
X213173370Y-110545988D01*
X213238863Y-110510981D01*
X213296269Y-110463869D01*
X213343381Y-110406463D01*
X213378388Y-110340970D01*
X213399945Y-110269905D01*
X213407027Y-110198000D01*
X215649773Y-110198000D01*
X215656855Y-110269905D01*
X215678412Y-110340970D01*
X215713419Y-110406463D01*
X215760531Y-110463869D01*
X215817937Y-110510981D01*
X215883430Y-110545988D01*
X215954495Y-110567545D01*
X216028400Y-110574824D01*
X216901400Y-110574824D01*
X216901401Y-116219547D01*
X216898973Y-116244200D01*
X216908665Y-116342609D01*
X216937370Y-116437236D01*
X216983984Y-116524445D01*
X217031001Y-116581735D01*
X217031004Y-116581738D01*
X217046717Y-116600884D01*
X217065863Y-116616597D01*
X218279511Y-117830246D01*
X218275576Y-117870199D01*
X218275576Y-118520201D01*
X218287659Y-118642878D01*
X218323442Y-118760841D01*
X218381552Y-118869556D01*
X218459754Y-118964846D01*
X218555044Y-119043048D01*
X218663759Y-119101158D01*
X218781722Y-119136941D01*
X218904399Y-119149024D01*
X219804401Y-119149024D01*
X219927078Y-119136941D01*
X220045041Y-119101158D01*
X220153756Y-119043048D01*
X220168315Y-119031100D01*
X225585773Y-119031100D01*
X225597659Y-119151777D01*
X225633442Y-119269741D01*
X225691552Y-119378456D01*
X225769754Y-119473746D01*
X225865044Y-119551948D01*
X225973759Y-119610058D01*
X226091723Y-119645841D01*
X226214400Y-119657924D01*
X227734400Y-119657924D01*
X227857077Y-119645841D01*
X227975041Y-119610058D01*
X228083756Y-119551948D01*
X228179046Y-119473746D01*
X228257248Y-119378456D01*
X228315358Y-119269741D01*
X228351141Y-119151777D01*
X228363224Y-119029100D01*
X228363224Y-118029100D01*
X228351141Y-117906423D01*
X228315358Y-117788459D01*
X228257248Y-117679744D01*
X228179046Y-117584454D01*
X228083756Y-117506252D01*
X227975041Y-117448142D01*
X227857077Y-117412359D01*
X227734400Y-117400276D01*
X226214400Y-117400276D01*
X226091723Y-117412359D01*
X225973759Y-117448142D01*
X225865044Y-117506252D01*
X225769754Y-117584454D01*
X225691552Y-117679744D01*
X225633442Y-117788459D01*
X225597659Y-117906423D01*
X225585773Y-118027100D01*
X220433224Y-118027100D01*
X220433224Y-117870199D01*
X220421141Y-117747522D01*
X220385358Y-117629559D01*
X220327248Y-117520844D01*
X220249046Y-117425554D01*
X220153756Y-117347352D01*
X220045041Y-117289242D01*
X219927078Y-117253459D01*
X219804401Y-117241376D01*
X219110511Y-117241376D01*
X217905400Y-116036266D01*
X217905400Y-112429427D01*
X224002400Y-112429427D01*
X224002400Y-112628773D01*
X224041290Y-112824290D01*
X224117577Y-113008462D01*
X224228328Y-113174213D01*
X224369287Y-113315172D01*
X224535038Y-113425923D01*
X224719210Y-113502210D01*
X224914727Y-113541100D01*
X225114073Y-113541100D01*
X225309590Y-113502210D01*
X225493762Y-113425923D01*
X225659513Y-113315172D01*
X225800472Y-113174213D01*
X225911223Y-113008462D01*
X225987510Y-112824290D01*
X226026400Y-112628773D01*
X226026400Y-112429427D01*
X225987510Y-112233910D01*
X225911223Y-112049738D01*
X225800472Y-111883987D01*
X225659513Y-111743028D01*
X225493762Y-111632277D01*
X225309590Y-111555990D01*
X225114073Y-111517100D01*
X224914727Y-111517100D01*
X224719210Y-111555990D01*
X224535038Y-111632277D01*
X224369287Y-111743028D01*
X224228328Y-111883987D01*
X224117577Y-112049738D01*
X224041290Y-112233910D01*
X224002400Y-112429427D01*
X217905400Y-112429427D01*
X217905400Y-110574824D01*
X218778400Y-110574824D01*
X218852305Y-110567545D01*
X218923370Y-110545988D01*
X218988863Y-110510981D01*
X219046269Y-110463869D01*
X219093381Y-110406463D01*
X219128388Y-110340970D01*
X219149945Y-110269905D01*
X219157224Y-110196000D01*
X219157224Y-109196000D01*
X219149945Y-109122095D01*
X219128388Y-109051030D01*
X219093381Y-108985537D01*
X219046269Y-108928131D01*
X218988863Y-108881019D01*
X218923370Y-108846012D01*
X218852305Y-108824455D01*
X218778400Y-108817176D01*
X216028400Y-108817176D01*
X215954495Y-108824455D01*
X215883430Y-108846012D01*
X215817937Y-108881019D01*
X215760531Y-108928131D01*
X215713419Y-108985537D01*
X215678412Y-109051030D01*
X215656855Y-109122095D01*
X215649773Y-109194000D01*
X213407027Y-109194000D01*
X213399945Y-109122095D01*
X213378388Y-109051030D01*
X213343381Y-108985537D01*
X213296269Y-108928131D01*
X213238863Y-108881019D01*
X213173370Y-108846012D01*
X213102305Y-108824455D01*
X213028400Y-108817176D01*
X210278400Y-108817176D01*
X210204495Y-108824455D01*
X210133430Y-108846012D01*
X210067937Y-108881019D01*
X210010531Y-108928131D01*
X209963419Y-108985537D01*
X209928412Y-109051030D01*
X209906855Y-109122095D01*
X209899576Y-109196000D01*
X193127000Y-109196000D01*
X193127000Y-106486935D01*
X194477603Y-107837538D01*
X194493316Y-107856684D01*
X194569755Y-107919417D01*
X194656964Y-107966031D01*
X194751591Y-107994736D01*
X194825347Y-108002000D01*
X194825357Y-108002000D01*
X194850000Y-108004427D01*
X194874643Y-108002000D01*
X198026298Y-108002000D01*
X198033259Y-108072678D01*
X198069042Y-108190641D01*
X198127152Y-108299356D01*
X198205354Y-108394646D01*
X198300644Y-108472848D01*
X198409359Y-108530958D01*
X198527322Y-108566741D01*
X198649999Y-108578824D01*
X199300001Y-108578824D01*
X199422678Y-108566741D01*
X199540641Y-108530958D01*
X199649356Y-108472848D01*
X199744646Y-108394646D01*
X199822848Y-108299356D01*
X199880958Y-108190641D01*
X199916741Y-108072678D01*
X199928824Y-107950001D01*
X199928824Y-107049999D01*
X200071176Y-107049999D01*
X200071176Y-107950001D01*
X200083259Y-108072678D01*
X200119042Y-108190641D01*
X200177152Y-108299356D01*
X200255354Y-108394646D01*
X200350644Y-108472848D01*
X200459359Y-108530958D01*
X200577322Y-108566741D01*
X200699999Y-108578824D01*
X201350001Y-108578824D01*
X201472678Y-108566741D01*
X201590641Y-108530958D01*
X201699356Y-108472848D01*
X201794646Y-108394646D01*
X201872848Y-108299356D01*
X201930958Y-108190641D01*
X201966741Y-108072678D01*
X201973702Y-108002000D01*
X203526298Y-108002000D01*
X203533259Y-108072678D01*
X203569042Y-108190641D01*
X203627152Y-108299356D01*
X203705354Y-108394646D01*
X203800644Y-108472848D01*
X203909359Y-108530958D01*
X204027322Y-108566741D01*
X204149999Y-108578824D01*
X204800001Y-108578824D01*
X204922678Y-108566741D01*
X205040641Y-108530958D01*
X205149356Y-108472848D01*
X205244646Y-108394646D01*
X205322848Y-108299356D01*
X205380958Y-108190641D01*
X205416741Y-108072678D01*
X205428824Y-107950001D01*
X205428824Y-107319823D01*
X205429437Y-107313599D01*
X205428824Y-107307375D01*
X205428824Y-107049999D01*
X205571176Y-107049999D01*
X205571176Y-107950001D01*
X205583259Y-108072678D01*
X205619042Y-108190641D01*
X205677152Y-108299356D01*
X205755354Y-108394646D01*
X205850644Y-108472848D01*
X205959359Y-108530958D01*
X206077322Y-108566741D01*
X206199999Y-108578824D01*
X206850001Y-108578824D01*
X206972678Y-108566741D01*
X207090641Y-108530958D01*
X207199356Y-108472848D01*
X207294646Y-108394646D01*
X207372848Y-108299356D01*
X207430958Y-108190641D01*
X207466741Y-108072678D01*
X207478824Y-107950001D01*
X207478824Y-107256110D01*
X208536935Y-106198000D01*
X209899773Y-106198000D01*
X209906855Y-106269905D01*
X209928412Y-106340970D01*
X209963419Y-106406463D01*
X210010531Y-106463869D01*
X210067937Y-106510981D01*
X210133430Y-106545988D01*
X210204495Y-106567545D01*
X210278400Y-106574824D01*
X213028400Y-106574824D01*
X213102305Y-106567545D01*
X213173370Y-106545988D01*
X213238863Y-106510981D01*
X213296269Y-106463869D01*
X213343381Y-106406463D01*
X213378388Y-106340970D01*
X213399945Y-106269905D01*
X213407027Y-106198000D01*
X215649773Y-106198000D01*
X215656855Y-106269905D01*
X215678412Y-106340970D01*
X215713419Y-106406463D01*
X215760531Y-106463869D01*
X215817937Y-106510981D01*
X215883430Y-106545988D01*
X215954495Y-106567545D01*
X216028400Y-106574824D01*
X218778400Y-106574824D01*
X218852305Y-106567545D01*
X218923370Y-106545988D01*
X218988863Y-106510981D01*
X219046269Y-106463869D01*
X219093381Y-106406463D01*
X219128388Y-106340970D01*
X219149945Y-106269905D01*
X219157224Y-106196000D01*
X219157224Y-105196000D01*
X219149945Y-105122095D01*
X219128388Y-105051030D01*
X219093381Y-104985537D01*
X219046269Y-104928131D01*
X218988863Y-104881019D01*
X218923370Y-104846012D01*
X218852305Y-104824455D01*
X218778400Y-104817176D01*
X216028400Y-104817176D01*
X215954495Y-104824455D01*
X215883430Y-104846012D01*
X215817937Y-104881019D01*
X215760531Y-104928131D01*
X215713419Y-104985537D01*
X215678412Y-105051030D01*
X215656855Y-105122095D01*
X215649773Y-105194000D01*
X213407027Y-105194000D01*
X213399945Y-105122095D01*
X213378388Y-105051030D01*
X213343381Y-104985537D01*
X213296269Y-104928131D01*
X213238863Y-104881019D01*
X213173370Y-104846012D01*
X213102305Y-104824455D01*
X213028400Y-104817176D01*
X210278400Y-104817176D01*
X210204495Y-104824455D01*
X210133430Y-104846012D01*
X210067937Y-104881019D01*
X210010531Y-104928131D01*
X209963419Y-104985537D01*
X209928412Y-105051030D01*
X209906855Y-105122095D01*
X209899773Y-105194000D01*
X208353642Y-105194000D01*
X208328999Y-105191573D01*
X208304356Y-105194000D01*
X208304347Y-105194000D01*
X208230591Y-105201264D01*
X208135964Y-105229969D01*
X208048755Y-105276583D01*
X207972316Y-105339316D01*
X207956603Y-105358462D01*
X206889954Y-106425111D01*
X206850001Y-106421176D01*
X206199999Y-106421176D01*
X206077322Y-106433259D01*
X205959359Y-106469042D01*
X205850644Y-106527152D01*
X205755354Y-106605354D01*
X205677152Y-106700644D01*
X205619042Y-106809359D01*
X205583259Y-106927322D01*
X205571176Y-107049999D01*
X205428824Y-107049999D01*
X205416741Y-106927322D01*
X205380958Y-106809359D01*
X205322848Y-106700644D01*
X205244646Y-106605354D01*
X205149356Y-106527152D01*
X205040641Y-106469042D01*
X204922678Y-106433259D01*
X204800001Y-106421176D01*
X204149999Y-106421176D01*
X204027322Y-106433259D01*
X203909359Y-106469042D01*
X203800644Y-106527152D01*
X203705354Y-106605354D01*
X203627152Y-106700644D01*
X203569042Y-106809359D01*
X203533259Y-106927322D01*
X203526298Y-106998000D01*
X201973702Y-106998000D01*
X201966741Y-106927322D01*
X201930958Y-106809359D01*
X201872848Y-106700644D01*
X201794646Y-106605354D01*
X201699356Y-106527152D01*
X201590641Y-106469042D01*
X201472678Y-106433259D01*
X201350001Y-106421176D01*
X200699999Y-106421176D01*
X200577322Y-106433259D01*
X200459359Y-106469042D01*
X200350644Y-106527152D01*
X200255354Y-106605354D01*
X200177152Y-106700644D01*
X200119042Y-106809359D01*
X200083259Y-106927322D01*
X200071176Y-107049999D01*
X199928824Y-107049999D01*
X199916741Y-106927322D01*
X199880958Y-106809359D01*
X199822848Y-106700644D01*
X199744646Y-106605354D01*
X199649356Y-106527152D01*
X199540641Y-106469042D01*
X199422678Y-106433259D01*
X199300001Y-106421176D01*
X198649999Y-106421176D01*
X198527322Y-106433259D01*
X198409359Y-106469042D01*
X198300644Y-106527152D01*
X198205354Y-106605354D01*
X198127152Y-106700644D01*
X198069042Y-106809359D01*
X198033259Y-106927322D01*
X198026298Y-106998000D01*
X195057935Y-106998000D01*
X193127000Y-105067065D01*
X193127000Y-103758824D01*
X195250000Y-103758824D01*
X195323905Y-103751545D01*
X195394970Y-103729988D01*
X195460463Y-103694981D01*
X195517869Y-103647869D01*
X195564981Y-103590463D01*
X195599988Y-103524970D01*
X195621545Y-103453905D01*
X195628824Y-103380000D01*
X195628824Y-103282000D01*
X203521176Y-103282000D01*
X203521176Y-103450001D01*
X203533259Y-103572678D01*
X203569042Y-103690641D01*
X203627152Y-103799356D01*
X203705354Y-103894646D01*
X203800644Y-103972848D01*
X203909359Y-104030958D01*
X204027322Y-104066741D01*
X204149999Y-104078824D01*
X204800001Y-104078824D01*
X204922678Y-104066741D01*
X205040641Y-104030958D01*
X205149356Y-103972848D01*
X205244646Y-103894646D01*
X205322848Y-103799356D01*
X205380958Y-103690641D01*
X205416741Y-103572678D01*
X205428824Y-103450001D01*
X205428824Y-102549999D01*
X205416741Y-102427322D01*
X205380958Y-102309359D01*
X205322848Y-102200644D01*
X205244646Y-102105354D01*
X205149356Y-102027152D01*
X205040641Y-101969042D01*
X204922678Y-101933259D01*
X204800001Y-101921176D01*
X204149999Y-101921176D01*
X204027322Y-101933259D01*
X203909359Y-101969042D01*
X203800644Y-102027152D01*
X203705354Y-102105354D01*
X203627152Y-102200644D01*
X203585804Y-102278000D01*
X195628824Y-102278000D01*
X195628824Y-102180000D01*
X195621545Y-102106095D01*
X195599988Y-102035030D01*
X195564981Y-101969537D01*
X195517869Y-101912131D01*
X195460463Y-101865019D01*
X195394970Y-101830012D01*
X195323905Y-101808455D01*
X195250000Y-101801176D01*
X193127000Y-101801176D01*
X193127000Y-98324981D01*
X200723000Y-98324981D01*
X200723000Y-98675019D01*
X200791289Y-99018332D01*
X200925243Y-99341725D01*
X201119714Y-99632771D01*
X201367229Y-99880286D01*
X201658275Y-100074757D01*
X201981668Y-100208711D01*
X202324981Y-100277000D01*
X202675019Y-100277000D01*
X203018332Y-100208711D01*
X203341725Y-100074757D01*
X203424857Y-100019210D01*
X203426591Y-100019736D01*
X203500347Y-100027000D01*
X203500357Y-100027000D01*
X203525000Y-100029427D01*
X203549643Y-100027000D01*
X206101711Y-100027000D01*
X206058970Y-100106964D01*
X206030265Y-100201591D01*
X206020573Y-100300000D01*
X206023001Y-100324653D01*
X206023000Y-101949737D01*
X205959359Y-101969042D01*
X205850644Y-102027152D01*
X205755354Y-102105354D01*
X205677152Y-102200644D01*
X205619042Y-102309359D01*
X205583259Y-102427322D01*
X205571176Y-102549999D01*
X205571176Y-103450001D01*
X205583259Y-103572678D01*
X205619042Y-103690641D01*
X205677152Y-103799356D01*
X205755354Y-103894646D01*
X205850644Y-103972848D01*
X205959359Y-104030958D01*
X206077322Y-104066741D01*
X206199999Y-104078824D01*
X206850001Y-104078824D01*
X206972678Y-104066741D01*
X207090641Y-104030958D01*
X207199356Y-103972848D01*
X207294646Y-103894646D01*
X207372848Y-103799356D01*
X207430958Y-103690641D01*
X207466741Y-103572678D01*
X207478824Y-103450001D01*
X207478824Y-103116027D01*
X223951600Y-103116027D01*
X223951600Y-103315373D01*
X223990490Y-103510890D01*
X224066777Y-103695062D01*
X224177528Y-103860813D01*
X224318487Y-104001772D01*
X224484238Y-104112523D01*
X224668410Y-104188810D01*
X224863927Y-104227700D01*
X225063273Y-104227700D01*
X225258790Y-104188810D01*
X225442962Y-104112523D01*
X225608713Y-104001772D01*
X225749672Y-103860813D01*
X225860423Y-103695062D01*
X225936710Y-103510890D01*
X225975600Y-103315373D01*
X225975600Y-103116027D01*
X225936710Y-102920510D01*
X225860423Y-102736338D01*
X225749672Y-102570587D01*
X225608713Y-102429628D01*
X225442962Y-102318877D01*
X225258790Y-102242590D01*
X225063273Y-102203700D01*
X224863927Y-102203700D01*
X224668410Y-102242590D01*
X224484238Y-102318877D01*
X224318487Y-102429628D01*
X224177528Y-102570587D01*
X224066777Y-102736338D01*
X223990490Y-102920510D01*
X223951600Y-103116027D01*
X207478824Y-103116027D01*
X207478824Y-102549999D01*
X207466741Y-102427322D01*
X207430958Y-102309359D01*
X207372848Y-102200644D01*
X207294646Y-102105354D01*
X207199356Y-102027152D01*
X207090641Y-101969042D01*
X207027000Y-101949737D01*
X207027000Y-100507934D01*
X207179466Y-100355468D01*
X207200644Y-100372848D01*
X207309359Y-100430958D01*
X207427322Y-100466741D01*
X207549999Y-100478824D01*
X208450001Y-100478824D01*
X208572678Y-100466741D01*
X208690641Y-100430958D01*
X208799356Y-100372848D01*
X208894646Y-100294646D01*
X208972848Y-100199356D01*
X209030958Y-100090641D01*
X209066741Y-99972678D01*
X209078824Y-99850001D01*
X209078824Y-99765200D01*
X211767533Y-99765200D01*
X211785419Y-99798663D01*
X211832531Y-99856069D01*
X211889937Y-99903181D01*
X211955430Y-99938188D01*
X212026495Y-99959745D01*
X212100400Y-99967024D01*
X213320400Y-99967024D01*
X213394305Y-99959745D01*
X213465370Y-99938188D01*
X213530863Y-99903181D01*
X213588269Y-99856069D01*
X213635381Y-99798663D01*
X213670388Y-99733170D01*
X213691945Y-99662105D01*
X213699224Y-99588200D01*
X213699224Y-99291959D01*
X214341576Y-99934312D01*
X214341576Y-100538200D01*
X214348855Y-100612105D01*
X214370412Y-100683170D01*
X214405419Y-100748663D01*
X214452531Y-100806069D01*
X214509937Y-100853181D01*
X214575430Y-100888188D01*
X214646495Y-100909745D01*
X214720400Y-100917024D01*
X215940400Y-100917024D01*
X216014305Y-100909745D01*
X216085370Y-100888188D01*
X216150863Y-100853181D01*
X216208269Y-100806069D01*
X216255381Y-100748663D01*
X216273267Y-100715200D01*
X225534776Y-100715200D01*
X225534776Y-100715700D01*
X225546859Y-100838377D01*
X225582642Y-100956341D01*
X225640752Y-101065056D01*
X225718954Y-101160346D01*
X225814244Y-101238548D01*
X225922959Y-101296658D01*
X226040923Y-101332441D01*
X226163600Y-101344524D01*
X227683600Y-101344524D01*
X227806277Y-101332441D01*
X227924241Y-101296658D01*
X228032956Y-101238548D01*
X228128246Y-101160346D01*
X228206448Y-101065056D01*
X228264558Y-100956341D01*
X228300341Y-100838377D01*
X228312424Y-100715700D01*
X228312424Y-99715700D01*
X228300341Y-99593023D01*
X228264558Y-99475059D01*
X228206448Y-99366344D01*
X228128246Y-99271054D01*
X228032956Y-99192852D01*
X227924241Y-99134742D01*
X227806277Y-99098959D01*
X227683600Y-99086876D01*
X226163600Y-99086876D01*
X226040923Y-99098959D01*
X225922959Y-99134742D01*
X225814244Y-99192852D01*
X225718954Y-99271054D01*
X225640752Y-99366344D01*
X225582642Y-99475059D01*
X225546859Y-99593023D01*
X225535219Y-99711200D01*
X216273267Y-99711200D01*
X216255381Y-99677737D01*
X216208269Y-99620331D01*
X216150863Y-99573219D01*
X216085370Y-99538212D01*
X216014305Y-99516655D01*
X215940400Y-99509376D01*
X215336512Y-99509376D01*
X212955898Y-97128763D01*
X213013958Y-97020141D01*
X213049741Y-96902178D01*
X213061824Y-96779501D01*
X213061824Y-95879499D01*
X213049741Y-95756822D01*
X213013958Y-95638859D01*
X212955848Y-95530144D01*
X212877646Y-95434854D01*
X212782356Y-95356652D01*
X212673641Y-95298542D01*
X212555678Y-95262759D01*
X212433001Y-95250676D01*
X211834174Y-95250676D01*
X211878131Y-95168437D01*
X211906836Y-95073810D01*
X211907707Y-95064968D01*
X211914100Y-95000053D01*
X211914100Y-95000046D01*
X211916527Y-94975400D01*
X211914100Y-94950755D01*
X211914100Y-94242624D01*
X212787100Y-94242624D01*
X212861005Y-94235345D01*
X212932070Y-94213788D01*
X212997563Y-94178781D01*
X213054969Y-94131669D01*
X213102081Y-94074263D01*
X213137088Y-94008770D01*
X213158645Y-93937705D01*
X213165727Y-93865800D01*
X215408473Y-93865800D01*
X215415555Y-93937705D01*
X215437112Y-94008770D01*
X215472119Y-94074263D01*
X215519231Y-94131669D01*
X215576637Y-94178781D01*
X215642130Y-94213788D01*
X215713195Y-94235345D01*
X215787100Y-94242624D01*
X218537100Y-94242624D01*
X218611005Y-94235345D01*
X218682070Y-94213788D01*
X218747563Y-94178781D01*
X218804969Y-94131669D01*
X218817806Y-94116027D01*
X223951600Y-94116027D01*
X223951600Y-94315373D01*
X223990490Y-94510890D01*
X224066777Y-94695062D01*
X224177528Y-94860813D01*
X224318487Y-95001772D01*
X224484238Y-95112523D01*
X224668410Y-95188810D01*
X224863927Y-95227700D01*
X225063273Y-95227700D01*
X225258790Y-95188810D01*
X225442962Y-95112523D01*
X225608713Y-95001772D01*
X225749672Y-94860813D01*
X225860423Y-94695062D01*
X225936710Y-94510890D01*
X225975600Y-94315373D01*
X225975600Y-94116027D01*
X225936710Y-93920510D01*
X225860423Y-93736338D01*
X225749672Y-93570587D01*
X225608713Y-93429628D01*
X225442962Y-93318877D01*
X225258790Y-93242590D01*
X225063273Y-93203700D01*
X224863927Y-93203700D01*
X224668410Y-93242590D01*
X224484238Y-93318877D01*
X224318487Y-93429628D01*
X224177528Y-93570587D01*
X224066777Y-93736338D01*
X223990490Y-93920510D01*
X223951600Y-94116027D01*
X218817806Y-94116027D01*
X218852081Y-94074263D01*
X218887088Y-94008770D01*
X218908645Y-93937705D01*
X218915924Y-93863800D01*
X218915924Y-92863800D01*
X218908645Y-92789895D01*
X218887088Y-92718830D01*
X218852081Y-92653337D01*
X218804969Y-92595931D01*
X218747563Y-92548819D01*
X218682070Y-92513812D01*
X218611005Y-92492255D01*
X218537100Y-92484976D01*
X215787100Y-92484976D01*
X215713195Y-92492255D01*
X215642130Y-92513812D01*
X215576637Y-92548819D01*
X215519231Y-92595931D01*
X215472119Y-92653337D01*
X215437112Y-92718830D01*
X215415555Y-92789895D01*
X215408473Y-92861800D01*
X213165727Y-92861800D01*
X213158645Y-92789895D01*
X213137088Y-92718830D01*
X213102081Y-92653337D01*
X213054969Y-92595931D01*
X212997563Y-92548819D01*
X212932070Y-92513812D01*
X212861005Y-92492255D01*
X212787100Y-92484976D01*
X210037100Y-92484976D01*
X209963195Y-92492255D01*
X209892130Y-92513812D01*
X209826637Y-92548819D01*
X209769231Y-92595931D01*
X209722119Y-92653337D01*
X209687112Y-92718830D01*
X209665555Y-92789895D01*
X209658276Y-92863800D01*
X209658276Y-93863800D01*
X209665555Y-93937705D01*
X209687112Y-94008770D01*
X209722119Y-94074263D01*
X209769231Y-94131669D01*
X209826637Y-94178781D01*
X209892130Y-94213788D01*
X209963195Y-94235345D01*
X210037100Y-94242624D01*
X210910101Y-94242624D01*
X210910101Y-94767463D01*
X210422954Y-95254611D01*
X210383001Y-95250676D01*
X209732999Y-95250676D01*
X209610322Y-95262759D01*
X209492359Y-95298542D01*
X209383644Y-95356652D01*
X209288354Y-95434854D01*
X209210152Y-95530144D01*
X209152042Y-95638859D01*
X209116259Y-95756822D01*
X209109184Y-95828649D01*
X209055932Y-95833893D01*
X209047090Y-95834764D01*
X208952463Y-95863469D01*
X208865254Y-95910083D01*
X208807964Y-95957100D01*
X208807956Y-95957108D01*
X208788816Y-95972816D01*
X208773107Y-95991957D01*
X208243889Y-96521176D01*
X207549999Y-96521176D01*
X207427322Y-96533259D01*
X207309359Y-96569042D01*
X207200644Y-96627152D01*
X207105354Y-96705354D01*
X207027152Y-96800644D01*
X206969042Y-96909359D01*
X206933259Y-97027322D01*
X206921176Y-97149999D01*
X206921176Y-97800001D01*
X206933259Y-97922678D01*
X206969042Y-98040641D01*
X207027152Y-98149356D01*
X207105354Y-98244646D01*
X207200644Y-98322848D01*
X207309359Y-98380958D01*
X207427322Y-98416741D01*
X207549999Y-98428824D01*
X208450001Y-98428824D01*
X208572678Y-98416741D01*
X208690641Y-98380958D01*
X208799356Y-98322848D01*
X208894646Y-98244646D01*
X208972848Y-98149356D01*
X209030958Y-98040641D01*
X209066741Y-97922678D01*
X209078824Y-97800001D01*
X209078824Y-97149999D01*
X209074889Y-97110046D01*
X209156484Y-97028451D01*
X209210152Y-97128856D01*
X209288354Y-97224146D01*
X209383644Y-97302348D01*
X209492359Y-97360458D01*
X209610322Y-97396241D01*
X209732999Y-97408324D01*
X210383001Y-97408324D01*
X210505678Y-97396241D01*
X210623641Y-97360458D01*
X210732356Y-97302348D01*
X210827646Y-97224146D01*
X210905848Y-97128856D01*
X210963958Y-97020141D01*
X210999741Y-96902178D01*
X211011824Y-96779501D01*
X211011824Y-96085611D01*
X211154176Y-95943259D01*
X211154176Y-96779501D01*
X211166259Y-96902178D01*
X211202042Y-97020141D01*
X211260152Y-97128856D01*
X211338354Y-97224146D01*
X211433644Y-97302348D01*
X211542359Y-97360458D01*
X211660322Y-97396241D01*
X211782999Y-97408324D01*
X211815590Y-97408324D01*
X212966641Y-98559376D01*
X212100400Y-98559376D01*
X212026495Y-98566655D01*
X211955430Y-98588212D01*
X211889937Y-98623219D01*
X211832531Y-98670331D01*
X211785419Y-98727737D01*
X211767533Y-98761200D01*
X208899444Y-98761200D01*
X208894646Y-98755354D01*
X208799356Y-98677152D01*
X208690641Y-98619042D01*
X208572678Y-98583259D01*
X208450001Y-98571176D01*
X207549999Y-98571176D01*
X207427322Y-98583259D01*
X207309359Y-98619042D01*
X207200644Y-98677152D01*
X207105354Y-98755354D01*
X207027152Y-98850644D01*
X206969042Y-98959359D01*
X206949737Y-99023000D01*
X204206777Y-99023000D01*
X204208711Y-99018332D01*
X204277000Y-98675019D01*
X204277000Y-98324981D01*
X204208711Y-97981668D01*
X204074757Y-97658275D01*
X203880286Y-97367229D01*
X203632771Y-97119714D01*
X203341725Y-96925243D01*
X203018332Y-96791289D01*
X202675019Y-96723000D01*
X202324981Y-96723000D01*
X201981668Y-96791289D01*
X201658275Y-96925243D01*
X201367229Y-97119714D01*
X201119714Y-97367229D01*
X200925243Y-97658275D01*
X200791289Y-97981668D01*
X200723000Y-98324981D01*
X193127000Y-98324981D01*
X193127000Y-90061935D01*
X194402603Y-91337538D01*
X194418316Y-91356684D01*
X194437462Y-91372397D01*
X194437464Y-91372399D01*
X194446039Y-91379436D01*
X194494755Y-91419417D01*
X194581964Y-91466031D01*
X194676591Y-91494736D01*
X194750347Y-91502000D01*
X194750357Y-91502000D01*
X194775000Y-91504427D01*
X194799643Y-91502000D01*
X198026298Y-91502000D01*
X198033259Y-91572678D01*
X198069042Y-91690641D01*
X198127152Y-91799356D01*
X198205354Y-91894646D01*
X198300644Y-91972848D01*
X198409359Y-92030958D01*
X198527322Y-92066741D01*
X198649999Y-92078824D01*
X199300001Y-92078824D01*
X199422678Y-92066741D01*
X199540641Y-92030958D01*
X199649356Y-91972848D01*
X199744646Y-91894646D01*
X199822848Y-91799356D01*
X199880958Y-91690641D01*
X199916741Y-91572678D01*
X199928824Y-91450001D01*
X199928824Y-90549999D01*
X200071176Y-90549999D01*
X200071176Y-91450001D01*
X200083259Y-91572678D01*
X200119042Y-91690641D01*
X200177152Y-91799356D01*
X200255354Y-91894646D01*
X200350644Y-91972848D01*
X200459359Y-92030958D01*
X200577322Y-92066741D01*
X200699999Y-92078824D01*
X201350001Y-92078824D01*
X201472678Y-92066741D01*
X201590641Y-92030958D01*
X201699356Y-91972848D01*
X201794646Y-91894646D01*
X201872848Y-91799356D01*
X201930958Y-91690641D01*
X201966741Y-91572678D01*
X201973702Y-91502000D01*
X203526298Y-91502000D01*
X203533259Y-91572678D01*
X203569042Y-91690641D01*
X203627152Y-91799356D01*
X203705354Y-91894646D01*
X203800644Y-91972848D01*
X203909359Y-92030958D01*
X204027322Y-92066741D01*
X204149999Y-92078824D01*
X204800001Y-92078824D01*
X204922678Y-92066741D01*
X205040641Y-92030958D01*
X205149356Y-91972848D01*
X205244646Y-91894646D01*
X205322848Y-91799356D01*
X205380958Y-91690641D01*
X205416741Y-91572678D01*
X205428824Y-91450001D01*
X205428824Y-90819823D01*
X205429437Y-90813599D01*
X205428824Y-90807375D01*
X205428824Y-90549999D01*
X205571176Y-90549999D01*
X205571176Y-91450001D01*
X205583259Y-91572678D01*
X205619042Y-91690641D01*
X205677152Y-91799356D01*
X205755354Y-91894646D01*
X205850644Y-91972848D01*
X205959359Y-92030958D01*
X206077322Y-92066741D01*
X206199999Y-92078824D01*
X206850001Y-92078824D01*
X206972678Y-92066741D01*
X207090641Y-92030958D01*
X207199356Y-91972848D01*
X207294646Y-91894646D01*
X207372848Y-91799356D01*
X207430958Y-91690641D01*
X207466741Y-91572678D01*
X207478824Y-91450001D01*
X207478824Y-90756110D01*
X208369135Y-89865800D01*
X209658473Y-89865800D01*
X209665555Y-89937705D01*
X209687112Y-90008770D01*
X209722119Y-90074263D01*
X209769231Y-90131669D01*
X209826637Y-90178781D01*
X209892130Y-90213788D01*
X209963195Y-90235345D01*
X210037100Y-90242624D01*
X212787100Y-90242624D01*
X212861005Y-90235345D01*
X212932070Y-90213788D01*
X212997563Y-90178781D01*
X213054969Y-90131669D01*
X213102081Y-90074263D01*
X213137088Y-90008770D01*
X213158645Y-89937705D01*
X213165727Y-89865800D01*
X215408473Y-89865800D01*
X215415555Y-89937705D01*
X215437112Y-90008770D01*
X215472119Y-90074263D01*
X215519231Y-90131669D01*
X215576637Y-90178781D01*
X215642130Y-90213788D01*
X215713195Y-90235345D01*
X215787100Y-90242624D01*
X218537100Y-90242624D01*
X218611005Y-90235345D01*
X218682070Y-90213788D01*
X218747563Y-90178781D01*
X218804969Y-90131669D01*
X218852081Y-90074263D01*
X218887088Y-90008770D01*
X218908645Y-89937705D01*
X218915924Y-89863800D01*
X218915924Y-88863800D01*
X218908645Y-88789895D01*
X218887088Y-88718830D01*
X218852081Y-88653337D01*
X218804969Y-88595931D01*
X218747563Y-88548819D01*
X218682070Y-88513812D01*
X218611005Y-88492255D01*
X218537100Y-88484976D01*
X215787100Y-88484976D01*
X215713195Y-88492255D01*
X215642130Y-88513812D01*
X215576637Y-88548819D01*
X215519231Y-88595931D01*
X215472119Y-88653337D01*
X215437112Y-88718830D01*
X215415555Y-88789895D01*
X215408473Y-88861800D01*
X213165727Y-88861800D01*
X213158645Y-88789895D01*
X213137088Y-88718830D01*
X213102081Y-88653337D01*
X213054969Y-88595931D01*
X212997563Y-88548819D01*
X212932070Y-88513812D01*
X212861005Y-88492255D01*
X212787100Y-88484976D01*
X210037100Y-88484976D01*
X209963195Y-88492255D01*
X209892130Y-88513812D01*
X209826637Y-88548819D01*
X209769231Y-88595931D01*
X209722119Y-88653337D01*
X209687112Y-88718830D01*
X209665555Y-88789895D01*
X209658473Y-88861800D01*
X208185842Y-88861800D01*
X208161199Y-88859373D01*
X208136556Y-88861800D01*
X208136547Y-88861800D01*
X208062791Y-88869064D01*
X207968164Y-88897769D01*
X207880955Y-88944383D01*
X207804516Y-89007116D01*
X207788803Y-89026262D01*
X206889954Y-89925111D01*
X206850001Y-89921176D01*
X206199999Y-89921176D01*
X206077322Y-89933259D01*
X205959359Y-89969042D01*
X205850644Y-90027152D01*
X205755354Y-90105354D01*
X205677152Y-90200644D01*
X205619042Y-90309359D01*
X205583259Y-90427322D01*
X205571176Y-90549999D01*
X205428824Y-90549999D01*
X205416741Y-90427322D01*
X205380958Y-90309359D01*
X205322848Y-90200644D01*
X205244646Y-90105354D01*
X205149356Y-90027152D01*
X205040641Y-89969042D01*
X204922678Y-89933259D01*
X204800001Y-89921176D01*
X204149999Y-89921176D01*
X204027322Y-89933259D01*
X203909359Y-89969042D01*
X203800644Y-90027152D01*
X203705354Y-90105354D01*
X203627152Y-90200644D01*
X203569042Y-90309359D01*
X203533259Y-90427322D01*
X203526298Y-90498000D01*
X201973702Y-90498000D01*
X201966741Y-90427322D01*
X201930958Y-90309359D01*
X201872848Y-90200644D01*
X201794646Y-90105354D01*
X201699356Y-90027152D01*
X201590641Y-89969042D01*
X201472678Y-89933259D01*
X201350001Y-89921176D01*
X200699999Y-89921176D01*
X200577322Y-89933259D01*
X200459359Y-89969042D01*
X200350644Y-90027152D01*
X200255354Y-90105354D01*
X200177152Y-90200644D01*
X200119042Y-90309359D01*
X200083259Y-90427322D01*
X200071176Y-90549999D01*
X199928824Y-90549999D01*
X199916741Y-90427322D01*
X199880958Y-90309359D01*
X199822848Y-90200644D01*
X199744646Y-90105354D01*
X199649356Y-90027152D01*
X199540641Y-89969042D01*
X199422678Y-89933259D01*
X199300001Y-89921176D01*
X198649999Y-89921176D01*
X198527322Y-89933259D01*
X198409359Y-89969042D01*
X198300644Y-90027152D01*
X198205354Y-90105354D01*
X198127152Y-90200644D01*
X198069042Y-90309359D01*
X198033259Y-90427322D01*
X198026298Y-90498000D01*
X194982935Y-90498000D01*
X193127000Y-88642065D01*
X193127000Y-87258824D01*
X195175000Y-87258824D01*
X195248905Y-87251545D01*
X195319970Y-87229988D01*
X195385463Y-87194981D01*
X195442869Y-87147869D01*
X195489981Y-87090463D01*
X195524988Y-87024970D01*
X195546545Y-86953905D01*
X195553824Y-86880000D01*
X195553824Y-86782000D01*
X203521176Y-86782000D01*
X203521176Y-86950001D01*
X203533259Y-87072678D01*
X203569042Y-87190641D01*
X203627152Y-87299356D01*
X203705354Y-87394646D01*
X203800644Y-87472848D01*
X203909359Y-87530958D01*
X204027322Y-87566741D01*
X204149999Y-87578824D01*
X204800001Y-87578824D01*
X204922678Y-87566741D01*
X205040641Y-87530958D01*
X205149356Y-87472848D01*
X205244646Y-87394646D01*
X205322848Y-87299356D01*
X205380958Y-87190641D01*
X205416741Y-87072678D01*
X205428824Y-86950001D01*
X205428824Y-86049999D01*
X205416741Y-85927322D01*
X205380958Y-85809359D01*
X205322848Y-85700644D01*
X205244646Y-85605354D01*
X205149356Y-85527152D01*
X205040641Y-85469042D01*
X204922678Y-85433259D01*
X204800001Y-85421176D01*
X204149999Y-85421176D01*
X204027322Y-85433259D01*
X203909359Y-85469042D01*
X203800644Y-85527152D01*
X203705354Y-85605354D01*
X203627152Y-85700644D01*
X203585804Y-85778000D01*
X195553824Y-85778000D01*
X195553824Y-85680000D01*
X195546545Y-85606095D01*
X195524988Y-85535030D01*
X195489981Y-85469537D01*
X195442869Y-85412131D01*
X195385463Y-85365019D01*
X195319970Y-85330012D01*
X195248905Y-85308455D01*
X195175000Y-85301176D01*
X193127000Y-85301176D01*
X193127000Y-81824981D01*
X200723000Y-81824981D01*
X200723000Y-82175019D01*
X200791289Y-82518332D01*
X200925243Y-82841725D01*
X201119714Y-83132771D01*
X201367229Y-83380286D01*
X201658275Y-83574757D01*
X201981668Y-83708711D01*
X202324981Y-83777000D01*
X202675019Y-83777000D01*
X203018332Y-83708711D01*
X203341725Y-83574757D01*
X203424857Y-83519210D01*
X203426591Y-83519736D01*
X203500347Y-83527000D01*
X203500357Y-83527000D01*
X203525000Y-83529427D01*
X203549643Y-83527000D01*
X206101711Y-83527000D01*
X206058970Y-83606964D01*
X206030265Y-83701591D01*
X206020573Y-83800000D01*
X206023001Y-83824653D01*
X206023000Y-85449737D01*
X205959359Y-85469042D01*
X205850644Y-85527152D01*
X205755354Y-85605354D01*
X205677152Y-85700644D01*
X205619042Y-85809359D01*
X205583259Y-85927322D01*
X205571176Y-86049999D01*
X205571176Y-86950001D01*
X205583259Y-87072678D01*
X205619042Y-87190641D01*
X205677152Y-87299356D01*
X205755354Y-87394646D01*
X205850644Y-87472848D01*
X205959359Y-87530958D01*
X206077322Y-87566741D01*
X206199999Y-87578824D01*
X206850001Y-87578824D01*
X206972678Y-87566741D01*
X207090641Y-87530958D01*
X207199356Y-87472848D01*
X207294646Y-87394646D01*
X207372848Y-87299356D01*
X207430958Y-87190641D01*
X207466741Y-87072678D01*
X207478824Y-86950001D01*
X207478824Y-86618727D01*
X223977000Y-86618727D01*
X223977000Y-86818073D01*
X224015890Y-87013590D01*
X224092177Y-87197762D01*
X224202928Y-87363513D01*
X224343887Y-87504472D01*
X224509638Y-87615223D01*
X224693810Y-87691510D01*
X224889327Y-87730400D01*
X225088673Y-87730400D01*
X225284190Y-87691510D01*
X225468362Y-87615223D01*
X225634113Y-87504472D01*
X225775072Y-87363513D01*
X225885823Y-87197762D01*
X225962110Y-87013590D01*
X226001000Y-86818073D01*
X226001000Y-86618727D01*
X225962110Y-86423210D01*
X225885823Y-86239038D01*
X225775072Y-86073287D01*
X225634113Y-85932328D01*
X225468362Y-85821577D01*
X225284190Y-85745290D01*
X225088673Y-85706400D01*
X224889327Y-85706400D01*
X224693810Y-85745290D01*
X224509638Y-85821577D01*
X224343887Y-85932328D01*
X224202928Y-86073287D01*
X224092177Y-86239038D01*
X224015890Y-86423210D01*
X223977000Y-86618727D01*
X207478824Y-86618727D01*
X207478824Y-86049999D01*
X207466741Y-85927322D01*
X207430958Y-85809359D01*
X207372848Y-85700644D01*
X207294646Y-85605354D01*
X207199356Y-85527152D01*
X207090641Y-85469042D01*
X207027000Y-85449737D01*
X207027000Y-84007934D01*
X207179466Y-83855468D01*
X207200644Y-83872848D01*
X207309359Y-83930958D01*
X207427322Y-83966741D01*
X207549999Y-83978824D01*
X208450001Y-83978824D01*
X208572678Y-83966741D01*
X208690641Y-83930958D01*
X208799356Y-83872848D01*
X208894646Y-83794646D01*
X208972848Y-83699356D01*
X209030958Y-83590641D01*
X209050263Y-83527000D01*
X211694307Y-83527000D01*
X211757500Y-83533224D01*
X212977500Y-83533224D01*
X213051405Y-83525945D01*
X213122470Y-83504388D01*
X213187963Y-83469381D01*
X213245369Y-83422269D01*
X213292481Y-83364863D01*
X213327488Y-83299370D01*
X213349045Y-83228305D01*
X213356324Y-83154400D01*
X213356324Y-82858159D01*
X213998676Y-83500511D01*
X213998676Y-84104400D01*
X214005955Y-84178305D01*
X214027512Y-84249370D01*
X214062519Y-84314863D01*
X214109631Y-84372269D01*
X214167037Y-84419381D01*
X214232530Y-84454388D01*
X214303595Y-84475945D01*
X214377500Y-84483224D01*
X215597500Y-84483224D01*
X215671405Y-84475945D01*
X215742470Y-84454388D01*
X215807963Y-84419381D01*
X215865369Y-84372269D01*
X215912481Y-84314863D01*
X215930367Y-84281400D01*
X225566381Y-84281400D01*
X225572259Y-84341077D01*
X225608042Y-84459041D01*
X225666152Y-84567756D01*
X225744354Y-84663046D01*
X225839644Y-84741248D01*
X225948359Y-84799358D01*
X226066323Y-84835141D01*
X226189000Y-84847224D01*
X227709000Y-84847224D01*
X227831677Y-84835141D01*
X227949641Y-84799358D01*
X228058356Y-84741248D01*
X228153646Y-84663046D01*
X228231848Y-84567756D01*
X228289958Y-84459041D01*
X228325741Y-84341077D01*
X228337824Y-84218400D01*
X228337824Y-83218400D01*
X228325741Y-83095723D01*
X228289958Y-82977759D01*
X228231848Y-82869044D01*
X228153646Y-82773754D01*
X228058356Y-82695552D01*
X227949641Y-82637442D01*
X227831677Y-82601659D01*
X227709000Y-82589576D01*
X226501455Y-82589576D01*
X226453736Y-82564070D01*
X226359109Y-82535365D01*
X226260700Y-82525673D01*
X226162291Y-82535365D01*
X226067664Y-82564070D01*
X225980455Y-82610684D01*
X225946900Y-82638222D01*
X225839644Y-82695552D01*
X225744354Y-82773754D01*
X225666152Y-82869044D01*
X225608042Y-82977759D01*
X225572259Y-83095723D01*
X225560176Y-83218400D01*
X225560176Y-83277400D01*
X215930367Y-83277400D01*
X215912481Y-83243937D01*
X215865369Y-83186531D01*
X215807963Y-83139419D01*
X215742470Y-83104412D01*
X215671405Y-83082855D01*
X215597500Y-83075576D01*
X215364094Y-83075576D01*
X215344184Y-83051316D01*
X215267745Y-82988583D01*
X215180535Y-82941969D01*
X215085908Y-82913264D01*
X214987500Y-82903572D01*
X214889091Y-82913264D01*
X214844750Y-82926715D01*
X212575600Y-80657566D01*
X212575600Y-79955363D01*
X212639241Y-79936058D01*
X212747956Y-79877948D01*
X212843246Y-79799746D01*
X212921448Y-79704456D01*
X212979558Y-79595741D01*
X213015341Y-79477778D01*
X213027424Y-79355101D01*
X213027424Y-78455099D01*
X213015341Y-78332422D01*
X212979558Y-78214459D01*
X212921448Y-78105744D01*
X212843246Y-78010454D01*
X212747956Y-77932252D01*
X212639241Y-77874142D01*
X212521278Y-77838359D01*
X212398601Y-77826276D01*
X211748599Y-77826276D01*
X211625922Y-77838359D01*
X211507959Y-77874142D01*
X211399244Y-77932252D01*
X211303954Y-78010454D01*
X211225752Y-78105744D01*
X211167642Y-78214459D01*
X211131859Y-78332422D01*
X211119776Y-78455099D01*
X211119776Y-79355101D01*
X211131859Y-79477778D01*
X211167642Y-79595741D01*
X211225752Y-79704456D01*
X211303954Y-79799746D01*
X211399244Y-79877948D01*
X211507959Y-79936058D01*
X211571601Y-79955363D01*
X211571601Y-80840847D01*
X211569173Y-80865500D01*
X211578865Y-80963909D01*
X211607570Y-81058536D01*
X211654184Y-81145745D01*
X211701201Y-81203035D01*
X211701204Y-81203038D01*
X211716917Y-81222184D01*
X211736063Y-81237897D01*
X212623742Y-82125576D01*
X211757500Y-82125576D01*
X211683595Y-82132855D01*
X211612530Y-82154412D01*
X211547037Y-82189419D01*
X211489631Y-82236531D01*
X211442519Y-82293937D01*
X211407512Y-82359430D01*
X211385955Y-82430495D01*
X211378676Y-82504400D01*
X211378676Y-82523000D01*
X209050263Y-82523000D01*
X209030958Y-82459359D01*
X208972848Y-82350644D01*
X208894646Y-82255354D01*
X208799356Y-82177152D01*
X208690641Y-82119042D01*
X208572678Y-82083259D01*
X208450001Y-82071176D01*
X207549999Y-82071176D01*
X207427322Y-82083259D01*
X207309359Y-82119042D01*
X207200644Y-82177152D01*
X207105354Y-82255354D01*
X207027152Y-82350644D01*
X206969042Y-82459359D01*
X206949737Y-82523000D01*
X204206777Y-82523000D01*
X204208711Y-82518332D01*
X204277000Y-82175019D01*
X204277000Y-81824981D01*
X204208711Y-81481668D01*
X204074757Y-81158275D01*
X203880286Y-80867229D01*
X203632771Y-80619714D01*
X203341725Y-80425243D01*
X203018332Y-80291289D01*
X202675019Y-80223000D01*
X202324981Y-80223000D01*
X201981668Y-80291289D01*
X201658275Y-80425243D01*
X201367229Y-80619714D01*
X201119714Y-80867229D01*
X200925243Y-81158275D01*
X200791289Y-81481668D01*
X200723000Y-81824981D01*
X193127000Y-81824981D01*
X193127000Y-77133800D01*
X203448866Y-77133800D01*
X206925111Y-80610046D01*
X206921176Y-80649999D01*
X206921176Y-81300001D01*
X206933259Y-81422678D01*
X206969042Y-81540641D01*
X207027152Y-81649356D01*
X207105354Y-81744646D01*
X207200644Y-81822848D01*
X207309359Y-81880958D01*
X207427322Y-81916741D01*
X207549999Y-81928824D01*
X208450001Y-81928824D01*
X208572678Y-81916741D01*
X208690641Y-81880958D01*
X208799356Y-81822848D01*
X208894646Y-81744646D01*
X208972848Y-81649356D01*
X209030958Y-81540641D01*
X209066741Y-81422678D01*
X209078824Y-81300001D01*
X209078824Y-80649999D01*
X209070737Y-80567897D01*
X209658646Y-79979989D01*
X209698599Y-79983924D01*
X210348601Y-79983924D01*
X210471278Y-79971841D01*
X210589241Y-79936058D01*
X210697956Y-79877948D01*
X210793246Y-79799746D01*
X210871448Y-79704456D01*
X210929558Y-79595741D01*
X210965341Y-79477778D01*
X210977424Y-79355101D01*
X210977424Y-78455099D01*
X210965341Y-78332422D01*
X210929558Y-78214459D01*
X210871448Y-78105744D01*
X210793246Y-78010454D01*
X210697956Y-77932252D01*
X210589241Y-77874142D01*
X210471278Y-77838359D01*
X210348601Y-77826276D01*
X209698599Y-77826276D01*
X209575922Y-77838359D01*
X209457959Y-77874142D01*
X209349244Y-77932252D01*
X209253954Y-78010454D01*
X209175752Y-78105744D01*
X209117642Y-78214459D01*
X209081859Y-78332422D01*
X209069776Y-78455099D01*
X209069776Y-79148989D01*
X208197590Y-80021176D01*
X207756111Y-80021176D01*
X205353662Y-77618727D01*
X223977000Y-77618727D01*
X223977000Y-77818073D01*
X224015890Y-78013590D01*
X224092177Y-78197762D01*
X224202928Y-78363513D01*
X224343887Y-78504472D01*
X224509638Y-78615223D01*
X224693810Y-78691510D01*
X224889327Y-78730400D01*
X225088673Y-78730400D01*
X225284190Y-78691510D01*
X225468362Y-78615223D01*
X225634113Y-78504472D01*
X225775072Y-78363513D01*
X225885823Y-78197762D01*
X225962110Y-78013590D01*
X226001000Y-77818073D01*
X226001000Y-77618727D01*
X225962110Y-77423210D01*
X225885823Y-77239038D01*
X225775072Y-77073287D01*
X225634113Y-76932328D01*
X225468362Y-76821577D01*
X225284190Y-76745290D01*
X225088673Y-76706400D01*
X224889327Y-76706400D01*
X224693810Y-76745290D01*
X224509638Y-76821577D01*
X224343887Y-76932328D01*
X224202928Y-77073287D01*
X224092177Y-77239038D01*
X224015890Y-77423210D01*
X223977000Y-77618727D01*
X205353662Y-77618727D01*
X204029202Y-76294268D01*
X204013484Y-76275116D01*
X203937045Y-76212383D01*
X203849836Y-76165769D01*
X203755209Y-76137064D01*
X203681453Y-76129800D01*
X203681443Y-76129800D01*
X203656800Y-76127373D01*
X203632157Y-76129800D01*
X193127000Y-76129800D01*
X193127000Y-73752000D01*
X193276298Y-73752000D01*
X193283259Y-73822678D01*
X193319042Y-73940641D01*
X193377152Y-74049356D01*
X193455354Y-74144646D01*
X193550644Y-74222848D01*
X193659359Y-74280958D01*
X193777322Y-74316741D01*
X193899999Y-74328824D01*
X194550001Y-74328824D01*
X194672678Y-74316741D01*
X194790641Y-74280958D01*
X194899356Y-74222848D01*
X194994646Y-74144646D01*
X195072848Y-74049356D01*
X195130958Y-73940641D01*
X195166741Y-73822678D01*
X195178824Y-73700001D01*
X195178824Y-72799999D01*
X195321176Y-72799999D01*
X195321176Y-73700001D01*
X195333259Y-73822678D01*
X195369042Y-73940641D01*
X195427152Y-74049356D01*
X195505354Y-74144646D01*
X195600644Y-74222848D01*
X195709359Y-74280958D01*
X195827322Y-74316741D01*
X195949999Y-74328824D01*
X196600001Y-74328824D01*
X196722678Y-74316741D01*
X196840641Y-74280958D01*
X196949356Y-74222848D01*
X197044646Y-74144646D01*
X197122848Y-74049356D01*
X197180958Y-73940641D01*
X197216741Y-73822678D01*
X197223702Y-73752000D01*
X198088066Y-73752000D01*
X198245594Y-73909529D01*
X198206137Y-73930619D01*
X198148731Y-73977731D01*
X198101619Y-74035137D01*
X198066612Y-74100630D01*
X198045055Y-74171695D01*
X198037776Y-74245600D01*
X198037776Y-75245600D01*
X198045055Y-75319505D01*
X198066612Y-75390570D01*
X198101619Y-75456063D01*
X198148731Y-75513469D01*
X198206137Y-75560581D01*
X198271630Y-75595588D01*
X198342695Y-75617145D01*
X198416600Y-75624424D01*
X201166600Y-75624424D01*
X201240505Y-75617145D01*
X201311570Y-75595588D01*
X201377063Y-75560581D01*
X201434469Y-75513469D01*
X201481581Y-75456063D01*
X201516588Y-75390570D01*
X201538145Y-75319505D01*
X201545227Y-75247600D01*
X203787973Y-75247600D01*
X203795055Y-75319505D01*
X203816612Y-75390570D01*
X203851619Y-75456063D01*
X203898731Y-75513469D01*
X203956137Y-75560581D01*
X204021630Y-75595588D01*
X204092695Y-75617145D01*
X204166600Y-75624424D01*
X206916600Y-75624424D01*
X206990505Y-75617145D01*
X207061570Y-75595588D01*
X207127063Y-75560581D01*
X207184469Y-75513469D01*
X207231581Y-75456063D01*
X207266588Y-75390570D01*
X207288145Y-75319505D01*
X207295424Y-75245600D01*
X207295424Y-74245600D01*
X207288145Y-74171695D01*
X207266588Y-74100630D01*
X207231581Y-74035137D01*
X207184469Y-73977731D01*
X207127063Y-73930619D01*
X207061570Y-73895612D01*
X206990505Y-73874055D01*
X206916600Y-73866776D01*
X204166600Y-73866776D01*
X204092695Y-73874055D01*
X204021630Y-73895612D01*
X203956137Y-73930619D01*
X203898731Y-73977731D01*
X203851619Y-74035137D01*
X203816612Y-74100630D01*
X203795055Y-74171695D01*
X203787973Y-74243600D01*
X201545227Y-74243600D01*
X201538145Y-74171695D01*
X201516588Y-74100630D01*
X201481581Y-74035137D01*
X201434469Y-73977731D01*
X201377063Y-73930619D01*
X201311570Y-73895612D01*
X201240505Y-73874055D01*
X201166600Y-73866776D01*
X199622711Y-73866776D01*
X198668401Y-72912467D01*
X198652684Y-72893316D01*
X198576245Y-72830583D01*
X198489036Y-72783969D01*
X198394409Y-72755264D01*
X198320653Y-72748000D01*
X198320643Y-72748000D01*
X198296000Y-72745573D01*
X198271357Y-72748000D01*
X197223702Y-72748000D01*
X197216741Y-72677322D01*
X197180958Y-72559359D01*
X197122848Y-72450644D01*
X197044646Y-72355354D01*
X196949356Y-72277152D01*
X196840641Y-72219042D01*
X196722678Y-72183259D01*
X196600001Y-72171176D01*
X195949999Y-72171176D01*
X195827322Y-72183259D01*
X195709359Y-72219042D01*
X195600644Y-72277152D01*
X195505354Y-72355354D01*
X195427152Y-72450644D01*
X195369042Y-72559359D01*
X195333259Y-72677322D01*
X195321176Y-72799999D01*
X195178824Y-72799999D01*
X195166741Y-72677322D01*
X195130958Y-72559359D01*
X195072848Y-72450644D01*
X194994646Y-72355354D01*
X194899356Y-72277152D01*
X194790641Y-72219042D01*
X194672678Y-72183259D01*
X194550001Y-72171176D01*
X193899999Y-72171176D01*
X193777322Y-72183259D01*
X193659359Y-72219042D01*
X193550644Y-72277152D01*
X193455354Y-72355354D01*
X193377152Y-72450644D01*
X193319042Y-72559359D01*
X193283259Y-72677322D01*
X193276298Y-72748000D01*
X193127000Y-72748000D01*
X193127000Y-70815132D01*
X225123000Y-70815132D01*
X225123000Y-71184868D01*
X225195132Y-71547501D01*
X225336624Y-71889093D01*
X225542039Y-72196518D01*
X225803482Y-72457961D01*
X226110907Y-72663376D01*
X226452499Y-72804868D01*
X226815132Y-72877000D01*
X227184868Y-72877000D01*
X227547501Y-72804868D01*
X227889093Y-72663376D01*
X228196518Y-72457961D01*
X228457961Y-72196518D01*
X228663376Y-71889093D01*
X228804868Y-71547501D01*
X228877000Y-71184868D01*
X228877000Y-70815132D01*
X228804868Y-70452499D01*
X228663376Y-70110907D01*
X228457961Y-69803482D01*
X228196518Y-69542039D01*
X227889093Y-69336624D01*
X227547501Y-69195132D01*
X227184868Y-69123000D01*
X226815132Y-69123000D01*
X226452499Y-69195132D01*
X226110907Y-69336624D01*
X225803482Y-69542039D01*
X225542039Y-69803482D01*
X225336624Y-70110907D01*
X225195132Y-70452499D01*
X225123000Y-70815132D01*
X193127000Y-70815132D01*
X193127000Y-68402000D01*
X226980342Y-68402000D01*
X227504242Y-68453369D01*
G37*
X227504242Y-68453369D02*
X227989286Y-68599812D01*
X228436642Y-68837674D01*
X228829282Y-69157904D01*
X229152241Y-69548294D01*
X229393222Y-69993980D01*
X229543048Y-70477987D01*
X229598000Y-71000820D01*
X229598001Y-71001114D01*
X229598000Y-121873000D01*
X225967334Y-121873000D01*
X225987510Y-121824290D01*
X226026400Y-121628773D01*
X226026400Y-121429427D01*
X225987510Y-121233910D01*
X225911223Y-121049738D01*
X225800472Y-120883987D01*
X225659513Y-120743028D01*
X225493762Y-120632277D01*
X225309590Y-120555990D01*
X225114073Y-120517100D01*
X224914727Y-120517100D01*
X224719210Y-120555990D01*
X224535038Y-120632277D01*
X224369287Y-120743028D01*
X224228328Y-120883987D01*
X224117577Y-121049738D01*
X224041290Y-121233910D01*
X224002400Y-121429427D01*
X224002400Y-121628773D01*
X224041290Y-121824290D01*
X224061466Y-121873000D01*
X193127000Y-121873000D01*
X193127000Y-109196000D01*
X209899576Y-109196000D01*
X209899576Y-110196000D01*
X209906855Y-110269905D01*
X209928412Y-110340970D01*
X209963419Y-110406463D01*
X210010531Y-110463869D01*
X210067937Y-110510981D01*
X210133430Y-110545988D01*
X210204495Y-110567545D01*
X210278400Y-110574824D01*
X213028400Y-110574824D01*
X213102305Y-110567545D01*
X213173370Y-110545988D01*
X213238863Y-110510981D01*
X213296269Y-110463869D01*
X213343381Y-110406463D01*
X213378388Y-110340970D01*
X213399945Y-110269905D01*
X213407027Y-110198000D01*
X215649773Y-110198000D01*
X215656855Y-110269905D01*
X215678412Y-110340970D01*
X215713419Y-110406463D01*
X215760531Y-110463869D01*
X215817937Y-110510981D01*
X215883430Y-110545988D01*
X215954495Y-110567545D01*
X216028400Y-110574824D01*
X216901400Y-110574824D01*
X216901401Y-116219547D01*
X216898973Y-116244200D01*
X216908665Y-116342609D01*
X216937370Y-116437236D01*
X216983984Y-116524445D01*
X217031001Y-116581735D01*
X217031004Y-116581738D01*
X217046717Y-116600884D01*
X217065863Y-116616597D01*
X218279511Y-117830246D01*
X218275576Y-117870199D01*
X218275576Y-118520201D01*
X218287659Y-118642878D01*
X218323442Y-118760841D01*
X218381552Y-118869556D01*
X218459754Y-118964846D01*
X218555044Y-119043048D01*
X218663759Y-119101158D01*
X218781722Y-119136941D01*
X218904399Y-119149024D01*
X219804401Y-119149024D01*
X219927078Y-119136941D01*
X220045041Y-119101158D01*
X220153756Y-119043048D01*
X220168315Y-119031100D01*
X225585773Y-119031100D01*
X225597659Y-119151777D01*
X225633442Y-119269741D01*
X225691552Y-119378456D01*
X225769754Y-119473746D01*
X225865044Y-119551948D01*
X225973759Y-119610058D01*
X226091723Y-119645841D01*
X226214400Y-119657924D01*
X227734400Y-119657924D01*
X227857077Y-119645841D01*
X227975041Y-119610058D01*
X228083756Y-119551948D01*
X228179046Y-119473746D01*
X228257248Y-119378456D01*
X228315358Y-119269741D01*
X228351141Y-119151777D01*
X228363224Y-119029100D01*
X228363224Y-118029100D01*
X228351141Y-117906423D01*
X228315358Y-117788459D01*
X228257248Y-117679744D01*
X228179046Y-117584454D01*
X228083756Y-117506252D01*
X227975041Y-117448142D01*
X227857077Y-117412359D01*
X227734400Y-117400276D01*
X226214400Y-117400276D01*
X226091723Y-117412359D01*
X225973759Y-117448142D01*
X225865044Y-117506252D01*
X225769754Y-117584454D01*
X225691552Y-117679744D01*
X225633442Y-117788459D01*
X225597659Y-117906423D01*
X225585773Y-118027100D01*
X220433224Y-118027100D01*
X220433224Y-117870199D01*
X220421141Y-117747522D01*
X220385358Y-117629559D01*
X220327248Y-117520844D01*
X220249046Y-117425554D01*
X220153756Y-117347352D01*
X220045041Y-117289242D01*
X219927078Y-117253459D01*
X219804401Y-117241376D01*
X219110511Y-117241376D01*
X217905400Y-116036266D01*
X217905400Y-112429427D01*
X224002400Y-112429427D01*
X224002400Y-112628773D01*
X224041290Y-112824290D01*
X224117577Y-113008462D01*
X224228328Y-113174213D01*
X224369287Y-113315172D01*
X224535038Y-113425923D01*
X224719210Y-113502210D01*
X224914727Y-113541100D01*
X225114073Y-113541100D01*
X225309590Y-113502210D01*
X225493762Y-113425923D01*
X225659513Y-113315172D01*
X225800472Y-113174213D01*
X225911223Y-113008462D01*
X225987510Y-112824290D01*
X226026400Y-112628773D01*
X226026400Y-112429427D01*
X225987510Y-112233910D01*
X225911223Y-112049738D01*
X225800472Y-111883987D01*
X225659513Y-111743028D01*
X225493762Y-111632277D01*
X225309590Y-111555990D01*
X225114073Y-111517100D01*
X224914727Y-111517100D01*
X224719210Y-111555990D01*
X224535038Y-111632277D01*
X224369287Y-111743028D01*
X224228328Y-111883987D01*
X224117577Y-112049738D01*
X224041290Y-112233910D01*
X224002400Y-112429427D01*
X217905400Y-112429427D01*
X217905400Y-110574824D01*
X218778400Y-110574824D01*
X218852305Y-110567545D01*
X218923370Y-110545988D01*
X218988863Y-110510981D01*
X219046269Y-110463869D01*
X219093381Y-110406463D01*
X219128388Y-110340970D01*
X219149945Y-110269905D01*
X219157224Y-110196000D01*
X219157224Y-109196000D01*
X219149945Y-109122095D01*
X219128388Y-109051030D01*
X219093381Y-108985537D01*
X219046269Y-108928131D01*
X218988863Y-108881019D01*
X218923370Y-108846012D01*
X218852305Y-108824455D01*
X218778400Y-108817176D01*
X216028400Y-108817176D01*
X215954495Y-108824455D01*
X215883430Y-108846012D01*
X215817937Y-108881019D01*
X215760531Y-108928131D01*
X215713419Y-108985537D01*
X215678412Y-109051030D01*
X215656855Y-109122095D01*
X215649773Y-109194000D01*
X213407027Y-109194000D01*
X213399945Y-109122095D01*
X213378388Y-109051030D01*
X213343381Y-108985537D01*
X213296269Y-108928131D01*
X213238863Y-108881019D01*
X213173370Y-108846012D01*
X213102305Y-108824455D01*
X213028400Y-108817176D01*
X210278400Y-108817176D01*
X210204495Y-108824455D01*
X210133430Y-108846012D01*
X210067937Y-108881019D01*
X210010531Y-108928131D01*
X209963419Y-108985537D01*
X209928412Y-109051030D01*
X209906855Y-109122095D01*
X209899576Y-109196000D01*
X193127000Y-109196000D01*
X193127000Y-106486935D01*
X194477603Y-107837538D01*
X194493316Y-107856684D01*
X194569755Y-107919417D01*
X194656964Y-107966031D01*
X194751591Y-107994736D01*
X194825347Y-108002000D01*
X194825357Y-108002000D01*
X194850000Y-108004427D01*
X194874643Y-108002000D01*
X198026298Y-108002000D01*
X198033259Y-108072678D01*
X198069042Y-108190641D01*
X198127152Y-108299356D01*
X198205354Y-108394646D01*
X198300644Y-108472848D01*
X198409359Y-108530958D01*
X198527322Y-108566741D01*
X198649999Y-108578824D01*
X199300001Y-108578824D01*
X199422678Y-108566741D01*
X199540641Y-108530958D01*
X199649356Y-108472848D01*
X199744646Y-108394646D01*
X199822848Y-108299356D01*
X199880958Y-108190641D01*
X199916741Y-108072678D01*
X199928824Y-107950001D01*
X199928824Y-107049999D01*
X200071176Y-107049999D01*
X200071176Y-107950001D01*
X200083259Y-108072678D01*
X200119042Y-108190641D01*
X200177152Y-108299356D01*
X200255354Y-108394646D01*
X200350644Y-108472848D01*
X200459359Y-108530958D01*
X200577322Y-108566741D01*
X200699999Y-108578824D01*
X201350001Y-108578824D01*
X201472678Y-108566741D01*
X201590641Y-108530958D01*
X201699356Y-108472848D01*
X201794646Y-108394646D01*
X201872848Y-108299356D01*
X201930958Y-108190641D01*
X201966741Y-108072678D01*
X201973702Y-108002000D01*
X203526298Y-108002000D01*
X203533259Y-108072678D01*
X203569042Y-108190641D01*
X203627152Y-108299356D01*
X203705354Y-108394646D01*
X203800644Y-108472848D01*
X203909359Y-108530958D01*
X204027322Y-108566741D01*
X204149999Y-108578824D01*
X204800001Y-108578824D01*
X204922678Y-108566741D01*
X205040641Y-108530958D01*
X205149356Y-108472848D01*
X205244646Y-108394646D01*
X205322848Y-108299356D01*
X205380958Y-108190641D01*
X205416741Y-108072678D01*
X205428824Y-107950001D01*
X205428824Y-107319823D01*
X205429437Y-107313599D01*
X205428824Y-107307375D01*
X205428824Y-107049999D01*
X205571176Y-107049999D01*
X205571176Y-107950001D01*
X205583259Y-108072678D01*
X205619042Y-108190641D01*
X205677152Y-108299356D01*
X205755354Y-108394646D01*
X205850644Y-108472848D01*
X205959359Y-108530958D01*
X206077322Y-108566741D01*
X206199999Y-108578824D01*
X206850001Y-108578824D01*
X206972678Y-108566741D01*
X207090641Y-108530958D01*
X207199356Y-108472848D01*
X207294646Y-108394646D01*
X207372848Y-108299356D01*
X207430958Y-108190641D01*
X207466741Y-108072678D01*
X207478824Y-107950001D01*
X207478824Y-107256110D01*
X208536935Y-106198000D01*
X209899773Y-106198000D01*
X209906855Y-106269905D01*
X209928412Y-106340970D01*
X209963419Y-106406463D01*
X210010531Y-106463869D01*
X210067937Y-106510981D01*
X210133430Y-106545988D01*
X210204495Y-106567545D01*
X210278400Y-106574824D01*
X213028400Y-106574824D01*
X213102305Y-106567545D01*
X213173370Y-106545988D01*
X213238863Y-106510981D01*
X213296269Y-106463869D01*
X213343381Y-106406463D01*
X213378388Y-106340970D01*
X213399945Y-106269905D01*
X213407027Y-106198000D01*
X215649773Y-106198000D01*
X215656855Y-106269905D01*
X215678412Y-106340970D01*
X215713419Y-106406463D01*
X215760531Y-106463869D01*
X215817937Y-106510981D01*
X215883430Y-106545988D01*
X215954495Y-106567545D01*
X216028400Y-106574824D01*
X218778400Y-106574824D01*
X218852305Y-106567545D01*
X218923370Y-106545988D01*
X218988863Y-106510981D01*
X219046269Y-106463869D01*
X219093381Y-106406463D01*
X219128388Y-106340970D01*
X219149945Y-106269905D01*
X219157224Y-106196000D01*
X219157224Y-105196000D01*
X219149945Y-105122095D01*
X219128388Y-105051030D01*
X219093381Y-104985537D01*
X219046269Y-104928131D01*
X218988863Y-104881019D01*
X218923370Y-104846012D01*
X218852305Y-104824455D01*
X218778400Y-104817176D01*
X216028400Y-104817176D01*
X215954495Y-104824455D01*
X215883430Y-104846012D01*
X215817937Y-104881019D01*
X215760531Y-104928131D01*
X215713419Y-104985537D01*
X215678412Y-105051030D01*
X215656855Y-105122095D01*
X215649773Y-105194000D01*
X213407027Y-105194000D01*
X213399945Y-105122095D01*
X213378388Y-105051030D01*
X213343381Y-104985537D01*
X213296269Y-104928131D01*
X213238863Y-104881019D01*
X213173370Y-104846012D01*
X213102305Y-104824455D01*
X213028400Y-104817176D01*
X210278400Y-104817176D01*
X210204495Y-104824455D01*
X210133430Y-104846012D01*
X210067937Y-104881019D01*
X210010531Y-104928131D01*
X209963419Y-104985537D01*
X209928412Y-105051030D01*
X209906855Y-105122095D01*
X209899773Y-105194000D01*
X208353642Y-105194000D01*
X208328999Y-105191573D01*
X208304356Y-105194000D01*
X208304347Y-105194000D01*
X208230591Y-105201264D01*
X208135964Y-105229969D01*
X208048755Y-105276583D01*
X207972316Y-105339316D01*
X207956603Y-105358462D01*
X206889954Y-106425111D01*
X206850001Y-106421176D01*
X206199999Y-106421176D01*
X206077322Y-106433259D01*
X205959359Y-106469042D01*
X205850644Y-106527152D01*
X205755354Y-106605354D01*
X205677152Y-106700644D01*
X205619042Y-106809359D01*
X205583259Y-106927322D01*
X205571176Y-107049999D01*
X205428824Y-107049999D01*
X205416741Y-106927322D01*
X205380958Y-106809359D01*
X205322848Y-106700644D01*
X205244646Y-106605354D01*
X205149356Y-106527152D01*
X205040641Y-106469042D01*
X204922678Y-106433259D01*
X204800001Y-106421176D01*
X204149999Y-106421176D01*
X204027322Y-106433259D01*
X203909359Y-106469042D01*
X203800644Y-106527152D01*
X203705354Y-106605354D01*
X203627152Y-106700644D01*
X203569042Y-106809359D01*
X203533259Y-106927322D01*
X203526298Y-106998000D01*
X201973702Y-106998000D01*
X201966741Y-106927322D01*
X201930958Y-106809359D01*
X201872848Y-106700644D01*
X201794646Y-106605354D01*
X201699356Y-106527152D01*
X201590641Y-106469042D01*
X201472678Y-106433259D01*
X201350001Y-106421176D01*
X200699999Y-106421176D01*
X200577322Y-106433259D01*
X200459359Y-106469042D01*
X200350644Y-106527152D01*
X200255354Y-106605354D01*
X200177152Y-106700644D01*
X200119042Y-106809359D01*
X200083259Y-106927322D01*
X200071176Y-107049999D01*
X199928824Y-107049999D01*
X199916741Y-106927322D01*
X199880958Y-106809359D01*
X199822848Y-106700644D01*
X199744646Y-106605354D01*
X199649356Y-106527152D01*
X199540641Y-106469042D01*
X199422678Y-106433259D01*
X199300001Y-106421176D01*
X198649999Y-106421176D01*
X198527322Y-106433259D01*
X198409359Y-106469042D01*
X198300644Y-106527152D01*
X198205354Y-106605354D01*
X198127152Y-106700644D01*
X198069042Y-106809359D01*
X198033259Y-106927322D01*
X198026298Y-106998000D01*
X195057935Y-106998000D01*
X193127000Y-105067065D01*
X193127000Y-103758824D01*
X195250000Y-103758824D01*
X195323905Y-103751545D01*
X195394970Y-103729988D01*
X195460463Y-103694981D01*
X195517869Y-103647869D01*
X195564981Y-103590463D01*
X195599988Y-103524970D01*
X195621545Y-103453905D01*
X195628824Y-103380000D01*
X195628824Y-103282000D01*
X203521176Y-103282000D01*
X203521176Y-103450001D01*
X203533259Y-103572678D01*
X203569042Y-103690641D01*
X203627152Y-103799356D01*
X203705354Y-103894646D01*
X203800644Y-103972848D01*
X203909359Y-104030958D01*
X204027322Y-104066741D01*
X204149999Y-104078824D01*
X204800001Y-104078824D01*
X204922678Y-104066741D01*
X205040641Y-104030958D01*
X205149356Y-103972848D01*
X205244646Y-103894646D01*
X205322848Y-103799356D01*
X205380958Y-103690641D01*
X205416741Y-103572678D01*
X205428824Y-103450001D01*
X205428824Y-102549999D01*
X205416741Y-102427322D01*
X205380958Y-102309359D01*
X205322848Y-102200644D01*
X205244646Y-102105354D01*
X205149356Y-102027152D01*
X205040641Y-101969042D01*
X204922678Y-101933259D01*
X204800001Y-101921176D01*
X204149999Y-101921176D01*
X204027322Y-101933259D01*
X203909359Y-101969042D01*
X203800644Y-102027152D01*
X203705354Y-102105354D01*
X203627152Y-102200644D01*
X203585804Y-102278000D01*
X195628824Y-102278000D01*
X195628824Y-102180000D01*
X195621545Y-102106095D01*
X195599988Y-102035030D01*
X195564981Y-101969537D01*
X195517869Y-101912131D01*
X195460463Y-101865019D01*
X195394970Y-101830012D01*
X195323905Y-101808455D01*
X195250000Y-101801176D01*
X193127000Y-101801176D01*
X193127000Y-98324981D01*
X200723000Y-98324981D01*
X200723000Y-98675019D01*
X200791289Y-99018332D01*
X200925243Y-99341725D01*
X201119714Y-99632771D01*
X201367229Y-99880286D01*
X201658275Y-100074757D01*
X201981668Y-100208711D01*
X202324981Y-100277000D01*
X202675019Y-100277000D01*
X203018332Y-100208711D01*
X203341725Y-100074757D01*
X203424857Y-100019210D01*
X203426591Y-100019736D01*
X203500347Y-100027000D01*
X203500357Y-100027000D01*
X203525000Y-100029427D01*
X203549643Y-100027000D01*
X206101711Y-100027000D01*
X206058970Y-100106964D01*
X206030265Y-100201591D01*
X206020573Y-100300000D01*
X206023001Y-100324653D01*
X206023000Y-101949737D01*
X205959359Y-101969042D01*
X205850644Y-102027152D01*
X205755354Y-102105354D01*
X205677152Y-102200644D01*
X205619042Y-102309359D01*
X205583259Y-102427322D01*
X205571176Y-102549999D01*
X205571176Y-103450001D01*
X205583259Y-103572678D01*
X205619042Y-103690641D01*
X205677152Y-103799356D01*
X205755354Y-103894646D01*
X205850644Y-103972848D01*
X205959359Y-104030958D01*
X206077322Y-104066741D01*
X206199999Y-104078824D01*
X206850001Y-104078824D01*
X206972678Y-104066741D01*
X207090641Y-104030958D01*
X207199356Y-103972848D01*
X207294646Y-103894646D01*
X207372848Y-103799356D01*
X207430958Y-103690641D01*
X207466741Y-103572678D01*
X207478824Y-103450001D01*
X207478824Y-103116027D01*
X223951600Y-103116027D01*
X223951600Y-103315373D01*
X223990490Y-103510890D01*
X224066777Y-103695062D01*
X224177528Y-103860813D01*
X224318487Y-104001772D01*
X224484238Y-104112523D01*
X224668410Y-104188810D01*
X224863927Y-104227700D01*
X225063273Y-104227700D01*
X225258790Y-104188810D01*
X225442962Y-104112523D01*
X225608713Y-104001772D01*
X225749672Y-103860813D01*
X225860423Y-103695062D01*
X225936710Y-103510890D01*
X225975600Y-103315373D01*
X225975600Y-103116027D01*
X225936710Y-102920510D01*
X225860423Y-102736338D01*
X225749672Y-102570587D01*
X225608713Y-102429628D01*
X225442962Y-102318877D01*
X225258790Y-102242590D01*
X225063273Y-102203700D01*
X224863927Y-102203700D01*
X224668410Y-102242590D01*
X224484238Y-102318877D01*
X224318487Y-102429628D01*
X224177528Y-102570587D01*
X224066777Y-102736338D01*
X223990490Y-102920510D01*
X223951600Y-103116027D01*
X207478824Y-103116027D01*
X207478824Y-102549999D01*
X207466741Y-102427322D01*
X207430958Y-102309359D01*
X207372848Y-102200644D01*
X207294646Y-102105354D01*
X207199356Y-102027152D01*
X207090641Y-101969042D01*
X207027000Y-101949737D01*
X207027000Y-100507934D01*
X207179466Y-100355468D01*
X207200644Y-100372848D01*
X207309359Y-100430958D01*
X207427322Y-100466741D01*
X207549999Y-100478824D01*
X208450001Y-100478824D01*
X208572678Y-100466741D01*
X208690641Y-100430958D01*
X208799356Y-100372848D01*
X208894646Y-100294646D01*
X208972848Y-100199356D01*
X209030958Y-100090641D01*
X209066741Y-99972678D01*
X209078824Y-99850001D01*
X209078824Y-99765200D01*
X211767533Y-99765200D01*
X211785419Y-99798663D01*
X211832531Y-99856069D01*
X211889937Y-99903181D01*
X211955430Y-99938188D01*
X212026495Y-99959745D01*
X212100400Y-99967024D01*
X213320400Y-99967024D01*
X213394305Y-99959745D01*
X213465370Y-99938188D01*
X213530863Y-99903181D01*
X213588269Y-99856069D01*
X213635381Y-99798663D01*
X213670388Y-99733170D01*
X213691945Y-99662105D01*
X213699224Y-99588200D01*
X213699224Y-99291959D01*
X214341576Y-99934312D01*
X214341576Y-100538200D01*
X214348855Y-100612105D01*
X214370412Y-100683170D01*
X214405419Y-100748663D01*
X214452531Y-100806069D01*
X214509937Y-100853181D01*
X214575430Y-100888188D01*
X214646495Y-100909745D01*
X214720400Y-100917024D01*
X215940400Y-100917024D01*
X216014305Y-100909745D01*
X216085370Y-100888188D01*
X216150863Y-100853181D01*
X216208269Y-100806069D01*
X216255381Y-100748663D01*
X216273267Y-100715200D01*
X225534776Y-100715200D01*
X225534776Y-100715700D01*
X225546859Y-100838377D01*
X225582642Y-100956341D01*
X225640752Y-101065056D01*
X225718954Y-101160346D01*
X225814244Y-101238548D01*
X225922959Y-101296658D01*
X226040923Y-101332441D01*
X226163600Y-101344524D01*
X227683600Y-101344524D01*
X227806277Y-101332441D01*
X227924241Y-101296658D01*
X228032956Y-101238548D01*
X228128246Y-101160346D01*
X228206448Y-101065056D01*
X228264558Y-100956341D01*
X228300341Y-100838377D01*
X228312424Y-100715700D01*
X228312424Y-99715700D01*
X228300341Y-99593023D01*
X228264558Y-99475059D01*
X228206448Y-99366344D01*
X228128246Y-99271054D01*
X228032956Y-99192852D01*
X227924241Y-99134742D01*
X227806277Y-99098959D01*
X227683600Y-99086876D01*
X226163600Y-99086876D01*
X226040923Y-99098959D01*
X225922959Y-99134742D01*
X225814244Y-99192852D01*
X225718954Y-99271054D01*
X225640752Y-99366344D01*
X225582642Y-99475059D01*
X225546859Y-99593023D01*
X225535219Y-99711200D01*
X216273267Y-99711200D01*
X216255381Y-99677737D01*
X216208269Y-99620331D01*
X216150863Y-99573219D01*
X216085370Y-99538212D01*
X216014305Y-99516655D01*
X215940400Y-99509376D01*
X215336512Y-99509376D01*
X212955898Y-97128763D01*
X213013958Y-97020141D01*
X213049741Y-96902178D01*
X213061824Y-96779501D01*
X213061824Y-95879499D01*
X213049741Y-95756822D01*
X213013958Y-95638859D01*
X212955848Y-95530144D01*
X212877646Y-95434854D01*
X212782356Y-95356652D01*
X212673641Y-95298542D01*
X212555678Y-95262759D01*
X212433001Y-95250676D01*
X211834174Y-95250676D01*
X211878131Y-95168437D01*
X211906836Y-95073810D01*
X211907707Y-95064968D01*
X211914100Y-95000053D01*
X211914100Y-95000046D01*
X211916527Y-94975400D01*
X211914100Y-94950755D01*
X211914100Y-94242624D01*
X212787100Y-94242624D01*
X212861005Y-94235345D01*
X212932070Y-94213788D01*
X212997563Y-94178781D01*
X213054969Y-94131669D01*
X213102081Y-94074263D01*
X213137088Y-94008770D01*
X213158645Y-93937705D01*
X213165727Y-93865800D01*
X215408473Y-93865800D01*
X215415555Y-93937705D01*
X215437112Y-94008770D01*
X215472119Y-94074263D01*
X215519231Y-94131669D01*
X215576637Y-94178781D01*
X215642130Y-94213788D01*
X215713195Y-94235345D01*
X215787100Y-94242624D01*
X218537100Y-94242624D01*
X218611005Y-94235345D01*
X218682070Y-94213788D01*
X218747563Y-94178781D01*
X218804969Y-94131669D01*
X218817806Y-94116027D01*
X223951600Y-94116027D01*
X223951600Y-94315373D01*
X223990490Y-94510890D01*
X224066777Y-94695062D01*
X224177528Y-94860813D01*
X224318487Y-95001772D01*
X224484238Y-95112523D01*
X224668410Y-95188810D01*
X224863927Y-95227700D01*
X225063273Y-95227700D01*
X225258790Y-95188810D01*
X225442962Y-95112523D01*
X225608713Y-95001772D01*
X225749672Y-94860813D01*
X225860423Y-94695062D01*
X225936710Y-94510890D01*
X225975600Y-94315373D01*
X225975600Y-94116027D01*
X225936710Y-93920510D01*
X225860423Y-93736338D01*
X225749672Y-93570587D01*
X225608713Y-93429628D01*
X225442962Y-93318877D01*
X225258790Y-93242590D01*
X225063273Y-93203700D01*
X224863927Y-93203700D01*
X224668410Y-93242590D01*
X224484238Y-93318877D01*
X224318487Y-93429628D01*
X224177528Y-93570587D01*
X224066777Y-93736338D01*
X223990490Y-93920510D01*
X223951600Y-94116027D01*
X218817806Y-94116027D01*
X218852081Y-94074263D01*
X218887088Y-94008770D01*
X218908645Y-93937705D01*
X218915924Y-93863800D01*
X218915924Y-92863800D01*
X218908645Y-92789895D01*
X218887088Y-92718830D01*
X218852081Y-92653337D01*
X218804969Y-92595931D01*
X218747563Y-92548819D01*
X218682070Y-92513812D01*
X218611005Y-92492255D01*
X218537100Y-92484976D01*
X215787100Y-92484976D01*
X215713195Y-92492255D01*
X215642130Y-92513812D01*
X215576637Y-92548819D01*
X215519231Y-92595931D01*
X215472119Y-92653337D01*
X215437112Y-92718830D01*
X215415555Y-92789895D01*
X215408473Y-92861800D01*
X213165727Y-92861800D01*
X213158645Y-92789895D01*
X213137088Y-92718830D01*
X213102081Y-92653337D01*
X213054969Y-92595931D01*
X212997563Y-92548819D01*
X212932070Y-92513812D01*
X212861005Y-92492255D01*
X212787100Y-92484976D01*
X210037100Y-92484976D01*
X209963195Y-92492255D01*
X209892130Y-92513812D01*
X209826637Y-92548819D01*
X209769231Y-92595931D01*
X209722119Y-92653337D01*
X209687112Y-92718830D01*
X209665555Y-92789895D01*
X209658276Y-92863800D01*
X209658276Y-93863800D01*
X209665555Y-93937705D01*
X209687112Y-94008770D01*
X209722119Y-94074263D01*
X209769231Y-94131669D01*
X209826637Y-94178781D01*
X209892130Y-94213788D01*
X209963195Y-94235345D01*
X210037100Y-94242624D01*
X210910101Y-94242624D01*
X210910101Y-94767463D01*
X210422954Y-95254611D01*
X210383001Y-95250676D01*
X209732999Y-95250676D01*
X209610322Y-95262759D01*
X209492359Y-95298542D01*
X209383644Y-95356652D01*
X209288354Y-95434854D01*
X209210152Y-95530144D01*
X209152042Y-95638859D01*
X209116259Y-95756822D01*
X209109184Y-95828649D01*
X209055932Y-95833893D01*
X209047090Y-95834764D01*
X208952463Y-95863469D01*
X208865254Y-95910083D01*
X208807964Y-95957100D01*
X208807956Y-95957108D01*
X208788816Y-95972816D01*
X208773107Y-95991957D01*
X208243889Y-96521176D01*
X207549999Y-96521176D01*
X207427322Y-96533259D01*
X207309359Y-96569042D01*
X207200644Y-96627152D01*
X207105354Y-96705354D01*
X207027152Y-96800644D01*
X206969042Y-96909359D01*
X206933259Y-97027322D01*
X206921176Y-97149999D01*
X206921176Y-97800001D01*
X206933259Y-97922678D01*
X206969042Y-98040641D01*
X207027152Y-98149356D01*
X207105354Y-98244646D01*
X207200644Y-98322848D01*
X207309359Y-98380958D01*
X207427322Y-98416741D01*
X207549999Y-98428824D01*
X208450001Y-98428824D01*
X208572678Y-98416741D01*
X208690641Y-98380958D01*
X208799356Y-98322848D01*
X208894646Y-98244646D01*
X208972848Y-98149356D01*
X209030958Y-98040641D01*
X209066741Y-97922678D01*
X209078824Y-97800001D01*
X209078824Y-97149999D01*
X209074889Y-97110046D01*
X209156484Y-97028451D01*
X209210152Y-97128856D01*
X209288354Y-97224146D01*
X209383644Y-97302348D01*
X209492359Y-97360458D01*
X209610322Y-97396241D01*
X209732999Y-97408324D01*
X210383001Y-97408324D01*
X210505678Y-97396241D01*
X210623641Y-97360458D01*
X210732356Y-97302348D01*
X210827646Y-97224146D01*
X210905848Y-97128856D01*
X210963958Y-97020141D01*
X210999741Y-96902178D01*
X211011824Y-96779501D01*
X211011824Y-96085611D01*
X211154176Y-95943259D01*
X211154176Y-96779501D01*
X211166259Y-96902178D01*
X211202042Y-97020141D01*
X211260152Y-97128856D01*
X211338354Y-97224146D01*
X211433644Y-97302348D01*
X211542359Y-97360458D01*
X211660322Y-97396241D01*
X211782999Y-97408324D01*
X211815590Y-97408324D01*
X212966641Y-98559376D01*
X212100400Y-98559376D01*
X212026495Y-98566655D01*
X211955430Y-98588212D01*
X211889937Y-98623219D01*
X211832531Y-98670331D01*
X211785419Y-98727737D01*
X211767533Y-98761200D01*
X208899444Y-98761200D01*
X208894646Y-98755354D01*
X208799356Y-98677152D01*
X208690641Y-98619042D01*
X208572678Y-98583259D01*
X208450001Y-98571176D01*
X207549999Y-98571176D01*
X207427322Y-98583259D01*
X207309359Y-98619042D01*
X207200644Y-98677152D01*
X207105354Y-98755354D01*
X207027152Y-98850644D01*
X206969042Y-98959359D01*
X206949737Y-99023000D01*
X204206777Y-99023000D01*
X204208711Y-99018332D01*
X204277000Y-98675019D01*
X204277000Y-98324981D01*
X204208711Y-97981668D01*
X204074757Y-97658275D01*
X203880286Y-97367229D01*
X203632771Y-97119714D01*
X203341725Y-96925243D01*
X203018332Y-96791289D01*
X202675019Y-96723000D01*
X202324981Y-96723000D01*
X201981668Y-96791289D01*
X201658275Y-96925243D01*
X201367229Y-97119714D01*
X201119714Y-97367229D01*
X200925243Y-97658275D01*
X200791289Y-97981668D01*
X200723000Y-98324981D01*
X193127000Y-98324981D01*
X193127000Y-90061935D01*
X194402603Y-91337538D01*
X194418316Y-91356684D01*
X194437462Y-91372397D01*
X194437464Y-91372399D01*
X194446039Y-91379436D01*
X194494755Y-91419417D01*
X194581964Y-91466031D01*
X194676591Y-91494736D01*
X194750347Y-91502000D01*
X194750357Y-91502000D01*
X194775000Y-91504427D01*
X194799643Y-91502000D01*
X198026298Y-91502000D01*
X198033259Y-91572678D01*
X198069042Y-91690641D01*
X198127152Y-91799356D01*
X198205354Y-91894646D01*
X198300644Y-91972848D01*
X198409359Y-92030958D01*
X198527322Y-92066741D01*
X198649999Y-92078824D01*
X199300001Y-92078824D01*
X199422678Y-92066741D01*
X199540641Y-92030958D01*
X199649356Y-91972848D01*
X199744646Y-91894646D01*
X199822848Y-91799356D01*
X199880958Y-91690641D01*
X199916741Y-91572678D01*
X199928824Y-91450001D01*
X199928824Y-90549999D01*
X200071176Y-90549999D01*
X200071176Y-91450001D01*
X200083259Y-91572678D01*
X200119042Y-91690641D01*
X200177152Y-91799356D01*
X200255354Y-91894646D01*
X200350644Y-91972848D01*
X200459359Y-92030958D01*
X200577322Y-92066741D01*
X200699999Y-92078824D01*
X201350001Y-92078824D01*
X201472678Y-92066741D01*
X201590641Y-92030958D01*
X201699356Y-91972848D01*
X201794646Y-91894646D01*
X201872848Y-91799356D01*
X201930958Y-91690641D01*
X201966741Y-91572678D01*
X201973702Y-91502000D01*
X203526298Y-91502000D01*
X203533259Y-91572678D01*
X203569042Y-91690641D01*
X203627152Y-91799356D01*
X203705354Y-91894646D01*
X203800644Y-91972848D01*
X203909359Y-92030958D01*
X204027322Y-92066741D01*
X204149999Y-92078824D01*
X204800001Y-92078824D01*
X204922678Y-92066741D01*
X205040641Y-92030958D01*
X205149356Y-91972848D01*
X205244646Y-91894646D01*
X205322848Y-91799356D01*
X205380958Y-91690641D01*
X205416741Y-91572678D01*
X205428824Y-91450001D01*
X205428824Y-90819823D01*
X205429437Y-90813599D01*
X205428824Y-90807375D01*
X205428824Y-90549999D01*
X205571176Y-90549999D01*
X205571176Y-91450001D01*
X205583259Y-91572678D01*
X205619042Y-91690641D01*
X205677152Y-91799356D01*
X205755354Y-91894646D01*
X205850644Y-91972848D01*
X205959359Y-92030958D01*
X206077322Y-92066741D01*
X206199999Y-92078824D01*
X206850001Y-92078824D01*
X206972678Y-92066741D01*
X207090641Y-92030958D01*
X207199356Y-91972848D01*
X207294646Y-91894646D01*
X207372848Y-91799356D01*
X207430958Y-91690641D01*
X207466741Y-91572678D01*
X207478824Y-91450001D01*
X207478824Y-90756110D01*
X208369135Y-89865800D01*
X209658473Y-89865800D01*
X209665555Y-89937705D01*
X209687112Y-90008770D01*
X209722119Y-90074263D01*
X209769231Y-90131669D01*
X209826637Y-90178781D01*
X209892130Y-90213788D01*
X209963195Y-90235345D01*
X210037100Y-90242624D01*
X212787100Y-90242624D01*
X212861005Y-90235345D01*
X212932070Y-90213788D01*
X212997563Y-90178781D01*
X213054969Y-90131669D01*
X213102081Y-90074263D01*
X213137088Y-90008770D01*
X213158645Y-89937705D01*
X213165727Y-89865800D01*
X215408473Y-89865800D01*
X215415555Y-89937705D01*
X215437112Y-90008770D01*
X215472119Y-90074263D01*
X215519231Y-90131669D01*
X215576637Y-90178781D01*
X215642130Y-90213788D01*
X215713195Y-90235345D01*
X215787100Y-90242624D01*
X218537100Y-90242624D01*
X218611005Y-90235345D01*
X218682070Y-90213788D01*
X218747563Y-90178781D01*
X218804969Y-90131669D01*
X218852081Y-90074263D01*
X218887088Y-90008770D01*
X218908645Y-89937705D01*
X218915924Y-89863800D01*
X218915924Y-88863800D01*
X218908645Y-88789895D01*
X218887088Y-88718830D01*
X218852081Y-88653337D01*
X218804969Y-88595931D01*
X218747563Y-88548819D01*
X218682070Y-88513812D01*
X218611005Y-88492255D01*
X218537100Y-88484976D01*
X215787100Y-88484976D01*
X215713195Y-88492255D01*
X215642130Y-88513812D01*
X215576637Y-88548819D01*
X215519231Y-88595931D01*
X215472119Y-88653337D01*
X215437112Y-88718830D01*
X215415555Y-88789895D01*
X215408473Y-88861800D01*
X213165727Y-88861800D01*
X213158645Y-88789895D01*
X213137088Y-88718830D01*
X213102081Y-88653337D01*
X213054969Y-88595931D01*
X212997563Y-88548819D01*
X212932070Y-88513812D01*
X212861005Y-88492255D01*
X212787100Y-88484976D01*
X210037100Y-88484976D01*
X209963195Y-88492255D01*
X209892130Y-88513812D01*
X209826637Y-88548819D01*
X209769231Y-88595931D01*
X209722119Y-88653337D01*
X209687112Y-88718830D01*
X209665555Y-88789895D01*
X209658473Y-88861800D01*
X208185842Y-88861800D01*
X208161199Y-88859373D01*
X208136556Y-88861800D01*
X208136547Y-88861800D01*
X208062791Y-88869064D01*
X207968164Y-88897769D01*
X207880955Y-88944383D01*
X207804516Y-89007116D01*
X207788803Y-89026262D01*
X206889954Y-89925111D01*
X206850001Y-89921176D01*
X206199999Y-89921176D01*
X206077322Y-89933259D01*
X205959359Y-89969042D01*
X205850644Y-90027152D01*
X205755354Y-90105354D01*
X205677152Y-90200644D01*
X205619042Y-90309359D01*
X205583259Y-90427322D01*
X205571176Y-90549999D01*
X205428824Y-90549999D01*
X205416741Y-90427322D01*
X205380958Y-90309359D01*
X205322848Y-90200644D01*
X205244646Y-90105354D01*
X205149356Y-90027152D01*
X205040641Y-89969042D01*
X204922678Y-89933259D01*
X204800001Y-89921176D01*
X204149999Y-89921176D01*
X204027322Y-89933259D01*
X203909359Y-89969042D01*
X203800644Y-90027152D01*
X203705354Y-90105354D01*
X203627152Y-90200644D01*
X203569042Y-90309359D01*
X203533259Y-90427322D01*
X203526298Y-90498000D01*
X201973702Y-90498000D01*
X201966741Y-90427322D01*
X201930958Y-90309359D01*
X201872848Y-90200644D01*
X201794646Y-90105354D01*
X201699356Y-90027152D01*
X201590641Y-89969042D01*
X201472678Y-89933259D01*
X201350001Y-89921176D01*
X200699999Y-89921176D01*
X200577322Y-89933259D01*
X200459359Y-89969042D01*
X200350644Y-90027152D01*
X200255354Y-90105354D01*
X200177152Y-90200644D01*
X200119042Y-90309359D01*
X200083259Y-90427322D01*
X200071176Y-90549999D01*
X199928824Y-90549999D01*
X199916741Y-90427322D01*
X199880958Y-90309359D01*
X199822848Y-90200644D01*
X199744646Y-90105354D01*
X199649356Y-90027152D01*
X199540641Y-89969042D01*
X199422678Y-89933259D01*
X199300001Y-89921176D01*
X198649999Y-89921176D01*
X198527322Y-89933259D01*
X198409359Y-89969042D01*
X198300644Y-90027152D01*
X198205354Y-90105354D01*
X198127152Y-90200644D01*
X198069042Y-90309359D01*
X198033259Y-90427322D01*
X198026298Y-90498000D01*
X194982935Y-90498000D01*
X193127000Y-88642065D01*
X193127000Y-87258824D01*
X195175000Y-87258824D01*
X195248905Y-87251545D01*
X195319970Y-87229988D01*
X195385463Y-87194981D01*
X195442869Y-87147869D01*
X195489981Y-87090463D01*
X195524988Y-87024970D01*
X195546545Y-86953905D01*
X195553824Y-86880000D01*
X195553824Y-86782000D01*
X203521176Y-86782000D01*
X203521176Y-86950001D01*
X203533259Y-87072678D01*
X203569042Y-87190641D01*
X203627152Y-87299356D01*
X203705354Y-87394646D01*
X203800644Y-87472848D01*
X203909359Y-87530958D01*
X204027322Y-87566741D01*
X204149999Y-87578824D01*
X204800001Y-87578824D01*
X204922678Y-87566741D01*
X205040641Y-87530958D01*
X205149356Y-87472848D01*
X205244646Y-87394646D01*
X205322848Y-87299356D01*
X205380958Y-87190641D01*
X205416741Y-87072678D01*
X205428824Y-86950001D01*
X205428824Y-86049999D01*
X205416741Y-85927322D01*
X205380958Y-85809359D01*
X205322848Y-85700644D01*
X205244646Y-85605354D01*
X205149356Y-85527152D01*
X205040641Y-85469042D01*
X204922678Y-85433259D01*
X204800001Y-85421176D01*
X204149999Y-85421176D01*
X204027322Y-85433259D01*
X203909359Y-85469042D01*
X203800644Y-85527152D01*
X203705354Y-85605354D01*
X203627152Y-85700644D01*
X203585804Y-85778000D01*
X195553824Y-85778000D01*
X195553824Y-85680000D01*
X195546545Y-85606095D01*
X195524988Y-85535030D01*
X195489981Y-85469537D01*
X195442869Y-85412131D01*
X195385463Y-85365019D01*
X195319970Y-85330012D01*
X195248905Y-85308455D01*
X195175000Y-85301176D01*
X193127000Y-85301176D01*
X193127000Y-81824981D01*
X200723000Y-81824981D01*
X200723000Y-82175019D01*
X200791289Y-82518332D01*
X200925243Y-82841725D01*
X201119714Y-83132771D01*
X201367229Y-83380286D01*
X201658275Y-83574757D01*
X201981668Y-83708711D01*
X202324981Y-83777000D01*
X202675019Y-83777000D01*
X203018332Y-83708711D01*
X203341725Y-83574757D01*
X203424857Y-83519210D01*
X203426591Y-83519736D01*
X203500347Y-83527000D01*
X203500357Y-83527000D01*
X203525000Y-83529427D01*
X203549643Y-83527000D01*
X206101711Y-83527000D01*
X206058970Y-83606964D01*
X206030265Y-83701591D01*
X206020573Y-83800000D01*
X206023001Y-83824653D01*
X206023000Y-85449737D01*
X205959359Y-85469042D01*
X205850644Y-85527152D01*
X205755354Y-85605354D01*
X205677152Y-85700644D01*
X205619042Y-85809359D01*
X205583259Y-85927322D01*
X205571176Y-86049999D01*
X205571176Y-86950001D01*
X205583259Y-87072678D01*
X205619042Y-87190641D01*
X205677152Y-87299356D01*
X205755354Y-87394646D01*
X205850644Y-87472848D01*
X205959359Y-87530958D01*
X206077322Y-87566741D01*
X206199999Y-87578824D01*
X206850001Y-87578824D01*
X206972678Y-87566741D01*
X207090641Y-87530958D01*
X207199356Y-87472848D01*
X207294646Y-87394646D01*
X207372848Y-87299356D01*
X207430958Y-87190641D01*
X207466741Y-87072678D01*
X207478824Y-86950001D01*
X207478824Y-86618727D01*
X223977000Y-86618727D01*
X223977000Y-86818073D01*
X224015890Y-87013590D01*
X224092177Y-87197762D01*
X224202928Y-87363513D01*
X224343887Y-87504472D01*
X224509638Y-87615223D01*
X224693810Y-87691510D01*
X224889327Y-87730400D01*
X225088673Y-87730400D01*
X225284190Y-87691510D01*
X225468362Y-87615223D01*
X225634113Y-87504472D01*
X225775072Y-87363513D01*
X225885823Y-87197762D01*
X225962110Y-87013590D01*
X226001000Y-86818073D01*
X226001000Y-86618727D01*
X225962110Y-86423210D01*
X225885823Y-86239038D01*
X225775072Y-86073287D01*
X225634113Y-85932328D01*
X225468362Y-85821577D01*
X225284190Y-85745290D01*
X225088673Y-85706400D01*
X224889327Y-85706400D01*
X224693810Y-85745290D01*
X224509638Y-85821577D01*
X224343887Y-85932328D01*
X224202928Y-86073287D01*
X224092177Y-86239038D01*
X224015890Y-86423210D01*
X223977000Y-86618727D01*
X207478824Y-86618727D01*
X207478824Y-86049999D01*
X207466741Y-85927322D01*
X207430958Y-85809359D01*
X207372848Y-85700644D01*
X207294646Y-85605354D01*
X207199356Y-85527152D01*
X207090641Y-85469042D01*
X207027000Y-85449737D01*
X207027000Y-84007934D01*
X207179466Y-83855468D01*
X207200644Y-83872848D01*
X207309359Y-83930958D01*
X207427322Y-83966741D01*
X207549999Y-83978824D01*
X208450001Y-83978824D01*
X208572678Y-83966741D01*
X208690641Y-83930958D01*
X208799356Y-83872848D01*
X208894646Y-83794646D01*
X208972848Y-83699356D01*
X209030958Y-83590641D01*
X209050263Y-83527000D01*
X211694307Y-83527000D01*
X211757500Y-83533224D01*
X212977500Y-83533224D01*
X213051405Y-83525945D01*
X213122470Y-83504388D01*
X213187963Y-83469381D01*
X213245369Y-83422269D01*
X213292481Y-83364863D01*
X213327488Y-83299370D01*
X213349045Y-83228305D01*
X213356324Y-83154400D01*
X213356324Y-82858159D01*
X213998676Y-83500511D01*
X213998676Y-84104400D01*
X214005955Y-84178305D01*
X214027512Y-84249370D01*
X214062519Y-84314863D01*
X214109631Y-84372269D01*
X214167037Y-84419381D01*
X214232530Y-84454388D01*
X214303595Y-84475945D01*
X214377500Y-84483224D01*
X215597500Y-84483224D01*
X215671405Y-84475945D01*
X215742470Y-84454388D01*
X215807963Y-84419381D01*
X215865369Y-84372269D01*
X215912481Y-84314863D01*
X215930367Y-84281400D01*
X225566381Y-84281400D01*
X225572259Y-84341077D01*
X225608042Y-84459041D01*
X225666152Y-84567756D01*
X225744354Y-84663046D01*
X225839644Y-84741248D01*
X225948359Y-84799358D01*
X226066323Y-84835141D01*
X226189000Y-84847224D01*
X227709000Y-84847224D01*
X227831677Y-84835141D01*
X227949641Y-84799358D01*
X228058356Y-84741248D01*
X228153646Y-84663046D01*
X228231848Y-84567756D01*
X228289958Y-84459041D01*
X228325741Y-84341077D01*
X228337824Y-84218400D01*
X228337824Y-83218400D01*
X228325741Y-83095723D01*
X228289958Y-82977759D01*
X228231848Y-82869044D01*
X228153646Y-82773754D01*
X228058356Y-82695552D01*
X227949641Y-82637442D01*
X227831677Y-82601659D01*
X227709000Y-82589576D01*
X226501455Y-82589576D01*
X226453736Y-82564070D01*
X226359109Y-82535365D01*
X226260700Y-82525673D01*
X226162291Y-82535365D01*
X226067664Y-82564070D01*
X225980455Y-82610684D01*
X225946900Y-82638222D01*
X225839644Y-82695552D01*
X225744354Y-82773754D01*
X225666152Y-82869044D01*
X225608042Y-82977759D01*
X225572259Y-83095723D01*
X225560176Y-83218400D01*
X225560176Y-83277400D01*
X215930367Y-83277400D01*
X215912481Y-83243937D01*
X215865369Y-83186531D01*
X215807963Y-83139419D01*
X215742470Y-83104412D01*
X215671405Y-83082855D01*
X215597500Y-83075576D01*
X215364094Y-83075576D01*
X215344184Y-83051316D01*
X215267745Y-82988583D01*
X215180535Y-82941969D01*
X215085908Y-82913264D01*
X214987500Y-82903572D01*
X214889091Y-82913264D01*
X214844750Y-82926715D01*
X212575600Y-80657566D01*
X212575600Y-79955363D01*
X212639241Y-79936058D01*
X212747956Y-79877948D01*
X212843246Y-79799746D01*
X212921448Y-79704456D01*
X212979558Y-79595741D01*
X213015341Y-79477778D01*
X213027424Y-79355101D01*
X213027424Y-78455099D01*
X213015341Y-78332422D01*
X212979558Y-78214459D01*
X212921448Y-78105744D01*
X212843246Y-78010454D01*
X212747956Y-77932252D01*
X212639241Y-77874142D01*
X212521278Y-77838359D01*
X212398601Y-77826276D01*
X211748599Y-77826276D01*
X211625922Y-77838359D01*
X211507959Y-77874142D01*
X211399244Y-77932252D01*
X211303954Y-78010454D01*
X211225752Y-78105744D01*
X211167642Y-78214459D01*
X211131859Y-78332422D01*
X211119776Y-78455099D01*
X211119776Y-79355101D01*
X211131859Y-79477778D01*
X211167642Y-79595741D01*
X211225752Y-79704456D01*
X211303954Y-79799746D01*
X211399244Y-79877948D01*
X211507959Y-79936058D01*
X211571601Y-79955363D01*
X211571601Y-80840847D01*
X211569173Y-80865500D01*
X211578865Y-80963909D01*
X211607570Y-81058536D01*
X211654184Y-81145745D01*
X211701201Y-81203035D01*
X211701204Y-81203038D01*
X211716917Y-81222184D01*
X211736063Y-81237897D01*
X212623742Y-82125576D01*
X211757500Y-82125576D01*
X211683595Y-82132855D01*
X211612530Y-82154412D01*
X211547037Y-82189419D01*
X211489631Y-82236531D01*
X211442519Y-82293937D01*
X211407512Y-82359430D01*
X211385955Y-82430495D01*
X211378676Y-82504400D01*
X211378676Y-82523000D01*
X209050263Y-82523000D01*
X209030958Y-82459359D01*
X208972848Y-82350644D01*
X208894646Y-82255354D01*
X208799356Y-82177152D01*
X208690641Y-82119042D01*
X208572678Y-82083259D01*
X208450001Y-82071176D01*
X207549999Y-82071176D01*
X207427322Y-82083259D01*
X207309359Y-82119042D01*
X207200644Y-82177152D01*
X207105354Y-82255354D01*
X207027152Y-82350644D01*
X206969042Y-82459359D01*
X206949737Y-82523000D01*
X204206777Y-82523000D01*
X204208711Y-82518332D01*
X204277000Y-82175019D01*
X204277000Y-81824981D01*
X204208711Y-81481668D01*
X204074757Y-81158275D01*
X203880286Y-80867229D01*
X203632771Y-80619714D01*
X203341725Y-80425243D01*
X203018332Y-80291289D01*
X202675019Y-80223000D01*
X202324981Y-80223000D01*
X201981668Y-80291289D01*
X201658275Y-80425243D01*
X201367229Y-80619714D01*
X201119714Y-80867229D01*
X200925243Y-81158275D01*
X200791289Y-81481668D01*
X200723000Y-81824981D01*
X193127000Y-81824981D01*
X193127000Y-77133800D01*
X203448866Y-77133800D01*
X206925111Y-80610046D01*
X206921176Y-80649999D01*
X206921176Y-81300001D01*
X206933259Y-81422678D01*
X206969042Y-81540641D01*
X207027152Y-81649356D01*
X207105354Y-81744646D01*
X207200644Y-81822848D01*
X207309359Y-81880958D01*
X207427322Y-81916741D01*
X207549999Y-81928824D01*
X208450001Y-81928824D01*
X208572678Y-81916741D01*
X208690641Y-81880958D01*
X208799356Y-81822848D01*
X208894646Y-81744646D01*
X208972848Y-81649356D01*
X209030958Y-81540641D01*
X209066741Y-81422678D01*
X209078824Y-81300001D01*
X209078824Y-80649999D01*
X209070737Y-80567897D01*
X209658646Y-79979989D01*
X209698599Y-79983924D01*
X210348601Y-79983924D01*
X210471278Y-79971841D01*
X210589241Y-79936058D01*
X210697956Y-79877948D01*
X210793246Y-79799746D01*
X210871448Y-79704456D01*
X210929558Y-79595741D01*
X210965341Y-79477778D01*
X210977424Y-79355101D01*
X210977424Y-78455099D01*
X210965341Y-78332422D01*
X210929558Y-78214459D01*
X210871448Y-78105744D01*
X210793246Y-78010454D01*
X210697956Y-77932252D01*
X210589241Y-77874142D01*
X210471278Y-77838359D01*
X210348601Y-77826276D01*
X209698599Y-77826276D01*
X209575922Y-77838359D01*
X209457959Y-77874142D01*
X209349244Y-77932252D01*
X209253954Y-78010454D01*
X209175752Y-78105744D01*
X209117642Y-78214459D01*
X209081859Y-78332422D01*
X209069776Y-78455099D01*
X209069776Y-79148989D01*
X208197590Y-80021176D01*
X207756111Y-80021176D01*
X205353662Y-77618727D01*
X223977000Y-77618727D01*
X223977000Y-77818073D01*
X224015890Y-78013590D01*
X224092177Y-78197762D01*
X224202928Y-78363513D01*
X224343887Y-78504472D01*
X224509638Y-78615223D01*
X224693810Y-78691510D01*
X224889327Y-78730400D01*
X225088673Y-78730400D01*
X225284190Y-78691510D01*
X225468362Y-78615223D01*
X225634113Y-78504472D01*
X225775072Y-78363513D01*
X225885823Y-78197762D01*
X225962110Y-78013590D01*
X226001000Y-77818073D01*
X226001000Y-77618727D01*
X225962110Y-77423210D01*
X225885823Y-77239038D01*
X225775072Y-77073287D01*
X225634113Y-76932328D01*
X225468362Y-76821577D01*
X225284190Y-76745290D01*
X225088673Y-76706400D01*
X224889327Y-76706400D01*
X224693810Y-76745290D01*
X224509638Y-76821577D01*
X224343887Y-76932328D01*
X224202928Y-77073287D01*
X224092177Y-77239038D01*
X224015890Y-77423210D01*
X223977000Y-77618727D01*
X205353662Y-77618727D01*
X204029202Y-76294268D01*
X204013484Y-76275116D01*
X203937045Y-76212383D01*
X203849836Y-76165769D01*
X203755209Y-76137064D01*
X203681453Y-76129800D01*
X203681443Y-76129800D01*
X203656800Y-76127373D01*
X203632157Y-76129800D01*
X193127000Y-76129800D01*
X193127000Y-73752000D01*
X193276298Y-73752000D01*
X193283259Y-73822678D01*
X193319042Y-73940641D01*
X193377152Y-74049356D01*
X193455354Y-74144646D01*
X193550644Y-74222848D01*
X193659359Y-74280958D01*
X193777322Y-74316741D01*
X193899999Y-74328824D01*
X194550001Y-74328824D01*
X194672678Y-74316741D01*
X194790641Y-74280958D01*
X194899356Y-74222848D01*
X194994646Y-74144646D01*
X195072848Y-74049356D01*
X195130958Y-73940641D01*
X195166741Y-73822678D01*
X195178824Y-73700001D01*
X195178824Y-72799999D01*
X195321176Y-72799999D01*
X195321176Y-73700001D01*
X195333259Y-73822678D01*
X195369042Y-73940641D01*
X195427152Y-74049356D01*
X195505354Y-74144646D01*
X195600644Y-74222848D01*
X195709359Y-74280958D01*
X195827322Y-74316741D01*
X195949999Y-74328824D01*
X196600001Y-74328824D01*
X196722678Y-74316741D01*
X196840641Y-74280958D01*
X196949356Y-74222848D01*
X197044646Y-74144646D01*
X197122848Y-74049356D01*
X197180958Y-73940641D01*
X197216741Y-73822678D01*
X197223702Y-73752000D01*
X198088066Y-73752000D01*
X198245594Y-73909529D01*
X198206137Y-73930619D01*
X198148731Y-73977731D01*
X198101619Y-74035137D01*
X198066612Y-74100630D01*
X198045055Y-74171695D01*
X198037776Y-74245600D01*
X198037776Y-75245600D01*
X198045055Y-75319505D01*
X198066612Y-75390570D01*
X198101619Y-75456063D01*
X198148731Y-75513469D01*
X198206137Y-75560581D01*
X198271630Y-75595588D01*
X198342695Y-75617145D01*
X198416600Y-75624424D01*
X201166600Y-75624424D01*
X201240505Y-75617145D01*
X201311570Y-75595588D01*
X201377063Y-75560581D01*
X201434469Y-75513469D01*
X201481581Y-75456063D01*
X201516588Y-75390570D01*
X201538145Y-75319505D01*
X201545227Y-75247600D01*
X203787973Y-75247600D01*
X203795055Y-75319505D01*
X203816612Y-75390570D01*
X203851619Y-75456063D01*
X203898731Y-75513469D01*
X203956137Y-75560581D01*
X204021630Y-75595588D01*
X204092695Y-75617145D01*
X204166600Y-75624424D01*
X206916600Y-75624424D01*
X206990505Y-75617145D01*
X207061570Y-75595588D01*
X207127063Y-75560581D01*
X207184469Y-75513469D01*
X207231581Y-75456063D01*
X207266588Y-75390570D01*
X207288145Y-75319505D01*
X207295424Y-75245600D01*
X207295424Y-74245600D01*
X207288145Y-74171695D01*
X207266588Y-74100630D01*
X207231581Y-74035137D01*
X207184469Y-73977731D01*
X207127063Y-73930619D01*
X207061570Y-73895612D01*
X206990505Y-73874055D01*
X206916600Y-73866776D01*
X204166600Y-73866776D01*
X204092695Y-73874055D01*
X204021630Y-73895612D01*
X203956137Y-73930619D01*
X203898731Y-73977731D01*
X203851619Y-74035137D01*
X203816612Y-74100630D01*
X203795055Y-74171695D01*
X203787973Y-74243600D01*
X201545227Y-74243600D01*
X201538145Y-74171695D01*
X201516588Y-74100630D01*
X201481581Y-74035137D01*
X201434469Y-73977731D01*
X201377063Y-73930619D01*
X201311570Y-73895612D01*
X201240505Y-73874055D01*
X201166600Y-73866776D01*
X199622711Y-73866776D01*
X198668401Y-72912467D01*
X198652684Y-72893316D01*
X198576245Y-72830583D01*
X198489036Y-72783969D01*
X198394409Y-72755264D01*
X198320653Y-72748000D01*
X198320643Y-72748000D01*
X198296000Y-72745573D01*
X198271357Y-72748000D01*
X197223702Y-72748000D01*
X197216741Y-72677322D01*
X197180958Y-72559359D01*
X197122848Y-72450644D01*
X197044646Y-72355354D01*
X196949356Y-72277152D01*
X196840641Y-72219042D01*
X196722678Y-72183259D01*
X196600001Y-72171176D01*
X195949999Y-72171176D01*
X195827322Y-72183259D01*
X195709359Y-72219042D01*
X195600644Y-72277152D01*
X195505354Y-72355354D01*
X195427152Y-72450644D01*
X195369042Y-72559359D01*
X195333259Y-72677322D01*
X195321176Y-72799999D01*
X195178824Y-72799999D01*
X195166741Y-72677322D01*
X195130958Y-72559359D01*
X195072848Y-72450644D01*
X194994646Y-72355354D01*
X194899356Y-72277152D01*
X194790641Y-72219042D01*
X194672678Y-72183259D01*
X194550001Y-72171176D01*
X193899999Y-72171176D01*
X193777322Y-72183259D01*
X193659359Y-72219042D01*
X193550644Y-72277152D01*
X193455354Y-72355354D01*
X193377152Y-72450644D01*
X193319042Y-72559359D01*
X193283259Y-72677322D01*
X193276298Y-72748000D01*
X193127000Y-72748000D01*
X193127000Y-70815132D01*
X225123000Y-70815132D01*
X225123000Y-71184868D01*
X225195132Y-71547501D01*
X225336624Y-71889093D01*
X225542039Y-72196518D01*
X225803482Y-72457961D01*
X226110907Y-72663376D01*
X226452499Y-72804868D01*
X226815132Y-72877000D01*
X227184868Y-72877000D01*
X227547501Y-72804868D01*
X227889093Y-72663376D01*
X228196518Y-72457961D01*
X228457961Y-72196518D01*
X228663376Y-71889093D01*
X228804868Y-71547501D01*
X228877000Y-71184868D01*
X228877000Y-70815132D01*
X228804868Y-70452499D01*
X228663376Y-70110907D01*
X228457961Y-69803482D01*
X228196518Y-69542039D01*
X227889093Y-69336624D01*
X227547501Y-69195132D01*
X227184868Y-69123000D01*
X226815132Y-69123000D01*
X226452499Y-69195132D01*
X226110907Y-69336624D01*
X225803482Y-69542039D01*
X225542039Y-69803482D01*
X225336624Y-70110907D01*
X225195132Y-70452499D01*
X225123000Y-70815132D01*
X193127000Y-70815132D01*
X193127000Y-68402000D01*
X226980342Y-68402000D01*
X227504242Y-68453369D01*
G36*
X183873000Y-154500000D02*
G01*
X183875440Y-154524776D01*
X183882667Y-154548601D01*
X183894403Y-154570557D01*
X183910197Y-154589803D01*
X183929443Y-154605597D01*
X183951399Y-154617333D01*
X183975224Y-154624560D01*
X184000000Y-154627000D01*
X229598000Y-154627000D01*
X229598000Y-164980343D01*
X229546631Y-165504243D01*
X229400187Y-165989288D01*
X229162324Y-166436646D01*
X228842096Y-166829282D01*
X228451706Y-167152241D01*
X228006018Y-167393223D01*
X227522013Y-167543048D01*
X226999180Y-167598000D01*
X167019657Y-167598000D01*
X166495757Y-167546631D01*
X166010712Y-167400187D01*
X165563354Y-167162324D01*
X165170718Y-166842096D01*
X164847759Y-166451706D01*
X164606777Y-166006018D01*
X164456952Y-165522013D01*
X164402000Y-164999180D01*
X164402000Y-164815132D01*
X165123000Y-164815132D01*
X165123000Y-165184868D01*
X165195132Y-165547501D01*
X165336624Y-165889093D01*
X165542039Y-166196518D01*
X165803482Y-166457961D01*
X166110907Y-166663376D01*
X166452499Y-166804868D01*
X166815132Y-166877000D01*
X167184868Y-166877000D01*
X167547501Y-166804868D01*
X167889093Y-166663376D01*
X168196518Y-166457961D01*
X168457961Y-166196518D01*
X168663376Y-165889093D01*
X168804868Y-165547501D01*
X168877000Y-165184868D01*
X168877000Y-164815132D01*
X225123000Y-164815132D01*
X225123000Y-165184868D01*
X225195132Y-165547501D01*
X225336624Y-165889093D01*
X225542039Y-166196518D01*
X225803482Y-166457961D01*
X226110907Y-166663376D01*
X226452499Y-166804868D01*
X226815132Y-166877000D01*
X227184868Y-166877000D01*
X227547501Y-166804868D01*
X227889093Y-166663376D01*
X228196518Y-166457961D01*
X228457961Y-166196518D01*
X228663376Y-165889093D01*
X228804868Y-165547501D01*
X228877000Y-165184868D01*
X228877000Y-164815132D01*
X228804868Y-164452499D01*
X228663376Y-164110907D01*
X228457961Y-163803482D01*
X228196518Y-163542039D01*
X227889093Y-163336624D01*
X227547501Y-163195132D01*
X227184868Y-163123000D01*
X226815132Y-163123000D01*
X226452499Y-163195132D01*
X226110907Y-163336624D01*
X225803482Y-163542039D01*
X225542039Y-163803482D01*
X225336624Y-164110907D01*
X225195132Y-164452499D01*
X225123000Y-164815132D01*
X168877000Y-164815132D01*
X168804868Y-164452499D01*
X168663376Y-164110907D01*
X168457961Y-163803482D01*
X168196518Y-163542039D01*
X167889093Y-163336624D01*
X167547501Y-163195132D01*
X167184868Y-163123000D01*
X166815132Y-163123000D01*
X166452499Y-163195132D01*
X166110907Y-163336624D01*
X165803482Y-163542039D01*
X165542039Y-163803482D01*
X165336624Y-164110907D01*
X165195132Y-164452499D01*
X165123000Y-164815132D01*
X164402000Y-164815132D01*
X164402000Y-158005282D01*
X206423000Y-158005282D01*
X206423000Y-158394718D01*
X206498975Y-158776670D01*
X206648005Y-159136461D01*
X206864364Y-159460264D01*
X207139736Y-159735636D01*
X207463539Y-159951995D01*
X207823330Y-160101025D01*
X208205282Y-160177000D01*
X208594718Y-160177000D01*
X208976670Y-160101025D01*
X209336461Y-159951995D01*
X209660264Y-159735636D01*
X209935636Y-159460264D01*
X210151995Y-159136461D01*
X210301025Y-158776670D01*
X210377000Y-158394718D01*
X210377000Y-158005282D01*
X210301025Y-157623330D01*
X210151995Y-157263539D01*
X209935636Y-156939736D01*
X209660264Y-156664364D01*
X209336461Y-156448005D01*
X208976670Y-156298975D01*
X208594718Y-156223000D01*
X208205282Y-156223000D01*
X207823330Y-156298975D01*
X207463539Y-156448005D01*
X207139736Y-156664364D01*
X206864364Y-156939736D01*
X206648005Y-157263539D01*
X206498975Y-157623330D01*
X206423000Y-158005282D01*
X164402000Y-158005282D01*
X164402000Y-154485282D01*
X168603000Y-154485282D01*
X168603000Y-154874718D01*
X168678975Y-155256670D01*
X168828005Y-155616461D01*
X169044364Y-155940264D01*
X169319736Y-156215636D01*
X169643539Y-156431995D01*
X170003330Y-156581025D01*
X170385282Y-156657000D01*
X170774718Y-156657000D01*
X171156670Y-156581025D01*
X171516461Y-156431995D01*
X171840264Y-156215636D01*
X172115636Y-155940264D01*
X172331995Y-155616461D01*
X172481025Y-155256670D01*
X172557000Y-154874718D01*
X172557000Y-154485282D01*
X172481025Y-154103330D01*
X172331995Y-153743539D01*
X172115636Y-153419736D01*
X171840264Y-153144364D01*
X171516461Y-152928005D01*
X171156670Y-152778975D01*
X170774718Y-152703000D01*
X170385282Y-152703000D01*
X170003330Y-152778975D01*
X169643539Y-152928005D01*
X169319736Y-153144364D01*
X169044364Y-153419736D01*
X168828005Y-153743539D01*
X168678975Y-154103330D01*
X168603000Y-154485282D01*
X164402000Y-154485282D01*
X164402000Y-143127000D01*
X183873000Y-143127000D01*
X183873000Y-154500000D01*
G37*
X183873000Y-154500000D02*
X183875440Y-154524776D01*
X183882667Y-154548601D01*
X183894403Y-154570557D01*
X183910197Y-154589803D01*
X183929443Y-154605597D01*
X183951399Y-154617333D01*
X183975224Y-154624560D01*
X184000000Y-154627000D01*
X229598000Y-154627000D01*
X229598000Y-164980343D01*
X229546631Y-165504243D01*
X229400187Y-165989288D01*
X229162324Y-166436646D01*
X228842096Y-166829282D01*
X228451706Y-167152241D01*
X228006018Y-167393223D01*
X227522013Y-167543048D01*
X226999180Y-167598000D01*
X167019657Y-167598000D01*
X166495757Y-167546631D01*
X166010712Y-167400187D01*
X165563354Y-167162324D01*
X165170718Y-166842096D01*
X164847759Y-166451706D01*
X164606777Y-166006018D01*
X164456952Y-165522013D01*
X164402000Y-164999180D01*
X164402000Y-164815132D01*
X165123000Y-164815132D01*
X165123000Y-165184868D01*
X165195132Y-165547501D01*
X165336624Y-165889093D01*
X165542039Y-166196518D01*
X165803482Y-166457961D01*
X166110907Y-166663376D01*
X166452499Y-166804868D01*
X166815132Y-166877000D01*
X167184868Y-166877000D01*
X167547501Y-166804868D01*
X167889093Y-166663376D01*
X168196518Y-166457961D01*
X168457961Y-166196518D01*
X168663376Y-165889093D01*
X168804868Y-165547501D01*
X168877000Y-165184868D01*
X168877000Y-164815132D01*
X225123000Y-164815132D01*
X225123000Y-165184868D01*
X225195132Y-165547501D01*
X225336624Y-165889093D01*
X225542039Y-166196518D01*
X225803482Y-166457961D01*
X226110907Y-166663376D01*
X226452499Y-166804868D01*
X226815132Y-166877000D01*
X227184868Y-166877000D01*
X227547501Y-166804868D01*
X227889093Y-166663376D01*
X228196518Y-166457961D01*
X228457961Y-166196518D01*
X228663376Y-165889093D01*
X228804868Y-165547501D01*
X228877000Y-165184868D01*
X228877000Y-164815132D01*
X228804868Y-164452499D01*
X228663376Y-164110907D01*
X228457961Y-163803482D01*
X228196518Y-163542039D01*
X227889093Y-163336624D01*
X227547501Y-163195132D01*
X227184868Y-163123000D01*
X226815132Y-163123000D01*
X226452499Y-163195132D01*
X226110907Y-163336624D01*
X225803482Y-163542039D01*
X225542039Y-163803482D01*
X225336624Y-164110907D01*
X225195132Y-164452499D01*
X225123000Y-164815132D01*
X168877000Y-164815132D01*
X168804868Y-164452499D01*
X168663376Y-164110907D01*
X168457961Y-163803482D01*
X168196518Y-163542039D01*
X167889093Y-163336624D01*
X167547501Y-163195132D01*
X167184868Y-163123000D01*
X166815132Y-163123000D01*
X166452499Y-163195132D01*
X166110907Y-163336624D01*
X165803482Y-163542039D01*
X165542039Y-163803482D01*
X165336624Y-164110907D01*
X165195132Y-164452499D01*
X165123000Y-164815132D01*
X164402000Y-164815132D01*
X164402000Y-158005282D01*
X206423000Y-158005282D01*
X206423000Y-158394718D01*
X206498975Y-158776670D01*
X206648005Y-159136461D01*
X206864364Y-159460264D01*
X207139736Y-159735636D01*
X207463539Y-159951995D01*
X207823330Y-160101025D01*
X208205282Y-160177000D01*
X208594718Y-160177000D01*
X208976670Y-160101025D01*
X209336461Y-159951995D01*
X209660264Y-159735636D01*
X209935636Y-159460264D01*
X210151995Y-159136461D01*
X210301025Y-158776670D01*
X210377000Y-158394718D01*
X210377000Y-158005282D01*
X210301025Y-157623330D01*
X210151995Y-157263539D01*
X209935636Y-156939736D01*
X209660264Y-156664364D01*
X209336461Y-156448005D01*
X208976670Y-156298975D01*
X208594718Y-156223000D01*
X208205282Y-156223000D01*
X207823330Y-156298975D01*
X207463539Y-156448005D01*
X207139736Y-156664364D01*
X206864364Y-156939736D01*
X206648005Y-157263539D01*
X206498975Y-157623330D01*
X206423000Y-158005282D01*
X164402000Y-158005282D01*
X164402000Y-154485282D01*
X168603000Y-154485282D01*
X168603000Y-154874718D01*
X168678975Y-155256670D01*
X168828005Y-155616461D01*
X169044364Y-155940264D01*
X169319736Y-156215636D01*
X169643539Y-156431995D01*
X170003330Y-156581025D01*
X170385282Y-156657000D01*
X170774718Y-156657000D01*
X171156670Y-156581025D01*
X171516461Y-156431995D01*
X171840264Y-156215636D01*
X172115636Y-155940264D01*
X172331995Y-155616461D01*
X172481025Y-155256670D01*
X172557000Y-154874718D01*
X172557000Y-154485282D01*
X172481025Y-154103330D01*
X172331995Y-153743539D01*
X172115636Y-153419736D01*
X171840264Y-153144364D01*
X171516461Y-152928005D01*
X171156670Y-152778975D01*
X170774718Y-152703000D01*
X170385282Y-152703000D01*
X170003330Y-152778975D01*
X169643539Y-152928005D01*
X169319736Y-153144364D01*
X169044364Y-153419736D01*
X168828005Y-153743539D01*
X168678975Y-154103330D01*
X168603000Y-154485282D01*
X164402000Y-154485282D01*
X164402000Y-143127000D01*
X183873000Y-143127000D01*
X183873000Y-154500000D01*
G36*
X183873000Y-142373000D02*
G01*
X164402000Y-142373000D01*
X164402000Y-130745282D01*
X168603000Y-130745282D01*
X168603000Y-131134718D01*
X168678975Y-131516670D01*
X168828005Y-131876461D01*
X169044364Y-132200264D01*
X169319736Y-132475636D01*
X169643539Y-132691995D01*
X170003330Y-132841025D01*
X170385282Y-132917000D01*
X170774718Y-132917000D01*
X171156670Y-132841025D01*
X171516461Y-132691995D01*
X171840264Y-132475636D01*
X172115636Y-132200264D01*
X172331995Y-131876461D01*
X172481025Y-131516670D01*
X172557000Y-131134718D01*
X172557000Y-130745282D01*
X172481025Y-130363330D01*
X172331995Y-130003539D01*
X172115636Y-129679736D01*
X171840264Y-129404364D01*
X171516461Y-129188005D01*
X171156670Y-129038975D01*
X170774718Y-128963000D01*
X170385282Y-128963000D01*
X170003330Y-129038975D01*
X169643539Y-129188005D01*
X169319736Y-129404364D01*
X169044364Y-129679736D01*
X168828005Y-130003539D01*
X168678975Y-130363330D01*
X168603000Y-130745282D01*
X164402000Y-130745282D01*
X164402000Y-120815132D01*
X165123000Y-120815132D01*
X165123000Y-121184868D01*
X165195132Y-121547501D01*
X165336624Y-121889093D01*
X165542039Y-122196518D01*
X165803482Y-122457961D01*
X166110907Y-122663376D01*
X166452499Y-122804868D01*
X166815132Y-122877000D01*
X167184868Y-122877000D01*
X167547501Y-122804868D01*
X167889093Y-122663376D01*
X168196518Y-122457961D01*
X168457961Y-122196518D01*
X168663376Y-121889093D01*
X168804868Y-121547501D01*
X168877000Y-121184868D01*
X168877000Y-120815132D01*
X168804868Y-120452499D01*
X168663376Y-120110907D01*
X168457961Y-119803482D01*
X168196518Y-119542039D01*
X167889093Y-119336624D01*
X167547501Y-119195132D01*
X167184868Y-119123000D01*
X166815132Y-119123000D01*
X166452499Y-119195132D01*
X166110907Y-119336624D01*
X165803482Y-119542039D01*
X165542039Y-119803482D01*
X165336624Y-120110907D01*
X165195132Y-120452499D01*
X165123000Y-120815132D01*
X164402000Y-120815132D01*
X164402000Y-112127000D01*
X183873000Y-112127000D01*
X183873000Y-142373000D01*
G37*
X183873000Y-142373000D02*
X164402000Y-142373000D01*
X164402000Y-130745282D01*
X168603000Y-130745282D01*
X168603000Y-131134718D01*
X168678975Y-131516670D01*
X168828005Y-131876461D01*
X169044364Y-132200264D01*
X169319736Y-132475636D01*
X169643539Y-132691995D01*
X170003330Y-132841025D01*
X170385282Y-132917000D01*
X170774718Y-132917000D01*
X171156670Y-132841025D01*
X171516461Y-132691995D01*
X171840264Y-132475636D01*
X172115636Y-132200264D01*
X172331995Y-131876461D01*
X172481025Y-131516670D01*
X172557000Y-131134718D01*
X172557000Y-130745282D01*
X172481025Y-130363330D01*
X172331995Y-130003539D01*
X172115636Y-129679736D01*
X171840264Y-129404364D01*
X171516461Y-129188005D01*
X171156670Y-129038975D01*
X170774718Y-128963000D01*
X170385282Y-128963000D01*
X170003330Y-129038975D01*
X169643539Y-129188005D01*
X169319736Y-129404364D01*
X169044364Y-129679736D01*
X168828005Y-130003539D01*
X168678975Y-130363330D01*
X168603000Y-130745282D01*
X164402000Y-130745282D01*
X164402000Y-120815132D01*
X165123000Y-120815132D01*
X165123000Y-121184868D01*
X165195132Y-121547501D01*
X165336624Y-121889093D01*
X165542039Y-122196518D01*
X165803482Y-122457961D01*
X166110907Y-122663376D01*
X166452499Y-122804868D01*
X166815132Y-122877000D01*
X167184868Y-122877000D01*
X167547501Y-122804868D01*
X167889093Y-122663376D01*
X168196518Y-122457961D01*
X168457961Y-122196518D01*
X168663376Y-121889093D01*
X168804868Y-121547501D01*
X168877000Y-121184868D01*
X168877000Y-120815132D01*
X168804868Y-120452499D01*
X168663376Y-120110907D01*
X168457961Y-119803482D01*
X168196518Y-119542039D01*
X167889093Y-119336624D01*
X167547501Y-119195132D01*
X167184868Y-119123000D01*
X166815132Y-119123000D01*
X166452499Y-119195132D01*
X166110907Y-119336624D01*
X165803482Y-119542039D01*
X165542039Y-119803482D01*
X165336624Y-120110907D01*
X165195132Y-120452499D01*
X165123000Y-120815132D01*
X164402000Y-120815132D01*
X164402000Y-112127000D01*
X183873000Y-112127000D01*
X183873000Y-142373000D01*
M02*
