G04 #@! TF.GenerationSoftware,KiCad,Pcbnew,(5.1.6)-1*
G04 #@! TF.CreationDate,2020-09-12T11:45:34-05:00*
G04 #@! TF.ProjectId,ContactorDriver,436f6e74-6163-4746-9f72-447269766572,rev?*
G04 #@! TF.SameCoordinates,Original*
G04 #@! TF.FileFunction,Soldermask,Bot*
G04 #@! TF.FilePolarity,Negative*
%FSLAX46Y46*%
G04 Gerber Fmt 4.6, Leading zero omitted, Abs format (unit mm)*
G04 Created by KiCad (PCBNEW (5.1.6)-1) date 2020-09-12 11:45:34*
%MOMM*%
%LPD*%
G01*
G04 APERTURE LIST*
%ADD10C,0.100000*%
G04 APERTURE END LIST*
D10*
G36*
X227302585Y-163478802D02*
G01*
X227452410Y-163508604D01*
X227734674Y-163625521D01*
X227988705Y-163795259D01*
X228204741Y-164011295D01*
X228374479Y-164265326D01*
X228491396Y-164547590D01*
X228551000Y-164847240D01*
X228551000Y-165152760D01*
X228491396Y-165452410D01*
X228374479Y-165734674D01*
X228204741Y-165988705D01*
X227988705Y-166204741D01*
X227734674Y-166374479D01*
X227452410Y-166491396D01*
X227302585Y-166521198D01*
X227152761Y-166551000D01*
X226847239Y-166551000D01*
X226697415Y-166521198D01*
X226547590Y-166491396D01*
X226265326Y-166374479D01*
X226011295Y-166204741D01*
X225795259Y-165988705D01*
X225625521Y-165734674D01*
X225508604Y-165452410D01*
X225449000Y-165152760D01*
X225449000Y-164847240D01*
X225508604Y-164547590D01*
X225625521Y-164265326D01*
X225795259Y-164011295D01*
X226011295Y-163795259D01*
X226265326Y-163625521D01*
X226547590Y-163508604D01*
X226697415Y-163478802D01*
X226847239Y-163449000D01*
X227152761Y-163449000D01*
X227302585Y-163478802D01*
G37*
G36*
X167302585Y-163478802D02*
G01*
X167452410Y-163508604D01*
X167734674Y-163625521D01*
X167988705Y-163795259D01*
X168204741Y-164011295D01*
X168374479Y-164265326D01*
X168491396Y-164547590D01*
X168551000Y-164847240D01*
X168551000Y-165152760D01*
X168491396Y-165452410D01*
X168374479Y-165734674D01*
X168204741Y-165988705D01*
X167988705Y-166204741D01*
X167734674Y-166374479D01*
X167452410Y-166491396D01*
X167302585Y-166521198D01*
X167152761Y-166551000D01*
X166847239Y-166551000D01*
X166697415Y-166521198D01*
X166547590Y-166491396D01*
X166265326Y-166374479D01*
X166011295Y-166204741D01*
X165795259Y-165988705D01*
X165625521Y-165734674D01*
X165508604Y-165452410D01*
X165449000Y-165152760D01*
X165449000Y-164847240D01*
X165508604Y-164547590D01*
X165625521Y-164265326D01*
X165795259Y-164011295D01*
X166011295Y-163795259D01*
X166265326Y-163625521D01*
X166547590Y-163508604D01*
X166697415Y-163478802D01*
X166847239Y-163449000D01*
X167152761Y-163449000D01*
X167302585Y-163478802D01*
G37*
G36*
X219171304Y-158037002D02*
G01*
X219590139Y-158210489D01*
X219590141Y-158210490D01*
X219779891Y-158337277D01*
X219967082Y-158462354D01*
X220287646Y-158782918D01*
X220539511Y-159159861D01*
X220712998Y-159578696D01*
X220801440Y-160023327D01*
X220801440Y-160476673D01*
X220712998Y-160921304D01*
X220539511Y-161340139D01*
X220539510Y-161340141D01*
X220287645Y-161717083D01*
X219967083Y-162037645D01*
X219590141Y-162289510D01*
X219590140Y-162289511D01*
X219590139Y-162289511D01*
X219171304Y-162462998D01*
X218726673Y-162551440D01*
X218273327Y-162551440D01*
X217828696Y-162462998D01*
X217409861Y-162289511D01*
X217409860Y-162289511D01*
X217409859Y-162289510D01*
X217032917Y-162037645D01*
X216712355Y-161717083D01*
X216460490Y-161340141D01*
X216460489Y-161340139D01*
X216287002Y-160921304D01*
X216198560Y-160476673D01*
X216198560Y-160023327D01*
X216287002Y-159578696D01*
X216460489Y-159159861D01*
X216712354Y-158782918D01*
X217032918Y-158462354D01*
X217220109Y-158337277D01*
X217409859Y-158210490D01*
X217409861Y-158210489D01*
X217828696Y-158037002D01*
X218273327Y-157948560D01*
X218726673Y-157948560D01*
X219171304Y-158037002D01*
G37*
G36*
X208775256Y-156591298D02*
G01*
X208881579Y-156612447D01*
X209182042Y-156736903D01*
X209452451Y-156917585D01*
X209682415Y-157147549D01*
X209682416Y-157147551D01*
X209863098Y-157417960D01*
X209987553Y-157718422D01*
X210051000Y-158037389D01*
X210051000Y-158362611D01*
X210008702Y-158575256D01*
X209987553Y-158681579D01*
X209863097Y-158982042D01*
X209682415Y-159252451D01*
X209452451Y-159482415D01*
X209182042Y-159663097D01*
X208881579Y-159787553D01*
X208775256Y-159808702D01*
X208562611Y-159851000D01*
X208237389Y-159851000D01*
X208024744Y-159808702D01*
X207918421Y-159787553D01*
X207617958Y-159663097D01*
X207347549Y-159482415D01*
X207117585Y-159252451D01*
X206936903Y-158982042D01*
X206812447Y-158681579D01*
X206791298Y-158575256D01*
X206749000Y-158362611D01*
X206749000Y-158037389D01*
X206812447Y-157718422D01*
X206936902Y-157417960D01*
X207117584Y-157147551D01*
X207117585Y-157147549D01*
X207347549Y-156917585D01*
X207617958Y-156736903D01*
X207918421Y-156612447D01*
X208024744Y-156591298D01*
X208237389Y-156549000D01*
X208562611Y-156549000D01*
X208775256Y-156591298D01*
G37*
G36*
X170955256Y-153071298D02*
G01*
X171061579Y-153092447D01*
X171362042Y-153216903D01*
X171632451Y-153397585D01*
X171862415Y-153627549D01*
X172043097Y-153897958D01*
X172167553Y-154198421D01*
X172231000Y-154517391D01*
X172231000Y-154842609D01*
X172167553Y-155161579D01*
X172043097Y-155462042D01*
X171862415Y-155732451D01*
X171632451Y-155962415D01*
X171362042Y-156143097D01*
X171061579Y-156267553D01*
X170955256Y-156288702D01*
X170742611Y-156331000D01*
X170417389Y-156331000D01*
X170204744Y-156288702D01*
X170098421Y-156267553D01*
X169797958Y-156143097D01*
X169527549Y-155962415D01*
X169297585Y-155732451D01*
X169116903Y-155462042D01*
X168992447Y-155161579D01*
X168929000Y-154842609D01*
X168929000Y-154517391D01*
X168992447Y-154198421D01*
X169116903Y-153897958D01*
X169297585Y-153627549D01*
X169527549Y-153397585D01*
X169797958Y-153216903D01*
X170098421Y-153092447D01*
X170204744Y-153071298D01*
X170417389Y-153029000D01*
X170742611Y-153029000D01*
X170955256Y-153071298D01*
G37*
G36*
X181348276Y-145471884D02*
G01*
X181565569Y-145561890D01*
X181565571Y-145561891D01*
X181761130Y-145692560D01*
X181927440Y-145858870D01*
X182058110Y-146054431D01*
X182148116Y-146271724D01*
X182194000Y-146502400D01*
X182194000Y-146737600D01*
X182148116Y-146968276D01*
X182058110Y-147185569D01*
X182058109Y-147185571D01*
X181927440Y-147381130D01*
X181761130Y-147547440D01*
X181565571Y-147678109D01*
X181565570Y-147678110D01*
X181565569Y-147678110D01*
X181348276Y-147768116D01*
X181117600Y-147814000D01*
X180882400Y-147814000D01*
X180651724Y-147768116D01*
X180434431Y-147678110D01*
X180434430Y-147678110D01*
X180434429Y-147678109D01*
X180238870Y-147547440D01*
X180072560Y-147381130D01*
X179941891Y-147185571D01*
X179941890Y-147185569D01*
X179851884Y-146968276D01*
X179806000Y-146737600D01*
X179806000Y-146502400D01*
X179851884Y-146271724D01*
X179941890Y-146054431D01*
X180072560Y-145858870D01*
X180238870Y-145692560D01*
X180434429Y-145561891D01*
X180434431Y-145561890D01*
X180651724Y-145471884D01*
X180882400Y-145426000D01*
X181117600Y-145426000D01*
X181348276Y-145471884D01*
G37*
G36*
X173728276Y-145471884D02*
G01*
X173945569Y-145561890D01*
X173945571Y-145561891D01*
X174141130Y-145692560D01*
X174307440Y-145858870D01*
X174438110Y-146054431D01*
X174529513Y-146275097D01*
X174534516Y-146291589D01*
X174546067Y-146313199D01*
X174561613Y-146332141D01*
X174580555Y-146347686D01*
X174602165Y-146359237D01*
X174625614Y-146366350D01*
X174650000Y-146368752D01*
X174674387Y-146366350D01*
X174697836Y-146359237D01*
X174719446Y-146347686D01*
X174738388Y-146332140D01*
X174753933Y-146313198D01*
X174765484Y-146291588D01*
X174770486Y-146275098D01*
X174861890Y-146054431D01*
X174992560Y-145858870D01*
X175158870Y-145692560D01*
X175354429Y-145561891D01*
X175354431Y-145561890D01*
X175571724Y-145471884D01*
X175802400Y-145426000D01*
X176037600Y-145426000D01*
X176268276Y-145471884D01*
X176485569Y-145561890D01*
X176485571Y-145561891D01*
X176681130Y-145692560D01*
X176847440Y-145858870D01*
X176978110Y-146054431D01*
X177068116Y-146271724D01*
X177114000Y-146502400D01*
X177114000Y-146737600D01*
X177068116Y-146968276D01*
X176978110Y-147185569D01*
X176978109Y-147185571D01*
X176847440Y-147381130D01*
X176681130Y-147547440D01*
X176485571Y-147678109D01*
X176485570Y-147678110D01*
X176485569Y-147678110D01*
X176268276Y-147768116D01*
X176037600Y-147814000D01*
X175802400Y-147814000D01*
X175571724Y-147768116D01*
X175354431Y-147678110D01*
X175354430Y-147678110D01*
X175354429Y-147678109D01*
X175158870Y-147547440D01*
X174992560Y-147381130D01*
X174861891Y-147185571D01*
X174771885Y-146968277D01*
X174770487Y-146964903D01*
X174765484Y-146948411D01*
X174753933Y-146926801D01*
X174738387Y-146907859D01*
X174719445Y-146892314D01*
X174697835Y-146880763D01*
X174674386Y-146873650D01*
X174650000Y-146871248D01*
X174625613Y-146873650D01*
X174602164Y-146880763D01*
X174580554Y-146892314D01*
X174561612Y-146907860D01*
X174546067Y-146926802D01*
X174534516Y-146948412D01*
X174529514Y-146964902D01*
X174438110Y-147185569D01*
X174438109Y-147185571D01*
X174307440Y-147381130D01*
X174141130Y-147547440D01*
X173945571Y-147678109D01*
X173945570Y-147678110D01*
X173945569Y-147678110D01*
X173728276Y-147768116D01*
X173497600Y-147814000D01*
X173262400Y-147814000D01*
X173031724Y-147768116D01*
X172814431Y-147678110D01*
X172814430Y-147678110D01*
X172814429Y-147678109D01*
X172618870Y-147547440D01*
X172452560Y-147381130D01*
X172321891Y-147185571D01*
X172321890Y-147185569D01*
X172231884Y-146968276D01*
X172186000Y-146737600D01*
X172186000Y-146502400D01*
X172231884Y-146271724D01*
X172321890Y-146054431D01*
X172452560Y-145858870D01*
X172618870Y-145692560D01*
X172814429Y-145561891D01*
X172814431Y-145561890D01*
X173031724Y-145471884D01*
X173262400Y-145426000D01*
X173497600Y-145426000D01*
X173728276Y-145471884D01*
G37*
G36*
X173728276Y-137851884D02*
G01*
X173945569Y-137941890D01*
X173945571Y-137941891D01*
X174141130Y-138072560D01*
X174307440Y-138238870D01*
X174438110Y-138434431D01*
X174529513Y-138655097D01*
X174534516Y-138671589D01*
X174546067Y-138693199D01*
X174561613Y-138712141D01*
X174580555Y-138727686D01*
X174602165Y-138739237D01*
X174625614Y-138746350D01*
X174650000Y-138748752D01*
X174674387Y-138746350D01*
X174697836Y-138739237D01*
X174719446Y-138727686D01*
X174738388Y-138712140D01*
X174753933Y-138693198D01*
X174765484Y-138671588D01*
X174770486Y-138655098D01*
X174861890Y-138434431D01*
X174992560Y-138238870D01*
X175158870Y-138072560D01*
X175354429Y-137941891D01*
X175354431Y-137941890D01*
X175571724Y-137851884D01*
X175802400Y-137806000D01*
X176037600Y-137806000D01*
X176268276Y-137851884D01*
X176485569Y-137941890D01*
X176485571Y-137941891D01*
X176681130Y-138072560D01*
X176847440Y-138238870D01*
X176978110Y-138434431D01*
X177068116Y-138651724D01*
X177114000Y-138882400D01*
X177114000Y-139117600D01*
X177068116Y-139348276D01*
X176978110Y-139565569D01*
X176978109Y-139565571D01*
X176847440Y-139761130D01*
X176681130Y-139927440D01*
X176485571Y-140058109D01*
X176485570Y-140058110D01*
X176485569Y-140058110D01*
X176268276Y-140148116D01*
X176037600Y-140194000D01*
X175802400Y-140194000D01*
X175571724Y-140148116D01*
X175354431Y-140058110D01*
X175354430Y-140058110D01*
X175354429Y-140058109D01*
X175158870Y-139927440D01*
X174992560Y-139761130D01*
X174861891Y-139565571D01*
X174771885Y-139348277D01*
X174770487Y-139344903D01*
X174765484Y-139328411D01*
X174753933Y-139306801D01*
X174738387Y-139287859D01*
X174719445Y-139272314D01*
X174697835Y-139260763D01*
X174674386Y-139253650D01*
X174650000Y-139251248D01*
X174625613Y-139253650D01*
X174602164Y-139260763D01*
X174580554Y-139272314D01*
X174561612Y-139287860D01*
X174546067Y-139306802D01*
X174534516Y-139328412D01*
X174529514Y-139344902D01*
X174438110Y-139565569D01*
X174438109Y-139565571D01*
X174307440Y-139761130D01*
X174141130Y-139927440D01*
X173945571Y-140058109D01*
X173945570Y-140058110D01*
X173945569Y-140058110D01*
X173728276Y-140148116D01*
X173497600Y-140194000D01*
X173262400Y-140194000D01*
X173031724Y-140148116D01*
X172814431Y-140058110D01*
X172814430Y-140058110D01*
X172814429Y-140058109D01*
X172618870Y-139927440D01*
X172452560Y-139761130D01*
X172321891Y-139565571D01*
X172321890Y-139565569D01*
X172231884Y-139348276D01*
X172186000Y-139117600D01*
X172186000Y-138882400D01*
X172231884Y-138651724D01*
X172321890Y-138434431D01*
X172452560Y-138238870D01*
X172618870Y-138072560D01*
X172814429Y-137941891D01*
X172814431Y-137941890D01*
X173031724Y-137851884D01*
X173262400Y-137806000D01*
X173497600Y-137806000D01*
X173728276Y-137851884D01*
G37*
G36*
X181348276Y-137851884D02*
G01*
X181565569Y-137941890D01*
X181565571Y-137941891D01*
X181761130Y-138072560D01*
X181927440Y-138238870D01*
X182058110Y-138434431D01*
X182148116Y-138651724D01*
X182194000Y-138882400D01*
X182194000Y-139117600D01*
X182148116Y-139348276D01*
X182058110Y-139565569D01*
X182058109Y-139565571D01*
X181927440Y-139761130D01*
X181761130Y-139927440D01*
X181565571Y-140058109D01*
X181565570Y-140058110D01*
X181565569Y-140058110D01*
X181348276Y-140148116D01*
X181117600Y-140194000D01*
X180882400Y-140194000D01*
X180651724Y-140148116D01*
X180434431Y-140058110D01*
X180434430Y-140058110D01*
X180434429Y-140058109D01*
X180238870Y-139927440D01*
X180072560Y-139761130D01*
X179941891Y-139565571D01*
X179941890Y-139565569D01*
X179851884Y-139348276D01*
X179806000Y-139117600D01*
X179806000Y-138882400D01*
X179851884Y-138651724D01*
X179941890Y-138434431D01*
X180072560Y-138238870D01*
X180238870Y-138072560D01*
X180434429Y-137941891D01*
X180434431Y-137941890D01*
X180651724Y-137851884D01*
X180882400Y-137806000D01*
X181117600Y-137806000D01*
X181348276Y-137851884D01*
G37*
G36*
X170955256Y-129331298D02*
G01*
X171061579Y-129352447D01*
X171362042Y-129476903D01*
X171632451Y-129657585D01*
X171862415Y-129887549D01*
X172043097Y-130157958D01*
X172167553Y-130458421D01*
X172231000Y-130777391D01*
X172231000Y-131102609D01*
X172167553Y-131421579D01*
X172043097Y-131722042D01*
X171862415Y-131992451D01*
X171632451Y-132222415D01*
X171362042Y-132403097D01*
X171061579Y-132527553D01*
X170955256Y-132548702D01*
X170742611Y-132591000D01*
X170417389Y-132591000D01*
X170204744Y-132548702D01*
X170098421Y-132527553D01*
X169797958Y-132403097D01*
X169527549Y-132222415D01*
X169297585Y-131992451D01*
X169116903Y-131722042D01*
X168992447Y-131421579D01*
X168929000Y-131102609D01*
X168929000Y-130777391D01*
X168992447Y-130458421D01*
X169116903Y-130157958D01*
X169297585Y-129887549D01*
X169527549Y-129657585D01*
X169797958Y-129476903D01*
X170098421Y-129352447D01*
X170204744Y-129331298D01*
X170417389Y-129289000D01*
X170742611Y-129289000D01*
X170955256Y-129331298D01*
G37*
G36*
X177671304Y-118287002D02*
G01*
X178090139Y-118460489D01*
X178090141Y-118460490D01*
X178279891Y-118587277D01*
X178467082Y-118712354D01*
X178787646Y-119032918D01*
X178876085Y-119165276D01*
X178986217Y-119330100D01*
X179039511Y-119409861D01*
X179212998Y-119828696D01*
X179301440Y-120273327D01*
X179301440Y-120726673D01*
X179212998Y-121171304D01*
X179096560Y-121452410D01*
X179039510Y-121590141D01*
X179035150Y-121596666D01*
X178863178Y-121854041D01*
X178787645Y-121967083D01*
X178467083Y-122287645D01*
X178090141Y-122539510D01*
X178090140Y-122539511D01*
X178090139Y-122539511D01*
X177671304Y-122712998D01*
X177226673Y-122801440D01*
X176773327Y-122801440D01*
X176328696Y-122712998D01*
X175909861Y-122539511D01*
X175909860Y-122539511D01*
X175909859Y-122539510D01*
X175532917Y-122287645D01*
X175212355Y-121967083D01*
X175136823Y-121854041D01*
X174964850Y-121596666D01*
X174960490Y-121590141D01*
X174903440Y-121452410D01*
X174787002Y-121171304D01*
X174698560Y-120726673D01*
X174698560Y-120273327D01*
X174787002Y-119828696D01*
X174960489Y-119409861D01*
X175013784Y-119330100D01*
X175123915Y-119165276D01*
X175212354Y-119032918D01*
X175532918Y-118712354D01*
X175720109Y-118587277D01*
X175909859Y-118460490D01*
X175909861Y-118460489D01*
X176328696Y-118287002D01*
X176773327Y-118198560D01*
X177226673Y-118198560D01*
X177671304Y-118287002D01*
G37*
G36*
X167302585Y-119478802D02*
G01*
X167452410Y-119508604D01*
X167734674Y-119625521D01*
X167988705Y-119795259D01*
X168204741Y-120011295D01*
X168374479Y-120265326D01*
X168491396Y-120547590D01*
X168491396Y-120547591D01*
X168551000Y-120847239D01*
X168551000Y-121152761D01*
X168547311Y-121171305D01*
X168491396Y-121452410D01*
X168374479Y-121734674D01*
X168204741Y-121988705D01*
X167988705Y-122204741D01*
X167734674Y-122374479D01*
X167452410Y-122491396D01*
X167302585Y-122521198D01*
X167152761Y-122551000D01*
X166847239Y-122551000D01*
X166697415Y-122521198D01*
X166547590Y-122491396D01*
X166265326Y-122374479D01*
X166011295Y-122204741D01*
X165795259Y-121988705D01*
X165625521Y-121734674D01*
X165508604Y-121452410D01*
X165452689Y-121171305D01*
X165449000Y-121152761D01*
X165449000Y-120847239D01*
X165508604Y-120547591D01*
X165508604Y-120547590D01*
X165625521Y-120265326D01*
X165795259Y-120011295D01*
X166011295Y-119795259D01*
X166265326Y-119625521D01*
X166547590Y-119508604D01*
X166697415Y-119478802D01*
X166847239Y-119449000D01*
X167152761Y-119449000D01*
X167302585Y-119478802D01*
G37*
G36*
X225214498Y-120869462D02*
G01*
X225339341Y-120921174D01*
X225339343Y-120921175D01*
X225451699Y-120996249D01*
X225547251Y-121091801D01*
X225587983Y-121152760D01*
X225622326Y-121204159D01*
X225674038Y-121329002D01*
X225700400Y-121461534D01*
X225700400Y-121596666D01*
X225674038Y-121729198D01*
X225622326Y-121854041D01*
X225622325Y-121854043D01*
X225547251Y-121966399D01*
X225451699Y-122061951D01*
X225339343Y-122137025D01*
X225339342Y-122137026D01*
X225339341Y-122137026D01*
X225214498Y-122188738D01*
X225081966Y-122215100D01*
X224946834Y-122215100D01*
X224814302Y-122188738D01*
X224689459Y-122137026D01*
X224689458Y-122137026D01*
X224689457Y-122137025D01*
X224577101Y-122061951D01*
X224481549Y-121966399D01*
X224406475Y-121854043D01*
X224406474Y-121854041D01*
X224354762Y-121729198D01*
X224328400Y-121596666D01*
X224328400Y-121461534D01*
X224354762Y-121329002D01*
X224406474Y-121204159D01*
X224440818Y-121152760D01*
X224481549Y-121091801D01*
X224577101Y-120996249D01*
X224689457Y-120921175D01*
X224689459Y-120921174D01*
X224814302Y-120869462D01*
X224946834Y-120843100D01*
X225081966Y-120843100D01*
X225214498Y-120869462D01*
G37*
G36*
X187375256Y-116891298D02*
G01*
X187481579Y-116912447D01*
X187782042Y-117036903D01*
X188052451Y-117217585D01*
X188282415Y-117447549D01*
X188282416Y-117447551D01*
X188463098Y-117717960D01*
X188499550Y-117805963D01*
X188545919Y-117917907D01*
X188587553Y-118018422D01*
X188640978Y-118287003D01*
X188651000Y-118337391D01*
X188651000Y-118662609D01*
X188587553Y-118981579D01*
X188463097Y-119282042D01*
X188282415Y-119552451D01*
X188052451Y-119782415D01*
X187782042Y-119963097D01*
X187481579Y-120087553D01*
X187375256Y-120108702D01*
X187162611Y-120151000D01*
X186837389Y-120151000D01*
X186624744Y-120108702D01*
X186518421Y-120087553D01*
X186217958Y-119963097D01*
X185947549Y-119782415D01*
X185717585Y-119552451D01*
X185536903Y-119282042D01*
X185412447Y-118981579D01*
X185349000Y-118662609D01*
X185349000Y-118337391D01*
X185359023Y-118287003D01*
X185412447Y-118018422D01*
X185454082Y-117917907D01*
X185500450Y-117805963D01*
X185536902Y-117717960D01*
X185717584Y-117447551D01*
X185717585Y-117447549D01*
X185947549Y-117217585D01*
X186217958Y-117036903D01*
X186518421Y-116912447D01*
X186624744Y-116891298D01*
X186837389Y-116849000D01*
X187162611Y-116849000D01*
X187375256Y-116891298D01*
G37*
G36*
X227887448Y-117732222D02*
G01*
X227921787Y-117742639D01*
X227953436Y-117759556D01*
X227981178Y-117782322D01*
X228003944Y-117810064D01*
X228020861Y-117841713D01*
X228031278Y-117876052D01*
X228035400Y-117917907D01*
X228035400Y-119140293D01*
X228031278Y-119182148D01*
X228020861Y-119216487D01*
X228003944Y-119248136D01*
X227981178Y-119275878D01*
X227953436Y-119298644D01*
X227921787Y-119315561D01*
X227887448Y-119325978D01*
X227845593Y-119330100D01*
X226103207Y-119330100D01*
X226061352Y-119325978D01*
X226027013Y-119315561D01*
X225995364Y-119298644D01*
X225967622Y-119275878D01*
X225944856Y-119248136D01*
X225927939Y-119216487D01*
X225917522Y-119182148D01*
X225913400Y-119140293D01*
X225913400Y-117917907D01*
X225917522Y-117876052D01*
X225927939Y-117841713D01*
X225944856Y-117810064D01*
X225967622Y-117782322D01*
X225995364Y-117759556D01*
X226027013Y-117742639D01*
X226061352Y-117732222D01*
X226103207Y-117728100D01*
X227845593Y-117728100D01*
X227887448Y-117732222D01*
G37*
G36*
X227312971Y-114731963D02*
G01*
X227391423Y-114739690D01*
X227492082Y-114770225D01*
X227542413Y-114785492D01*
X227681565Y-114859871D01*
X227803533Y-114959967D01*
X227903629Y-115081935D01*
X227978008Y-115221087D01*
X227978008Y-115221088D01*
X228023810Y-115372077D01*
X228039275Y-115529100D01*
X228023810Y-115686123D01*
X227993275Y-115786782D01*
X227978008Y-115837113D01*
X227903629Y-115976265D01*
X227803533Y-116098233D01*
X227681565Y-116198329D01*
X227542413Y-116272708D01*
X227492082Y-116287975D01*
X227391423Y-116318510D01*
X227312971Y-116326237D01*
X227273746Y-116330100D01*
X226675054Y-116330100D01*
X226635829Y-116326237D01*
X226557377Y-116318510D01*
X226456718Y-116287975D01*
X226406387Y-116272708D01*
X226267235Y-116198329D01*
X226145267Y-116098233D01*
X226045171Y-115976265D01*
X225970792Y-115837113D01*
X225955525Y-115786782D01*
X225924990Y-115686123D01*
X225909525Y-115529100D01*
X225924990Y-115372077D01*
X225970792Y-115221088D01*
X225970792Y-115221087D01*
X226045171Y-115081935D01*
X226145267Y-114959967D01*
X226267235Y-114859871D01*
X226406387Y-114785492D01*
X226456718Y-114770225D01*
X226557377Y-114739690D01*
X226635829Y-114731963D01*
X226675054Y-114728100D01*
X227273746Y-114728100D01*
X227312971Y-114731963D01*
G37*
G36*
X225214498Y-111869462D02*
G01*
X225339341Y-111921174D01*
X225339343Y-111921175D01*
X225451699Y-111996249D01*
X225547251Y-112091801D01*
X225622326Y-112204159D01*
X225674038Y-112329002D01*
X225700400Y-112461534D01*
X225700400Y-112596666D01*
X225674038Y-112729198D01*
X225622326Y-112854041D01*
X225622325Y-112854043D01*
X225547251Y-112966399D01*
X225451699Y-113061951D01*
X225339343Y-113137025D01*
X225339342Y-113137026D01*
X225339341Y-113137026D01*
X225214498Y-113188738D01*
X225081966Y-113215100D01*
X224946834Y-113215100D01*
X224814302Y-113188738D01*
X224689459Y-113137026D01*
X224689458Y-113137026D01*
X224689457Y-113137025D01*
X224577101Y-113061951D01*
X224481549Y-112966399D01*
X224406475Y-112854043D01*
X224406474Y-112854041D01*
X224354762Y-112729198D01*
X224328400Y-112596666D01*
X224328400Y-112461534D01*
X224354762Y-112329002D01*
X224406474Y-112204159D01*
X224481549Y-112091801D01*
X224577101Y-111996249D01*
X224689457Y-111921175D01*
X224689459Y-111921174D01*
X224814302Y-111869462D01*
X224946834Y-111843100D01*
X225081966Y-111843100D01*
X225214498Y-111869462D01*
G37*
G36*
X169160098Y-104340362D02*
G01*
X169284941Y-104392074D01*
X169284943Y-104392075D01*
X169397299Y-104467149D01*
X169492851Y-104562701D01*
X169567926Y-104675059D01*
X169619638Y-104799902D01*
X169646000Y-104932434D01*
X169646000Y-105067566D01*
X169619638Y-105200098D01*
X169567926Y-105324941D01*
X169567925Y-105324943D01*
X169492851Y-105437299D01*
X169397299Y-105532851D01*
X169284943Y-105607925D01*
X169284942Y-105607926D01*
X169284941Y-105607926D01*
X169160098Y-105659638D01*
X169027566Y-105686000D01*
X168892434Y-105686000D01*
X168759902Y-105659638D01*
X168635059Y-105607926D01*
X168635058Y-105607926D01*
X168635057Y-105607925D01*
X168522701Y-105532851D01*
X168427149Y-105437299D01*
X168352075Y-105324943D01*
X168352074Y-105324941D01*
X168300362Y-105200098D01*
X168274000Y-105067566D01*
X168274000Y-104932434D01*
X168300362Y-104799902D01*
X168352074Y-104675059D01*
X168427149Y-104562701D01*
X168522701Y-104467149D01*
X168635057Y-104392075D01*
X168635059Y-104392074D01*
X168759902Y-104340362D01*
X168892434Y-104314000D01*
X169027566Y-104314000D01*
X169160098Y-104340362D01*
G37*
G36*
X225163698Y-102556062D02*
G01*
X225288541Y-102607774D01*
X225288543Y-102607775D01*
X225380515Y-102669229D01*
X225400899Y-102682849D01*
X225496451Y-102778401D01*
X225571526Y-102890759D01*
X225623238Y-103015602D01*
X225649600Y-103148134D01*
X225649600Y-103283266D01*
X225623238Y-103415798D01*
X225571526Y-103540641D01*
X225571525Y-103540643D01*
X225496451Y-103652999D01*
X225400899Y-103748551D01*
X225288543Y-103823625D01*
X225288542Y-103823626D01*
X225288541Y-103823626D01*
X225163698Y-103875338D01*
X225031166Y-103901700D01*
X224896034Y-103901700D01*
X224763502Y-103875338D01*
X224638659Y-103823626D01*
X224638658Y-103823626D01*
X224638657Y-103823625D01*
X224526301Y-103748551D01*
X224430749Y-103652999D01*
X224355675Y-103540643D01*
X224355674Y-103540641D01*
X224303962Y-103415798D01*
X224277600Y-103283266D01*
X224277600Y-103148134D01*
X224303962Y-103015602D01*
X224355674Y-102890759D01*
X224430749Y-102778401D01*
X224526301Y-102682849D01*
X224546685Y-102669229D01*
X224638657Y-102607775D01*
X224638659Y-102607774D01*
X224763502Y-102556062D01*
X224896034Y-102529700D01*
X225031166Y-102529700D01*
X225163698Y-102556062D01*
G37*
G36*
X167338571Y-101202863D02*
G01*
X167417023Y-101210590D01*
X167517682Y-101241125D01*
X167568013Y-101256392D01*
X167707165Y-101330771D01*
X167829133Y-101430867D01*
X167929229Y-101552835D01*
X168003608Y-101691987D01*
X168003608Y-101691988D01*
X168049410Y-101842977D01*
X168064875Y-102000000D01*
X168049410Y-102157023D01*
X168018875Y-102257682D01*
X168003608Y-102308013D01*
X167929229Y-102447165D01*
X167829133Y-102569133D01*
X167707165Y-102669229D01*
X167568013Y-102743608D01*
X167517682Y-102758875D01*
X167417023Y-102789410D01*
X167338571Y-102797137D01*
X167299346Y-102801000D01*
X166700654Y-102801000D01*
X166661429Y-102797137D01*
X166582977Y-102789410D01*
X166482318Y-102758875D01*
X166431987Y-102743608D01*
X166292835Y-102669229D01*
X166170867Y-102569133D01*
X166070771Y-102447165D01*
X165996392Y-102308013D01*
X165981125Y-102257682D01*
X165950590Y-102157023D01*
X165935125Y-102000000D01*
X165950590Y-101842977D01*
X165996392Y-101691988D01*
X165996392Y-101691987D01*
X166070771Y-101552835D01*
X166170867Y-101430867D01*
X166292835Y-101330771D01*
X166431987Y-101256392D01*
X166482318Y-101241125D01*
X166582977Y-101210590D01*
X166661429Y-101202863D01*
X166700654Y-101199000D01*
X167299346Y-101199000D01*
X167338571Y-101202863D01*
G37*
G36*
X227836648Y-99418822D02*
G01*
X227870987Y-99429239D01*
X227902636Y-99446156D01*
X227930378Y-99468922D01*
X227953144Y-99496664D01*
X227970061Y-99528313D01*
X227980478Y-99562652D01*
X227984600Y-99604507D01*
X227984600Y-100826893D01*
X227980478Y-100868748D01*
X227970061Y-100903087D01*
X227953144Y-100934736D01*
X227930378Y-100962478D01*
X227902636Y-100985244D01*
X227870987Y-101002161D01*
X227836648Y-101012578D01*
X227794793Y-101016700D01*
X226052407Y-101016700D01*
X226010552Y-101012578D01*
X225976213Y-101002161D01*
X225944564Y-100985244D01*
X225916822Y-100962478D01*
X225894056Y-100934736D01*
X225877139Y-100903087D01*
X225866722Y-100868748D01*
X225862600Y-100826893D01*
X225862600Y-99604507D01*
X225866722Y-99562652D01*
X225877139Y-99528313D01*
X225894056Y-99496664D01*
X225916822Y-99468922D01*
X225944564Y-99446156D01*
X225976213Y-99429239D01*
X226010552Y-99418822D01*
X226052407Y-99414700D01*
X227794793Y-99414700D01*
X227836648Y-99418822D01*
G37*
G36*
X202923241Y-97104760D02*
G01*
X203187305Y-97214139D01*
X203424958Y-97372934D01*
X203627066Y-97575042D01*
X203785861Y-97812695D01*
X203895240Y-98076759D01*
X203951000Y-98357088D01*
X203951000Y-98642912D01*
X203895240Y-98923241D01*
X203785861Y-99187305D01*
X203627066Y-99424958D01*
X203424958Y-99627066D01*
X203187305Y-99785861D01*
X202923241Y-99895240D01*
X202642912Y-99951000D01*
X202357088Y-99951000D01*
X202076759Y-99895240D01*
X201812695Y-99785861D01*
X201575042Y-99627066D01*
X201372934Y-99424958D01*
X201214139Y-99187305D01*
X201104760Y-98923241D01*
X201049000Y-98642912D01*
X201049000Y-98357088D01*
X201104760Y-98076759D01*
X201214139Y-97812695D01*
X201372934Y-97575042D01*
X201575042Y-97372934D01*
X201812695Y-97214139D01*
X202076759Y-97104760D01*
X202357088Y-97049000D01*
X202642912Y-97049000D01*
X202923241Y-97104760D01*
G37*
G36*
X167913048Y-98203122D02*
G01*
X167947387Y-98213539D01*
X167979036Y-98230456D01*
X168006778Y-98253222D01*
X168029544Y-98280964D01*
X168046461Y-98312613D01*
X168056878Y-98346952D01*
X168061000Y-98388807D01*
X168061000Y-99611193D01*
X168056878Y-99653048D01*
X168046461Y-99687387D01*
X168029544Y-99719036D01*
X168006778Y-99746778D01*
X167979036Y-99769544D01*
X167947387Y-99786461D01*
X167913048Y-99796878D01*
X167871193Y-99801000D01*
X166128807Y-99801000D01*
X166086952Y-99796878D01*
X166052613Y-99786461D01*
X166020964Y-99769544D01*
X165993222Y-99746778D01*
X165970456Y-99719036D01*
X165953539Y-99687387D01*
X165943122Y-99653048D01*
X165939000Y-99611193D01*
X165939000Y-98388807D01*
X165943122Y-98346952D01*
X165953539Y-98312613D01*
X165970456Y-98280964D01*
X165993222Y-98253222D01*
X166020964Y-98230456D01*
X166052613Y-98213539D01*
X166086952Y-98203122D01*
X166128807Y-98199000D01*
X167871193Y-98199000D01*
X167913048Y-98203122D01*
G37*
G36*
X227262171Y-96418563D02*
G01*
X227340623Y-96426290D01*
X227441282Y-96456825D01*
X227491613Y-96472092D01*
X227630765Y-96546471D01*
X227752733Y-96646567D01*
X227852829Y-96768535D01*
X227927208Y-96907687D01*
X227927208Y-96907688D01*
X227973010Y-97058677D01*
X227988475Y-97215700D01*
X227973010Y-97372723D01*
X227942475Y-97473382D01*
X227927208Y-97523713D01*
X227852829Y-97662865D01*
X227752733Y-97784833D01*
X227630765Y-97884929D01*
X227491613Y-97959308D01*
X227441282Y-97974575D01*
X227340623Y-98005110D01*
X227262171Y-98012837D01*
X227222946Y-98016700D01*
X226624254Y-98016700D01*
X226585029Y-98012837D01*
X226506577Y-98005110D01*
X226405918Y-97974575D01*
X226355587Y-97959308D01*
X226216435Y-97884929D01*
X226094467Y-97784833D01*
X225994371Y-97662865D01*
X225919992Y-97523713D01*
X225904725Y-97473382D01*
X225874190Y-97372723D01*
X225858725Y-97215700D01*
X225874190Y-97058677D01*
X225919992Y-96907688D01*
X225919992Y-96907687D01*
X225994371Y-96768535D01*
X226094467Y-96646567D01*
X226216435Y-96546471D01*
X226355587Y-96472092D01*
X226405918Y-96456825D01*
X226506577Y-96426290D01*
X226585029Y-96418563D01*
X226624254Y-96414700D01*
X227222946Y-96414700D01*
X227262171Y-96418563D01*
G37*
G36*
X169160098Y-95340362D02*
G01*
X169284941Y-95392074D01*
X169284943Y-95392075D01*
X169397299Y-95467149D01*
X169492851Y-95562701D01*
X169567926Y-95675059D01*
X169619638Y-95799902D01*
X169646000Y-95932434D01*
X169646000Y-96067566D01*
X169619638Y-96200098D01*
X169567926Y-96324941D01*
X169567925Y-96324943D01*
X169492851Y-96437299D01*
X169397299Y-96532851D01*
X169284943Y-96607925D01*
X169284942Y-96607926D01*
X169284941Y-96607926D01*
X169160098Y-96659638D01*
X169027566Y-96686000D01*
X168892434Y-96686000D01*
X168759902Y-96659638D01*
X168635059Y-96607926D01*
X168635058Y-96607926D01*
X168635057Y-96607925D01*
X168522701Y-96532851D01*
X168427149Y-96437299D01*
X168352075Y-96324943D01*
X168352074Y-96324941D01*
X168300362Y-96200098D01*
X168274000Y-96067566D01*
X168274000Y-95932434D01*
X168300362Y-95799902D01*
X168352074Y-95675059D01*
X168427149Y-95562701D01*
X168522701Y-95467149D01*
X168635057Y-95392075D01*
X168635059Y-95392074D01*
X168759902Y-95340362D01*
X168892434Y-95314000D01*
X169027566Y-95314000D01*
X169160098Y-95340362D01*
G37*
G36*
X225163698Y-93556062D02*
G01*
X225288541Y-93607774D01*
X225288543Y-93607775D01*
X225400899Y-93682849D01*
X225496451Y-93778401D01*
X225571526Y-93890759D01*
X225623238Y-94015602D01*
X225649600Y-94148134D01*
X225649600Y-94283266D01*
X225623238Y-94415798D01*
X225571526Y-94540641D01*
X225571525Y-94540643D01*
X225496451Y-94652999D01*
X225400899Y-94748551D01*
X225288543Y-94823625D01*
X225288542Y-94823626D01*
X225288541Y-94823626D01*
X225163698Y-94875338D01*
X225031166Y-94901700D01*
X224896034Y-94901700D01*
X224763502Y-94875338D01*
X224638659Y-94823626D01*
X224638658Y-94823626D01*
X224638657Y-94823625D01*
X224526301Y-94748551D01*
X224430749Y-94652999D01*
X224355675Y-94540643D01*
X224355674Y-94540641D01*
X224303962Y-94415798D01*
X224277600Y-94283266D01*
X224277600Y-94148134D01*
X224303962Y-94015602D01*
X224355674Y-93890759D01*
X224430749Y-93778401D01*
X224526301Y-93682849D01*
X224638657Y-93607775D01*
X224638659Y-93607774D01*
X224763502Y-93556062D01*
X224896034Y-93529700D01*
X225031166Y-93529700D01*
X225163698Y-93556062D01*
G37*
G36*
X169160098Y-90840362D02*
G01*
X169284941Y-90892074D01*
X169284943Y-90892075D01*
X169397299Y-90967149D01*
X169492851Y-91062701D01*
X169567926Y-91175059D01*
X169619638Y-91299902D01*
X169646000Y-91432434D01*
X169646000Y-91567566D01*
X169619638Y-91700098D01*
X169567926Y-91824941D01*
X169567925Y-91824943D01*
X169492851Y-91937299D01*
X169397299Y-92032851D01*
X169284943Y-92107925D01*
X169284942Y-92107926D01*
X169284941Y-92107926D01*
X169160098Y-92159638D01*
X169027566Y-92186000D01*
X168892434Y-92186000D01*
X168759902Y-92159638D01*
X168635059Y-92107926D01*
X168635058Y-92107926D01*
X168635057Y-92107925D01*
X168522701Y-92032851D01*
X168427149Y-91937299D01*
X168352075Y-91824943D01*
X168352074Y-91824941D01*
X168300362Y-91700098D01*
X168274000Y-91567566D01*
X168274000Y-91432434D01*
X168300362Y-91299902D01*
X168352074Y-91175059D01*
X168427149Y-91062701D01*
X168522701Y-90967149D01*
X168635057Y-90892075D01*
X168635059Y-90892074D01*
X168759902Y-90840362D01*
X168892434Y-90814000D01*
X169027566Y-90814000D01*
X169160098Y-90840362D01*
G37*
G36*
X167338571Y-87702863D02*
G01*
X167417023Y-87710590D01*
X167517682Y-87741125D01*
X167568013Y-87756392D01*
X167707165Y-87830771D01*
X167829133Y-87930867D01*
X167929229Y-88052835D01*
X168003608Y-88191987D01*
X168003608Y-88191988D01*
X168049410Y-88342977D01*
X168064875Y-88500000D01*
X168049410Y-88657023D01*
X168018875Y-88757682D01*
X168003608Y-88808013D01*
X167929229Y-88947165D01*
X167829133Y-89069133D01*
X167707165Y-89169229D01*
X167568013Y-89243608D01*
X167517682Y-89258875D01*
X167417023Y-89289410D01*
X167338571Y-89297137D01*
X167299346Y-89301000D01*
X166700654Y-89301000D01*
X166661429Y-89297137D01*
X166582977Y-89289410D01*
X166482318Y-89258875D01*
X166431987Y-89243608D01*
X166292835Y-89169229D01*
X166170867Y-89069133D01*
X166070771Y-88947165D01*
X165996392Y-88808013D01*
X165981125Y-88757682D01*
X165950590Y-88657023D01*
X165935125Y-88500000D01*
X165950590Y-88342977D01*
X165996392Y-88191988D01*
X165996392Y-88191987D01*
X166070771Y-88052835D01*
X166170867Y-87930867D01*
X166292835Y-87830771D01*
X166431987Y-87756392D01*
X166482318Y-87741125D01*
X166582977Y-87710590D01*
X166661429Y-87702863D01*
X166700654Y-87699000D01*
X167299346Y-87699000D01*
X167338571Y-87702863D01*
G37*
G36*
X225189098Y-86058762D02*
G01*
X225313941Y-86110474D01*
X225313943Y-86110475D01*
X225401874Y-86169229D01*
X225426299Y-86185549D01*
X225521851Y-86281101D01*
X225596926Y-86393459D01*
X225648638Y-86518302D01*
X225675000Y-86650834D01*
X225675000Y-86785966D01*
X225648638Y-86918498D01*
X225596926Y-87043341D01*
X225596925Y-87043343D01*
X225521851Y-87155699D01*
X225426299Y-87251251D01*
X225313943Y-87326325D01*
X225313942Y-87326326D01*
X225313941Y-87326326D01*
X225189098Y-87378038D01*
X225056566Y-87404400D01*
X224921434Y-87404400D01*
X224788902Y-87378038D01*
X224664059Y-87326326D01*
X224664058Y-87326326D01*
X224664057Y-87326325D01*
X224551701Y-87251251D01*
X224456149Y-87155699D01*
X224381075Y-87043343D01*
X224381074Y-87043341D01*
X224329362Y-86918498D01*
X224303000Y-86785966D01*
X224303000Y-86650834D01*
X224329362Y-86518302D01*
X224381074Y-86393459D01*
X224456149Y-86281101D01*
X224551701Y-86185549D01*
X224576126Y-86169229D01*
X224664057Y-86110475D01*
X224664059Y-86110474D01*
X224788902Y-86058762D01*
X224921434Y-86032400D01*
X225056566Y-86032400D01*
X225189098Y-86058762D01*
G37*
G36*
X167338571Y-84702863D02*
G01*
X167417023Y-84710590D01*
X167517682Y-84741125D01*
X167568013Y-84756392D01*
X167707165Y-84830771D01*
X167829133Y-84930867D01*
X167929229Y-85052835D01*
X168003608Y-85191987D01*
X168003608Y-85191988D01*
X168049410Y-85342977D01*
X168064875Y-85500000D01*
X168049410Y-85657023D01*
X168018875Y-85757682D01*
X168003608Y-85808013D01*
X167929229Y-85947165D01*
X167829133Y-86069133D01*
X167707165Y-86169229D01*
X167568013Y-86243608D01*
X167517682Y-86258875D01*
X167417023Y-86289410D01*
X167338571Y-86297137D01*
X167299346Y-86301000D01*
X166700654Y-86301000D01*
X166661429Y-86297137D01*
X166582977Y-86289410D01*
X166482318Y-86258875D01*
X166431987Y-86243608D01*
X166292835Y-86169229D01*
X166170867Y-86069133D01*
X166070771Y-85947165D01*
X165996392Y-85808013D01*
X165981125Y-85757682D01*
X165950590Y-85657023D01*
X165935125Y-85500000D01*
X165950590Y-85342977D01*
X165996392Y-85191988D01*
X165996392Y-85191987D01*
X166070771Y-85052835D01*
X166170867Y-84930867D01*
X166292835Y-84830771D01*
X166431987Y-84756392D01*
X166482318Y-84741125D01*
X166582977Y-84710590D01*
X166661429Y-84702863D01*
X166700654Y-84699000D01*
X167299346Y-84699000D01*
X167338571Y-84702863D01*
G37*
G36*
X227862048Y-82921522D02*
G01*
X227896387Y-82931939D01*
X227928036Y-82948856D01*
X227955778Y-82971622D01*
X227978544Y-82999364D01*
X227995461Y-83031013D01*
X228005878Y-83065352D01*
X228010000Y-83107207D01*
X228010000Y-84329593D01*
X228005878Y-84371448D01*
X227995461Y-84405787D01*
X227978544Y-84437436D01*
X227955778Y-84465178D01*
X227928036Y-84487944D01*
X227896387Y-84504861D01*
X227862048Y-84515278D01*
X227820193Y-84519400D01*
X226077807Y-84519400D01*
X226035952Y-84515278D01*
X226001613Y-84504861D01*
X225969964Y-84487944D01*
X225942222Y-84465178D01*
X225919456Y-84437436D01*
X225902539Y-84405787D01*
X225892122Y-84371448D01*
X225888000Y-84329593D01*
X225888000Y-83107207D01*
X225892122Y-83065352D01*
X225902539Y-83031013D01*
X225919456Y-82999364D01*
X225942222Y-82971622D01*
X225969964Y-82948856D01*
X226001613Y-82931939D01*
X226035952Y-82921522D01*
X226077807Y-82917400D01*
X227820193Y-82917400D01*
X227862048Y-82921522D01*
G37*
G36*
X202923241Y-80604760D02*
G01*
X203187305Y-80714139D01*
X203424958Y-80872934D01*
X203627066Y-81075042D01*
X203785861Y-81312695D01*
X203895240Y-81576759D01*
X203951000Y-81857088D01*
X203951000Y-82142912D01*
X203895240Y-82423241D01*
X203785861Y-82687305D01*
X203627066Y-82924958D01*
X203424958Y-83127066D01*
X203187305Y-83285861D01*
X202923241Y-83395240D01*
X202642912Y-83451000D01*
X202357088Y-83451000D01*
X202076759Y-83395240D01*
X201812695Y-83285861D01*
X201575042Y-83127066D01*
X201372934Y-82924958D01*
X201214139Y-82687305D01*
X201104760Y-82423241D01*
X201049000Y-82142912D01*
X201049000Y-81857088D01*
X201104760Y-81576759D01*
X201214139Y-81312695D01*
X201372934Y-81075042D01*
X201575042Y-80872934D01*
X201812695Y-80714139D01*
X202076759Y-80604760D01*
X202357088Y-80549000D01*
X202642912Y-80549000D01*
X202923241Y-80604760D01*
G37*
G36*
X167338571Y-81702863D02*
G01*
X167417023Y-81710590D01*
X167517682Y-81741125D01*
X167568013Y-81756392D01*
X167707165Y-81830771D01*
X167829133Y-81930867D01*
X167929229Y-82052835D01*
X168003608Y-82191987D01*
X168003608Y-82191988D01*
X168049410Y-82342977D01*
X168064875Y-82500000D01*
X168049410Y-82657023D01*
X168018875Y-82757682D01*
X168003608Y-82808013D01*
X167929229Y-82947165D01*
X167829133Y-83069133D01*
X167707165Y-83169229D01*
X167568013Y-83243608D01*
X167517682Y-83258875D01*
X167417023Y-83289410D01*
X167338571Y-83297137D01*
X167299346Y-83301000D01*
X166700654Y-83301000D01*
X166661429Y-83297137D01*
X166582977Y-83289410D01*
X166482318Y-83258875D01*
X166431987Y-83243608D01*
X166292835Y-83169229D01*
X166170867Y-83069133D01*
X166070771Y-82947165D01*
X165996392Y-82808013D01*
X165981125Y-82757682D01*
X165950590Y-82657023D01*
X165935125Y-82500000D01*
X165950590Y-82342977D01*
X165996392Y-82191988D01*
X165996392Y-82191987D01*
X166070771Y-82052835D01*
X166170867Y-81930867D01*
X166292835Y-81830771D01*
X166431987Y-81756392D01*
X166482318Y-81741125D01*
X166582977Y-81710590D01*
X166661429Y-81702863D01*
X166700654Y-81699000D01*
X167299346Y-81699000D01*
X167338571Y-81702863D01*
G37*
G36*
X227287571Y-79921263D02*
G01*
X227366023Y-79928990D01*
X227466682Y-79959525D01*
X227517013Y-79974792D01*
X227656165Y-80049171D01*
X227778133Y-80149267D01*
X227878229Y-80271235D01*
X227952608Y-80410387D01*
X227952608Y-80410388D01*
X227998410Y-80561377D01*
X228013875Y-80718400D01*
X227998410Y-80875423D01*
X227967875Y-80976082D01*
X227952608Y-81026413D01*
X227878229Y-81165565D01*
X227778133Y-81287533D01*
X227656165Y-81387629D01*
X227517013Y-81462008D01*
X227466682Y-81477275D01*
X227366023Y-81507810D01*
X227287571Y-81515537D01*
X227248346Y-81519400D01*
X226649654Y-81519400D01*
X226610429Y-81515537D01*
X226531977Y-81507810D01*
X226431318Y-81477275D01*
X226380987Y-81462008D01*
X226241835Y-81387629D01*
X226119867Y-81287533D01*
X226019771Y-81165565D01*
X225945392Y-81026413D01*
X225930125Y-80976082D01*
X225899590Y-80875423D01*
X225884125Y-80718400D01*
X225899590Y-80561377D01*
X225945392Y-80410388D01*
X225945392Y-80410387D01*
X226019771Y-80271235D01*
X226119867Y-80149267D01*
X226241835Y-80049171D01*
X226380987Y-79974792D01*
X226431318Y-79959525D01*
X226531977Y-79928990D01*
X226610429Y-79921263D01*
X226649654Y-79917400D01*
X227248346Y-79917400D01*
X227287571Y-79921263D01*
G37*
G36*
X167913048Y-78703122D02*
G01*
X167947387Y-78713539D01*
X167979036Y-78730456D01*
X168006778Y-78753222D01*
X168029544Y-78780964D01*
X168046461Y-78812613D01*
X168056878Y-78846952D01*
X168061000Y-78888807D01*
X168061000Y-80111193D01*
X168056878Y-80153048D01*
X168046461Y-80187387D01*
X168029544Y-80219036D01*
X168006778Y-80246778D01*
X167979036Y-80269544D01*
X167947387Y-80286461D01*
X167913048Y-80296878D01*
X167871193Y-80301000D01*
X166128807Y-80301000D01*
X166086952Y-80296878D01*
X166052613Y-80286461D01*
X166020964Y-80269544D01*
X165993222Y-80246778D01*
X165970456Y-80219036D01*
X165953539Y-80187387D01*
X165943122Y-80153048D01*
X165939000Y-80111193D01*
X165939000Y-78888807D01*
X165943122Y-78846952D01*
X165953539Y-78812613D01*
X165970456Y-78780964D01*
X165993222Y-78753222D01*
X166020964Y-78730456D01*
X166052613Y-78713539D01*
X166086952Y-78703122D01*
X166128807Y-78699000D01*
X167871193Y-78699000D01*
X167913048Y-78703122D01*
G37*
G36*
X225189098Y-77058762D02*
G01*
X225313941Y-77110474D01*
X225313943Y-77110475D01*
X225426299Y-77185549D01*
X225521851Y-77281101D01*
X225596926Y-77393459D01*
X225648638Y-77518302D01*
X225675000Y-77650834D01*
X225675000Y-77785966D01*
X225648638Y-77918498D01*
X225596926Y-78043341D01*
X225596925Y-78043343D01*
X225521851Y-78155699D01*
X225426299Y-78251251D01*
X225313943Y-78326325D01*
X225313942Y-78326326D01*
X225313941Y-78326326D01*
X225189098Y-78378038D01*
X225056566Y-78404400D01*
X224921434Y-78404400D01*
X224788902Y-78378038D01*
X224664059Y-78326326D01*
X224664058Y-78326326D01*
X224664057Y-78326325D01*
X224551701Y-78251251D01*
X224456149Y-78155699D01*
X224381075Y-78043343D01*
X224381074Y-78043341D01*
X224329362Y-77918498D01*
X224303000Y-77785966D01*
X224303000Y-77650834D01*
X224329362Y-77518302D01*
X224381074Y-77393459D01*
X224456149Y-77281101D01*
X224551701Y-77185549D01*
X224664057Y-77110475D01*
X224664059Y-77110474D01*
X224788902Y-77058762D01*
X224921434Y-77032400D01*
X225056566Y-77032400D01*
X225189098Y-77058762D01*
G37*
G36*
X169160098Y-75840362D02*
G01*
X169284941Y-75892074D01*
X169284943Y-75892075D01*
X169397299Y-75967149D01*
X169492851Y-76062701D01*
X169567926Y-76175059D01*
X169619638Y-76299902D01*
X169646000Y-76432434D01*
X169646000Y-76567566D01*
X169619638Y-76700098D01*
X169567926Y-76824941D01*
X169567925Y-76824943D01*
X169492851Y-76937299D01*
X169397299Y-77032851D01*
X169284943Y-77107925D01*
X169284942Y-77107926D01*
X169284941Y-77107926D01*
X169160098Y-77159638D01*
X169027566Y-77186000D01*
X168892434Y-77186000D01*
X168759902Y-77159638D01*
X168635059Y-77107926D01*
X168635058Y-77107926D01*
X168635057Y-77107925D01*
X168522701Y-77032851D01*
X168427149Y-76937299D01*
X168352075Y-76824943D01*
X168352074Y-76824941D01*
X168300362Y-76700098D01*
X168274000Y-76567566D01*
X168274000Y-76432434D01*
X168300362Y-76299902D01*
X168352074Y-76175059D01*
X168427149Y-76062701D01*
X168522701Y-75967149D01*
X168635057Y-75892075D01*
X168635059Y-75892074D01*
X168759902Y-75840362D01*
X168892434Y-75814000D01*
X169027566Y-75814000D01*
X169160098Y-75840362D01*
G37*
G36*
X210268541Y-70604760D02*
G01*
X210532605Y-70714139D01*
X210770258Y-70872934D01*
X210972366Y-71075042D01*
X211131161Y-71312695D01*
X211240540Y-71576759D01*
X211296300Y-71857088D01*
X211296300Y-72142912D01*
X211240540Y-72423241D01*
X211131161Y-72687305D01*
X210972366Y-72924958D01*
X210770258Y-73127066D01*
X210532605Y-73285861D01*
X210268541Y-73395240D01*
X209988212Y-73451000D01*
X209702388Y-73451000D01*
X209422059Y-73395240D01*
X209157995Y-73285861D01*
X208920342Y-73127066D01*
X208718234Y-72924958D01*
X208559439Y-72687305D01*
X208450060Y-72423241D01*
X208394300Y-72142912D01*
X208394300Y-71857088D01*
X208450060Y-71576759D01*
X208559439Y-71312695D01*
X208718234Y-71075042D01*
X208920342Y-70872934D01*
X209157995Y-70714139D01*
X209422059Y-70604760D01*
X209702388Y-70549000D01*
X209988212Y-70549000D01*
X210268541Y-70604760D01*
G37*
G36*
X183423241Y-70604760D02*
G01*
X183687305Y-70714139D01*
X183924958Y-70872934D01*
X184127066Y-71075042D01*
X184285861Y-71312695D01*
X184395240Y-71576759D01*
X184451000Y-71857088D01*
X184451000Y-72142912D01*
X184395240Y-72423241D01*
X184285861Y-72687305D01*
X184127066Y-72924958D01*
X183924958Y-73127066D01*
X183687305Y-73285861D01*
X183423241Y-73395240D01*
X183142912Y-73451000D01*
X182857088Y-73451000D01*
X182576759Y-73395240D01*
X182312695Y-73285861D01*
X182075042Y-73127066D01*
X181872934Y-72924958D01*
X181714139Y-72687305D01*
X181604760Y-72423241D01*
X181549000Y-72142912D01*
X181549000Y-71857088D01*
X181604760Y-71576759D01*
X181714139Y-71312695D01*
X181872934Y-71075042D01*
X182075042Y-70872934D01*
X182312695Y-70714139D01*
X182576759Y-70604760D01*
X182857088Y-70549000D01*
X183142912Y-70549000D01*
X183423241Y-70604760D01*
G37*
G36*
X227302585Y-69478802D02*
G01*
X227452410Y-69508604D01*
X227734674Y-69625521D01*
X227988705Y-69795259D01*
X228204741Y-70011295D01*
X228374479Y-70265326D01*
X228491396Y-70547590D01*
X228551000Y-70847240D01*
X228551000Y-71152760D01*
X228491396Y-71452410D01*
X228374479Y-71734674D01*
X228204741Y-71988705D01*
X227988705Y-72204741D01*
X227734674Y-72374479D01*
X227452410Y-72491396D01*
X227302585Y-72521198D01*
X227152761Y-72551000D01*
X226847239Y-72551000D01*
X226697415Y-72521198D01*
X226547590Y-72491396D01*
X226265326Y-72374479D01*
X226011295Y-72204741D01*
X225795259Y-71988705D01*
X225625521Y-71734674D01*
X225508604Y-71452410D01*
X225449000Y-71152760D01*
X225449000Y-70847240D01*
X225508604Y-70547590D01*
X225625521Y-70265326D01*
X225795259Y-70011295D01*
X226011295Y-69795259D01*
X226265326Y-69625521D01*
X226547590Y-69508604D01*
X226697415Y-69478802D01*
X226847239Y-69449000D01*
X227152761Y-69449000D01*
X227302585Y-69478802D01*
G37*
G36*
X167302585Y-69478802D02*
G01*
X167452410Y-69508604D01*
X167734674Y-69625521D01*
X167988705Y-69795259D01*
X168204741Y-70011295D01*
X168374479Y-70265326D01*
X168491396Y-70547590D01*
X168551000Y-70847240D01*
X168551000Y-71152760D01*
X168491396Y-71452410D01*
X168374479Y-71734674D01*
X168204741Y-71988705D01*
X167988705Y-72204741D01*
X167734674Y-72374479D01*
X167452410Y-72491396D01*
X167302585Y-72521198D01*
X167152761Y-72551000D01*
X166847239Y-72551000D01*
X166697415Y-72521198D01*
X166547590Y-72491396D01*
X166265326Y-72374479D01*
X166011295Y-72204741D01*
X165795259Y-71988705D01*
X165625521Y-71734674D01*
X165508604Y-71452410D01*
X165449000Y-71152760D01*
X165449000Y-70847240D01*
X165508604Y-70547590D01*
X165625521Y-70265326D01*
X165795259Y-70011295D01*
X166011295Y-69795259D01*
X166265326Y-69625521D01*
X166547590Y-69508604D01*
X166697415Y-69478802D01*
X166847239Y-69449000D01*
X167152761Y-69449000D01*
X167302585Y-69478802D01*
G37*
M02*
