G04 #@! TF.GenerationSoftware,KiCad,Pcbnew,(5.1.6)-1*
G04 #@! TF.CreationDate,2020-09-12T11:45:34-05:00*
G04 #@! TF.ProjectId,ContactorDriver,436f6e74-6163-4746-9f72-447269766572,rev?*
G04 #@! TF.SameCoordinates,Original*
G04 #@! TF.FileFunction,Legend,Top*
G04 #@! TF.FilePolarity,Positive*
%FSLAX46Y46*%
G04 Gerber Fmt 4.6, Leading zero omitted, Abs format (unit mm)*
G04 Created by KiCad (PCBNEW (5.1.6)-1) date 2020-09-12 11:45:34*
%MOMM*%
%LPD*%
G01*
G04 APERTURE LIST*
%ADD10C,0.150000*%
%ADD11C,0.120000*%
%ADD12C,0.100000*%
%ADD13C,0.010000*%
%ADD14C,0.152400*%
G04 APERTURE END LIST*
D10*
X211571428Y-155877380D02*
X211571428Y-154877380D01*
X211952380Y-154877380D01*
X212047619Y-154925000D01*
X212095238Y-154972619D01*
X212142857Y-155067857D01*
X212142857Y-155210714D01*
X212095238Y-155305952D01*
X212047619Y-155353571D01*
X211952380Y-155401190D01*
X211571428Y-155401190D01*
X212571428Y-155877380D02*
X212571428Y-155210714D01*
X212571428Y-155401190D02*
X212619047Y-155305952D01*
X212666666Y-155258333D01*
X212761904Y-155210714D01*
X212857142Y-155210714D01*
X213571428Y-155829761D02*
X213476190Y-155877380D01*
X213285714Y-155877380D01*
X213190476Y-155829761D01*
X213142857Y-155734523D01*
X213142857Y-155353571D01*
X213190476Y-155258333D01*
X213285714Y-155210714D01*
X213476190Y-155210714D01*
X213571428Y-155258333D01*
X213619047Y-155353571D01*
X213619047Y-155448809D01*
X213142857Y-155544047D01*
X214476190Y-155829761D02*
X214380952Y-155877380D01*
X214190476Y-155877380D01*
X214095238Y-155829761D01*
X214047619Y-155782142D01*
X214000000Y-155686904D01*
X214000000Y-155401190D01*
X214047619Y-155305952D01*
X214095238Y-155258333D01*
X214190476Y-155210714D01*
X214380952Y-155210714D01*
X214476190Y-155258333D01*
X214904761Y-155877380D02*
X214904761Y-154877380D01*
X215333333Y-155877380D02*
X215333333Y-155353571D01*
X215285714Y-155258333D01*
X215190476Y-155210714D01*
X215047619Y-155210714D01*
X214952380Y-155258333D01*
X214904761Y-155305952D01*
X216238095Y-155877380D02*
X216238095Y-155353571D01*
X216190476Y-155258333D01*
X216095238Y-155210714D01*
X215904761Y-155210714D01*
X215809523Y-155258333D01*
X216238095Y-155829761D02*
X216142857Y-155877380D01*
X215904761Y-155877380D01*
X215809523Y-155829761D01*
X215761904Y-155734523D01*
X215761904Y-155639285D01*
X215809523Y-155544047D01*
X215904761Y-155496428D01*
X216142857Y-155496428D01*
X216238095Y-155448809D01*
X216714285Y-155877380D02*
X216714285Y-155210714D01*
X216714285Y-155401190D02*
X216761904Y-155305952D01*
X216809523Y-155258333D01*
X216904761Y-155210714D01*
X217000000Y-155210714D01*
X217761904Y-155210714D02*
X217761904Y-156020238D01*
X217714285Y-156115476D01*
X217666666Y-156163095D01*
X217571428Y-156210714D01*
X217428571Y-156210714D01*
X217333333Y-156163095D01*
X217761904Y-155829761D02*
X217666666Y-155877380D01*
X217476190Y-155877380D01*
X217380952Y-155829761D01*
X217333333Y-155782142D01*
X217285714Y-155686904D01*
X217285714Y-155401190D01*
X217333333Y-155305952D01*
X217380952Y-155258333D01*
X217476190Y-155210714D01*
X217666666Y-155210714D01*
X217761904Y-155258333D01*
X218619047Y-155829761D02*
X218523809Y-155877380D01*
X218333333Y-155877380D01*
X218238095Y-155829761D01*
X218190476Y-155734523D01*
X218190476Y-155353571D01*
X218238095Y-155258333D01*
X218333333Y-155210714D01*
X218523809Y-155210714D01*
X218619047Y-155258333D01*
X218666666Y-155353571D01*
X218666666Y-155448809D01*
X218190476Y-155544047D01*
X220428571Y-155877380D02*
X220095238Y-155401190D01*
X219857142Y-155877380D02*
X219857142Y-154877380D01*
X220238095Y-154877380D01*
X220333333Y-154925000D01*
X220380952Y-154972619D01*
X220428571Y-155067857D01*
X220428571Y-155210714D01*
X220380952Y-155305952D01*
X220333333Y-155353571D01*
X220238095Y-155401190D01*
X219857142Y-155401190D01*
X221238095Y-155829761D02*
X221142857Y-155877380D01*
X220952380Y-155877380D01*
X220857142Y-155829761D01*
X220809523Y-155734523D01*
X220809523Y-155353571D01*
X220857142Y-155258333D01*
X220952380Y-155210714D01*
X221142857Y-155210714D01*
X221238095Y-155258333D01*
X221285714Y-155353571D01*
X221285714Y-155448809D01*
X220809523Y-155544047D01*
X221666666Y-155829761D02*
X221761904Y-155877380D01*
X221952380Y-155877380D01*
X222047619Y-155829761D01*
X222095238Y-155734523D01*
X222095238Y-155686904D01*
X222047619Y-155591666D01*
X221952380Y-155544047D01*
X221809523Y-155544047D01*
X221714285Y-155496428D01*
X221666666Y-155401190D01*
X221666666Y-155353571D01*
X221714285Y-155258333D01*
X221809523Y-155210714D01*
X221952380Y-155210714D01*
X222047619Y-155258333D01*
X222523809Y-155877380D02*
X222523809Y-155210714D01*
X222523809Y-154877380D02*
X222476190Y-154925000D01*
X222523809Y-154972619D01*
X222571428Y-154925000D01*
X222523809Y-154877380D01*
X222523809Y-154972619D01*
X222952380Y-155829761D02*
X223047619Y-155877380D01*
X223238095Y-155877380D01*
X223333333Y-155829761D01*
X223380952Y-155734523D01*
X223380952Y-155686904D01*
X223333333Y-155591666D01*
X223238095Y-155544047D01*
X223095238Y-155544047D01*
X223000000Y-155496428D01*
X222952380Y-155401190D01*
X222952380Y-155353571D01*
X223000000Y-155258333D01*
X223095238Y-155210714D01*
X223238095Y-155210714D01*
X223333333Y-155258333D01*
X223666666Y-155210714D02*
X224047619Y-155210714D01*
X223809523Y-154877380D02*
X223809523Y-155734523D01*
X223857142Y-155829761D01*
X223952380Y-155877380D01*
X224047619Y-155877380D01*
X224523809Y-155877380D02*
X224428571Y-155829761D01*
X224380952Y-155782142D01*
X224333333Y-155686904D01*
X224333333Y-155401190D01*
X224380952Y-155305952D01*
X224428571Y-155258333D01*
X224523809Y-155210714D01*
X224666666Y-155210714D01*
X224761904Y-155258333D01*
X224809523Y-155305952D01*
X224857142Y-155401190D01*
X224857142Y-155686904D01*
X224809523Y-155782142D01*
X224761904Y-155829761D01*
X224666666Y-155877380D01*
X224523809Y-155877380D01*
X225285714Y-155877380D02*
X225285714Y-155210714D01*
X225285714Y-155401190D02*
X225333333Y-155305952D01*
X225380952Y-155258333D01*
X225476190Y-155210714D01*
X225571428Y-155210714D01*
X217500000Y-157527380D02*
X217500000Y-156527380D01*
X217976190Y-157527380D02*
X217976190Y-156527380D01*
X218547619Y-157527380D01*
X218547619Y-156527380D01*
X218976190Y-156622619D02*
X219023809Y-156575000D01*
X219119047Y-156527380D01*
X219357142Y-156527380D01*
X219452380Y-156575000D01*
X219500000Y-156622619D01*
X219547619Y-156717857D01*
X219547619Y-156813095D01*
X219500000Y-156955952D01*
X218928571Y-157527380D01*
X219547619Y-157527380D01*
X170071428Y-116127380D02*
X170071428Y-115127380D01*
X170452380Y-115127380D01*
X170547619Y-115175000D01*
X170595238Y-115222619D01*
X170642857Y-115317857D01*
X170642857Y-115460714D01*
X170595238Y-115555952D01*
X170547619Y-115603571D01*
X170452380Y-115651190D01*
X170071428Y-115651190D01*
X171071428Y-116127380D02*
X171071428Y-115460714D01*
X171071428Y-115651190D02*
X171119047Y-115555952D01*
X171166666Y-115508333D01*
X171261904Y-115460714D01*
X171357142Y-115460714D01*
X172071428Y-116079761D02*
X171976190Y-116127380D01*
X171785714Y-116127380D01*
X171690476Y-116079761D01*
X171642857Y-115984523D01*
X171642857Y-115603571D01*
X171690476Y-115508333D01*
X171785714Y-115460714D01*
X171976190Y-115460714D01*
X172071428Y-115508333D01*
X172119047Y-115603571D01*
X172119047Y-115698809D01*
X171642857Y-115794047D01*
X172976190Y-116079761D02*
X172880952Y-116127380D01*
X172690476Y-116127380D01*
X172595238Y-116079761D01*
X172547619Y-116032142D01*
X172500000Y-115936904D01*
X172500000Y-115651190D01*
X172547619Y-115555952D01*
X172595238Y-115508333D01*
X172690476Y-115460714D01*
X172880952Y-115460714D01*
X172976190Y-115508333D01*
X173404761Y-116127380D02*
X173404761Y-115127380D01*
X173833333Y-116127380D02*
X173833333Y-115603571D01*
X173785714Y-115508333D01*
X173690476Y-115460714D01*
X173547619Y-115460714D01*
X173452380Y-115508333D01*
X173404761Y-115555952D01*
X174738095Y-116127380D02*
X174738095Y-115603571D01*
X174690476Y-115508333D01*
X174595238Y-115460714D01*
X174404761Y-115460714D01*
X174309523Y-115508333D01*
X174738095Y-116079761D02*
X174642857Y-116127380D01*
X174404761Y-116127380D01*
X174309523Y-116079761D01*
X174261904Y-115984523D01*
X174261904Y-115889285D01*
X174309523Y-115794047D01*
X174404761Y-115746428D01*
X174642857Y-115746428D01*
X174738095Y-115698809D01*
X175214285Y-116127380D02*
X175214285Y-115460714D01*
X175214285Y-115651190D02*
X175261904Y-115555952D01*
X175309523Y-115508333D01*
X175404761Y-115460714D01*
X175500000Y-115460714D01*
X176261904Y-115460714D02*
X176261904Y-116270238D01*
X176214285Y-116365476D01*
X176166666Y-116413095D01*
X176071428Y-116460714D01*
X175928571Y-116460714D01*
X175833333Y-116413095D01*
X176261904Y-116079761D02*
X176166666Y-116127380D01*
X175976190Y-116127380D01*
X175880952Y-116079761D01*
X175833333Y-116032142D01*
X175785714Y-115936904D01*
X175785714Y-115651190D01*
X175833333Y-115555952D01*
X175880952Y-115508333D01*
X175976190Y-115460714D01*
X176166666Y-115460714D01*
X176261904Y-115508333D01*
X177119047Y-116079761D02*
X177023809Y-116127380D01*
X176833333Y-116127380D01*
X176738095Y-116079761D01*
X176690476Y-115984523D01*
X176690476Y-115603571D01*
X176738095Y-115508333D01*
X176833333Y-115460714D01*
X177023809Y-115460714D01*
X177119047Y-115508333D01*
X177166666Y-115603571D01*
X177166666Y-115698809D01*
X176690476Y-115794047D01*
X178928571Y-116127380D02*
X178595238Y-115651190D01*
X178357142Y-116127380D02*
X178357142Y-115127380D01*
X178738095Y-115127380D01*
X178833333Y-115175000D01*
X178880952Y-115222619D01*
X178928571Y-115317857D01*
X178928571Y-115460714D01*
X178880952Y-115555952D01*
X178833333Y-115603571D01*
X178738095Y-115651190D01*
X178357142Y-115651190D01*
X179738095Y-116079761D02*
X179642857Y-116127380D01*
X179452380Y-116127380D01*
X179357142Y-116079761D01*
X179309523Y-115984523D01*
X179309523Y-115603571D01*
X179357142Y-115508333D01*
X179452380Y-115460714D01*
X179642857Y-115460714D01*
X179738095Y-115508333D01*
X179785714Y-115603571D01*
X179785714Y-115698809D01*
X179309523Y-115794047D01*
X180166666Y-116079761D02*
X180261904Y-116127380D01*
X180452380Y-116127380D01*
X180547619Y-116079761D01*
X180595238Y-115984523D01*
X180595238Y-115936904D01*
X180547619Y-115841666D01*
X180452380Y-115794047D01*
X180309523Y-115794047D01*
X180214285Y-115746428D01*
X180166666Y-115651190D01*
X180166666Y-115603571D01*
X180214285Y-115508333D01*
X180309523Y-115460714D01*
X180452380Y-115460714D01*
X180547619Y-115508333D01*
X181023809Y-116127380D02*
X181023809Y-115460714D01*
X181023809Y-115127380D02*
X180976190Y-115175000D01*
X181023809Y-115222619D01*
X181071428Y-115175000D01*
X181023809Y-115127380D01*
X181023809Y-115222619D01*
X181452380Y-116079761D02*
X181547619Y-116127380D01*
X181738095Y-116127380D01*
X181833333Y-116079761D01*
X181880952Y-115984523D01*
X181880952Y-115936904D01*
X181833333Y-115841666D01*
X181738095Y-115794047D01*
X181595238Y-115794047D01*
X181500000Y-115746428D01*
X181452380Y-115651190D01*
X181452380Y-115603571D01*
X181500000Y-115508333D01*
X181595238Y-115460714D01*
X181738095Y-115460714D01*
X181833333Y-115508333D01*
X182166666Y-115460714D02*
X182547619Y-115460714D01*
X182309523Y-115127380D02*
X182309523Y-115984523D01*
X182357142Y-116079761D01*
X182452380Y-116127380D01*
X182547619Y-116127380D01*
X183023809Y-116127380D02*
X182928571Y-116079761D01*
X182880952Y-116032142D01*
X182833333Y-115936904D01*
X182833333Y-115651190D01*
X182880952Y-115555952D01*
X182928571Y-115508333D01*
X183023809Y-115460714D01*
X183166666Y-115460714D01*
X183261904Y-115508333D01*
X183309523Y-115555952D01*
X183357142Y-115651190D01*
X183357142Y-115936904D01*
X183309523Y-116032142D01*
X183261904Y-116079761D01*
X183166666Y-116127380D01*
X183023809Y-116127380D01*
X183785714Y-116127380D02*
X183785714Y-115460714D01*
X183785714Y-115651190D02*
X183833333Y-115555952D01*
X183880952Y-115508333D01*
X183976190Y-115460714D01*
X184071428Y-115460714D01*
X176000000Y-117777380D02*
X176000000Y-116777380D01*
X176476190Y-117777380D02*
X176476190Y-116777380D01*
X177047619Y-117777380D01*
X177047619Y-116777380D01*
X178047619Y-117777380D02*
X177476190Y-117777380D01*
X177761904Y-117777380D02*
X177761904Y-116777380D01*
X177666666Y-116920238D01*
X177571428Y-117015476D01*
X177476190Y-117063095D01*
X220957995Y-118727528D02*
X221719900Y-118727528D01*
X221338947Y-119108480D02*
X221338947Y-118346576D01*
X222719900Y-119108480D02*
X222148471Y-119108480D01*
X222434185Y-119108480D02*
X222434185Y-118108480D01*
X222338947Y-118251338D01*
X222243709Y-118346576D01*
X222148471Y-118394195D01*
X223100852Y-118203719D02*
X223148471Y-118156100D01*
X223243709Y-118108480D01*
X223481804Y-118108480D01*
X223577042Y-118156100D01*
X223624661Y-118203719D01*
X223672280Y-118298957D01*
X223672280Y-118394195D01*
X223624661Y-118537052D01*
X223053233Y-119108480D01*
X223672280Y-119108480D01*
X223957995Y-118108480D02*
X224291328Y-119108480D01*
X224624661Y-118108480D01*
D11*
X197750000Y-70500000D02*
X197750000Y-71000000D01*
X187750000Y-70500000D02*
X197750000Y-70500000D01*
X187750000Y-76000000D02*
X187750000Y-70500000D01*
X197750000Y-76000000D02*
X187750000Y-76000000D01*
X197750000Y-71000000D02*
X197750000Y-76000000D01*
X209500000Y-110000000D02*
X196000000Y-110000000D01*
X209500000Y-105000000D02*
X209500000Y-110000000D01*
X196000000Y-105000000D02*
X209500000Y-105000000D01*
X196000000Y-110000000D02*
X196000000Y-105000000D01*
X196000000Y-93500000D02*
X209500000Y-93500000D01*
X196000000Y-88500000D02*
X196000000Y-93500000D01*
X209500000Y-88500000D02*
X196000000Y-88500000D01*
X209500000Y-93500000D02*
X209500000Y-88500000D01*
D10*
X223802380Y-139952380D02*
X224611904Y-139952380D01*
X224707142Y-139904761D01*
X224754761Y-139857142D01*
X224802380Y-139761904D01*
X224802380Y-139571428D01*
X224754761Y-139476190D01*
X224707142Y-139428571D01*
X224611904Y-139380952D01*
X223802380Y-139380952D01*
X223802380Y-139047619D02*
X223802380Y-138476190D01*
X224802380Y-138761904D02*
X223802380Y-138761904D01*
X224754761Y-138190476D02*
X224802380Y-138047619D01*
X224802380Y-137809523D01*
X224754761Y-137714285D01*
X224707142Y-137666666D01*
X224611904Y-137619047D01*
X224516666Y-137619047D01*
X224421428Y-137666666D01*
X224373809Y-137714285D01*
X224326190Y-137809523D01*
X224278571Y-138000000D01*
X224230952Y-138095238D01*
X224183333Y-138142857D01*
X224088095Y-138190476D01*
X223992857Y-138190476D01*
X223897619Y-138142857D01*
X223850000Y-138095238D01*
X223802380Y-138000000D01*
X223802380Y-137761904D01*
X223850000Y-137619047D01*
X223802380Y-137333333D02*
X224802380Y-137000000D01*
X223802380Y-136666666D01*
X223802380Y-136476190D02*
X223802380Y-135904761D01*
X224802380Y-136190476D02*
X223802380Y-136190476D01*
X226452380Y-150166666D02*
X225452380Y-150166666D01*
X225452380Y-149785714D01*
X225500000Y-149690476D01*
X225547619Y-149642857D01*
X225642857Y-149595238D01*
X225785714Y-149595238D01*
X225880952Y-149642857D01*
X225928571Y-149690476D01*
X225976190Y-149785714D01*
X225976190Y-150166666D01*
X226452380Y-149166666D02*
X225785714Y-149166666D01*
X225976190Y-149166666D02*
X225880952Y-149119047D01*
X225833333Y-149071428D01*
X225785714Y-148976190D01*
X225785714Y-148880952D01*
X226404761Y-148166666D02*
X226452380Y-148261904D01*
X226452380Y-148452380D01*
X226404761Y-148547619D01*
X226309523Y-148595238D01*
X225928571Y-148595238D01*
X225833333Y-148547619D01*
X225785714Y-148452380D01*
X225785714Y-148261904D01*
X225833333Y-148166666D01*
X225928571Y-148119047D01*
X226023809Y-148119047D01*
X226119047Y-148595238D01*
X226404761Y-147261904D02*
X226452380Y-147357142D01*
X226452380Y-147547619D01*
X226404761Y-147642857D01*
X226357142Y-147690476D01*
X226261904Y-147738095D01*
X225976190Y-147738095D01*
X225880952Y-147690476D01*
X225833333Y-147642857D01*
X225785714Y-147547619D01*
X225785714Y-147357142D01*
X225833333Y-147261904D01*
X226452380Y-146833333D02*
X225452380Y-146833333D01*
X226452380Y-146404761D02*
X225928571Y-146404761D01*
X225833333Y-146452380D01*
X225785714Y-146547619D01*
X225785714Y-146690476D01*
X225833333Y-146785714D01*
X225880952Y-146833333D01*
X226452380Y-145500000D02*
X225928571Y-145500000D01*
X225833333Y-145547619D01*
X225785714Y-145642857D01*
X225785714Y-145833333D01*
X225833333Y-145928571D01*
X226404761Y-145500000D02*
X226452380Y-145595238D01*
X226452380Y-145833333D01*
X226404761Y-145928571D01*
X226309523Y-145976190D01*
X226214285Y-145976190D01*
X226119047Y-145928571D01*
X226071428Y-145833333D01*
X226071428Y-145595238D01*
X226023809Y-145500000D01*
X226452380Y-145023809D02*
X225785714Y-145023809D01*
X225976190Y-145023809D02*
X225880952Y-144976190D01*
X225833333Y-144928571D01*
X225785714Y-144833333D01*
X225785714Y-144738095D01*
X225785714Y-143976190D02*
X226595238Y-143976190D01*
X226690476Y-144023809D01*
X226738095Y-144071428D01*
X226785714Y-144166666D01*
X226785714Y-144309523D01*
X226738095Y-144404761D01*
X226404761Y-143976190D02*
X226452380Y-144071428D01*
X226452380Y-144261904D01*
X226404761Y-144357142D01*
X226357142Y-144404761D01*
X226261904Y-144452380D01*
X225976190Y-144452380D01*
X225880952Y-144404761D01*
X225833333Y-144357142D01*
X225785714Y-144261904D01*
X225785714Y-144071428D01*
X225833333Y-143976190D01*
X226404761Y-143119047D02*
X226452380Y-143214285D01*
X226452380Y-143404761D01*
X226404761Y-143500000D01*
X226309523Y-143547619D01*
X225928571Y-143547619D01*
X225833333Y-143500000D01*
X225785714Y-143404761D01*
X225785714Y-143214285D01*
X225833333Y-143119047D01*
X225928571Y-143071428D01*
X226023809Y-143071428D01*
X226119047Y-143547619D01*
X225404761Y-141928571D02*
X226690476Y-142785714D01*
X226357142Y-141023809D02*
X226404761Y-141071428D01*
X226452380Y-141214285D01*
X226452380Y-141309523D01*
X226404761Y-141452380D01*
X226309523Y-141547619D01*
X226214285Y-141595238D01*
X226023809Y-141642857D01*
X225880952Y-141642857D01*
X225690476Y-141595238D01*
X225595238Y-141547619D01*
X225500000Y-141452380D01*
X225452380Y-141309523D01*
X225452380Y-141214285D01*
X225500000Y-141071428D01*
X225547619Y-141023809D01*
X226452380Y-140452380D02*
X226404761Y-140547619D01*
X226357142Y-140595238D01*
X226261904Y-140642857D01*
X225976190Y-140642857D01*
X225880952Y-140595238D01*
X225833333Y-140547619D01*
X225785714Y-140452380D01*
X225785714Y-140309523D01*
X225833333Y-140214285D01*
X225880952Y-140166666D01*
X225976190Y-140119047D01*
X226261904Y-140119047D01*
X226357142Y-140166666D01*
X226404761Y-140214285D01*
X226452380Y-140309523D01*
X226452380Y-140452380D01*
X225785714Y-139690476D02*
X226452380Y-139690476D01*
X225880952Y-139690476D02*
X225833333Y-139642857D01*
X225785714Y-139547619D01*
X225785714Y-139404761D01*
X225833333Y-139309523D01*
X225928571Y-139261904D01*
X226452380Y-139261904D01*
X225785714Y-138928571D02*
X225785714Y-138547619D01*
X225452380Y-138785714D02*
X226309523Y-138785714D01*
X226404761Y-138738095D01*
X226452380Y-138642857D01*
X226452380Y-138547619D01*
X226452380Y-137785714D02*
X225928571Y-137785714D01*
X225833333Y-137833333D01*
X225785714Y-137928571D01*
X225785714Y-138119047D01*
X225833333Y-138214285D01*
X226404761Y-137785714D02*
X226452380Y-137880952D01*
X226452380Y-138119047D01*
X226404761Y-138214285D01*
X226309523Y-138261904D01*
X226214285Y-138261904D01*
X226119047Y-138214285D01*
X226071428Y-138119047D01*
X226071428Y-137880952D01*
X226023809Y-137785714D01*
X226404761Y-136880952D02*
X226452380Y-136976190D01*
X226452380Y-137166666D01*
X226404761Y-137261904D01*
X226357142Y-137309523D01*
X226261904Y-137357142D01*
X225976190Y-137357142D01*
X225880952Y-137309523D01*
X225833333Y-137261904D01*
X225785714Y-137166666D01*
X225785714Y-136976190D01*
X225833333Y-136880952D01*
X225785714Y-136595238D02*
X225785714Y-136214285D01*
X225452380Y-136452380D02*
X226309523Y-136452380D01*
X226404761Y-136404761D01*
X226452380Y-136309523D01*
X226452380Y-136214285D01*
X226452380Y-135738095D02*
X226404761Y-135833333D01*
X226357142Y-135880952D01*
X226261904Y-135928571D01*
X225976190Y-135928571D01*
X225880952Y-135880952D01*
X225833333Y-135833333D01*
X225785714Y-135738095D01*
X225785714Y-135595238D01*
X225833333Y-135500000D01*
X225880952Y-135452380D01*
X225976190Y-135404761D01*
X226261904Y-135404761D01*
X226357142Y-135452380D01*
X226404761Y-135500000D01*
X226452380Y-135595238D01*
X226452380Y-135738095D01*
X226452380Y-134976190D02*
X225785714Y-134976190D01*
X225976190Y-134976190D02*
X225880952Y-134928571D01*
X225833333Y-134880952D01*
X225785714Y-134785714D01*
X225785714Y-134690476D01*
X226452380Y-133595238D02*
X225452380Y-133595238D01*
X225452380Y-133357142D01*
X225500000Y-133214285D01*
X225595238Y-133119047D01*
X225690476Y-133071428D01*
X225880952Y-133023809D01*
X226023809Y-133023809D01*
X226214285Y-133071428D01*
X226309523Y-133119047D01*
X226404761Y-133214285D01*
X226452380Y-133357142D01*
X226452380Y-133595238D01*
X226452380Y-132595238D02*
X225785714Y-132595238D01*
X225976190Y-132595238D02*
X225880952Y-132547619D01*
X225833333Y-132500000D01*
X225785714Y-132404761D01*
X225785714Y-132309523D01*
X226452380Y-131976190D02*
X225785714Y-131976190D01*
X225452380Y-131976190D02*
X225500000Y-132023809D01*
X225547619Y-131976190D01*
X225500000Y-131928571D01*
X225452380Y-131976190D01*
X225547619Y-131976190D01*
X225785714Y-131595238D02*
X226452380Y-131357142D01*
X225785714Y-131119047D01*
X226404761Y-130357142D02*
X226452380Y-130452380D01*
X226452380Y-130642857D01*
X226404761Y-130738095D01*
X226309523Y-130785714D01*
X225928571Y-130785714D01*
X225833333Y-130738095D01*
X225785714Y-130642857D01*
X225785714Y-130452380D01*
X225833333Y-130357142D01*
X225928571Y-130309523D01*
X226023809Y-130309523D01*
X226119047Y-130785714D01*
X226452380Y-129880952D02*
X225785714Y-129880952D01*
X225976190Y-129880952D02*
X225880952Y-129833333D01*
X225833333Y-129785714D01*
X225785714Y-129690476D01*
X225785714Y-129595238D01*
X225785714Y-128595238D02*
X226452380Y-128357142D01*
X225785714Y-128119047D01*
X226452380Y-127214285D02*
X226452380Y-127785714D01*
X226452380Y-127500000D02*
X225452380Y-127500000D01*
X225595238Y-127595238D01*
X225690476Y-127690476D01*
X225738095Y-127785714D01*
X226357142Y-126785714D02*
X226404761Y-126738095D01*
X226452380Y-126785714D01*
X226404761Y-126833333D01*
X226357142Y-126785714D01*
X226452380Y-126785714D01*
X226452380Y-125785714D02*
X226452380Y-126357142D01*
X226452380Y-126071428D02*
X225452380Y-126071428D01*
X225595238Y-126166666D01*
X225690476Y-126261904D01*
X225738095Y-126357142D01*
X227578571Y-141119047D02*
X227578571Y-141452380D01*
X228102380Y-141452380D02*
X227102380Y-141452380D01*
X227102380Y-140976190D01*
X228102380Y-140166666D02*
X227578571Y-140166666D01*
X227483333Y-140214285D01*
X227435714Y-140309523D01*
X227435714Y-140500000D01*
X227483333Y-140595238D01*
X228054761Y-140166666D02*
X228102380Y-140261904D01*
X228102380Y-140500000D01*
X228054761Y-140595238D01*
X227959523Y-140642857D01*
X227864285Y-140642857D01*
X227769047Y-140595238D01*
X227721428Y-140500000D01*
X227721428Y-140261904D01*
X227673809Y-140166666D01*
X228102380Y-139547619D02*
X228054761Y-139642857D01*
X227959523Y-139690476D01*
X227102380Y-139690476D01*
X228102380Y-139023809D02*
X228054761Y-139119047D01*
X227959523Y-139166666D01*
X227102380Y-139166666D01*
X227197619Y-137928571D02*
X227150000Y-137880952D01*
X227102380Y-137785714D01*
X227102380Y-137547619D01*
X227150000Y-137452380D01*
X227197619Y-137404761D01*
X227292857Y-137357142D01*
X227388095Y-137357142D01*
X227530952Y-137404761D01*
X228102380Y-137976190D01*
X228102380Y-137357142D01*
X227102380Y-136738095D02*
X227102380Y-136642857D01*
X227150000Y-136547619D01*
X227197619Y-136500000D01*
X227292857Y-136452380D01*
X227483333Y-136404761D01*
X227721428Y-136404761D01*
X227911904Y-136452380D01*
X228007142Y-136500000D01*
X228054761Y-136547619D01*
X228102380Y-136642857D01*
X228102380Y-136738095D01*
X228054761Y-136833333D01*
X228007142Y-136880952D01*
X227911904Y-136928571D01*
X227721428Y-136976190D01*
X227483333Y-136976190D01*
X227292857Y-136928571D01*
X227197619Y-136880952D01*
X227150000Y-136833333D01*
X227102380Y-136738095D01*
X227197619Y-136023809D02*
X227150000Y-135976190D01*
X227102380Y-135880952D01*
X227102380Y-135642857D01*
X227150000Y-135547619D01*
X227197619Y-135500000D01*
X227292857Y-135452380D01*
X227388095Y-135452380D01*
X227530952Y-135500000D01*
X228102380Y-136071428D01*
X228102380Y-135452380D01*
X227102380Y-134833333D02*
X227102380Y-134738095D01*
X227150000Y-134642857D01*
X227197619Y-134595238D01*
X227292857Y-134547619D01*
X227483333Y-134500000D01*
X227721428Y-134500000D01*
X227911904Y-134547619D01*
X228007142Y-134595238D01*
X228054761Y-134642857D01*
X228102380Y-134738095D01*
X228102380Y-134833333D01*
X228054761Y-134928571D01*
X228007142Y-134976190D01*
X227911904Y-135023809D01*
X227721428Y-135071428D01*
X227483333Y-135071428D01*
X227292857Y-135023809D01*
X227197619Y-134976190D01*
X227150000Y-134928571D01*
X227102380Y-134833333D01*
X201595238Y-95500000D02*
X201500000Y-95452380D01*
X201357142Y-95452380D01*
X201214285Y-95500000D01*
X201119047Y-95595238D01*
X201071428Y-95690476D01*
X201023809Y-95880952D01*
X201023809Y-96023809D01*
X201071428Y-96214285D01*
X201119047Y-96309523D01*
X201214285Y-96404761D01*
X201357142Y-96452380D01*
X201452380Y-96452380D01*
X201595238Y-96404761D01*
X201642857Y-96357142D01*
X201642857Y-96023809D01*
X201452380Y-96023809D01*
X202500000Y-96452380D02*
X202500000Y-95928571D01*
X202452380Y-95833333D01*
X202357142Y-95785714D01*
X202166666Y-95785714D01*
X202071428Y-95833333D01*
X202500000Y-96404761D02*
X202404761Y-96452380D01*
X202166666Y-96452380D01*
X202071428Y-96404761D01*
X202023809Y-96309523D01*
X202023809Y-96214285D01*
X202071428Y-96119047D01*
X202166666Y-96071428D01*
X202404761Y-96071428D01*
X202500000Y-96023809D01*
X202833333Y-95785714D02*
X203214285Y-95785714D01*
X202976190Y-95452380D02*
X202976190Y-96309523D01*
X203023809Y-96404761D01*
X203119047Y-96452380D01*
X203214285Y-96452380D01*
X203928571Y-96404761D02*
X203833333Y-96452380D01*
X203642857Y-96452380D01*
X203547619Y-96404761D01*
X203500000Y-96309523D01*
X203500000Y-95928571D01*
X203547619Y-95833333D01*
X203642857Y-95785714D01*
X203833333Y-95785714D01*
X203928571Y-95833333D01*
X203976190Y-95928571D01*
X203976190Y-96023809D01*
X203500000Y-96119047D01*
X201595238Y-79000000D02*
X201500000Y-78952380D01*
X201357142Y-78952380D01*
X201214285Y-79000000D01*
X201119047Y-79095238D01*
X201071428Y-79190476D01*
X201023809Y-79380952D01*
X201023809Y-79523809D01*
X201071428Y-79714285D01*
X201119047Y-79809523D01*
X201214285Y-79904761D01*
X201357142Y-79952380D01*
X201452380Y-79952380D01*
X201595238Y-79904761D01*
X201642857Y-79857142D01*
X201642857Y-79523809D01*
X201452380Y-79523809D01*
X202500000Y-79952380D02*
X202500000Y-79428571D01*
X202452380Y-79333333D01*
X202357142Y-79285714D01*
X202166666Y-79285714D01*
X202071428Y-79333333D01*
X202500000Y-79904761D02*
X202404761Y-79952380D01*
X202166666Y-79952380D01*
X202071428Y-79904761D01*
X202023809Y-79809523D01*
X202023809Y-79714285D01*
X202071428Y-79619047D01*
X202166666Y-79571428D01*
X202404761Y-79571428D01*
X202500000Y-79523809D01*
X202833333Y-79285714D02*
X203214285Y-79285714D01*
X202976190Y-78952380D02*
X202976190Y-79809523D01*
X203023809Y-79904761D01*
X203119047Y-79952380D01*
X203214285Y-79952380D01*
X203928571Y-79904761D02*
X203833333Y-79952380D01*
X203642857Y-79952380D01*
X203547619Y-79904761D01*
X203500000Y-79809523D01*
X203500000Y-79428571D01*
X203547619Y-79333333D01*
X203642857Y-79285714D01*
X203833333Y-79285714D01*
X203928571Y-79333333D01*
X203976190Y-79428571D01*
X203976190Y-79523809D01*
X203500000Y-79619047D01*
X209083395Y-74000000D02*
X208988157Y-73952380D01*
X208845300Y-73952380D01*
X208702442Y-74000000D01*
X208607204Y-74095238D01*
X208559585Y-74190476D01*
X208511966Y-74380952D01*
X208511966Y-74523809D01*
X208559585Y-74714285D01*
X208607204Y-74809523D01*
X208702442Y-74904761D01*
X208845300Y-74952380D01*
X208940538Y-74952380D01*
X209083395Y-74904761D01*
X209131014Y-74857142D01*
X209131014Y-74523809D01*
X208940538Y-74523809D01*
X209559585Y-74952380D02*
X209559585Y-73952380D01*
X210131014Y-74952380D01*
X210131014Y-73952380D01*
X210607204Y-74952380D02*
X210607204Y-73952380D01*
X210845300Y-73952380D01*
X210988157Y-74000000D01*
X211083395Y-74095238D01*
X211131014Y-74190476D01*
X211178633Y-74380952D01*
X211178633Y-74523809D01*
X211131014Y-74714285D01*
X211083395Y-74809523D01*
X210988157Y-74904761D01*
X210845300Y-74952380D01*
X210607204Y-74952380D01*
X180738095Y-74571428D02*
X181500000Y-74571428D01*
X181119047Y-74952380D02*
X181119047Y-74190476D01*
X182500000Y-74952380D02*
X181928571Y-74952380D01*
X182214285Y-74952380D02*
X182214285Y-73952380D01*
X182119047Y-74095238D01*
X182023809Y-74190476D01*
X181928571Y-74238095D01*
X182880952Y-74047619D02*
X182928571Y-74000000D01*
X183023809Y-73952380D01*
X183261904Y-73952380D01*
X183357142Y-74000000D01*
X183404761Y-74047619D01*
X183452380Y-74142857D01*
X183452380Y-74238095D01*
X183404761Y-74380952D01*
X182833333Y-74952380D01*
X183452380Y-74952380D01*
X183738095Y-73952380D02*
X184071428Y-74952380D01*
X184404761Y-73952380D01*
X173190476Y-76357142D02*
X173142857Y-76404761D01*
X173000000Y-76452380D01*
X172904761Y-76452380D01*
X172761904Y-76404761D01*
X172666666Y-76309523D01*
X172619047Y-76214285D01*
X172571428Y-76023809D01*
X172571428Y-75880952D01*
X172619047Y-75690476D01*
X172666666Y-75595238D01*
X172761904Y-75500000D01*
X172904761Y-75452380D01*
X173000000Y-75452380D01*
X173142857Y-75500000D01*
X173190476Y-75547619D01*
X173761904Y-76452380D02*
X173666666Y-76404761D01*
X173619047Y-76357142D01*
X173571428Y-76261904D01*
X173571428Y-75976190D01*
X173619047Y-75880952D01*
X173666666Y-75833333D01*
X173761904Y-75785714D01*
X173904761Y-75785714D01*
X174000000Y-75833333D01*
X174047619Y-75880952D01*
X174095238Y-75976190D01*
X174095238Y-76261904D01*
X174047619Y-76357142D01*
X174000000Y-76404761D01*
X173904761Y-76452380D01*
X173761904Y-76452380D01*
X174523809Y-75785714D02*
X174523809Y-76452380D01*
X174523809Y-75880952D02*
X174571428Y-75833333D01*
X174666666Y-75785714D01*
X174809523Y-75785714D01*
X174904761Y-75833333D01*
X174952380Y-75928571D01*
X174952380Y-76452380D01*
X175285714Y-75785714D02*
X175666666Y-75785714D01*
X175428571Y-75452380D02*
X175428571Y-76309523D01*
X175476190Y-76404761D01*
X175571428Y-76452380D01*
X175666666Y-76452380D01*
X176428571Y-76452380D02*
X176428571Y-75928571D01*
X176380952Y-75833333D01*
X176285714Y-75785714D01*
X176095238Y-75785714D01*
X176000000Y-75833333D01*
X176428571Y-76404761D02*
X176333333Y-76452380D01*
X176095238Y-76452380D01*
X176000000Y-76404761D01*
X175952380Y-76309523D01*
X175952380Y-76214285D01*
X176000000Y-76119047D01*
X176095238Y-76071428D01*
X176333333Y-76071428D01*
X176428571Y-76023809D01*
X177333333Y-76404761D02*
X177238095Y-76452380D01*
X177047619Y-76452380D01*
X176952380Y-76404761D01*
X176904761Y-76357142D01*
X176857142Y-76261904D01*
X176857142Y-75976190D01*
X176904761Y-75880952D01*
X176952380Y-75833333D01*
X177047619Y-75785714D01*
X177238095Y-75785714D01*
X177333333Y-75833333D01*
X177619047Y-75785714D02*
X178000000Y-75785714D01*
X177761904Y-75452380D02*
X177761904Y-76309523D01*
X177809523Y-76404761D01*
X177904761Y-76452380D01*
X178000000Y-76452380D01*
X178476190Y-76452380D02*
X178380952Y-76404761D01*
X178333333Y-76357142D01*
X178285714Y-76261904D01*
X178285714Y-75976190D01*
X178333333Y-75880952D01*
X178380952Y-75833333D01*
X178476190Y-75785714D01*
X178619047Y-75785714D01*
X178714285Y-75833333D01*
X178761904Y-75880952D01*
X178809523Y-75976190D01*
X178809523Y-76261904D01*
X178761904Y-76357142D01*
X178714285Y-76404761D01*
X178619047Y-76452380D01*
X178476190Y-76452380D01*
X179238095Y-76452380D02*
X179238095Y-75785714D01*
X179238095Y-75976190D02*
X179285714Y-75880952D01*
X179333333Y-75833333D01*
X179428571Y-75785714D01*
X179523809Y-75785714D01*
X172476190Y-108952380D02*
X172476190Y-107952380D01*
X172857142Y-107952380D01*
X172952380Y-108000000D01*
X173000000Y-108047619D01*
X173047619Y-108142857D01*
X173047619Y-108285714D01*
X173000000Y-108380952D01*
X172952380Y-108428571D01*
X172857142Y-108476190D01*
X172476190Y-108476190D01*
X173476190Y-108952380D02*
X173476190Y-108285714D01*
X173476190Y-108476190D02*
X173523809Y-108380952D01*
X173571428Y-108333333D01*
X173666666Y-108285714D01*
X173761904Y-108285714D01*
X174476190Y-108904761D02*
X174380952Y-108952380D01*
X174190476Y-108952380D01*
X174095238Y-108904761D01*
X174047619Y-108809523D01*
X174047619Y-108428571D01*
X174095238Y-108333333D01*
X174190476Y-108285714D01*
X174380952Y-108285714D01*
X174476190Y-108333333D01*
X174523809Y-108428571D01*
X174523809Y-108523809D01*
X174047619Y-108619047D01*
X175380952Y-108904761D02*
X175285714Y-108952380D01*
X175095238Y-108952380D01*
X175000000Y-108904761D01*
X174952380Y-108857142D01*
X174904761Y-108761904D01*
X174904761Y-108476190D01*
X174952380Y-108380952D01*
X175000000Y-108333333D01*
X175095238Y-108285714D01*
X175285714Y-108285714D01*
X175380952Y-108333333D01*
X175809523Y-108952380D02*
X175809523Y-107952380D01*
X176238095Y-108952380D02*
X176238095Y-108428571D01*
X176190476Y-108333333D01*
X176095238Y-108285714D01*
X175952380Y-108285714D01*
X175857142Y-108333333D01*
X175809523Y-108380952D01*
X177142857Y-108952380D02*
X177142857Y-108428571D01*
X177095238Y-108333333D01*
X177000000Y-108285714D01*
X176809523Y-108285714D01*
X176714285Y-108333333D01*
X177142857Y-108904761D02*
X177047619Y-108952380D01*
X176809523Y-108952380D01*
X176714285Y-108904761D01*
X176666666Y-108809523D01*
X176666666Y-108714285D01*
X176714285Y-108619047D01*
X176809523Y-108571428D01*
X177047619Y-108571428D01*
X177142857Y-108523809D01*
X177619047Y-108952380D02*
X177619047Y-108285714D01*
X177619047Y-108476190D02*
X177666666Y-108380952D01*
X177714285Y-108333333D01*
X177809523Y-108285714D01*
X177904761Y-108285714D01*
X178666666Y-108285714D02*
X178666666Y-109095238D01*
X178619047Y-109190476D01*
X178571428Y-109238095D01*
X178476190Y-109285714D01*
X178333333Y-109285714D01*
X178238095Y-109238095D01*
X178666666Y-108904761D02*
X178571428Y-108952380D01*
X178380952Y-108952380D01*
X178285714Y-108904761D01*
X178238095Y-108857142D01*
X178190476Y-108761904D01*
X178190476Y-108476190D01*
X178238095Y-108380952D01*
X178285714Y-108333333D01*
X178380952Y-108285714D01*
X178571428Y-108285714D01*
X178666666Y-108333333D01*
X179523809Y-108904761D02*
X179428571Y-108952380D01*
X179238095Y-108952380D01*
X179142857Y-108904761D01*
X179095238Y-108809523D01*
X179095238Y-108428571D01*
X179142857Y-108333333D01*
X179238095Y-108285714D01*
X179428571Y-108285714D01*
X179523809Y-108333333D01*
X179571428Y-108428571D01*
X179571428Y-108523809D01*
X179095238Y-108619047D01*
X188178571Y-71952380D02*
X188178571Y-70952380D01*
X188559523Y-70952380D01*
X188654761Y-71000000D01*
X188702380Y-71047619D01*
X188750000Y-71142857D01*
X188750000Y-71285714D01*
X188702380Y-71380952D01*
X188654761Y-71428571D01*
X188559523Y-71476190D01*
X188178571Y-71476190D01*
X189321428Y-71952380D02*
X189226190Y-71904761D01*
X189178571Y-71857142D01*
X189130952Y-71761904D01*
X189130952Y-71476190D01*
X189178571Y-71380952D01*
X189226190Y-71333333D01*
X189321428Y-71285714D01*
X189464285Y-71285714D01*
X189559523Y-71333333D01*
X189607142Y-71380952D01*
X189654761Y-71476190D01*
X189654761Y-71761904D01*
X189607142Y-71857142D01*
X189559523Y-71904761D01*
X189464285Y-71952380D01*
X189321428Y-71952380D01*
X189988095Y-71285714D02*
X190178571Y-71952380D01*
X190369047Y-71476190D01*
X190559523Y-71952380D01*
X190750000Y-71285714D01*
X191511904Y-71904761D02*
X191416666Y-71952380D01*
X191226190Y-71952380D01*
X191130952Y-71904761D01*
X191083333Y-71809523D01*
X191083333Y-71428571D01*
X191130952Y-71333333D01*
X191226190Y-71285714D01*
X191416666Y-71285714D01*
X191511904Y-71333333D01*
X191559523Y-71428571D01*
X191559523Y-71523809D01*
X191083333Y-71619047D01*
X191988095Y-71952380D02*
X191988095Y-71285714D01*
X191988095Y-71476190D02*
X192035714Y-71380952D01*
X192083333Y-71333333D01*
X192178571Y-71285714D01*
X192273809Y-71285714D01*
X193940476Y-71857142D02*
X193892857Y-71904761D01*
X193750000Y-71952380D01*
X193654761Y-71952380D01*
X193511904Y-71904761D01*
X193416666Y-71809523D01*
X193369047Y-71714285D01*
X193321428Y-71523809D01*
X193321428Y-71380952D01*
X193369047Y-71190476D01*
X193416666Y-71095238D01*
X193511904Y-71000000D01*
X193654761Y-70952380D01*
X193750000Y-70952380D01*
X193892857Y-71000000D01*
X193940476Y-71047619D01*
X194369047Y-71952380D02*
X194369047Y-70952380D01*
X194797619Y-71952380D02*
X194797619Y-71428571D01*
X194750000Y-71333333D01*
X194654761Y-71285714D01*
X194511904Y-71285714D01*
X194416666Y-71333333D01*
X194369047Y-71380952D01*
X195654761Y-71904761D02*
X195559523Y-71952380D01*
X195369047Y-71952380D01*
X195273809Y-71904761D01*
X195226190Y-71809523D01*
X195226190Y-71428571D01*
X195273809Y-71333333D01*
X195369047Y-71285714D01*
X195559523Y-71285714D01*
X195654761Y-71333333D01*
X195702380Y-71428571D01*
X195702380Y-71523809D01*
X195226190Y-71619047D01*
X196559523Y-71904761D02*
X196464285Y-71952380D01*
X196273809Y-71952380D01*
X196178571Y-71904761D01*
X196130952Y-71857142D01*
X196083333Y-71761904D01*
X196083333Y-71476190D01*
X196130952Y-71380952D01*
X196178571Y-71333333D01*
X196273809Y-71285714D01*
X196464285Y-71285714D01*
X196559523Y-71333333D01*
X196988095Y-71952380D02*
X196988095Y-70952380D01*
X197083333Y-71571428D02*
X197369047Y-71952380D01*
X197369047Y-71285714D02*
X196988095Y-71666666D01*
X196630952Y-109702380D02*
X196630952Y-108702380D01*
X197011904Y-108702380D01*
X197107142Y-108750000D01*
X197154761Y-108797619D01*
X197202380Y-108892857D01*
X197202380Y-109035714D01*
X197154761Y-109130952D01*
X197107142Y-109178571D01*
X197011904Y-109226190D01*
X196630952Y-109226190D01*
X197630952Y-109702380D02*
X197630952Y-109035714D01*
X197630952Y-109226190D02*
X197678571Y-109130952D01*
X197726190Y-109083333D01*
X197821428Y-109035714D01*
X197916666Y-109035714D01*
X198630952Y-109654761D02*
X198535714Y-109702380D01*
X198345238Y-109702380D01*
X198250000Y-109654761D01*
X198202380Y-109559523D01*
X198202380Y-109178571D01*
X198250000Y-109083333D01*
X198345238Y-109035714D01*
X198535714Y-109035714D01*
X198630952Y-109083333D01*
X198678571Y-109178571D01*
X198678571Y-109273809D01*
X198202380Y-109369047D01*
X199535714Y-109654761D02*
X199440476Y-109702380D01*
X199250000Y-109702380D01*
X199154761Y-109654761D01*
X199107142Y-109607142D01*
X199059523Y-109511904D01*
X199059523Y-109226190D01*
X199107142Y-109130952D01*
X199154761Y-109083333D01*
X199250000Y-109035714D01*
X199440476Y-109035714D01*
X199535714Y-109083333D01*
X199964285Y-109702380D02*
X199964285Y-108702380D01*
X200392857Y-109702380D02*
X200392857Y-109178571D01*
X200345238Y-109083333D01*
X200250000Y-109035714D01*
X200107142Y-109035714D01*
X200011904Y-109083333D01*
X199964285Y-109130952D01*
X201297619Y-109702380D02*
X201297619Y-109178571D01*
X201250000Y-109083333D01*
X201154761Y-109035714D01*
X200964285Y-109035714D01*
X200869047Y-109083333D01*
X201297619Y-109654761D02*
X201202380Y-109702380D01*
X200964285Y-109702380D01*
X200869047Y-109654761D01*
X200821428Y-109559523D01*
X200821428Y-109464285D01*
X200869047Y-109369047D01*
X200964285Y-109321428D01*
X201202380Y-109321428D01*
X201297619Y-109273809D01*
X201773809Y-109702380D02*
X201773809Y-109035714D01*
X201773809Y-109226190D02*
X201821428Y-109130952D01*
X201869047Y-109083333D01*
X201964285Y-109035714D01*
X202059523Y-109035714D01*
X202821428Y-109035714D02*
X202821428Y-109845238D01*
X202773809Y-109940476D01*
X202726190Y-109988095D01*
X202630952Y-110035714D01*
X202488095Y-110035714D01*
X202392857Y-109988095D01*
X202821428Y-109654761D02*
X202726190Y-109702380D01*
X202535714Y-109702380D01*
X202440476Y-109654761D01*
X202392857Y-109607142D01*
X202345238Y-109511904D01*
X202345238Y-109226190D01*
X202392857Y-109130952D01*
X202440476Y-109083333D01*
X202535714Y-109035714D01*
X202726190Y-109035714D01*
X202821428Y-109083333D01*
X203678571Y-109654761D02*
X203583333Y-109702380D01*
X203392857Y-109702380D01*
X203297619Y-109654761D01*
X203250000Y-109559523D01*
X203250000Y-109178571D01*
X203297619Y-109083333D01*
X203392857Y-109035714D01*
X203583333Y-109035714D01*
X203678571Y-109083333D01*
X203726190Y-109178571D01*
X203726190Y-109273809D01*
X203250000Y-109369047D01*
X205488095Y-109607142D02*
X205440476Y-109654761D01*
X205297619Y-109702380D01*
X205202380Y-109702380D01*
X205059523Y-109654761D01*
X204964285Y-109559523D01*
X204916666Y-109464285D01*
X204869047Y-109273809D01*
X204869047Y-109130952D01*
X204916666Y-108940476D01*
X204964285Y-108845238D01*
X205059523Y-108750000D01*
X205202380Y-108702380D01*
X205297619Y-108702380D01*
X205440476Y-108750000D01*
X205488095Y-108797619D01*
X205916666Y-109702380D02*
X205916666Y-108702380D01*
X206345238Y-109702380D02*
X206345238Y-109178571D01*
X206297619Y-109083333D01*
X206202380Y-109035714D01*
X206059523Y-109035714D01*
X205964285Y-109083333D01*
X205916666Y-109130952D01*
X207202380Y-109654761D02*
X207107142Y-109702380D01*
X206916666Y-109702380D01*
X206821428Y-109654761D01*
X206773809Y-109559523D01*
X206773809Y-109178571D01*
X206821428Y-109083333D01*
X206916666Y-109035714D01*
X207107142Y-109035714D01*
X207202380Y-109083333D01*
X207250000Y-109178571D01*
X207250000Y-109273809D01*
X206773809Y-109369047D01*
X208107142Y-109654761D02*
X208011904Y-109702380D01*
X207821428Y-109702380D01*
X207726190Y-109654761D01*
X207678571Y-109607142D01*
X207630952Y-109511904D01*
X207630952Y-109226190D01*
X207678571Y-109130952D01*
X207726190Y-109083333D01*
X207821428Y-109035714D01*
X208011904Y-109035714D01*
X208107142Y-109083333D01*
X208535714Y-109702380D02*
X208535714Y-108702380D01*
X208630952Y-109321428D02*
X208916666Y-109702380D01*
X208916666Y-109035714D02*
X208535714Y-109416666D01*
X197345238Y-93107142D02*
X197297619Y-93154761D01*
X197154761Y-93202380D01*
X197059523Y-93202380D01*
X196916666Y-93154761D01*
X196821428Y-93059523D01*
X196773809Y-92964285D01*
X196726190Y-92773809D01*
X196726190Y-92630952D01*
X196773809Y-92440476D01*
X196821428Y-92345238D01*
X196916666Y-92250000D01*
X197059523Y-92202380D01*
X197154761Y-92202380D01*
X197297619Y-92250000D01*
X197345238Y-92297619D01*
X197916666Y-93202380D02*
X197821428Y-93154761D01*
X197773809Y-93107142D01*
X197726190Y-93011904D01*
X197726190Y-92726190D01*
X197773809Y-92630952D01*
X197821428Y-92583333D01*
X197916666Y-92535714D01*
X198059523Y-92535714D01*
X198154761Y-92583333D01*
X198202380Y-92630952D01*
X198250000Y-92726190D01*
X198250000Y-93011904D01*
X198202380Y-93107142D01*
X198154761Y-93154761D01*
X198059523Y-93202380D01*
X197916666Y-93202380D01*
X198678571Y-92535714D02*
X198678571Y-93202380D01*
X198678571Y-92630952D02*
X198726190Y-92583333D01*
X198821428Y-92535714D01*
X198964285Y-92535714D01*
X199059523Y-92583333D01*
X199107142Y-92678571D01*
X199107142Y-93202380D01*
X199440476Y-92535714D02*
X199821428Y-92535714D01*
X199583333Y-92202380D02*
X199583333Y-93059523D01*
X199630952Y-93154761D01*
X199726190Y-93202380D01*
X199821428Y-93202380D01*
X200583333Y-93202380D02*
X200583333Y-92678571D01*
X200535714Y-92583333D01*
X200440476Y-92535714D01*
X200250000Y-92535714D01*
X200154761Y-92583333D01*
X200583333Y-93154761D02*
X200488095Y-93202380D01*
X200250000Y-93202380D01*
X200154761Y-93154761D01*
X200107142Y-93059523D01*
X200107142Y-92964285D01*
X200154761Y-92869047D01*
X200250000Y-92821428D01*
X200488095Y-92821428D01*
X200583333Y-92773809D01*
X201488095Y-93154761D02*
X201392857Y-93202380D01*
X201202380Y-93202380D01*
X201107142Y-93154761D01*
X201059523Y-93107142D01*
X201011904Y-93011904D01*
X201011904Y-92726190D01*
X201059523Y-92630952D01*
X201107142Y-92583333D01*
X201202380Y-92535714D01*
X201392857Y-92535714D01*
X201488095Y-92583333D01*
X201773809Y-92535714D02*
X202154761Y-92535714D01*
X201916666Y-92202380D02*
X201916666Y-93059523D01*
X201964285Y-93154761D01*
X202059523Y-93202380D01*
X202154761Y-93202380D01*
X202630952Y-93202380D02*
X202535714Y-93154761D01*
X202488095Y-93107142D01*
X202440476Y-93011904D01*
X202440476Y-92726190D01*
X202488095Y-92630952D01*
X202535714Y-92583333D01*
X202630952Y-92535714D01*
X202773809Y-92535714D01*
X202869047Y-92583333D01*
X202916666Y-92630952D01*
X202964285Y-92726190D01*
X202964285Y-93011904D01*
X202916666Y-93107142D01*
X202869047Y-93154761D01*
X202773809Y-93202380D01*
X202630952Y-93202380D01*
X203392857Y-93202380D02*
X203392857Y-92535714D01*
X203392857Y-92726190D02*
X203440476Y-92630952D01*
X203488095Y-92583333D01*
X203583333Y-92535714D01*
X203678571Y-92535714D01*
X205345238Y-93107142D02*
X205297619Y-93154761D01*
X205154761Y-93202380D01*
X205059523Y-93202380D01*
X204916666Y-93154761D01*
X204821428Y-93059523D01*
X204773809Y-92964285D01*
X204726190Y-92773809D01*
X204726190Y-92630952D01*
X204773809Y-92440476D01*
X204821428Y-92345238D01*
X204916666Y-92250000D01*
X205059523Y-92202380D01*
X205154761Y-92202380D01*
X205297619Y-92250000D01*
X205345238Y-92297619D01*
X205773809Y-93202380D02*
X205773809Y-92202380D01*
X206202380Y-93202380D02*
X206202380Y-92678571D01*
X206154761Y-92583333D01*
X206059523Y-92535714D01*
X205916666Y-92535714D01*
X205821428Y-92583333D01*
X205773809Y-92630952D01*
X207059523Y-93154761D02*
X206964285Y-93202380D01*
X206773809Y-93202380D01*
X206678571Y-93154761D01*
X206630952Y-93059523D01*
X206630952Y-92678571D01*
X206678571Y-92583333D01*
X206773809Y-92535714D01*
X206964285Y-92535714D01*
X207059523Y-92583333D01*
X207107142Y-92678571D01*
X207107142Y-92773809D01*
X206630952Y-92869047D01*
X207964285Y-93154761D02*
X207869047Y-93202380D01*
X207678571Y-93202380D01*
X207583333Y-93154761D01*
X207535714Y-93107142D01*
X207488095Y-93011904D01*
X207488095Y-92726190D01*
X207535714Y-92630952D01*
X207583333Y-92583333D01*
X207678571Y-92535714D01*
X207869047Y-92535714D01*
X207964285Y-92583333D01*
X208392857Y-93202380D02*
X208392857Y-92202380D01*
X208488095Y-92821428D02*
X208773809Y-93202380D01*
X208773809Y-92535714D02*
X208392857Y-92916666D01*
X222129790Y-93251280D02*
X222129790Y-92251280D01*
X222510742Y-92251280D01*
X222605980Y-92298900D01*
X222653600Y-92346519D01*
X222701219Y-92441757D01*
X222701219Y-92584614D01*
X222653600Y-92679852D01*
X222605980Y-92727471D01*
X222510742Y-92775090D01*
X222129790Y-92775090D01*
X223129790Y-93251280D02*
X223129790Y-92584614D01*
X223129790Y-92775090D02*
X223177409Y-92679852D01*
X223225028Y-92632233D01*
X223320266Y-92584614D01*
X223415504Y-92584614D01*
X224129790Y-93203661D02*
X224034552Y-93251280D01*
X223844076Y-93251280D01*
X223748838Y-93203661D01*
X223701219Y-93108423D01*
X223701219Y-92727471D01*
X223748838Y-92632233D01*
X223844076Y-92584614D01*
X224034552Y-92584614D01*
X224129790Y-92632233D01*
X224177409Y-92727471D01*
X224177409Y-92822709D01*
X223701219Y-92917947D01*
X225034552Y-93203661D02*
X224939314Y-93251280D01*
X224748838Y-93251280D01*
X224653600Y-93203661D01*
X224605980Y-93156042D01*
X224558361Y-93060804D01*
X224558361Y-92775090D01*
X224605980Y-92679852D01*
X224653600Y-92632233D01*
X224748838Y-92584614D01*
X224939314Y-92584614D01*
X225034552Y-92632233D01*
X225463123Y-93251280D02*
X225463123Y-92251280D01*
X225891695Y-93251280D02*
X225891695Y-92727471D01*
X225844076Y-92632233D01*
X225748838Y-92584614D01*
X225605980Y-92584614D01*
X225510742Y-92632233D01*
X225463123Y-92679852D01*
X226796457Y-93251280D02*
X226796457Y-92727471D01*
X226748838Y-92632233D01*
X226653600Y-92584614D01*
X226463123Y-92584614D01*
X226367885Y-92632233D01*
X226796457Y-93203661D02*
X226701219Y-93251280D01*
X226463123Y-93251280D01*
X226367885Y-93203661D01*
X226320266Y-93108423D01*
X226320266Y-93013185D01*
X226367885Y-92917947D01*
X226463123Y-92870328D01*
X226701219Y-92870328D01*
X226796457Y-92822709D01*
X227272647Y-93251280D02*
X227272647Y-92584614D01*
X227272647Y-92775090D02*
X227320266Y-92679852D01*
X227367885Y-92632233D01*
X227463123Y-92584614D01*
X227558361Y-92584614D01*
X228320266Y-92584614D02*
X228320266Y-93394138D01*
X228272647Y-93489376D01*
X228225028Y-93536995D01*
X228129790Y-93584614D01*
X227986933Y-93584614D01*
X227891695Y-93536995D01*
X228320266Y-93203661D02*
X228225028Y-93251280D01*
X228034552Y-93251280D01*
X227939314Y-93203661D01*
X227891695Y-93156042D01*
X227844076Y-93060804D01*
X227844076Y-92775090D01*
X227891695Y-92679852D01*
X227939314Y-92632233D01*
X228034552Y-92584614D01*
X228225028Y-92584614D01*
X228320266Y-92632233D01*
X229177409Y-93203661D02*
X229082171Y-93251280D01*
X228891695Y-93251280D01*
X228796457Y-93203661D01*
X228748838Y-93108423D01*
X228748838Y-92727471D01*
X228796457Y-92632233D01*
X228891695Y-92584614D01*
X229082171Y-92584614D01*
X229177409Y-92632233D01*
X229225028Y-92727471D01*
X229225028Y-92822709D01*
X228748838Y-92917947D01*
X223072676Y-76620642D02*
X223025057Y-76668261D01*
X222882200Y-76715880D01*
X222786961Y-76715880D01*
X222644104Y-76668261D01*
X222548866Y-76573023D01*
X222501247Y-76477785D01*
X222453628Y-76287309D01*
X222453628Y-76144452D01*
X222501247Y-75953976D01*
X222548866Y-75858738D01*
X222644104Y-75763500D01*
X222786961Y-75715880D01*
X222882200Y-75715880D01*
X223025057Y-75763500D01*
X223072676Y-75811119D01*
X223644104Y-76715880D02*
X223548866Y-76668261D01*
X223501247Y-76620642D01*
X223453628Y-76525404D01*
X223453628Y-76239690D01*
X223501247Y-76144452D01*
X223548866Y-76096833D01*
X223644104Y-76049214D01*
X223786961Y-76049214D01*
X223882200Y-76096833D01*
X223929819Y-76144452D01*
X223977438Y-76239690D01*
X223977438Y-76525404D01*
X223929819Y-76620642D01*
X223882200Y-76668261D01*
X223786961Y-76715880D01*
X223644104Y-76715880D01*
X224406009Y-76049214D02*
X224406009Y-76715880D01*
X224406009Y-76144452D02*
X224453628Y-76096833D01*
X224548866Y-76049214D01*
X224691723Y-76049214D01*
X224786961Y-76096833D01*
X224834580Y-76192071D01*
X224834580Y-76715880D01*
X225167914Y-76049214D02*
X225548866Y-76049214D01*
X225310771Y-75715880D02*
X225310771Y-76573023D01*
X225358390Y-76668261D01*
X225453628Y-76715880D01*
X225548866Y-76715880D01*
X226310771Y-76715880D02*
X226310771Y-76192071D01*
X226263152Y-76096833D01*
X226167914Y-76049214D01*
X225977438Y-76049214D01*
X225882200Y-76096833D01*
X226310771Y-76668261D02*
X226215533Y-76715880D01*
X225977438Y-76715880D01*
X225882200Y-76668261D01*
X225834580Y-76573023D01*
X225834580Y-76477785D01*
X225882200Y-76382547D01*
X225977438Y-76334928D01*
X226215533Y-76334928D01*
X226310771Y-76287309D01*
X227215533Y-76668261D02*
X227120295Y-76715880D01*
X226929819Y-76715880D01*
X226834580Y-76668261D01*
X226786961Y-76620642D01*
X226739342Y-76525404D01*
X226739342Y-76239690D01*
X226786961Y-76144452D01*
X226834580Y-76096833D01*
X226929819Y-76049214D01*
X227120295Y-76049214D01*
X227215533Y-76096833D01*
X227501247Y-76049214D02*
X227882200Y-76049214D01*
X227644104Y-75715880D02*
X227644104Y-76573023D01*
X227691723Y-76668261D01*
X227786961Y-76715880D01*
X227882200Y-76715880D01*
X228358390Y-76715880D02*
X228263152Y-76668261D01*
X228215533Y-76620642D01*
X228167914Y-76525404D01*
X228167914Y-76239690D01*
X228215533Y-76144452D01*
X228263152Y-76096833D01*
X228358390Y-76049214D01*
X228501247Y-76049214D01*
X228596485Y-76096833D01*
X228644104Y-76144452D01*
X228691723Y-76239690D01*
X228691723Y-76525404D01*
X228644104Y-76620642D01*
X228596485Y-76668261D01*
X228501247Y-76715880D01*
X228358390Y-76715880D01*
X229120295Y-76715880D02*
X229120295Y-76049214D01*
X229120295Y-76239690D02*
X229167914Y-76144452D01*
X229215533Y-76096833D01*
X229310771Y-76049214D01*
X229406009Y-76049214D01*
X224934709Y-111424980D02*
X224934709Y-110424980D01*
X225315661Y-110424980D01*
X225410900Y-110472600D01*
X225458519Y-110520219D01*
X225506138Y-110615457D01*
X225506138Y-110758314D01*
X225458519Y-110853552D01*
X225410900Y-110901171D01*
X225315661Y-110948790D01*
X224934709Y-110948790D01*
X226077566Y-111424980D02*
X225982328Y-111377361D01*
X225934709Y-111329742D01*
X225887090Y-111234504D01*
X225887090Y-110948790D01*
X225934709Y-110853552D01*
X225982328Y-110805933D01*
X226077566Y-110758314D01*
X226220423Y-110758314D01*
X226315661Y-110805933D01*
X226363280Y-110853552D01*
X226410900Y-110948790D01*
X226410900Y-111234504D01*
X226363280Y-111329742D01*
X226315661Y-111377361D01*
X226220423Y-111424980D01*
X226077566Y-111424980D01*
X226744233Y-110758314D02*
X226934709Y-111424980D01*
X227125185Y-110948790D01*
X227315661Y-111424980D01*
X227506138Y-110758314D01*
X228268042Y-111377361D02*
X228172804Y-111424980D01*
X227982328Y-111424980D01*
X227887090Y-111377361D01*
X227839471Y-111282123D01*
X227839471Y-110901171D01*
X227887090Y-110805933D01*
X227982328Y-110758314D01*
X228172804Y-110758314D01*
X228268042Y-110805933D01*
X228315661Y-110901171D01*
X228315661Y-110996409D01*
X227839471Y-111091647D01*
X228744233Y-111424980D02*
X228744233Y-110758314D01*
X228744233Y-110948790D02*
X228791852Y-110853552D01*
X228839471Y-110805933D01*
X228934709Y-110758314D01*
X229029947Y-110758314D01*
D11*
X171000000Y-88500000D02*
X171000000Y-88000000D01*
X169500000Y-88500000D02*
X171000000Y-88500000D01*
X171000000Y-85500000D02*
X171000000Y-86000000D01*
X169500000Y-85500000D02*
X171000000Y-85500000D01*
D10*
X169761904Y-87166666D02*
X170238095Y-87166666D01*
X169666666Y-87452380D02*
X170000000Y-86452380D01*
X170333333Y-87452380D01*
X170666666Y-86452380D02*
X170666666Y-87261904D01*
X170714285Y-87357142D01*
X170761904Y-87404761D01*
X170857142Y-87452380D01*
X171047619Y-87452380D01*
X171142857Y-87404761D01*
X171190476Y-87357142D01*
X171238095Y-87261904D01*
X171238095Y-86452380D01*
X171619047Y-86452380D02*
X172285714Y-87452380D01*
X172285714Y-86452380D02*
X171619047Y-87452380D01*
X169619047Y-79571428D02*
X170380952Y-79571428D01*
X170000000Y-79952380D02*
X170000000Y-79190476D01*
X169619047Y-82571428D02*
X170380952Y-82571428D01*
X169619047Y-102071428D02*
X170380952Y-102071428D01*
X169619047Y-99071428D02*
X170380952Y-99071428D01*
X170000000Y-99452380D02*
X170000000Y-98690476D01*
X222554895Y-115285900D02*
X222459657Y-115238280D01*
X222316800Y-115238280D01*
X222173942Y-115285900D01*
X222078704Y-115381138D01*
X222031085Y-115476376D01*
X221983466Y-115666852D01*
X221983466Y-115809709D01*
X222031085Y-116000185D01*
X222078704Y-116095423D01*
X222173942Y-116190661D01*
X222316800Y-116238280D01*
X222412038Y-116238280D01*
X222554895Y-116190661D01*
X222602514Y-116143042D01*
X222602514Y-115809709D01*
X222412038Y-115809709D01*
X223031085Y-116238280D02*
X223031085Y-115238280D01*
X223602514Y-116238280D01*
X223602514Y-115238280D01*
X224078704Y-116238280D02*
X224078704Y-115238280D01*
X224316800Y-115238280D01*
X224459657Y-115285900D01*
X224554895Y-115381138D01*
X224602514Y-115476376D01*
X224650133Y-115666852D01*
X224650133Y-115809709D01*
X224602514Y-116000185D01*
X224554895Y-116095423D01*
X224459657Y-116190661D01*
X224316800Y-116238280D01*
X224078704Y-116238280D01*
X223010504Y-83646971D02*
X223343838Y-83646971D01*
X223486695Y-84170780D02*
X223010504Y-84170780D01*
X223010504Y-83170780D01*
X223486695Y-83170780D01*
X223915266Y-84170780D02*
X223915266Y-83170780D01*
X224486695Y-84170780D01*
X224486695Y-83170780D01*
X222364395Y-80284700D02*
X222269157Y-80237080D01*
X222126300Y-80237080D01*
X221983442Y-80284700D01*
X221888204Y-80379938D01*
X221840585Y-80475176D01*
X221792966Y-80665652D01*
X221792966Y-80808509D01*
X221840585Y-80998985D01*
X221888204Y-81094223D01*
X221983442Y-81189461D01*
X222126300Y-81237080D01*
X222221538Y-81237080D01*
X222364395Y-81189461D01*
X222412014Y-81141842D01*
X222412014Y-80808509D01*
X222221538Y-80808509D01*
X222840585Y-81237080D02*
X222840585Y-80237080D01*
X223412014Y-81237080D01*
X223412014Y-80237080D01*
X223888204Y-81237080D02*
X223888204Y-80237080D01*
X224126300Y-80237080D01*
X224269157Y-80284700D01*
X224364395Y-80379938D01*
X224412014Y-80475176D01*
X224459633Y-80665652D01*
X224459633Y-80808509D01*
X224412014Y-80998985D01*
X224364395Y-81094223D01*
X224269157Y-81189461D01*
X224126300Y-81237080D01*
X223888204Y-81237080D01*
X223086704Y-100347471D02*
X223420038Y-100347471D01*
X223562895Y-100871280D02*
X223086704Y-100871280D01*
X223086704Y-99871280D01*
X223562895Y-99871280D01*
X223991466Y-100871280D02*
X223991466Y-99871280D01*
X224562895Y-100871280D01*
X224562895Y-99871280D01*
X222465995Y-96870900D02*
X222370757Y-96823280D01*
X222227900Y-96823280D01*
X222085042Y-96870900D01*
X221989804Y-96966138D01*
X221942185Y-97061376D01*
X221894566Y-97251852D01*
X221894566Y-97394709D01*
X221942185Y-97585185D01*
X221989804Y-97680423D01*
X222085042Y-97775661D01*
X222227900Y-97823280D01*
X222323138Y-97823280D01*
X222465995Y-97775661D01*
X222513614Y-97728042D01*
X222513614Y-97394709D01*
X222323138Y-97394709D01*
X222942185Y-97823280D02*
X222942185Y-96823280D01*
X223513614Y-97823280D01*
X223513614Y-96823280D01*
X223989804Y-97823280D02*
X223989804Y-96823280D01*
X224227900Y-96823280D01*
X224370757Y-96870900D01*
X224465995Y-96966138D01*
X224513614Y-97061376D01*
X224561233Y-97251852D01*
X224561233Y-97394709D01*
X224513614Y-97585185D01*
X224465995Y-97680423D01*
X224370757Y-97775661D01*
X224227900Y-97823280D01*
X223989804Y-97823280D01*
X211627380Y-145428571D02*
X210627380Y-145428571D01*
X210627380Y-145047619D01*
X210675000Y-144952380D01*
X210722619Y-144904761D01*
X210817857Y-144857142D01*
X210960714Y-144857142D01*
X211055952Y-144904761D01*
X211103571Y-144952380D01*
X211151190Y-145047619D01*
X211151190Y-145428571D01*
X211627380Y-144428571D02*
X210960714Y-144428571D01*
X211151190Y-144428571D02*
X211055952Y-144380952D01*
X211008333Y-144333333D01*
X210960714Y-144238095D01*
X210960714Y-144142857D01*
X211579761Y-143428571D02*
X211627380Y-143523809D01*
X211627380Y-143714285D01*
X211579761Y-143809523D01*
X211484523Y-143857142D01*
X211103571Y-143857142D01*
X211008333Y-143809523D01*
X210960714Y-143714285D01*
X210960714Y-143523809D01*
X211008333Y-143428571D01*
X211103571Y-143380952D01*
X211198809Y-143380952D01*
X211294047Y-143857142D01*
X211579761Y-142523809D02*
X211627380Y-142619047D01*
X211627380Y-142809523D01*
X211579761Y-142904761D01*
X211532142Y-142952380D01*
X211436904Y-143000000D01*
X211151190Y-143000000D01*
X211055952Y-142952380D01*
X211008333Y-142904761D01*
X210960714Y-142809523D01*
X210960714Y-142619047D01*
X211008333Y-142523809D01*
X211627380Y-142095238D02*
X210627380Y-142095238D01*
X211627380Y-141666666D02*
X211103571Y-141666666D01*
X211008333Y-141714285D01*
X210960714Y-141809523D01*
X210960714Y-141952380D01*
X211008333Y-142047619D01*
X211055952Y-142095238D01*
X211627380Y-140761904D02*
X211103571Y-140761904D01*
X211008333Y-140809523D01*
X210960714Y-140904761D01*
X210960714Y-141095238D01*
X211008333Y-141190476D01*
X211579761Y-140761904D02*
X211627380Y-140857142D01*
X211627380Y-141095238D01*
X211579761Y-141190476D01*
X211484523Y-141238095D01*
X211389285Y-141238095D01*
X211294047Y-141190476D01*
X211246428Y-141095238D01*
X211246428Y-140857142D01*
X211198809Y-140761904D01*
X211627380Y-140285714D02*
X210960714Y-140285714D01*
X211151190Y-140285714D02*
X211055952Y-140238095D01*
X211008333Y-140190476D01*
X210960714Y-140095238D01*
X210960714Y-140000000D01*
X210960714Y-139238095D02*
X211770238Y-139238095D01*
X211865476Y-139285714D01*
X211913095Y-139333333D01*
X211960714Y-139428571D01*
X211960714Y-139571428D01*
X211913095Y-139666666D01*
X211579761Y-139238095D02*
X211627380Y-139333333D01*
X211627380Y-139523809D01*
X211579761Y-139619047D01*
X211532142Y-139666666D01*
X211436904Y-139714285D01*
X211151190Y-139714285D01*
X211055952Y-139666666D01*
X211008333Y-139619047D01*
X210960714Y-139523809D01*
X210960714Y-139333333D01*
X211008333Y-139238095D01*
X211579761Y-138380952D02*
X211627380Y-138476190D01*
X211627380Y-138666666D01*
X211579761Y-138761904D01*
X211484523Y-138809523D01*
X211103571Y-138809523D01*
X211008333Y-138761904D01*
X210960714Y-138666666D01*
X210960714Y-138476190D01*
X211008333Y-138380952D01*
X211103571Y-138333333D01*
X211198809Y-138333333D01*
X211294047Y-138809523D01*
X211627380Y-136571428D02*
X211151190Y-136904761D01*
X211627380Y-137142857D02*
X210627380Y-137142857D01*
X210627380Y-136761904D01*
X210675000Y-136666666D01*
X210722619Y-136619047D01*
X210817857Y-136571428D01*
X210960714Y-136571428D01*
X211055952Y-136619047D01*
X211103571Y-136666666D01*
X211151190Y-136761904D01*
X211151190Y-137142857D01*
X211579761Y-135761904D02*
X211627380Y-135857142D01*
X211627380Y-136047619D01*
X211579761Y-136142857D01*
X211484523Y-136190476D01*
X211103571Y-136190476D01*
X211008333Y-136142857D01*
X210960714Y-136047619D01*
X210960714Y-135857142D01*
X211008333Y-135761904D01*
X211103571Y-135714285D01*
X211198809Y-135714285D01*
X211294047Y-136190476D01*
X211579761Y-135333333D02*
X211627380Y-135238095D01*
X211627380Y-135047619D01*
X211579761Y-134952380D01*
X211484523Y-134904761D01*
X211436904Y-134904761D01*
X211341666Y-134952380D01*
X211294047Y-135047619D01*
X211294047Y-135190476D01*
X211246428Y-135285714D01*
X211151190Y-135333333D01*
X211103571Y-135333333D01*
X211008333Y-135285714D01*
X210960714Y-135190476D01*
X210960714Y-135047619D01*
X211008333Y-134952380D01*
X211627380Y-134476190D02*
X210960714Y-134476190D01*
X210627380Y-134476190D02*
X210675000Y-134523809D01*
X210722619Y-134476190D01*
X210675000Y-134428571D01*
X210627380Y-134476190D01*
X210722619Y-134476190D01*
X211579761Y-134047619D02*
X211627380Y-133952380D01*
X211627380Y-133761904D01*
X211579761Y-133666666D01*
X211484523Y-133619047D01*
X211436904Y-133619047D01*
X211341666Y-133666666D01*
X211294047Y-133761904D01*
X211294047Y-133904761D01*
X211246428Y-134000000D01*
X211151190Y-134047619D01*
X211103571Y-134047619D01*
X211008333Y-134000000D01*
X210960714Y-133904761D01*
X210960714Y-133761904D01*
X211008333Y-133666666D01*
X210960714Y-133333333D02*
X210960714Y-132952380D01*
X210627380Y-133190476D02*
X211484523Y-133190476D01*
X211579761Y-133142857D01*
X211627380Y-133047619D01*
X211627380Y-132952380D01*
X211627380Y-132476190D02*
X211579761Y-132571428D01*
X211532142Y-132619047D01*
X211436904Y-132666666D01*
X211151190Y-132666666D01*
X211055952Y-132619047D01*
X211008333Y-132571428D01*
X210960714Y-132476190D01*
X210960714Y-132333333D01*
X211008333Y-132238095D01*
X211055952Y-132190476D01*
X211151190Y-132142857D01*
X211436904Y-132142857D01*
X211532142Y-132190476D01*
X211579761Y-132238095D01*
X211627380Y-132333333D01*
X211627380Y-132476190D01*
X211627380Y-131714285D02*
X210960714Y-131714285D01*
X211151190Y-131714285D02*
X211055952Y-131666666D01*
X211008333Y-131619047D01*
X210960714Y-131523809D01*
X210960714Y-131428571D01*
X213277380Y-140214285D02*
X212277380Y-140214285D01*
X212753571Y-140214285D02*
X212753571Y-139642857D01*
X213277380Y-139642857D02*
X212277380Y-139642857D01*
X213229761Y-139214285D02*
X213277380Y-139071428D01*
X213277380Y-138833333D01*
X213229761Y-138738095D01*
X213182142Y-138690476D01*
X213086904Y-138642857D01*
X212991666Y-138642857D01*
X212896428Y-138690476D01*
X212848809Y-138738095D01*
X212801190Y-138833333D01*
X212753571Y-139023809D01*
X212705952Y-139119047D01*
X212658333Y-139166666D01*
X212563095Y-139214285D01*
X212467857Y-139214285D01*
X212372619Y-139166666D01*
X212325000Y-139119047D01*
X212277380Y-139023809D01*
X212277380Y-138785714D01*
X212325000Y-138642857D01*
X212277380Y-137738095D02*
X212277380Y-138214285D01*
X212753571Y-138261904D01*
X212705952Y-138214285D01*
X212658333Y-138119047D01*
X212658333Y-137880952D01*
X212705952Y-137785714D01*
X212753571Y-137738095D01*
X212848809Y-137690476D01*
X213086904Y-137690476D01*
X213182142Y-137738095D01*
X213229761Y-137785714D01*
X213277380Y-137880952D01*
X213277380Y-138119047D01*
X213229761Y-138214285D01*
X213182142Y-138261904D01*
X212277380Y-137071428D02*
X212277380Y-136976190D01*
X212325000Y-136880952D01*
X212372619Y-136833333D01*
X212467857Y-136785714D01*
X212658333Y-136738095D01*
X212896428Y-136738095D01*
X213086904Y-136785714D01*
X213182142Y-136833333D01*
X213229761Y-136880952D01*
X213277380Y-136976190D01*
X213277380Y-137071428D01*
X213229761Y-137166666D01*
X213182142Y-137214285D01*
X213086904Y-137261904D01*
X212896428Y-137309523D01*
X212658333Y-137309523D01*
X212467857Y-137261904D01*
X212372619Y-137214285D01*
X212325000Y-137166666D01*
X212277380Y-137071428D01*
D12*
G36*
X202000000Y-158200000D02*
G01*
X193000000Y-158200000D01*
X193000000Y-118500000D01*
X202000000Y-118500000D01*
X202000000Y-158200000D01*
G37*
X202000000Y-158200000D02*
X193000000Y-158200000D01*
X193000000Y-118500000D01*
X202000000Y-118500000D01*
X202000000Y-158200000D01*
D11*
X193000000Y-158200000D02*
X202000000Y-158200000D01*
X202000000Y-118500000D02*
X193000000Y-118500000D01*
X202000000Y-158200000D02*
X202000000Y-118500000D01*
X193000000Y-118500000D02*
X193000000Y-158200000D01*
X208400000Y-158200000D02*
X202000000Y-158200000D01*
X187000000Y-118500000D02*
X193000000Y-118500000D01*
X211278400Y-106446000D02*
X211278400Y-108946000D01*
X217778400Y-106446000D02*
X217778400Y-108946000D01*
X211278400Y-104296000D02*
X211278400Y-104946000D01*
X217778400Y-104296000D02*
X211278400Y-104296000D01*
X217778400Y-104946000D02*
X217778400Y-104296000D01*
X211278400Y-111096000D02*
X211278400Y-110446000D01*
X217778400Y-111096000D02*
X211278400Y-111096000D01*
X217778400Y-110446000D02*
X217778400Y-111096000D01*
X211037100Y-90113800D02*
X211037100Y-92613800D01*
X217537100Y-90113800D02*
X217537100Y-92613800D01*
X211037100Y-87963800D02*
X211037100Y-88613800D01*
X217537100Y-87963800D02*
X211037100Y-87963800D01*
X217537100Y-88613800D02*
X217537100Y-87963800D01*
X211037100Y-94763800D02*
X211037100Y-94113800D01*
X217537100Y-94763800D02*
X211037100Y-94763800D01*
X217537100Y-94113800D02*
X217537100Y-94763800D01*
X205916600Y-73995600D02*
X205916600Y-71495600D01*
X199416600Y-73995600D02*
X199416600Y-71495600D01*
X205916600Y-76145600D02*
X205916600Y-75495600D01*
X199416600Y-76145600D02*
X205916600Y-76145600D01*
X199416600Y-75495600D02*
X199416600Y-76145600D01*
X205916600Y-69345600D02*
X205916600Y-69995600D01*
X199416600Y-69345600D02*
X205916600Y-69345600D01*
X199416600Y-69995600D02*
X199416600Y-69345600D01*
D13*
G36*
X215617039Y-134724978D02*
G01*
X215699318Y-134417332D01*
X215973482Y-133790758D01*
X216393275Y-133186490D01*
X216935341Y-132637655D01*
X216981975Y-132598230D01*
X217247321Y-132385568D01*
X217479225Y-132215188D01*
X217647853Y-132107457D01*
X217723370Y-132082740D01*
X217724302Y-132091521D01*
X217670987Y-132162702D01*
X217534039Y-132331084D01*
X217339479Y-132564831D01*
X217267442Y-132650441D01*
X216738873Y-133362867D01*
X216358433Y-134080105D01*
X216124838Y-134816574D01*
X216036807Y-135586691D01*
X216093057Y-136404873D01*
X216292308Y-137285537D01*
X216633276Y-138243103D01*
X216746400Y-138509686D01*
X216901373Y-138878483D01*
X216982557Y-139103585D01*
X216995023Y-139191145D01*
X216943842Y-139147317D01*
X216834085Y-138978254D01*
X216670824Y-138690110D01*
X216459130Y-138289038D01*
X216291458Y-137957666D01*
X215934603Y-137178536D01*
X215693189Y-136492342D01*
X215562760Y-135872445D01*
X215538863Y-135292203D01*
X215617039Y-134724978D01*
G37*
X215617039Y-134724978D02*
X215699318Y-134417332D01*
X215973482Y-133790758D01*
X216393275Y-133186490D01*
X216935341Y-132637655D01*
X216981975Y-132598230D01*
X217247321Y-132385568D01*
X217479225Y-132215188D01*
X217647853Y-132107457D01*
X217723370Y-132082740D01*
X217724302Y-132091521D01*
X217670987Y-132162702D01*
X217534039Y-132331084D01*
X217339479Y-132564831D01*
X217267442Y-132650441D01*
X216738873Y-133362867D01*
X216358433Y-134080105D01*
X216124838Y-134816574D01*
X216036807Y-135586691D01*
X216093057Y-136404873D01*
X216292308Y-137285537D01*
X216633276Y-138243103D01*
X216746400Y-138509686D01*
X216901373Y-138878483D01*
X216982557Y-139103585D01*
X216995023Y-139191145D01*
X216943842Y-139147317D01*
X216834085Y-138978254D01*
X216670824Y-138690110D01*
X216459130Y-138289038D01*
X216291458Y-137957666D01*
X215934603Y-137178536D01*
X215693189Y-136492342D01*
X215562760Y-135872445D01*
X215538863Y-135292203D01*
X215617039Y-134724978D01*
G36*
X219008171Y-138612000D02*
G01*
X219035224Y-138421456D01*
X219084973Y-138357025D01*
X219105834Y-138359409D01*
X219201847Y-138462111D01*
X219238722Y-138578132D01*
X219310816Y-138721636D01*
X219492722Y-138763156D01*
X219807587Y-138792487D01*
X220021292Y-138868927D01*
X220100663Y-138980568D01*
X220100667Y-138981425D01*
X220075620Y-139041787D01*
X219980418Y-139063041D01*
X219784973Y-139044963D01*
X219459193Y-138987327D01*
X219402167Y-138976225D01*
X219277742Y-139008456D01*
X219254000Y-139101537D01*
X219208815Y-139247642D01*
X219158517Y-139287716D01*
X219178527Y-139338831D01*
X219320276Y-139443855D01*
X219553984Y-139581098D01*
X219581851Y-139596070D01*
X219840806Y-139749682D01*
X220026760Y-139889732D01*
X220100593Y-139986620D01*
X220100667Y-139988624D01*
X220023915Y-140078170D01*
X219819296Y-140178572D01*
X219643136Y-140237659D01*
X219320851Y-140326341D01*
X219127502Y-140361640D01*
X219031449Y-140343933D01*
X219001054Y-140273594D01*
X219000000Y-140245280D01*
X219072943Y-140138358D01*
X219232834Y-140068875D01*
X219502998Y-140002079D01*
X219614036Y-139942903D01*
X219573914Y-139871520D01*
X219390599Y-139768103D01*
X219359834Y-139752833D01*
X219000000Y-139575306D01*
X219000000Y-138949931D01*
X219008171Y-138612000D01*
G37*
X219008171Y-138612000D02*
X219035224Y-138421456D01*
X219084973Y-138357025D01*
X219105834Y-138359409D01*
X219201847Y-138462111D01*
X219238722Y-138578132D01*
X219310816Y-138721636D01*
X219492722Y-138763156D01*
X219807587Y-138792487D01*
X220021292Y-138868927D01*
X220100663Y-138980568D01*
X220100667Y-138981425D01*
X220075620Y-139041787D01*
X219980418Y-139063041D01*
X219784973Y-139044963D01*
X219459193Y-138987327D01*
X219402167Y-138976225D01*
X219277742Y-139008456D01*
X219254000Y-139101537D01*
X219208815Y-139247642D01*
X219158517Y-139287716D01*
X219178527Y-139338831D01*
X219320276Y-139443855D01*
X219553984Y-139581098D01*
X219581851Y-139596070D01*
X219840806Y-139749682D01*
X220026760Y-139889732D01*
X220100593Y-139986620D01*
X220100667Y-139988624D01*
X220023915Y-140078170D01*
X219819296Y-140178572D01*
X219643136Y-140237659D01*
X219320851Y-140326341D01*
X219127502Y-140361640D01*
X219031449Y-140343933D01*
X219001054Y-140273594D01*
X219000000Y-140245280D01*
X219072943Y-140138358D01*
X219232834Y-140068875D01*
X219502998Y-140002079D01*
X219614036Y-139942903D01*
X219573914Y-139871520D01*
X219390599Y-139768103D01*
X219359834Y-139752833D01*
X219000000Y-139575306D01*
X219000000Y-138949931D01*
X219008171Y-138612000D01*
G36*
X219013596Y-141543781D02*
G01*
X219060668Y-141413756D01*
X219127000Y-141386666D01*
X219230509Y-141456950D01*
X219254000Y-141553084D01*
X219285175Y-141658805D01*
X219404676Y-141725004D01*
X219651465Y-141772166D01*
X219677334Y-141775658D01*
X219963175Y-141835134D01*
X220091210Y-141918818D01*
X220100667Y-141955852D01*
X220068698Y-142026747D01*
X219948218Y-142047907D01*
X219702366Y-142025064D01*
X219677334Y-142021666D01*
X219423201Y-141995050D01*
X219295507Y-142010819D01*
X219255076Y-142076074D01*
X219254000Y-142098388D01*
X219189644Y-142215657D01*
X219127000Y-142233333D01*
X219047135Y-142188014D01*
X219008127Y-142031106D01*
X219000000Y-141810000D01*
X219013596Y-141543781D01*
G37*
X219013596Y-141543781D02*
X219060668Y-141413756D01*
X219127000Y-141386666D01*
X219230509Y-141456950D01*
X219254000Y-141553084D01*
X219285175Y-141658805D01*
X219404676Y-141725004D01*
X219651465Y-141772166D01*
X219677334Y-141775658D01*
X219963175Y-141835134D01*
X220091210Y-141918818D01*
X220100667Y-141955852D01*
X220068698Y-142026747D01*
X219948218Y-142047907D01*
X219702366Y-142025064D01*
X219677334Y-142021666D01*
X219423201Y-141995050D01*
X219295507Y-142010819D01*
X219255076Y-142076074D01*
X219254000Y-142098388D01*
X219189644Y-142215657D01*
X219127000Y-142233333D01*
X219047135Y-142188014D01*
X219008127Y-142031106D01*
X219000000Y-141810000D01*
X219013596Y-141543781D01*
G36*
X219043696Y-140582865D02*
G01*
X219105834Y-140561588D01*
X219188619Y-140664029D01*
X219211667Y-140794000D01*
X219251982Y-140976081D01*
X219348427Y-141010729D01*
X219464247Y-140892099D01*
X219491596Y-140838526D01*
X219639319Y-140664391D01*
X219828490Y-140639657D01*
X220017372Y-140766231D01*
X220053533Y-140812839D01*
X220167544Y-141023917D01*
X220159270Y-141195081D01*
X220108836Y-141291680D01*
X220007447Y-141372317D01*
X219927410Y-141317074D01*
X219901665Y-141159008D01*
X219910225Y-141092354D01*
X219900631Y-140924282D01*
X219815169Y-140878118D01*
X219699420Y-140957770D01*
X219633910Y-141068672D01*
X219484940Y-141244951D01*
X219284311Y-141287567D01*
X219122933Y-141213958D01*
X219044772Y-141085162D01*
X219004491Y-140898073D01*
X219003621Y-140711153D01*
X219043696Y-140582865D01*
G37*
X219043696Y-140582865D02*
X219105834Y-140561588D01*
X219188619Y-140664029D01*
X219211667Y-140794000D01*
X219251982Y-140976081D01*
X219348427Y-141010729D01*
X219464247Y-140892099D01*
X219491596Y-140838526D01*
X219639319Y-140664391D01*
X219828490Y-140639657D01*
X220017372Y-140766231D01*
X220053533Y-140812839D01*
X220167544Y-141023917D01*
X220159270Y-141195081D01*
X220108836Y-141291680D01*
X220007447Y-141372317D01*
X219927410Y-141317074D01*
X219901665Y-141159008D01*
X219910225Y-141092354D01*
X219900631Y-140924282D01*
X219815169Y-140878118D01*
X219699420Y-140957770D01*
X219633910Y-141068672D01*
X219484940Y-141244951D01*
X219284311Y-141287567D01*
X219122933Y-141213958D01*
X219044772Y-141085162D01*
X219004491Y-140898073D01*
X219003621Y-140711153D01*
X219043696Y-140582865D01*
G36*
X219069315Y-142421383D02*
G01*
X219148167Y-142404686D01*
X219362794Y-142428444D01*
X219622471Y-142483594D01*
X219860123Y-142552892D01*
X220008676Y-142619093D01*
X220020361Y-142628918D01*
X220115001Y-142818991D01*
X220143677Y-143067669D01*
X220095932Y-143270500D01*
X219960585Y-143369141D01*
X219736812Y-143419599D01*
X219476811Y-143424653D01*
X219232782Y-143387081D01*
X219056923Y-143309665D01*
X219000000Y-143212142D01*
X219058109Y-143152474D01*
X219246093Y-143135290D01*
X219473009Y-143147627D01*
X219740789Y-143165826D01*
X219878448Y-143153735D01*
X219924415Y-143097317D01*
X219917509Y-142985260D01*
X219875283Y-142861007D01*
X219763762Y-142782779D01*
X219539613Y-142725202D01*
X219444500Y-142708259D01*
X219158155Y-142638605D01*
X219013690Y-142554235D01*
X219000000Y-142517759D01*
X219069315Y-142421383D01*
G37*
X219069315Y-142421383D02*
X219148167Y-142404686D01*
X219362794Y-142428444D01*
X219622471Y-142483594D01*
X219860123Y-142552892D01*
X220008676Y-142619093D01*
X220020361Y-142628918D01*
X220115001Y-142818991D01*
X220143677Y-143067669D01*
X220095932Y-143270500D01*
X219960585Y-143369141D01*
X219736812Y-143419599D01*
X219476811Y-143424653D01*
X219232782Y-143387081D01*
X219056923Y-143309665D01*
X219000000Y-143212142D01*
X219058109Y-143152474D01*
X219246093Y-143135290D01*
X219473009Y-143147627D01*
X219740789Y-143165826D01*
X219878448Y-143153735D01*
X219924415Y-143097317D01*
X219917509Y-142985260D01*
X219875283Y-142861007D01*
X219763762Y-142782779D01*
X219539613Y-142725202D01*
X219444500Y-142708259D01*
X219158155Y-142638605D01*
X219013690Y-142554235D01*
X219000000Y-142517759D01*
X219069315Y-142421383D01*
G36*
X217755662Y-138996057D02*
G01*
X217809837Y-137381699D01*
X217895813Y-135613779D01*
X218013673Y-133693471D01*
X218031663Y-133428000D01*
X218077680Y-132775054D01*
X218128602Y-132084444D01*
X218180553Y-131406667D01*
X218229655Y-130792222D01*
X218272030Y-130291607D01*
X218275458Y-130253000D01*
X218388801Y-128983000D01*
X218334567Y-130888000D01*
X218314732Y-131704920D01*
X218299324Y-132590947D01*
X218288234Y-133526118D01*
X218281357Y-134490473D01*
X218278585Y-135464050D01*
X218279811Y-136426887D01*
X218284927Y-137359022D01*
X218293828Y-138240493D01*
X218306404Y-139051340D01*
X218322551Y-139771599D01*
X218342159Y-140381310D01*
X218365123Y-140860511D01*
X218389767Y-141175000D01*
X218509425Y-142149560D01*
X218642204Y-142962254D01*
X218790644Y-143620220D01*
X218957283Y-144130594D01*
X219144661Y-144500513D01*
X219355318Y-144737114D01*
X219591793Y-144847533D01*
X219700189Y-144858000D01*
X219942824Y-144808075D01*
X220186887Y-144687500D01*
X220193430Y-144682901D01*
X220345554Y-144584737D01*
X220413634Y-144574275D01*
X220395003Y-144664724D01*
X220286997Y-144869295D01*
X220089745Y-145196666D01*
X219799938Y-145625374D01*
X219505182Y-145989208D01*
X219229932Y-146261715D01*
X218998643Y-146416441D01*
X218944878Y-146435108D01*
X218685570Y-146421021D01*
X218457240Y-146241618D01*
X218259968Y-145898074D01*
X218093839Y-145391565D01*
X217958934Y-144723266D01*
X217855336Y-143894353D01*
X217783127Y-142906000D01*
X217742390Y-141759382D01*
X217733208Y-140455677D01*
X217755662Y-138996057D01*
G37*
X217755662Y-138996057D02*
X217809837Y-137381699D01*
X217895813Y-135613779D01*
X218013673Y-133693471D01*
X218031663Y-133428000D01*
X218077680Y-132775054D01*
X218128602Y-132084444D01*
X218180553Y-131406667D01*
X218229655Y-130792222D01*
X218272030Y-130291607D01*
X218275458Y-130253000D01*
X218388801Y-128983000D01*
X218334567Y-130888000D01*
X218314732Y-131704920D01*
X218299324Y-132590947D01*
X218288234Y-133526118D01*
X218281357Y-134490473D01*
X218278585Y-135464050D01*
X218279811Y-136426887D01*
X218284927Y-137359022D01*
X218293828Y-138240493D01*
X218306404Y-139051340D01*
X218322551Y-139771599D01*
X218342159Y-140381310D01*
X218365123Y-140860511D01*
X218389767Y-141175000D01*
X218509425Y-142149560D01*
X218642204Y-142962254D01*
X218790644Y-143620220D01*
X218957283Y-144130594D01*
X219144661Y-144500513D01*
X219355318Y-144737114D01*
X219591793Y-144847533D01*
X219700189Y-144858000D01*
X219942824Y-144808075D01*
X220186887Y-144687500D01*
X220193430Y-144682901D01*
X220345554Y-144584737D01*
X220413634Y-144574275D01*
X220395003Y-144664724D01*
X220286997Y-144869295D01*
X220089745Y-145196666D01*
X219799938Y-145625374D01*
X219505182Y-145989208D01*
X219229932Y-146261715D01*
X218998643Y-146416441D01*
X218944878Y-146435108D01*
X218685570Y-146421021D01*
X218457240Y-146241618D01*
X218259968Y-145898074D01*
X218093839Y-145391565D01*
X217958934Y-144723266D01*
X217855336Y-143894353D01*
X217783127Y-142906000D01*
X217742390Y-141759382D01*
X217733208Y-140455677D01*
X217755662Y-138996057D01*
G36*
X218594884Y-133773384D02*
G01*
X218676699Y-133006905D01*
X218821139Y-132335679D01*
X218862989Y-132200333D01*
X219119973Y-131563721D01*
X219417975Y-131068334D01*
X219748364Y-130718625D01*
X220102511Y-130519048D01*
X220471786Y-130474056D01*
X220847560Y-130588103D01*
X221221203Y-130865643D01*
X221297501Y-130943941D01*
X221619800Y-131403294D01*
X221861745Y-131985672D01*
X222016518Y-132661566D01*
X222077305Y-133401469D01*
X222039577Y-134156278D01*
X221975619Y-134548741D01*
X221880150Y-134954886D01*
X221794726Y-135226958D01*
X221630908Y-135595756D01*
X221411585Y-135997258D01*
X221168294Y-136380836D01*
X220932570Y-136695862D01*
X220779358Y-136857000D01*
X220585501Y-137026333D01*
X220714686Y-136772333D01*
X220977412Y-136117245D01*
X221157303Y-135373870D01*
X221252579Y-134584552D01*
X221261459Y-133791634D01*
X221182163Y-133037458D01*
X221012909Y-132364368D01*
X220910870Y-132107861D01*
X220668059Y-131681482D01*
X220408225Y-131419786D01*
X220139425Y-131319991D01*
X219869717Y-131379314D01*
X219607160Y-131594973D01*
X219359810Y-131964185D01*
X219135726Y-132484169D01*
X219049350Y-132750666D01*
X218875229Y-133566797D01*
X218802743Y-134469602D01*
X218830587Y-135411306D01*
X218957453Y-136344134D01*
X219170601Y-137185111D01*
X219273953Y-137517390D01*
X219349913Y-137782869D01*
X219388382Y-137945026D01*
X219389647Y-137977242D01*
X219335450Y-137934995D01*
X219248737Y-137761425D01*
X219140844Y-137488765D01*
X219023111Y-137149248D01*
X218906876Y-136775106D01*
X218803478Y-136398572D01*
X218741034Y-136133343D01*
X218625467Y-135387703D01*
X218577279Y-134584017D01*
X218594884Y-133773384D01*
G37*
X218594884Y-133773384D02*
X218676699Y-133006905D01*
X218821139Y-132335679D01*
X218862989Y-132200333D01*
X219119973Y-131563721D01*
X219417975Y-131068334D01*
X219748364Y-130718625D01*
X220102511Y-130519048D01*
X220471786Y-130474056D01*
X220847560Y-130588103D01*
X221221203Y-130865643D01*
X221297501Y-130943941D01*
X221619800Y-131403294D01*
X221861745Y-131985672D01*
X222016518Y-132661566D01*
X222077305Y-133401469D01*
X222039577Y-134156278D01*
X221975619Y-134548741D01*
X221880150Y-134954886D01*
X221794726Y-135226958D01*
X221630908Y-135595756D01*
X221411585Y-135997258D01*
X221168294Y-136380836D01*
X220932570Y-136695862D01*
X220779358Y-136857000D01*
X220585501Y-137026333D01*
X220714686Y-136772333D01*
X220977412Y-136117245D01*
X221157303Y-135373870D01*
X221252579Y-134584552D01*
X221261459Y-133791634D01*
X221182163Y-133037458D01*
X221012909Y-132364368D01*
X220910870Y-132107861D01*
X220668059Y-131681482D01*
X220408225Y-131419786D01*
X220139425Y-131319991D01*
X219869717Y-131379314D01*
X219607160Y-131594973D01*
X219359810Y-131964185D01*
X219135726Y-132484169D01*
X219049350Y-132750666D01*
X218875229Y-133566797D01*
X218802743Y-134469602D01*
X218830587Y-135411306D01*
X218957453Y-136344134D01*
X219170601Y-137185111D01*
X219273953Y-137517390D01*
X219349913Y-137782869D01*
X219388382Y-137945026D01*
X219389647Y-137977242D01*
X219335450Y-137934995D01*
X219248737Y-137761425D01*
X219140844Y-137488765D01*
X219023111Y-137149248D01*
X218906876Y-136775106D01*
X218803478Y-136398572D01*
X218741034Y-136133343D01*
X218625467Y-135387703D01*
X218577279Y-134584017D01*
X218594884Y-133773384D01*
G36*
X219959313Y-137051583D02*
G01*
X220093627Y-137235010D01*
X220278048Y-137505292D01*
X220493760Y-137833442D01*
X220721948Y-138190474D01*
X220943795Y-138547401D01*
X221140486Y-138875235D01*
X221275489Y-139112379D01*
X221642640Y-139859592D01*
X221921038Y-140589034D01*
X222105144Y-141277050D01*
X222189424Y-141899988D01*
X222168339Y-142434193D01*
X222110469Y-142679657D01*
X221864277Y-143163131D01*
X221472205Y-143564541D01*
X221000429Y-143850449D01*
X220733420Y-143965497D01*
X220497845Y-144048173D01*
X220318973Y-144094075D01*
X220222074Y-144098801D01*
X220232418Y-144057950D01*
X220375274Y-143967121D01*
X220397000Y-143955551D01*
X220860842Y-143622360D01*
X221234930Y-143173612D01*
X221314921Y-143037666D01*
X221396448Y-142864575D01*
X221449418Y-142679985D01*
X221479376Y-142442995D01*
X221491869Y-142112704D01*
X221492887Y-141725333D01*
X221485070Y-141263087D01*
X221460514Y-140907723D01*
X221409661Y-140596941D01*
X221322955Y-140268442D01*
X221220125Y-139947333D01*
X221074784Y-139554308D01*
X220874941Y-139072265D01*
X220646511Y-138561207D01*
X220415408Y-138081137D01*
X220406512Y-138063500D01*
X220214671Y-137679660D01*
X220057028Y-137355966D01*
X219946240Y-137119073D01*
X219894964Y-136995636D01*
X219893923Y-136984000D01*
X219959313Y-137051583D01*
G37*
X219959313Y-137051583D02*
X220093627Y-137235010D01*
X220278048Y-137505292D01*
X220493760Y-137833442D01*
X220721948Y-138190474D01*
X220943795Y-138547401D01*
X221140486Y-138875235D01*
X221275489Y-139112379D01*
X221642640Y-139859592D01*
X221921038Y-140589034D01*
X222105144Y-141277050D01*
X222189424Y-141899988D01*
X222168339Y-142434193D01*
X222110469Y-142679657D01*
X221864277Y-143163131D01*
X221472205Y-143564541D01*
X221000429Y-143850449D01*
X220733420Y-143965497D01*
X220497845Y-144048173D01*
X220318973Y-144094075D01*
X220222074Y-144098801D01*
X220232418Y-144057950D01*
X220375274Y-143967121D01*
X220397000Y-143955551D01*
X220860842Y-143622360D01*
X221234930Y-143173612D01*
X221314921Y-143037666D01*
X221396448Y-142864575D01*
X221449418Y-142679985D01*
X221479376Y-142442995D01*
X221491869Y-142112704D01*
X221492887Y-141725333D01*
X221485070Y-141263087D01*
X221460514Y-140907723D01*
X221409661Y-140596941D01*
X221322955Y-140268442D01*
X221220125Y-139947333D01*
X221074784Y-139554308D01*
X220874941Y-139072265D01*
X220646511Y-138561207D01*
X220415408Y-138081137D01*
X220406512Y-138063500D01*
X220214671Y-137679660D01*
X220057028Y-137355966D01*
X219946240Y-137119073D01*
X219894964Y-136995636D01*
X219893923Y-136984000D01*
X219959313Y-137051583D01*
D11*
X218644400Y-117431452D02*
X218644400Y-116908948D01*
X220064400Y-117431452D02*
X220064400Y-116908948D01*
X198140000Y-91960000D02*
X201000000Y-91960000D01*
X198140000Y-90040000D02*
X198140000Y-91960000D01*
X201000000Y-90040000D02*
X198140000Y-90040000D01*
X201000000Y-106540000D02*
X198140000Y-106540000D01*
X198140000Y-106540000D02*
X198140000Y-108460000D01*
X198140000Y-108460000D02*
X201000000Y-108460000D01*
X168065000Y-76065000D02*
X164990000Y-76065000D01*
X164990000Y-76065000D02*
X164990000Y-91935000D01*
X164990000Y-91935000D02*
X168065000Y-91935000D01*
X169580000Y-77505000D02*
X169580000Y-77485000D01*
X169580000Y-77485000D02*
X169080000Y-77485000D01*
X169080000Y-77485000D02*
X169080000Y-90515000D01*
X169080000Y-90515000D02*
X169580000Y-90515000D01*
X169580000Y-90515000D02*
X169580000Y-90495000D01*
X168065000Y-95565000D02*
X164990000Y-95565000D01*
X164990000Y-95565000D02*
X164990000Y-105435000D01*
X164990000Y-105435000D02*
X168065000Y-105435000D01*
X169580000Y-97005000D02*
X169580000Y-96985000D01*
X169580000Y-96985000D02*
X169080000Y-96985000D01*
X169080000Y-96985000D02*
X169080000Y-104015000D01*
X169080000Y-104015000D02*
X169580000Y-104015000D01*
X169580000Y-104015000D02*
X169580000Y-103995000D01*
X212747500Y-84339400D02*
X215177500Y-84339400D01*
X212727500Y-84329400D02*
X212727500Y-83329400D01*
X212727500Y-81279400D02*
X214577500Y-81279400D01*
X212727500Y-82329400D02*
X212727500Y-81279400D01*
X213070400Y-98763200D02*
X213070400Y-97713200D01*
X213070400Y-97713200D02*
X214920400Y-97713200D01*
X213070400Y-100763200D02*
X213070400Y-99763200D01*
X213090400Y-100773200D02*
X215520400Y-100773200D01*
X211309852Y-78195100D02*
X210787348Y-78195100D01*
X211309852Y-79615100D02*
X210787348Y-79615100D01*
X205238748Y-87210000D02*
X205761252Y-87210000D01*
X205238748Y-85790000D02*
X205761252Y-85790000D01*
X205238748Y-91710000D02*
X205761252Y-91710000D01*
X205238748Y-90290000D02*
X205761252Y-90290000D01*
X211344252Y-97039500D02*
X210821748Y-97039500D01*
X211344252Y-95619500D02*
X210821748Y-95619500D01*
X207290000Y-82261252D02*
X207290000Y-81738748D01*
X208710000Y-82261252D02*
X208710000Y-81738748D01*
X207290000Y-98761252D02*
X207290000Y-98238748D01*
X208710000Y-98761252D02*
X208710000Y-98238748D01*
X205238748Y-106790000D02*
X205761252Y-106790000D01*
X205238748Y-108210000D02*
X205761252Y-108210000D01*
X205238748Y-103710000D02*
X205761252Y-103710000D01*
X205238748Y-102290000D02*
X205761252Y-102290000D01*
D10*
X204250000Y-82000000D02*
G75*
G03*
X204250000Y-82000000I-1750000J0D01*
G01*
X184750000Y-72000000D02*
G75*
G03*
X184750000Y-72000000I-1750000J0D01*
G01*
X211595300Y-72000000D02*
G75*
G03*
X211595300Y-72000000I-1750000J0D01*
G01*
X204250000Y-98500000D02*
G75*
G03*
X204250000Y-98500000I-1750000J0D01*
G01*
D11*
X194250000Y-74210000D02*
X197110000Y-74210000D01*
X197110000Y-74210000D02*
X197110000Y-72290000D01*
X197110000Y-72290000D02*
X194250000Y-72290000D01*
X190511252Y-73960000D02*
X189988748Y-73960000D01*
X190511252Y-72540000D02*
X189988748Y-72540000D01*
D10*
X184048000Y-127140000D02*
X184048000Y-158480000D01*
X184048000Y-158480000D02*
X164744000Y-158480000D01*
X164744000Y-158480000D02*
X164744000Y-127140000D01*
X164744000Y-127140000D02*
X184048000Y-127140000D01*
D14*
X177079500Y-80574800D02*
X177079500Y-77425200D01*
X174920500Y-77425200D02*
X174920500Y-80574800D01*
X174920500Y-93925200D02*
X174920500Y-97074800D01*
X177079500Y-97074800D02*
X177079500Y-93925200D01*
D11*
X224394400Y-113514100D02*
X224394400Y-113534100D01*
X224894400Y-113514100D02*
X224394400Y-113514100D01*
X224894400Y-120544100D02*
X224894400Y-113514100D01*
X224394400Y-120544100D02*
X224894400Y-120544100D01*
X224394400Y-120524100D02*
X224394400Y-120544100D01*
X228984400Y-112094100D02*
X225909400Y-112094100D01*
X228984400Y-121964100D02*
X228984400Y-112094100D01*
X225909400Y-121964100D02*
X228984400Y-121964100D01*
X224369000Y-78703400D02*
X224369000Y-78723400D01*
X224869000Y-78703400D02*
X224369000Y-78703400D01*
X224869000Y-85733400D02*
X224869000Y-78703400D01*
X224369000Y-85733400D02*
X224869000Y-85733400D01*
X224369000Y-85713400D02*
X224369000Y-85733400D01*
X228959000Y-77283400D02*
X225884000Y-77283400D01*
X228959000Y-87153400D02*
X228959000Y-77283400D01*
X225884000Y-87153400D02*
X228959000Y-87153400D01*
X225858600Y-103650700D02*
X228933600Y-103650700D01*
X228933600Y-103650700D02*
X228933600Y-93780700D01*
X228933600Y-93780700D02*
X225858600Y-93780700D01*
X224343600Y-102210700D02*
X224343600Y-102230700D01*
X224343600Y-102230700D02*
X224843600Y-102230700D01*
X224843600Y-102230700D02*
X224843600Y-95200700D01*
X224843600Y-95200700D02*
X224343600Y-95200700D01*
X224343600Y-95200700D02*
X224343600Y-95220700D01*
X190845000Y-87450000D02*
X192345000Y-87450000D01*
X192345000Y-87450000D02*
X192345000Y-87180000D01*
X192345000Y-87180000D02*
X195175000Y-87180000D01*
X190845000Y-80550000D02*
X192345000Y-80550000D01*
X192345000Y-80550000D02*
X192345000Y-80820000D01*
X192345000Y-80820000D02*
X193445000Y-80820000D01*
X192420000Y-97320000D02*
X193520000Y-97320000D01*
X192420000Y-97050000D02*
X192420000Y-97320000D01*
X190920000Y-97050000D02*
X192420000Y-97050000D01*
X192420000Y-103680000D02*
X195250000Y-103680000D01*
X192420000Y-103950000D02*
X192420000Y-103680000D01*
X190920000Y-103950000D02*
X192420000Y-103950000D01*
D10*
X213195066Y-103600761D02*
X213337923Y-103648380D01*
X213576019Y-103648380D01*
X213671257Y-103600761D01*
X213718876Y-103553142D01*
X213766495Y-103457904D01*
X213766495Y-103362666D01*
X213718876Y-103267428D01*
X213671257Y-103219809D01*
X213576019Y-103172190D01*
X213385542Y-103124571D01*
X213290304Y-103076952D01*
X213242685Y-103029333D01*
X213195066Y-102934095D01*
X213195066Y-102838857D01*
X213242685Y-102743619D01*
X213290304Y-102696000D01*
X213385542Y-102648380D01*
X213623638Y-102648380D01*
X213766495Y-102696000D01*
X214099828Y-102648380D02*
X214337923Y-103648380D01*
X214528400Y-102934095D01*
X214718876Y-103648380D01*
X214956971Y-102648380D01*
X215242685Y-102648380D02*
X215861733Y-102648380D01*
X215528400Y-103029333D01*
X215671257Y-103029333D01*
X215766495Y-103076952D01*
X215814114Y-103124571D01*
X215861733Y-103219809D01*
X215861733Y-103457904D01*
X215814114Y-103553142D01*
X215766495Y-103600761D01*
X215671257Y-103648380D01*
X215385542Y-103648380D01*
X215290304Y-103600761D01*
X215242685Y-103553142D01*
X212953766Y-87268561D02*
X213096623Y-87316180D01*
X213334719Y-87316180D01*
X213429957Y-87268561D01*
X213477576Y-87220942D01*
X213525195Y-87125704D01*
X213525195Y-87030466D01*
X213477576Y-86935228D01*
X213429957Y-86887609D01*
X213334719Y-86839990D01*
X213144242Y-86792371D01*
X213049004Y-86744752D01*
X213001385Y-86697133D01*
X212953766Y-86601895D01*
X212953766Y-86506657D01*
X213001385Y-86411419D01*
X213049004Y-86363800D01*
X213144242Y-86316180D01*
X213382338Y-86316180D01*
X213525195Y-86363800D01*
X213858528Y-86316180D02*
X214096623Y-87316180D01*
X214287100Y-86601895D01*
X214477576Y-87316180D01*
X214715671Y-86316180D01*
X215049004Y-86411419D02*
X215096623Y-86363800D01*
X215191861Y-86316180D01*
X215429957Y-86316180D01*
X215525195Y-86363800D01*
X215572814Y-86411419D01*
X215620433Y-86506657D01*
X215620433Y-86601895D01*
X215572814Y-86744752D01*
X215001385Y-87316180D01*
X215620433Y-87316180D01*
X201333266Y-77650361D02*
X201476123Y-77697980D01*
X201714219Y-77697980D01*
X201809457Y-77650361D01*
X201857076Y-77602742D01*
X201904695Y-77507504D01*
X201904695Y-77412266D01*
X201857076Y-77317028D01*
X201809457Y-77269409D01*
X201714219Y-77221790D01*
X201523742Y-77174171D01*
X201428504Y-77126552D01*
X201380885Y-77078933D01*
X201333266Y-76983695D01*
X201333266Y-76888457D01*
X201380885Y-76793219D01*
X201428504Y-76745600D01*
X201523742Y-76697980D01*
X201761838Y-76697980D01*
X201904695Y-76745600D01*
X202238028Y-76697980D02*
X202476123Y-77697980D01*
X202666600Y-76983695D01*
X202857076Y-77697980D01*
X203095171Y-76697980D01*
X203999933Y-77697980D02*
X203428504Y-77697980D01*
X203714219Y-77697980D02*
X203714219Y-76697980D01*
X203618980Y-76840838D01*
X203523742Y-76936076D01*
X203428504Y-76983695D01*
X221211542Y-117336866D02*
X221259161Y-117384485D01*
X221306780Y-117527342D01*
X221306780Y-117622580D01*
X221259161Y-117765438D01*
X221163923Y-117860676D01*
X221068685Y-117908295D01*
X220878209Y-117955914D01*
X220735352Y-117955914D01*
X220544876Y-117908295D01*
X220449638Y-117860676D01*
X220354400Y-117765438D01*
X220306780Y-117622580D01*
X220306780Y-117527342D01*
X220354400Y-117384485D01*
X220402019Y-117336866D01*
X221306780Y-116384485D02*
X221306780Y-116955914D01*
X221306780Y-116670200D02*
X220306780Y-116670200D01*
X220449638Y-116765438D01*
X220544876Y-116860676D01*
X220592495Y-116955914D01*
X199261904Y-89802380D02*
X199261904Y-88802380D01*
X199500000Y-88802380D01*
X199642857Y-88850000D01*
X199738095Y-88945238D01*
X199785714Y-89040476D01*
X199833333Y-89230952D01*
X199833333Y-89373809D01*
X199785714Y-89564285D01*
X199738095Y-89659523D01*
X199642857Y-89754761D01*
X199500000Y-89802380D01*
X199261904Y-89802380D01*
X200214285Y-88897619D02*
X200261904Y-88850000D01*
X200357142Y-88802380D01*
X200595238Y-88802380D01*
X200690476Y-88850000D01*
X200738095Y-88897619D01*
X200785714Y-88992857D01*
X200785714Y-89088095D01*
X200738095Y-89230952D01*
X200166666Y-89802380D01*
X200785714Y-89802380D01*
X199261904Y-106302380D02*
X199261904Y-105302380D01*
X199500000Y-105302380D01*
X199642857Y-105350000D01*
X199738095Y-105445238D01*
X199785714Y-105540476D01*
X199833333Y-105730952D01*
X199833333Y-105873809D01*
X199785714Y-106064285D01*
X199738095Y-106159523D01*
X199642857Y-106254761D01*
X199500000Y-106302380D01*
X199261904Y-106302380D01*
X200166666Y-105302380D02*
X200785714Y-105302380D01*
X200452380Y-105683333D01*
X200595238Y-105683333D01*
X200690476Y-105730952D01*
X200738095Y-105778571D01*
X200785714Y-105873809D01*
X200785714Y-106111904D01*
X200738095Y-106207142D01*
X200690476Y-106254761D01*
X200595238Y-106302380D01*
X200309523Y-106302380D01*
X200214285Y-106254761D01*
X200166666Y-106207142D01*
X213582261Y-85827019D02*
X213487023Y-85779400D01*
X213391785Y-85684161D01*
X213248928Y-85541304D01*
X213153690Y-85493685D01*
X213058452Y-85493685D01*
X213106071Y-85731780D02*
X213010833Y-85684161D01*
X212915595Y-85588923D01*
X212867976Y-85398447D01*
X212867976Y-85065114D01*
X212915595Y-84874638D01*
X213010833Y-84779400D01*
X213106071Y-84731780D01*
X213296547Y-84731780D01*
X213391785Y-84779400D01*
X213487023Y-84874638D01*
X213534642Y-85065114D01*
X213534642Y-85398447D01*
X213487023Y-85588923D01*
X213391785Y-85684161D01*
X213296547Y-85731780D01*
X213106071Y-85731780D01*
X214487023Y-85731780D02*
X213915595Y-85731780D01*
X214201309Y-85731780D02*
X214201309Y-84731780D01*
X214106071Y-84874638D01*
X214010833Y-84969876D01*
X213915595Y-85017495D01*
X213925161Y-102260819D02*
X213829923Y-102213200D01*
X213734685Y-102117961D01*
X213591828Y-101975104D01*
X213496590Y-101927485D01*
X213401352Y-101927485D01*
X213448971Y-102165580D02*
X213353733Y-102117961D01*
X213258495Y-102022723D01*
X213210876Y-101832247D01*
X213210876Y-101498914D01*
X213258495Y-101308438D01*
X213353733Y-101213200D01*
X213448971Y-101165580D01*
X213639447Y-101165580D01*
X213734685Y-101213200D01*
X213829923Y-101308438D01*
X213877542Y-101498914D01*
X213877542Y-101832247D01*
X213829923Y-102022723D01*
X213734685Y-102117961D01*
X213639447Y-102165580D01*
X213448971Y-102165580D01*
X214258495Y-101260819D02*
X214306114Y-101213200D01*
X214401352Y-101165580D01*
X214639447Y-101165580D01*
X214734685Y-101213200D01*
X214782304Y-101260819D01*
X214829923Y-101356057D01*
X214829923Y-101451295D01*
X214782304Y-101594152D01*
X214210876Y-102165580D01*
X214829923Y-102165580D01*
X210881933Y-81007480D02*
X210548600Y-80531290D01*
X210310504Y-81007480D02*
X210310504Y-80007480D01*
X210691457Y-80007480D01*
X210786695Y-80055100D01*
X210834314Y-80102719D01*
X210881933Y-80197957D01*
X210881933Y-80340814D01*
X210834314Y-80436052D01*
X210786695Y-80483671D01*
X210691457Y-80531290D01*
X210310504Y-80531290D01*
X211262885Y-80102719D02*
X211310504Y-80055100D01*
X211405742Y-80007480D01*
X211643838Y-80007480D01*
X211739076Y-80055100D01*
X211786695Y-80102719D01*
X211834314Y-80197957D01*
X211834314Y-80293195D01*
X211786695Y-80436052D01*
X211215266Y-81007480D01*
X211834314Y-81007480D01*
X205333333Y-85302380D02*
X205000000Y-84826190D01*
X204761904Y-85302380D02*
X204761904Y-84302380D01*
X205142857Y-84302380D01*
X205238095Y-84350000D01*
X205285714Y-84397619D01*
X205333333Y-84492857D01*
X205333333Y-84635714D01*
X205285714Y-84730952D01*
X205238095Y-84778571D01*
X205142857Y-84826190D01*
X204761904Y-84826190D01*
X205904761Y-84730952D02*
X205809523Y-84683333D01*
X205761904Y-84635714D01*
X205714285Y-84540476D01*
X205714285Y-84492857D01*
X205761904Y-84397619D01*
X205809523Y-84350000D01*
X205904761Y-84302380D01*
X206095238Y-84302380D01*
X206190476Y-84350000D01*
X206238095Y-84397619D01*
X206285714Y-84492857D01*
X206285714Y-84540476D01*
X206238095Y-84635714D01*
X206190476Y-84683333D01*
X206095238Y-84730952D01*
X205904761Y-84730952D01*
X205809523Y-84778571D01*
X205761904Y-84826190D01*
X205714285Y-84921428D01*
X205714285Y-85111904D01*
X205761904Y-85207142D01*
X205809523Y-85254761D01*
X205904761Y-85302380D01*
X206095238Y-85302380D01*
X206190476Y-85254761D01*
X206238095Y-85207142D01*
X206285714Y-85111904D01*
X206285714Y-84921428D01*
X206238095Y-84826190D01*
X206190476Y-84778571D01*
X206095238Y-84730952D01*
X205333333Y-89802380D02*
X205000000Y-89326190D01*
X204761904Y-89802380D02*
X204761904Y-88802380D01*
X205142857Y-88802380D01*
X205238095Y-88850000D01*
X205285714Y-88897619D01*
X205333333Y-88992857D01*
X205333333Y-89135714D01*
X205285714Y-89230952D01*
X205238095Y-89278571D01*
X205142857Y-89326190D01*
X204761904Y-89326190D01*
X206190476Y-88802380D02*
X206000000Y-88802380D01*
X205904761Y-88850000D01*
X205857142Y-88897619D01*
X205761904Y-89040476D01*
X205714285Y-89230952D01*
X205714285Y-89611904D01*
X205761904Y-89707142D01*
X205809523Y-89754761D01*
X205904761Y-89802380D01*
X206095238Y-89802380D01*
X206190476Y-89754761D01*
X206238095Y-89707142D01*
X206285714Y-89611904D01*
X206285714Y-89373809D01*
X206238095Y-89278571D01*
X206190476Y-89230952D01*
X206095238Y-89183333D01*
X205904761Y-89183333D01*
X205809523Y-89230952D01*
X205761904Y-89278571D01*
X205714285Y-89373809D01*
X210916333Y-98431880D02*
X210583000Y-97955690D01*
X210344904Y-98431880D02*
X210344904Y-97431880D01*
X210725857Y-97431880D01*
X210821095Y-97479500D01*
X210868714Y-97527119D01*
X210916333Y-97622357D01*
X210916333Y-97765214D01*
X210868714Y-97860452D01*
X210821095Y-97908071D01*
X210725857Y-97955690D01*
X210344904Y-97955690D01*
X211249666Y-97431880D02*
X211868714Y-97431880D01*
X211535380Y-97812833D01*
X211678238Y-97812833D01*
X211773476Y-97860452D01*
X211821095Y-97908071D01*
X211868714Y-98003309D01*
X211868714Y-98241404D01*
X211821095Y-98336642D01*
X211773476Y-98384261D01*
X211678238Y-98431880D01*
X211392523Y-98431880D01*
X211297285Y-98384261D01*
X211249666Y-98336642D01*
X206802380Y-82166666D02*
X206326190Y-82500000D01*
X206802380Y-82738095D02*
X205802380Y-82738095D01*
X205802380Y-82357142D01*
X205850000Y-82261904D01*
X205897619Y-82214285D01*
X205992857Y-82166666D01*
X206135714Y-82166666D01*
X206230952Y-82214285D01*
X206278571Y-82261904D01*
X206326190Y-82357142D01*
X206326190Y-82738095D01*
X206135714Y-81309523D02*
X206802380Y-81309523D01*
X205754761Y-81547619D02*
X206469047Y-81785714D01*
X206469047Y-81166666D01*
X206802380Y-98666666D02*
X206326190Y-99000000D01*
X206802380Y-99238095D02*
X205802380Y-99238095D01*
X205802380Y-98857142D01*
X205850000Y-98761904D01*
X205897619Y-98714285D01*
X205992857Y-98666666D01*
X206135714Y-98666666D01*
X206230952Y-98714285D01*
X206278571Y-98761904D01*
X206326190Y-98857142D01*
X206326190Y-99238095D01*
X205802380Y-97761904D02*
X205802380Y-98238095D01*
X206278571Y-98285714D01*
X206230952Y-98238095D01*
X206183333Y-98142857D01*
X206183333Y-97904761D01*
X206230952Y-97809523D01*
X206278571Y-97761904D01*
X206373809Y-97714285D01*
X206611904Y-97714285D01*
X206707142Y-97761904D01*
X206754761Y-97809523D01*
X206802380Y-97904761D01*
X206802380Y-98142857D01*
X206754761Y-98238095D01*
X206707142Y-98285714D01*
X205333333Y-106302380D02*
X205000000Y-105826190D01*
X204761904Y-106302380D02*
X204761904Y-105302380D01*
X205142857Y-105302380D01*
X205238095Y-105350000D01*
X205285714Y-105397619D01*
X205333333Y-105492857D01*
X205333333Y-105635714D01*
X205285714Y-105730952D01*
X205238095Y-105778571D01*
X205142857Y-105826190D01*
X204761904Y-105826190D01*
X205666666Y-105302380D02*
X206333333Y-105302380D01*
X205904761Y-106302380D01*
X205333333Y-101802380D02*
X205000000Y-101326190D01*
X204761904Y-101802380D02*
X204761904Y-100802380D01*
X205142857Y-100802380D01*
X205238095Y-100850000D01*
X205285714Y-100897619D01*
X205333333Y-100992857D01*
X205333333Y-101135714D01*
X205285714Y-101230952D01*
X205238095Y-101278571D01*
X205142857Y-101326190D01*
X204761904Y-101326190D01*
X205809523Y-101802380D02*
X206000000Y-101802380D01*
X206095238Y-101754761D01*
X206142857Y-101707142D01*
X206238095Y-101564285D01*
X206285714Y-101373809D01*
X206285714Y-100992857D01*
X206238095Y-100897619D01*
X206190476Y-100850000D01*
X206095238Y-100802380D01*
X205904761Y-100802380D01*
X205809523Y-100850000D01*
X205761904Y-100897619D01*
X205714285Y-100992857D01*
X205714285Y-101230952D01*
X205761904Y-101326190D01*
X205809523Y-101373809D01*
X205904761Y-101421428D01*
X206095238Y-101421428D01*
X206190476Y-101373809D01*
X206238095Y-101326190D01*
X206285714Y-101230952D01*
X194511904Y-75352380D02*
X194511904Y-74352380D01*
X194750000Y-74352380D01*
X194892857Y-74400000D01*
X194988095Y-74495238D01*
X195035714Y-74590476D01*
X195083333Y-74780952D01*
X195083333Y-74923809D01*
X195035714Y-75114285D01*
X194988095Y-75209523D01*
X194892857Y-75304761D01*
X194750000Y-75352380D01*
X194511904Y-75352380D01*
X196035714Y-75352380D02*
X195464285Y-75352380D01*
X195750000Y-75352380D02*
X195750000Y-74352380D01*
X195654761Y-74495238D01*
X195559523Y-74590476D01*
X195464285Y-74638095D01*
X190083333Y-75352380D02*
X189750000Y-74876190D01*
X189511904Y-75352380D02*
X189511904Y-74352380D01*
X189892857Y-74352380D01*
X189988095Y-74400000D01*
X190035714Y-74447619D01*
X190083333Y-74542857D01*
X190083333Y-74685714D01*
X190035714Y-74780952D01*
X189988095Y-74828571D01*
X189892857Y-74876190D01*
X189511904Y-74876190D01*
X191035714Y-75352380D02*
X190464285Y-75352380D01*
X190750000Y-75352380D02*
X190750000Y-74352380D01*
X190654761Y-74495238D01*
X190559523Y-74590476D01*
X190464285Y-74638095D01*
X182666666Y-125452380D02*
X182666666Y-126166666D01*
X182619047Y-126309523D01*
X182523809Y-126404761D01*
X182380952Y-126452380D01*
X182285714Y-126452380D01*
X183571428Y-125452380D02*
X183380952Y-125452380D01*
X183285714Y-125500000D01*
X183238095Y-125547619D01*
X183142857Y-125690476D01*
X183095238Y-125880952D01*
X183095238Y-126261904D01*
X183142857Y-126357142D01*
X183190476Y-126404761D01*
X183285714Y-126452380D01*
X183476190Y-126452380D01*
X183571428Y-126404761D01*
X183619047Y-126357142D01*
X183666666Y-126261904D01*
X183666666Y-126023809D01*
X183619047Y-125928571D01*
X183571428Y-125880952D01*
X183476190Y-125833333D01*
X183285714Y-125833333D01*
X183190476Y-125880952D01*
X183142857Y-125928571D01*
X183095238Y-126023809D01*
X176452380Y-79738095D02*
X175452380Y-79738095D01*
X175452380Y-79500000D01*
X175500000Y-79357142D01*
X175595238Y-79261904D01*
X175690476Y-79214285D01*
X175880952Y-79166666D01*
X176023809Y-79166666D01*
X176214285Y-79214285D01*
X176309523Y-79261904D01*
X176404761Y-79357142D01*
X176452380Y-79500000D01*
X176452380Y-79738095D01*
X175785714Y-78309523D02*
X176452380Y-78309523D01*
X175404761Y-78547619D02*
X176119047Y-78785714D01*
X176119047Y-78166666D01*
X175452380Y-76460000D02*
X175690476Y-76460000D01*
X175595238Y-76698095D02*
X175690476Y-76460000D01*
X175595238Y-76221904D01*
X175880952Y-76602857D02*
X175690476Y-76460000D01*
X175880952Y-76317142D01*
X176452380Y-96238095D02*
X175452380Y-96238095D01*
X175452380Y-96000000D01*
X175500000Y-95857142D01*
X175595238Y-95761904D01*
X175690476Y-95714285D01*
X175880952Y-95666666D01*
X176023809Y-95666666D01*
X176214285Y-95714285D01*
X176309523Y-95761904D01*
X176404761Y-95857142D01*
X176452380Y-96000000D01*
X176452380Y-96238095D01*
X175452380Y-94761904D02*
X175452380Y-95238095D01*
X175928571Y-95285714D01*
X175880952Y-95238095D01*
X175833333Y-95142857D01*
X175833333Y-94904761D01*
X175880952Y-94809523D01*
X175928571Y-94761904D01*
X176023809Y-94714285D01*
X176261904Y-94714285D01*
X176357142Y-94761904D01*
X176404761Y-94809523D01*
X176452380Y-94904761D01*
X176452380Y-95142857D01*
X176404761Y-95238095D01*
X176357142Y-95285714D01*
X175452380Y-92960000D02*
X175690476Y-92960000D01*
X175595238Y-93198095D02*
X175690476Y-92960000D01*
X175595238Y-92721904D01*
X175880952Y-93102857D02*
X175690476Y-92960000D01*
X175880952Y-92817142D01*
X189779761Y-89047619D02*
X189684523Y-89000000D01*
X189589285Y-88904761D01*
X189446428Y-88761904D01*
X189351190Y-88714285D01*
X189255952Y-88714285D01*
X189303571Y-88952380D02*
X189208333Y-88904761D01*
X189113095Y-88809523D01*
X189065476Y-88619047D01*
X189065476Y-88285714D01*
X189113095Y-88095238D01*
X189208333Y-88000000D01*
X189303571Y-87952380D01*
X189494047Y-87952380D01*
X189589285Y-88000000D01*
X189684523Y-88095238D01*
X189732142Y-88285714D01*
X189732142Y-88619047D01*
X189684523Y-88809523D01*
X189589285Y-88904761D01*
X189494047Y-88952380D01*
X189303571Y-88952380D01*
X190065476Y-87952380D02*
X190684523Y-87952380D01*
X190351190Y-88333333D01*
X190494047Y-88333333D01*
X190589285Y-88380952D01*
X190636904Y-88428571D01*
X190684523Y-88523809D01*
X190684523Y-88761904D01*
X190636904Y-88857142D01*
X190589285Y-88904761D01*
X190494047Y-88952380D01*
X190208333Y-88952380D01*
X190113095Y-88904761D01*
X190065476Y-88857142D01*
X189854761Y-105547619D02*
X189759523Y-105500000D01*
X189664285Y-105404761D01*
X189521428Y-105261904D01*
X189426190Y-105214285D01*
X189330952Y-105214285D01*
X189378571Y-105452380D02*
X189283333Y-105404761D01*
X189188095Y-105309523D01*
X189140476Y-105119047D01*
X189140476Y-104785714D01*
X189188095Y-104595238D01*
X189283333Y-104500000D01*
X189378571Y-104452380D01*
X189569047Y-104452380D01*
X189664285Y-104500000D01*
X189759523Y-104595238D01*
X189807142Y-104785714D01*
X189807142Y-105119047D01*
X189759523Y-105309523D01*
X189664285Y-105404761D01*
X189569047Y-105452380D01*
X189378571Y-105452380D01*
X190664285Y-104785714D02*
X190664285Y-105452380D01*
X190426190Y-104404761D02*
X190188095Y-105119047D01*
X190807142Y-105119047D01*
M02*
