M48
; DRILL file {KiCad (5.1.6)-1} date 09/12/20 11:45:36
; FORMAT={-:-/ absolute / inch / decimal}
; #@! TF.CreationDate,2020-09-12T11:45:36-05:00
; #@! TF.GenerationSoftware,Kicad,Pcbnew,(5.1.6)-1
FMAT,2
INCH
T1C0.0157
T2C0.0402
T3C0.0520
T4C0.0630
T5C0.0787
T6C0.0500
T7C0.1181
T8C0.1260
%
G90
G05
T1
X6.9275Y-3.694
X6.93Y-3.0485
X7.4498Y-2.8839
X8.189Y-3.188
X8.189Y-3.8376
X8.6408Y-4.6582
T2
X8.934Y-3.8274
X8.934Y-3.9455
X6.5748Y-3.8976
X6.5748Y-4.0157
X6.5748Y-3.1299
X6.5748Y-3.248
X6.5748Y-3.3661
X6.5748Y-3.4843
X8.936Y-4.5484
X8.936Y-4.6665
X8.935Y-3.1779
X8.935Y-3.296
T3
X6.826Y-5.4724
X6.826Y-5.7724
X6.926Y-5.4724
X6.926Y-5.7724
X7.126Y-5.4724
X7.126Y-5.7724
T4
X8.2616Y-2.8346
X7.2047Y-2.8346
X7.9724Y-3.2283
X7.9724Y-3.878
T5
X6.9685Y-4.7441
X8.6024Y-6.3091
T6
X8.8578Y-3.0598
X8.8578Y-3.4141
X8.8568Y-3.7093
X8.8568Y-4.0636
X6.652Y-3.7795
X6.652Y-4.1339
X6.652Y-3.0118
X6.652Y-3.6024
X8.8588Y-4.4303
X8.8588Y-4.7846
T7
X8.937Y-2.7953
X6.5748Y-2.7953
X8.937Y-6.4961
X6.5748Y-4.7638
X6.5748Y-6.4961
T8
X7.3622Y-4.6654
X6.7157Y-5.1551
X6.7157Y-6.0898
X8.2047Y-6.2283
T0
M30
