G04 #@! TF.GenerationSoftware,KiCad,Pcbnew,(5.1.6)-1*
G04 #@! TF.CreationDate,2020-09-05T15:51:33-05:00*
G04 #@! TF.ProjectId,ContactorDriver,436f6e74-6163-4746-9f72-447269766572,rev?*
G04 #@! TF.SameCoordinates,Original*
G04 #@! TF.FileFunction,Copper,L2,Bot*
G04 #@! TF.FilePolarity,Positive*
%FSLAX46Y46*%
G04 Gerber Fmt 4.6, Leading zero omitted, Abs format (unit mm)*
G04 Created by KiCad (PCBNEW (5.1.6)-1) date 2020-09-05 15:51:33*
%MOMM*%
%LPD*%
G01*
G04 APERTURE LIST*
G04 #@! TA.AperFunction,ComponentPad*
%ADD10O,2.020000X1.500000*%
G04 #@! TD*
G04 #@! TA.AperFunction,ComponentPad*
%ADD11C,2.800000*%
G04 #@! TD*
G04 #@! TA.AperFunction,ComponentPad*
%ADD12C,2.286000*%
G04 #@! TD*
G04 #@! TA.AperFunction,ComponentPad*
%ADD13C,4.500880*%
G04 #@! TD*
G04 #@! TA.AperFunction,ViaPad*
%ADD14C,0.800000*%
G04 #@! TD*
G04 #@! TA.AperFunction,Conductor*
%ADD15C,0.250000*%
G04 #@! TD*
G04 #@! TA.AperFunction,Conductor*
%ADD16C,0.254000*%
G04 #@! TD*
G04 APERTURE END LIST*
G04 #@! TA.AperFunction,ComponentPad*
G36*
G01*
X166240000Y-78750000D02*
X167760000Y-78750000D01*
G75*
G02*
X168010000Y-79000000I0J-250000D01*
G01*
X168010000Y-80000000D01*
G75*
G02*
X167760000Y-80250000I-250000J0D01*
G01*
X166240000Y-80250000D01*
G75*
G02*
X165990000Y-80000000I0J250000D01*
G01*
X165990000Y-79000000D01*
G75*
G02*
X166240000Y-78750000I250000J0D01*
G01*
G37*
G04 #@! TD.AperFunction*
D10*
X167000000Y-82500000D03*
X167000000Y-85500000D03*
X167000000Y-88500000D03*
G04 #@! TA.AperFunction,ComponentPad*
G36*
G01*
X166240000Y-98250000D02*
X167760000Y-98250000D01*
G75*
G02*
X168010000Y-98500000I0J-250000D01*
G01*
X168010000Y-99500000D01*
G75*
G02*
X167760000Y-99750000I-250000J0D01*
G01*
X166240000Y-99750000D01*
G75*
G02*
X165990000Y-99500000I0J250000D01*
G01*
X165990000Y-98500000D01*
G75*
G02*
X166240000Y-98250000I250000J0D01*
G01*
G37*
G04 #@! TD.AperFunction*
X167000000Y-102000000D03*
D11*
X202500000Y-82000000D03*
X183000000Y-72000000D03*
X209845300Y-73460500D03*
X202500000Y-98500000D03*
D12*
X181000000Y-139000000D03*
X181000000Y-146620000D03*
X175920000Y-139000000D03*
X173380000Y-139000000D03*
X175920000Y-146620000D03*
X173380000Y-146620000D03*
D13*
X177000000Y-120500000D03*
X218500000Y-160250000D03*
G04 #@! TA.AperFunction,ComponentPad*
G36*
G01*
X226163600Y-114413600D02*
X227683600Y-114413600D01*
G75*
G02*
X227933600Y-114663600I0J-250000D01*
G01*
X227933600Y-115663600D01*
G75*
G02*
X227683600Y-115913600I-250000J0D01*
G01*
X226163600Y-115913600D01*
G75*
G02*
X225913600Y-115663600I0J250000D01*
G01*
X225913600Y-114663600D01*
G75*
G02*
X226163600Y-114413600I250000J0D01*
G01*
G37*
G04 #@! TD.AperFunction*
D10*
X226923600Y-118163600D03*
G04 #@! TA.AperFunction,ComponentPad*
G36*
G01*
X226354100Y-82587400D02*
X227874100Y-82587400D01*
G75*
G02*
X228124100Y-82837400I0J-250000D01*
G01*
X228124100Y-83837400D01*
G75*
G02*
X227874100Y-84087400I-250000J0D01*
G01*
X226354100Y-84087400D01*
G75*
G02*
X226104100Y-83837400I0J250000D01*
G01*
X226104100Y-82837400D01*
G75*
G02*
X226354100Y-82587400I250000J0D01*
G01*
G37*
G04 #@! TD.AperFunction*
X227114100Y-86337400D03*
X226669600Y-105768400D03*
G04 #@! TA.AperFunction,ComponentPad*
G36*
G01*
X225909600Y-102018400D02*
X227429600Y-102018400D01*
G75*
G02*
X227679600Y-102268400I0J-250000D01*
G01*
X227679600Y-103268400D01*
G75*
G02*
X227429600Y-103518400I-250000J0D01*
G01*
X225909600Y-103518400D01*
G75*
G02*
X225659600Y-103268400I0J250000D01*
G01*
X225659600Y-102268400D01*
G75*
G02*
X225909600Y-102018400I250000J0D01*
G01*
G37*
G04 #@! TD.AperFunction*
D14*
X208000000Y-105000000D03*
X208000000Y-97475000D03*
X208000000Y-80975000D03*
X214500000Y-115475000D03*
X206525000Y-107500000D03*
X206603600Y-91097100D03*
D15*
X208000000Y-105000000D02*
X208000000Y-97475000D01*
X208000000Y-97475000D02*
X208000000Y-80975000D01*
X214500000Y-115475000D02*
X206525000Y-107500000D01*
X188241400Y-77241400D02*
X183000000Y-72000000D01*
X197980300Y-77241400D02*
X188241400Y-77241400D01*
X206603600Y-91097100D02*
X199097900Y-83591400D01*
X199097900Y-78359000D02*
X197980300Y-77241400D01*
X199097900Y-83591400D02*
X199097900Y-78359000D01*
D16*
G36*
X227504242Y-68453369D02*
G01*
X227989286Y-68599812D01*
X228436642Y-68837674D01*
X228829282Y-69157904D01*
X229152241Y-69548294D01*
X229393222Y-69993980D01*
X229543048Y-70477987D01*
X229598000Y-71000820D01*
X229598001Y-71001114D01*
X229598001Y-79470337D01*
X229553462Y-79440577D01*
X229369290Y-79364290D01*
X229173773Y-79325400D01*
X228974427Y-79325400D01*
X228778910Y-79364290D01*
X228594738Y-79440577D01*
X228428987Y-79551328D01*
X228288028Y-79692287D01*
X228177277Y-79858038D01*
X228100990Y-80042210D01*
X228062100Y-80237727D01*
X228062100Y-80437073D01*
X228100990Y-80632590D01*
X228177277Y-80816762D01*
X228288028Y-80982513D01*
X228428987Y-81123472D01*
X228594738Y-81234223D01*
X228778910Y-81310510D01*
X228974427Y-81349400D01*
X229173773Y-81349400D01*
X229369290Y-81310510D01*
X229553462Y-81234223D01*
X229598001Y-81204463D01*
X229598001Y-88470337D01*
X229553462Y-88440577D01*
X229369290Y-88364290D01*
X229173773Y-88325400D01*
X228974427Y-88325400D01*
X228778910Y-88364290D01*
X228594738Y-88440577D01*
X228428987Y-88551328D01*
X228288028Y-88692287D01*
X228177277Y-88858038D01*
X228100990Y-89042210D01*
X228062100Y-89237727D01*
X228062100Y-89437073D01*
X228100990Y-89632590D01*
X228177277Y-89816762D01*
X228288028Y-89982513D01*
X228428987Y-90123472D01*
X228594738Y-90234223D01*
X228778910Y-90310510D01*
X228974427Y-90349400D01*
X229173773Y-90349400D01*
X229369290Y-90310510D01*
X229553462Y-90234223D01*
X229598001Y-90204463D01*
X229598001Y-99461841D01*
X229526423Y-99289038D01*
X229415672Y-99123287D01*
X229274713Y-98982328D01*
X229108962Y-98871577D01*
X228924790Y-98795290D01*
X228729273Y-98756400D01*
X228529927Y-98756400D01*
X228334410Y-98795290D01*
X228150238Y-98871577D01*
X227984487Y-98982328D01*
X227843528Y-99123287D01*
X227732777Y-99289038D01*
X227656490Y-99473210D01*
X227617600Y-99668727D01*
X227617600Y-99868073D01*
X227656490Y-100063590D01*
X227732777Y-100247762D01*
X227843528Y-100413513D01*
X227984487Y-100554472D01*
X228150238Y-100665223D01*
X228334410Y-100741510D01*
X228529927Y-100780400D01*
X228729273Y-100780400D01*
X228924790Y-100741510D01*
X229108962Y-100665223D01*
X229274713Y-100554472D01*
X229415672Y-100413513D01*
X229526423Y-100247762D01*
X229598001Y-100074959D01*
X229598001Y-108461841D01*
X229526423Y-108289038D01*
X229415672Y-108123287D01*
X229274713Y-107982328D01*
X229108962Y-107871577D01*
X228924790Y-107795290D01*
X228729273Y-107756400D01*
X228529927Y-107756400D01*
X228334410Y-107795290D01*
X228150238Y-107871577D01*
X227984487Y-107982328D01*
X227843528Y-108123287D01*
X227732777Y-108289038D01*
X227656490Y-108473210D01*
X227617600Y-108668727D01*
X227617600Y-108868073D01*
X227656490Y-109063590D01*
X227732777Y-109247762D01*
X227843528Y-109413513D01*
X227984487Y-109554472D01*
X228150238Y-109665223D01*
X228334410Y-109741510D01*
X228529927Y-109780400D01*
X228729273Y-109780400D01*
X228924790Y-109741510D01*
X229108962Y-109665223D01*
X229274713Y-109554472D01*
X229415672Y-109413513D01*
X229526423Y-109247762D01*
X229598001Y-109074959D01*
X229598001Y-111446816D01*
X229528713Y-111377528D01*
X229362962Y-111266777D01*
X229178790Y-111190490D01*
X228983273Y-111151600D01*
X228783927Y-111151600D01*
X228588410Y-111190490D01*
X228404238Y-111266777D01*
X228238487Y-111377528D01*
X228135415Y-111480600D01*
X211215535Y-111480600D01*
X207302000Y-107567066D01*
X207302000Y-107423472D01*
X207272141Y-107273357D01*
X207213569Y-107131952D01*
X207128536Y-107004691D01*
X207020309Y-106896464D01*
X206893048Y-106811431D01*
X206751643Y-106752859D01*
X206601528Y-106723000D01*
X206448472Y-106723000D01*
X206298357Y-106752859D01*
X206156952Y-106811431D01*
X206029691Y-106896464D01*
X205921464Y-107004691D01*
X205836431Y-107131952D01*
X205777859Y-107273357D01*
X205748000Y-107423472D01*
X205748000Y-107576528D01*
X205777859Y-107726643D01*
X205836431Y-107868048D01*
X205921464Y-107995309D01*
X206029691Y-108103536D01*
X206156952Y-108188569D01*
X206298357Y-108247141D01*
X206448472Y-108277000D01*
X206592066Y-108277000D01*
X209795666Y-111480600D01*
X192968165Y-111480600D01*
X193016222Y-98324981D01*
X200723000Y-98324981D01*
X200723000Y-98675019D01*
X200791289Y-99018332D01*
X200925243Y-99341725D01*
X201119714Y-99632771D01*
X201367229Y-99880286D01*
X201658275Y-100074757D01*
X201981668Y-100208711D01*
X202324981Y-100277000D01*
X202675019Y-100277000D01*
X203018332Y-100208711D01*
X203341725Y-100074757D01*
X203632771Y-99880286D01*
X203880286Y-99632771D01*
X204074757Y-99341725D01*
X204208711Y-99018332D01*
X204277000Y-98675019D01*
X204277000Y-98324981D01*
X204208711Y-97981668D01*
X204074757Y-97658275D01*
X203880286Y-97367229D01*
X203632771Y-97119714D01*
X203341725Y-96925243D01*
X203018332Y-96791289D01*
X202675019Y-96723000D01*
X202324981Y-96723000D01*
X201981668Y-96791289D01*
X201658275Y-96925243D01*
X201367229Y-97119714D01*
X201119714Y-97367229D01*
X200925243Y-97658275D01*
X200791289Y-97981668D01*
X200723000Y-98324981D01*
X193016222Y-98324981D01*
X193091408Y-77743400D01*
X197772366Y-77743400D01*
X198595901Y-78566936D01*
X198595900Y-83566757D01*
X198593473Y-83591400D01*
X198595900Y-83616043D01*
X198595900Y-83616052D01*
X198603164Y-83689808D01*
X198631869Y-83784435D01*
X198678483Y-83871645D01*
X198741216Y-83948084D01*
X198760368Y-83963802D01*
X205826600Y-91030036D01*
X205826600Y-91173628D01*
X205856459Y-91323743D01*
X205915031Y-91465148D01*
X206000064Y-91592409D01*
X206108291Y-91700636D01*
X206235552Y-91785669D01*
X206376957Y-91844241D01*
X206527072Y-91874100D01*
X206680128Y-91874100D01*
X206830243Y-91844241D01*
X206971648Y-91785669D01*
X207098909Y-91700636D01*
X207207136Y-91592409D01*
X207292169Y-91465148D01*
X207350741Y-91323743D01*
X207380600Y-91173628D01*
X207380600Y-91020572D01*
X207350741Y-90870457D01*
X207292169Y-90729052D01*
X207207136Y-90601791D01*
X207098909Y-90493564D01*
X206971648Y-90408531D01*
X206830243Y-90349959D01*
X206680128Y-90320100D01*
X206536536Y-90320100D01*
X199599900Y-83383466D01*
X199599900Y-81824981D01*
X200723000Y-81824981D01*
X200723000Y-82175019D01*
X200791289Y-82518332D01*
X200925243Y-82841725D01*
X201119714Y-83132771D01*
X201367229Y-83380286D01*
X201658275Y-83574757D01*
X201981668Y-83708711D01*
X202324981Y-83777000D01*
X202675019Y-83777000D01*
X203018332Y-83708711D01*
X203341725Y-83574757D01*
X203632771Y-83380286D01*
X203880286Y-83132771D01*
X204074757Y-82841725D01*
X204208711Y-82518332D01*
X204277000Y-82175019D01*
X204277000Y-81824981D01*
X204208711Y-81481668D01*
X204074757Y-81158275D01*
X203901162Y-80898472D01*
X207223000Y-80898472D01*
X207223000Y-81051528D01*
X207252859Y-81201643D01*
X207311431Y-81343048D01*
X207396464Y-81470309D01*
X207498001Y-81571846D01*
X207498000Y-96878155D01*
X207396464Y-96979691D01*
X207311431Y-97106952D01*
X207252859Y-97248357D01*
X207223000Y-97398472D01*
X207223000Y-97551528D01*
X207252859Y-97701643D01*
X207311431Y-97843048D01*
X207396464Y-97970309D01*
X207498001Y-98071846D01*
X207498000Y-104403155D01*
X207396464Y-104504691D01*
X207311431Y-104631952D01*
X207252859Y-104773357D01*
X207223000Y-104923472D01*
X207223000Y-105076528D01*
X207252859Y-105226643D01*
X207311431Y-105368048D01*
X207396464Y-105495309D01*
X207504691Y-105603536D01*
X207631952Y-105688569D01*
X207773357Y-105747141D01*
X207923472Y-105777000D01*
X208076528Y-105777000D01*
X208226643Y-105747141D01*
X208368048Y-105688569D01*
X208495309Y-105603536D01*
X208603536Y-105495309D01*
X208688569Y-105368048D01*
X208747141Y-105226643D01*
X208777000Y-105076528D01*
X208777000Y-104923472D01*
X208747141Y-104773357D01*
X208688569Y-104631952D01*
X208603536Y-104504691D01*
X208502000Y-104403155D01*
X208502000Y-102268400D01*
X225280776Y-102268400D01*
X225280776Y-103268400D01*
X225292859Y-103391077D01*
X225328642Y-103509041D01*
X225386752Y-103617756D01*
X225464954Y-103713046D01*
X225560244Y-103791248D01*
X225668959Y-103849358D01*
X225786923Y-103885141D01*
X225909600Y-103897224D01*
X227429600Y-103897224D01*
X227552277Y-103885141D01*
X227670241Y-103849358D01*
X227778956Y-103791248D01*
X227874246Y-103713046D01*
X227952448Y-103617756D01*
X228010558Y-103509041D01*
X228046341Y-103391077D01*
X228058424Y-103268400D01*
X228058424Y-102268400D01*
X228046341Y-102145723D01*
X228010558Y-102027759D01*
X227952448Y-101919044D01*
X227874246Y-101823754D01*
X227778956Y-101745552D01*
X227670241Y-101687442D01*
X227552277Y-101651659D01*
X227429600Y-101639576D01*
X225909600Y-101639576D01*
X225786923Y-101651659D01*
X225668959Y-101687442D01*
X225560244Y-101745552D01*
X225464954Y-101823754D01*
X225386752Y-101919044D01*
X225328642Y-102027759D01*
X225292859Y-102145723D01*
X225280776Y-102268400D01*
X208502000Y-102268400D01*
X208502000Y-98071845D01*
X208603536Y-97970309D01*
X208688569Y-97843048D01*
X208747141Y-97701643D01*
X208777000Y-97551528D01*
X208777000Y-97398472D01*
X208747141Y-97248357D01*
X208688569Y-97106952D01*
X208603536Y-96979691D01*
X208502000Y-96878155D01*
X208502000Y-82837400D01*
X225725276Y-82837400D01*
X225725276Y-83837400D01*
X225737359Y-83960077D01*
X225773142Y-84078041D01*
X225831252Y-84186756D01*
X225909454Y-84282046D01*
X226004744Y-84360248D01*
X226113459Y-84418358D01*
X226231423Y-84454141D01*
X226354100Y-84466224D01*
X227874100Y-84466224D01*
X227996777Y-84454141D01*
X228114741Y-84418358D01*
X228223456Y-84360248D01*
X228318746Y-84282046D01*
X228396948Y-84186756D01*
X228455058Y-84078041D01*
X228490841Y-83960077D01*
X228502924Y-83837400D01*
X228502924Y-82837400D01*
X228490841Y-82714723D01*
X228455058Y-82596759D01*
X228396948Y-82488044D01*
X228318746Y-82392754D01*
X228223456Y-82314552D01*
X228114741Y-82256442D01*
X227996777Y-82220659D01*
X227874100Y-82208576D01*
X226354100Y-82208576D01*
X226231423Y-82220659D01*
X226113459Y-82256442D01*
X226004744Y-82314552D01*
X225909454Y-82392754D01*
X225831252Y-82488044D01*
X225773142Y-82596759D01*
X225737359Y-82714723D01*
X225725276Y-82837400D01*
X208502000Y-82837400D01*
X208502000Y-81571845D01*
X208603536Y-81470309D01*
X208688569Y-81343048D01*
X208747141Y-81201643D01*
X208777000Y-81051528D01*
X208777000Y-80898472D01*
X208747141Y-80748357D01*
X208688569Y-80606952D01*
X208603536Y-80479691D01*
X208495309Y-80371464D01*
X208368048Y-80286431D01*
X208226643Y-80227859D01*
X208076528Y-80198000D01*
X207923472Y-80198000D01*
X207773357Y-80227859D01*
X207631952Y-80286431D01*
X207504691Y-80371464D01*
X207396464Y-80479691D01*
X207311431Y-80606952D01*
X207252859Y-80748357D01*
X207223000Y-80898472D01*
X203901162Y-80898472D01*
X203880286Y-80867229D01*
X203632771Y-80619714D01*
X203341725Y-80425243D01*
X203018332Y-80291289D01*
X202675019Y-80223000D01*
X202324981Y-80223000D01*
X201981668Y-80291289D01*
X201658275Y-80425243D01*
X201367229Y-80619714D01*
X201119714Y-80867229D01*
X200925243Y-81158275D01*
X200791289Y-81481668D01*
X200723000Y-81824981D01*
X199599900Y-81824981D01*
X199599900Y-78383642D01*
X199602327Y-78358999D01*
X199599900Y-78334356D01*
X199599900Y-78334347D01*
X199592636Y-78260591D01*
X199563931Y-78165964D01*
X199517317Y-78078755D01*
X199454584Y-78002316D01*
X199435438Y-77986603D01*
X198352701Y-76903867D01*
X198336984Y-76884716D01*
X198260545Y-76821983D01*
X198173336Y-76775369D01*
X198078709Y-76746664D01*
X198004953Y-76739400D01*
X198004943Y-76739400D01*
X197980300Y-76736973D01*
X197955657Y-76739400D01*
X193095076Y-76739400D01*
X193116716Y-70815132D01*
X225123000Y-70815132D01*
X225123000Y-71184868D01*
X225195132Y-71547501D01*
X225336624Y-71889093D01*
X225542039Y-72196518D01*
X225803482Y-72457961D01*
X226110907Y-72663376D01*
X226452499Y-72804868D01*
X226815132Y-72877000D01*
X227184868Y-72877000D01*
X227547501Y-72804868D01*
X227889093Y-72663376D01*
X228196518Y-72457961D01*
X228457961Y-72196518D01*
X228663376Y-71889093D01*
X228804868Y-71547501D01*
X228877000Y-71184868D01*
X228877000Y-70815132D01*
X228804868Y-70452499D01*
X228663376Y-70110907D01*
X228457961Y-69803482D01*
X228196518Y-69542039D01*
X227889093Y-69336624D01*
X227547501Y-69195132D01*
X227184868Y-69123000D01*
X226815132Y-69123000D01*
X226452499Y-69195132D01*
X226110907Y-69336624D01*
X225803482Y-69542039D01*
X225542039Y-69803482D01*
X225336624Y-70110907D01*
X225195132Y-70452499D01*
X225123000Y-70815132D01*
X193116716Y-70815132D01*
X193125532Y-68402000D01*
X226980342Y-68402000D01*
X227504242Y-68453369D01*
G37*
X227504242Y-68453369D02*
X227989286Y-68599812D01*
X228436642Y-68837674D01*
X228829282Y-69157904D01*
X229152241Y-69548294D01*
X229393222Y-69993980D01*
X229543048Y-70477987D01*
X229598000Y-71000820D01*
X229598001Y-71001114D01*
X229598001Y-79470337D01*
X229553462Y-79440577D01*
X229369290Y-79364290D01*
X229173773Y-79325400D01*
X228974427Y-79325400D01*
X228778910Y-79364290D01*
X228594738Y-79440577D01*
X228428987Y-79551328D01*
X228288028Y-79692287D01*
X228177277Y-79858038D01*
X228100990Y-80042210D01*
X228062100Y-80237727D01*
X228062100Y-80437073D01*
X228100990Y-80632590D01*
X228177277Y-80816762D01*
X228288028Y-80982513D01*
X228428987Y-81123472D01*
X228594738Y-81234223D01*
X228778910Y-81310510D01*
X228974427Y-81349400D01*
X229173773Y-81349400D01*
X229369290Y-81310510D01*
X229553462Y-81234223D01*
X229598001Y-81204463D01*
X229598001Y-88470337D01*
X229553462Y-88440577D01*
X229369290Y-88364290D01*
X229173773Y-88325400D01*
X228974427Y-88325400D01*
X228778910Y-88364290D01*
X228594738Y-88440577D01*
X228428987Y-88551328D01*
X228288028Y-88692287D01*
X228177277Y-88858038D01*
X228100990Y-89042210D01*
X228062100Y-89237727D01*
X228062100Y-89437073D01*
X228100990Y-89632590D01*
X228177277Y-89816762D01*
X228288028Y-89982513D01*
X228428987Y-90123472D01*
X228594738Y-90234223D01*
X228778910Y-90310510D01*
X228974427Y-90349400D01*
X229173773Y-90349400D01*
X229369290Y-90310510D01*
X229553462Y-90234223D01*
X229598001Y-90204463D01*
X229598001Y-99461841D01*
X229526423Y-99289038D01*
X229415672Y-99123287D01*
X229274713Y-98982328D01*
X229108962Y-98871577D01*
X228924790Y-98795290D01*
X228729273Y-98756400D01*
X228529927Y-98756400D01*
X228334410Y-98795290D01*
X228150238Y-98871577D01*
X227984487Y-98982328D01*
X227843528Y-99123287D01*
X227732777Y-99289038D01*
X227656490Y-99473210D01*
X227617600Y-99668727D01*
X227617600Y-99868073D01*
X227656490Y-100063590D01*
X227732777Y-100247762D01*
X227843528Y-100413513D01*
X227984487Y-100554472D01*
X228150238Y-100665223D01*
X228334410Y-100741510D01*
X228529927Y-100780400D01*
X228729273Y-100780400D01*
X228924790Y-100741510D01*
X229108962Y-100665223D01*
X229274713Y-100554472D01*
X229415672Y-100413513D01*
X229526423Y-100247762D01*
X229598001Y-100074959D01*
X229598001Y-108461841D01*
X229526423Y-108289038D01*
X229415672Y-108123287D01*
X229274713Y-107982328D01*
X229108962Y-107871577D01*
X228924790Y-107795290D01*
X228729273Y-107756400D01*
X228529927Y-107756400D01*
X228334410Y-107795290D01*
X228150238Y-107871577D01*
X227984487Y-107982328D01*
X227843528Y-108123287D01*
X227732777Y-108289038D01*
X227656490Y-108473210D01*
X227617600Y-108668727D01*
X227617600Y-108868073D01*
X227656490Y-109063590D01*
X227732777Y-109247762D01*
X227843528Y-109413513D01*
X227984487Y-109554472D01*
X228150238Y-109665223D01*
X228334410Y-109741510D01*
X228529927Y-109780400D01*
X228729273Y-109780400D01*
X228924790Y-109741510D01*
X229108962Y-109665223D01*
X229274713Y-109554472D01*
X229415672Y-109413513D01*
X229526423Y-109247762D01*
X229598001Y-109074959D01*
X229598001Y-111446816D01*
X229528713Y-111377528D01*
X229362962Y-111266777D01*
X229178790Y-111190490D01*
X228983273Y-111151600D01*
X228783927Y-111151600D01*
X228588410Y-111190490D01*
X228404238Y-111266777D01*
X228238487Y-111377528D01*
X228135415Y-111480600D01*
X211215535Y-111480600D01*
X207302000Y-107567066D01*
X207302000Y-107423472D01*
X207272141Y-107273357D01*
X207213569Y-107131952D01*
X207128536Y-107004691D01*
X207020309Y-106896464D01*
X206893048Y-106811431D01*
X206751643Y-106752859D01*
X206601528Y-106723000D01*
X206448472Y-106723000D01*
X206298357Y-106752859D01*
X206156952Y-106811431D01*
X206029691Y-106896464D01*
X205921464Y-107004691D01*
X205836431Y-107131952D01*
X205777859Y-107273357D01*
X205748000Y-107423472D01*
X205748000Y-107576528D01*
X205777859Y-107726643D01*
X205836431Y-107868048D01*
X205921464Y-107995309D01*
X206029691Y-108103536D01*
X206156952Y-108188569D01*
X206298357Y-108247141D01*
X206448472Y-108277000D01*
X206592066Y-108277000D01*
X209795666Y-111480600D01*
X192968165Y-111480600D01*
X193016222Y-98324981D01*
X200723000Y-98324981D01*
X200723000Y-98675019D01*
X200791289Y-99018332D01*
X200925243Y-99341725D01*
X201119714Y-99632771D01*
X201367229Y-99880286D01*
X201658275Y-100074757D01*
X201981668Y-100208711D01*
X202324981Y-100277000D01*
X202675019Y-100277000D01*
X203018332Y-100208711D01*
X203341725Y-100074757D01*
X203632771Y-99880286D01*
X203880286Y-99632771D01*
X204074757Y-99341725D01*
X204208711Y-99018332D01*
X204277000Y-98675019D01*
X204277000Y-98324981D01*
X204208711Y-97981668D01*
X204074757Y-97658275D01*
X203880286Y-97367229D01*
X203632771Y-97119714D01*
X203341725Y-96925243D01*
X203018332Y-96791289D01*
X202675019Y-96723000D01*
X202324981Y-96723000D01*
X201981668Y-96791289D01*
X201658275Y-96925243D01*
X201367229Y-97119714D01*
X201119714Y-97367229D01*
X200925243Y-97658275D01*
X200791289Y-97981668D01*
X200723000Y-98324981D01*
X193016222Y-98324981D01*
X193091408Y-77743400D01*
X197772366Y-77743400D01*
X198595901Y-78566936D01*
X198595900Y-83566757D01*
X198593473Y-83591400D01*
X198595900Y-83616043D01*
X198595900Y-83616052D01*
X198603164Y-83689808D01*
X198631869Y-83784435D01*
X198678483Y-83871645D01*
X198741216Y-83948084D01*
X198760368Y-83963802D01*
X205826600Y-91030036D01*
X205826600Y-91173628D01*
X205856459Y-91323743D01*
X205915031Y-91465148D01*
X206000064Y-91592409D01*
X206108291Y-91700636D01*
X206235552Y-91785669D01*
X206376957Y-91844241D01*
X206527072Y-91874100D01*
X206680128Y-91874100D01*
X206830243Y-91844241D01*
X206971648Y-91785669D01*
X207098909Y-91700636D01*
X207207136Y-91592409D01*
X207292169Y-91465148D01*
X207350741Y-91323743D01*
X207380600Y-91173628D01*
X207380600Y-91020572D01*
X207350741Y-90870457D01*
X207292169Y-90729052D01*
X207207136Y-90601791D01*
X207098909Y-90493564D01*
X206971648Y-90408531D01*
X206830243Y-90349959D01*
X206680128Y-90320100D01*
X206536536Y-90320100D01*
X199599900Y-83383466D01*
X199599900Y-81824981D01*
X200723000Y-81824981D01*
X200723000Y-82175019D01*
X200791289Y-82518332D01*
X200925243Y-82841725D01*
X201119714Y-83132771D01*
X201367229Y-83380286D01*
X201658275Y-83574757D01*
X201981668Y-83708711D01*
X202324981Y-83777000D01*
X202675019Y-83777000D01*
X203018332Y-83708711D01*
X203341725Y-83574757D01*
X203632771Y-83380286D01*
X203880286Y-83132771D01*
X204074757Y-82841725D01*
X204208711Y-82518332D01*
X204277000Y-82175019D01*
X204277000Y-81824981D01*
X204208711Y-81481668D01*
X204074757Y-81158275D01*
X203901162Y-80898472D01*
X207223000Y-80898472D01*
X207223000Y-81051528D01*
X207252859Y-81201643D01*
X207311431Y-81343048D01*
X207396464Y-81470309D01*
X207498001Y-81571846D01*
X207498000Y-96878155D01*
X207396464Y-96979691D01*
X207311431Y-97106952D01*
X207252859Y-97248357D01*
X207223000Y-97398472D01*
X207223000Y-97551528D01*
X207252859Y-97701643D01*
X207311431Y-97843048D01*
X207396464Y-97970309D01*
X207498001Y-98071846D01*
X207498000Y-104403155D01*
X207396464Y-104504691D01*
X207311431Y-104631952D01*
X207252859Y-104773357D01*
X207223000Y-104923472D01*
X207223000Y-105076528D01*
X207252859Y-105226643D01*
X207311431Y-105368048D01*
X207396464Y-105495309D01*
X207504691Y-105603536D01*
X207631952Y-105688569D01*
X207773357Y-105747141D01*
X207923472Y-105777000D01*
X208076528Y-105777000D01*
X208226643Y-105747141D01*
X208368048Y-105688569D01*
X208495309Y-105603536D01*
X208603536Y-105495309D01*
X208688569Y-105368048D01*
X208747141Y-105226643D01*
X208777000Y-105076528D01*
X208777000Y-104923472D01*
X208747141Y-104773357D01*
X208688569Y-104631952D01*
X208603536Y-104504691D01*
X208502000Y-104403155D01*
X208502000Y-102268400D01*
X225280776Y-102268400D01*
X225280776Y-103268400D01*
X225292859Y-103391077D01*
X225328642Y-103509041D01*
X225386752Y-103617756D01*
X225464954Y-103713046D01*
X225560244Y-103791248D01*
X225668959Y-103849358D01*
X225786923Y-103885141D01*
X225909600Y-103897224D01*
X227429600Y-103897224D01*
X227552277Y-103885141D01*
X227670241Y-103849358D01*
X227778956Y-103791248D01*
X227874246Y-103713046D01*
X227952448Y-103617756D01*
X228010558Y-103509041D01*
X228046341Y-103391077D01*
X228058424Y-103268400D01*
X228058424Y-102268400D01*
X228046341Y-102145723D01*
X228010558Y-102027759D01*
X227952448Y-101919044D01*
X227874246Y-101823754D01*
X227778956Y-101745552D01*
X227670241Y-101687442D01*
X227552277Y-101651659D01*
X227429600Y-101639576D01*
X225909600Y-101639576D01*
X225786923Y-101651659D01*
X225668959Y-101687442D01*
X225560244Y-101745552D01*
X225464954Y-101823754D01*
X225386752Y-101919044D01*
X225328642Y-102027759D01*
X225292859Y-102145723D01*
X225280776Y-102268400D01*
X208502000Y-102268400D01*
X208502000Y-98071845D01*
X208603536Y-97970309D01*
X208688569Y-97843048D01*
X208747141Y-97701643D01*
X208777000Y-97551528D01*
X208777000Y-97398472D01*
X208747141Y-97248357D01*
X208688569Y-97106952D01*
X208603536Y-96979691D01*
X208502000Y-96878155D01*
X208502000Y-82837400D01*
X225725276Y-82837400D01*
X225725276Y-83837400D01*
X225737359Y-83960077D01*
X225773142Y-84078041D01*
X225831252Y-84186756D01*
X225909454Y-84282046D01*
X226004744Y-84360248D01*
X226113459Y-84418358D01*
X226231423Y-84454141D01*
X226354100Y-84466224D01*
X227874100Y-84466224D01*
X227996777Y-84454141D01*
X228114741Y-84418358D01*
X228223456Y-84360248D01*
X228318746Y-84282046D01*
X228396948Y-84186756D01*
X228455058Y-84078041D01*
X228490841Y-83960077D01*
X228502924Y-83837400D01*
X228502924Y-82837400D01*
X228490841Y-82714723D01*
X228455058Y-82596759D01*
X228396948Y-82488044D01*
X228318746Y-82392754D01*
X228223456Y-82314552D01*
X228114741Y-82256442D01*
X227996777Y-82220659D01*
X227874100Y-82208576D01*
X226354100Y-82208576D01*
X226231423Y-82220659D01*
X226113459Y-82256442D01*
X226004744Y-82314552D01*
X225909454Y-82392754D01*
X225831252Y-82488044D01*
X225773142Y-82596759D01*
X225737359Y-82714723D01*
X225725276Y-82837400D01*
X208502000Y-82837400D01*
X208502000Y-81571845D01*
X208603536Y-81470309D01*
X208688569Y-81343048D01*
X208747141Y-81201643D01*
X208777000Y-81051528D01*
X208777000Y-80898472D01*
X208747141Y-80748357D01*
X208688569Y-80606952D01*
X208603536Y-80479691D01*
X208495309Y-80371464D01*
X208368048Y-80286431D01*
X208226643Y-80227859D01*
X208076528Y-80198000D01*
X207923472Y-80198000D01*
X207773357Y-80227859D01*
X207631952Y-80286431D01*
X207504691Y-80371464D01*
X207396464Y-80479691D01*
X207311431Y-80606952D01*
X207252859Y-80748357D01*
X207223000Y-80898472D01*
X203901162Y-80898472D01*
X203880286Y-80867229D01*
X203632771Y-80619714D01*
X203341725Y-80425243D01*
X203018332Y-80291289D01*
X202675019Y-80223000D01*
X202324981Y-80223000D01*
X201981668Y-80291289D01*
X201658275Y-80425243D01*
X201367229Y-80619714D01*
X201119714Y-80867229D01*
X200925243Y-81158275D01*
X200791289Y-81481668D01*
X200723000Y-81824981D01*
X199599900Y-81824981D01*
X199599900Y-78383642D01*
X199602327Y-78358999D01*
X199599900Y-78334356D01*
X199599900Y-78334347D01*
X199592636Y-78260591D01*
X199563931Y-78165964D01*
X199517317Y-78078755D01*
X199454584Y-78002316D01*
X199435438Y-77986603D01*
X198352701Y-76903867D01*
X198336984Y-76884716D01*
X198260545Y-76821983D01*
X198173336Y-76775369D01*
X198078709Y-76746664D01*
X198004953Y-76739400D01*
X198004943Y-76739400D01*
X197980300Y-76736973D01*
X197955657Y-76739400D01*
X193095076Y-76739400D01*
X193116716Y-70815132D01*
X225123000Y-70815132D01*
X225123000Y-71184868D01*
X225195132Y-71547501D01*
X225336624Y-71889093D01*
X225542039Y-72196518D01*
X225803482Y-72457961D01*
X226110907Y-72663376D01*
X226452499Y-72804868D01*
X226815132Y-72877000D01*
X227184868Y-72877000D01*
X227547501Y-72804868D01*
X227889093Y-72663376D01*
X228196518Y-72457961D01*
X228457961Y-72196518D01*
X228663376Y-71889093D01*
X228804868Y-71547501D01*
X228877000Y-71184868D01*
X228877000Y-70815132D01*
X228804868Y-70452499D01*
X228663376Y-70110907D01*
X228457961Y-69803482D01*
X228196518Y-69542039D01*
X227889093Y-69336624D01*
X227547501Y-69195132D01*
X227184868Y-69123000D01*
X226815132Y-69123000D01*
X226452499Y-69195132D01*
X226110907Y-69336624D01*
X225803482Y-69542039D01*
X225542039Y-69803482D01*
X225336624Y-70110907D01*
X225195132Y-70452499D01*
X225123000Y-70815132D01*
X193116716Y-70815132D01*
X193125532Y-68402000D01*
X226980342Y-68402000D01*
X227504242Y-68453369D01*
G36*
X192373000Y-76739400D02*
G01*
X188449335Y-76739400D01*
X184565505Y-72855571D01*
X184574757Y-72841725D01*
X184708711Y-72518332D01*
X184777000Y-72175019D01*
X184777000Y-71824981D01*
X184708711Y-71481668D01*
X184574757Y-71158275D01*
X184380286Y-70867229D01*
X184132771Y-70619714D01*
X183841725Y-70425243D01*
X183518332Y-70291289D01*
X183175019Y-70223000D01*
X182824981Y-70223000D01*
X182481668Y-70291289D01*
X182158275Y-70425243D01*
X181867229Y-70619714D01*
X181619714Y-70867229D01*
X181425243Y-71158275D01*
X181291289Y-71481668D01*
X181223000Y-71824981D01*
X181223000Y-72175019D01*
X181291289Y-72518332D01*
X181425243Y-72841725D01*
X181619714Y-73132771D01*
X181867229Y-73380286D01*
X182158275Y-73574757D01*
X182481668Y-73708711D01*
X182824981Y-73777000D01*
X183175019Y-73777000D01*
X183518332Y-73708711D01*
X183841725Y-73574757D01*
X183855571Y-73565505D01*
X187869003Y-77578938D01*
X187884716Y-77598084D01*
X187961155Y-77660817D01*
X188048364Y-77707431D01*
X188142991Y-77736136D01*
X188216747Y-77743400D01*
X188216757Y-77743400D01*
X188241400Y-77745827D01*
X188266043Y-77743400D01*
X192373000Y-77743400D01*
X192373000Y-112000000D01*
X192375440Y-112024776D01*
X192382667Y-112048601D01*
X192394403Y-112070557D01*
X192410197Y-112089803D01*
X192429443Y-112105597D01*
X192451399Y-112117333D01*
X192475224Y-112124560D01*
X192500000Y-112127000D01*
X227871600Y-112127000D01*
X227871600Y-112263273D01*
X227910490Y-112458790D01*
X227986777Y-112642962D01*
X228097528Y-112808713D01*
X228238487Y-112949672D01*
X228404238Y-113060423D01*
X228588410Y-113136710D01*
X228783927Y-113175600D01*
X228983273Y-113175600D01*
X229178790Y-113136710D01*
X229362962Y-113060423D01*
X229528713Y-112949672D01*
X229598001Y-112880384D01*
X229598000Y-120446815D01*
X229528713Y-120377528D01*
X229362962Y-120266777D01*
X229178790Y-120190490D01*
X228983273Y-120151600D01*
X228783927Y-120151600D01*
X228588410Y-120190490D01*
X228404238Y-120266777D01*
X228238487Y-120377528D01*
X228097528Y-120518487D01*
X227986777Y-120684238D01*
X227910490Y-120868410D01*
X227871600Y-121063927D01*
X227871600Y-121263273D01*
X227910490Y-121458790D01*
X227986777Y-121642962D01*
X228097528Y-121808713D01*
X228161815Y-121873000D01*
X179242586Y-121873000D01*
X179328407Y-121744560D01*
X179526469Y-121266396D01*
X179627440Y-120758780D01*
X179627440Y-120241220D01*
X179526469Y-119733604D01*
X179328407Y-119255440D01*
X179040866Y-118825105D01*
X178674895Y-118459134D01*
X178444640Y-118305282D01*
X185023000Y-118305282D01*
X185023000Y-118694718D01*
X185098975Y-119076670D01*
X185248005Y-119436461D01*
X185464364Y-119760264D01*
X185739736Y-120035636D01*
X186063539Y-120251995D01*
X186423330Y-120401025D01*
X186805282Y-120477000D01*
X187194718Y-120477000D01*
X187576670Y-120401025D01*
X187936461Y-120251995D01*
X188260264Y-120035636D01*
X188535636Y-119760264D01*
X188751995Y-119436461D01*
X188901025Y-119076670D01*
X188977000Y-118694718D01*
X188977000Y-118305282D01*
X188948818Y-118163600D01*
X225531147Y-118163600D01*
X225552907Y-118384531D01*
X225617350Y-118596971D01*
X225722000Y-118792757D01*
X225862835Y-118964365D01*
X226034443Y-119105200D01*
X226230229Y-119209850D01*
X226442669Y-119274293D01*
X226608235Y-119290600D01*
X227238965Y-119290600D01*
X227404531Y-119274293D01*
X227616971Y-119209850D01*
X227812757Y-119105200D01*
X227984365Y-118964365D01*
X228125200Y-118792757D01*
X228229850Y-118596971D01*
X228294293Y-118384531D01*
X228316053Y-118163600D01*
X228294293Y-117942669D01*
X228229850Y-117730229D01*
X228125200Y-117534443D01*
X227984365Y-117362835D01*
X227812757Y-117222000D01*
X227616971Y-117117350D01*
X227404531Y-117052907D01*
X227238965Y-117036600D01*
X226608235Y-117036600D01*
X226442669Y-117052907D01*
X226230229Y-117117350D01*
X226034443Y-117222000D01*
X225862835Y-117362835D01*
X225722000Y-117534443D01*
X225617350Y-117730229D01*
X225552907Y-117942669D01*
X225531147Y-118163600D01*
X188948818Y-118163600D01*
X188901025Y-117923330D01*
X188751995Y-117563539D01*
X188535636Y-117239736D01*
X188260264Y-116964364D01*
X187936461Y-116748005D01*
X187576670Y-116598975D01*
X187194718Y-116523000D01*
X186805282Y-116523000D01*
X186423330Y-116598975D01*
X186063539Y-116748005D01*
X185739736Y-116964364D01*
X185464364Y-117239736D01*
X185248005Y-117563539D01*
X185098975Y-117923330D01*
X185023000Y-118305282D01*
X178444640Y-118305282D01*
X178244560Y-118171593D01*
X177766396Y-117973531D01*
X177258780Y-117872560D01*
X176741220Y-117872560D01*
X176233604Y-117973531D01*
X175755440Y-118171593D01*
X175325105Y-118459134D01*
X174959134Y-118825105D01*
X174671593Y-119255440D01*
X174473531Y-119733604D01*
X174372560Y-120241220D01*
X174372560Y-120758780D01*
X174473531Y-121266396D01*
X174671593Y-121744560D01*
X174757414Y-121873000D01*
X168670042Y-121873000D01*
X168804868Y-121547501D01*
X168877000Y-121184868D01*
X168877000Y-120815132D01*
X168804868Y-120452499D01*
X168663376Y-120110907D01*
X168457961Y-119803482D01*
X168196518Y-119542039D01*
X167889093Y-119336624D01*
X167547501Y-119195132D01*
X167184868Y-119123000D01*
X166815132Y-119123000D01*
X166452499Y-119195132D01*
X166110907Y-119336624D01*
X165803482Y-119542039D01*
X165542039Y-119803482D01*
X165336624Y-120110907D01*
X165195132Y-120452499D01*
X165123000Y-120815132D01*
X165123000Y-121184868D01*
X165195132Y-121547501D01*
X165329958Y-121873000D01*
X164402000Y-121873000D01*
X164402000Y-104900327D01*
X167948000Y-104900327D01*
X167948000Y-105099673D01*
X167986890Y-105295190D01*
X168063177Y-105479362D01*
X168173928Y-105645113D01*
X168314887Y-105786072D01*
X168480638Y-105896823D01*
X168664810Y-105973110D01*
X168860327Y-106012000D01*
X169059673Y-106012000D01*
X169255190Y-105973110D01*
X169439362Y-105896823D01*
X169605113Y-105786072D01*
X169746072Y-105645113D01*
X169856823Y-105479362D01*
X169933110Y-105295190D01*
X169972000Y-105099673D01*
X169972000Y-104900327D01*
X169933110Y-104704810D01*
X169856823Y-104520638D01*
X169746072Y-104354887D01*
X169605113Y-104213928D01*
X169439362Y-104103177D01*
X169255190Y-104026890D01*
X169059673Y-103988000D01*
X168860327Y-103988000D01*
X168664810Y-104026890D01*
X168480638Y-104103177D01*
X168314887Y-104213928D01*
X168173928Y-104354887D01*
X168063177Y-104520638D01*
X167986890Y-104704810D01*
X167948000Y-104900327D01*
X164402000Y-104900327D01*
X164402000Y-102000000D01*
X165607547Y-102000000D01*
X165629307Y-102220931D01*
X165693750Y-102433371D01*
X165798400Y-102629157D01*
X165939235Y-102800765D01*
X166110843Y-102941600D01*
X166306629Y-103046250D01*
X166519069Y-103110693D01*
X166684635Y-103127000D01*
X167315365Y-103127000D01*
X167480931Y-103110693D01*
X167693371Y-103046250D01*
X167889157Y-102941600D01*
X168060765Y-102800765D01*
X168201600Y-102629157D01*
X168306250Y-102433371D01*
X168370693Y-102220931D01*
X168392453Y-102000000D01*
X168370693Y-101779069D01*
X168306250Y-101566629D01*
X168201600Y-101370843D01*
X168060765Y-101199235D01*
X167889157Y-101058400D01*
X167693371Y-100953750D01*
X167480931Y-100889307D01*
X167315365Y-100873000D01*
X166684635Y-100873000D01*
X166519069Y-100889307D01*
X166306629Y-100953750D01*
X166110843Y-101058400D01*
X165939235Y-101199235D01*
X165798400Y-101370843D01*
X165693750Y-101566629D01*
X165629307Y-101779069D01*
X165607547Y-102000000D01*
X164402000Y-102000000D01*
X164402000Y-95900327D01*
X167948000Y-95900327D01*
X167948000Y-96099673D01*
X167986890Y-96295190D01*
X168063177Y-96479362D01*
X168173928Y-96645113D01*
X168314887Y-96786072D01*
X168480638Y-96896823D01*
X168664810Y-96973110D01*
X168860327Y-97012000D01*
X169059673Y-97012000D01*
X169255190Y-96973110D01*
X169439362Y-96896823D01*
X169605113Y-96786072D01*
X169746072Y-96645113D01*
X169856823Y-96479362D01*
X169933110Y-96295190D01*
X169972000Y-96099673D01*
X169972000Y-95900327D01*
X169933110Y-95704810D01*
X169856823Y-95520638D01*
X169746072Y-95354887D01*
X169605113Y-95213928D01*
X169439362Y-95103177D01*
X169255190Y-95026890D01*
X169059673Y-94988000D01*
X168860327Y-94988000D01*
X168664810Y-95026890D01*
X168480638Y-95103177D01*
X168314887Y-95213928D01*
X168173928Y-95354887D01*
X168063177Y-95520638D01*
X167986890Y-95704810D01*
X167948000Y-95900327D01*
X164402000Y-95900327D01*
X164402000Y-91400327D01*
X167948000Y-91400327D01*
X167948000Y-91599673D01*
X167986890Y-91795190D01*
X168063177Y-91979362D01*
X168173928Y-92145113D01*
X168314887Y-92286072D01*
X168480638Y-92396823D01*
X168664810Y-92473110D01*
X168860327Y-92512000D01*
X169059673Y-92512000D01*
X169255190Y-92473110D01*
X169439362Y-92396823D01*
X169605113Y-92286072D01*
X169746072Y-92145113D01*
X169856823Y-91979362D01*
X169933110Y-91795190D01*
X169972000Y-91599673D01*
X169972000Y-91400327D01*
X169933110Y-91204810D01*
X169856823Y-91020638D01*
X169746072Y-90854887D01*
X169605113Y-90713928D01*
X169439362Y-90603177D01*
X169255190Y-90526890D01*
X169059673Y-90488000D01*
X168860327Y-90488000D01*
X168664810Y-90526890D01*
X168480638Y-90603177D01*
X168314887Y-90713928D01*
X168173928Y-90854887D01*
X168063177Y-91020638D01*
X167986890Y-91204810D01*
X167948000Y-91400327D01*
X164402000Y-91400327D01*
X164402000Y-88500000D01*
X165607547Y-88500000D01*
X165629307Y-88720931D01*
X165693750Y-88933371D01*
X165798400Y-89129157D01*
X165939235Y-89300765D01*
X166110843Y-89441600D01*
X166306629Y-89546250D01*
X166519069Y-89610693D01*
X166684635Y-89627000D01*
X167315365Y-89627000D01*
X167480931Y-89610693D01*
X167693371Y-89546250D01*
X167889157Y-89441600D01*
X168060765Y-89300765D01*
X168201600Y-89129157D01*
X168306250Y-88933371D01*
X168370693Y-88720931D01*
X168392453Y-88500000D01*
X168370693Y-88279069D01*
X168306250Y-88066629D01*
X168201600Y-87870843D01*
X168060765Y-87699235D01*
X167889157Y-87558400D01*
X167693371Y-87453750D01*
X167480931Y-87389307D01*
X167315365Y-87373000D01*
X166684635Y-87373000D01*
X166519069Y-87389307D01*
X166306629Y-87453750D01*
X166110843Y-87558400D01*
X165939235Y-87699235D01*
X165798400Y-87870843D01*
X165693750Y-88066629D01*
X165629307Y-88279069D01*
X165607547Y-88500000D01*
X164402000Y-88500000D01*
X164402000Y-85500000D01*
X165607547Y-85500000D01*
X165629307Y-85720931D01*
X165693750Y-85933371D01*
X165798400Y-86129157D01*
X165939235Y-86300765D01*
X166110843Y-86441600D01*
X166306629Y-86546250D01*
X166519069Y-86610693D01*
X166684635Y-86627000D01*
X167315365Y-86627000D01*
X167480931Y-86610693D01*
X167693371Y-86546250D01*
X167889157Y-86441600D01*
X168060765Y-86300765D01*
X168201600Y-86129157D01*
X168306250Y-85933371D01*
X168370693Y-85720931D01*
X168392453Y-85500000D01*
X168370693Y-85279069D01*
X168306250Y-85066629D01*
X168201600Y-84870843D01*
X168060765Y-84699235D01*
X167889157Y-84558400D01*
X167693371Y-84453750D01*
X167480931Y-84389307D01*
X167315365Y-84373000D01*
X166684635Y-84373000D01*
X166519069Y-84389307D01*
X166306629Y-84453750D01*
X166110843Y-84558400D01*
X165939235Y-84699235D01*
X165798400Y-84870843D01*
X165693750Y-85066629D01*
X165629307Y-85279069D01*
X165607547Y-85500000D01*
X164402000Y-85500000D01*
X164402000Y-82500000D01*
X165607547Y-82500000D01*
X165629307Y-82720931D01*
X165693750Y-82933371D01*
X165798400Y-83129157D01*
X165939235Y-83300765D01*
X166110843Y-83441600D01*
X166306629Y-83546250D01*
X166519069Y-83610693D01*
X166684635Y-83627000D01*
X167315365Y-83627000D01*
X167480931Y-83610693D01*
X167693371Y-83546250D01*
X167889157Y-83441600D01*
X168060765Y-83300765D01*
X168201600Y-83129157D01*
X168306250Y-82933371D01*
X168370693Y-82720931D01*
X168392453Y-82500000D01*
X168370693Y-82279069D01*
X168306250Y-82066629D01*
X168201600Y-81870843D01*
X168060765Y-81699235D01*
X167889157Y-81558400D01*
X167693371Y-81453750D01*
X167480931Y-81389307D01*
X167315365Y-81373000D01*
X166684635Y-81373000D01*
X166519069Y-81389307D01*
X166306629Y-81453750D01*
X166110843Y-81558400D01*
X165939235Y-81699235D01*
X165798400Y-81870843D01*
X165693750Y-82066629D01*
X165629307Y-82279069D01*
X165607547Y-82500000D01*
X164402000Y-82500000D01*
X164402000Y-79000000D01*
X165611176Y-79000000D01*
X165611176Y-80000000D01*
X165623259Y-80122677D01*
X165659042Y-80240641D01*
X165717152Y-80349356D01*
X165795354Y-80444646D01*
X165890644Y-80522848D01*
X165999359Y-80580958D01*
X166117323Y-80616741D01*
X166240000Y-80628824D01*
X167760000Y-80628824D01*
X167882677Y-80616741D01*
X168000641Y-80580958D01*
X168109356Y-80522848D01*
X168204646Y-80444646D01*
X168282848Y-80349356D01*
X168340958Y-80240641D01*
X168376741Y-80122677D01*
X168388824Y-80000000D01*
X168388824Y-79000000D01*
X168376741Y-78877323D01*
X168340958Y-78759359D01*
X168282848Y-78650644D01*
X168204646Y-78555354D01*
X168109356Y-78477152D01*
X168000641Y-78419042D01*
X167882677Y-78383259D01*
X167760000Y-78371176D01*
X166240000Y-78371176D01*
X166117323Y-78383259D01*
X165999359Y-78419042D01*
X165890644Y-78477152D01*
X165795354Y-78555354D01*
X165717152Y-78650644D01*
X165659042Y-78759359D01*
X165623259Y-78877323D01*
X165611176Y-79000000D01*
X164402000Y-79000000D01*
X164402000Y-76400327D01*
X167948000Y-76400327D01*
X167948000Y-76599673D01*
X167986890Y-76795190D01*
X168063177Y-76979362D01*
X168173928Y-77145113D01*
X168314887Y-77286072D01*
X168480638Y-77396823D01*
X168664810Y-77473110D01*
X168860327Y-77512000D01*
X169059673Y-77512000D01*
X169255190Y-77473110D01*
X169439362Y-77396823D01*
X169605113Y-77286072D01*
X169746072Y-77145113D01*
X169856823Y-76979362D01*
X169933110Y-76795190D01*
X169972000Y-76599673D01*
X169972000Y-76400327D01*
X169933110Y-76204810D01*
X169856823Y-76020638D01*
X169746072Y-75854887D01*
X169605113Y-75713928D01*
X169439362Y-75603177D01*
X169255190Y-75526890D01*
X169059673Y-75488000D01*
X168860327Y-75488000D01*
X168664810Y-75526890D01*
X168480638Y-75603177D01*
X168314887Y-75713928D01*
X168173928Y-75854887D01*
X168063177Y-76020638D01*
X167986890Y-76204810D01*
X167948000Y-76400327D01*
X164402000Y-76400327D01*
X164402000Y-71019658D01*
X164422054Y-70815132D01*
X165123000Y-70815132D01*
X165123000Y-71184868D01*
X165195132Y-71547501D01*
X165336624Y-71889093D01*
X165542039Y-72196518D01*
X165803482Y-72457961D01*
X166110907Y-72663376D01*
X166452499Y-72804868D01*
X166815132Y-72877000D01*
X167184868Y-72877000D01*
X167547501Y-72804868D01*
X167889093Y-72663376D01*
X168196518Y-72457961D01*
X168457961Y-72196518D01*
X168663376Y-71889093D01*
X168804868Y-71547501D01*
X168877000Y-71184868D01*
X168877000Y-70815132D01*
X168804868Y-70452499D01*
X168663376Y-70110907D01*
X168457961Y-69803482D01*
X168196518Y-69542039D01*
X167889093Y-69336624D01*
X167547501Y-69195132D01*
X167184868Y-69123000D01*
X166815132Y-69123000D01*
X166452499Y-69195132D01*
X166110907Y-69336624D01*
X165803482Y-69542039D01*
X165542039Y-69803482D01*
X165336624Y-70110907D01*
X165195132Y-70452499D01*
X165123000Y-70815132D01*
X164422054Y-70815132D01*
X164453369Y-70495758D01*
X164599812Y-70010714D01*
X164837674Y-69563358D01*
X165157904Y-69170718D01*
X165548294Y-68847759D01*
X165993980Y-68606778D01*
X166477987Y-68456952D01*
X167000820Y-68402000D01*
X192373000Y-68402000D01*
X192373000Y-76739400D01*
G37*
X192373000Y-76739400D02*
X188449335Y-76739400D01*
X184565505Y-72855571D01*
X184574757Y-72841725D01*
X184708711Y-72518332D01*
X184777000Y-72175019D01*
X184777000Y-71824981D01*
X184708711Y-71481668D01*
X184574757Y-71158275D01*
X184380286Y-70867229D01*
X184132771Y-70619714D01*
X183841725Y-70425243D01*
X183518332Y-70291289D01*
X183175019Y-70223000D01*
X182824981Y-70223000D01*
X182481668Y-70291289D01*
X182158275Y-70425243D01*
X181867229Y-70619714D01*
X181619714Y-70867229D01*
X181425243Y-71158275D01*
X181291289Y-71481668D01*
X181223000Y-71824981D01*
X181223000Y-72175019D01*
X181291289Y-72518332D01*
X181425243Y-72841725D01*
X181619714Y-73132771D01*
X181867229Y-73380286D01*
X182158275Y-73574757D01*
X182481668Y-73708711D01*
X182824981Y-73777000D01*
X183175019Y-73777000D01*
X183518332Y-73708711D01*
X183841725Y-73574757D01*
X183855571Y-73565505D01*
X187869003Y-77578938D01*
X187884716Y-77598084D01*
X187961155Y-77660817D01*
X188048364Y-77707431D01*
X188142991Y-77736136D01*
X188216747Y-77743400D01*
X188216757Y-77743400D01*
X188241400Y-77745827D01*
X188266043Y-77743400D01*
X192373000Y-77743400D01*
X192373000Y-112000000D01*
X192375440Y-112024776D01*
X192382667Y-112048601D01*
X192394403Y-112070557D01*
X192410197Y-112089803D01*
X192429443Y-112105597D01*
X192451399Y-112117333D01*
X192475224Y-112124560D01*
X192500000Y-112127000D01*
X227871600Y-112127000D01*
X227871600Y-112263273D01*
X227910490Y-112458790D01*
X227986777Y-112642962D01*
X228097528Y-112808713D01*
X228238487Y-112949672D01*
X228404238Y-113060423D01*
X228588410Y-113136710D01*
X228783927Y-113175600D01*
X228983273Y-113175600D01*
X229178790Y-113136710D01*
X229362962Y-113060423D01*
X229528713Y-112949672D01*
X229598001Y-112880384D01*
X229598000Y-120446815D01*
X229528713Y-120377528D01*
X229362962Y-120266777D01*
X229178790Y-120190490D01*
X228983273Y-120151600D01*
X228783927Y-120151600D01*
X228588410Y-120190490D01*
X228404238Y-120266777D01*
X228238487Y-120377528D01*
X228097528Y-120518487D01*
X227986777Y-120684238D01*
X227910490Y-120868410D01*
X227871600Y-121063927D01*
X227871600Y-121263273D01*
X227910490Y-121458790D01*
X227986777Y-121642962D01*
X228097528Y-121808713D01*
X228161815Y-121873000D01*
X179242586Y-121873000D01*
X179328407Y-121744560D01*
X179526469Y-121266396D01*
X179627440Y-120758780D01*
X179627440Y-120241220D01*
X179526469Y-119733604D01*
X179328407Y-119255440D01*
X179040866Y-118825105D01*
X178674895Y-118459134D01*
X178444640Y-118305282D01*
X185023000Y-118305282D01*
X185023000Y-118694718D01*
X185098975Y-119076670D01*
X185248005Y-119436461D01*
X185464364Y-119760264D01*
X185739736Y-120035636D01*
X186063539Y-120251995D01*
X186423330Y-120401025D01*
X186805282Y-120477000D01*
X187194718Y-120477000D01*
X187576670Y-120401025D01*
X187936461Y-120251995D01*
X188260264Y-120035636D01*
X188535636Y-119760264D01*
X188751995Y-119436461D01*
X188901025Y-119076670D01*
X188977000Y-118694718D01*
X188977000Y-118305282D01*
X188948818Y-118163600D01*
X225531147Y-118163600D01*
X225552907Y-118384531D01*
X225617350Y-118596971D01*
X225722000Y-118792757D01*
X225862835Y-118964365D01*
X226034443Y-119105200D01*
X226230229Y-119209850D01*
X226442669Y-119274293D01*
X226608235Y-119290600D01*
X227238965Y-119290600D01*
X227404531Y-119274293D01*
X227616971Y-119209850D01*
X227812757Y-119105200D01*
X227984365Y-118964365D01*
X228125200Y-118792757D01*
X228229850Y-118596971D01*
X228294293Y-118384531D01*
X228316053Y-118163600D01*
X228294293Y-117942669D01*
X228229850Y-117730229D01*
X228125200Y-117534443D01*
X227984365Y-117362835D01*
X227812757Y-117222000D01*
X227616971Y-117117350D01*
X227404531Y-117052907D01*
X227238965Y-117036600D01*
X226608235Y-117036600D01*
X226442669Y-117052907D01*
X226230229Y-117117350D01*
X226034443Y-117222000D01*
X225862835Y-117362835D01*
X225722000Y-117534443D01*
X225617350Y-117730229D01*
X225552907Y-117942669D01*
X225531147Y-118163600D01*
X188948818Y-118163600D01*
X188901025Y-117923330D01*
X188751995Y-117563539D01*
X188535636Y-117239736D01*
X188260264Y-116964364D01*
X187936461Y-116748005D01*
X187576670Y-116598975D01*
X187194718Y-116523000D01*
X186805282Y-116523000D01*
X186423330Y-116598975D01*
X186063539Y-116748005D01*
X185739736Y-116964364D01*
X185464364Y-117239736D01*
X185248005Y-117563539D01*
X185098975Y-117923330D01*
X185023000Y-118305282D01*
X178444640Y-118305282D01*
X178244560Y-118171593D01*
X177766396Y-117973531D01*
X177258780Y-117872560D01*
X176741220Y-117872560D01*
X176233604Y-117973531D01*
X175755440Y-118171593D01*
X175325105Y-118459134D01*
X174959134Y-118825105D01*
X174671593Y-119255440D01*
X174473531Y-119733604D01*
X174372560Y-120241220D01*
X174372560Y-120758780D01*
X174473531Y-121266396D01*
X174671593Y-121744560D01*
X174757414Y-121873000D01*
X168670042Y-121873000D01*
X168804868Y-121547501D01*
X168877000Y-121184868D01*
X168877000Y-120815132D01*
X168804868Y-120452499D01*
X168663376Y-120110907D01*
X168457961Y-119803482D01*
X168196518Y-119542039D01*
X167889093Y-119336624D01*
X167547501Y-119195132D01*
X167184868Y-119123000D01*
X166815132Y-119123000D01*
X166452499Y-119195132D01*
X166110907Y-119336624D01*
X165803482Y-119542039D01*
X165542039Y-119803482D01*
X165336624Y-120110907D01*
X165195132Y-120452499D01*
X165123000Y-120815132D01*
X165123000Y-121184868D01*
X165195132Y-121547501D01*
X165329958Y-121873000D01*
X164402000Y-121873000D01*
X164402000Y-104900327D01*
X167948000Y-104900327D01*
X167948000Y-105099673D01*
X167986890Y-105295190D01*
X168063177Y-105479362D01*
X168173928Y-105645113D01*
X168314887Y-105786072D01*
X168480638Y-105896823D01*
X168664810Y-105973110D01*
X168860327Y-106012000D01*
X169059673Y-106012000D01*
X169255190Y-105973110D01*
X169439362Y-105896823D01*
X169605113Y-105786072D01*
X169746072Y-105645113D01*
X169856823Y-105479362D01*
X169933110Y-105295190D01*
X169972000Y-105099673D01*
X169972000Y-104900327D01*
X169933110Y-104704810D01*
X169856823Y-104520638D01*
X169746072Y-104354887D01*
X169605113Y-104213928D01*
X169439362Y-104103177D01*
X169255190Y-104026890D01*
X169059673Y-103988000D01*
X168860327Y-103988000D01*
X168664810Y-104026890D01*
X168480638Y-104103177D01*
X168314887Y-104213928D01*
X168173928Y-104354887D01*
X168063177Y-104520638D01*
X167986890Y-104704810D01*
X167948000Y-104900327D01*
X164402000Y-104900327D01*
X164402000Y-102000000D01*
X165607547Y-102000000D01*
X165629307Y-102220931D01*
X165693750Y-102433371D01*
X165798400Y-102629157D01*
X165939235Y-102800765D01*
X166110843Y-102941600D01*
X166306629Y-103046250D01*
X166519069Y-103110693D01*
X166684635Y-103127000D01*
X167315365Y-103127000D01*
X167480931Y-103110693D01*
X167693371Y-103046250D01*
X167889157Y-102941600D01*
X168060765Y-102800765D01*
X168201600Y-102629157D01*
X168306250Y-102433371D01*
X168370693Y-102220931D01*
X168392453Y-102000000D01*
X168370693Y-101779069D01*
X168306250Y-101566629D01*
X168201600Y-101370843D01*
X168060765Y-101199235D01*
X167889157Y-101058400D01*
X167693371Y-100953750D01*
X167480931Y-100889307D01*
X167315365Y-100873000D01*
X166684635Y-100873000D01*
X166519069Y-100889307D01*
X166306629Y-100953750D01*
X166110843Y-101058400D01*
X165939235Y-101199235D01*
X165798400Y-101370843D01*
X165693750Y-101566629D01*
X165629307Y-101779069D01*
X165607547Y-102000000D01*
X164402000Y-102000000D01*
X164402000Y-95900327D01*
X167948000Y-95900327D01*
X167948000Y-96099673D01*
X167986890Y-96295190D01*
X168063177Y-96479362D01*
X168173928Y-96645113D01*
X168314887Y-96786072D01*
X168480638Y-96896823D01*
X168664810Y-96973110D01*
X168860327Y-97012000D01*
X169059673Y-97012000D01*
X169255190Y-96973110D01*
X169439362Y-96896823D01*
X169605113Y-96786072D01*
X169746072Y-96645113D01*
X169856823Y-96479362D01*
X169933110Y-96295190D01*
X169972000Y-96099673D01*
X169972000Y-95900327D01*
X169933110Y-95704810D01*
X169856823Y-95520638D01*
X169746072Y-95354887D01*
X169605113Y-95213928D01*
X169439362Y-95103177D01*
X169255190Y-95026890D01*
X169059673Y-94988000D01*
X168860327Y-94988000D01*
X168664810Y-95026890D01*
X168480638Y-95103177D01*
X168314887Y-95213928D01*
X168173928Y-95354887D01*
X168063177Y-95520638D01*
X167986890Y-95704810D01*
X167948000Y-95900327D01*
X164402000Y-95900327D01*
X164402000Y-91400327D01*
X167948000Y-91400327D01*
X167948000Y-91599673D01*
X167986890Y-91795190D01*
X168063177Y-91979362D01*
X168173928Y-92145113D01*
X168314887Y-92286072D01*
X168480638Y-92396823D01*
X168664810Y-92473110D01*
X168860327Y-92512000D01*
X169059673Y-92512000D01*
X169255190Y-92473110D01*
X169439362Y-92396823D01*
X169605113Y-92286072D01*
X169746072Y-92145113D01*
X169856823Y-91979362D01*
X169933110Y-91795190D01*
X169972000Y-91599673D01*
X169972000Y-91400327D01*
X169933110Y-91204810D01*
X169856823Y-91020638D01*
X169746072Y-90854887D01*
X169605113Y-90713928D01*
X169439362Y-90603177D01*
X169255190Y-90526890D01*
X169059673Y-90488000D01*
X168860327Y-90488000D01*
X168664810Y-90526890D01*
X168480638Y-90603177D01*
X168314887Y-90713928D01*
X168173928Y-90854887D01*
X168063177Y-91020638D01*
X167986890Y-91204810D01*
X167948000Y-91400327D01*
X164402000Y-91400327D01*
X164402000Y-88500000D01*
X165607547Y-88500000D01*
X165629307Y-88720931D01*
X165693750Y-88933371D01*
X165798400Y-89129157D01*
X165939235Y-89300765D01*
X166110843Y-89441600D01*
X166306629Y-89546250D01*
X166519069Y-89610693D01*
X166684635Y-89627000D01*
X167315365Y-89627000D01*
X167480931Y-89610693D01*
X167693371Y-89546250D01*
X167889157Y-89441600D01*
X168060765Y-89300765D01*
X168201600Y-89129157D01*
X168306250Y-88933371D01*
X168370693Y-88720931D01*
X168392453Y-88500000D01*
X168370693Y-88279069D01*
X168306250Y-88066629D01*
X168201600Y-87870843D01*
X168060765Y-87699235D01*
X167889157Y-87558400D01*
X167693371Y-87453750D01*
X167480931Y-87389307D01*
X167315365Y-87373000D01*
X166684635Y-87373000D01*
X166519069Y-87389307D01*
X166306629Y-87453750D01*
X166110843Y-87558400D01*
X165939235Y-87699235D01*
X165798400Y-87870843D01*
X165693750Y-88066629D01*
X165629307Y-88279069D01*
X165607547Y-88500000D01*
X164402000Y-88500000D01*
X164402000Y-85500000D01*
X165607547Y-85500000D01*
X165629307Y-85720931D01*
X165693750Y-85933371D01*
X165798400Y-86129157D01*
X165939235Y-86300765D01*
X166110843Y-86441600D01*
X166306629Y-86546250D01*
X166519069Y-86610693D01*
X166684635Y-86627000D01*
X167315365Y-86627000D01*
X167480931Y-86610693D01*
X167693371Y-86546250D01*
X167889157Y-86441600D01*
X168060765Y-86300765D01*
X168201600Y-86129157D01*
X168306250Y-85933371D01*
X168370693Y-85720931D01*
X168392453Y-85500000D01*
X168370693Y-85279069D01*
X168306250Y-85066629D01*
X168201600Y-84870843D01*
X168060765Y-84699235D01*
X167889157Y-84558400D01*
X167693371Y-84453750D01*
X167480931Y-84389307D01*
X167315365Y-84373000D01*
X166684635Y-84373000D01*
X166519069Y-84389307D01*
X166306629Y-84453750D01*
X166110843Y-84558400D01*
X165939235Y-84699235D01*
X165798400Y-84870843D01*
X165693750Y-85066629D01*
X165629307Y-85279069D01*
X165607547Y-85500000D01*
X164402000Y-85500000D01*
X164402000Y-82500000D01*
X165607547Y-82500000D01*
X165629307Y-82720931D01*
X165693750Y-82933371D01*
X165798400Y-83129157D01*
X165939235Y-83300765D01*
X166110843Y-83441600D01*
X166306629Y-83546250D01*
X166519069Y-83610693D01*
X166684635Y-83627000D01*
X167315365Y-83627000D01*
X167480931Y-83610693D01*
X167693371Y-83546250D01*
X167889157Y-83441600D01*
X168060765Y-83300765D01*
X168201600Y-83129157D01*
X168306250Y-82933371D01*
X168370693Y-82720931D01*
X168392453Y-82500000D01*
X168370693Y-82279069D01*
X168306250Y-82066629D01*
X168201600Y-81870843D01*
X168060765Y-81699235D01*
X167889157Y-81558400D01*
X167693371Y-81453750D01*
X167480931Y-81389307D01*
X167315365Y-81373000D01*
X166684635Y-81373000D01*
X166519069Y-81389307D01*
X166306629Y-81453750D01*
X166110843Y-81558400D01*
X165939235Y-81699235D01*
X165798400Y-81870843D01*
X165693750Y-82066629D01*
X165629307Y-82279069D01*
X165607547Y-82500000D01*
X164402000Y-82500000D01*
X164402000Y-79000000D01*
X165611176Y-79000000D01*
X165611176Y-80000000D01*
X165623259Y-80122677D01*
X165659042Y-80240641D01*
X165717152Y-80349356D01*
X165795354Y-80444646D01*
X165890644Y-80522848D01*
X165999359Y-80580958D01*
X166117323Y-80616741D01*
X166240000Y-80628824D01*
X167760000Y-80628824D01*
X167882677Y-80616741D01*
X168000641Y-80580958D01*
X168109356Y-80522848D01*
X168204646Y-80444646D01*
X168282848Y-80349356D01*
X168340958Y-80240641D01*
X168376741Y-80122677D01*
X168388824Y-80000000D01*
X168388824Y-79000000D01*
X168376741Y-78877323D01*
X168340958Y-78759359D01*
X168282848Y-78650644D01*
X168204646Y-78555354D01*
X168109356Y-78477152D01*
X168000641Y-78419042D01*
X167882677Y-78383259D01*
X167760000Y-78371176D01*
X166240000Y-78371176D01*
X166117323Y-78383259D01*
X165999359Y-78419042D01*
X165890644Y-78477152D01*
X165795354Y-78555354D01*
X165717152Y-78650644D01*
X165659042Y-78759359D01*
X165623259Y-78877323D01*
X165611176Y-79000000D01*
X164402000Y-79000000D01*
X164402000Y-76400327D01*
X167948000Y-76400327D01*
X167948000Y-76599673D01*
X167986890Y-76795190D01*
X168063177Y-76979362D01*
X168173928Y-77145113D01*
X168314887Y-77286072D01*
X168480638Y-77396823D01*
X168664810Y-77473110D01*
X168860327Y-77512000D01*
X169059673Y-77512000D01*
X169255190Y-77473110D01*
X169439362Y-77396823D01*
X169605113Y-77286072D01*
X169746072Y-77145113D01*
X169856823Y-76979362D01*
X169933110Y-76795190D01*
X169972000Y-76599673D01*
X169972000Y-76400327D01*
X169933110Y-76204810D01*
X169856823Y-76020638D01*
X169746072Y-75854887D01*
X169605113Y-75713928D01*
X169439362Y-75603177D01*
X169255190Y-75526890D01*
X169059673Y-75488000D01*
X168860327Y-75488000D01*
X168664810Y-75526890D01*
X168480638Y-75603177D01*
X168314887Y-75713928D01*
X168173928Y-75854887D01*
X168063177Y-76020638D01*
X167986890Y-76204810D01*
X167948000Y-76400327D01*
X164402000Y-76400327D01*
X164402000Y-71019658D01*
X164422054Y-70815132D01*
X165123000Y-70815132D01*
X165123000Y-71184868D01*
X165195132Y-71547501D01*
X165336624Y-71889093D01*
X165542039Y-72196518D01*
X165803482Y-72457961D01*
X166110907Y-72663376D01*
X166452499Y-72804868D01*
X166815132Y-72877000D01*
X167184868Y-72877000D01*
X167547501Y-72804868D01*
X167889093Y-72663376D01*
X168196518Y-72457961D01*
X168457961Y-72196518D01*
X168663376Y-71889093D01*
X168804868Y-71547501D01*
X168877000Y-71184868D01*
X168877000Y-70815132D01*
X168804868Y-70452499D01*
X168663376Y-70110907D01*
X168457961Y-69803482D01*
X168196518Y-69542039D01*
X167889093Y-69336624D01*
X167547501Y-69195132D01*
X167184868Y-69123000D01*
X166815132Y-69123000D01*
X166452499Y-69195132D01*
X166110907Y-69336624D01*
X165803482Y-69542039D01*
X165542039Y-69803482D01*
X165336624Y-70110907D01*
X165195132Y-70452499D01*
X165123000Y-70815132D01*
X164422054Y-70815132D01*
X164453369Y-70495758D01*
X164599812Y-70010714D01*
X164837674Y-69563358D01*
X165157904Y-69170718D01*
X165548294Y-68847759D01*
X165993980Y-68606778D01*
X166477987Y-68456952D01*
X167000820Y-68402000D01*
X192373000Y-68402000D01*
X192373000Y-76739400D01*
M02*
