M48
; DRILL file {KiCad (5.1.5)-3} date 1/10/2021 10:56:33 PM
; FORMAT={-:-/ absolute / inch / decimal}
; #@! TF.CreationDate,2021-01-10T22:56:33-06:00
; #@! TF.GenerationSoftware,Kicad,Pcbnew,(5.1.5)-3
FMAT,2
INCH
T1C0.0157
T2C0.0402
T3C0.0472
T4C0.0520
T5C0.0630
T6C0.0787
T7C0.0500
T8C0.1181
T9C0.1260
%
G90
G05
T1
X8.189Y-3.188
X8.189Y-3.8376
X8.189Y-4.1339
X8.189Y-4.4882
T2
X6.5748Y-3.8976
X6.5748Y-4.0157
X8.7008Y-3.9173
X8.7008Y-4.0354
X6.5748Y-3.1299
X6.5748Y-3.248
X6.5748Y-3.3661
X6.5748Y-3.4843
X8.7008Y-3.2677
X8.7008Y-3.3858
X8.7008Y-4.5669
X8.7008Y-4.685
T3
X6.9291Y-3.7598
X6.9291Y-4.1598
X6.9291Y-3.1102
X6.9291Y-3.5102
T4
X6.826Y-5.4724
X6.826Y-5.7724
X6.926Y-5.4724
X6.926Y-5.7724
X7.126Y-5.4724
X7.126Y-5.7724
T5
X7.9724Y-3.9183
X7.9764Y-2.8839
X7.2047Y-2.8839
X7.9724Y-3.2687
T6
X6.9685Y-4.7441
X8.6024Y-6.3091
T7
X6.652Y-3.7795
X6.652Y-4.1339
X6.652Y-3.0118
X6.652Y-3.6024
T8
X6.5748Y-4.7638
X8.8709Y-3.9764
X8.8709Y-3.3268
X8.937Y-2.7953
X6.5748Y-2.7953
X8.8709Y-4.626
X6.5748Y-6.4961
X8.937Y-6.4961
T9
X8.2047Y-6.2283
X7.3622Y-4.6654
X6.7157Y-5.1551
X6.7157Y-6.0898
T0
M30
