G04 #@! TF.GenerationSoftware,KiCad,Pcbnew,(6.0.7)*
G04 #@! TF.CreationDate,2023-02-11T16:50:08-06:00*
G04 #@! TF.ProjectId,ContactorDriver,436f6e74-6163-4746-9f72-447269766572,rev?*
G04 #@! TF.SameCoordinates,Original*
G04 #@! TF.FileFunction,Legend,Bot*
G04 #@! TF.FilePolarity,Positive*
%FSLAX46Y46*%
G04 Gerber Fmt 4.6, Leading zero omitted, Abs format (unit mm)*
G04 Created by KiCad (PCBNEW (6.0.7)) date 2023-02-11 16:50:08*
%MOMM*%
%LPD*%
G01*
G04 APERTURE LIST*
G04 Aperture macros list*
%AMRoundRect*
0 Rectangle with rounded corners*
0 $1 Rounding radius*
0 $2 $3 $4 $5 $6 $7 $8 $9 X,Y pos of 4 corners*
0 Add a 4 corners polygon primitive as box body*
4,1,4,$2,$3,$4,$5,$6,$7,$8,$9,$2,$3,0*
0 Add four circle primitives for the rounded corners*
1,1,$1+$1,$2,$3*
1,1,$1+$1,$4,$5*
1,1,$1+$1,$6,$7*
1,1,$1+$1,$8,$9*
0 Add four rect primitives between the rounded corners*
20,1,$1+$1,$2,$3,$4,$5,0*
20,1,$1+$1,$4,$5,$6,$7,0*
20,1,$1+$1,$6,$7,$8,$9,0*
20,1,$1+$1,$8,$9,$2,$3,0*%
G04 Aperture macros list end*
%ADD10C,0.120000*%
%ADD11C,0.100000*%
%ADD12C,0.150000*%
%ADD13C,0.010000*%
%ADD14RoundRect,0.051000X-1.200000X1.200000X-1.200000X-1.200000X1.200000X-1.200000X1.200000X1.200000X0*%
%ADD15O,2.502000X2.502000*%
%ADD16C,3.102000*%
%ADD17C,1.372000*%
%ADD18RoundRect,0.301001X-0.759999X0.499999X-0.759999X-0.499999X0.759999X-0.499999X0.759999X0.499999X0*%
%ADD19O,2.122000X1.602000*%
%ADD20C,2.902000*%
%ADD21C,3.302400*%
%ADD22C,1.630064*%
%ADD23C,4.602880*%
%ADD24C,3.302000*%
G04 APERTURE END LIST*
D10*
X167000000Y-167250000D02*
X195000000Y-167250000D01*
X226500000Y-167250000D02*
X200000000Y-167250000D01*
X167000000Y-167000000D02*
X167000000Y-167500000D01*
D11*
G36*
X167500000Y-167500000D02*
G01*
X167000000Y-167250000D01*
X167500000Y-167000000D01*
X167500000Y-167500000D01*
G37*
X167500000Y-167500000D02*
X167000000Y-167250000D01*
X167500000Y-167000000D01*
X167500000Y-167500000D01*
G36*
X165000000Y-121500000D02*
G01*
X164500000Y-121500000D01*
X164750000Y-121000000D01*
X165000000Y-121500000D01*
G37*
X165000000Y-121500000D02*
X164500000Y-121500000D01*
X164750000Y-121000000D01*
X165000000Y-121500000D01*
G36*
X164750000Y-121000000D02*
G01*
X164500000Y-120500000D01*
X165000000Y-120500000D01*
X164750000Y-121000000D01*
G37*
X164750000Y-121000000D02*
X164500000Y-120500000D01*
X165000000Y-120500000D01*
X164750000Y-121000000D01*
D10*
X164500000Y-71000000D02*
X165000000Y-71000000D01*
X164750000Y-93500000D02*
X164750000Y-71500000D01*
X165000000Y-121000000D02*
X164500000Y-121000000D01*
X164750000Y-164500000D02*
X164750000Y-145500000D01*
D11*
G36*
X165000000Y-71500000D02*
G01*
X164500000Y-71500000D01*
X164750000Y-71000000D01*
X165000000Y-71500000D01*
G37*
X165000000Y-71500000D02*
X164500000Y-71500000D01*
X164750000Y-71000000D01*
X165000000Y-71500000D01*
D10*
X164750000Y-120500000D02*
X164750000Y-98500000D01*
D11*
G36*
X164750000Y-165000000D02*
G01*
X164500000Y-164500000D01*
X165000000Y-164500000D01*
X164750000Y-165000000D01*
G37*
X164750000Y-165000000D02*
X164500000Y-164500000D01*
X165000000Y-164500000D01*
X164750000Y-165000000D01*
D10*
X165000000Y-165000000D02*
X164500000Y-165000000D01*
D11*
G36*
X227000000Y-167250000D02*
G01*
X226500000Y-167500000D01*
X226500000Y-167000000D01*
X227000000Y-167250000D01*
G37*
X227000000Y-167250000D02*
X226500000Y-167500000D01*
X226500000Y-167000000D01*
X227000000Y-167250000D01*
D10*
X227000000Y-167500000D02*
X227000000Y-167000000D01*
X164750000Y-140500000D02*
X164750000Y-121500000D01*
D12*
X199119047Y-166452380D02*
X199309523Y-166452380D01*
X199404761Y-166500000D01*
X199452380Y-166547619D01*
X199547619Y-166690476D01*
X199595238Y-166880952D01*
X199595238Y-167261904D01*
X199547619Y-167357142D01*
X199500000Y-167404761D01*
X199404761Y-167452380D01*
X199214285Y-167452380D01*
X199119047Y-167404761D01*
X199071428Y-167357142D01*
X199023809Y-167261904D01*
X199023809Y-167023809D01*
X199071428Y-166928571D01*
X199119047Y-166880952D01*
X199214285Y-166833333D01*
X199404761Y-166833333D01*
X199500000Y-166880952D01*
X199547619Y-166928571D01*
X199595238Y-167023809D01*
X198404761Y-166452380D02*
X198309523Y-166452380D01*
X198214285Y-166500000D01*
X198166666Y-166547619D01*
X198119047Y-166642857D01*
X198071428Y-166833333D01*
X198071428Y-167071428D01*
X198119047Y-167261904D01*
X198166666Y-167357142D01*
X198214285Y-167404761D01*
X198309523Y-167452380D01*
X198404761Y-167452380D01*
X198500000Y-167404761D01*
X198547619Y-167357142D01*
X198595238Y-167261904D01*
X198642857Y-167071428D01*
X198642857Y-166833333D01*
X198595238Y-166642857D01*
X198547619Y-166547619D01*
X198500000Y-166500000D01*
X198404761Y-166452380D01*
X197642857Y-167452380D02*
X197642857Y-166785714D01*
X197642857Y-166880952D02*
X197595238Y-166833333D01*
X197500000Y-166785714D01*
X197357142Y-166785714D01*
X197261904Y-166833333D01*
X197214285Y-166928571D01*
X197214285Y-167452380D01*
X197214285Y-166928571D02*
X197166666Y-166833333D01*
X197071428Y-166785714D01*
X196928571Y-166785714D01*
X196833333Y-166833333D01*
X196785714Y-166928571D01*
X196785714Y-167452380D01*
X196309523Y-167452380D02*
X196309523Y-166785714D01*
X196309523Y-166880952D02*
X196261904Y-166833333D01*
X196166666Y-166785714D01*
X196023809Y-166785714D01*
X195928571Y-166833333D01*
X195880952Y-166928571D01*
X195880952Y-167452380D01*
X195880952Y-166928571D02*
X195833333Y-166833333D01*
X195738095Y-166785714D01*
X195595238Y-166785714D01*
X195500000Y-166833333D01*
X195452380Y-166928571D01*
X195452380Y-167452380D01*
X221500000Y-154652380D02*
X221500000Y-153652380D01*
X221261904Y-153652380D01*
X221119047Y-153700000D01*
X221023809Y-153795238D01*
X220976190Y-153890476D01*
X220928571Y-154080952D01*
X220928571Y-154223809D01*
X220976190Y-154414285D01*
X221023809Y-154509523D01*
X221119047Y-154604761D01*
X221261904Y-154652380D01*
X221500000Y-154652380D01*
X220500000Y-154652380D02*
X220500000Y-153985714D01*
X220500000Y-154176190D02*
X220452380Y-154080952D01*
X220404761Y-154033333D01*
X220309523Y-153985714D01*
X220214285Y-153985714D01*
X219880952Y-154557142D02*
X219833333Y-154604761D01*
X219880952Y-154652380D01*
X219928571Y-154604761D01*
X219880952Y-154557142D01*
X219880952Y-154652380D01*
X218119047Y-153700000D02*
X218214285Y-153652380D01*
X218357142Y-153652380D01*
X218500000Y-153700000D01*
X218595238Y-153795238D01*
X218642857Y-153890476D01*
X218690476Y-154080952D01*
X218690476Y-154223809D01*
X218642857Y-154414285D01*
X218595238Y-154509523D01*
X218500000Y-154604761D01*
X218357142Y-154652380D01*
X218261904Y-154652380D01*
X218119047Y-154604761D01*
X218071428Y-154557142D01*
X218071428Y-154223809D01*
X218261904Y-154223809D01*
X217214285Y-154652380D02*
X217214285Y-154128571D01*
X217261904Y-154033333D01*
X217357142Y-153985714D01*
X217547619Y-153985714D01*
X217642857Y-154033333D01*
X217214285Y-154604761D02*
X217309523Y-154652380D01*
X217547619Y-154652380D01*
X217642857Y-154604761D01*
X217690476Y-154509523D01*
X217690476Y-154414285D01*
X217642857Y-154319047D01*
X217547619Y-154271428D01*
X217309523Y-154271428D01*
X217214285Y-154223809D01*
X216738095Y-154652380D02*
X216738095Y-153985714D01*
X216738095Y-154176190D02*
X216690476Y-154080952D01*
X216642857Y-154033333D01*
X216547619Y-153985714D01*
X216452380Y-153985714D01*
X216214285Y-153985714D02*
X215976190Y-154652380D01*
X215738095Y-153985714D02*
X215976190Y-154652380D01*
X216071428Y-154890476D01*
X216119047Y-154938095D01*
X216214285Y-154985714D01*
X214595238Y-154652380D02*
X214595238Y-153652380D01*
X214595238Y-154128571D02*
X214023809Y-154128571D01*
X214023809Y-154652380D02*
X214023809Y-153652380D01*
X213119047Y-154652380D02*
X213119047Y-154128571D01*
X213166666Y-154033333D01*
X213261904Y-153985714D01*
X213452380Y-153985714D01*
X213547619Y-154033333D01*
X213119047Y-154604761D02*
X213214285Y-154652380D01*
X213452380Y-154652380D01*
X213547619Y-154604761D01*
X213595238Y-154509523D01*
X213595238Y-154414285D01*
X213547619Y-154319047D01*
X213452380Y-154271428D01*
X213214285Y-154271428D01*
X213119047Y-154223809D01*
X212500000Y-154652380D02*
X212595238Y-154604761D01*
X212642857Y-154509523D01*
X212642857Y-153652380D01*
X211976190Y-154652380D02*
X212071428Y-154604761D01*
X212119047Y-154509523D01*
X212119047Y-153652380D01*
X211452380Y-154652380D02*
X211547619Y-154604761D01*
X211595238Y-154557142D01*
X211642857Y-154461904D01*
X211642857Y-154176190D01*
X211595238Y-154080952D01*
X211547619Y-154033333D01*
X211452380Y-153985714D01*
X211309523Y-153985714D01*
X211214285Y-154033333D01*
X211166666Y-154080952D01*
X211119047Y-154176190D01*
X211119047Y-154461904D01*
X211166666Y-154557142D01*
X211214285Y-154604761D01*
X211309523Y-154652380D01*
X211452380Y-154652380D01*
X210261904Y-154604761D02*
X210357142Y-154652380D01*
X210547619Y-154652380D01*
X210642857Y-154604761D01*
X210690476Y-154557142D01*
X210738095Y-154461904D01*
X210738095Y-154176190D01*
X210690476Y-154080952D01*
X210642857Y-154033333D01*
X210547619Y-153985714D01*
X210357142Y-153985714D01*
X210261904Y-154033333D01*
X209833333Y-154652380D02*
X209833333Y-153652380D01*
X209738095Y-154271428D02*
X209452380Y-154652380D01*
X209452380Y-153985714D02*
X209833333Y-154366666D01*
X165214285Y-144619047D02*
X164547619Y-144619047D01*
X165595238Y-144857142D02*
X164880952Y-145095238D01*
X164880952Y-144476190D01*
X165214285Y-143666666D02*
X164547619Y-143666666D01*
X165595238Y-143904761D02*
X164880952Y-144142857D01*
X164880952Y-143523809D01*
X164547619Y-143142857D02*
X165214285Y-143142857D01*
X165119047Y-143142857D02*
X165166666Y-143095238D01*
X165214285Y-143000000D01*
X165214285Y-142857142D01*
X165166666Y-142761904D01*
X165071428Y-142714285D01*
X164547619Y-142714285D01*
X165071428Y-142714285D02*
X165166666Y-142666666D01*
X165214285Y-142571428D01*
X165214285Y-142428571D01*
X165166666Y-142333333D01*
X165071428Y-142285714D01*
X164547619Y-142285714D01*
X164547619Y-141809523D02*
X165214285Y-141809523D01*
X165119047Y-141809523D02*
X165166666Y-141761904D01*
X165214285Y-141666666D01*
X165214285Y-141523809D01*
X165166666Y-141428571D01*
X165071428Y-141380952D01*
X164547619Y-141380952D01*
X165071428Y-141380952D02*
X165166666Y-141333333D01*
X165214285Y-141238095D01*
X165214285Y-141095238D01*
X165166666Y-141000000D01*
X165071428Y-140952380D01*
X164547619Y-140952380D01*
X167809523Y-75202380D02*
X167809523Y-74202380D01*
X167476190Y-74916666D01*
X167142857Y-74202380D01*
X167142857Y-75202380D01*
X166761904Y-74202380D02*
X166142857Y-74202380D01*
X166476190Y-74583333D01*
X166333333Y-74583333D01*
X166238095Y-74630952D01*
X166190476Y-74678571D01*
X166142857Y-74773809D01*
X166142857Y-75011904D01*
X166190476Y-75107142D01*
X166238095Y-75154761D01*
X166333333Y-75202380D01*
X166619047Y-75202380D01*
X166714285Y-75154761D01*
X166761904Y-75107142D01*
X165547619Y-97571428D02*
X165547619Y-98047619D01*
X165071428Y-98095238D01*
X165119047Y-98047619D01*
X165166666Y-97952380D01*
X165166666Y-97714285D01*
X165119047Y-97619047D01*
X165071428Y-97571428D01*
X164976190Y-97523809D01*
X164738095Y-97523809D01*
X164642857Y-97571428D01*
X164595238Y-97619047D01*
X164547619Y-97714285D01*
X164547619Y-97952380D01*
X164595238Y-98047619D01*
X164642857Y-98095238D01*
X165547619Y-96904761D02*
X165547619Y-96809523D01*
X165500000Y-96714285D01*
X165452380Y-96666666D01*
X165357142Y-96619047D01*
X165166666Y-96571428D01*
X164928571Y-96571428D01*
X164738095Y-96619047D01*
X164642857Y-96666666D01*
X164595238Y-96714285D01*
X164547619Y-96809523D01*
X164547619Y-96904761D01*
X164595238Y-97000000D01*
X164642857Y-97047619D01*
X164738095Y-97095238D01*
X164928571Y-97142857D01*
X165166666Y-97142857D01*
X165357142Y-97095238D01*
X165452380Y-97047619D01*
X165500000Y-97000000D01*
X165547619Y-96904761D01*
X164547619Y-96142857D02*
X165214285Y-96142857D01*
X165119047Y-96142857D02*
X165166666Y-96095238D01*
X165214285Y-96000000D01*
X165214285Y-95857142D01*
X165166666Y-95761904D01*
X165071428Y-95714285D01*
X164547619Y-95714285D01*
X165071428Y-95714285D02*
X165166666Y-95666666D01*
X165214285Y-95571428D01*
X165214285Y-95428571D01*
X165166666Y-95333333D01*
X165071428Y-95285714D01*
X164547619Y-95285714D01*
X164547619Y-94809523D02*
X165214285Y-94809523D01*
X165119047Y-94809523D02*
X165166666Y-94761904D01*
X165214285Y-94666666D01*
X165214285Y-94523809D01*
X165166666Y-94428571D01*
X165071428Y-94380952D01*
X164547619Y-94380952D01*
X165071428Y-94380952D02*
X165166666Y-94333333D01*
X165214285Y-94238095D01*
X165214285Y-94095238D01*
X165166666Y-94000000D01*
X165071428Y-93952380D01*
X164547619Y-93952380D01*
G36*
X202961334Y-145085948D02*
G01*
X202938969Y-145151993D01*
X202813167Y-145238971D01*
X202581509Y-145287249D01*
X202468202Y-145279637D01*
X202508521Y-145214517D01*
X202707334Y-145098357D01*
X202825350Y-145043378D01*
X202933856Y-145021023D01*
X202961334Y-145085948D01*
G37*
D13*
X202961334Y-145085948D02*
X202938969Y-145151993D01*
X202813167Y-145238971D01*
X202581509Y-145287249D01*
X202468202Y-145279637D01*
X202508521Y-145214517D01*
X202707334Y-145098357D01*
X202825350Y-145043378D01*
X202933856Y-145021023D01*
X202961334Y-145085948D01*
G36*
X211766667Y-139243667D02*
G01*
X211724334Y-139286000D01*
X211682000Y-139243667D01*
X211724334Y-139201334D01*
X211766667Y-139243667D01*
G37*
X211766667Y-139243667D02*
X211724334Y-139286000D01*
X211682000Y-139243667D01*
X211724334Y-139201334D01*
X211766667Y-139243667D01*
G36*
X209875778Y-133133556D02*
G01*
X209889024Y-133159022D01*
X209819334Y-133190000D01*
X209774512Y-133183890D01*
X209762889Y-133133556D01*
X209775299Y-133123423D01*
X209875778Y-133133556D01*
G37*
X209875778Y-133133556D02*
X209889024Y-133159022D01*
X209819334Y-133190000D01*
X209774512Y-133183890D01*
X209762889Y-133133556D01*
X209775299Y-133123423D01*
X209875778Y-133133556D01*
G36*
X219560211Y-146470021D02*
G01*
X219676244Y-146638935D01*
X219751661Y-146806091D01*
X219862332Y-147085939D01*
X219986451Y-147422646D01*
X220109048Y-147773278D01*
X220215152Y-148094903D01*
X220289793Y-148344586D01*
X220318000Y-148479394D01*
X220312709Y-148513222D01*
X220242807Y-148533527D01*
X220065841Y-148460561D01*
X219868993Y-148308630D01*
X219731791Y-148022551D01*
X219684113Y-147835474D01*
X219603567Y-147502251D01*
X219523598Y-147155286D01*
X219454159Y-146839126D01*
X219405199Y-146598319D01*
X219386667Y-146477413D01*
X219391077Y-146437339D01*
X219453093Y-146396094D01*
X219560211Y-146470021D01*
G37*
X219560211Y-146470021D02*
X219676244Y-146638935D01*
X219751661Y-146806091D01*
X219862332Y-147085939D01*
X219986451Y-147422646D01*
X220109048Y-147773278D01*
X220215152Y-148094903D01*
X220289793Y-148344586D01*
X220318000Y-148479394D01*
X220312709Y-148513222D01*
X220242807Y-148533527D01*
X220065841Y-148460561D01*
X219868993Y-148308630D01*
X219731791Y-148022551D01*
X219684113Y-147835474D01*
X219603567Y-147502251D01*
X219523598Y-147155286D01*
X219454159Y-146839126D01*
X219405199Y-146598319D01*
X219386667Y-146477413D01*
X219391077Y-146437339D01*
X219453093Y-146396094D01*
X219560211Y-146470021D01*
G36*
X202832068Y-145393635D02*
G01*
X202924812Y-145428154D01*
X202849544Y-145480884D01*
X202605797Y-145547119D01*
X202592353Y-145550152D01*
X202407623Y-145624167D01*
X202351280Y-145717977D01*
X202351971Y-145721196D01*
X202313175Y-145792101D01*
X202139614Y-145783711D01*
X201944708Y-145771677D01*
X201733667Y-145808754D01*
X201712552Y-145817312D01*
X201503804Y-145886062D01*
X201437783Y-145874138D01*
X201514476Y-145791247D01*
X201733871Y-145647099D01*
X201788610Y-145616891D01*
X202010374Y-145532186D01*
X202171093Y-145526124D01*
X202254661Y-145544655D01*
X202250560Y-145481055D01*
X202243246Y-145439841D01*
X202340316Y-145395716D01*
X202589448Y-145382000D01*
X202832068Y-145393635D01*
G37*
X202832068Y-145393635D02*
X202924812Y-145428154D01*
X202849544Y-145480884D01*
X202605797Y-145547119D01*
X202592353Y-145550152D01*
X202407623Y-145624167D01*
X202351280Y-145717977D01*
X202351971Y-145721196D01*
X202313175Y-145792101D01*
X202139614Y-145783711D01*
X201944708Y-145771677D01*
X201733667Y-145808754D01*
X201712552Y-145817312D01*
X201503804Y-145886062D01*
X201437783Y-145874138D01*
X201514476Y-145791247D01*
X201733871Y-145647099D01*
X201788610Y-145616891D01*
X202010374Y-145532186D01*
X202171093Y-145526124D01*
X202254661Y-145544655D01*
X202250560Y-145481055D01*
X202243246Y-145439841D01*
X202340316Y-145395716D01*
X202589448Y-145382000D01*
X202832068Y-145393635D01*
G36*
X201324197Y-146159298D02*
G01*
X201333024Y-146313334D01*
X201332205Y-146370778D01*
X201318845Y-146487851D01*
X201294304Y-146461500D01*
X201281137Y-146379901D01*
X201294304Y-146165167D01*
X201302220Y-146141144D01*
X201324197Y-146159298D01*
G37*
X201324197Y-146159298D02*
X201333024Y-146313334D01*
X201332205Y-146370778D01*
X201318845Y-146487851D01*
X201294304Y-146461500D01*
X201281137Y-146379901D01*
X201294304Y-146165167D01*
X201302220Y-146141144D01*
X201324197Y-146159298D01*
G36*
X202961334Y-146017000D02*
G01*
X202919000Y-146059334D01*
X202876667Y-146017000D01*
X202919000Y-145974667D01*
X202961334Y-146017000D01*
G37*
X202961334Y-146017000D02*
X202919000Y-146059334D01*
X202876667Y-146017000D01*
X202919000Y-145974667D01*
X202961334Y-146017000D01*
G36*
X217671798Y-138550845D02*
G01*
X217728309Y-138640066D01*
X217686042Y-138740283D01*
X217523270Y-138892623D01*
X217485322Y-138924290D01*
X217289473Y-139069771D01*
X217165806Y-139110823D01*
X217074676Y-139062453D01*
X217065130Y-139045682D01*
X217087574Y-138919597D01*
X217179834Y-138743793D01*
X217305639Y-138577815D01*
X217428719Y-138481211D01*
X217516880Y-138474248D01*
X217671798Y-138550845D01*
G37*
X217671798Y-138550845D02*
X217728309Y-138640066D01*
X217686042Y-138740283D01*
X217523270Y-138892623D01*
X217485322Y-138924290D01*
X217289473Y-139069771D01*
X217165806Y-139110823D01*
X217074676Y-139062453D01*
X217065130Y-139045682D01*
X217087574Y-138919597D01*
X217179834Y-138743793D01*
X217305639Y-138577815D01*
X217428719Y-138481211D01*
X217516880Y-138474248D01*
X217671798Y-138550845D01*
G36*
X202707334Y-146271000D02*
G01*
X202665000Y-146313334D01*
X202622667Y-146271000D01*
X202665000Y-146228667D01*
X202707334Y-146271000D01*
G37*
X202707334Y-146271000D02*
X202665000Y-146313334D01*
X202622667Y-146271000D01*
X202665000Y-146228667D01*
X202707334Y-146271000D01*
G36*
X202043895Y-146006949D02*
G01*
X202064804Y-146090433D01*
X201962362Y-146195845D01*
X201749936Y-146293847D01*
X201727142Y-146301179D01*
X201544825Y-146360364D01*
X201458500Y-146389357D01*
X201446540Y-146365811D01*
X201437334Y-146236593D01*
X201437355Y-146231884D01*
X201477274Y-146119025D01*
X201619907Y-146122930D01*
X201739137Y-146136720D01*
X201741910Y-146072670D01*
X201745501Y-146003452D01*
X201895346Y-145974667D01*
X202043895Y-146006949D01*
G37*
X202043895Y-146006949D02*
X202064804Y-146090433D01*
X201962362Y-146195845D01*
X201749936Y-146293847D01*
X201727142Y-146301179D01*
X201544825Y-146360364D01*
X201458500Y-146389357D01*
X201446540Y-146365811D01*
X201437334Y-146236593D01*
X201437355Y-146231884D01*
X201477274Y-146119025D01*
X201619907Y-146122930D01*
X201739137Y-146136720D01*
X201741910Y-146072670D01*
X201745501Y-146003452D01*
X201895346Y-145974667D01*
X202043895Y-146006949D01*
G36*
X203655164Y-145399424D02*
G01*
X203723334Y-145516056D01*
X203674463Y-145608566D01*
X203573009Y-145594350D01*
X203488737Y-145482542D01*
X203490532Y-145431229D01*
X203589278Y-145382000D01*
X203655164Y-145399424D01*
G37*
X203655164Y-145399424D02*
X203723334Y-145516056D01*
X203674463Y-145608566D01*
X203573009Y-145594350D01*
X203488737Y-145482542D01*
X203490532Y-145431229D01*
X203589278Y-145382000D01*
X203655164Y-145399424D01*
G36*
X209543482Y-132271114D02*
G01*
X209438804Y-132427481D01*
X209424246Y-132443516D01*
X209294579Y-132571498D01*
X209238670Y-132568897D01*
X209226667Y-132437059D01*
X209248365Y-132343044D01*
X209365785Y-132223399D01*
X209515046Y-132197652D01*
X209543482Y-132271114D01*
G37*
X209543482Y-132271114D02*
X209438804Y-132427481D01*
X209424246Y-132443516D01*
X209294579Y-132571498D01*
X209238670Y-132568897D01*
X209226667Y-132437059D01*
X209248365Y-132343044D01*
X209365785Y-132223399D01*
X209515046Y-132197652D01*
X209543482Y-132271114D01*
G36*
X213121334Y-138989667D02*
G01*
X213079000Y-139032000D01*
X213036667Y-138989667D01*
X213079000Y-138947334D01*
X213121334Y-138989667D01*
G37*
X213121334Y-138989667D02*
X213079000Y-139032000D01*
X213036667Y-138989667D01*
X213079000Y-138947334D01*
X213121334Y-138989667D01*
G36*
X217461734Y-146732234D02*
G01*
X217643510Y-146837475D01*
X217910463Y-147006757D01*
X218230129Y-147218152D01*
X218570045Y-147449731D01*
X218897749Y-147679564D01*
X219180777Y-147885723D01*
X219386667Y-148046279D01*
X219513795Y-148156959D01*
X219744378Y-148390117D01*
X219888946Y-148585105D01*
X219932449Y-148718947D01*
X219859839Y-148768667D01*
X219746126Y-148723175D01*
X219605512Y-148583888D01*
X219511373Y-148482313D01*
X219301280Y-148296558D01*
X219017599Y-148065785D01*
X218694251Y-147815595D01*
X218365156Y-147571587D01*
X218064235Y-147359362D01*
X217825410Y-147204520D01*
X217682600Y-147132661D01*
X217649513Y-147125444D01*
X217547163Y-147155163D01*
X217511233Y-147316093D01*
X217508204Y-147379157D01*
X217532441Y-147903643D01*
X217655256Y-148461615D01*
X217693509Y-148610672D01*
X217729929Y-148835908D01*
X217720518Y-148962513D01*
X217689256Y-148981549D01*
X217578454Y-148921361D01*
X217423037Y-148749522D01*
X217244879Y-148492309D01*
X217065852Y-148176000D01*
X216871259Y-147795000D01*
X217101672Y-147244667D01*
X217111088Y-147222334D01*
X217233988Y-146957657D01*
X217339924Y-146773633D01*
X217406876Y-146708916D01*
X217461734Y-146732234D01*
G37*
X217461734Y-146732234D02*
X217643510Y-146837475D01*
X217910463Y-147006757D01*
X218230129Y-147218152D01*
X218570045Y-147449731D01*
X218897749Y-147679564D01*
X219180777Y-147885723D01*
X219386667Y-148046279D01*
X219513795Y-148156959D01*
X219744378Y-148390117D01*
X219888946Y-148585105D01*
X219932449Y-148718947D01*
X219859839Y-148768667D01*
X219746126Y-148723175D01*
X219605512Y-148583888D01*
X219511373Y-148482313D01*
X219301280Y-148296558D01*
X219017599Y-148065785D01*
X218694251Y-147815595D01*
X218365156Y-147571587D01*
X218064235Y-147359362D01*
X217825410Y-147204520D01*
X217682600Y-147132661D01*
X217649513Y-147125444D01*
X217547163Y-147155163D01*
X217511233Y-147316093D01*
X217508204Y-147379157D01*
X217532441Y-147903643D01*
X217655256Y-148461615D01*
X217693509Y-148610672D01*
X217729929Y-148835908D01*
X217720518Y-148962513D01*
X217689256Y-148981549D01*
X217578454Y-148921361D01*
X217423037Y-148749522D01*
X217244879Y-148492309D01*
X217065852Y-148176000D01*
X216871259Y-147795000D01*
X217101672Y-147244667D01*
X217111088Y-147222334D01*
X217233988Y-146957657D01*
X217339924Y-146773633D01*
X217406876Y-146708916D01*
X217461734Y-146732234D01*
G36*
X204755085Y-144545696D02*
G01*
X204824000Y-144620000D01*
X204821720Y-144640088D01*
X204744331Y-144704667D01*
X204720577Y-144701437D01*
X204612334Y-144620000D01*
X204604369Y-144576379D01*
X204692004Y-144535334D01*
X204755085Y-144545696D01*
G37*
X204755085Y-144545696D02*
X204824000Y-144620000D01*
X204821720Y-144640088D01*
X204744331Y-144704667D01*
X204720577Y-144701437D01*
X204612334Y-144620000D01*
X204604369Y-144576379D01*
X204692004Y-144535334D01*
X204755085Y-144545696D01*
G36*
X201578445Y-147696222D02*
G01*
X201591691Y-147721689D01*
X201522000Y-147752667D01*
X201477178Y-147746557D01*
X201465556Y-147696222D01*
X201477965Y-147686089D01*
X201578445Y-147696222D01*
G37*
X201578445Y-147696222D02*
X201591691Y-147721689D01*
X201522000Y-147752667D01*
X201477178Y-147746557D01*
X201465556Y-147696222D01*
X201477965Y-147686089D01*
X201578445Y-147696222D01*
G36*
X204428033Y-144360282D02*
G01*
X204430967Y-144363250D01*
X204474937Y-144427775D01*
X204379500Y-144404291D01*
X204294041Y-144387450D01*
X204231334Y-144441608D01*
X204199518Y-144496133D01*
X204062000Y-144535334D01*
X203963594Y-144519765D01*
X203892667Y-144452280D01*
X203950619Y-144372376D01*
X204108533Y-144316318D01*
X204292601Y-144308003D01*
X204428033Y-144360282D01*
G37*
X204428033Y-144360282D02*
X204430967Y-144363250D01*
X204474937Y-144427775D01*
X204379500Y-144404291D01*
X204294041Y-144387450D01*
X204231334Y-144441608D01*
X204199518Y-144496133D01*
X204062000Y-144535334D01*
X203963594Y-144519765D01*
X203892667Y-144452280D01*
X203950619Y-144372376D01*
X204108533Y-144316318D01*
X204292601Y-144308003D01*
X204428033Y-144360282D01*
G36*
X203758954Y-144541981D02*
G01*
X203765667Y-144620000D01*
X203748290Y-144645338D01*
X203676004Y-144704667D01*
X203667554Y-144702466D01*
X203638667Y-144620000D01*
X203642113Y-144596794D01*
X203728331Y-144535334D01*
X203758954Y-144541981D01*
G37*
X203758954Y-144541981D02*
X203765667Y-144620000D01*
X203748290Y-144645338D01*
X203676004Y-144704667D01*
X203667554Y-144702466D01*
X203638667Y-144620000D01*
X203642113Y-144596794D01*
X203728331Y-144535334D01*
X203758954Y-144541981D01*
G36*
X211053260Y-134821552D02*
G01*
X211091220Y-135018878D01*
X211070560Y-135352084D01*
X211037185Y-135573701D01*
X210991427Y-135645334D01*
X210964622Y-135688582D01*
X210972649Y-135835834D01*
X210992625Y-135942999D01*
X210987563Y-135971516D01*
X210927792Y-135843064D01*
X210856280Y-135720128D01*
X210729794Y-135589064D01*
X210654314Y-135528496D01*
X210505289Y-135355009D01*
X210379981Y-135158142D01*
X210327334Y-135008503D01*
X210332296Y-134990331D01*
X210436082Y-134899518D01*
X210632079Y-134807153D01*
X210656512Y-134798530D01*
X210911399Y-134749505D01*
X211053260Y-134821552D01*
G37*
X211053260Y-134821552D02*
X211091220Y-135018878D01*
X211070560Y-135352084D01*
X211037185Y-135573701D01*
X210991427Y-135645334D01*
X210964622Y-135688582D01*
X210972649Y-135835834D01*
X210992625Y-135942999D01*
X210987563Y-135971516D01*
X210927792Y-135843064D01*
X210856280Y-135720128D01*
X210729794Y-135589064D01*
X210654314Y-135528496D01*
X210505289Y-135355009D01*
X210379981Y-135158142D01*
X210327334Y-135008503D01*
X210332296Y-134990331D01*
X210436082Y-134899518D01*
X210632079Y-134807153D01*
X210656512Y-134798530D01*
X210911399Y-134749505D01*
X211053260Y-134821552D01*
G36*
X217792841Y-145554494D02*
G01*
X217905000Y-145636000D01*
X217918564Y-145668501D01*
X217872661Y-145720667D01*
X217847826Y-145717506D01*
X217735667Y-145636000D01*
X217722104Y-145603499D01*
X217768007Y-145551334D01*
X217792841Y-145554494D01*
G37*
X217792841Y-145554494D02*
X217905000Y-145636000D01*
X217918564Y-145668501D01*
X217872661Y-145720667D01*
X217847826Y-145717506D01*
X217735667Y-145636000D01*
X217722104Y-145603499D01*
X217768007Y-145551334D01*
X217792841Y-145554494D01*
G36*
X210366079Y-133441022D02*
G01*
X210438671Y-133513891D01*
X210496667Y-133623700D01*
X210480506Y-133660466D01*
X210368620Y-133695855D01*
X210218342Y-133676436D01*
X210111108Y-133605956D01*
X210093087Y-133567972D01*
X210112954Y-133448070D01*
X210224267Y-133392611D01*
X210366079Y-133441022D01*
G37*
X210366079Y-133441022D02*
X210438671Y-133513891D01*
X210496667Y-133623700D01*
X210480506Y-133660466D01*
X210368620Y-133695855D01*
X210218342Y-133676436D01*
X210111108Y-133605956D01*
X210093087Y-133567972D01*
X210112954Y-133448070D01*
X210224267Y-133392611D01*
X210366079Y-133441022D01*
G36*
X210829616Y-141684889D02*
G01*
X210877667Y-141706566D01*
X210882769Y-141707876D01*
X211045724Y-141798761D01*
X211084667Y-141923128D01*
X210983500Y-142031550D01*
X210959954Y-142056251D01*
X211062839Y-142047925D01*
X211069798Y-142046743D01*
X211159196Y-142054769D01*
X211253787Y-142122904D01*
X211286361Y-142164667D01*
X211371504Y-142273832D01*
X211390777Y-142304956D01*
X211434976Y-142376334D01*
X211487403Y-142461000D01*
X211530278Y-142530242D01*
X211539013Y-142545667D01*
X211682837Y-142799667D01*
X211748040Y-142914820D01*
X211789996Y-142990748D01*
X211945671Y-143272475D01*
X211957209Y-143293556D01*
X212027082Y-143421230D01*
X212094760Y-143544896D01*
X212117900Y-143587180D01*
X212187886Y-143716889D01*
X212244540Y-143821890D01*
X212289982Y-143909574D01*
X212307132Y-143942667D01*
X212368589Y-144059261D01*
X212374341Y-144069667D01*
X212433109Y-144175996D01*
X212467931Y-144239000D01*
X212496438Y-144290579D01*
X212512480Y-144319122D01*
X212575033Y-144430425D01*
X212614167Y-144500056D01*
X212671275Y-144601671D01*
X212802009Y-144831667D01*
X212874198Y-144958667D01*
X212946315Y-145085667D01*
X212978101Y-145141644D01*
X213088063Y-145339667D01*
X213141036Y-145435063D01*
X213301185Y-145734112D01*
X213327466Y-145785091D01*
X213356088Y-145840611D01*
X213470954Y-146063427D01*
X213595704Y-146313334D01*
X213659100Y-146440334D01*
X213662747Y-146447640D01*
X213888969Y-146911384D01*
X214069568Y-147287000D01*
X214137516Y-147428320D01*
X214162023Y-147479293D01*
X214265487Y-147696222D01*
X214453934Y-148091334D01*
X214494314Y-148176000D01*
X214614941Y-148411693D01*
X214646948Y-148474232D01*
X214733945Y-148623603D01*
X214809192Y-148752800D01*
X214917806Y-148907371D01*
X214939328Y-148938000D01*
X215057454Y-149083420D01*
X215086191Y-149118798D01*
X215135853Y-149192000D01*
X215254442Y-149366804D01*
X215264996Y-149389556D01*
X215328133Y-149525670D01*
X215341910Y-149555373D01*
X215341516Y-149558889D01*
X215331043Y-149652491D01*
X215323674Y-149667512D01*
X215336598Y-149761097D01*
X215392950Y-149946527D01*
X215408371Y-149989278D01*
X215496774Y-150234363D01*
X215522712Y-150301286D01*
X215617815Y-150546667D01*
X215652115Y-150635167D01*
X215667601Y-150673667D01*
X215863017Y-151159499D01*
X216098223Y-151732000D01*
X216133523Y-151817923D01*
X216157962Y-151876655D01*
X216296789Y-152210299D01*
X216397220Y-152451667D01*
X216467678Y-152621000D01*
X216555793Y-152846187D01*
X216630956Y-153064451D01*
X216650419Y-153129000D01*
X216688079Y-153253903D01*
X213571206Y-153276118D01*
X213070505Y-153279203D01*
X212135877Y-153283086D01*
X211108496Y-153285439D01*
X210036056Y-153286240D01*
X208966253Y-153285468D01*
X207946781Y-153283101D01*
X207025334Y-153279116D01*
X206937684Y-153278626D01*
X206134941Y-153274270D01*
X205340521Y-153270176D01*
X204581258Y-153266466D01*
X203883987Y-153263265D01*
X203275543Y-153260696D01*
X202782760Y-153258883D01*
X202432472Y-153257949D01*
X201268611Y-153256000D01*
X201268950Y-153129000D01*
X202961334Y-153129000D01*
X203003667Y-153171334D01*
X203046000Y-153129000D01*
X203003667Y-153086667D01*
X202961334Y-153129000D01*
X201268950Y-153129000D01*
X201270838Y-152421259D01*
X202224486Y-152421259D01*
X202229457Y-152490780D01*
X202235676Y-152487692D01*
X202270955Y-152451667D01*
X202453334Y-152451667D01*
X202495667Y-152494000D01*
X202538000Y-152451667D01*
X202495667Y-152409334D01*
X202453334Y-152451667D01*
X202270955Y-152451667D01*
X202312316Y-152409431D01*
X202407009Y-152289228D01*
X202453334Y-152210299D01*
X202445159Y-152193001D01*
X202347500Y-152132859D01*
X202275065Y-152148063D01*
X202229457Y-152293134D01*
X202224486Y-152421259D01*
X201270838Y-152421259D01*
X201272351Y-151854003D01*
X202284000Y-151854003D01*
X202285657Y-151896751D01*
X202325651Y-151982258D01*
X202407385Y-151907184D01*
X202418890Y-151876655D01*
X202370048Y-151775187D01*
X202325657Y-151766801D01*
X202284000Y-151854003D01*
X201272351Y-151854003D01*
X201272794Y-151687965D01*
X202048090Y-151687965D01*
X202058223Y-151788445D01*
X202083689Y-151801690D01*
X202114667Y-151732000D01*
X202108557Y-151687178D01*
X202058223Y-151675556D01*
X202048090Y-151687965D01*
X201272794Y-151687965D01*
X201275500Y-150673667D01*
X201606667Y-150673667D01*
X201649000Y-150716000D01*
X201691334Y-150673667D01*
X201649000Y-150631334D01*
X201606667Y-150673667D01*
X201275500Y-150673667D01*
X201276121Y-150440834D01*
X201276763Y-150279629D01*
X201365892Y-150279629D01*
X201368851Y-150434207D01*
X201381871Y-150495198D01*
X201411036Y-150540494D01*
X201428636Y-150502632D01*
X203656756Y-150502632D01*
X203666889Y-150603111D01*
X203692356Y-150616357D01*
X203723334Y-150546667D01*
X203717224Y-150501845D01*
X203666889Y-150490222D01*
X203656756Y-150502632D01*
X201428636Y-150502632D01*
X201462995Y-150428715D01*
X201491950Y-150301286D01*
X201465383Y-150207173D01*
X201387516Y-150229596D01*
X201365892Y-150279629D01*
X201276763Y-150279629D01*
X201277927Y-149987086D01*
X201365970Y-149987086D01*
X201386181Y-150100403D01*
X201415083Y-150099092D01*
X201430650Y-149989278D01*
X201417092Y-149906055D01*
X201379497Y-149938125D01*
X201365970Y-149987086D01*
X201277927Y-149987086D01*
X201278070Y-149951134D01*
X201280766Y-149577997D01*
X203130667Y-149577997D01*
X203132868Y-149586447D01*
X203215334Y-149615334D01*
X203238540Y-149611888D01*
X203258167Y-149584355D01*
X203738310Y-149584355D01*
X203808000Y-149615334D01*
X203852823Y-149609223D01*
X203864445Y-149558889D01*
X203852036Y-149548756D01*
X203751556Y-149558889D01*
X203738310Y-149584355D01*
X203258167Y-149584355D01*
X203300000Y-149525670D01*
X203293353Y-149495046D01*
X203215334Y-149488334D01*
X203189996Y-149505711D01*
X203130667Y-149577997D01*
X201280766Y-149577997D01*
X201281944Y-149415022D01*
X202806977Y-149415022D01*
X202876667Y-149446000D01*
X202921489Y-149439890D01*
X202933112Y-149389556D01*
X202920702Y-149379423D01*
X202820223Y-149389556D01*
X202806977Y-149415022D01*
X201281944Y-149415022D01*
X201282565Y-149329133D01*
X201284822Y-149133189D01*
X202570788Y-149133189D01*
X202596671Y-149180313D01*
X202596718Y-149180284D01*
X202980786Y-149180284D01*
X203000690Y-149269066D01*
X203103452Y-149228068D01*
X203130342Y-149201875D01*
X203384667Y-149201875D01*
X203386122Y-149217688D01*
X203456885Y-149274847D01*
X203576653Y-149251330D01*
X203665608Y-149159250D01*
X203665689Y-149147965D01*
X203995423Y-149147965D01*
X204005556Y-149248445D01*
X204031022Y-149261690D01*
X204062000Y-149192000D01*
X204055890Y-149147178D01*
X204005556Y-149135556D01*
X203995423Y-149147965D01*
X203665689Y-149147965D01*
X203666149Y-149083420D01*
X203547666Y-149084458D01*
X203454915Y-149122092D01*
X203384667Y-149201875D01*
X203130342Y-149201875D01*
X203272427Y-149063470D01*
X203294834Y-149037012D01*
X203376454Y-148907371D01*
X203357094Y-148856026D01*
X203250846Y-148886017D01*
X203079385Y-149012832D01*
X202982500Y-149171140D01*
X202980786Y-149180284D01*
X202596718Y-149180284D01*
X202719848Y-149103940D01*
X202931637Y-148908540D01*
X202990073Y-148851103D01*
X203120190Y-148731330D01*
X203554000Y-148731330D01*
X203554825Y-148743166D01*
X203603835Y-148761812D01*
X203689085Y-148670918D01*
X203709686Y-148623603D01*
X203651749Y-148633582D01*
X203614137Y-148659718D01*
X203554000Y-148731330D01*
X203120190Y-148731330D01*
X203202124Y-148655910D01*
X203374502Y-148514667D01*
X203400215Y-148496087D01*
X203494420Y-148411693D01*
X203470982Y-148339315D01*
X203319532Y-148224148D01*
X203088334Y-148060628D01*
X203238963Y-148233535D01*
X203240071Y-148234808D01*
X203317647Y-148337865D01*
X203318312Y-148422161D01*
X203222258Y-148527425D01*
X203009675Y-148693388D01*
X202968212Y-148726334D01*
X202854746Y-148816495D01*
X202674428Y-148979265D01*
X202586536Y-149086167D01*
X202570788Y-149133189D01*
X201284822Y-149133189D01*
X201288856Y-148783045D01*
X201289829Y-148726334D01*
X202538000Y-148726334D01*
X202580334Y-148768667D01*
X202622667Y-148726334D01*
X202580334Y-148684000D01*
X202538000Y-148726334D01*
X201289829Y-148726334D01*
X201294188Y-148472334D01*
X202284000Y-148472334D01*
X202326334Y-148514667D01*
X202368667Y-148472334D01*
X202326334Y-148430000D01*
X202284000Y-148472334D01*
X201294188Y-148472334D01*
X201296604Y-148331553D01*
X201305470Y-147993343D01*
X201315117Y-147787097D01*
X201325205Y-147731500D01*
X201349071Y-147770986D01*
X201481861Y-147837334D01*
X201547264Y-147868216D01*
X201562882Y-148014204D01*
X201555224Y-148057524D01*
X201563464Y-148141008D01*
X201653528Y-148087576D01*
X201715974Y-148012650D01*
X201755952Y-147850275D01*
X201761768Y-147780900D01*
X201862305Y-147689789D01*
X201960900Y-147690722D01*
X202124318Y-147762247D01*
X202237944Y-147881126D01*
X202245046Y-148001200D01*
X202191682Y-148056242D01*
X202088178Y-148014044D01*
X202033895Y-147967860D01*
X201912883Y-147925767D01*
X201860667Y-147996792D01*
X201903673Y-148057985D01*
X202051167Y-148133569D01*
X202181168Y-148176145D01*
X202305167Y-148217527D01*
X202407274Y-148236428D01*
X202601500Y-148256034D01*
X202707116Y-148265711D01*
X202763163Y-148289750D01*
X202671191Y-148336479D01*
X202606775Y-148362720D01*
X202556479Y-148407717D01*
X202660756Y-148458989D01*
X202733000Y-148472334D01*
X202758238Y-148476996D01*
X202916355Y-148432195D01*
X202973536Y-148399239D01*
X203088531Y-148409568D01*
X203122011Y-148422346D01*
X203087395Y-148344184D01*
X203002714Y-148212244D01*
X202893271Y-148070466D01*
X202834715Y-148023825D01*
X209244078Y-148023825D01*
X209255261Y-148197167D01*
X209284660Y-148211529D01*
X209297965Y-148091334D01*
X209286163Y-147974864D01*
X209255261Y-147985500D01*
X209252168Y-147996097D01*
X209244078Y-148023825D01*
X202834715Y-148023825D01*
X202776775Y-147977675D01*
X202655858Y-148014255D01*
X202589109Y-148051766D01*
X202450824Y-148047449D01*
X202420395Y-147982789D01*
X202528959Y-147868004D01*
X202578120Y-147833570D01*
X202883951Y-147833570D01*
X202950828Y-147944578D01*
X202961979Y-147955517D01*
X203024001Y-147996097D01*
X202998224Y-147897182D01*
X202956000Y-147818168D01*
X202893019Y-147792760D01*
X202883951Y-147833570D01*
X202578120Y-147833570D01*
X202701687Y-147747020D01*
X202676356Y-147721689D01*
X211696977Y-147721689D01*
X211766667Y-147752667D01*
X211811489Y-147746557D01*
X211823112Y-147696222D01*
X211810702Y-147686089D01*
X211710223Y-147696222D01*
X211696977Y-147721689D01*
X202676356Y-147721689D01*
X202527840Y-147573173D01*
X202360666Y-147457205D01*
X202128497Y-147451568D01*
X202116335Y-147454343D01*
X201989110Y-147470380D01*
X202015663Y-147428521D01*
X202040603Y-147408793D01*
X202032370Y-147350923D01*
X201867496Y-147301066D01*
X201857152Y-147298944D01*
X201679893Y-147242507D01*
X201606667Y-147180372D01*
X201608319Y-147174619D01*
X202629988Y-147174619D01*
X202638837Y-147241155D01*
X202757504Y-147354453D01*
X202766614Y-147361174D01*
X202904445Y-147439959D01*
X202961334Y-147428320D01*
X202961331Y-147427684D01*
X202897185Y-147305087D01*
X202873889Y-147287000D01*
X203892667Y-147287000D01*
X203935000Y-147329334D01*
X203977334Y-147287000D01*
X203935000Y-147244667D01*
X203892667Y-147287000D01*
X202873889Y-147287000D01*
X202760749Y-147199157D01*
X202633350Y-147173162D01*
X202629988Y-147174619D01*
X201608319Y-147174619D01*
X201613948Y-147155012D01*
X201719264Y-147051692D01*
X201750309Y-147033000D01*
X202284000Y-147033000D01*
X202326334Y-147075334D01*
X202368667Y-147033000D01*
X202326334Y-146990667D01*
X202284000Y-147033000D01*
X201750309Y-147033000D01*
X201897229Y-146944539D01*
X202079944Y-146869813D01*
X202199508Y-146863774D01*
X202234663Y-146875976D01*
X202284000Y-146811572D01*
X202286454Y-146797923D01*
X202357093Y-146801269D01*
X202495333Y-146905687D01*
X202519726Y-146927886D01*
X202669635Y-147033000D01*
X202671401Y-147034239D01*
X202763778Y-147047111D01*
X202768986Y-147039252D01*
X202740167Y-146934349D01*
X202622354Y-146778666D01*
X202593299Y-146746496D01*
X202507109Y-146618999D01*
X202524071Y-146567334D01*
X202624854Y-146608627D01*
X202769312Y-146736667D01*
X202897913Y-146845489D01*
X203064817Y-146906000D01*
X203151382Y-146890552D01*
X203213248Y-146803556D01*
X203129286Y-146693480D01*
X203102567Y-146670223D01*
X203091950Y-146561483D01*
X203101336Y-146548359D01*
X203239057Y-146485808D01*
X203410838Y-146509528D01*
X203523196Y-146609181D01*
X203548355Y-146657595D01*
X203630059Y-146694265D01*
X203694100Y-146618563D01*
X203694949Y-146467932D01*
X203693435Y-146440334D01*
X204231334Y-146440334D01*
X204273667Y-146482667D01*
X204316000Y-146440334D01*
X204273667Y-146398000D01*
X204231334Y-146440334D01*
X203693435Y-146440334D01*
X203689389Y-146366601D01*
X203729568Y-146313334D01*
X203977334Y-146313334D01*
X203980779Y-146336540D01*
X204066997Y-146398000D01*
X204097621Y-146391352D01*
X204104334Y-146313334D01*
X204086956Y-146287996D01*
X204014670Y-146228667D01*
X204006221Y-146230868D01*
X203977334Y-146313334D01*
X203729568Y-146313334D01*
X203772239Y-146256763D01*
X203861377Y-146186377D01*
X203883627Y-146051962D01*
X203786834Y-145949972D01*
X203727233Y-145897779D01*
X203797417Y-145794750D01*
X203894798Y-145724951D01*
X203952639Y-145784167D01*
X203978151Y-145826405D01*
X204111389Y-145890000D01*
X204163670Y-145879407D01*
X204232630Y-145784167D01*
X204249783Y-145735114D01*
X204325284Y-145805334D01*
X204342274Y-145828653D01*
X204391149Y-145877708D01*
X204381440Y-145838419D01*
X209239970Y-145838419D01*
X209260181Y-145951736D01*
X209289083Y-145950425D01*
X209304650Y-145840611D01*
X209291092Y-145757388D01*
X209253497Y-145789459D01*
X209239970Y-145838419D01*
X204381440Y-145838419D01*
X204366321Y-145777242D01*
X204359692Y-145754181D01*
X210604264Y-145754181D01*
X210605575Y-145783083D01*
X210715389Y-145798649D01*
X210798612Y-145785091D01*
X210766542Y-145747497D01*
X210717581Y-145733969D01*
X210604264Y-145754181D01*
X204359692Y-145754181D01*
X204339875Y-145685246D01*
X204316000Y-145552335D01*
X204275394Y-145519195D01*
X204133296Y-145530298D01*
X204020978Y-145556281D01*
X204004059Y-145530407D01*
X204112129Y-145414115D01*
X204134390Y-145391987D01*
X204249665Y-145310540D01*
X204301973Y-145363243D01*
X204318417Y-145399880D01*
X204425670Y-145450347D01*
X204551659Y-145412712D01*
X204612334Y-145303230D01*
X204621100Y-145253105D01*
X204718167Y-145149167D01*
X204775091Y-145152809D01*
X204824000Y-145257003D01*
X204842576Y-145335059D01*
X204946689Y-145353037D01*
X205018540Y-145342736D01*
X205022297Y-145428645D01*
X205014916Y-145498772D01*
X205111275Y-145551334D01*
X205201030Y-145512661D01*
X205247334Y-145339667D01*
X211766667Y-145339667D01*
X211809000Y-145382000D01*
X211851334Y-145339667D01*
X211809000Y-145297334D01*
X211766667Y-145339667D01*
X205247334Y-145339667D01*
X205225418Y-145200434D01*
X205159094Y-145128000D01*
X205101083Y-145114460D01*
X205055933Y-145085667D01*
X209650000Y-145085667D01*
X209692334Y-145128000D01*
X209734667Y-145085667D01*
X211766667Y-145085667D01*
X211809000Y-145128000D01*
X211851334Y-145085667D01*
X211809000Y-145043334D01*
X211766667Y-145085667D01*
X209734667Y-145085667D01*
X209692334Y-145043334D01*
X209650000Y-145085667D01*
X205055933Y-145085667D01*
X204960137Y-145024576D01*
X204892540Y-144925816D01*
X204946844Y-144831667D01*
X211682000Y-144831667D01*
X211724334Y-144874000D01*
X211766667Y-144831667D01*
X211724334Y-144789334D01*
X211682000Y-144831667D01*
X204946844Y-144831667D01*
X204957663Y-144812909D01*
X205025981Y-144760998D01*
X205198953Y-144704667D01*
X205276392Y-144675360D01*
X205332000Y-144535334D01*
X205305206Y-144466542D01*
X210177403Y-144466542D01*
X210261097Y-144577989D01*
X210362647Y-144592774D01*
X210412000Y-144500056D01*
X210394577Y-144434170D01*
X210350374Y-144408334D01*
X211089334Y-144408334D01*
X211131667Y-144450667D01*
X211174000Y-144408334D01*
X211165180Y-144399514D01*
X211450931Y-144399514D01*
X211451332Y-144408334D01*
X211452242Y-144428416D01*
X211562056Y-144443983D01*
X211645279Y-144430425D01*
X211613209Y-144392830D01*
X211564248Y-144379303D01*
X211450931Y-144399514D01*
X211165180Y-144399514D01*
X211131667Y-144366000D01*
X211089334Y-144408334D01*
X210350374Y-144408334D01*
X210277945Y-144366000D01*
X210214252Y-144380175D01*
X210202237Y-144408334D01*
X210177403Y-144466542D01*
X205305206Y-144466542D01*
X205283263Y-144410205D01*
X205277891Y-144408334D01*
X205755334Y-144408334D01*
X205797667Y-144450667D01*
X205840000Y-144408334D01*
X205797667Y-144366000D01*
X205755334Y-144408334D01*
X205277891Y-144408334D01*
X205118455Y-144352808D01*
X204815795Y-144359377D01*
X204725246Y-144345474D01*
X204572595Y-144242126D01*
X204537334Y-144194443D01*
X205332000Y-144194443D01*
X205369887Y-144247119D01*
X205501334Y-144346351D01*
X205558949Y-144380607D01*
X205650299Y-144401579D01*
X205670667Y-144300194D01*
X205660280Y-144264400D01*
X208888000Y-144264400D01*
X208889909Y-144300194D01*
X208893541Y-144368312D01*
X208915453Y-144408334D01*
X208935811Y-144445521D01*
X208971650Y-144408334D01*
X209480667Y-144408334D01*
X209523000Y-144450667D01*
X209565334Y-144408334D01*
X209523000Y-144366000D01*
X209480667Y-144408334D01*
X208971650Y-144408334D01*
X209019560Y-144358623D01*
X209035139Y-144304881D01*
X208982223Y-144172356D01*
X208980258Y-144170405D01*
X208978272Y-144169604D01*
X209335239Y-144169604D01*
X209424176Y-144236225D01*
X209495440Y-144258913D01*
X209641193Y-144304881D01*
X209692334Y-144321010D01*
X209723879Y-144329648D01*
X209812563Y-144319122D01*
X209781646Y-144239965D01*
X209780453Y-144239000D01*
X211428000Y-144239000D01*
X211470334Y-144281334D01*
X211512667Y-144239000D01*
X211470334Y-144196667D01*
X211428000Y-144239000D01*
X209780453Y-144239000D01*
X209640018Y-144125415D01*
X209503943Y-144064456D01*
X209371861Y-144102273D01*
X209335239Y-144169604D01*
X208978272Y-144169604D01*
X208908743Y-144141567D01*
X208888000Y-144264400D01*
X205660280Y-144264400D01*
X205644126Y-144208734D01*
X205501334Y-144148286D01*
X205403190Y-144156887D01*
X205332000Y-144194443D01*
X204537334Y-144194443D01*
X204530059Y-144184605D01*
X204539463Y-144125477D01*
X204691630Y-144112000D01*
X204835279Y-144090220D01*
X204841066Y-144081022D01*
X206362977Y-144081022D01*
X206432667Y-144112000D01*
X206477489Y-144105890D01*
X206489112Y-144055556D01*
X206476702Y-144045423D01*
X206376223Y-144055556D01*
X206362977Y-144081022D01*
X204841066Y-144081022D01*
X204864856Y-144043209D01*
X209923403Y-144043209D01*
X209929070Y-144055556D01*
X209937389Y-144073686D01*
X210057516Y-144177283D01*
X210108963Y-144175996D01*
X210106666Y-144076742D01*
X210093427Y-144047637D01*
X210034182Y-143985000D01*
X210327334Y-143985000D01*
X210330173Y-144021365D01*
X210400966Y-144109487D01*
X210492465Y-144069667D01*
X211004667Y-144069667D01*
X211047000Y-144112000D01*
X211089334Y-144069667D01*
X211047000Y-144027334D01*
X211004667Y-144069667D01*
X210492465Y-144069667D01*
X210524889Y-144055556D01*
X210549923Y-144026668D01*
X210570943Y-143909574D01*
X210454334Y-143858000D01*
X210395107Y-143872752D01*
X210327334Y-143985000D01*
X210034182Y-143985000D01*
X210008534Y-143957883D01*
X209931272Y-143952640D01*
X209928460Y-143985000D01*
X209923403Y-144043209D01*
X204864856Y-144043209D01*
X204870551Y-144034157D01*
X204867939Y-144013825D01*
X204897203Y-143986288D01*
X205366369Y-143986288D01*
X205454004Y-144027334D01*
X205517085Y-144016971D01*
X205546737Y-143985000D01*
X208803334Y-143985000D01*
X208845667Y-144027334D01*
X208888000Y-143985000D01*
X208845667Y-143942667D01*
X208803334Y-143985000D01*
X205546737Y-143985000D01*
X205586000Y-143942667D01*
X205583720Y-143922579D01*
X205506331Y-143858000D01*
X205482577Y-143861230D01*
X205374334Y-143942667D01*
X205366369Y-143986288D01*
X204897203Y-143986288D01*
X204952319Y-143934424D01*
X205140721Y-143851941D01*
X205292371Y-143791412D01*
X205556739Y-143657689D01*
X209241644Y-143657689D01*
X209311334Y-143688667D01*
X209356156Y-143682557D01*
X209364520Y-143646334D01*
X209650000Y-143646334D01*
X209692334Y-143688667D01*
X209946334Y-143688667D01*
X209963636Y-143711548D01*
X210083327Y-143773334D01*
X210111797Y-143766810D01*
X210115667Y-143688667D01*
X210098365Y-143665786D01*
X209978674Y-143604000D01*
X209950204Y-143610523D01*
X209948430Y-143646334D01*
X209946334Y-143688667D01*
X209692334Y-143688667D01*
X209734667Y-143646334D01*
X209692334Y-143604000D01*
X209650000Y-143646334D01*
X209364520Y-143646334D01*
X209367778Y-143632222D01*
X209355369Y-143622089D01*
X209254889Y-143632222D01*
X209241644Y-143657689D01*
X205556739Y-143657689D01*
X205588019Y-143641867D01*
X205720303Y-143561667D01*
X206094000Y-143561667D01*
X206136334Y-143604000D01*
X206178667Y-143561667D01*
X206136334Y-143519334D01*
X206094000Y-143561667D01*
X205720303Y-143561667D01*
X205881204Y-143464118D01*
X205904988Y-143448778D01*
X208676334Y-143448778D01*
X208686148Y-143492046D01*
X208763680Y-143561667D01*
X208790253Y-143585529D01*
X208853986Y-143586120D01*
X208856627Y-143573022D01*
X210680977Y-143573022D01*
X210750667Y-143604000D01*
X210795489Y-143597890D01*
X210805917Y-143552733D01*
X210951603Y-143552733D01*
X211004667Y-143646334D01*
X211046349Y-143688667D01*
X211099398Y-143742545D01*
X211160811Y-143770086D01*
X211151588Y-143742355D01*
X211442977Y-143742355D01*
X211512667Y-143773334D01*
X211557489Y-143767223D01*
X211569112Y-143716889D01*
X211556702Y-143706756D01*
X211456223Y-143716889D01*
X211442977Y-143742355D01*
X211151588Y-143742355D01*
X211136136Y-143695898D01*
X211125945Y-143658824D01*
X211194640Y-143575582D01*
X211213477Y-143544896D01*
X211100134Y-143526018D01*
X211034386Y-143525355D01*
X210967256Y-143547556D01*
X210951603Y-143552733D01*
X210805917Y-143552733D01*
X210807112Y-143547556D01*
X210794702Y-143537423D01*
X210694223Y-143547556D01*
X210680977Y-143573022D01*
X208856627Y-143573022D01*
X208874920Y-143482279D01*
X208822807Y-143390632D01*
X209075423Y-143390632D01*
X209084666Y-143482279D01*
X209085556Y-143491111D01*
X209111022Y-143504357D01*
X209142000Y-143434667D01*
X209135890Y-143389845D01*
X209085556Y-143378222D01*
X209075423Y-143390632D01*
X208822807Y-143390632D01*
X208811854Y-143371370D01*
X208721853Y-143353504D01*
X208706023Y-143386636D01*
X208676334Y-143448778D01*
X205904988Y-143448778D01*
X206052407Y-143353698D01*
X207404049Y-143353698D01*
X207410292Y-143403408D01*
X207528337Y-143434667D01*
X207644420Y-143426754D01*
X207693694Y-143386636D01*
X207593027Y-143328834D01*
X209312630Y-143328834D01*
X209328481Y-143434667D01*
X209330421Y-143447625D01*
X209396000Y-143519334D01*
X209424354Y-143516714D01*
X209474783Y-143440541D01*
X209396000Y-143265334D01*
X209375800Y-143235535D01*
X209325998Y-143205119D01*
X209324065Y-143223000D01*
X209312630Y-143328834D01*
X207593027Y-143328834D01*
X207578379Y-143320423D01*
X207514191Y-143307573D01*
X207404049Y-143353698D01*
X206052407Y-143353698D01*
X206075507Y-143338799D01*
X206272227Y-143224674D01*
X206276216Y-143223000D01*
X207025334Y-143223000D01*
X207067667Y-143265334D01*
X207110000Y-143223000D01*
X207067667Y-143180667D01*
X207025334Y-143223000D01*
X206276216Y-143223000D01*
X206377083Y-143180667D01*
X206382886Y-143179815D01*
X206493694Y-143119403D01*
X206693197Y-142983333D01*
X206770292Y-142926667D01*
X207152334Y-142926667D01*
X207169636Y-142949548D01*
X207289327Y-143011334D01*
X207317797Y-143004810D01*
X207320943Y-142941283D01*
X208505267Y-142941283D01*
X208537328Y-143105136D01*
X208623146Y-143163975D01*
X208724608Y-143086388D01*
X208797348Y-143015623D01*
X208901408Y-143075541D01*
X208905445Y-143079533D01*
X209027544Y-143164419D01*
X209109701Y-143171705D01*
X209105610Y-143140841D01*
X209758130Y-143140841D01*
X209856683Y-143225693D01*
X209940966Y-143309518D01*
X209920183Y-143350000D01*
X209885827Y-143354728D01*
X209819334Y-143428648D01*
X209821969Y-143438993D01*
X209825458Y-143440541D01*
X209919886Y-143482446D01*
X210115288Y-143492148D01*
X210153354Y-143489660D01*
X210336788Y-143458804D01*
X210411621Y-143411887D01*
X210473800Y-143382623D01*
X210636295Y-143403068D01*
X210678021Y-143412975D01*
X210802547Y-143421230D01*
X210795933Y-143354745D01*
X210734252Y-143319022D01*
X211104310Y-143319022D01*
X211174000Y-143350000D01*
X211218823Y-143343890D01*
X211230445Y-143293556D01*
X211218036Y-143283423D01*
X211117556Y-143293556D01*
X211104310Y-143319022D01*
X210734252Y-143319022D01*
X210689140Y-143292895D01*
X210433290Y-143306029D01*
X210270997Y-143330411D01*
X210178529Y-143312635D01*
X210186329Y-143228965D01*
X210198922Y-143179651D01*
X210167378Y-143138334D01*
X210412000Y-143138334D01*
X210454334Y-143180667D01*
X210481434Y-143153567D01*
X210539000Y-143153567D01*
X210835334Y-143163897D01*
X210997727Y-143150673D01*
X211185565Y-143085539D01*
X211295138Y-142990748D01*
X211281800Y-142893355D01*
X211259206Y-142873454D01*
X211142509Y-142851251D01*
X211133532Y-142870222D01*
X211093472Y-142954889D01*
X211089334Y-142963636D01*
X211016880Y-143059973D01*
X210814167Y-143119419D01*
X210661748Y-143138334D01*
X210539000Y-143153567D01*
X210481434Y-143153567D01*
X210496667Y-143138334D01*
X210454334Y-143096000D01*
X210412000Y-143138334D01*
X210167378Y-143138334D01*
X210149185Y-143114504D01*
X209964843Y-143098693D01*
X209788307Y-143106482D01*
X209758130Y-143140841D01*
X209105610Y-143140841D01*
X209099667Y-143096000D01*
X209097321Y-143046709D01*
X209200504Y-143005383D01*
X209255268Y-143002388D01*
X209296553Y-142982586D01*
X209259214Y-142963980D01*
X209727108Y-142963980D01*
X209772083Y-142983167D01*
X209946334Y-142989982D01*
X210038674Y-142987786D01*
X210092573Y-142980355D01*
X210426977Y-142980355D01*
X210496667Y-143011334D01*
X210541489Y-143005223D01*
X210553112Y-142954889D01*
X210540702Y-142944756D01*
X210440223Y-142954889D01*
X210430409Y-142973756D01*
X210426977Y-142980355D01*
X210092573Y-142980355D01*
X210140438Y-142973756D01*
X210093513Y-142951452D01*
X209958168Y-142937390D01*
X209754847Y-142953161D01*
X209727108Y-142963980D01*
X209259214Y-142963980D01*
X209184334Y-142926667D01*
X209125445Y-142895689D01*
X210680977Y-142895689D01*
X210750667Y-142926667D01*
X210795489Y-142920557D01*
X210807112Y-142870222D01*
X210794702Y-142860089D01*
X210694223Y-142870222D01*
X210680977Y-142895689D01*
X209125445Y-142895689D01*
X209105102Y-142884988D01*
X209131803Y-142856168D01*
X209311334Y-142842000D01*
X209458833Y-142832252D01*
X209520170Y-142808204D01*
X209488678Y-142790847D01*
X210180931Y-142790847D01*
X210181719Y-142808204D01*
X210182242Y-142819749D01*
X210292056Y-142835316D01*
X210375279Y-142821758D01*
X210356435Y-142799667D01*
X211343334Y-142799667D01*
X211385667Y-142842000D01*
X211428000Y-142799667D01*
X211385667Y-142757334D01*
X211343334Y-142799667D01*
X210356435Y-142799667D01*
X210343209Y-142784163D01*
X210294248Y-142770636D01*
X210180931Y-142790847D01*
X209488678Y-142790847D01*
X209438334Y-142763099D01*
X209324367Y-142731283D01*
X209173361Y-142731864D01*
X209167461Y-142733589D01*
X209050520Y-142689844D01*
X208920740Y-142563971D01*
X209438334Y-142563971D01*
X209777000Y-142568930D01*
X210014321Y-142545667D01*
X210327334Y-142545667D01*
X210369667Y-142588000D01*
X210412000Y-142545667D01*
X210369667Y-142503334D01*
X210327334Y-142545667D01*
X210014321Y-142545667D01*
X210028858Y-142544242D01*
X210179566Y-142461000D01*
X211004667Y-142461000D01*
X211047000Y-142503334D01*
X211089334Y-142461000D01*
X211047000Y-142418667D01*
X211004667Y-142461000D01*
X210179566Y-142461000D01*
X210257480Y-142417965D01*
X210284777Y-142387658D01*
X210292660Y-142376334D01*
X210750667Y-142376334D01*
X210793000Y-142418667D01*
X210835334Y-142376334D01*
X210793000Y-142334000D01*
X210750667Y-142376334D01*
X210292660Y-142376334D01*
X210342347Y-142304956D01*
X210285549Y-142284647D01*
X210088146Y-142310005D01*
X209949763Y-142333282D01*
X209774161Y-142376575D01*
X209760063Y-142409856D01*
X209911056Y-142430681D01*
X209967644Y-142437774D01*
X209951722Y-142463816D01*
X209777000Y-142503334D01*
X209438334Y-142563971D01*
X208920740Y-142563971D01*
X208907175Y-142550814D01*
X208865455Y-142500116D01*
X208700279Y-142357854D01*
X208587513Y-142365712D01*
X208558117Y-142461000D01*
X208538528Y-142524500D01*
X208531382Y-142630334D01*
X208529642Y-142656117D01*
X208507655Y-142907586D01*
X208506302Y-142926667D01*
X208505267Y-142941283D01*
X207320943Y-142941283D01*
X207321667Y-142926667D01*
X207304365Y-142903786D01*
X207184674Y-142842000D01*
X207156204Y-142848523D01*
X207152334Y-142926667D01*
X206770292Y-142926667D01*
X206943557Y-142799314D01*
X207161445Y-142630334D01*
X207448667Y-142630334D01*
X207491000Y-142672667D01*
X207533334Y-142630334D01*
X207491000Y-142588000D01*
X207448667Y-142630334D01*
X207161445Y-142630334D01*
X207206936Y-142595054D01*
X207369442Y-142461000D01*
X207702667Y-142461000D01*
X207745000Y-142503334D01*
X207787334Y-142461000D01*
X207745000Y-142418667D01*
X207702667Y-142461000D01*
X207369442Y-142461000D01*
X207445495Y-142398262D01*
X207746761Y-142164667D01*
X209734667Y-142164667D01*
X209768726Y-142214790D01*
X209908997Y-142249334D01*
X210005077Y-142231307D01*
X210031000Y-142164667D01*
X210000819Y-142131600D01*
X209856670Y-142080000D01*
X209802882Y-142088728D01*
X209734667Y-142164667D01*
X207746761Y-142164667D01*
X207814328Y-142112277D01*
X208164003Y-141899040D01*
X208448110Y-141787303D01*
X208489864Y-141775515D01*
X208622714Y-141699000D01*
X209734667Y-141699000D01*
X209777000Y-141741334D01*
X209807979Y-141710355D01*
X210088310Y-141710355D01*
X210158000Y-141741334D01*
X210202823Y-141735223D01*
X210214445Y-141684889D01*
X210202036Y-141674756D01*
X210101556Y-141684889D01*
X210094216Y-141699000D01*
X210088310Y-141710355D01*
X209807979Y-141710355D01*
X209819334Y-141699000D01*
X209777000Y-141656667D01*
X209734667Y-141699000D01*
X208622714Y-141699000D01*
X208662801Y-141675912D01*
X208726048Y-141614334D01*
X209396000Y-141614334D01*
X209438334Y-141656667D01*
X209480667Y-141614334D01*
X209438334Y-141572000D01*
X209396000Y-141614334D01*
X208726048Y-141614334D01*
X208813010Y-141529667D01*
X209650000Y-141529667D01*
X209692334Y-141572000D01*
X209734667Y-141529667D01*
X209692334Y-141487334D01*
X209650000Y-141529667D01*
X208813010Y-141529667D01*
X208864494Y-141479541D01*
X209106189Y-141172486D01*
X209399133Y-140740830D01*
X209754573Y-140170657D01*
X209911413Y-139926011D01*
X210100142Y-139666847D01*
X210259939Y-139483783D01*
X210370621Y-139399371D01*
X210412000Y-139436164D01*
X210386532Y-139515567D01*
X210279602Y-139660303D01*
X210212856Y-139757473D01*
X210213989Y-139899184D01*
X210243865Y-139973590D01*
X210254831Y-140163088D01*
X210255407Y-140246138D01*
X210310818Y-140269874D01*
X210368186Y-140272295D01*
X210435720Y-140383560D01*
X210443398Y-140484603D01*
X210386283Y-140578684D01*
X210357612Y-140613170D01*
X210364187Y-140750115D01*
X210423831Y-140928272D01*
X210511822Y-141082753D01*
X210603438Y-141148667D01*
X210617714Y-141149997D01*
X210744858Y-141233545D01*
X210863257Y-141394973D01*
X210917308Y-141561200D01*
X210917401Y-141566270D01*
X210893340Y-141633682D01*
X210793000Y-141572000D01*
X210710541Y-141518799D01*
X210698797Y-141529667D01*
X210666000Y-141560020D01*
X210704397Y-141614334D01*
X210718996Y-141634986D01*
X210829616Y-141684889D01*
G37*
X210829616Y-141684889D02*
X210877667Y-141706566D01*
X210882769Y-141707876D01*
X211045724Y-141798761D01*
X211084667Y-141923128D01*
X210983500Y-142031550D01*
X210959954Y-142056251D01*
X211062839Y-142047925D01*
X211069798Y-142046743D01*
X211159196Y-142054769D01*
X211253787Y-142122904D01*
X211286361Y-142164667D01*
X211371504Y-142273832D01*
X211390777Y-142304956D01*
X211434976Y-142376334D01*
X211487403Y-142461000D01*
X211530278Y-142530242D01*
X211539013Y-142545667D01*
X211682837Y-142799667D01*
X211748040Y-142914820D01*
X211789996Y-142990748D01*
X211945671Y-143272475D01*
X211957209Y-143293556D01*
X212027082Y-143421230D01*
X212094760Y-143544896D01*
X212117900Y-143587180D01*
X212187886Y-143716889D01*
X212244540Y-143821890D01*
X212289982Y-143909574D01*
X212307132Y-143942667D01*
X212368589Y-144059261D01*
X212374341Y-144069667D01*
X212433109Y-144175996D01*
X212467931Y-144239000D01*
X212496438Y-144290579D01*
X212512480Y-144319122D01*
X212575033Y-144430425D01*
X212614167Y-144500056D01*
X212671275Y-144601671D01*
X212802009Y-144831667D01*
X212874198Y-144958667D01*
X212946315Y-145085667D01*
X212978101Y-145141644D01*
X213088063Y-145339667D01*
X213141036Y-145435063D01*
X213301185Y-145734112D01*
X213327466Y-145785091D01*
X213356088Y-145840611D01*
X213470954Y-146063427D01*
X213595704Y-146313334D01*
X213659100Y-146440334D01*
X213662747Y-146447640D01*
X213888969Y-146911384D01*
X214069568Y-147287000D01*
X214137516Y-147428320D01*
X214162023Y-147479293D01*
X214265487Y-147696222D01*
X214453934Y-148091334D01*
X214494314Y-148176000D01*
X214614941Y-148411693D01*
X214646948Y-148474232D01*
X214733945Y-148623603D01*
X214809192Y-148752800D01*
X214917806Y-148907371D01*
X214939328Y-148938000D01*
X215057454Y-149083420D01*
X215086191Y-149118798D01*
X215135853Y-149192000D01*
X215254442Y-149366804D01*
X215264996Y-149389556D01*
X215328133Y-149525670D01*
X215341910Y-149555373D01*
X215341516Y-149558889D01*
X215331043Y-149652491D01*
X215323674Y-149667512D01*
X215336598Y-149761097D01*
X215392950Y-149946527D01*
X215408371Y-149989278D01*
X215496774Y-150234363D01*
X215522712Y-150301286D01*
X215617815Y-150546667D01*
X215652115Y-150635167D01*
X215667601Y-150673667D01*
X215863017Y-151159499D01*
X216098223Y-151732000D01*
X216133523Y-151817923D01*
X216157962Y-151876655D01*
X216296789Y-152210299D01*
X216397220Y-152451667D01*
X216467678Y-152621000D01*
X216555793Y-152846187D01*
X216630956Y-153064451D01*
X216650419Y-153129000D01*
X216688079Y-153253903D01*
X213571206Y-153276118D01*
X213070505Y-153279203D01*
X212135877Y-153283086D01*
X211108496Y-153285439D01*
X210036056Y-153286240D01*
X208966253Y-153285468D01*
X207946781Y-153283101D01*
X207025334Y-153279116D01*
X206937684Y-153278626D01*
X206134941Y-153274270D01*
X205340521Y-153270176D01*
X204581258Y-153266466D01*
X203883987Y-153263265D01*
X203275543Y-153260696D01*
X202782760Y-153258883D01*
X202432472Y-153257949D01*
X201268611Y-153256000D01*
X201268950Y-153129000D01*
X202961334Y-153129000D01*
X203003667Y-153171334D01*
X203046000Y-153129000D01*
X203003667Y-153086667D01*
X202961334Y-153129000D01*
X201268950Y-153129000D01*
X201270838Y-152421259D01*
X202224486Y-152421259D01*
X202229457Y-152490780D01*
X202235676Y-152487692D01*
X202270955Y-152451667D01*
X202453334Y-152451667D01*
X202495667Y-152494000D01*
X202538000Y-152451667D01*
X202495667Y-152409334D01*
X202453334Y-152451667D01*
X202270955Y-152451667D01*
X202312316Y-152409431D01*
X202407009Y-152289228D01*
X202453334Y-152210299D01*
X202445159Y-152193001D01*
X202347500Y-152132859D01*
X202275065Y-152148063D01*
X202229457Y-152293134D01*
X202224486Y-152421259D01*
X201270838Y-152421259D01*
X201272351Y-151854003D01*
X202284000Y-151854003D01*
X202285657Y-151896751D01*
X202325651Y-151982258D01*
X202407385Y-151907184D01*
X202418890Y-151876655D01*
X202370048Y-151775187D01*
X202325657Y-151766801D01*
X202284000Y-151854003D01*
X201272351Y-151854003D01*
X201272794Y-151687965D01*
X202048090Y-151687965D01*
X202058223Y-151788445D01*
X202083689Y-151801690D01*
X202114667Y-151732000D01*
X202108557Y-151687178D01*
X202058223Y-151675556D01*
X202048090Y-151687965D01*
X201272794Y-151687965D01*
X201275500Y-150673667D01*
X201606667Y-150673667D01*
X201649000Y-150716000D01*
X201691334Y-150673667D01*
X201649000Y-150631334D01*
X201606667Y-150673667D01*
X201275500Y-150673667D01*
X201276121Y-150440834D01*
X201276763Y-150279629D01*
X201365892Y-150279629D01*
X201368851Y-150434207D01*
X201381871Y-150495198D01*
X201411036Y-150540494D01*
X201428636Y-150502632D01*
X203656756Y-150502632D01*
X203666889Y-150603111D01*
X203692356Y-150616357D01*
X203723334Y-150546667D01*
X203717224Y-150501845D01*
X203666889Y-150490222D01*
X203656756Y-150502632D01*
X201428636Y-150502632D01*
X201462995Y-150428715D01*
X201491950Y-150301286D01*
X201465383Y-150207173D01*
X201387516Y-150229596D01*
X201365892Y-150279629D01*
X201276763Y-150279629D01*
X201277927Y-149987086D01*
X201365970Y-149987086D01*
X201386181Y-150100403D01*
X201415083Y-150099092D01*
X201430650Y-149989278D01*
X201417092Y-149906055D01*
X201379497Y-149938125D01*
X201365970Y-149987086D01*
X201277927Y-149987086D01*
X201278070Y-149951134D01*
X201280766Y-149577997D01*
X203130667Y-149577997D01*
X203132868Y-149586447D01*
X203215334Y-149615334D01*
X203238540Y-149611888D01*
X203258167Y-149584355D01*
X203738310Y-149584355D01*
X203808000Y-149615334D01*
X203852823Y-149609223D01*
X203864445Y-149558889D01*
X203852036Y-149548756D01*
X203751556Y-149558889D01*
X203738310Y-149584355D01*
X203258167Y-149584355D01*
X203300000Y-149525670D01*
X203293353Y-149495046D01*
X203215334Y-149488334D01*
X203189996Y-149505711D01*
X203130667Y-149577997D01*
X201280766Y-149577997D01*
X201281944Y-149415022D01*
X202806977Y-149415022D01*
X202876667Y-149446000D01*
X202921489Y-149439890D01*
X202933112Y-149389556D01*
X202920702Y-149379423D01*
X202820223Y-149389556D01*
X202806977Y-149415022D01*
X201281944Y-149415022D01*
X201282565Y-149329133D01*
X201284822Y-149133189D01*
X202570788Y-149133189D01*
X202596671Y-149180313D01*
X202596718Y-149180284D01*
X202980786Y-149180284D01*
X203000690Y-149269066D01*
X203103452Y-149228068D01*
X203130342Y-149201875D01*
X203384667Y-149201875D01*
X203386122Y-149217688D01*
X203456885Y-149274847D01*
X203576653Y-149251330D01*
X203665608Y-149159250D01*
X203665689Y-149147965D01*
X203995423Y-149147965D01*
X204005556Y-149248445D01*
X204031022Y-149261690D01*
X204062000Y-149192000D01*
X204055890Y-149147178D01*
X204005556Y-149135556D01*
X203995423Y-149147965D01*
X203665689Y-149147965D01*
X203666149Y-149083420D01*
X203547666Y-149084458D01*
X203454915Y-149122092D01*
X203384667Y-149201875D01*
X203130342Y-149201875D01*
X203272427Y-149063470D01*
X203294834Y-149037012D01*
X203376454Y-148907371D01*
X203357094Y-148856026D01*
X203250846Y-148886017D01*
X203079385Y-149012832D01*
X202982500Y-149171140D01*
X202980786Y-149180284D01*
X202596718Y-149180284D01*
X202719848Y-149103940D01*
X202931637Y-148908540D01*
X202990073Y-148851103D01*
X203120190Y-148731330D01*
X203554000Y-148731330D01*
X203554825Y-148743166D01*
X203603835Y-148761812D01*
X203689085Y-148670918D01*
X203709686Y-148623603D01*
X203651749Y-148633582D01*
X203614137Y-148659718D01*
X203554000Y-148731330D01*
X203120190Y-148731330D01*
X203202124Y-148655910D01*
X203374502Y-148514667D01*
X203400215Y-148496087D01*
X203494420Y-148411693D01*
X203470982Y-148339315D01*
X203319532Y-148224148D01*
X203088334Y-148060628D01*
X203238963Y-148233535D01*
X203240071Y-148234808D01*
X203317647Y-148337865D01*
X203318312Y-148422161D01*
X203222258Y-148527425D01*
X203009675Y-148693388D01*
X202968212Y-148726334D01*
X202854746Y-148816495D01*
X202674428Y-148979265D01*
X202586536Y-149086167D01*
X202570788Y-149133189D01*
X201284822Y-149133189D01*
X201288856Y-148783045D01*
X201289829Y-148726334D01*
X202538000Y-148726334D01*
X202580334Y-148768667D01*
X202622667Y-148726334D01*
X202580334Y-148684000D01*
X202538000Y-148726334D01*
X201289829Y-148726334D01*
X201294188Y-148472334D01*
X202284000Y-148472334D01*
X202326334Y-148514667D01*
X202368667Y-148472334D01*
X202326334Y-148430000D01*
X202284000Y-148472334D01*
X201294188Y-148472334D01*
X201296604Y-148331553D01*
X201305470Y-147993343D01*
X201315117Y-147787097D01*
X201325205Y-147731500D01*
X201349071Y-147770986D01*
X201481861Y-147837334D01*
X201547264Y-147868216D01*
X201562882Y-148014204D01*
X201555224Y-148057524D01*
X201563464Y-148141008D01*
X201653528Y-148087576D01*
X201715974Y-148012650D01*
X201755952Y-147850275D01*
X201761768Y-147780900D01*
X201862305Y-147689789D01*
X201960900Y-147690722D01*
X202124318Y-147762247D01*
X202237944Y-147881126D01*
X202245046Y-148001200D01*
X202191682Y-148056242D01*
X202088178Y-148014044D01*
X202033895Y-147967860D01*
X201912883Y-147925767D01*
X201860667Y-147996792D01*
X201903673Y-148057985D01*
X202051167Y-148133569D01*
X202181168Y-148176145D01*
X202305167Y-148217527D01*
X202407274Y-148236428D01*
X202601500Y-148256034D01*
X202707116Y-148265711D01*
X202763163Y-148289750D01*
X202671191Y-148336479D01*
X202606775Y-148362720D01*
X202556479Y-148407717D01*
X202660756Y-148458989D01*
X202733000Y-148472334D01*
X202758238Y-148476996D01*
X202916355Y-148432195D01*
X202973536Y-148399239D01*
X203088531Y-148409568D01*
X203122011Y-148422346D01*
X203087395Y-148344184D01*
X203002714Y-148212244D01*
X202893271Y-148070466D01*
X202834715Y-148023825D01*
X209244078Y-148023825D01*
X209255261Y-148197167D01*
X209284660Y-148211529D01*
X209297965Y-148091334D01*
X209286163Y-147974864D01*
X209255261Y-147985500D01*
X209252168Y-147996097D01*
X209244078Y-148023825D01*
X202834715Y-148023825D01*
X202776775Y-147977675D01*
X202655858Y-148014255D01*
X202589109Y-148051766D01*
X202450824Y-148047449D01*
X202420395Y-147982789D01*
X202528959Y-147868004D01*
X202578120Y-147833570D01*
X202883951Y-147833570D01*
X202950828Y-147944578D01*
X202961979Y-147955517D01*
X203024001Y-147996097D01*
X202998224Y-147897182D01*
X202956000Y-147818168D01*
X202893019Y-147792760D01*
X202883951Y-147833570D01*
X202578120Y-147833570D01*
X202701687Y-147747020D01*
X202676356Y-147721689D01*
X211696977Y-147721689D01*
X211766667Y-147752667D01*
X211811489Y-147746557D01*
X211823112Y-147696222D01*
X211810702Y-147686089D01*
X211710223Y-147696222D01*
X211696977Y-147721689D01*
X202676356Y-147721689D01*
X202527840Y-147573173D01*
X202360666Y-147457205D01*
X202128497Y-147451568D01*
X202116335Y-147454343D01*
X201989110Y-147470380D01*
X202015663Y-147428521D01*
X202040603Y-147408793D01*
X202032370Y-147350923D01*
X201867496Y-147301066D01*
X201857152Y-147298944D01*
X201679893Y-147242507D01*
X201606667Y-147180372D01*
X201608319Y-147174619D01*
X202629988Y-147174619D01*
X202638837Y-147241155D01*
X202757504Y-147354453D01*
X202766614Y-147361174D01*
X202904445Y-147439959D01*
X202961334Y-147428320D01*
X202961331Y-147427684D01*
X202897185Y-147305087D01*
X202873889Y-147287000D01*
X203892667Y-147287000D01*
X203935000Y-147329334D01*
X203977334Y-147287000D01*
X203935000Y-147244667D01*
X203892667Y-147287000D01*
X202873889Y-147287000D01*
X202760749Y-147199157D01*
X202633350Y-147173162D01*
X202629988Y-147174619D01*
X201608319Y-147174619D01*
X201613948Y-147155012D01*
X201719264Y-147051692D01*
X201750309Y-147033000D01*
X202284000Y-147033000D01*
X202326334Y-147075334D01*
X202368667Y-147033000D01*
X202326334Y-146990667D01*
X202284000Y-147033000D01*
X201750309Y-147033000D01*
X201897229Y-146944539D01*
X202079944Y-146869813D01*
X202199508Y-146863774D01*
X202234663Y-146875976D01*
X202284000Y-146811572D01*
X202286454Y-146797923D01*
X202357093Y-146801269D01*
X202495333Y-146905687D01*
X202519726Y-146927886D01*
X202669635Y-147033000D01*
X202671401Y-147034239D01*
X202763778Y-147047111D01*
X202768986Y-147039252D01*
X202740167Y-146934349D01*
X202622354Y-146778666D01*
X202593299Y-146746496D01*
X202507109Y-146618999D01*
X202524071Y-146567334D01*
X202624854Y-146608627D01*
X202769312Y-146736667D01*
X202897913Y-146845489D01*
X203064817Y-146906000D01*
X203151382Y-146890552D01*
X203213248Y-146803556D01*
X203129286Y-146693480D01*
X203102567Y-146670223D01*
X203091950Y-146561483D01*
X203101336Y-146548359D01*
X203239057Y-146485808D01*
X203410838Y-146509528D01*
X203523196Y-146609181D01*
X203548355Y-146657595D01*
X203630059Y-146694265D01*
X203694100Y-146618563D01*
X203694949Y-146467932D01*
X203693435Y-146440334D01*
X204231334Y-146440334D01*
X204273667Y-146482667D01*
X204316000Y-146440334D01*
X204273667Y-146398000D01*
X204231334Y-146440334D01*
X203693435Y-146440334D01*
X203689389Y-146366601D01*
X203729568Y-146313334D01*
X203977334Y-146313334D01*
X203980779Y-146336540D01*
X204066997Y-146398000D01*
X204097621Y-146391352D01*
X204104334Y-146313334D01*
X204086956Y-146287996D01*
X204014670Y-146228667D01*
X204006221Y-146230868D01*
X203977334Y-146313334D01*
X203729568Y-146313334D01*
X203772239Y-146256763D01*
X203861377Y-146186377D01*
X203883627Y-146051962D01*
X203786834Y-145949972D01*
X203727233Y-145897779D01*
X203797417Y-145794750D01*
X203894798Y-145724951D01*
X203952639Y-145784167D01*
X203978151Y-145826405D01*
X204111389Y-145890000D01*
X204163670Y-145879407D01*
X204232630Y-145784167D01*
X204249783Y-145735114D01*
X204325284Y-145805334D01*
X204342274Y-145828653D01*
X204391149Y-145877708D01*
X204381440Y-145838419D01*
X209239970Y-145838419D01*
X209260181Y-145951736D01*
X209289083Y-145950425D01*
X209304650Y-145840611D01*
X209291092Y-145757388D01*
X209253497Y-145789459D01*
X209239970Y-145838419D01*
X204381440Y-145838419D01*
X204366321Y-145777242D01*
X204359692Y-145754181D01*
X210604264Y-145754181D01*
X210605575Y-145783083D01*
X210715389Y-145798649D01*
X210798612Y-145785091D01*
X210766542Y-145747497D01*
X210717581Y-145733969D01*
X210604264Y-145754181D01*
X204359692Y-145754181D01*
X204339875Y-145685246D01*
X204316000Y-145552335D01*
X204275394Y-145519195D01*
X204133296Y-145530298D01*
X204020978Y-145556281D01*
X204004059Y-145530407D01*
X204112129Y-145414115D01*
X204134390Y-145391987D01*
X204249665Y-145310540D01*
X204301973Y-145363243D01*
X204318417Y-145399880D01*
X204425670Y-145450347D01*
X204551659Y-145412712D01*
X204612334Y-145303230D01*
X204621100Y-145253105D01*
X204718167Y-145149167D01*
X204775091Y-145152809D01*
X204824000Y-145257003D01*
X204842576Y-145335059D01*
X204946689Y-145353037D01*
X205018540Y-145342736D01*
X205022297Y-145428645D01*
X205014916Y-145498772D01*
X205111275Y-145551334D01*
X205201030Y-145512661D01*
X205247334Y-145339667D01*
X211766667Y-145339667D01*
X211809000Y-145382000D01*
X211851334Y-145339667D01*
X211809000Y-145297334D01*
X211766667Y-145339667D01*
X205247334Y-145339667D01*
X205225418Y-145200434D01*
X205159094Y-145128000D01*
X205101083Y-145114460D01*
X205055933Y-145085667D01*
X209650000Y-145085667D01*
X209692334Y-145128000D01*
X209734667Y-145085667D01*
X211766667Y-145085667D01*
X211809000Y-145128000D01*
X211851334Y-145085667D01*
X211809000Y-145043334D01*
X211766667Y-145085667D01*
X209734667Y-145085667D01*
X209692334Y-145043334D01*
X209650000Y-145085667D01*
X205055933Y-145085667D01*
X204960137Y-145024576D01*
X204892540Y-144925816D01*
X204946844Y-144831667D01*
X211682000Y-144831667D01*
X211724334Y-144874000D01*
X211766667Y-144831667D01*
X211724334Y-144789334D01*
X211682000Y-144831667D01*
X204946844Y-144831667D01*
X204957663Y-144812909D01*
X205025981Y-144760998D01*
X205198953Y-144704667D01*
X205276392Y-144675360D01*
X205332000Y-144535334D01*
X205305206Y-144466542D01*
X210177403Y-144466542D01*
X210261097Y-144577989D01*
X210362647Y-144592774D01*
X210412000Y-144500056D01*
X210394577Y-144434170D01*
X210350374Y-144408334D01*
X211089334Y-144408334D01*
X211131667Y-144450667D01*
X211174000Y-144408334D01*
X211165180Y-144399514D01*
X211450931Y-144399514D01*
X211451332Y-144408334D01*
X211452242Y-144428416D01*
X211562056Y-144443983D01*
X211645279Y-144430425D01*
X211613209Y-144392830D01*
X211564248Y-144379303D01*
X211450931Y-144399514D01*
X211165180Y-144399514D01*
X211131667Y-144366000D01*
X211089334Y-144408334D01*
X210350374Y-144408334D01*
X210277945Y-144366000D01*
X210214252Y-144380175D01*
X210202237Y-144408334D01*
X210177403Y-144466542D01*
X205305206Y-144466542D01*
X205283263Y-144410205D01*
X205277891Y-144408334D01*
X205755334Y-144408334D01*
X205797667Y-144450667D01*
X205840000Y-144408334D01*
X205797667Y-144366000D01*
X205755334Y-144408334D01*
X205277891Y-144408334D01*
X205118455Y-144352808D01*
X204815795Y-144359377D01*
X204725246Y-144345474D01*
X204572595Y-144242126D01*
X204537334Y-144194443D01*
X205332000Y-144194443D01*
X205369887Y-144247119D01*
X205501334Y-144346351D01*
X205558949Y-144380607D01*
X205650299Y-144401579D01*
X205670667Y-144300194D01*
X205660280Y-144264400D01*
X208888000Y-144264400D01*
X208889909Y-144300194D01*
X208893541Y-144368312D01*
X208915453Y-144408334D01*
X208935811Y-144445521D01*
X208971650Y-144408334D01*
X209480667Y-144408334D01*
X209523000Y-144450667D01*
X209565334Y-144408334D01*
X209523000Y-144366000D01*
X209480667Y-144408334D01*
X208971650Y-144408334D01*
X209019560Y-144358623D01*
X209035139Y-144304881D01*
X208982223Y-144172356D01*
X208980258Y-144170405D01*
X208978272Y-144169604D01*
X209335239Y-144169604D01*
X209424176Y-144236225D01*
X209495440Y-144258913D01*
X209641193Y-144304881D01*
X209692334Y-144321010D01*
X209723879Y-144329648D01*
X209812563Y-144319122D01*
X209781646Y-144239965D01*
X209780453Y-144239000D01*
X211428000Y-144239000D01*
X211470334Y-144281334D01*
X211512667Y-144239000D01*
X211470334Y-144196667D01*
X211428000Y-144239000D01*
X209780453Y-144239000D01*
X209640018Y-144125415D01*
X209503943Y-144064456D01*
X209371861Y-144102273D01*
X209335239Y-144169604D01*
X208978272Y-144169604D01*
X208908743Y-144141567D01*
X208888000Y-144264400D01*
X205660280Y-144264400D01*
X205644126Y-144208734D01*
X205501334Y-144148286D01*
X205403190Y-144156887D01*
X205332000Y-144194443D01*
X204537334Y-144194443D01*
X204530059Y-144184605D01*
X204539463Y-144125477D01*
X204691630Y-144112000D01*
X204835279Y-144090220D01*
X204841066Y-144081022D01*
X206362977Y-144081022D01*
X206432667Y-144112000D01*
X206477489Y-144105890D01*
X206489112Y-144055556D01*
X206476702Y-144045423D01*
X206376223Y-144055556D01*
X206362977Y-144081022D01*
X204841066Y-144081022D01*
X204864856Y-144043209D01*
X209923403Y-144043209D01*
X209929070Y-144055556D01*
X209937389Y-144073686D01*
X210057516Y-144177283D01*
X210108963Y-144175996D01*
X210106666Y-144076742D01*
X210093427Y-144047637D01*
X210034182Y-143985000D01*
X210327334Y-143985000D01*
X210330173Y-144021365D01*
X210400966Y-144109487D01*
X210492465Y-144069667D01*
X211004667Y-144069667D01*
X211047000Y-144112000D01*
X211089334Y-144069667D01*
X211047000Y-144027334D01*
X211004667Y-144069667D01*
X210492465Y-144069667D01*
X210524889Y-144055556D01*
X210549923Y-144026668D01*
X210570943Y-143909574D01*
X210454334Y-143858000D01*
X210395107Y-143872752D01*
X210327334Y-143985000D01*
X210034182Y-143985000D01*
X210008534Y-143957883D01*
X209931272Y-143952640D01*
X209928460Y-143985000D01*
X209923403Y-144043209D01*
X204864856Y-144043209D01*
X204870551Y-144034157D01*
X204867939Y-144013825D01*
X204897203Y-143986288D01*
X205366369Y-143986288D01*
X205454004Y-144027334D01*
X205517085Y-144016971D01*
X205546737Y-143985000D01*
X208803334Y-143985000D01*
X208845667Y-144027334D01*
X208888000Y-143985000D01*
X208845667Y-143942667D01*
X208803334Y-143985000D01*
X205546737Y-143985000D01*
X205586000Y-143942667D01*
X205583720Y-143922579D01*
X205506331Y-143858000D01*
X205482577Y-143861230D01*
X205374334Y-143942667D01*
X205366369Y-143986288D01*
X204897203Y-143986288D01*
X204952319Y-143934424D01*
X205140721Y-143851941D01*
X205292371Y-143791412D01*
X205556739Y-143657689D01*
X209241644Y-143657689D01*
X209311334Y-143688667D01*
X209356156Y-143682557D01*
X209364520Y-143646334D01*
X209650000Y-143646334D01*
X209692334Y-143688667D01*
X209946334Y-143688667D01*
X209963636Y-143711548D01*
X210083327Y-143773334D01*
X210111797Y-143766810D01*
X210115667Y-143688667D01*
X210098365Y-143665786D01*
X209978674Y-143604000D01*
X209950204Y-143610523D01*
X209948430Y-143646334D01*
X209946334Y-143688667D01*
X209692334Y-143688667D01*
X209734667Y-143646334D01*
X209692334Y-143604000D01*
X209650000Y-143646334D01*
X209364520Y-143646334D01*
X209367778Y-143632222D01*
X209355369Y-143622089D01*
X209254889Y-143632222D01*
X209241644Y-143657689D01*
X205556739Y-143657689D01*
X205588019Y-143641867D01*
X205720303Y-143561667D01*
X206094000Y-143561667D01*
X206136334Y-143604000D01*
X206178667Y-143561667D01*
X206136334Y-143519334D01*
X206094000Y-143561667D01*
X205720303Y-143561667D01*
X205881204Y-143464118D01*
X205904988Y-143448778D01*
X208676334Y-143448778D01*
X208686148Y-143492046D01*
X208763680Y-143561667D01*
X208790253Y-143585529D01*
X208853986Y-143586120D01*
X208856627Y-143573022D01*
X210680977Y-143573022D01*
X210750667Y-143604000D01*
X210795489Y-143597890D01*
X210805917Y-143552733D01*
X210951603Y-143552733D01*
X211004667Y-143646334D01*
X211046349Y-143688667D01*
X211099398Y-143742545D01*
X211160811Y-143770086D01*
X211151588Y-143742355D01*
X211442977Y-143742355D01*
X211512667Y-143773334D01*
X211557489Y-143767223D01*
X211569112Y-143716889D01*
X211556702Y-143706756D01*
X211456223Y-143716889D01*
X211442977Y-143742355D01*
X211151588Y-143742355D01*
X211136136Y-143695898D01*
X211125945Y-143658824D01*
X211194640Y-143575582D01*
X211213477Y-143544896D01*
X211100134Y-143526018D01*
X211034386Y-143525355D01*
X210967256Y-143547556D01*
X210951603Y-143552733D01*
X210805917Y-143552733D01*
X210807112Y-143547556D01*
X210794702Y-143537423D01*
X210694223Y-143547556D01*
X210680977Y-143573022D01*
X208856627Y-143573022D01*
X208874920Y-143482279D01*
X208822807Y-143390632D01*
X209075423Y-143390632D01*
X209084666Y-143482279D01*
X209085556Y-143491111D01*
X209111022Y-143504357D01*
X209142000Y-143434667D01*
X209135890Y-143389845D01*
X209085556Y-143378222D01*
X209075423Y-143390632D01*
X208822807Y-143390632D01*
X208811854Y-143371370D01*
X208721853Y-143353504D01*
X208706023Y-143386636D01*
X208676334Y-143448778D01*
X205904988Y-143448778D01*
X206052407Y-143353698D01*
X207404049Y-143353698D01*
X207410292Y-143403408D01*
X207528337Y-143434667D01*
X207644420Y-143426754D01*
X207693694Y-143386636D01*
X207593027Y-143328834D01*
X209312630Y-143328834D01*
X209328481Y-143434667D01*
X209330421Y-143447625D01*
X209396000Y-143519334D01*
X209424354Y-143516714D01*
X209474783Y-143440541D01*
X209396000Y-143265334D01*
X209375800Y-143235535D01*
X209325998Y-143205119D01*
X209324065Y-143223000D01*
X209312630Y-143328834D01*
X207593027Y-143328834D01*
X207578379Y-143320423D01*
X207514191Y-143307573D01*
X207404049Y-143353698D01*
X206052407Y-143353698D01*
X206075507Y-143338799D01*
X206272227Y-143224674D01*
X206276216Y-143223000D01*
X207025334Y-143223000D01*
X207067667Y-143265334D01*
X207110000Y-143223000D01*
X207067667Y-143180667D01*
X207025334Y-143223000D01*
X206276216Y-143223000D01*
X206377083Y-143180667D01*
X206382886Y-143179815D01*
X206493694Y-143119403D01*
X206693197Y-142983333D01*
X206770292Y-142926667D01*
X207152334Y-142926667D01*
X207169636Y-142949548D01*
X207289327Y-143011334D01*
X207317797Y-143004810D01*
X207320943Y-142941283D01*
X208505267Y-142941283D01*
X208537328Y-143105136D01*
X208623146Y-143163975D01*
X208724608Y-143086388D01*
X208797348Y-143015623D01*
X208901408Y-143075541D01*
X208905445Y-143079533D01*
X209027544Y-143164419D01*
X209109701Y-143171705D01*
X209105610Y-143140841D01*
X209758130Y-143140841D01*
X209856683Y-143225693D01*
X209940966Y-143309518D01*
X209920183Y-143350000D01*
X209885827Y-143354728D01*
X209819334Y-143428648D01*
X209821969Y-143438993D01*
X209825458Y-143440541D01*
X209919886Y-143482446D01*
X210115288Y-143492148D01*
X210153354Y-143489660D01*
X210336788Y-143458804D01*
X210411621Y-143411887D01*
X210473800Y-143382623D01*
X210636295Y-143403068D01*
X210678021Y-143412975D01*
X210802547Y-143421230D01*
X210795933Y-143354745D01*
X210734252Y-143319022D01*
X211104310Y-143319022D01*
X211174000Y-143350000D01*
X211218823Y-143343890D01*
X211230445Y-143293556D01*
X211218036Y-143283423D01*
X211117556Y-143293556D01*
X211104310Y-143319022D01*
X210734252Y-143319022D01*
X210689140Y-143292895D01*
X210433290Y-143306029D01*
X210270997Y-143330411D01*
X210178529Y-143312635D01*
X210186329Y-143228965D01*
X210198922Y-143179651D01*
X210167378Y-143138334D01*
X210412000Y-143138334D01*
X210454334Y-143180667D01*
X210481434Y-143153567D01*
X210539000Y-143153567D01*
X210835334Y-143163897D01*
X210997727Y-143150673D01*
X211185565Y-143085539D01*
X211295138Y-142990748D01*
X211281800Y-142893355D01*
X211259206Y-142873454D01*
X211142509Y-142851251D01*
X211133532Y-142870222D01*
X211093472Y-142954889D01*
X211089334Y-142963636D01*
X211016880Y-143059973D01*
X210814167Y-143119419D01*
X210661748Y-143138334D01*
X210539000Y-143153567D01*
X210481434Y-143153567D01*
X210496667Y-143138334D01*
X210454334Y-143096000D01*
X210412000Y-143138334D01*
X210167378Y-143138334D01*
X210149185Y-143114504D01*
X209964843Y-143098693D01*
X209788307Y-143106482D01*
X209758130Y-143140841D01*
X209105610Y-143140841D01*
X209099667Y-143096000D01*
X209097321Y-143046709D01*
X209200504Y-143005383D01*
X209255268Y-143002388D01*
X209296553Y-142982586D01*
X209259214Y-142963980D01*
X209727108Y-142963980D01*
X209772083Y-142983167D01*
X209946334Y-142989982D01*
X210038674Y-142987786D01*
X210092573Y-142980355D01*
X210426977Y-142980355D01*
X210496667Y-143011334D01*
X210541489Y-143005223D01*
X210553112Y-142954889D01*
X210540702Y-142944756D01*
X210440223Y-142954889D01*
X210430409Y-142973756D01*
X210426977Y-142980355D01*
X210092573Y-142980355D01*
X210140438Y-142973756D01*
X210093513Y-142951452D01*
X209958168Y-142937390D01*
X209754847Y-142953161D01*
X209727108Y-142963980D01*
X209259214Y-142963980D01*
X209184334Y-142926667D01*
X209125445Y-142895689D01*
X210680977Y-142895689D01*
X210750667Y-142926667D01*
X210795489Y-142920557D01*
X210807112Y-142870222D01*
X210794702Y-142860089D01*
X210694223Y-142870222D01*
X210680977Y-142895689D01*
X209125445Y-142895689D01*
X209105102Y-142884988D01*
X209131803Y-142856168D01*
X209311334Y-142842000D01*
X209458833Y-142832252D01*
X209520170Y-142808204D01*
X209488678Y-142790847D01*
X210180931Y-142790847D01*
X210181719Y-142808204D01*
X210182242Y-142819749D01*
X210292056Y-142835316D01*
X210375279Y-142821758D01*
X210356435Y-142799667D01*
X211343334Y-142799667D01*
X211385667Y-142842000D01*
X211428000Y-142799667D01*
X211385667Y-142757334D01*
X211343334Y-142799667D01*
X210356435Y-142799667D01*
X210343209Y-142784163D01*
X210294248Y-142770636D01*
X210180931Y-142790847D01*
X209488678Y-142790847D01*
X209438334Y-142763099D01*
X209324367Y-142731283D01*
X209173361Y-142731864D01*
X209167461Y-142733589D01*
X209050520Y-142689844D01*
X208920740Y-142563971D01*
X209438334Y-142563971D01*
X209777000Y-142568930D01*
X210014321Y-142545667D01*
X210327334Y-142545667D01*
X210369667Y-142588000D01*
X210412000Y-142545667D01*
X210369667Y-142503334D01*
X210327334Y-142545667D01*
X210014321Y-142545667D01*
X210028858Y-142544242D01*
X210179566Y-142461000D01*
X211004667Y-142461000D01*
X211047000Y-142503334D01*
X211089334Y-142461000D01*
X211047000Y-142418667D01*
X211004667Y-142461000D01*
X210179566Y-142461000D01*
X210257480Y-142417965D01*
X210284777Y-142387658D01*
X210292660Y-142376334D01*
X210750667Y-142376334D01*
X210793000Y-142418667D01*
X210835334Y-142376334D01*
X210793000Y-142334000D01*
X210750667Y-142376334D01*
X210292660Y-142376334D01*
X210342347Y-142304956D01*
X210285549Y-142284647D01*
X210088146Y-142310005D01*
X209949763Y-142333282D01*
X209774161Y-142376575D01*
X209760063Y-142409856D01*
X209911056Y-142430681D01*
X209967644Y-142437774D01*
X209951722Y-142463816D01*
X209777000Y-142503334D01*
X209438334Y-142563971D01*
X208920740Y-142563971D01*
X208907175Y-142550814D01*
X208865455Y-142500116D01*
X208700279Y-142357854D01*
X208587513Y-142365712D01*
X208558117Y-142461000D01*
X208538528Y-142524500D01*
X208531382Y-142630334D01*
X208529642Y-142656117D01*
X208507655Y-142907586D01*
X208506302Y-142926667D01*
X208505267Y-142941283D01*
X207320943Y-142941283D01*
X207321667Y-142926667D01*
X207304365Y-142903786D01*
X207184674Y-142842000D01*
X207156204Y-142848523D01*
X207152334Y-142926667D01*
X206770292Y-142926667D01*
X206943557Y-142799314D01*
X207161445Y-142630334D01*
X207448667Y-142630334D01*
X207491000Y-142672667D01*
X207533334Y-142630334D01*
X207491000Y-142588000D01*
X207448667Y-142630334D01*
X207161445Y-142630334D01*
X207206936Y-142595054D01*
X207369442Y-142461000D01*
X207702667Y-142461000D01*
X207745000Y-142503334D01*
X207787334Y-142461000D01*
X207745000Y-142418667D01*
X207702667Y-142461000D01*
X207369442Y-142461000D01*
X207445495Y-142398262D01*
X207746761Y-142164667D01*
X209734667Y-142164667D01*
X209768726Y-142214790D01*
X209908997Y-142249334D01*
X210005077Y-142231307D01*
X210031000Y-142164667D01*
X210000819Y-142131600D01*
X209856670Y-142080000D01*
X209802882Y-142088728D01*
X209734667Y-142164667D01*
X207746761Y-142164667D01*
X207814328Y-142112277D01*
X208164003Y-141899040D01*
X208448110Y-141787303D01*
X208489864Y-141775515D01*
X208622714Y-141699000D01*
X209734667Y-141699000D01*
X209777000Y-141741334D01*
X209807979Y-141710355D01*
X210088310Y-141710355D01*
X210158000Y-141741334D01*
X210202823Y-141735223D01*
X210214445Y-141684889D01*
X210202036Y-141674756D01*
X210101556Y-141684889D01*
X210094216Y-141699000D01*
X210088310Y-141710355D01*
X209807979Y-141710355D01*
X209819334Y-141699000D01*
X209777000Y-141656667D01*
X209734667Y-141699000D01*
X208622714Y-141699000D01*
X208662801Y-141675912D01*
X208726048Y-141614334D01*
X209396000Y-141614334D01*
X209438334Y-141656667D01*
X209480667Y-141614334D01*
X209438334Y-141572000D01*
X209396000Y-141614334D01*
X208726048Y-141614334D01*
X208813010Y-141529667D01*
X209650000Y-141529667D01*
X209692334Y-141572000D01*
X209734667Y-141529667D01*
X209692334Y-141487334D01*
X209650000Y-141529667D01*
X208813010Y-141529667D01*
X208864494Y-141479541D01*
X209106189Y-141172486D01*
X209399133Y-140740830D01*
X209754573Y-140170657D01*
X209911413Y-139926011D01*
X210100142Y-139666847D01*
X210259939Y-139483783D01*
X210370621Y-139399371D01*
X210412000Y-139436164D01*
X210386532Y-139515567D01*
X210279602Y-139660303D01*
X210212856Y-139757473D01*
X210213989Y-139899184D01*
X210243865Y-139973590D01*
X210254831Y-140163088D01*
X210255407Y-140246138D01*
X210310818Y-140269874D01*
X210368186Y-140272295D01*
X210435720Y-140383560D01*
X210443398Y-140484603D01*
X210386283Y-140578684D01*
X210357612Y-140613170D01*
X210364187Y-140750115D01*
X210423831Y-140928272D01*
X210511822Y-141082753D01*
X210603438Y-141148667D01*
X210617714Y-141149997D01*
X210744858Y-141233545D01*
X210863257Y-141394973D01*
X210917308Y-141561200D01*
X210917401Y-141566270D01*
X210893340Y-141633682D01*
X210793000Y-141572000D01*
X210710541Y-141518799D01*
X210698797Y-141529667D01*
X210666000Y-141560020D01*
X210704397Y-141614334D01*
X210718996Y-141634986D01*
X210829616Y-141684889D01*
G36*
X212492025Y-136980036D02*
G01*
X212636170Y-137071553D01*
X212652051Y-137175184D01*
X212560745Y-137246219D01*
X212408039Y-137223683D01*
X212274712Y-137084750D01*
X212251226Y-137038823D01*
X212233392Y-136944641D01*
X212335233Y-136939033D01*
X212492025Y-136980036D01*
G37*
X212492025Y-136980036D02*
X212636170Y-137071553D01*
X212652051Y-137175184D01*
X212560745Y-137246219D01*
X212408039Y-137223683D01*
X212274712Y-137084750D01*
X212251226Y-137038823D01*
X212233392Y-136944641D01*
X212335233Y-136939033D01*
X212492025Y-136980036D01*
G36*
X211089334Y-136280334D02*
G01*
X211136073Y-136493357D01*
X211163983Y-136682500D01*
X211156213Y-136761448D01*
X211089334Y-136830667D01*
X211061810Y-136807773D01*
X211024809Y-136662808D01*
X211014684Y-136428500D01*
X211018511Y-136297979D01*
X211029539Y-136148640D01*
X211050759Y-136147498D01*
X211089334Y-136280334D01*
G37*
X211089334Y-136280334D02*
X211136073Y-136493357D01*
X211163983Y-136682500D01*
X211156213Y-136761448D01*
X211089334Y-136830667D01*
X211061810Y-136807773D01*
X211024809Y-136662808D01*
X211014684Y-136428500D01*
X211018511Y-136297979D01*
X211029539Y-136148640D01*
X211050759Y-136147498D01*
X211089334Y-136280334D01*
G36*
X219913151Y-148879685D02*
G01*
X219979334Y-148980334D01*
X219979281Y-148989197D01*
X219957008Y-149081016D01*
X219863693Y-149098693D01*
X219654677Y-149052098D01*
X219631397Y-149045625D01*
X219523405Y-148991817D01*
X219570010Y-148927550D01*
X219755743Y-148859691D01*
X219913151Y-148879685D01*
G37*
X219913151Y-148879685D02*
X219979334Y-148980334D01*
X219979281Y-148989197D01*
X219957008Y-149081016D01*
X219863693Y-149098693D01*
X219654677Y-149052098D01*
X219631397Y-149045625D01*
X219523405Y-148991817D01*
X219570010Y-148927550D01*
X219755743Y-148859691D01*
X219913151Y-148879685D01*
G36*
X203572673Y-144763643D02*
G01*
X203638667Y-144877048D01*
X203608467Y-144922995D01*
X203476459Y-144918595D01*
X203443944Y-144910320D01*
X203305874Y-144923732D01*
X203241945Y-144996372D01*
X203298619Y-145084813D01*
X203323050Y-145103203D01*
X203384667Y-145217664D01*
X203382143Y-145247181D01*
X203323854Y-145300470D01*
X203226120Y-145246090D01*
X203139383Y-145106834D01*
X203117247Y-144939062D01*
X203230705Y-144802949D01*
X203236046Y-144799271D01*
X203417207Y-144733856D01*
X203572673Y-144763643D01*
G37*
X203572673Y-144763643D02*
X203638667Y-144877048D01*
X203608467Y-144922995D01*
X203476459Y-144918595D01*
X203443944Y-144910320D01*
X203305874Y-144923732D01*
X203241945Y-144996372D01*
X203298619Y-145084813D01*
X203323050Y-145103203D01*
X203384667Y-145217664D01*
X203382143Y-145247181D01*
X203323854Y-145300470D01*
X203226120Y-145246090D01*
X203139383Y-145106834D01*
X203117247Y-144939062D01*
X203230705Y-144802949D01*
X203236046Y-144799271D01*
X203417207Y-144733856D01*
X203572673Y-144763643D01*
G36*
X218598758Y-145506856D02*
G01*
X218757593Y-145591471D01*
X218900972Y-145702796D01*
X218963334Y-145799359D01*
X218937015Y-145837601D01*
X218818707Y-145834281D01*
X218662117Y-145770995D01*
X218530709Y-145667138D01*
X218484947Y-145593491D01*
X218482960Y-145495485D01*
X218490025Y-145490422D01*
X218598758Y-145506856D01*
G37*
X218598758Y-145506856D02*
X218757593Y-145591471D01*
X218900972Y-145702796D01*
X218963334Y-145799359D01*
X218937015Y-145837601D01*
X218818707Y-145834281D01*
X218662117Y-145770995D01*
X218530709Y-145667138D01*
X218484947Y-145593491D01*
X218482960Y-145495485D01*
X218490025Y-145490422D01*
X218598758Y-145506856D01*
G36*
X211296956Y-132110500D02*
G01*
X211320477Y-132204325D01*
X211296956Y-132406834D01*
X211274484Y-132457309D01*
X211231350Y-132510640D01*
X211197023Y-132406834D01*
X211185076Y-132326534D01*
X211197023Y-132110500D01*
X211209596Y-132060024D01*
X211242272Y-132006694D01*
X211296956Y-132110500D01*
G37*
X211296956Y-132110500D02*
X211320477Y-132204325D01*
X211296956Y-132406834D01*
X211274484Y-132457309D01*
X211231350Y-132510640D01*
X211197023Y-132406834D01*
X211185076Y-132326534D01*
X211197023Y-132110500D01*
X211209596Y-132060024D01*
X211242272Y-132006694D01*
X211296956Y-132110500D01*
G36*
X201395000Y-146990667D02*
G01*
X201464075Y-147060025D01*
X201522000Y-147170367D01*
X201507751Y-147204459D01*
X201395000Y-147244667D01*
X201318557Y-147210951D01*
X201268000Y-147064967D01*
X201268697Y-147023890D01*
X201297687Y-146936133D01*
X201395000Y-146990667D01*
G37*
X201395000Y-146990667D02*
X201464075Y-147060025D01*
X201522000Y-147170367D01*
X201507751Y-147204459D01*
X201395000Y-147244667D01*
X201318557Y-147210951D01*
X201268000Y-147064967D01*
X201268697Y-147023890D01*
X201297687Y-146936133D01*
X201395000Y-146990667D01*
G36*
X202622667Y-146017000D02*
G01*
X202580334Y-146059334D01*
X202538000Y-146017000D01*
X202580334Y-145974667D01*
X202622667Y-146017000D01*
G37*
X202622667Y-146017000D02*
X202580334Y-146059334D01*
X202538000Y-146017000D01*
X202580334Y-145974667D01*
X202622667Y-146017000D01*
G36*
X202707334Y-145715670D02*
G01*
X202704080Y-145740246D01*
X202622667Y-145805334D01*
X202603506Y-145804363D01*
X202538000Y-145767997D01*
X202541897Y-145754416D01*
X202622667Y-145678334D01*
X202655464Y-145665104D01*
X202707334Y-145715670D01*
G37*
X202707334Y-145715670D02*
X202704080Y-145740246D01*
X202622667Y-145805334D01*
X202603506Y-145804363D01*
X202538000Y-145767997D01*
X202541897Y-145754416D01*
X202622667Y-145678334D01*
X202655464Y-145665104D01*
X202707334Y-145715670D01*
G36*
X214984000Y-141614334D02*
G01*
X214941667Y-141656667D01*
X214899334Y-141614334D01*
X214941667Y-141572000D01*
X214984000Y-141614334D01*
G37*
X214984000Y-141614334D02*
X214941667Y-141656667D01*
X214899334Y-141614334D01*
X214941667Y-141572000D01*
X214984000Y-141614334D01*
G36*
X213937567Y-139743628D02*
G01*
X214179667Y-139912104D01*
X214269678Y-140003738D01*
X214240188Y-140045307D01*
X214120457Y-140016077D01*
X213939112Y-139919863D01*
X213781395Y-139798644D01*
X213714000Y-139696617D01*
X213714018Y-139695221D01*
X213774751Y-139667817D01*
X213937567Y-139743628D01*
G37*
X213937567Y-139743628D02*
X214179667Y-139912104D01*
X214269678Y-140003738D01*
X214240188Y-140045307D01*
X214120457Y-140016077D01*
X213939112Y-139919863D01*
X213781395Y-139798644D01*
X213714000Y-139696617D01*
X213714018Y-139695221D01*
X213774751Y-139667817D01*
X213937567Y-139743628D01*
G36*
X211343334Y-132809000D02*
G01*
X211301000Y-132851334D01*
X211258667Y-132809000D01*
X211301000Y-132766667D01*
X211343334Y-132809000D01*
G37*
X211343334Y-132809000D02*
X211301000Y-132851334D01*
X211258667Y-132809000D01*
X211301000Y-132766667D01*
X211343334Y-132809000D01*
G36*
X210516246Y-140728587D02*
G01*
X210581334Y-140810000D01*
X210580363Y-140829161D01*
X210543997Y-140894667D01*
X210530416Y-140890771D01*
X210454334Y-140810000D01*
X210441104Y-140777203D01*
X210491670Y-140725334D01*
X210516246Y-140728587D01*
G37*
X210516246Y-140728587D02*
X210581334Y-140810000D01*
X210580363Y-140829161D01*
X210543997Y-140894667D01*
X210530416Y-140890771D01*
X210454334Y-140810000D01*
X210441104Y-140777203D01*
X210491670Y-140725334D01*
X210516246Y-140728587D01*
G36*
X221050128Y-151421425D02*
G01*
X221022330Y-151513596D01*
X220983804Y-151717758D01*
X220965433Y-151759710D01*
X220934302Y-151658735D01*
X220933332Y-151513997D01*
X221000627Y-151362402D01*
X221006777Y-151356786D01*
X221071993Y-151319966D01*
X221050128Y-151421425D01*
G37*
X221050128Y-151421425D02*
X221022330Y-151513596D01*
X220983804Y-151717758D01*
X220965433Y-151759710D01*
X220934302Y-151658735D01*
X220933332Y-151513997D01*
X221000627Y-151362402D01*
X221006777Y-151356786D01*
X221071993Y-151319966D01*
X221050128Y-151421425D01*
G36*
X209290167Y-130374502D02*
G01*
X209384949Y-130439282D01*
X209367797Y-130524514D01*
X209226027Y-130565334D01*
X209153648Y-130573033D01*
X209092047Y-130629914D01*
X209068604Y-130776423D01*
X209070680Y-131052167D01*
X209069037Y-131252822D01*
X209040575Y-131555563D01*
X208988749Y-131771834D01*
X208947018Y-131863916D01*
X208851479Y-131992885D01*
X208779634Y-131958929D01*
X208734394Y-131765866D01*
X208718667Y-131417512D01*
X208723716Y-131185435D01*
X208775592Y-130756611D01*
X208885624Y-130481559D01*
X209056315Y-130355711D01*
X209290167Y-130374502D01*
G37*
X209290167Y-130374502D02*
X209384949Y-130439282D01*
X209367797Y-130524514D01*
X209226027Y-130565334D01*
X209153648Y-130573033D01*
X209092047Y-130629914D01*
X209068604Y-130776423D01*
X209070680Y-131052167D01*
X209069037Y-131252822D01*
X209040575Y-131555563D01*
X208988749Y-131771834D01*
X208947018Y-131863916D01*
X208851479Y-131992885D01*
X208779634Y-131958929D01*
X208734394Y-131765866D01*
X208718667Y-131417512D01*
X208723716Y-131185435D01*
X208775592Y-130756611D01*
X208885624Y-130481559D01*
X209056315Y-130355711D01*
X209290167Y-130374502D01*
G36*
X215153334Y-141699000D02*
G01*
X215111000Y-141741334D01*
X215068667Y-141699000D01*
X215111000Y-141656667D01*
X215153334Y-141699000D01*
G37*
X215153334Y-141699000D02*
X215111000Y-141741334D01*
X215068667Y-141699000D01*
X215111000Y-141656667D01*
X215153334Y-141699000D01*
G36*
X219217334Y-146186334D02*
G01*
X219175000Y-146228667D01*
X219132667Y-146186334D01*
X219175000Y-146144000D01*
X219217334Y-146186334D01*
G37*
X219217334Y-146186334D02*
X219175000Y-146228667D01*
X219132667Y-146186334D01*
X219175000Y-146144000D01*
X219217334Y-146186334D01*
G36*
X220073864Y-149387762D02*
G01*
X220187132Y-149576477D01*
X220308651Y-149862330D01*
X220356919Y-149998929D01*
X220457926Y-150353804D01*
X220482444Y-150618299D01*
X220436129Y-150835589D01*
X220433240Y-150842841D01*
X220351881Y-150927157D01*
X220270395Y-150876119D01*
X220233334Y-150716000D01*
X220220346Y-150624057D01*
X220147286Y-150503480D01*
X220120661Y-150479779D01*
X220113108Y-150366373D01*
X220125312Y-150247452D01*
X220079297Y-150054723D01*
X220009569Y-149830897D01*
X219947010Y-149555591D01*
X219944580Y-149541018D01*
X219936487Y-149356375D01*
X219984948Y-149309842D01*
X220073864Y-149387762D01*
G37*
X220073864Y-149387762D02*
X220187132Y-149576477D01*
X220308651Y-149862330D01*
X220356919Y-149998929D01*
X220457926Y-150353804D01*
X220482444Y-150618299D01*
X220436129Y-150835589D01*
X220433240Y-150842841D01*
X220351881Y-150927157D01*
X220270395Y-150876119D01*
X220233334Y-150716000D01*
X220220346Y-150624057D01*
X220147286Y-150503480D01*
X220120661Y-150479779D01*
X220113108Y-150366373D01*
X220125312Y-150247452D01*
X220079297Y-150054723D01*
X220009569Y-149830897D01*
X219947010Y-149555591D01*
X219944580Y-149541018D01*
X219936487Y-149356375D01*
X219984948Y-149309842D01*
X220073864Y-149387762D01*
G36*
X202923893Y-146232477D02*
G01*
X203003667Y-146313334D01*
X203019437Y-146343310D01*
X203013661Y-146398000D01*
X202998775Y-146394190D01*
X202919000Y-146313334D01*
X202903230Y-146283357D01*
X202909007Y-146228667D01*
X202923893Y-146232477D01*
G37*
X202923893Y-146232477D02*
X203003667Y-146313334D01*
X203019437Y-146343310D01*
X203013661Y-146398000D01*
X202998775Y-146394190D01*
X202919000Y-146313334D01*
X202903230Y-146283357D01*
X202909007Y-146228667D01*
X202923893Y-146232477D01*
G36*
X210202915Y-131760529D02*
G01*
X210241072Y-131826746D01*
X210156908Y-131929882D01*
X209967500Y-132039851D01*
X209806532Y-132110196D01*
X209690088Y-132157841D01*
X209652652Y-132161681D01*
X209650000Y-132134965D01*
X209704213Y-132046473D01*
X209845260Y-131916380D01*
X210009191Y-131800656D01*
X210131632Y-131750667D01*
X210202915Y-131760529D01*
G37*
X210202915Y-131760529D02*
X210241072Y-131826746D01*
X210156908Y-131929882D01*
X209967500Y-132039851D01*
X209806532Y-132110196D01*
X209690088Y-132157841D01*
X209652652Y-132161681D01*
X209650000Y-132134965D01*
X209704213Y-132046473D01*
X209845260Y-131916380D01*
X210009191Y-131800656D01*
X210131632Y-131750667D01*
X210202915Y-131760529D01*
G36*
X211131667Y-137030238D02*
G01*
X211202970Y-137121730D01*
X211255974Y-137269119D01*
X211224839Y-137309242D01*
X211128974Y-137216651D01*
X211072415Y-137134981D01*
X211010821Y-137003542D01*
X211030723Y-136958147D01*
X211131667Y-137030238D01*
G37*
X211131667Y-137030238D02*
X211202970Y-137121730D01*
X211255974Y-137269119D01*
X211224839Y-137309242D01*
X211128974Y-137216651D01*
X211072415Y-137134981D01*
X211010821Y-137003542D01*
X211030723Y-136958147D01*
X211131667Y-137030238D01*
G36*
X201578445Y-146849556D02*
G01*
X201591691Y-146875022D01*
X201522000Y-146906000D01*
X201477178Y-146899890D01*
X201465556Y-146849556D01*
X201477965Y-146839423D01*
X201578445Y-146849556D01*
G37*
X201578445Y-146849556D02*
X201591691Y-146875022D01*
X201522000Y-146906000D01*
X201477178Y-146899890D01*
X201465556Y-146849556D01*
X201477965Y-146839423D01*
X201578445Y-146849556D01*
G36*
X204385786Y-144615099D02*
G01*
X204400667Y-144739691D01*
X204393317Y-144829837D01*
X204326092Y-144900031D01*
X204146667Y-144892060D01*
X204143097Y-144891531D01*
X203966105Y-144848701D01*
X203892667Y-144798286D01*
X203893000Y-144795264D01*
X203971648Y-144727626D01*
X204146667Y-144645917D01*
X204308589Y-144593190D01*
X204385786Y-144615099D01*
G37*
X204385786Y-144615099D02*
X204400667Y-144739691D01*
X204393317Y-144829837D01*
X204326092Y-144900031D01*
X204146667Y-144892060D01*
X204143097Y-144891531D01*
X203966105Y-144848701D01*
X203892667Y-144798286D01*
X203893000Y-144795264D01*
X203971648Y-144727626D01*
X204146667Y-144645917D01*
X204308589Y-144593190D01*
X204385786Y-144615099D01*
G36*
X219065434Y-148943516D02*
G01*
X219132667Y-148987727D01*
X219120225Y-149019200D01*
X219035965Y-149170556D01*
X218888889Y-149415509D01*
X218698729Y-149722671D01*
X218485216Y-150060652D01*
X218268083Y-150398064D01*
X218067062Y-150703516D01*
X217901885Y-150945620D01*
X217805882Y-151076043D01*
X217668346Y-151240008D01*
X217587500Y-151305454D01*
X217528394Y-151279343D01*
X217540677Y-151150143D01*
X217656079Y-150929572D01*
X217866908Y-150636062D01*
X218023905Y-150424338D01*
X218229527Y-150111417D01*
X218377094Y-149845292D01*
X218548132Y-149514353D01*
X218734805Y-149218753D01*
X218901847Y-149017322D01*
X219026834Y-148941262D01*
X219065434Y-148943516D01*
G37*
X219065434Y-148943516D02*
X219132667Y-148987727D01*
X219120225Y-149019200D01*
X219035965Y-149170556D01*
X218888889Y-149415509D01*
X218698729Y-149722671D01*
X218485216Y-150060652D01*
X218268083Y-150398064D01*
X218067062Y-150703516D01*
X217901885Y-150945620D01*
X217805882Y-151076043D01*
X217668346Y-151240008D01*
X217587500Y-151305454D01*
X217528394Y-151279343D01*
X217540677Y-151150143D01*
X217656079Y-150929572D01*
X217866908Y-150636062D01*
X218023905Y-150424338D01*
X218229527Y-150111417D01*
X218377094Y-149845292D01*
X218548132Y-149514353D01*
X218734805Y-149218753D01*
X218901847Y-149017322D01*
X219026834Y-148941262D01*
X219065434Y-148943516D01*
G36*
X212907729Y-137929725D02*
G01*
X212980499Y-137995734D01*
X213036667Y-138068700D01*
X212998441Y-138109819D01*
X212908267Y-138065730D01*
X212832121Y-137961691D01*
X212822147Y-137934845D01*
X212815938Y-137867951D01*
X212907729Y-137929725D01*
G37*
X212907729Y-137929725D02*
X212980499Y-137995734D01*
X213036667Y-138068700D01*
X212998441Y-138109819D01*
X212908267Y-138065730D01*
X212832121Y-137961691D01*
X212822147Y-137934845D01*
X212815938Y-137867951D01*
X212907729Y-137929725D01*
G36*
X219551303Y-142609675D02*
G01*
X219770496Y-142687082D01*
X220105636Y-142812555D01*
X220534475Y-142977614D01*
X221034763Y-143173780D01*
X221584253Y-143392575D01*
X221928888Y-143529822D01*
X222545727Y-143771134D01*
X223148262Y-144001879D01*
X223700898Y-144208644D01*
X224168040Y-144378016D01*
X224514092Y-144496583D01*
X224741408Y-144571055D01*
X225150484Y-144713568D01*
X225448535Y-144836855D01*
X225671531Y-144959323D01*
X225855444Y-145099376D01*
X226036246Y-145275420D01*
X226169969Y-145424908D01*
X226401034Y-145737882D01*
X226616937Y-146112510D01*
X226823073Y-146563959D01*
X227024834Y-147107395D01*
X227227617Y-147757984D01*
X227436813Y-148530892D01*
X227657820Y-149441287D01*
X227896029Y-150504334D01*
X227943686Y-150723169D01*
X228060387Y-151255183D01*
X228174504Y-151770675D01*
X228275011Y-152219974D01*
X228350882Y-152553409D01*
X228511455Y-153247817D01*
X228076561Y-153273075D01*
X227918795Y-153279217D01*
X227592787Y-153285214D01*
X227158518Y-153288730D01*
X226639119Y-153289961D01*
X226057723Y-153289105D01*
X225437465Y-153286359D01*
X224801476Y-153281920D01*
X224172890Y-153275986D01*
X223574839Y-153268753D01*
X223030457Y-153260419D01*
X222562876Y-153251181D01*
X222195230Y-153241237D01*
X221950651Y-153230782D01*
X221852273Y-153220015D01*
X221839076Y-153208032D01*
X221774559Y-153072705D01*
X221718963Y-152854769D01*
X221708009Y-152799433D01*
X221652206Y-152553246D01*
X221565723Y-152196784D01*
X221458124Y-151768954D01*
X221338970Y-151308667D01*
X221308825Y-151192833D01*
X221183687Y-150690960D01*
X221068531Y-150198305D01*
X220975044Y-149766205D01*
X220914915Y-149446000D01*
X220842304Y-149040847D01*
X220745205Y-148565689D01*
X220646383Y-148133667D01*
X220643771Y-148123064D01*
X220556319Y-147768702D01*
X220443005Y-147310249D01*
X220318189Y-146805772D01*
X220196230Y-146313334D01*
X220115230Y-145983912D01*
X219961995Y-145347744D01*
X219814263Y-144718994D01*
X219679170Y-144129027D01*
X219563850Y-143609212D01*
X219475438Y-143190914D01*
X219421069Y-142905500D01*
X219410449Y-142835303D01*
X219408236Y-142646283D01*
X219473034Y-142588000D01*
X219551303Y-142609675D01*
G37*
X219551303Y-142609675D02*
X219770496Y-142687082D01*
X220105636Y-142812555D01*
X220534475Y-142977614D01*
X221034763Y-143173780D01*
X221584253Y-143392575D01*
X221928888Y-143529822D01*
X222545727Y-143771134D01*
X223148262Y-144001879D01*
X223700898Y-144208644D01*
X224168040Y-144378016D01*
X224514092Y-144496583D01*
X224741408Y-144571055D01*
X225150484Y-144713568D01*
X225448535Y-144836855D01*
X225671531Y-144959323D01*
X225855444Y-145099376D01*
X226036246Y-145275420D01*
X226169969Y-145424908D01*
X226401034Y-145737882D01*
X226616937Y-146112510D01*
X226823073Y-146563959D01*
X227024834Y-147107395D01*
X227227617Y-147757984D01*
X227436813Y-148530892D01*
X227657820Y-149441287D01*
X227896029Y-150504334D01*
X227943686Y-150723169D01*
X228060387Y-151255183D01*
X228174504Y-151770675D01*
X228275011Y-152219974D01*
X228350882Y-152553409D01*
X228511455Y-153247817D01*
X228076561Y-153273075D01*
X227918795Y-153279217D01*
X227592787Y-153285214D01*
X227158518Y-153288730D01*
X226639119Y-153289961D01*
X226057723Y-153289105D01*
X225437465Y-153286359D01*
X224801476Y-153281920D01*
X224172890Y-153275986D01*
X223574839Y-153268753D01*
X223030457Y-153260419D01*
X222562876Y-153251181D01*
X222195230Y-153241237D01*
X221950651Y-153230782D01*
X221852273Y-153220015D01*
X221839076Y-153208032D01*
X221774559Y-153072705D01*
X221718963Y-152854769D01*
X221708009Y-152799433D01*
X221652206Y-152553246D01*
X221565723Y-152196784D01*
X221458124Y-151768954D01*
X221338970Y-151308667D01*
X221308825Y-151192833D01*
X221183687Y-150690960D01*
X221068531Y-150198305D01*
X220975044Y-149766205D01*
X220914915Y-149446000D01*
X220842304Y-149040847D01*
X220745205Y-148565689D01*
X220646383Y-148133667D01*
X220643771Y-148123064D01*
X220556319Y-147768702D01*
X220443005Y-147310249D01*
X220318189Y-146805772D01*
X220196230Y-146313334D01*
X220115230Y-145983912D01*
X219961995Y-145347744D01*
X219814263Y-144718994D01*
X219679170Y-144129027D01*
X219563850Y-143609212D01*
X219475438Y-143190914D01*
X219421069Y-142905500D01*
X219410449Y-142835303D01*
X219408236Y-142646283D01*
X219473034Y-142588000D01*
X219551303Y-142609675D01*
G36*
X219646314Y-123073554D02*
G01*
X219756254Y-123168652D01*
X219889167Y-123283623D01*
X220162157Y-123554026D01*
X220433443Y-123842158D01*
X220446975Y-123858574D01*
X220498083Y-123920576D01*
X220554941Y-123989556D01*
X220720297Y-124190163D01*
X220900626Y-124408936D01*
X221243947Y-124825451D01*
X221318312Y-124935000D01*
X221972466Y-125898656D01*
X221995221Y-125935886D01*
X222123136Y-126153251D01*
X222212601Y-126338925D01*
X222273508Y-126533040D01*
X222315751Y-126775731D01*
X222349222Y-127107130D01*
X222383814Y-127567371D01*
X222412706Y-128016246D01*
X222426333Y-128397975D01*
X222418713Y-128686585D01*
X222388605Y-128921892D01*
X222387011Y-128928458D01*
X222334773Y-129143715D01*
X222283002Y-129322760D01*
X222213024Y-129565517D01*
X222171713Y-129709817D01*
X222170291Y-129715470D01*
X222185434Y-129776887D01*
X222274739Y-129836845D01*
X222461227Y-129903759D01*
X222767918Y-129986039D01*
X223217834Y-130092098D01*
X223341680Y-130131829D01*
X223430154Y-130232962D01*
X223449739Y-130431278D01*
X223450667Y-130440680D01*
X223399446Y-130714663D01*
X223196667Y-131086770D01*
X223109151Y-131214785D01*
X222989564Y-131422147D01*
X222942667Y-131554435D01*
X222938640Y-131585241D01*
X222890318Y-131759939D01*
X222798846Y-132031509D01*
X222678799Y-132355697D01*
X222611801Y-132526544D01*
X222484888Y-132814553D01*
X222363733Y-133007828D01*
X222215617Y-133152076D01*
X222007822Y-133293003D01*
X221909958Y-133355443D01*
X221702071Y-133518522D01*
X221609959Y-133655667D01*
X221582827Y-133696065D01*
X221503359Y-133951893D01*
X221468626Y-134071383D01*
X221346926Y-134348590D01*
X221205483Y-134546093D01*
X221144495Y-134611929D01*
X221019784Y-134851645D01*
X220946909Y-135211070D01*
X220923847Y-135382733D01*
X220864966Y-135708527D01*
X220780842Y-136035546D01*
X220662678Y-136384383D01*
X220501682Y-136775634D01*
X220289057Y-137229895D01*
X220016008Y-137767760D01*
X219673742Y-138409824D01*
X219253463Y-139176683D01*
X219199578Y-139272953D01*
X219047732Y-139534496D01*
X218924601Y-139734289D01*
X218903679Y-139771560D01*
X218826484Y-139994853D01*
X218757210Y-140310117D01*
X218702643Y-140666142D01*
X218669569Y-141011718D01*
X218664774Y-141295634D01*
X218695043Y-141466681D01*
X218697226Y-141471140D01*
X218742379Y-141633408D01*
X218788364Y-141905302D01*
X218825551Y-142230453D01*
X218836745Y-142360066D01*
X218850117Y-142609665D01*
X218834751Y-142810479D01*
X218778870Y-143012555D01*
X218670702Y-143265940D01*
X218498471Y-143620680D01*
X218389344Y-143846763D01*
X218248757Y-144155239D01*
X218152415Y-144389052D01*
X218116667Y-144510113D01*
X218115806Y-144525881D01*
X218075974Y-144693408D01*
X217995044Y-144916523D01*
X217976012Y-144961635D01*
X217889664Y-145123702D01*
X217789372Y-145164828D01*
X217614044Y-145117188D01*
X217598057Y-145111509D01*
X217425629Y-145033983D01*
X217354667Y-144971052D01*
X217286433Y-144901250D01*
X217121834Y-144811290D01*
X217049995Y-144774299D01*
X216880255Y-144662334D01*
X217354667Y-144662334D01*
X217397000Y-144704667D01*
X217439334Y-144662334D01*
X217397000Y-144620000D01*
X217354667Y-144662334D01*
X216880255Y-144662334D01*
X216818511Y-144621606D01*
X216581971Y-144430789D01*
X216516058Y-144371505D01*
X216276170Y-144156227D01*
X215978277Y-143889347D01*
X215671804Y-143615159D01*
X215548955Y-143503056D01*
X215325125Y-143285149D01*
X215161239Y-143108167D01*
X215068738Y-142988379D01*
X215059065Y-142942053D01*
X215143663Y-142985455D01*
X215333973Y-143134854D01*
X215405244Y-143191874D01*
X215656917Y-143365449D01*
X215930860Y-143525561D01*
X216174346Y-143643027D01*
X216334650Y-143688667D01*
X216348770Y-143690305D01*
X216495265Y-143766834D01*
X216725124Y-143942597D01*
X217010507Y-144196667D01*
X217158169Y-144306971D01*
X217376995Y-144427685D01*
X217539433Y-144527331D01*
X217608667Y-144624233D01*
X217618411Y-144662334D01*
X217620321Y-144669805D01*
X217685094Y-144643787D01*
X217787625Y-144512697D01*
X217906052Y-144306820D01*
X218018514Y-144056443D01*
X218080114Y-143886447D01*
X218164121Y-143611296D01*
X218225233Y-143360216D01*
X218256777Y-143167666D01*
X218252082Y-143068108D01*
X218204475Y-143096000D01*
X218191330Y-143114695D01*
X218113226Y-143180376D01*
X218033297Y-143096000D01*
X218008248Y-143060619D01*
X217961208Y-143044350D01*
X217947334Y-143180667D01*
X217946904Y-143202545D01*
X217926577Y-143318682D01*
X217871954Y-143277461D01*
X217817687Y-143217651D01*
X217741254Y-143256294D01*
X217688999Y-143320957D01*
X217583790Y-143327718D01*
X217455934Y-143175785D01*
X217412959Y-143095291D01*
X217397410Y-142945039D01*
X217477901Y-142739444D01*
X217511492Y-142670783D01*
X217594071Y-142463751D01*
X217584639Y-142361455D01*
X217483617Y-142334000D01*
X217415458Y-142283422D01*
X217367637Y-142109685D01*
X217357272Y-141856968D01*
X217382512Y-141572251D01*
X217441507Y-141302513D01*
X217532409Y-141094732D01*
X217543586Y-141077560D01*
X217649104Y-140889387D01*
X217692776Y-140762181D01*
X217675374Y-140718568D01*
X217543486Y-140611116D01*
X217328061Y-140503202D01*
X217084397Y-140419996D01*
X216867792Y-140386667D01*
X216851540Y-140386404D01*
X216576278Y-140341452D01*
X216183846Y-140225293D01*
X215703667Y-140046525D01*
X215583929Y-140008803D01*
X215329033Y-139946503D01*
X215026334Y-139884866D01*
X214792547Y-139833287D01*
X214582065Y-139766239D01*
X214490112Y-139708052D01*
X214464070Y-139671028D01*
X214332777Y-139624667D01*
X214316782Y-139622094D01*
X214180321Y-139543142D01*
X213974701Y-139376170D01*
X213737865Y-139151367D01*
X213609810Y-139018493D01*
X213424613Y-138803216D01*
X213349180Y-138664450D01*
X213369559Y-138580575D01*
X213435745Y-138532675D01*
X213527026Y-138573217D01*
X213576656Y-138625373D01*
X213735167Y-138718019D01*
X213814568Y-138761787D01*
X213883334Y-138865006D01*
X213872590Y-138900318D01*
X213785585Y-138896915D01*
X213738270Y-138876315D01*
X213748249Y-138934252D01*
X213762867Y-138950551D01*
X213908443Y-139008554D01*
X214133272Y-139032000D01*
X214381449Y-139062779D01*
X214506618Y-139159000D01*
X214564538Y-139230829D01*
X214727343Y-139286000D01*
X214828669Y-139308892D01*
X214899334Y-139404452D01*
X214937739Y-139476829D01*
X215094310Y-139607325D01*
X215327353Y-139747539D01*
X215588821Y-139869561D01*
X215830667Y-139945480D01*
X215881252Y-139954062D01*
X216131016Y-139977463D01*
X216417488Y-139985585D01*
X216653472Y-139968193D01*
X216847409Y-139885861D01*
X217039019Y-139698002D01*
X217119405Y-139610179D01*
X217220987Y-139524434D01*
X217241700Y-139551584D01*
X217242071Y-139649168D01*
X217361002Y-139647542D01*
X217457263Y-139639975D01*
X217524000Y-139695521D01*
X217525550Y-139705436D01*
X217605472Y-139717405D01*
X217777465Y-139641896D01*
X217802637Y-139627244D01*
X217964848Y-139513442D01*
X218031465Y-139430738D01*
X218032763Y-139421239D01*
X218092041Y-139299532D01*
X218212222Y-139120048D01*
X218311275Y-138945694D01*
X218343925Y-138684719D01*
X218232610Y-138469715D01*
X217992871Y-138323778D01*
X217640246Y-138270000D01*
X217588999Y-138266533D01*
X217356227Y-138208681D01*
X217075863Y-138098897D01*
X216800342Y-137962360D01*
X216582102Y-137824251D01*
X216473577Y-137709750D01*
X216467551Y-137541947D01*
X216571629Y-137437106D01*
X216737020Y-137423485D01*
X216912400Y-137522933D01*
X216915389Y-137525885D01*
X217025717Y-137570934D01*
X217168833Y-137480600D01*
X217302362Y-137394285D01*
X217509501Y-137338667D01*
X217621646Y-137315041D01*
X217693334Y-137206345D01*
X217723912Y-137125453D01*
X217875040Y-137100512D01*
X217998521Y-137092326D01*
X218079984Y-136973596D01*
X218080665Y-136901799D01*
X218003560Y-136786385D01*
X217861041Y-136774281D01*
X217712033Y-136880410D01*
X217663778Y-136940948D01*
X217613885Y-136984334D01*
X217636953Y-136894167D01*
X217637951Y-136891240D01*
X217635796Y-136777723D01*
X217500177Y-136747297D01*
X217456055Y-136748185D01*
X217372202Y-136768686D01*
X217439334Y-136830667D01*
X217480072Y-136861931D01*
X217464227Y-136901973D01*
X217296164Y-136914037D01*
X217288837Y-136914041D01*
X217087114Y-136889332D01*
X216973667Y-136830667D01*
X216966886Y-136785824D01*
X217058334Y-136746000D01*
X217122895Y-136733063D01*
X217143000Y-136661334D01*
X217136287Y-136640956D01*
X217214000Y-136587080D01*
X217437654Y-136563746D01*
X217790771Y-136573196D01*
X217943873Y-136564268D01*
X218076875Y-136487993D01*
X218086409Y-136372772D01*
X217976739Y-136260553D01*
X217752133Y-136193287D01*
X217600781Y-136163515D01*
X217380283Y-136082376D01*
X217373864Y-136079053D01*
X217162803Y-136022094D01*
X216880697Y-136001379D01*
X216606172Y-136017751D01*
X216417854Y-136072053D01*
X216370029Y-136134287D01*
X216395316Y-136251702D01*
X216497881Y-136344754D01*
X216632627Y-136354195D01*
X216745421Y-136364979D01*
X216831560Y-136449705D01*
X216821043Y-136545846D01*
X216717222Y-136559673D01*
X216497708Y-136534491D01*
X216212441Y-136479697D01*
X215910175Y-136405996D01*
X215639665Y-136324095D01*
X215449667Y-136244700D01*
X215348272Y-136192360D01*
X215169806Y-136148954D01*
X214993730Y-136205079D01*
X214848049Y-136296763D01*
X214723118Y-136418470D01*
X214657258Y-136474116D01*
X214595544Y-136376098D01*
X214591060Y-136363080D01*
X214592633Y-136165184D01*
X214675427Y-135940439D01*
X214806476Y-135753931D01*
X214952812Y-135670745D01*
X215050254Y-135663848D01*
X215280334Y-135646640D01*
X215348431Y-135644649D01*
X215575954Y-135645130D01*
X215919512Y-135649780D01*
X216346164Y-135658107D01*
X216822970Y-135669622D01*
X216879646Y-135671103D01*
X217387907Y-135682171D01*
X217758900Y-135683581D01*
X218021755Y-135673193D01*
X218205604Y-135648866D01*
X218339576Y-135608458D01*
X218452803Y-135549828D01*
X218584663Y-135449826D01*
X218692640Y-135302428D01*
X218695009Y-135185159D01*
X218579677Y-135137334D01*
X218514436Y-135122964D01*
X218401285Y-135010333D01*
X218352843Y-134944027D01*
X218197272Y-134883334D01*
X218110144Y-134872980D01*
X217998392Y-134812783D01*
X217899168Y-134773914D01*
X217710355Y-134778109D01*
X217618771Y-134789835D01*
X217513852Y-134774438D01*
X217475535Y-134674021D01*
X217473794Y-134446492D01*
X217481667Y-134079000D01*
X217185334Y-134112665D01*
X216897010Y-134142210D01*
X216689067Y-134150576D01*
X216581083Y-134129363D01*
X216536922Y-134076558D01*
X216547061Y-134042821D01*
X216667845Y-133960247D01*
X216883742Y-133878025D01*
X217053105Y-133833887D01*
X217311318Y-133811579D01*
X217569469Y-133868368D01*
X217903731Y-133934845D01*
X218247515Y-133896280D01*
X218509517Y-133748866D01*
X218572441Y-133655667D01*
X220487334Y-133655667D01*
X220529667Y-133698000D01*
X220572000Y-133655667D01*
X220529667Y-133613334D01*
X220487334Y-133655667D01*
X218572441Y-133655667D01*
X218668297Y-133513690D01*
X218702410Y-133211839D01*
X218590415Y-132864397D01*
X218576536Y-132836272D01*
X218491541Y-132620784D01*
X218388348Y-132310423D01*
X218286227Y-131962334D01*
X218206148Y-131680475D01*
X218102795Y-131374235D01*
X218007213Y-131189016D01*
X217903904Y-131097741D01*
X217777371Y-131073334D01*
X217699856Y-131094763D01*
X217541944Y-131224492D01*
X217409951Y-131416821D01*
X217354667Y-131607562D01*
X217354274Y-131615989D01*
X217296228Y-131776764D01*
X217158507Y-132023959D01*
X216968157Y-132317815D01*
X216752223Y-132618576D01*
X216537752Y-132886485D01*
X216351790Y-133081782D01*
X216287990Y-133135908D01*
X216017147Y-133303837D01*
X215682826Y-133411715D01*
X215251007Y-133467680D01*
X214687667Y-133479872D01*
X214431314Y-133467500D01*
X213887787Y-133356312D01*
X213444295Y-133122895D01*
X213090925Y-132758258D01*
X212817764Y-132253406D01*
X212614900Y-131599347D01*
X212568168Y-131427524D01*
X212475505Y-131178169D01*
X212386418Y-131027847D01*
X212321967Y-130975620D01*
X212118789Y-130906744D01*
X211926101Y-130940394D01*
X211809554Y-131071590D01*
X211809055Y-131073137D01*
X211699903Y-131232944D01*
X211514023Y-131382334D01*
X211319988Y-131533792D01*
X211189030Y-131701577D01*
X211174204Y-131732528D01*
X211119155Y-131809519D01*
X211062962Y-131764991D01*
X210974154Y-131581334D01*
X210916167Y-131459054D01*
X210841079Y-131335878D01*
X210733874Y-131207710D01*
X210569939Y-131048843D01*
X210324660Y-130833570D01*
X209973423Y-130536186D01*
X209853660Y-130438334D01*
X211004667Y-130438334D01*
X211047000Y-130480667D01*
X211089334Y-130438334D01*
X211080086Y-130429086D01*
X212033970Y-130429086D01*
X212035620Y-130438334D01*
X212054181Y-130542403D01*
X212083083Y-130541092D01*
X212098650Y-130431278D01*
X212085092Y-130348055D01*
X212047497Y-130380125D01*
X212033970Y-130429086D01*
X211080086Y-130429086D01*
X211047000Y-130396000D01*
X211004667Y-130438334D01*
X209853660Y-130438334D01*
X209809576Y-130402315D01*
X209568453Y-130234749D01*
X209366989Y-130151294D01*
X209155083Y-130126893D01*
X208817655Y-130122236D01*
X208797025Y-129865158D01*
X212306163Y-129865158D01*
X212396221Y-129884319D01*
X212621815Y-129861120D01*
X213099928Y-129785478D01*
X213530065Y-129689067D01*
X213820193Y-129581843D01*
X213986283Y-129459098D01*
X214121481Y-129350189D01*
X214409616Y-129284445D01*
X214418026Y-129284491D01*
X214715749Y-129301635D01*
X215119864Y-129344276D01*
X215572935Y-129404773D01*
X216017526Y-129475482D01*
X216396201Y-129548763D01*
X216487694Y-129569671D01*
X216702721Y-129634834D01*
X216795769Y-129708390D01*
X216802375Y-129813503D01*
X216799389Y-129829926D01*
X216812542Y-129939157D01*
X216935341Y-129929062D01*
X217034967Y-129914947D01*
X217100667Y-129966961D01*
X217171882Y-130012893D01*
X217395872Y-130041700D01*
X217756834Y-130047512D01*
X217814665Y-130046565D01*
X218236949Y-130031820D01*
X218513104Y-130003253D01*
X218663706Y-129957485D01*
X218709334Y-129891137D01*
X218729076Y-129863397D01*
X218865988Y-129789111D01*
X219090334Y-129709528D01*
X219211217Y-129670401D01*
X219397815Y-129591521D01*
X219471334Y-129530849D01*
X219471443Y-129528924D01*
X219550095Y-129483476D01*
X219730900Y-129464667D01*
X219740062Y-129464622D01*
X220131405Y-129381815D01*
X220464420Y-129161009D01*
X220540590Y-129057375D01*
X220567000Y-128928458D01*
X220495260Y-128872000D01*
X220458053Y-128837675D01*
X220462802Y-128702667D01*
X220471739Y-128597296D01*
X220394790Y-128545219D01*
X220189042Y-128533334D01*
X220021127Y-128521685D01*
X219836210Y-128448757D01*
X219680134Y-128280118D01*
X219512627Y-127983000D01*
X219497221Y-127953772D01*
X219368630Y-127744124D01*
X219178330Y-127463788D01*
X218961544Y-127165040D01*
X218818433Y-126980831D01*
X218569638Y-126708991D01*
X218306955Y-126505847D01*
X217968171Y-126318374D01*
X217943128Y-126305899D01*
X217646258Y-126151263D01*
X217400050Y-126011736D01*
X217255614Y-125916166D01*
X217134089Y-125835462D01*
X216832409Y-125707679D01*
X216388254Y-125578769D01*
X215788334Y-125444459D01*
X215211989Y-125315283D01*
X214755493Y-125181845D01*
X214432692Y-125044242D01*
X214279855Y-124935000D01*
X214476000Y-124935000D01*
X214518334Y-124977334D01*
X214560667Y-124935000D01*
X214518334Y-124892667D01*
X214476000Y-124935000D01*
X214279855Y-124935000D01*
X214225442Y-124896108D01*
X214078225Y-124793615D01*
X213936152Y-124773359D01*
X213875453Y-124784406D01*
X213759901Y-124729106D01*
X213751205Y-124680891D01*
X213841000Y-124638667D01*
X213905562Y-124625729D01*
X213925667Y-124554000D01*
X213875917Y-124516664D01*
X216254000Y-124516664D01*
X216254825Y-124528500D01*
X216303835Y-124547145D01*
X216389085Y-124456252D01*
X216409686Y-124408936D01*
X216351749Y-124418915D01*
X216314137Y-124445051D01*
X216254000Y-124516664D01*
X213875917Y-124516664D01*
X213858683Y-124503730D01*
X213687837Y-124468037D01*
X213652023Y-124467385D01*
X213563268Y-124447719D01*
X213626882Y-124387974D01*
X213685806Y-124343337D01*
X213709939Y-124271889D01*
X213614096Y-124250681D01*
X213430677Y-124295054D01*
X213361190Y-124317756D01*
X213100358Y-124376886D01*
X212805101Y-124419322D01*
X212673290Y-124432373D01*
X212461559Y-124453566D01*
X212359334Y-124464144D01*
X212354245Y-124479223D01*
X212344486Y-124624766D01*
X212338335Y-124905045D01*
X212335999Y-125295673D01*
X212337687Y-125772262D01*
X212343606Y-126310423D01*
X212348880Y-126646096D01*
X212360529Y-127189133D01*
X212375212Y-127593199D01*
X212394538Y-127878423D01*
X212420116Y-128064935D01*
X212453556Y-128172866D01*
X212496468Y-128222346D01*
X212558608Y-128275512D01*
X212545591Y-128392001D01*
X212472289Y-128521830D01*
X212422414Y-128679833D01*
X212415123Y-128798188D01*
X212461853Y-128818634D01*
X212499590Y-128827940D01*
X212517915Y-128948681D01*
X212502795Y-129152376D01*
X212460864Y-129392368D01*
X212398755Y-129621998D01*
X212323101Y-129794608D01*
X212321646Y-129796958D01*
X212306163Y-129865158D01*
X208797025Y-129865158D01*
X208752204Y-129306618D01*
X208748067Y-129254700D01*
X208694797Y-128452064D01*
X208678351Y-127788630D01*
X208704761Y-127238539D01*
X208780059Y-126775933D01*
X208910278Y-126374954D01*
X209101450Y-126009745D01*
X209359606Y-125654447D01*
X209690779Y-125283202D01*
X209899098Y-125056851D01*
X210120617Y-124795003D01*
X210271557Y-124590398D01*
X210327334Y-124474278D01*
X210349308Y-124364809D01*
X210435557Y-124188660D01*
X216218472Y-124188660D01*
X216338667Y-124201965D01*
X216455137Y-124190163D01*
X216444500Y-124159260D01*
X216406176Y-124148078D01*
X216232834Y-124159260D01*
X216218472Y-124188660D01*
X210435557Y-124188660D01*
X210473968Y-124110212D01*
X210538494Y-124015022D01*
X217284977Y-124015022D01*
X217354667Y-124046000D01*
X217399489Y-124039890D01*
X217411112Y-123989556D01*
X217398702Y-123979423D01*
X217298223Y-123989556D01*
X217284977Y-124015022D01*
X210538494Y-124015022D01*
X210632280Y-123876667D01*
X216508000Y-123876667D01*
X216513289Y-123891911D01*
X216621542Y-123938408D01*
X216825500Y-123952894D01*
X216853153Y-123952130D01*
X217027875Y-123942278D01*
X217049143Y-123920576D01*
X216931334Y-123876667D01*
X216731084Y-123820720D01*
X216560668Y-123808889D01*
X216508000Y-123876667D01*
X210632280Y-123876667D01*
X210689822Y-123791780D01*
X210815722Y-123636669D01*
X217102383Y-123636669D01*
X217106220Y-123674213D01*
X217270000Y-123749667D01*
X217402056Y-123796791D01*
X217596678Y-123849536D01*
X217706486Y-123858574D01*
X217705149Y-123824174D01*
X217566334Y-123746609D01*
X217339507Y-123665859D01*
X217143000Y-123632927D01*
X217102383Y-123636669D01*
X210815722Y-123636669D01*
X210975121Y-123440288D01*
X211308114Y-123086510D01*
X211318000Y-123076791D01*
X211345207Y-123054012D01*
X216255612Y-123054012D01*
X216304410Y-123082580D01*
X216508000Y-123153922D01*
X216564909Y-123172982D01*
X216792628Y-123246562D01*
X216922329Y-123272760D01*
X217007259Y-123255658D01*
X217100667Y-123199334D01*
X217141085Y-123168652D01*
X217128172Y-123128111D01*
X216963084Y-123115963D01*
X216704774Y-123103102D01*
X216412750Y-123070540D01*
X216354348Y-123061864D01*
X216255612Y-123054012D01*
X211345207Y-123054012D01*
X211840694Y-122639172D01*
X215207674Y-122639172D01*
X215220405Y-122665676D01*
X215365000Y-122674828D01*
X215391293Y-122674269D01*
X215503750Y-122659611D01*
X215469222Y-122632660D01*
X215383302Y-122619049D01*
X215215222Y-122635798D01*
X215207674Y-122639172D01*
X211840694Y-122639172D01*
X211909673Y-122581420D01*
X216088801Y-122581420D01*
X216173567Y-122597600D01*
X216329122Y-122621643D01*
X216411563Y-122659611D01*
X216469900Y-122686478D01*
X216492926Y-122704192D01*
X216655427Y-122778553D01*
X216889000Y-122850061D01*
X216946209Y-122864242D01*
X217205286Y-122929089D01*
X217397000Y-122977981D01*
X217515067Y-122990948D01*
X217735667Y-122953926D01*
X217823604Y-122916155D01*
X217846209Y-122874934D01*
X217713271Y-122824765D01*
X217601727Y-122763512D01*
X217578186Y-122672156D01*
X217595581Y-122628652D01*
X217530576Y-122644936D01*
X217482480Y-122657683D01*
X217297351Y-122639397D01*
X217055312Y-122567680D01*
X216916118Y-122519103D01*
X216628387Y-122469126D01*
X216320985Y-122507261D01*
X216166614Y-122545497D01*
X216088801Y-122581420D01*
X211909673Y-122581420D01*
X211963083Y-122536703D01*
X212602465Y-122141000D01*
X215153334Y-122141000D01*
X215195667Y-122183334D01*
X215238000Y-122141000D01*
X215195667Y-122098667D01*
X215153334Y-122141000D01*
X212602465Y-122141000D01*
X212689415Y-122087188D01*
X213437111Y-121765407D01*
X213556107Y-121728299D01*
X213981214Y-121624268D01*
X214440694Y-121545539D01*
X214885387Y-121497891D01*
X215266133Y-121487103D01*
X215533775Y-121518952D01*
X215760241Y-121566094D01*
X216028631Y-121590667D01*
X216309184Y-121623260D01*
X216741289Y-121733223D01*
X217270967Y-121912330D01*
X217845414Y-122141000D01*
X217872517Y-122151789D01*
X218520238Y-122442812D01*
X218664430Y-122511535D01*
X219077361Y-122716893D01*
X219355820Y-122874934D01*
X219390184Y-122894438D01*
X219646314Y-123073554D01*
G37*
X219646314Y-123073554D02*
X219756254Y-123168652D01*
X219889167Y-123283623D01*
X220162157Y-123554026D01*
X220433443Y-123842158D01*
X220446975Y-123858574D01*
X220498083Y-123920576D01*
X220554941Y-123989556D01*
X220720297Y-124190163D01*
X220900626Y-124408936D01*
X221243947Y-124825451D01*
X221318312Y-124935000D01*
X221972466Y-125898656D01*
X221995221Y-125935886D01*
X222123136Y-126153251D01*
X222212601Y-126338925D01*
X222273508Y-126533040D01*
X222315751Y-126775731D01*
X222349222Y-127107130D01*
X222383814Y-127567371D01*
X222412706Y-128016246D01*
X222426333Y-128397975D01*
X222418713Y-128686585D01*
X222388605Y-128921892D01*
X222387011Y-128928458D01*
X222334773Y-129143715D01*
X222283002Y-129322760D01*
X222213024Y-129565517D01*
X222171713Y-129709817D01*
X222170291Y-129715470D01*
X222185434Y-129776887D01*
X222274739Y-129836845D01*
X222461227Y-129903759D01*
X222767918Y-129986039D01*
X223217834Y-130092098D01*
X223341680Y-130131829D01*
X223430154Y-130232962D01*
X223449739Y-130431278D01*
X223450667Y-130440680D01*
X223399446Y-130714663D01*
X223196667Y-131086770D01*
X223109151Y-131214785D01*
X222989564Y-131422147D01*
X222942667Y-131554435D01*
X222938640Y-131585241D01*
X222890318Y-131759939D01*
X222798846Y-132031509D01*
X222678799Y-132355697D01*
X222611801Y-132526544D01*
X222484888Y-132814553D01*
X222363733Y-133007828D01*
X222215617Y-133152076D01*
X222007822Y-133293003D01*
X221909958Y-133355443D01*
X221702071Y-133518522D01*
X221609959Y-133655667D01*
X221582827Y-133696065D01*
X221503359Y-133951893D01*
X221468626Y-134071383D01*
X221346926Y-134348590D01*
X221205483Y-134546093D01*
X221144495Y-134611929D01*
X221019784Y-134851645D01*
X220946909Y-135211070D01*
X220923847Y-135382733D01*
X220864966Y-135708527D01*
X220780842Y-136035546D01*
X220662678Y-136384383D01*
X220501682Y-136775634D01*
X220289057Y-137229895D01*
X220016008Y-137767760D01*
X219673742Y-138409824D01*
X219253463Y-139176683D01*
X219199578Y-139272953D01*
X219047732Y-139534496D01*
X218924601Y-139734289D01*
X218903679Y-139771560D01*
X218826484Y-139994853D01*
X218757210Y-140310117D01*
X218702643Y-140666142D01*
X218669569Y-141011718D01*
X218664774Y-141295634D01*
X218695043Y-141466681D01*
X218697226Y-141471140D01*
X218742379Y-141633408D01*
X218788364Y-141905302D01*
X218825551Y-142230453D01*
X218836745Y-142360066D01*
X218850117Y-142609665D01*
X218834751Y-142810479D01*
X218778870Y-143012555D01*
X218670702Y-143265940D01*
X218498471Y-143620680D01*
X218389344Y-143846763D01*
X218248757Y-144155239D01*
X218152415Y-144389052D01*
X218116667Y-144510113D01*
X218115806Y-144525881D01*
X218075974Y-144693408D01*
X217995044Y-144916523D01*
X217976012Y-144961635D01*
X217889664Y-145123702D01*
X217789372Y-145164828D01*
X217614044Y-145117188D01*
X217598057Y-145111509D01*
X217425629Y-145033983D01*
X217354667Y-144971052D01*
X217286433Y-144901250D01*
X217121834Y-144811290D01*
X217049995Y-144774299D01*
X216880255Y-144662334D01*
X217354667Y-144662334D01*
X217397000Y-144704667D01*
X217439334Y-144662334D01*
X217397000Y-144620000D01*
X217354667Y-144662334D01*
X216880255Y-144662334D01*
X216818511Y-144621606D01*
X216581971Y-144430789D01*
X216516058Y-144371505D01*
X216276170Y-144156227D01*
X215978277Y-143889347D01*
X215671804Y-143615159D01*
X215548955Y-143503056D01*
X215325125Y-143285149D01*
X215161239Y-143108167D01*
X215068738Y-142988379D01*
X215059065Y-142942053D01*
X215143663Y-142985455D01*
X215333973Y-143134854D01*
X215405244Y-143191874D01*
X215656917Y-143365449D01*
X215930860Y-143525561D01*
X216174346Y-143643027D01*
X216334650Y-143688667D01*
X216348770Y-143690305D01*
X216495265Y-143766834D01*
X216725124Y-143942597D01*
X217010507Y-144196667D01*
X217158169Y-144306971D01*
X217376995Y-144427685D01*
X217539433Y-144527331D01*
X217608667Y-144624233D01*
X217618411Y-144662334D01*
X217620321Y-144669805D01*
X217685094Y-144643787D01*
X217787625Y-144512697D01*
X217906052Y-144306820D01*
X218018514Y-144056443D01*
X218080114Y-143886447D01*
X218164121Y-143611296D01*
X218225233Y-143360216D01*
X218256777Y-143167666D01*
X218252082Y-143068108D01*
X218204475Y-143096000D01*
X218191330Y-143114695D01*
X218113226Y-143180376D01*
X218033297Y-143096000D01*
X218008248Y-143060619D01*
X217961208Y-143044350D01*
X217947334Y-143180667D01*
X217946904Y-143202545D01*
X217926577Y-143318682D01*
X217871954Y-143277461D01*
X217817687Y-143217651D01*
X217741254Y-143256294D01*
X217688999Y-143320957D01*
X217583790Y-143327718D01*
X217455934Y-143175785D01*
X217412959Y-143095291D01*
X217397410Y-142945039D01*
X217477901Y-142739444D01*
X217511492Y-142670783D01*
X217594071Y-142463751D01*
X217584639Y-142361455D01*
X217483617Y-142334000D01*
X217415458Y-142283422D01*
X217367637Y-142109685D01*
X217357272Y-141856968D01*
X217382512Y-141572251D01*
X217441507Y-141302513D01*
X217532409Y-141094732D01*
X217543586Y-141077560D01*
X217649104Y-140889387D01*
X217692776Y-140762181D01*
X217675374Y-140718568D01*
X217543486Y-140611116D01*
X217328061Y-140503202D01*
X217084397Y-140419996D01*
X216867792Y-140386667D01*
X216851540Y-140386404D01*
X216576278Y-140341452D01*
X216183846Y-140225293D01*
X215703667Y-140046525D01*
X215583929Y-140008803D01*
X215329033Y-139946503D01*
X215026334Y-139884866D01*
X214792547Y-139833287D01*
X214582065Y-139766239D01*
X214490112Y-139708052D01*
X214464070Y-139671028D01*
X214332777Y-139624667D01*
X214316782Y-139622094D01*
X214180321Y-139543142D01*
X213974701Y-139376170D01*
X213737865Y-139151367D01*
X213609810Y-139018493D01*
X213424613Y-138803216D01*
X213349180Y-138664450D01*
X213369559Y-138580575D01*
X213435745Y-138532675D01*
X213527026Y-138573217D01*
X213576656Y-138625373D01*
X213735167Y-138718019D01*
X213814568Y-138761787D01*
X213883334Y-138865006D01*
X213872590Y-138900318D01*
X213785585Y-138896915D01*
X213738270Y-138876315D01*
X213748249Y-138934252D01*
X213762867Y-138950551D01*
X213908443Y-139008554D01*
X214133272Y-139032000D01*
X214381449Y-139062779D01*
X214506618Y-139159000D01*
X214564538Y-139230829D01*
X214727343Y-139286000D01*
X214828669Y-139308892D01*
X214899334Y-139404452D01*
X214937739Y-139476829D01*
X215094310Y-139607325D01*
X215327353Y-139747539D01*
X215588821Y-139869561D01*
X215830667Y-139945480D01*
X215881252Y-139954062D01*
X216131016Y-139977463D01*
X216417488Y-139985585D01*
X216653472Y-139968193D01*
X216847409Y-139885861D01*
X217039019Y-139698002D01*
X217119405Y-139610179D01*
X217220987Y-139524434D01*
X217241700Y-139551584D01*
X217242071Y-139649168D01*
X217361002Y-139647542D01*
X217457263Y-139639975D01*
X217524000Y-139695521D01*
X217525550Y-139705436D01*
X217605472Y-139717405D01*
X217777465Y-139641896D01*
X217802637Y-139627244D01*
X217964848Y-139513442D01*
X218031465Y-139430738D01*
X218032763Y-139421239D01*
X218092041Y-139299532D01*
X218212222Y-139120048D01*
X218311275Y-138945694D01*
X218343925Y-138684719D01*
X218232610Y-138469715D01*
X217992871Y-138323778D01*
X217640246Y-138270000D01*
X217588999Y-138266533D01*
X217356227Y-138208681D01*
X217075863Y-138098897D01*
X216800342Y-137962360D01*
X216582102Y-137824251D01*
X216473577Y-137709750D01*
X216467551Y-137541947D01*
X216571629Y-137437106D01*
X216737020Y-137423485D01*
X216912400Y-137522933D01*
X216915389Y-137525885D01*
X217025717Y-137570934D01*
X217168833Y-137480600D01*
X217302362Y-137394285D01*
X217509501Y-137338667D01*
X217621646Y-137315041D01*
X217693334Y-137206345D01*
X217723912Y-137125453D01*
X217875040Y-137100512D01*
X217998521Y-137092326D01*
X218079984Y-136973596D01*
X218080665Y-136901799D01*
X218003560Y-136786385D01*
X217861041Y-136774281D01*
X217712033Y-136880410D01*
X217663778Y-136940948D01*
X217613885Y-136984334D01*
X217636953Y-136894167D01*
X217637951Y-136891240D01*
X217635796Y-136777723D01*
X217500177Y-136747297D01*
X217456055Y-136748185D01*
X217372202Y-136768686D01*
X217439334Y-136830667D01*
X217480072Y-136861931D01*
X217464227Y-136901973D01*
X217296164Y-136914037D01*
X217288837Y-136914041D01*
X217087114Y-136889332D01*
X216973667Y-136830667D01*
X216966886Y-136785824D01*
X217058334Y-136746000D01*
X217122895Y-136733063D01*
X217143000Y-136661334D01*
X217136287Y-136640956D01*
X217214000Y-136587080D01*
X217437654Y-136563746D01*
X217790771Y-136573196D01*
X217943873Y-136564268D01*
X218076875Y-136487993D01*
X218086409Y-136372772D01*
X217976739Y-136260553D01*
X217752133Y-136193287D01*
X217600781Y-136163515D01*
X217380283Y-136082376D01*
X217373864Y-136079053D01*
X217162803Y-136022094D01*
X216880697Y-136001379D01*
X216606172Y-136017751D01*
X216417854Y-136072053D01*
X216370029Y-136134287D01*
X216395316Y-136251702D01*
X216497881Y-136344754D01*
X216632627Y-136354195D01*
X216745421Y-136364979D01*
X216831560Y-136449705D01*
X216821043Y-136545846D01*
X216717222Y-136559673D01*
X216497708Y-136534491D01*
X216212441Y-136479697D01*
X215910175Y-136405996D01*
X215639665Y-136324095D01*
X215449667Y-136244700D01*
X215348272Y-136192360D01*
X215169806Y-136148954D01*
X214993730Y-136205079D01*
X214848049Y-136296763D01*
X214723118Y-136418470D01*
X214657258Y-136474116D01*
X214595544Y-136376098D01*
X214591060Y-136363080D01*
X214592633Y-136165184D01*
X214675427Y-135940439D01*
X214806476Y-135753931D01*
X214952812Y-135670745D01*
X215050254Y-135663848D01*
X215280334Y-135646640D01*
X215348431Y-135644649D01*
X215575954Y-135645130D01*
X215919512Y-135649780D01*
X216346164Y-135658107D01*
X216822970Y-135669622D01*
X216879646Y-135671103D01*
X217387907Y-135682171D01*
X217758900Y-135683581D01*
X218021755Y-135673193D01*
X218205604Y-135648866D01*
X218339576Y-135608458D01*
X218452803Y-135549828D01*
X218584663Y-135449826D01*
X218692640Y-135302428D01*
X218695009Y-135185159D01*
X218579677Y-135137334D01*
X218514436Y-135122964D01*
X218401285Y-135010333D01*
X218352843Y-134944027D01*
X218197272Y-134883334D01*
X218110144Y-134872980D01*
X217998392Y-134812783D01*
X217899168Y-134773914D01*
X217710355Y-134778109D01*
X217618771Y-134789835D01*
X217513852Y-134774438D01*
X217475535Y-134674021D01*
X217473794Y-134446492D01*
X217481667Y-134079000D01*
X217185334Y-134112665D01*
X216897010Y-134142210D01*
X216689067Y-134150576D01*
X216581083Y-134129363D01*
X216536922Y-134076558D01*
X216547061Y-134042821D01*
X216667845Y-133960247D01*
X216883742Y-133878025D01*
X217053105Y-133833887D01*
X217311318Y-133811579D01*
X217569469Y-133868368D01*
X217903731Y-133934845D01*
X218247515Y-133896280D01*
X218509517Y-133748866D01*
X218572441Y-133655667D01*
X220487334Y-133655667D01*
X220529667Y-133698000D01*
X220572000Y-133655667D01*
X220529667Y-133613334D01*
X220487334Y-133655667D01*
X218572441Y-133655667D01*
X218668297Y-133513690D01*
X218702410Y-133211839D01*
X218590415Y-132864397D01*
X218576536Y-132836272D01*
X218491541Y-132620784D01*
X218388348Y-132310423D01*
X218286227Y-131962334D01*
X218206148Y-131680475D01*
X218102795Y-131374235D01*
X218007213Y-131189016D01*
X217903904Y-131097741D01*
X217777371Y-131073334D01*
X217699856Y-131094763D01*
X217541944Y-131224492D01*
X217409951Y-131416821D01*
X217354667Y-131607562D01*
X217354274Y-131615989D01*
X217296228Y-131776764D01*
X217158507Y-132023959D01*
X216968157Y-132317815D01*
X216752223Y-132618576D01*
X216537752Y-132886485D01*
X216351790Y-133081782D01*
X216287990Y-133135908D01*
X216017147Y-133303837D01*
X215682826Y-133411715D01*
X215251007Y-133467680D01*
X214687667Y-133479872D01*
X214431314Y-133467500D01*
X213887787Y-133356312D01*
X213444295Y-133122895D01*
X213090925Y-132758258D01*
X212817764Y-132253406D01*
X212614900Y-131599347D01*
X212568168Y-131427524D01*
X212475505Y-131178169D01*
X212386418Y-131027847D01*
X212321967Y-130975620D01*
X212118789Y-130906744D01*
X211926101Y-130940394D01*
X211809554Y-131071590D01*
X211809055Y-131073137D01*
X211699903Y-131232944D01*
X211514023Y-131382334D01*
X211319988Y-131533792D01*
X211189030Y-131701577D01*
X211174204Y-131732528D01*
X211119155Y-131809519D01*
X211062962Y-131764991D01*
X210974154Y-131581334D01*
X210916167Y-131459054D01*
X210841079Y-131335878D01*
X210733874Y-131207710D01*
X210569939Y-131048843D01*
X210324660Y-130833570D01*
X209973423Y-130536186D01*
X209853660Y-130438334D01*
X211004667Y-130438334D01*
X211047000Y-130480667D01*
X211089334Y-130438334D01*
X211080086Y-130429086D01*
X212033970Y-130429086D01*
X212035620Y-130438334D01*
X212054181Y-130542403D01*
X212083083Y-130541092D01*
X212098650Y-130431278D01*
X212085092Y-130348055D01*
X212047497Y-130380125D01*
X212033970Y-130429086D01*
X211080086Y-130429086D01*
X211047000Y-130396000D01*
X211004667Y-130438334D01*
X209853660Y-130438334D01*
X209809576Y-130402315D01*
X209568453Y-130234749D01*
X209366989Y-130151294D01*
X209155083Y-130126893D01*
X208817655Y-130122236D01*
X208797025Y-129865158D01*
X212306163Y-129865158D01*
X212396221Y-129884319D01*
X212621815Y-129861120D01*
X213099928Y-129785478D01*
X213530065Y-129689067D01*
X213820193Y-129581843D01*
X213986283Y-129459098D01*
X214121481Y-129350189D01*
X214409616Y-129284445D01*
X214418026Y-129284491D01*
X214715749Y-129301635D01*
X215119864Y-129344276D01*
X215572935Y-129404773D01*
X216017526Y-129475482D01*
X216396201Y-129548763D01*
X216487694Y-129569671D01*
X216702721Y-129634834D01*
X216795769Y-129708390D01*
X216802375Y-129813503D01*
X216799389Y-129829926D01*
X216812542Y-129939157D01*
X216935341Y-129929062D01*
X217034967Y-129914947D01*
X217100667Y-129966961D01*
X217171882Y-130012893D01*
X217395872Y-130041700D01*
X217756834Y-130047512D01*
X217814665Y-130046565D01*
X218236949Y-130031820D01*
X218513104Y-130003253D01*
X218663706Y-129957485D01*
X218709334Y-129891137D01*
X218729076Y-129863397D01*
X218865988Y-129789111D01*
X219090334Y-129709528D01*
X219211217Y-129670401D01*
X219397815Y-129591521D01*
X219471334Y-129530849D01*
X219471443Y-129528924D01*
X219550095Y-129483476D01*
X219730900Y-129464667D01*
X219740062Y-129464622D01*
X220131405Y-129381815D01*
X220464420Y-129161009D01*
X220540590Y-129057375D01*
X220567000Y-128928458D01*
X220495260Y-128872000D01*
X220458053Y-128837675D01*
X220462802Y-128702667D01*
X220471739Y-128597296D01*
X220394790Y-128545219D01*
X220189042Y-128533334D01*
X220021127Y-128521685D01*
X219836210Y-128448757D01*
X219680134Y-128280118D01*
X219512627Y-127983000D01*
X219497221Y-127953772D01*
X219368630Y-127744124D01*
X219178330Y-127463788D01*
X218961544Y-127165040D01*
X218818433Y-126980831D01*
X218569638Y-126708991D01*
X218306955Y-126505847D01*
X217968171Y-126318374D01*
X217943128Y-126305899D01*
X217646258Y-126151263D01*
X217400050Y-126011736D01*
X217255614Y-125916166D01*
X217134089Y-125835462D01*
X216832409Y-125707679D01*
X216388254Y-125578769D01*
X215788334Y-125444459D01*
X215211989Y-125315283D01*
X214755493Y-125181845D01*
X214432692Y-125044242D01*
X214279855Y-124935000D01*
X214476000Y-124935000D01*
X214518334Y-124977334D01*
X214560667Y-124935000D01*
X214518334Y-124892667D01*
X214476000Y-124935000D01*
X214279855Y-124935000D01*
X214225442Y-124896108D01*
X214078225Y-124793615D01*
X213936152Y-124773359D01*
X213875453Y-124784406D01*
X213759901Y-124729106D01*
X213751205Y-124680891D01*
X213841000Y-124638667D01*
X213905562Y-124625729D01*
X213925667Y-124554000D01*
X213875917Y-124516664D01*
X216254000Y-124516664D01*
X216254825Y-124528500D01*
X216303835Y-124547145D01*
X216389085Y-124456252D01*
X216409686Y-124408936D01*
X216351749Y-124418915D01*
X216314137Y-124445051D01*
X216254000Y-124516664D01*
X213875917Y-124516664D01*
X213858683Y-124503730D01*
X213687837Y-124468037D01*
X213652023Y-124467385D01*
X213563268Y-124447719D01*
X213626882Y-124387974D01*
X213685806Y-124343337D01*
X213709939Y-124271889D01*
X213614096Y-124250681D01*
X213430677Y-124295054D01*
X213361190Y-124317756D01*
X213100358Y-124376886D01*
X212805101Y-124419322D01*
X212673290Y-124432373D01*
X212461559Y-124453566D01*
X212359334Y-124464144D01*
X212354245Y-124479223D01*
X212344486Y-124624766D01*
X212338335Y-124905045D01*
X212335999Y-125295673D01*
X212337687Y-125772262D01*
X212343606Y-126310423D01*
X212348880Y-126646096D01*
X212360529Y-127189133D01*
X212375212Y-127593199D01*
X212394538Y-127878423D01*
X212420116Y-128064935D01*
X212453556Y-128172866D01*
X212496468Y-128222346D01*
X212558608Y-128275512D01*
X212545591Y-128392001D01*
X212472289Y-128521830D01*
X212422414Y-128679833D01*
X212415123Y-128798188D01*
X212461853Y-128818634D01*
X212499590Y-128827940D01*
X212517915Y-128948681D01*
X212502795Y-129152376D01*
X212460864Y-129392368D01*
X212398755Y-129621998D01*
X212323101Y-129794608D01*
X212321646Y-129796958D01*
X212306163Y-129865158D01*
X208797025Y-129865158D01*
X208752204Y-129306618D01*
X208748067Y-129254700D01*
X208694797Y-128452064D01*
X208678351Y-127788630D01*
X208704761Y-127238539D01*
X208780059Y-126775933D01*
X208910278Y-126374954D01*
X209101450Y-126009745D01*
X209359606Y-125654447D01*
X209690779Y-125283202D01*
X209899098Y-125056851D01*
X210120617Y-124795003D01*
X210271557Y-124590398D01*
X210327334Y-124474278D01*
X210349308Y-124364809D01*
X210435557Y-124188660D01*
X216218472Y-124188660D01*
X216338667Y-124201965D01*
X216455137Y-124190163D01*
X216444500Y-124159260D01*
X216406176Y-124148078D01*
X216232834Y-124159260D01*
X216218472Y-124188660D01*
X210435557Y-124188660D01*
X210473968Y-124110212D01*
X210538494Y-124015022D01*
X217284977Y-124015022D01*
X217354667Y-124046000D01*
X217399489Y-124039890D01*
X217411112Y-123989556D01*
X217398702Y-123979423D01*
X217298223Y-123989556D01*
X217284977Y-124015022D01*
X210538494Y-124015022D01*
X210632280Y-123876667D01*
X216508000Y-123876667D01*
X216513289Y-123891911D01*
X216621542Y-123938408D01*
X216825500Y-123952894D01*
X216853153Y-123952130D01*
X217027875Y-123942278D01*
X217049143Y-123920576D01*
X216931334Y-123876667D01*
X216731084Y-123820720D01*
X216560668Y-123808889D01*
X216508000Y-123876667D01*
X210632280Y-123876667D01*
X210689822Y-123791780D01*
X210815722Y-123636669D01*
X217102383Y-123636669D01*
X217106220Y-123674213D01*
X217270000Y-123749667D01*
X217402056Y-123796791D01*
X217596678Y-123849536D01*
X217706486Y-123858574D01*
X217705149Y-123824174D01*
X217566334Y-123746609D01*
X217339507Y-123665859D01*
X217143000Y-123632927D01*
X217102383Y-123636669D01*
X210815722Y-123636669D01*
X210975121Y-123440288D01*
X211308114Y-123086510D01*
X211318000Y-123076791D01*
X211345207Y-123054012D01*
X216255612Y-123054012D01*
X216304410Y-123082580D01*
X216508000Y-123153922D01*
X216564909Y-123172982D01*
X216792628Y-123246562D01*
X216922329Y-123272760D01*
X217007259Y-123255658D01*
X217100667Y-123199334D01*
X217141085Y-123168652D01*
X217128172Y-123128111D01*
X216963084Y-123115963D01*
X216704774Y-123103102D01*
X216412750Y-123070540D01*
X216354348Y-123061864D01*
X216255612Y-123054012D01*
X211345207Y-123054012D01*
X211840694Y-122639172D01*
X215207674Y-122639172D01*
X215220405Y-122665676D01*
X215365000Y-122674828D01*
X215391293Y-122674269D01*
X215503750Y-122659611D01*
X215469222Y-122632660D01*
X215383302Y-122619049D01*
X215215222Y-122635798D01*
X215207674Y-122639172D01*
X211840694Y-122639172D01*
X211909673Y-122581420D01*
X216088801Y-122581420D01*
X216173567Y-122597600D01*
X216329122Y-122621643D01*
X216411563Y-122659611D01*
X216469900Y-122686478D01*
X216492926Y-122704192D01*
X216655427Y-122778553D01*
X216889000Y-122850061D01*
X216946209Y-122864242D01*
X217205286Y-122929089D01*
X217397000Y-122977981D01*
X217515067Y-122990948D01*
X217735667Y-122953926D01*
X217823604Y-122916155D01*
X217846209Y-122874934D01*
X217713271Y-122824765D01*
X217601727Y-122763512D01*
X217578186Y-122672156D01*
X217595581Y-122628652D01*
X217530576Y-122644936D01*
X217482480Y-122657683D01*
X217297351Y-122639397D01*
X217055312Y-122567680D01*
X216916118Y-122519103D01*
X216628387Y-122469126D01*
X216320985Y-122507261D01*
X216166614Y-122545497D01*
X216088801Y-122581420D01*
X211909673Y-122581420D01*
X211963083Y-122536703D01*
X212602465Y-122141000D01*
X215153334Y-122141000D01*
X215195667Y-122183334D01*
X215238000Y-122141000D01*
X215195667Y-122098667D01*
X215153334Y-122141000D01*
X212602465Y-122141000D01*
X212689415Y-122087188D01*
X213437111Y-121765407D01*
X213556107Y-121728299D01*
X213981214Y-121624268D01*
X214440694Y-121545539D01*
X214885387Y-121497891D01*
X215266133Y-121487103D01*
X215533775Y-121518952D01*
X215760241Y-121566094D01*
X216028631Y-121590667D01*
X216309184Y-121623260D01*
X216741289Y-121733223D01*
X217270967Y-121912330D01*
X217845414Y-122141000D01*
X217872517Y-122151789D01*
X218520238Y-122442812D01*
X218664430Y-122511535D01*
X219077361Y-122716893D01*
X219355820Y-122874934D01*
X219390184Y-122894438D01*
X219646314Y-123073554D01*
G36*
X213177778Y-138213556D02*
G01*
X213191024Y-138239022D01*
X213121334Y-138270000D01*
X213076512Y-138263890D01*
X213064889Y-138213556D01*
X213077299Y-138203423D01*
X213177778Y-138213556D01*
G37*
X213177778Y-138213556D02*
X213191024Y-138239022D01*
X213121334Y-138270000D01*
X213076512Y-138263890D01*
X213064889Y-138213556D01*
X213077299Y-138203423D01*
X213177778Y-138213556D01*
G36*
X211766667Y-136280334D02*
G01*
X211724334Y-136322667D01*
X211682000Y-136280334D01*
X211724334Y-136238000D01*
X211766667Y-136280334D01*
G37*
X211766667Y-136280334D02*
X211724334Y-136322667D01*
X211682000Y-136280334D01*
X211724334Y-136238000D01*
X211766667Y-136280334D01*
%LPC*%
D14*
X176000000Y-79000000D03*
D15*
X176000000Y-89160000D03*
D14*
X176000000Y-95500000D03*
D15*
X176000000Y-105660000D03*
D16*
X227000000Y-165000000D03*
X227000000Y-71000000D03*
D17*
X168960000Y-76500000D03*
X168960000Y-91500000D03*
D18*
X167000000Y-79500000D03*
D19*
X167000000Y-82500000D03*
X167000000Y-85500000D03*
X167000000Y-88500000D03*
D16*
X225320000Y-101000000D03*
D18*
X221000000Y-99500000D03*
D19*
X221000000Y-102500000D03*
D17*
X168960000Y-96000000D03*
X168960000Y-105000000D03*
D18*
X167000000Y-99000000D03*
D19*
X167000000Y-102000000D03*
D20*
X202500000Y-83025000D03*
X183000000Y-73250000D03*
X202600000Y-73250000D03*
X202500000Y-99525000D03*
D21*
X175738439Y-158099973D03*
X175738439Y-129900029D03*
D22*
X195088413Y-137250027D03*
X192588418Y-137250027D03*
X190088423Y-137250027D03*
X187588428Y-137250027D03*
X185088433Y-137250027D03*
X182588438Y-137250027D03*
X195088413Y-139750022D03*
X192588418Y-139750022D03*
X190088423Y-139750022D03*
X187588428Y-139750022D03*
X185088433Y-139750022D03*
X182588438Y-139750022D03*
X195088413Y-148250030D03*
X192588418Y-148250030D03*
X190088423Y-148250030D03*
X187588428Y-148250030D03*
X185088433Y-148250030D03*
X182588438Y-148250030D03*
X195088413Y-150750025D03*
X192588418Y-150750025D03*
X190088423Y-150750025D03*
X187588428Y-150750025D03*
X185088433Y-150750025D03*
X182588438Y-150750025D03*
D23*
X226000000Y-158000000D03*
D16*
X167000000Y-165000000D03*
X225320000Y-117500000D03*
D18*
X221000000Y-116000000D03*
D19*
X221000000Y-119000000D03*
D16*
X225320000Y-84500000D03*
D18*
X221000000Y-83000000D03*
D19*
X221000000Y-86000000D03*
D16*
X167000000Y-71000000D03*
X167000000Y-121000000D03*
D24*
X217400000Y-158200000D03*
X196000000Y-118500000D03*
D23*
X177000000Y-120500000D03*
M02*
