G04 #@! TF.GenerationSoftware,KiCad,Pcbnew,(5.1.5)-3*
G04 #@! TF.CreationDate,2021-01-10T22:56:31-06:00*
G04 #@! TF.ProjectId,ContactorDriver,436f6e74-6163-4746-9f72-447269766572,rev?*
G04 #@! TF.SameCoordinates,Original*
G04 #@! TF.FileFunction,Copper,L1,Top*
G04 #@! TF.FilePolarity,Positive*
%FSLAX46Y46*%
G04 Gerber Fmt 4.6, Leading zero omitted, Abs format (unit mm)*
G04 Created by KiCad (PCBNEW (5.1.5)-3) date 2021-01-10 22:56:31*
%MOMM*%
%LPD*%
G04 APERTURE LIST*
%ADD10C,0.100000*%
%ADD11O,2.400000X2.400000*%
%ADD12R,2.400000X2.400000*%
%ADD13O,2.020000X1.500000*%
%ADD14R,4.600000X1.100000*%
%ADD15R,9.400000X10.800000*%
%ADD16R,1.220000X0.650000*%
%ADD17C,2.800000*%
%ADD18C,2.286000*%
%ADD19C,4.500880*%
%ADD20C,0.800000*%
%ADD21C,0.250000*%
%ADD22C,0.500000*%
%ADD23C,0.254000*%
G04 APERTURE END LIST*
G04 #@! TA.AperFunction,SMDPad,CuDef*
D10*
G36*
X214974505Y-113401204D02*
G01*
X214998773Y-113404804D01*
X215022572Y-113410765D01*
X215045671Y-113419030D01*
X215067850Y-113429520D01*
X215088893Y-113442132D01*
X215108599Y-113456747D01*
X215126777Y-113473223D01*
X215143253Y-113491401D01*
X215157868Y-113511107D01*
X215170480Y-113532150D01*
X215180970Y-113554329D01*
X215189235Y-113577428D01*
X215195196Y-113601227D01*
X215198796Y-113625495D01*
X215200000Y-113649999D01*
X215200000Y-114300001D01*
X215198796Y-114324505D01*
X215195196Y-114348773D01*
X215189235Y-114372572D01*
X215180970Y-114395671D01*
X215170480Y-114417850D01*
X215157868Y-114438893D01*
X215143253Y-114458599D01*
X215126777Y-114476777D01*
X215108599Y-114493253D01*
X215088893Y-114507868D01*
X215067850Y-114520480D01*
X215045671Y-114530970D01*
X215022572Y-114539235D01*
X214998773Y-114545196D01*
X214974505Y-114548796D01*
X214950001Y-114550000D01*
X214049999Y-114550000D01*
X214025495Y-114548796D01*
X214001227Y-114545196D01*
X213977428Y-114539235D01*
X213954329Y-114530970D01*
X213932150Y-114520480D01*
X213911107Y-114507868D01*
X213891401Y-114493253D01*
X213873223Y-114476777D01*
X213856747Y-114458599D01*
X213842132Y-114438893D01*
X213829520Y-114417850D01*
X213819030Y-114395671D01*
X213810765Y-114372572D01*
X213804804Y-114348773D01*
X213801204Y-114324505D01*
X213800000Y-114300001D01*
X213800000Y-113649999D01*
X213801204Y-113625495D01*
X213804804Y-113601227D01*
X213810765Y-113577428D01*
X213819030Y-113554329D01*
X213829520Y-113532150D01*
X213842132Y-113511107D01*
X213856747Y-113491401D01*
X213873223Y-113473223D01*
X213891401Y-113456747D01*
X213911107Y-113442132D01*
X213932150Y-113429520D01*
X213954329Y-113419030D01*
X213977428Y-113410765D01*
X214001227Y-113404804D01*
X214025495Y-113401204D01*
X214049999Y-113400000D01*
X214950001Y-113400000D01*
X214974505Y-113401204D01*
G37*
G04 #@! TD.AperFunction*
G04 #@! TA.AperFunction,SMDPad,CuDef*
G36*
X214974505Y-115451204D02*
G01*
X214998773Y-115454804D01*
X215022572Y-115460765D01*
X215045671Y-115469030D01*
X215067850Y-115479520D01*
X215088893Y-115492132D01*
X215108599Y-115506747D01*
X215126777Y-115523223D01*
X215143253Y-115541401D01*
X215157868Y-115561107D01*
X215170480Y-115582150D01*
X215180970Y-115604329D01*
X215189235Y-115627428D01*
X215195196Y-115651227D01*
X215198796Y-115675495D01*
X215200000Y-115699999D01*
X215200000Y-116350001D01*
X215198796Y-116374505D01*
X215195196Y-116398773D01*
X215189235Y-116422572D01*
X215180970Y-116445671D01*
X215170480Y-116467850D01*
X215157868Y-116488893D01*
X215143253Y-116508599D01*
X215126777Y-116526777D01*
X215108599Y-116543253D01*
X215088893Y-116557868D01*
X215067850Y-116570480D01*
X215045671Y-116580970D01*
X215022572Y-116589235D01*
X214998773Y-116595196D01*
X214974505Y-116598796D01*
X214950001Y-116600000D01*
X214049999Y-116600000D01*
X214025495Y-116598796D01*
X214001227Y-116595196D01*
X213977428Y-116589235D01*
X213954329Y-116580970D01*
X213932150Y-116570480D01*
X213911107Y-116557868D01*
X213891401Y-116543253D01*
X213873223Y-116526777D01*
X213856747Y-116508599D01*
X213842132Y-116488893D01*
X213829520Y-116467850D01*
X213819030Y-116445671D01*
X213810765Y-116422572D01*
X213804804Y-116398773D01*
X213801204Y-116374505D01*
X213800000Y-116350001D01*
X213800000Y-115699999D01*
X213801204Y-115675495D01*
X213804804Y-115651227D01*
X213810765Y-115627428D01*
X213819030Y-115604329D01*
X213829520Y-115582150D01*
X213842132Y-115561107D01*
X213856747Y-115541401D01*
X213873223Y-115523223D01*
X213891401Y-115506747D01*
X213911107Y-115492132D01*
X213932150Y-115479520D01*
X213954329Y-115469030D01*
X213977428Y-115460765D01*
X214001227Y-115454804D01*
X214025495Y-115451204D01*
X214049999Y-115450000D01*
X214950001Y-115450000D01*
X214974505Y-115451204D01*
G37*
G04 #@! TD.AperFunction*
D11*
X176000000Y-89160000D03*
D12*
X176000000Y-79000000D03*
G04 #@! TA.AperFunction,SMDPad,CuDef*
D10*
G36*
X201374505Y-90301204D02*
G01*
X201398773Y-90304804D01*
X201422572Y-90310765D01*
X201445671Y-90319030D01*
X201467850Y-90329520D01*
X201488893Y-90342132D01*
X201508599Y-90356747D01*
X201526777Y-90373223D01*
X201543253Y-90391401D01*
X201557868Y-90411107D01*
X201570480Y-90432150D01*
X201580970Y-90454329D01*
X201589235Y-90477428D01*
X201595196Y-90501227D01*
X201598796Y-90525495D01*
X201600000Y-90549999D01*
X201600000Y-91450001D01*
X201598796Y-91474505D01*
X201595196Y-91498773D01*
X201589235Y-91522572D01*
X201580970Y-91545671D01*
X201570480Y-91567850D01*
X201557868Y-91588893D01*
X201543253Y-91608599D01*
X201526777Y-91626777D01*
X201508599Y-91643253D01*
X201488893Y-91657868D01*
X201467850Y-91670480D01*
X201445671Y-91680970D01*
X201422572Y-91689235D01*
X201398773Y-91695196D01*
X201374505Y-91698796D01*
X201350001Y-91700000D01*
X200699999Y-91700000D01*
X200675495Y-91698796D01*
X200651227Y-91695196D01*
X200627428Y-91689235D01*
X200604329Y-91680970D01*
X200582150Y-91670480D01*
X200561107Y-91657868D01*
X200541401Y-91643253D01*
X200523223Y-91626777D01*
X200506747Y-91608599D01*
X200492132Y-91588893D01*
X200479520Y-91567850D01*
X200469030Y-91545671D01*
X200460765Y-91522572D01*
X200454804Y-91498773D01*
X200451204Y-91474505D01*
X200450000Y-91450001D01*
X200450000Y-90549999D01*
X200451204Y-90525495D01*
X200454804Y-90501227D01*
X200460765Y-90477428D01*
X200469030Y-90454329D01*
X200479520Y-90432150D01*
X200492132Y-90411107D01*
X200506747Y-90391401D01*
X200523223Y-90373223D01*
X200541401Y-90356747D01*
X200561107Y-90342132D01*
X200582150Y-90329520D01*
X200604329Y-90319030D01*
X200627428Y-90310765D01*
X200651227Y-90304804D01*
X200675495Y-90301204D01*
X200699999Y-90300000D01*
X201350001Y-90300000D01*
X201374505Y-90301204D01*
G37*
G04 #@! TD.AperFunction*
G04 #@! TA.AperFunction,SMDPad,CuDef*
G36*
X199324505Y-90301204D02*
G01*
X199348773Y-90304804D01*
X199372572Y-90310765D01*
X199395671Y-90319030D01*
X199417850Y-90329520D01*
X199438893Y-90342132D01*
X199458599Y-90356747D01*
X199476777Y-90373223D01*
X199493253Y-90391401D01*
X199507868Y-90411107D01*
X199520480Y-90432150D01*
X199530970Y-90454329D01*
X199539235Y-90477428D01*
X199545196Y-90501227D01*
X199548796Y-90525495D01*
X199550000Y-90549999D01*
X199550000Y-91450001D01*
X199548796Y-91474505D01*
X199545196Y-91498773D01*
X199539235Y-91522572D01*
X199530970Y-91545671D01*
X199520480Y-91567850D01*
X199507868Y-91588893D01*
X199493253Y-91608599D01*
X199476777Y-91626777D01*
X199458599Y-91643253D01*
X199438893Y-91657868D01*
X199417850Y-91670480D01*
X199395671Y-91680970D01*
X199372572Y-91689235D01*
X199348773Y-91695196D01*
X199324505Y-91698796D01*
X199300001Y-91700000D01*
X198649999Y-91700000D01*
X198625495Y-91698796D01*
X198601227Y-91695196D01*
X198577428Y-91689235D01*
X198554329Y-91680970D01*
X198532150Y-91670480D01*
X198511107Y-91657868D01*
X198491401Y-91643253D01*
X198473223Y-91626777D01*
X198456747Y-91608599D01*
X198442132Y-91588893D01*
X198429520Y-91567850D01*
X198419030Y-91545671D01*
X198410765Y-91522572D01*
X198404804Y-91498773D01*
X198401204Y-91474505D01*
X198400000Y-91450001D01*
X198400000Y-90549999D01*
X198401204Y-90525495D01*
X198404804Y-90501227D01*
X198410765Y-90477428D01*
X198419030Y-90454329D01*
X198429520Y-90432150D01*
X198442132Y-90411107D01*
X198456747Y-90391401D01*
X198473223Y-90373223D01*
X198491401Y-90356747D01*
X198511107Y-90342132D01*
X198532150Y-90329520D01*
X198554329Y-90319030D01*
X198577428Y-90310765D01*
X198601227Y-90304804D01*
X198625495Y-90301204D01*
X198649999Y-90300000D01*
X199300001Y-90300000D01*
X199324505Y-90301204D01*
G37*
G04 #@! TD.AperFunction*
G04 #@! TA.AperFunction,SMDPad,CuDef*
G36*
X199324505Y-106801204D02*
G01*
X199348773Y-106804804D01*
X199372572Y-106810765D01*
X199395671Y-106819030D01*
X199417850Y-106829520D01*
X199438893Y-106842132D01*
X199458599Y-106856747D01*
X199476777Y-106873223D01*
X199493253Y-106891401D01*
X199507868Y-106911107D01*
X199520480Y-106932150D01*
X199530970Y-106954329D01*
X199539235Y-106977428D01*
X199545196Y-107001227D01*
X199548796Y-107025495D01*
X199550000Y-107049999D01*
X199550000Y-107950001D01*
X199548796Y-107974505D01*
X199545196Y-107998773D01*
X199539235Y-108022572D01*
X199530970Y-108045671D01*
X199520480Y-108067850D01*
X199507868Y-108088893D01*
X199493253Y-108108599D01*
X199476777Y-108126777D01*
X199458599Y-108143253D01*
X199438893Y-108157868D01*
X199417850Y-108170480D01*
X199395671Y-108180970D01*
X199372572Y-108189235D01*
X199348773Y-108195196D01*
X199324505Y-108198796D01*
X199300001Y-108200000D01*
X198649999Y-108200000D01*
X198625495Y-108198796D01*
X198601227Y-108195196D01*
X198577428Y-108189235D01*
X198554329Y-108180970D01*
X198532150Y-108170480D01*
X198511107Y-108157868D01*
X198491401Y-108143253D01*
X198473223Y-108126777D01*
X198456747Y-108108599D01*
X198442132Y-108088893D01*
X198429520Y-108067850D01*
X198419030Y-108045671D01*
X198410765Y-108022572D01*
X198404804Y-107998773D01*
X198401204Y-107974505D01*
X198400000Y-107950001D01*
X198400000Y-107049999D01*
X198401204Y-107025495D01*
X198404804Y-107001227D01*
X198410765Y-106977428D01*
X198419030Y-106954329D01*
X198429520Y-106932150D01*
X198442132Y-106911107D01*
X198456747Y-106891401D01*
X198473223Y-106873223D01*
X198491401Y-106856747D01*
X198511107Y-106842132D01*
X198532150Y-106829520D01*
X198554329Y-106819030D01*
X198577428Y-106810765D01*
X198601227Y-106804804D01*
X198625495Y-106801204D01*
X198649999Y-106800000D01*
X199300001Y-106800000D01*
X199324505Y-106801204D01*
G37*
G04 #@! TD.AperFunction*
G04 #@! TA.AperFunction,SMDPad,CuDef*
G36*
X201374505Y-106801204D02*
G01*
X201398773Y-106804804D01*
X201422572Y-106810765D01*
X201445671Y-106819030D01*
X201467850Y-106829520D01*
X201488893Y-106842132D01*
X201508599Y-106856747D01*
X201526777Y-106873223D01*
X201543253Y-106891401D01*
X201557868Y-106911107D01*
X201570480Y-106932150D01*
X201580970Y-106954329D01*
X201589235Y-106977428D01*
X201595196Y-107001227D01*
X201598796Y-107025495D01*
X201600000Y-107049999D01*
X201600000Y-107950001D01*
X201598796Y-107974505D01*
X201595196Y-107998773D01*
X201589235Y-108022572D01*
X201580970Y-108045671D01*
X201570480Y-108067850D01*
X201557868Y-108088893D01*
X201543253Y-108108599D01*
X201526777Y-108126777D01*
X201508599Y-108143253D01*
X201488893Y-108157868D01*
X201467850Y-108170480D01*
X201445671Y-108180970D01*
X201422572Y-108189235D01*
X201398773Y-108195196D01*
X201374505Y-108198796D01*
X201350001Y-108200000D01*
X200699999Y-108200000D01*
X200675495Y-108198796D01*
X200651227Y-108195196D01*
X200627428Y-108189235D01*
X200604329Y-108180970D01*
X200582150Y-108170480D01*
X200561107Y-108157868D01*
X200541401Y-108143253D01*
X200523223Y-108126777D01*
X200506747Y-108108599D01*
X200492132Y-108088893D01*
X200479520Y-108067850D01*
X200469030Y-108045671D01*
X200460765Y-108022572D01*
X200454804Y-107998773D01*
X200451204Y-107974505D01*
X200450000Y-107950001D01*
X200450000Y-107049999D01*
X200451204Y-107025495D01*
X200454804Y-107001227D01*
X200460765Y-106977428D01*
X200469030Y-106954329D01*
X200479520Y-106932150D01*
X200492132Y-106911107D01*
X200506747Y-106891401D01*
X200523223Y-106873223D01*
X200541401Y-106856747D01*
X200561107Y-106842132D01*
X200582150Y-106829520D01*
X200604329Y-106819030D01*
X200627428Y-106810765D01*
X200651227Y-106804804D01*
X200675495Y-106801204D01*
X200699999Y-106800000D01*
X201350001Y-106800000D01*
X201374505Y-106801204D01*
G37*
G04 #@! TD.AperFunction*
D12*
X176000000Y-95500000D03*
D11*
X176000000Y-105660000D03*
G04 #@! TA.AperFunction,ComponentPad*
D10*
G36*
X221784504Y-115251204D02*
G01*
X221808773Y-115254804D01*
X221832571Y-115260765D01*
X221855671Y-115269030D01*
X221877849Y-115279520D01*
X221898893Y-115292133D01*
X221918598Y-115306747D01*
X221936777Y-115323223D01*
X221953253Y-115341402D01*
X221967867Y-115361107D01*
X221980480Y-115382151D01*
X221990970Y-115404329D01*
X221999235Y-115427429D01*
X222005196Y-115451227D01*
X222008796Y-115475496D01*
X222010000Y-115500000D01*
X222010000Y-116500000D01*
X222008796Y-116524504D01*
X222005196Y-116548773D01*
X221999235Y-116572571D01*
X221990970Y-116595671D01*
X221980480Y-116617849D01*
X221967867Y-116638893D01*
X221953253Y-116658598D01*
X221936777Y-116676777D01*
X221918598Y-116693253D01*
X221898893Y-116707867D01*
X221877849Y-116720480D01*
X221855671Y-116730970D01*
X221832571Y-116739235D01*
X221808773Y-116745196D01*
X221784504Y-116748796D01*
X221760000Y-116750000D01*
X220240000Y-116750000D01*
X220215496Y-116748796D01*
X220191227Y-116745196D01*
X220167429Y-116739235D01*
X220144329Y-116730970D01*
X220122151Y-116720480D01*
X220101107Y-116707867D01*
X220081402Y-116693253D01*
X220063223Y-116676777D01*
X220046747Y-116658598D01*
X220032133Y-116638893D01*
X220019520Y-116617849D01*
X220009030Y-116595671D01*
X220000765Y-116572571D01*
X219994804Y-116548773D01*
X219991204Y-116524504D01*
X219990000Y-116500000D01*
X219990000Y-115500000D01*
X219991204Y-115475496D01*
X219994804Y-115451227D01*
X220000765Y-115427429D01*
X220009030Y-115404329D01*
X220019520Y-115382151D01*
X220032133Y-115361107D01*
X220046747Y-115341402D01*
X220063223Y-115323223D01*
X220081402Y-115306747D01*
X220101107Y-115292133D01*
X220122151Y-115279520D01*
X220144329Y-115269030D01*
X220167429Y-115260765D01*
X220191227Y-115254804D01*
X220215496Y-115251204D01*
X220240000Y-115250000D01*
X221760000Y-115250000D01*
X221784504Y-115251204D01*
G37*
G04 #@! TD.AperFunction*
D13*
X221000000Y-119000000D03*
X221000000Y-86000000D03*
G04 #@! TA.AperFunction,ComponentPad*
D10*
G36*
X221784504Y-82251204D02*
G01*
X221808773Y-82254804D01*
X221832571Y-82260765D01*
X221855671Y-82269030D01*
X221877849Y-82279520D01*
X221898893Y-82292133D01*
X221918598Y-82306747D01*
X221936777Y-82323223D01*
X221953253Y-82341402D01*
X221967867Y-82361107D01*
X221980480Y-82382151D01*
X221990970Y-82404329D01*
X221999235Y-82427429D01*
X222005196Y-82451227D01*
X222008796Y-82475496D01*
X222010000Y-82500000D01*
X222010000Y-83500000D01*
X222008796Y-83524504D01*
X222005196Y-83548773D01*
X221999235Y-83572571D01*
X221990970Y-83595671D01*
X221980480Y-83617849D01*
X221967867Y-83638893D01*
X221953253Y-83658598D01*
X221936777Y-83676777D01*
X221918598Y-83693253D01*
X221898893Y-83707867D01*
X221877849Y-83720480D01*
X221855671Y-83730970D01*
X221832571Y-83739235D01*
X221808773Y-83745196D01*
X221784504Y-83748796D01*
X221760000Y-83750000D01*
X220240000Y-83750000D01*
X220215496Y-83748796D01*
X220191227Y-83745196D01*
X220167429Y-83739235D01*
X220144329Y-83730970D01*
X220122151Y-83720480D01*
X220101107Y-83707867D01*
X220081402Y-83693253D01*
X220063223Y-83676777D01*
X220046747Y-83658598D01*
X220032133Y-83638893D01*
X220019520Y-83617849D01*
X220009030Y-83595671D01*
X220000765Y-83572571D01*
X219994804Y-83548773D01*
X219991204Y-83524504D01*
X219990000Y-83500000D01*
X219990000Y-82500000D01*
X219991204Y-82475496D01*
X219994804Y-82451227D01*
X220000765Y-82427429D01*
X220009030Y-82404329D01*
X220019520Y-82382151D01*
X220032133Y-82361107D01*
X220046747Y-82341402D01*
X220063223Y-82323223D01*
X220081402Y-82306747D01*
X220101107Y-82292133D01*
X220122151Y-82279520D01*
X220144329Y-82269030D01*
X220167429Y-82260765D01*
X220191227Y-82254804D01*
X220215496Y-82251204D01*
X220240000Y-82250000D01*
X221760000Y-82250000D01*
X221784504Y-82251204D01*
G37*
G04 #@! TD.AperFunction*
G04 #@! TA.AperFunction,ComponentPad*
G36*
X167784504Y-78751204D02*
G01*
X167808773Y-78754804D01*
X167832571Y-78760765D01*
X167855671Y-78769030D01*
X167877849Y-78779520D01*
X167898893Y-78792133D01*
X167918598Y-78806747D01*
X167936777Y-78823223D01*
X167953253Y-78841402D01*
X167967867Y-78861107D01*
X167980480Y-78882151D01*
X167990970Y-78904329D01*
X167999235Y-78927429D01*
X168005196Y-78951227D01*
X168008796Y-78975496D01*
X168010000Y-79000000D01*
X168010000Y-80000000D01*
X168008796Y-80024504D01*
X168005196Y-80048773D01*
X167999235Y-80072571D01*
X167990970Y-80095671D01*
X167980480Y-80117849D01*
X167967867Y-80138893D01*
X167953253Y-80158598D01*
X167936777Y-80176777D01*
X167918598Y-80193253D01*
X167898893Y-80207867D01*
X167877849Y-80220480D01*
X167855671Y-80230970D01*
X167832571Y-80239235D01*
X167808773Y-80245196D01*
X167784504Y-80248796D01*
X167760000Y-80250000D01*
X166240000Y-80250000D01*
X166215496Y-80248796D01*
X166191227Y-80245196D01*
X166167429Y-80239235D01*
X166144329Y-80230970D01*
X166122151Y-80220480D01*
X166101107Y-80207867D01*
X166081402Y-80193253D01*
X166063223Y-80176777D01*
X166046747Y-80158598D01*
X166032133Y-80138893D01*
X166019520Y-80117849D01*
X166009030Y-80095671D01*
X166000765Y-80072571D01*
X165994804Y-80048773D01*
X165991204Y-80024504D01*
X165990000Y-80000000D01*
X165990000Y-79000000D01*
X165991204Y-78975496D01*
X165994804Y-78951227D01*
X166000765Y-78927429D01*
X166009030Y-78904329D01*
X166019520Y-78882151D01*
X166032133Y-78861107D01*
X166046747Y-78841402D01*
X166063223Y-78823223D01*
X166081402Y-78806747D01*
X166101107Y-78792133D01*
X166122151Y-78779520D01*
X166144329Y-78769030D01*
X166167429Y-78760765D01*
X166191227Y-78754804D01*
X166215496Y-78751204D01*
X166240000Y-78750000D01*
X167760000Y-78750000D01*
X167784504Y-78751204D01*
G37*
G04 #@! TD.AperFunction*
D13*
X167000000Y-82500000D03*
X167000000Y-85500000D03*
X167000000Y-88500000D03*
G04 #@! TA.AperFunction,ComponentPad*
D10*
G36*
X221784504Y-98751204D02*
G01*
X221808773Y-98754804D01*
X221832571Y-98760765D01*
X221855671Y-98769030D01*
X221877849Y-98779520D01*
X221898893Y-98792133D01*
X221918598Y-98806747D01*
X221936777Y-98823223D01*
X221953253Y-98841402D01*
X221967867Y-98861107D01*
X221980480Y-98882151D01*
X221990970Y-98904329D01*
X221999235Y-98927429D01*
X222005196Y-98951227D01*
X222008796Y-98975496D01*
X222010000Y-99000000D01*
X222010000Y-100000000D01*
X222008796Y-100024504D01*
X222005196Y-100048773D01*
X221999235Y-100072571D01*
X221990970Y-100095671D01*
X221980480Y-100117849D01*
X221967867Y-100138893D01*
X221953253Y-100158598D01*
X221936777Y-100176777D01*
X221918598Y-100193253D01*
X221898893Y-100207867D01*
X221877849Y-100220480D01*
X221855671Y-100230970D01*
X221832571Y-100239235D01*
X221808773Y-100245196D01*
X221784504Y-100248796D01*
X221760000Y-100250000D01*
X220240000Y-100250000D01*
X220215496Y-100248796D01*
X220191227Y-100245196D01*
X220167429Y-100239235D01*
X220144329Y-100230970D01*
X220122151Y-100220480D01*
X220101107Y-100207867D01*
X220081402Y-100193253D01*
X220063223Y-100176777D01*
X220046747Y-100158598D01*
X220032133Y-100138893D01*
X220019520Y-100117849D01*
X220009030Y-100095671D01*
X220000765Y-100072571D01*
X219994804Y-100048773D01*
X219991204Y-100024504D01*
X219990000Y-100000000D01*
X219990000Y-99000000D01*
X219991204Y-98975496D01*
X219994804Y-98951227D01*
X220000765Y-98927429D01*
X220009030Y-98904329D01*
X220019520Y-98882151D01*
X220032133Y-98861107D01*
X220046747Y-98841402D01*
X220063223Y-98823223D01*
X220081402Y-98806747D01*
X220101107Y-98792133D01*
X220122151Y-98779520D01*
X220144329Y-98769030D01*
X220167429Y-98760765D01*
X220191227Y-98754804D01*
X220215496Y-98751204D01*
X220240000Y-98750000D01*
X221760000Y-98750000D01*
X221784504Y-98751204D01*
G37*
G04 #@! TD.AperFunction*
D13*
X221000000Y-102500000D03*
G04 #@! TA.AperFunction,ComponentPad*
D10*
G36*
X167784504Y-98251204D02*
G01*
X167808773Y-98254804D01*
X167832571Y-98260765D01*
X167855671Y-98269030D01*
X167877849Y-98279520D01*
X167898893Y-98292133D01*
X167918598Y-98306747D01*
X167936777Y-98323223D01*
X167953253Y-98341402D01*
X167967867Y-98361107D01*
X167980480Y-98382151D01*
X167990970Y-98404329D01*
X167999235Y-98427429D01*
X168005196Y-98451227D01*
X168008796Y-98475496D01*
X168010000Y-98500000D01*
X168010000Y-99500000D01*
X168008796Y-99524504D01*
X168005196Y-99548773D01*
X167999235Y-99572571D01*
X167990970Y-99595671D01*
X167980480Y-99617849D01*
X167967867Y-99638893D01*
X167953253Y-99658598D01*
X167936777Y-99676777D01*
X167918598Y-99693253D01*
X167898893Y-99707867D01*
X167877849Y-99720480D01*
X167855671Y-99730970D01*
X167832571Y-99739235D01*
X167808773Y-99745196D01*
X167784504Y-99748796D01*
X167760000Y-99750000D01*
X166240000Y-99750000D01*
X166215496Y-99748796D01*
X166191227Y-99745196D01*
X166167429Y-99739235D01*
X166144329Y-99730970D01*
X166122151Y-99720480D01*
X166101107Y-99707867D01*
X166081402Y-99693253D01*
X166063223Y-99676777D01*
X166046747Y-99658598D01*
X166032133Y-99638893D01*
X166019520Y-99617849D01*
X166009030Y-99595671D01*
X166000765Y-99572571D01*
X165994804Y-99548773D01*
X165991204Y-99524504D01*
X165990000Y-99500000D01*
X165990000Y-98500000D01*
X165991204Y-98475496D01*
X165994804Y-98451227D01*
X166000765Y-98427429D01*
X166009030Y-98404329D01*
X166019520Y-98382151D01*
X166032133Y-98361107D01*
X166046747Y-98341402D01*
X166063223Y-98323223D01*
X166081402Y-98306747D01*
X166101107Y-98292133D01*
X166122151Y-98279520D01*
X166144329Y-98269030D01*
X166167429Y-98260765D01*
X166191227Y-98254804D01*
X166215496Y-98251204D01*
X166240000Y-98250000D01*
X167760000Y-98250000D01*
X167784504Y-98251204D01*
G37*
G04 #@! TD.AperFunction*
D13*
X167000000Y-102000000D03*
D14*
X195650000Y-86540000D03*
X195650000Y-84000000D03*
X195650000Y-81460000D03*
D15*
X186500000Y-84000000D03*
D16*
X209690000Y-86500000D03*
X212310000Y-85550000D03*
X212310000Y-87450000D03*
X212310000Y-103950000D03*
X212310000Y-102050000D03*
X209690000Y-103000000D03*
D15*
X186575000Y-100500000D03*
D14*
X195725000Y-97960000D03*
X195725000Y-100500000D03*
X195725000Y-103040000D03*
G04 #@! TA.AperFunction,SMDPad,CuDef*
D10*
G36*
X215474505Y-80401204D02*
G01*
X215498773Y-80404804D01*
X215522572Y-80410765D01*
X215545671Y-80419030D01*
X215567850Y-80429520D01*
X215588893Y-80442132D01*
X215608599Y-80456747D01*
X215626777Y-80473223D01*
X215643253Y-80491401D01*
X215657868Y-80511107D01*
X215670480Y-80532150D01*
X215680970Y-80554329D01*
X215689235Y-80577428D01*
X215695196Y-80601227D01*
X215698796Y-80625495D01*
X215700000Y-80649999D01*
X215700000Y-81300001D01*
X215698796Y-81324505D01*
X215695196Y-81348773D01*
X215689235Y-81372572D01*
X215680970Y-81395671D01*
X215670480Y-81417850D01*
X215657868Y-81438893D01*
X215643253Y-81458599D01*
X215626777Y-81476777D01*
X215608599Y-81493253D01*
X215588893Y-81507868D01*
X215567850Y-81520480D01*
X215545671Y-81530970D01*
X215522572Y-81539235D01*
X215498773Y-81545196D01*
X215474505Y-81548796D01*
X215450001Y-81550000D01*
X214549999Y-81550000D01*
X214525495Y-81548796D01*
X214501227Y-81545196D01*
X214477428Y-81539235D01*
X214454329Y-81530970D01*
X214432150Y-81520480D01*
X214411107Y-81507868D01*
X214391401Y-81493253D01*
X214373223Y-81476777D01*
X214356747Y-81458599D01*
X214342132Y-81438893D01*
X214329520Y-81417850D01*
X214319030Y-81395671D01*
X214310765Y-81372572D01*
X214304804Y-81348773D01*
X214301204Y-81324505D01*
X214300000Y-81300001D01*
X214300000Y-80649999D01*
X214301204Y-80625495D01*
X214304804Y-80601227D01*
X214310765Y-80577428D01*
X214319030Y-80554329D01*
X214329520Y-80532150D01*
X214342132Y-80511107D01*
X214356747Y-80491401D01*
X214373223Y-80473223D01*
X214391401Y-80456747D01*
X214411107Y-80442132D01*
X214432150Y-80429520D01*
X214454329Y-80419030D01*
X214477428Y-80410765D01*
X214501227Y-80404804D01*
X214525495Y-80401204D01*
X214549999Y-80400000D01*
X215450001Y-80400000D01*
X215474505Y-80401204D01*
G37*
G04 #@! TD.AperFunction*
G04 #@! TA.AperFunction,SMDPad,CuDef*
G36*
X215474505Y-82451204D02*
G01*
X215498773Y-82454804D01*
X215522572Y-82460765D01*
X215545671Y-82469030D01*
X215567850Y-82479520D01*
X215588893Y-82492132D01*
X215608599Y-82506747D01*
X215626777Y-82523223D01*
X215643253Y-82541401D01*
X215657868Y-82561107D01*
X215670480Y-82582150D01*
X215680970Y-82604329D01*
X215689235Y-82627428D01*
X215695196Y-82651227D01*
X215698796Y-82675495D01*
X215700000Y-82699999D01*
X215700000Y-83350001D01*
X215698796Y-83374505D01*
X215695196Y-83398773D01*
X215689235Y-83422572D01*
X215680970Y-83445671D01*
X215670480Y-83467850D01*
X215657868Y-83488893D01*
X215643253Y-83508599D01*
X215626777Y-83526777D01*
X215608599Y-83543253D01*
X215588893Y-83557868D01*
X215567850Y-83570480D01*
X215545671Y-83580970D01*
X215522572Y-83589235D01*
X215498773Y-83595196D01*
X215474505Y-83598796D01*
X215450001Y-83600000D01*
X214549999Y-83600000D01*
X214525495Y-83598796D01*
X214501227Y-83595196D01*
X214477428Y-83589235D01*
X214454329Y-83580970D01*
X214432150Y-83570480D01*
X214411107Y-83557868D01*
X214391401Y-83543253D01*
X214373223Y-83526777D01*
X214356747Y-83508599D01*
X214342132Y-83488893D01*
X214329520Y-83467850D01*
X214319030Y-83445671D01*
X214310765Y-83422572D01*
X214304804Y-83398773D01*
X214301204Y-83374505D01*
X214300000Y-83350001D01*
X214300000Y-82699999D01*
X214301204Y-82675495D01*
X214304804Y-82651227D01*
X214310765Y-82627428D01*
X214319030Y-82604329D01*
X214329520Y-82582150D01*
X214342132Y-82561107D01*
X214356747Y-82541401D01*
X214373223Y-82523223D01*
X214391401Y-82506747D01*
X214411107Y-82492132D01*
X214432150Y-82479520D01*
X214454329Y-82469030D01*
X214477428Y-82460765D01*
X214501227Y-82454804D01*
X214525495Y-82451204D01*
X214549999Y-82450000D01*
X215450001Y-82450000D01*
X215474505Y-82451204D01*
G37*
G04 #@! TD.AperFunction*
G04 #@! TA.AperFunction,SMDPad,CuDef*
G36*
X206874505Y-85801204D02*
G01*
X206898773Y-85804804D01*
X206922572Y-85810765D01*
X206945671Y-85819030D01*
X206967850Y-85829520D01*
X206988893Y-85842132D01*
X207008599Y-85856747D01*
X207026777Y-85873223D01*
X207043253Y-85891401D01*
X207057868Y-85911107D01*
X207070480Y-85932150D01*
X207080970Y-85954329D01*
X207089235Y-85977428D01*
X207095196Y-86001227D01*
X207098796Y-86025495D01*
X207100000Y-86049999D01*
X207100000Y-86950001D01*
X207098796Y-86974505D01*
X207095196Y-86998773D01*
X207089235Y-87022572D01*
X207080970Y-87045671D01*
X207070480Y-87067850D01*
X207057868Y-87088893D01*
X207043253Y-87108599D01*
X207026777Y-87126777D01*
X207008599Y-87143253D01*
X206988893Y-87157868D01*
X206967850Y-87170480D01*
X206945671Y-87180970D01*
X206922572Y-87189235D01*
X206898773Y-87195196D01*
X206874505Y-87198796D01*
X206850001Y-87200000D01*
X206199999Y-87200000D01*
X206175495Y-87198796D01*
X206151227Y-87195196D01*
X206127428Y-87189235D01*
X206104329Y-87180970D01*
X206082150Y-87170480D01*
X206061107Y-87157868D01*
X206041401Y-87143253D01*
X206023223Y-87126777D01*
X206006747Y-87108599D01*
X205992132Y-87088893D01*
X205979520Y-87067850D01*
X205969030Y-87045671D01*
X205960765Y-87022572D01*
X205954804Y-86998773D01*
X205951204Y-86974505D01*
X205950000Y-86950001D01*
X205950000Y-86049999D01*
X205951204Y-86025495D01*
X205954804Y-86001227D01*
X205960765Y-85977428D01*
X205969030Y-85954329D01*
X205979520Y-85932150D01*
X205992132Y-85911107D01*
X206006747Y-85891401D01*
X206023223Y-85873223D01*
X206041401Y-85856747D01*
X206061107Y-85842132D01*
X206082150Y-85829520D01*
X206104329Y-85819030D01*
X206127428Y-85810765D01*
X206151227Y-85804804D01*
X206175495Y-85801204D01*
X206199999Y-85800000D01*
X206850001Y-85800000D01*
X206874505Y-85801204D01*
G37*
G04 #@! TD.AperFunction*
G04 #@! TA.AperFunction,SMDPad,CuDef*
G36*
X204824505Y-85801204D02*
G01*
X204848773Y-85804804D01*
X204872572Y-85810765D01*
X204895671Y-85819030D01*
X204917850Y-85829520D01*
X204938893Y-85842132D01*
X204958599Y-85856747D01*
X204976777Y-85873223D01*
X204993253Y-85891401D01*
X205007868Y-85911107D01*
X205020480Y-85932150D01*
X205030970Y-85954329D01*
X205039235Y-85977428D01*
X205045196Y-86001227D01*
X205048796Y-86025495D01*
X205050000Y-86049999D01*
X205050000Y-86950001D01*
X205048796Y-86974505D01*
X205045196Y-86998773D01*
X205039235Y-87022572D01*
X205030970Y-87045671D01*
X205020480Y-87067850D01*
X205007868Y-87088893D01*
X204993253Y-87108599D01*
X204976777Y-87126777D01*
X204958599Y-87143253D01*
X204938893Y-87157868D01*
X204917850Y-87170480D01*
X204895671Y-87180970D01*
X204872572Y-87189235D01*
X204848773Y-87195196D01*
X204824505Y-87198796D01*
X204800001Y-87200000D01*
X204149999Y-87200000D01*
X204125495Y-87198796D01*
X204101227Y-87195196D01*
X204077428Y-87189235D01*
X204054329Y-87180970D01*
X204032150Y-87170480D01*
X204011107Y-87157868D01*
X203991401Y-87143253D01*
X203973223Y-87126777D01*
X203956747Y-87108599D01*
X203942132Y-87088893D01*
X203929520Y-87067850D01*
X203919030Y-87045671D01*
X203910765Y-87022572D01*
X203904804Y-86998773D01*
X203901204Y-86974505D01*
X203900000Y-86950001D01*
X203900000Y-86049999D01*
X203901204Y-86025495D01*
X203904804Y-86001227D01*
X203910765Y-85977428D01*
X203919030Y-85954329D01*
X203929520Y-85932150D01*
X203942132Y-85911107D01*
X203956747Y-85891401D01*
X203973223Y-85873223D01*
X203991401Y-85856747D01*
X204011107Y-85842132D01*
X204032150Y-85829520D01*
X204054329Y-85819030D01*
X204077428Y-85810765D01*
X204101227Y-85804804D01*
X204125495Y-85801204D01*
X204149999Y-85800000D01*
X204800001Y-85800000D01*
X204824505Y-85801204D01*
G37*
G04 #@! TD.AperFunction*
G04 #@! TA.AperFunction,SMDPad,CuDef*
G36*
X206874505Y-90301204D02*
G01*
X206898773Y-90304804D01*
X206922572Y-90310765D01*
X206945671Y-90319030D01*
X206967850Y-90329520D01*
X206988893Y-90342132D01*
X207008599Y-90356747D01*
X207026777Y-90373223D01*
X207043253Y-90391401D01*
X207057868Y-90411107D01*
X207070480Y-90432150D01*
X207080970Y-90454329D01*
X207089235Y-90477428D01*
X207095196Y-90501227D01*
X207098796Y-90525495D01*
X207100000Y-90549999D01*
X207100000Y-91450001D01*
X207098796Y-91474505D01*
X207095196Y-91498773D01*
X207089235Y-91522572D01*
X207080970Y-91545671D01*
X207070480Y-91567850D01*
X207057868Y-91588893D01*
X207043253Y-91608599D01*
X207026777Y-91626777D01*
X207008599Y-91643253D01*
X206988893Y-91657868D01*
X206967850Y-91670480D01*
X206945671Y-91680970D01*
X206922572Y-91689235D01*
X206898773Y-91695196D01*
X206874505Y-91698796D01*
X206850001Y-91700000D01*
X206199999Y-91700000D01*
X206175495Y-91698796D01*
X206151227Y-91695196D01*
X206127428Y-91689235D01*
X206104329Y-91680970D01*
X206082150Y-91670480D01*
X206061107Y-91657868D01*
X206041401Y-91643253D01*
X206023223Y-91626777D01*
X206006747Y-91608599D01*
X205992132Y-91588893D01*
X205979520Y-91567850D01*
X205969030Y-91545671D01*
X205960765Y-91522572D01*
X205954804Y-91498773D01*
X205951204Y-91474505D01*
X205950000Y-91450001D01*
X205950000Y-90549999D01*
X205951204Y-90525495D01*
X205954804Y-90501227D01*
X205960765Y-90477428D01*
X205969030Y-90454329D01*
X205979520Y-90432150D01*
X205992132Y-90411107D01*
X206006747Y-90391401D01*
X206023223Y-90373223D01*
X206041401Y-90356747D01*
X206061107Y-90342132D01*
X206082150Y-90329520D01*
X206104329Y-90319030D01*
X206127428Y-90310765D01*
X206151227Y-90304804D01*
X206175495Y-90301204D01*
X206199999Y-90300000D01*
X206850001Y-90300000D01*
X206874505Y-90301204D01*
G37*
G04 #@! TD.AperFunction*
G04 #@! TA.AperFunction,SMDPad,CuDef*
G36*
X204824505Y-90301204D02*
G01*
X204848773Y-90304804D01*
X204872572Y-90310765D01*
X204895671Y-90319030D01*
X204917850Y-90329520D01*
X204938893Y-90342132D01*
X204958599Y-90356747D01*
X204976777Y-90373223D01*
X204993253Y-90391401D01*
X205007868Y-90411107D01*
X205020480Y-90432150D01*
X205030970Y-90454329D01*
X205039235Y-90477428D01*
X205045196Y-90501227D01*
X205048796Y-90525495D01*
X205050000Y-90549999D01*
X205050000Y-91450001D01*
X205048796Y-91474505D01*
X205045196Y-91498773D01*
X205039235Y-91522572D01*
X205030970Y-91545671D01*
X205020480Y-91567850D01*
X205007868Y-91588893D01*
X204993253Y-91608599D01*
X204976777Y-91626777D01*
X204958599Y-91643253D01*
X204938893Y-91657868D01*
X204917850Y-91670480D01*
X204895671Y-91680970D01*
X204872572Y-91689235D01*
X204848773Y-91695196D01*
X204824505Y-91698796D01*
X204800001Y-91700000D01*
X204149999Y-91700000D01*
X204125495Y-91698796D01*
X204101227Y-91695196D01*
X204077428Y-91689235D01*
X204054329Y-91680970D01*
X204032150Y-91670480D01*
X204011107Y-91657868D01*
X203991401Y-91643253D01*
X203973223Y-91626777D01*
X203956747Y-91608599D01*
X203942132Y-91588893D01*
X203929520Y-91567850D01*
X203919030Y-91545671D01*
X203910765Y-91522572D01*
X203904804Y-91498773D01*
X203901204Y-91474505D01*
X203900000Y-91450001D01*
X203900000Y-90549999D01*
X203901204Y-90525495D01*
X203904804Y-90501227D01*
X203910765Y-90477428D01*
X203919030Y-90454329D01*
X203929520Y-90432150D01*
X203942132Y-90411107D01*
X203956747Y-90391401D01*
X203973223Y-90373223D01*
X203991401Y-90356747D01*
X204011107Y-90342132D01*
X204032150Y-90329520D01*
X204054329Y-90319030D01*
X204077428Y-90310765D01*
X204101227Y-90304804D01*
X204125495Y-90301204D01*
X204149999Y-90300000D01*
X204800001Y-90300000D01*
X204824505Y-90301204D01*
G37*
G04 #@! TD.AperFunction*
G04 #@! TA.AperFunction,SMDPad,CuDef*
G36*
X215474505Y-98951204D02*
G01*
X215498773Y-98954804D01*
X215522572Y-98960765D01*
X215545671Y-98969030D01*
X215567850Y-98979520D01*
X215588893Y-98992132D01*
X215608599Y-99006747D01*
X215626777Y-99023223D01*
X215643253Y-99041401D01*
X215657868Y-99061107D01*
X215670480Y-99082150D01*
X215680970Y-99104329D01*
X215689235Y-99127428D01*
X215695196Y-99151227D01*
X215698796Y-99175495D01*
X215700000Y-99199999D01*
X215700000Y-99850001D01*
X215698796Y-99874505D01*
X215695196Y-99898773D01*
X215689235Y-99922572D01*
X215680970Y-99945671D01*
X215670480Y-99967850D01*
X215657868Y-99988893D01*
X215643253Y-100008599D01*
X215626777Y-100026777D01*
X215608599Y-100043253D01*
X215588893Y-100057868D01*
X215567850Y-100070480D01*
X215545671Y-100080970D01*
X215522572Y-100089235D01*
X215498773Y-100095196D01*
X215474505Y-100098796D01*
X215450001Y-100100000D01*
X214549999Y-100100000D01*
X214525495Y-100098796D01*
X214501227Y-100095196D01*
X214477428Y-100089235D01*
X214454329Y-100080970D01*
X214432150Y-100070480D01*
X214411107Y-100057868D01*
X214391401Y-100043253D01*
X214373223Y-100026777D01*
X214356747Y-100008599D01*
X214342132Y-99988893D01*
X214329520Y-99967850D01*
X214319030Y-99945671D01*
X214310765Y-99922572D01*
X214304804Y-99898773D01*
X214301204Y-99874505D01*
X214300000Y-99850001D01*
X214300000Y-99199999D01*
X214301204Y-99175495D01*
X214304804Y-99151227D01*
X214310765Y-99127428D01*
X214319030Y-99104329D01*
X214329520Y-99082150D01*
X214342132Y-99061107D01*
X214356747Y-99041401D01*
X214373223Y-99023223D01*
X214391401Y-99006747D01*
X214411107Y-98992132D01*
X214432150Y-98979520D01*
X214454329Y-98969030D01*
X214477428Y-98960765D01*
X214501227Y-98954804D01*
X214525495Y-98951204D01*
X214549999Y-98950000D01*
X215450001Y-98950000D01*
X215474505Y-98951204D01*
G37*
G04 #@! TD.AperFunction*
G04 #@! TA.AperFunction,SMDPad,CuDef*
G36*
X215474505Y-96901204D02*
G01*
X215498773Y-96904804D01*
X215522572Y-96910765D01*
X215545671Y-96919030D01*
X215567850Y-96929520D01*
X215588893Y-96942132D01*
X215608599Y-96956747D01*
X215626777Y-96973223D01*
X215643253Y-96991401D01*
X215657868Y-97011107D01*
X215670480Y-97032150D01*
X215680970Y-97054329D01*
X215689235Y-97077428D01*
X215695196Y-97101227D01*
X215698796Y-97125495D01*
X215700000Y-97149999D01*
X215700000Y-97800001D01*
X215698796Y-97824505D01*
X215695196Y-97848773D01*
X215689235Y-97872572D01*
X215680970Y-97895671D01*
X215670480Y-97917850D01*
X215657868Y-97938893D01*
X215643253Y-97958599D01*
X215626777Y-97976777D01*
X215608599Y-97993253D01*
X215588893Y-98007868D01*
X215567850Y-98020480D01*
X215545671Y-98030970D01*
X215522572Y-98039235D01*
X215498773Y-98045196D01*
X215474505Y-98048796D01*
X215450001Y-98050000D01*
X214549999Y-98050000D01*
X214525495Y-98048796D01*
X214501227Y-98045196D01*
X214477428Y-98039235D01*
X214454329Y-98030970D01*
X214432150Y-98020480D01*
X214411107Y-98007868D01*
X214391401Y-97993253D01*
X214373223Y-97976777D01*
X214356747Y-97958599D01*
X214342132Y-97938893D01*
X214329520Y-97917850D01*
X214319030Y-97895671D01*
X214310765Y-97872572D01*
X214304804Y-97848773D01*
X214301204Y-97824505D01*
X214300000Y-97800001D01*
X214300000Y-97149999D01*
X214301204Y-97125495D01*
X214304804Y-97101227D01*
X214310765Y-97077428D01*
X214319030Y-97054329D01*
X214329520Y-97032150D01*
X214342132Y-97011107D01*
X214356747Y-96991401D01*
X214373223Y-96973223D01*
X214391401Y-96956747D01*
X214411107Y-96942132D01*
X214432150Y-96929520D01*
X214454329Y-96919030D01*
X214477428Y-96910765D01*
X214501227Y-96904804D01*
X214525495Y-96901204D01*
X214549999Y-96900000D01*
X215450001Y-96900000D01*
X215474505Y-96901204D01*
G37*
G04 #@! TD.AperFunction*
G04 #@! TA.AperFunction,SMDPad,CuDef*
G36*
X208474505Y-82451204D02*
G01*
X208498773Y-82454804D01*
X208522572Y-82460765D01*
X208545671Y-82469030D01*
X208567850Y-82479520D01*
X208588893Y-82492132D01*
X208608599Y-82506747D01*
X208626777Y-82523223D01*
X208643253Y-82541401D01*
X208657868Y-82561107D01*
X208670480Y-82582150D01*
X208680970Y-82604329D01*
X208689235Y-82627428D01*
X208695196Y-82651227D01*
X208698796Y-82675495D01*
X208700000Y-82699999D01*
X208700000Y-83350001D01*
X208698796Y-83374505D01*
X208695196Y-83398773D01*
X208689235Y-83422572D01*
X208680970Y-83445671D01*
X208670480Y-83467850D01*
X208657868Y-83488893D01*
X208643253Y-83508599D01*
X208626777Y-83526777D01*
X208608599Y-83543253D01*
X208588893Y-83557868D01*
X208567850Y-83570480D01*
X208545671Y-83580970D01*
X208522572Y-83589235D01*
X208498773Y-83595196D01*
X208474505Y-83598796D01*
X208450001Y-83600000D01*
X207549999Y-83600000D01*
X207525495Y-83598796D01*
X207501227Y-83595196D01*
X207477428Y-83589235D01*
X207454329Y-83580970D01*
X207432150Y-83570480D01*
X207411107Y-83557868D01*
X207391401Y-83543253D01*
X207373223Y-83526777D01*
X207356747Y-83508599D01*
X207342132Y-83488893D01*
X207329520Y-83467850D01*
X207319030Y-83445671D01*
X207310765Y-83422572D01*
X207304804Y-83398773D01*
X207301204Y-83374505D01*
X207300000Y-83350001D01*
X207300000Y-82699999D01*
X207301204Y-82675495D01*
X207304804Y-82651227D01*
X207310765Y-82627428D01*
X207319030Y-82604329D01*
X207329520Y-82582150D01*
X207342132Y-82561107D01*
X207356747Y-82541401D01*
X207373223Y-82523223D01*
X207391401Y-82506747D01*
X207411107Y-82492132D01*
X207432150Y-82479520D01*
X207454329Y-82469030D01*
X207477428Y-82460765D01*
X207501227Y-82454804D01*
X207525495Y-82451204D01*
X207549999Y-82450000D01*
X208450001Y-82450000D01*
X208474505Y-82451204D01*
G37*
G04 #@! TD.AperFunction*
G04 #@! TA.AperFunction,SMDPad,CuDef*
G36*
X208474505Y-80401204D02*
G01*
X208498773Y-80404804D01*
X208522572Y-80410765D01*
X208545671Y-80419030D01*
X208567850Y-80429520D01*
X208588893Y-80442132D01*
X208608599Y-80456747D01*
X208626777Y-80473223D01*
X208643253Y-80491401D01*
X208657868Y-80511107D01*
X208670480Y-80532150D01*
X208680970Y-80554329D01*
X208689235Y-80577428D01*
X208695196Y-80601227D01*
X208698796Y-80625495D01*
X208700000Y-80649999D01*
X208700000Y-81300001D01*
X208698796Y-81324505D01*
X208695196Y-81348773D01*
X208689235Y-81372572D01*
X208680970Y-81395671D01*
X208670480Y-81417850D01*
X208657868Y-81438893D01*
X208643253Y-81458599D01*
X208626777Y-81476777D01*
X208608599Y-81493253D01*
X208588893Y-81507868D01*
X208567850Y-81520480D01*
X208545671Y-81530970D01*
X208522572Y-81539235D01*
X208498773Y-81545196D01*
X208474505Y-81548796D01*
X208450001Y-81550000D01*
X207549999Y-81550000D01*
X207525495Y-81548796D01*
X207501227Y-81545196D01*
X207477428Y-81539235D01*
X207454329Y-81530970D01*
X207432150Y-81520480D01*
X207411107Y-81507868D01*
X207391401Y-81493253D01*
X207373223Y-81476777D01*
X207356747Y-81458599D01*
X207342132Y-81438893D01*
X207329520Y-81417850D01*
X207319030Y-81395671D01*
X207310765Y-81372572D01*
X207304804Y-81348773D01*
X207301204Y-81324505D01*
X207300000Y-81300001D01*
X207300000Y-80649999D01*
X207301204Y-80625495D01*
X207304804Y-80601227D01*
X207310765Y-80577428D01*
X207319030Y-80554329D01*
X207329520Y-80532150D01*
X207342132Y-80511107D01*
X207356747Y-80491401D01*
X207373223Y-80473223D01*
X207391401Y-80456747D01*
X207411107Y-80442132D01*
X207432150Y-80429520D01*
X207454329Y-80419030D01*
X207477428Y-80410765D01*
X207501227Y-80404804D01*
X207525495Y-80401204D01*
X207549999Y-80400000D01*
X208450001Y-80400000D01*
X208474505Y-80401204D01*
G37*
G04 #@! TD.AperFunction*
G04 #@! TA.AperFunction,SMDPad,CuDef*
G36*
X208474505Y-98951204D02*
G01*
X208498773Y-98954804D01*
X208522572Y-98960765D01*
X208545671Y-98969030D01*
X208567850Y-98979520D01*
X208588893Y-98992132D01*
X208608599Y-99006747D01*
X208626777Y-99023223D01*
X208643253Y-99041401D01*
X208657868Y-99061107D01*
X208670480Y-99082150D01*
X208680970Y-99104329D01*
X208689235Y-99127428D01*
X208695196Y-99151227D01*
X208698796Y-99175495D01*
X208700000Y-99199999D01*
X208700000Y-99850001D01*
X208698796Y-99874505D01*
X208695196Y-99898773D01*
X208689235Y-99922572D01*
X208680970Y-99945671D01*
X208670480Y-99967850D01*
X208657868Y-99988893D01*
X208643253Y-100008599D01*
X208626777Y-100026777D01*
X208608599Y-100043253D01*
X208588893Y-100057868D01*
X208567850Y-100070480D01*
X208545671Y-100080970D01*
X208522572Y-100089235D01*
X208498773Y-100095196D01*
X208474505Y-100098796D01*
X208450001Y-100100000D01*
X207549999Y-100100000D01*
X207525495Y-100098796D01*
X207501227Y-100095196D01*
X207477428Y-100089235D01*
X207454329Y-100080970D01*
X207432150Y-100070480D01*
X207411107Y-100057868D01*
X207391401Y-100043253D01*
X207373223Y-100026777D01*
X207356747Y-100008599D01*
X207342132Y-99988893D01*
X207329520Y-99967850D01*
X207319030Y-99945671D01*
X207310765Y-99922572D01*
X207304804Y-99898773D01*
X207301204Y-99874505D01*
X207300000Y-99850001D01*
X207300000Y-99199999D01*
X207301204Y-99175495D01*
X207304804Y-99151227D01*
X207310765Y-99127428D01*
X207319030Y-99104329D01*
X207329520Y-99082150D01*
X207342132Y-99061107D01*
X207356747Y-99041401D01*
X207373223Y-99023223D01*
X207391401Y-99006747D01*
X207411107Y-98992132D01*
X207432150Y-98979520D01*
X207454329Y-98969030D01*
X207477428Y-98960765D01*
X207501227Y-98954804D01*
X207525495Y-98951204D01*
X207549999Y-98950000D01*
X208450001Y-98950000D01*
X208474505Y-98951204D01*
G37*
G04 #@! TD.AperFunction*
G04 #@! TA.AperFunction,SMDPad,CuDef*
G36*
X208474505Y-96901204D02*
G01*
X208498773Y-96904804D01*
X208522572Y-96910765D01*
X208545671Y-96919030D01*
X208567850Y-96929520D01*
X208588893Y-96942132D01*
X208608599Y-96956747D01*
X208626777Y-96973223D01*
X208643253Y-96991401D01*
X208657868Y-97011107D01*
X208670480Y-97032150D01*
X208680970Y-97054329D01*
X208689235Y-97077428D01*
X208695196Y-97101227D01*
X208698796Y-97125495D01*
X208700000Y-97149999D01*
X208700000Y-97800001D01*
X208698796Y-97824505D01*
X208695196Y-97848773D01*
X208689235Y-97872572D01*
X208680970Y-97895671D01*
X208670480Y-97917850D01*
X208657868Y-97938893D01*
X208643253Y-97958599D01*
X208626777Y-97976777D01*
X208608599Y-97993253D01*
X208588893Y-98007868D01*
X208567850Y-98020480D01*
X208545671Y-98030970D01*
X208522572Y-98039235D01*
X208498773Y-98045196D01*
X208474505Y-98048796D01*
X208450001Y-98050000D01*
X207549999Y-98050000D01*
X207525495Y-98048796D01*
X207501227Y-98045196D01*
X207477428Y-98039235D01*
X207454329Y-98030970D01*
X207432150Y-98020480D01*
X207411107Y-98007868D01*
X207391401Y-97993253D01*
X207373223Y-97976777D01*
X207356747Y-97958599D01*
X207342132Y-97938893D01*
X207329520Y-97917850D01*
X207319030Y-97895671D01*
X207310765Y-97872572D01*
X207304804Y-97848773D01*
X207301204Y-97824505D01*
X207300000Y-97800001D01*
X207300000Y-97149999D01*
X207301204Y-97125495D01*
X207304804Y-97101227D01*
X207310765Y-97077428D01*
X207319030Y-97054329D01*
X207329520Y-97032150D01*
X207342132Y-97011107D01*
X207356747Y-96991401D01*
X207373223Y-96973223D01*
X207391401Y-96956747D01*
X207411107Y-96942132D01*
X207432150Y-96929520D01*
X207454329Y-96919030D01*
X207477428Y-96910765D01*
X207501227Y-96904804D01*
X207525495Y-96901204D01*
X207549999Y-96900000D01*
X208450001Y-96900000D01*
X208474505Y-96901204D01*
G37*
G04 #@! TD.AperFunction*
G04 #@! TA.AperFunction,SMDPad,CuDef*
G36*
X204824505Y-106801204D02*
G01*
X204848773Y-106804804D01*
X204872572Y-106810765D01*
X204895671Y-106819030D01*
X204917850Y-106829520D01*
X204938893Y-106842132D01*
X204958599Y-106856747D01*
X204976777Y-106873223D01*
X204993253Y-106891401D01*
X205007868Y-106911107D01*
X205020480Y-106932150D01*
X205030970Y-106954329D01*
X205039235Y-106977428D01*
X205045196Y-107001227D01*
X205048796Y-107025495D01*
X205050000Y-107049999D01*
X205050000Y-107950001D01*
X205048796Y-107974505D01*
X205045196Y-107998773D01*
X205039235Y-108022572D01*
X205030970Y-108045671D01*
X205020480Y-108067850D01*
X205007868Y-108088893D01*
X204993253Y-108108599D01*
X204976777Y-108126777D01*
X204958599Y-108143253D01*
X204938893Y-108157868D01*
X204917850Y-108170480D01*
X204895671Y-108180970D01*
X204872572Y-108189235D01*
X204848773Y-108195196D01*
X204824505Y-108198796D01*
X204800001Y-108200000D01*
X204149999Y-108200000D01*
X204125495Y-108198796D01*
X204101227Y-108195196D01*
X204077428Y-108189235D01*
X204054329Y-108180970D01*
X204032150Y-108170480D01*
X204011107Y-108157868D01*
X203991401Y-108143253D01*
X203973223Y-108126777D01*
X203956747Y-108108599D01*
X203942132Y-108088893D01*
X203929520Y-108067850D01*
X203919030Y-108045671D01*
X203910765Y-108022572D01*
X203904804Y-107998773D01*
X203901204Y-107974505D01*
X203900000Y-107950001D01*
X203900000Y-107049999D01*
X203901204Y-107025495D01*
X203904804Y-107001227D01*
X203910765Y-106977428D01*
X203919030Y-106954329D01*
X203929520Y-106932150D01*
X203942132Y-106911107D01*
X203956747Y-106891401D01*
X203973223Y-106873223D01*
X203991401Y-106856747D01*
X204011107Y-106842132D01*
X204032150Y-106829520D01*
X204054329Y-106819030D01*
X204077428Y-106810765D01*
X204101227Y-106804804D01*
X204125495Y-106801204D01*
X204149999Y-106800000D01*
X204800001Y-106800000D01*
X204824505Y-106801204D01*
G37*
G04 #@! TD.AperFunction*
G04 #@! TA.AperFunction,SMDPad,CuDef*
G36*
X206874505Y-106801204D02*
G01*
X206898773Y-106804804D01*
X206922572Y-106810765D01*
X206945671Y-106819030D01*
X206967850Y-106829520D01*
X206988893Y-106842132D01*
X207008599Y-106856747D01*
X207026777Y-106873223D01*
X207043253Y-106891401D01*
X207057868Y-106911107D01*
X207070480Y-106932150D01*
X207080970Y-106954329D01*
X207089235Y-106977428D01*
X207095196Y-107001227D01*
X207098796Y-107025495D01*
X207100000Y-107049999D01*
X207100000Y-107950001D01*
X207098796Y-107974505D01*
X207095196Y-107998773D01*
X207089235Y-108022572D01*
X207080970Y-108045671D01*
X207070480Y-108067850D01*
X207057868Y-108088893D01*
X207043253Y-108108599D01*
X207026777Y-108126777D01*
X207008599Y-108143253D01*
X206988893Y-108157868D01*
X206967850Y-108170480D01*
X206945671Y-108180970D01*
X206922572Y-108189235D01*
X206898773Y-108195196D01*
X206874505Y-108198796D01*
X206850001Y-108200000D01*
X206199999Y-108200000D01*
X206175495Y-108198796D01*
X206151227Y-108195196D01*
X206127428Y-108189235D01*
X206104329Y-108180970D01*
X206082150Y-108170480D01*
X206061107Y-108157868D01*
X206041401Y-108143253D01*
X206023223Y-108126777D01*
X206006747Y-108108599D01*
X205992132Y-108088893D01*
X205979520Y-108067850D01*
X205969030Y-108045671D01*
X205960765Y-108022572D01*
X205954804Y-107998773D01*
X205951204Y-107974505D01*
X205950000Y-107950001D01*
X205950000Y-107049999D01*
X205951204Y-107025495D01*
X205954804Y-107001227D01*
X205960765Y-106977428D01*
X205969030Y-106954329D01*
X205979520Y-106932150D01*
X205992132Y-106911107D01*
X206006747Y-106891401D01*
X206023223Y-106873223D01*
X206041401Y-106856747D01*
X206061107Y-106842132D01*
X206082150Y-106829520D01*
X206104329Y-106819030D01*
X206127428Y-106810765D01*
X206151227Y-106804804D01*
X206175495Y-106801204D01*
X206199999Y-106800000D01*
X206850001Y-106800000D01*
X206874505Y-106801204D01*
G37*
G04 #@! TD.AperFunction*
G04 #@! TA.AperFunction,SMDPad,CuDef*
G36*
X206874505Y-102301204D02*
G01*
X206898773Y-102304804D01*
X206922572Y-102310765D01*
X206945671Y-102319030D01*
X206967850Y-102329520D01*
X206988893Y-102342132D01*
X207008599Y-102356747D01*
X207026777Y-102373223D01*
X207043253Y-102391401D01*
X207057868Y-102411107D01*
X207070480Y-102432150D01*
X207080970Y-102454329D01*
X207089235Y-102477428D01*
X207095196Y-102501227D01*
X207098796Y-102525495D01*
X207100000Y-102549999D01*
X207100000Y-103450001D01*
X207098796Y-103474505D01*
X207095196Y-103498773D01*
X207089235Y-103522572D01*
X207080970Y-103545671D01*
X207070480Y-103567850D01*
X207057868Y-103588893D01*
X207043253Y-103608599D01*
X207026777Y-103626777D01*
X207008599Y-103643253D01*
X206988893Y-103657868D01*
X206967850Y-103670480D01*
X206945671Y-103680970D01*
X206922572Y-103689235D01*
X206898773Y-103695196D01*
X206874505Y-103698796D01*
X206850001Y-103700000D01*
X206199999Y-103700000D01*
X206175495Y-103698796D01*
X206151227Y-103695196D01*
X206127428Y-103689235D01*
X206104329Y-103680970D01*
X206082150Y-103670480D01*
X206061107Y-103657868D01*
X206041401Y-103643253D01*
X206023223Y-103626777D01*
X206006747Y-103608599D01*
X205992132Y-103588893D01*
X205979520Y-103567850D01*
X205969030Y-103545671D01*
X205960765Y-103522572D01*
X205954804Y-103498773D01*
X205951204Y-103474505D01*
X205950000Y-103450001D01*
X205950000Y-102549999D01*
X205951204Y-102525495D01*
X205954804Y-102501227D01*
X205960765Y-102477428D01*
X205969030Y-102454329D01*
X205979520Y-102432150D01*
X205992132Y-102411107D01*
X206006747Y-102391401D01*
X206023223Y-102373223D01*
X206041401Y-102356747D01*
X206061107Y-102342132D01*
X206082150Y-102329520D01*
X206104329Y-102319030D01*
X206127428Y-102310765D01*
X206151227Y-102304804D01*
X206175495Y-102301204D01*
X206199999Y-102300000D01*
X206850001Y-102300000D01*
X206874505Y-102301204D01*
G37*
G04 #@! TD.AperFunction*
G04 #@! TA.AperFunction,SMDPad,CuDef*
G36*
X204824505Y-102301204D02*
G01*
X204848773Y-102304804D01*
X204872572Y-102310765D01*
X204895671Y-102319030D01*
X204917850Y-102329520D01*
X204938893Y-102342132D01*
X204958599Y-102356747D01*
X204976777Y-102373223D01*
X204993253Y-102391401D01*
X205007868Y-102411107D01*
X205020480Y-102432150D01*
X205030970Y-102454329D01*
X205039235Y-102477428D01*
X205045196Y-102501227D01*
X205048796Y-102525495D01*
X205050000Y-102549999D01*
X205050000Y-103450001D01*
X205048796Y-103474505D01*
X205045196Y-103498773D01*
X205039235Y-103522572D01*
X205030970Y-103545671D01*
X205020480Y-103567850D01*
X205007868Y-103588893D01*
X204993253Y-103608599D01*
X204976777Y-103626777D01*
X204958599Y-103643253D01*
X204938893Y-103657868D01*
X204917850Y-103670480D01*
X204895671Y-103680970D01*
X204872572Y-103689235D01*
X204848773Y-103695196D01*
X204824505Y-103698796D01*
X204800001Y-103700000D01*
X204149999Y-103700000D01*
X204125495Y-103698796D01*
X204101227Y-103695196D01*
X204077428Y-103689235D01*
X204054329Y-103680970D01*
X204032150Y-103670480D01*
X204011107Y-103657868D01*
X203991401Y-103643253D01*
X203973223Y-103626777D01*
X203956747Y-103608599D01*
X203942132Y-103588893D01*
X203929520Y-103567850D01*
X203919030Y-103545671D01*
X203910765Y-103522572D01*
X203904804Y-103498773D01*
X203901204Y-103474505D01*
X203900000Y-103450001D01*
X203900000Y-102549999D01*
X203901204Y-102525495D01*
X203904804Y-102501227D01*
X203910765Y-102477428D01*
X203919030Y-102454329D01*
X203929520Y-102432150D01*
X203942132Y-102411107D01*
X203956747Y-102391401D01*
X203973223Y-102373223D01*
X203991401Y-102356747D01*
X204011107Y-102342132D01*
X204032150Y-102329520D01*
X204054329Y-102319030D01*
X204077428Y-102310765D01*
X204101227Y-102304804D01*
X204125495Y-102301204D01*
X204149999Y-102300000D01*
X204800001Y-102300000D01*
X204824505Y-102301204D01*
G37*
G04 #@! TD.AperFunction*
D17*
X202500000Y-83025000D03*
X183000000Y-73250000D03*
X202600000Y-73250000D03*
X202500000Y-99525000D03*
G04 #@! TA.AperFunction,SMDPad,CuDef*
D10*
G36*
X196624505Y-72551204D02*
G01*
X196648773Y-72554804D01*
X196672572Y-72560765D01*
X196695671Y-72569030D01*
X196717850Y-72579520D01*
X196738893Y-72592132D01*
X196758599Y-72606747D01*
X196776777Y-72623223D01*
X196793253Y-72641401D01*
X196807868Y-72661107D01*
X196820480Y-72682150D01*
X196830970Y-72704329D01*
X196839235Y-72727428D01*
X196845196Y-72751227D01*
X196848796Y-72775495D01*
X196850000Y-72799999D01*
X196850000Y-73700001D01*
X196848796Y-73724505D01*
X196845196Y-73748773D01*
X196839235Y-73772572D01*
X196830970Y-73795671D01*
X196820480Y-73817850D01*
X196807868Y-73838893D01*
X196793253Y-73858599D01*
X196776777Y-73876777D01*
X196758599Y-73893253D01*
X196738893Y-73907868D01*
X196717850Y-73920480D01*
X196695671Y-73930970D01*
X196672572Y-73939235D01*
X196648773Y-73945196D01*
X196624505Y-73948796D01*
X196600001Y-73950000D01*
X195949999Y-73950000D01*
X195925495Y-73948796D01*
X195901227Y-73945196D01*
X195877428Y-73939235D01*
X195854329Y-73930970D01*
X195832150Y-73920480D01*
X195811107Y-73907868D01*
X195791401Y-73893253D01*
X195773223Y-73876777D01*
X195756747Y-73858599D01*
X195742132Y-73838893D01*
X195729520Y-73817850D01*
X195719030Y-73795671D01*
X195710765Y-73772572D01*
X195704804Y-73748773D01*
X195701204Y-73724505D01*
X195700000Y-73700001D01*
X195700000Y-72799999D01*
X195701204Y-72775495D01*
X195704804Y-72751227D01*
X195710765Y-72727428D01*
X195719030Y-72704329D01*
X195729520Y-72682150D01*
X195742132Y-72661107D01*
X195756747Y-72641401D01*
X195773223Y-72623223D01*
X195791401Y-72606747D01*
X195811107Y-72592132D01*
X195832150Y-72579520D01*
X195854329Y-72569030D01*
X195877428Y-72560765D01*
X195901227Y-72554804D01*
X195925495Y-72551204D01*
X195949999Y-72550000D01*
X196600001Y-72550000D01*
X196624505Y-72551204D01*
G37*
G04 #@! TD.AperFunction*
G04 #@! TA.AperFunction,SMDPad,CuDef*
G36*
X194574505Y-72551204D02*
G01*
X194598773Y-72554804D01*
X194622572Y-72560765D01*
X194645671Y-72569030D01*
X194667850Y-72579520D01*
X194688893Y-72592132D01*
X194708599Y-72606747D01*
X194726777Y-72623223D01*
X194743253Y-72641401D01*
X194757868Y-72661107D01*
X194770480Y-72682150D01*
X194780970Y-72704329D01*
X194789235Y-72727428D01*
X194795196Y-72751227D01*
X194798796Y-72775495D01*
X194800000Y-72799999D01*
X194800000Y-73700001D01*
X194798796Y-73724505D01*
X194795196Y-73748773D01*
X194789235Y-73772572D01*
X194780970Y-73795671D01*
X194770480Y-73817850D01*
X194757868Y-73838893D01*
X194743253Y-73858599D01*
X194726777Y-73876777D01*
X194708599Y-73893253D01*
X194688893Y-73907868D01*
X194667850Y-73920480D01*
X194645671Y-73930970D01*
X194622572Y-73939235D01*
X194598773Y-73945196D01*
X194574505Y-73948796D01*
X194550001Y-73950000D01*
X193899999Y-73950000D01*
X193875495Y-73948796D01*
X193851227Y-73945196D01*
X193827428Y-73939235D01*
X193804329Y-73930970D01*
X193782150Y-73920480D01*
X193761107Y-73907868D01*
X193741401Y-73893253D01*
X193723223Y-73876777D01*
X193706747Y-73858599D01*
X193692132Y-73838893D01*
X193679520Y-73817850D01*
X193669030Y-73795671D01*
X193660765Y-73772572D01*
X193654804Y-73748773D01*
X193651204Y-73724505D01*
X193650000Y-73700001D01*
X193650000Y-72799999D01*
X193651204Y-72775495D01*
X193654804Y-72751227D01*
X193660765Y-72727428D01*
X193669030Y-72704329D01*
X193679520Y-72682150D01*
X193692132Y-72661107D01*
X193706747Y-72641401D01*
X193723223Y-72623223D01*
X193741401Y-72606747D01*
X193761107Y-72592132D01*
X193782150Y-72579520D01*
X193804329Y-72569030D01*
X193827428Y-72560765D01*
X193851227Y-72554804D01*
X193875495Y-72551204D01*
X193899999Y-72550000D01*
X194550001Y-72550000D01*
X194574505Y-72551204D01*
G37*
G04 #@! TD.AperFunction*
G04 #@! TA.AperFunction,SMDPad,CuDef*
G36*
X191624505Y-72551204D02*
G01*
X191648773Y-72554804D01*
X191672572Y-72560765D01*
X191695671Y-72569030D01*
X191717850Y-72579520D01*
X191738893Y-72592132D01*
X191758599Y-72606747D01*
X191776777Y-72623223D01*
X191793253Y-72641401D01*
X191807868Y-72661107D01*
X191820480Y-72682150D01*
X191830970Y-72704329D01*
X191839235Y-72727428D01*
X191845196Y-72751227D01*
X191848796Y-72775495D01*
X191850000Y-72799999D01*
X191850000Y-73700001D01*
X191848796Y-73724505D01*
X191845196Y-73748773D01*
X191839235Y-73772572D01*
X191830970Y-73795671D01*
X191820480Y-73817850D01*
X191807868Y-73838893D01*
X191793253Y-73858599D01*
X191776777Y-73876777D01*
X191758599Y-73893253D01*
X191738893Y-73907868D01*
X191717850Y-73920480D01*
X191695671Y-73930970D01*
X191672572Y-73939235D01*
X191648773Y-73945196D01*
X191624505Y-73948796D01*
X191600001Y-73950000D01*
X190949999Y-73950000D01*
X190925495Y-73948796D01*
X190901227Y-73945196D01*
X190877428Y-73939235D01*
X190854329Y-73930970D01*
X190832150Y-73920480D01*
X190811107Y-73907868D01*
X190791401Y-73893253D01*
X190773223Y-73876777D01*
X190756747Y-73858599D01*
X190742132Y-73838893D01*
X190729520Y-73817850D01*
X190719030Y-73795671D01*
X190710765Y-73772572D01*
X190704804Y-73748773D01*
X190701204Y-73724505D01*
X190700000Y-73700001D01*
X190700000Y-72799999D01*
X190701204Y-72775495D01*
X190704804Y-72751227D01*
X190710765Y-72727428D01*
X190719030Y-72704329D01*
X190729520Y-72682150D01*
X190742132Y-72661107D01*
X190756747Y-72641401D01*
X190773223Y-72623223D01*
X190791401Y-72606747D01*
X190811107Y-72592132D01*
X190832150Y-72579520D01*
X190854329Y-72569030D01*
X190877428Y-72560765D01*
X190901227Y-72554804D01*
X190925495Y-72551204D01*
X190949999Y-72550000D01*
X191600001Y-72550000D01*
X191624505Y-72551204D01*
G37*
G04 #@! TD.AperFunction*
G04 #@! TA.AperFunction,SMDPad,CuDef*
G36*
X189574505Y-72551204D02*
G01*
X189598773Y-72554804D01*
X189622572Y-72560765D01*
X189645671Y-72569030D01*
X189667850Y-72579520D01*
X189688893Y-72592132D01*
X189708599Y-72606747D01*
X189726777Y-72623223D01*
X189743253Y-72641401D01*
X189757868Y-72661107D01*
X189770480Y-72682150D01*
X189780970Y-72704329D01*
X189789235Y-72727428D01*
X189795196Y-72751227D01*
X189798796Y-72775495D01*
X189800000Y-72799999D01*
X189800000Y-73700001D01*
X189798796Y-73724505D01*
X189795196Y-73748773D01*
X189789235Y-73772572D01*
X189780970Y-73795671D01*
X189770480Y-73817850D01*
X189757868Y-73838893D01*
X189743253Y-73858599D01*
X189726777Y-73876777D01*
X189708599Y-73893253D01*
X189688893Y-73907868D01*
X189667850Y-73920480D01*
X189645671Y-73930970D01*
X189622572Y-73939235D01*
X189598773Y-73945196D01*
X189574505Y-73948796D01*
X189550001Y-73950000D01*
X188899999Y-73950000D01*
X188875495Y-73948796D01*
X188851227Y-73945196D01*
X188827428Y-73939235D01*
X188804329Y-73930970D01*
X188782150Y-73920480D01*
X188761107Y-73907868D01*
X188741401Y-73893253D01*
X188723223Y-73876777D01*
X188706747Y-73858599D01*
X188692132Y-73838893D01*
X188679520Y-73817850D01*
X188669030Y-73795671D01*
X188660765Y-73772572D01*
X188654804Y-73748773D01*
X188651204Y-73724505D01*
X188650000Y-73700001D01*
X188650000Y-72799999D01*
X188651204Y-72775495D01*
X188654804Y-72751227D01*
X188660765Y-72727428D01*
X188669030Y-72704329D01*
X188679520Y-72682150D01*
X188692132Y-72661107D01*
X188706747Y-72641401D01*
X188723223Y-72623223D01*
X188741401Y-72606747D01*
X188761107Y-72592132D01*
X188782150Y-72579520D01*
X188804329Y-72569030D01*
X188827428Y-72560765D01*
X188851227Y-72554804D01*
X188875495Y-72551204D01*
X188899999Y-72550000D01*
X189550001Y-72550000D01*
X189574505Y-72551204D01*
G37*
G04 #@! TD.AperFunction*
D18*
X181000000Y-139000000D03*
X181000000Y-146620000D03*
X175920000Y-139000000D03*
X173380000Y-139000000D03*
X175920000Y-146620000D03*
X173380000Y-146620000D03*
D19*
X177000000Y-120500000D03*
X218500000Y-160250000D03*
D20*
X208000000Y-105000000D03*
X208000000Y-97475000D03*
X208000000Y-80975000D03*
X208000000Y-114000000D03*
D21*
X208000000Y-97475000D02*
X215000000Y-97475000D01*
X207100000Y-107500000D02*
X208000000Y-106600000D01*
X206525000Y-107500000D02*
X207100000Y-107500000D01*
X208000000Y-106600000D02*
X208000000Y-105000000D01*
X208700000Y-80975000D02*
X215000000Y-80975000D01*
X208000000Y-80975000D02*
X208700000Y-80975000D01*
X207100000Y-91000000D02*
X206525000Y-91000000D01*
X208000000Y-91900000D02*
X207100000Y-91000000D01*
X208000000Y-97475000D02*
X208000000Y-91900000D01*
X189225000Y-73250000D02*
X183000000Y-73250000D01*
X214475000Y-114000000D02*
X214500000Y-113975000D01*
X208000000Y-114000000D02*
X214475000Y-114000000D01*
X194225000Y-73250000D02*
X191275000Y-73250000D01*
X215000000Y-83600000D02*
X215000000Y-83025000D01*
X213170000Y-87450000D02*
X215000000Y-85620000D01*
X215000000Y-85620000D02*
X215000000Y-83600000D01*
X212310000Y-87450000D02*
X213170000Y-87450000D01*
X220975000Y-83025000D02*
X221000000Y-83000000D01*
X215000000Y-83025000D02*
X220975000Y-83025000D01*
X201025000Y-91000000D02*
X204475000Y-91000000D01*
D22*
X195725000Y-100500000D02*
X186575000Y-100500000D01*
X186575000Y-106400000D02*
X186575000Y-100500000D01*
X187675000Y-107500000D02*
X186575000Y-106400000D01*
X198975000Y-107500000D02*
X187675000Y-107500000D01*
D21*
X204475000Y-107500000D02*
X201025000Y-107500000D01*
X209690000Y-103000000D02*
X206525000Y-103000000D01*
X208000000Y-99525000D02*
X209225000Y-99525000D01*
X209225000Y-99525000D02*
X209700000Y-100000000D01*
X209690000Y-100010000D02*
X209690000Y-103000000D01*
X209700000Y-100000000D02*
X209690000Y-100010000D01*
X208000000Y-99525000D02*
X202500000Y-99525000D01*
X204435000Y-103040000D02*
X204475000Y-103000000D01*
X195725000Y-103040000D02*
X204435000Y-103040000D01*
D22*
X186500000Y-89900000D02*
X186500000Y-84000000D01*
X187600000Y-91000000D02*
X186500000Y-89900000D01*
X198975000Y-91000000D02*
X187600000Y-91000000D01*
X195650000Y-84000000D02*
X186500000Y-84000000D01*
D21*
X215000000Y-100100000D02*
X215000000Y-99525000D01*
X215000000Y-102120000D02*
X215000000Y-100100000D01*
X213170000Y-103950000D02*
X215000000Y-102120000D01*
X212310000Y-103950000D02*
X213170000Y-103950000D01*
X220975000Y-99525000D02*
X221000000Y-99500000D01*
X215000000Y-99525000D02*
X220975000Y-99525000D01*
X206525000Y-86500000D02*
X209690000Y-86500000D01*
X208000000Y-83025000D02*
X209225000Y-83025000D01*
X209690000Y-83490000D02*
X209690000Y-86500000D01*
X209225000Y-83025000D02*
X209690000Y-83490000D01*
X207300000Y-83025000D02*
X202500000Y-83025000D01*
X208000000Y-83025000D02*
X207300000Y-83025000D01*
X204435000Y-86540000D02*
X204475000Y-86500000D01*
X195650000Y-86540000D02*
X204435000Y-86540000D01*
D23*
G36*
X192373000Y-72748000D02*
G01*
X192223702Y-72748000D01*
X192216741Y-72677322D01*
X192180958Y-72559359D01*
X192122848Y-72450644D01*
X192044646Y-72355354D01*
X191949356Y-72277152D01*
X191840641Y-72219042D01*
X191722678Y-72183259D01*
X191600001Y-72171176D01*
X190949999Y-72171176D01*
X190827322Y-72183259D01*
X190709359Y-72219042D01*
X190600644Y-72277152D01*
X190505354Y-72355354D01*
X190427152Y-72450644D01*
X190369042Y-72559359D01*
X190333259Y-72677322D01*
X190321176Y-72799999D01*
X190321176Y-73700001D01*
X190333259Y-73822678D01*
X190369042Y-73940641D01*
X190427152Y-74049356D01*
X190505354Y-74144646D01*
X190600644Y-74222848D01*
X190709359Y-74280958D01*
X190827322Y-74316741D01*
X190949999Y-74328824D01*
X191600001Y-74328824D01*
X191722678Y-74316741D01*
X191840641Y-74280958D01*
X191949356Y-74222848D01*
X192044646Y-74144646D01*
X192122848Y-74049356D01*
X192180958Y-73940641D01*
X192216741Y-73822678D01*
X192223702Y-73752000D01*
X192373000Y-73752000D01*
X192373000Y-93373000D01*
X164402000Y-93373000D01*
X164402000Y-91400327D01*
X167948000Y-91400327D01*
X167948000Y-91599673D01*
X167986890Y-91795190D01*
X168063177Y-91979362D01*
X168173928Y-92145113D01*
X168314887Y-92286072D01*
X168480638Y-92396823D01*
X168664810Y-92473110D01*
X168860327Y-92512000D01*
X169059673Y-92512000D01*
X169255190Y-92473110D01*
X169439362Y-92396823D01*
X169605113Y-92286072D01*
X169746072Y-92145113D01*
X169856823Y-91979362D01*
X169933110Y-91795190D01*
X169972000Y-91599673D01*
X169972000Y-91400327D01*
X169933110Y-91204810D01*
X169856823Y-91020638D01*
X169746072Y-90854887D01*
X169605113Y-90713928D01*
X169439362Y-90603177D01*
X169255190Y-90526890D01*
X169059673Y-90488000D01*
X168860327Y-90488000D01*
X168664810Y-90526890D01*
X168480638Y-90603177D01*
X168314887Y-90713928D01*
X168173928Y-90854887D01*
X168063177Y-91020638D01*
X167986890Y-91204810D01*
X167948000Y-91400327D01*
X164402000Y-91400327D01*
X164402000Y-88500000D01*
X165607547Y-88500000D01*
X165629307Y-88720931D01*
X165693750Y-88933371D01*
X165798400Y-89129157D01*
X165939235Y-89300765D01*
X166110843Y-89441600D01*
X166306629Y-89546250D01*
X166519069Y-89610693D01*
X166684635Y-89627000D01*
X167315365Y-89627000D01*
X167480931Y-89610693D01*
X167693371Y-89546250D01*
X167889157Y-89441600D01*
X168060765Y-89300765D01*
X168201600Y-89129157D01*
X168306250Y-88933371D01*
X168370693Y-88720931D01*
X168392453Y-88500000D01*
X168370693Y-88279069D01*
X168306250Y-88066629D01*
X168201600Y-87870843D01*
X168060765Y-87699235D01*
X167889157Y-87558400D01*
X167693371Y-87453750D01*
X167480931Y-87389307D01*
X167315365Y-87373000D01*
X166684635Y-87373000D01*
X166519069Y-87389307D01*
X166306629Y-87453750D01*
X166110843Y-87558400D01*
X165939235Y-87699235D01*
X165798400Y-87870843D01*
X165693750Y-88066629D01*
X165629307Y-88279069D01*
X165607547Y-88500000D01*
X164402000Y-88500000D01*
X164402000Y-85500000D01*
X165607547Y-85500000D01*
X165629307Y-85720931D01*
X165693750Y-85933371D01*
X165798400Y-86129157D01*
X165939235Y-86300765D01*
X166110843Y-86441600D01*
X166306629Y-86546250D01*
X166519069Y-86610693D01*
X166684635Y-86627000D01*
X167315365Y-86627000D01*
X167480931Y-86610693D01*
X167693371Y-86546250D01*
X167889157Y-86441600D01*
X168060765Y-86300765D01*
X168201600Y-86129157D01*
X168306250Y-85933371D01*
X168370693Y-85720931D01*
X168392453Y-85500000D01*
X168370693Y-85279069D01*
X168306250Y-85066629D01*
X168201600Y-84870843D01*
X168060765Y-84699235D01*
X167889157Y-84558400D01*
X167693371Y-84453750D01*
X167480931Y-84389307D01*
X167315365Y-84373000D01*
X166684635Y-84373000D01*
X166519069Y-84389307D01*
X166306629Y-84453750D01*
X166110843Y-84558400D01*
X165939235Y-84699235D01*
X165798400Y-84870843D01*
X165693750Y-85066629D01*
X165629307Y-85279069D01*
X165607547Y-85500000D01*
X164402000Y-85500000D01*
X164402000Y-79000000D01*
X165611176Y-79000000D01*
X165611176Y-80000000D01*
X165623259Y-80122677D01*
X165659042Y-80240641D01*
X165717152Y-80349356D01*
X165795354Y-80444646D01*
X165890644Y-80522848D01*
X165999359Y-80580958D01*
X166117323Y-80616741D01*
X166240000Y-80628824D01*
X167760000Y-80628824D01*
X167882677Y-80616741D01*
X168000641Y-80580958D01*
X168109356Y-80522848D01*
X168204646Y-80444646D01*
X168282848Y-80349356D01*
X168340958Y-80240641D01*
X168376741Y-80122677D01*
X168388824Y-80000000D01*
X168388824Y-79000000D01*
X168376741Y-78877323D01*
X168340958Y-78759359D01*
X168282848Y-78650644D01*
X168204646Y-78555354D01*
X168109356Y-78477152D01*
X168000641Y-78419042D01*
X167882677Y-78383259D01*
X167760000Y-78371176D01*
X166240000Y-78371176D01*
X166117323Y-78383259D01*
X165999359Y-78419042D01*
X165890644Y-78477152D01*
X165795354Y-78555354D01*
X165717152Y-78650644D01*
X165659042Y-78759359D01*
X165623259Y-78877323D01*
X165611176Y-79000000D01*
X164402000Y-79000000D01*
X164402000Y-77800000D01*
X174421176Y-77800000D01*
X174421176Y-80200000D01*
X174428455Y-80273905D01*
X174450012Y-80344970D01*
X174485019Y-80410463D01*
X174532131Y-80467869D01*
X174589537Y-80514981D01*
X174655030Y-80549988D01*
X174726095Y-80571545D01*
X174800000Y-80578824D01*
X177200000Y-80578824D01*
X177273905Y-80571545D01*
X177344970Y-80549988D01*
X177410463Y-80514981D01*
X177467869Y-80467869D01*
X177514981Y-80410463D01*
X177549988Y-80344970D01*
X177571545Y-80273905D01*
X177578824Y-80200000D01*
X177578824Y-77800000D01*
X177571545Y-77726095D01*
X177549988Y-77655030D01*
X177514981Y-77589537D01*
X177467869Y-77532131D01*
X177410463Y-77485019D01*
X177344970Y-77450012D01*
X177273905Y-77428455D01*
X177200000Y-77421176D01*
X174800000Y-77421176D01*
X174726095Y-77428455D01*
X174655030Y-77450012D01*
X174589537Y-77485019D01*
X174532131Y-77532131D01*
X174485019Y-77589537D01*
X174450012Y-77655030D01*
X174428455Y-77726095D01*
X174421176Y-77800000D01*
X164402000Y-77800000D01*
X164402000Y-76400327D01*
X167948000Y-76400327D01*
X167948000Y-76599673D01*
X167986890Y-76795190D01*
X168063177Y-76979362D01*
X168173928Y-77145113D01*
X168314887Y-77286072D01*
X168480638Y-77396823D01*
X168664810Y-77473110D01*
X168860327Y-77512000D01*
X169059673Y-77512000D01*
X169255190Y-77473110D01*
X169439362Y-77396823D01*
X169605113Y-77286072D01*
X169746072Y-77145113D01*
X169856823Y-76979362D01*
X169933110Y-76795190D01*
X169972000Y-76599673D01*
X169972000Y-76400327D01*
X169933110Y-76204810D01*
X169856823Y-76020638D01*
X169746072Y-75854887D01*
X169605113Y-75713928D01*
X169439362Y-75603177D01*
X169255190Y-75526890D01*
X169059673Y-75488000D01*
X168860327Y-75488000D01*
X168664810Y-75526890D01*
X168480638Y-75603177D01*
X168314887Y-75713928D01*
X168173928Y-75854887D01*
X168063177Y-76020638D01*
X167986890Y-76204810D01*
X167948000Y-76400327D01*
X164402000Y-76400327D01*
X164402000Y-73074981D01*
X181223000Y-73074981D01*
X181223000Y-73425019D01*
X181291289Y-73768332D01*
X181425243Y-74091725D01*
X181619714Y-74382771D01*
X181867229Y-74630286D01*
X182158275Y-74824757D01*
X182481668Y-74958711D01*
X182824981Y-75027000D01*
X183175019Y-75027000D01*
X183518332Y-74958711D01*
X183841725Y-74824757D01*
X184132771Y-74630286D01*
X184380286Y-74382771D01*
X184574757Y-74091725D01*
X184708711Y-73768332D01*
X184711960Y-73752000D01*
X188276298Y-73752000D01*
X188283259Y-73822678D01*
X188319042Y-73940641D01*
X188377152Y-74049356D01*
X188455354Y-74144646D01*
X188550644Y-74222848D01*
X188659359Y-74280958D01*
X188777322Y-74316741D01*
X188899999Y-74328824D01*
X189550001Y-74328824D01*
X189672678Y-74316741D01*
X189790641Y-74280958D01*
X189899356Y-74222848D01*
X189994646Y-74144646D01*
X190072848Y-74049356D01*
X190130958Y-73940641D01*
X190166741Y-73822678D01*
X190178824Y-73700001D01*
X190178824Y-72799999D01*
X190166741Y-72677322D01*
X190130958Y-72559359D01*
X190072848Y-72450644D01*
X189994646Y-72355354D01*
X189899356Y-72277152D01*
X189790641Y-72219042D01*
X189672678Y-72183259D01*
X189550001Y-72171176D01*
X188899999Y-72171176D01*
X188777322Y-72183259D01*
X188659359Y-72219042D01*
X188550644Y-72277152D01*
X188455354Y-72355354D01*
X188377152Y-72450644D01*
X188319042Y-72559359D01*
X188283259Y-72677322D01*
X188276298Y-72748000D01*
X184711960Y-72748000D01*
X184708711Y-72731668D01*
X184574757Y-72408275D01*
X184380286Y-72117229D01*
X184132771Y-71869714D01*
X183841725Y-71675243D01*
X183518332Y-71541289D01*
X183175019Y-71473000D01*
X182824981Y-71473000D01*
X182481668Y-71541289D01*
X182158275Y-71675243D01*
X181867229Y-71869714D01*
X181619714Y-72117229D01*
X181425243Y-72408275D01*
X181291289Y-72731668D01*
X181223000Y-73074981D01*
X164402000Y-73074981D01*
X164402000Y-71019658D01*
X164422054Y-70815132D01*
X165123000Y-70815132D01*
X165123000Y-71184868D01*
X165195132Y-71547501D01*
X165336624Y-71889093D01*
X165542039Y-72196518D01*
X165803482Y-72457961D01*
X166110907Y-72663376D01*
X166452499Y-72804868D01*
X166815132Y-72877000D01*
X167184868Y-72877000D01*
X167547501Y-72804868D01*
X167889093Y-72663376D01*
X168196518Y-72457961D01*
X168457961Y-72196518D01*
X168663376Y-71889093D01*
X168804868Y-71547501D01*
X168877000Y-71184868D01*
X168877000Y-70815132D01*
X168804868Y-70452499D01*
X168663376Y-70110907D01*
X168457961Y-69803482D01*
X168196518Y-69542039D01*
X167889093Y-69336624D01*
X167547501Y-69195132D01*
X167184868Y-69123000D01*
X166815132Y-69123000D01*
X166452499Y-69195132D01*
X166110907Y-69336624D01*
X165803482Y-69542039D01*
X165542039Y-69803482D01*
X165336624Y-70110907D01*
X165195132Y-70452499D01*
X165123000Y-70815132D01*
X164422054Y-70815132D01*
X164453369Y-70495758D01*
X164599812Y-70010714D01*
X164837674Y-69563358D01*
X165157904Y-69170718D01*
X165548294Y-68847759D01*
X165993980Y-68606778D01*
X166477987Y-68456952D01*
X167000820Y-68402000D01*
X192373000Y-68402000D01*
X192373000Y-72748000D01*
G37*
X192373000Y-72748000D02*
X192223702Y-72748000D01*
X192216741Y-72677322D01*
X192180958Y-72559359D01*
X192122848Y-72450644D01*
X192044646Y-72355354D01*
X191949356Y-72277152D01*
X191840641Y-72219042D01*
X191722678Y-72183259D01*
X191600001Y-72171176D01*
X190949999Y-72171176D01*
X190827322Y-72183259D01*
X190709359Y-72219042D01*
X190600644Y-72277152D01*
X190505354Y-72355354D01*
X190427152Y-72450644D01*
X190369042Y-72559359D01*
X190333259Y-72677322D01*
X190321176Y-72799999D01*
X190321176Y-73700001D01*
X190333259Y-73822678D01*
X190369042Y-73940641D01*
X190427152Y-74049356D01*
X190505354Y-74144646D01*
X190600644Y-74222848D01*
X190709359Y-74280958D01*
X190827322Y-74316741D01*
X190949999Y-74328824D01*
X191600001Y-74328824D01*
X191722678Y-74316741D01*
X191840641Y-74280958D01*
X191949356Y-74222848D01*
X192044646Y-74144646D01*
X192122848Y-74049356D01*
X192180958Y-73940641D01*
X192216741Y-73822678D01*
X192223702Y-73752000D01*
X192373000Y-73752000D01*
X192373000Y-93373000D01*
X164402000Y-93373000D01*
X164402000Y-91400327D01*
X167948000Y-91400327D01*
X167948000Y-91599673D01*
X167986890Y-91795190D01*
X168063177Y-91979362D01*
X168173928Y-92145113D01*
X168314887Y-92286072D01*
X168480638Y-92396823D01*
X168664810Y-92473110D01*
X168860327Y-92512000D01*
X169059673Y-92512000D01*
X169255190Y-92473110D01*
X169439362Y-92396823D01*
X169605113Y-92286072D01*
X169746072Y-92145113D01*
X169856823Y-91979362D01*
X169933110Y-91795190D01*
X169972000Y-91599673D01*
X169972000Y-91400327D01*
X169933110Y-91204810D01*
X169856823Y-91020638D01*
X169746072Y-90854887D01*
X169605113Y-90713928D01*
X169439362Y-90603177D01*
X169255190Y-90526890D01*
X169059673Y-90488000D01*
X168860327Y-90488000D01*
X168664810Y-90526890D01*
X168480638Y-90603177D01*
X168314887Y-90713928D01*
X168173928Y-90854887D01*
X168063177Y-91020638D01*
X167986890Y-91204810D01*
X167948000Y-91400327D01*
X164402000Y-91400327D01*
X164402000Y-88500000D01*
X165607547Y-88500000D01*
X165629307Y-88720931D01*
X165693750Y-88933371D01*
X165798400Y-89129157D01*
X165939235Y-89300765D01*
X166110843Y-89441600D01*
X166306629Y-89546250D01*
X166519069Y-89610693D01*
X166684635Y-89627000D01*
X167315365Y-89627000D01*
X167480931Y-89610693D01*
X167693371Y-89546250D01*
X167889157Y-89441600D01*
X168060765Y-89300765D01*
X168201600Y-89129157D01*
X168306250Y-88933371D01*
X168370693Y-88720931D01*
X168392453Y-88500000D01*
X168370693Y-88279069D01*
X168306250Y-88066629D01*
X168201600Y-87870843D01*
X168060765Y-87699235D01*
X167889157Y-87558400D01*
X167693371Y-87453750D01*
X167480931Y-87389307D01*
X167315365Y-87373000D01*
X166684635Y-87373000D01*
X166519069Y-87389307D01*
X166306629Y-87453750D01*
X166110843Y-87558400D01*
X165939235Y-87699235D01*
X165798400Y-87870843D01*
X165693750Y-88066629D01*
X165629307Y-88279069D01*
X165607547Y-88500000D01*
X164402000Y-88500000D01*
X164402000Y-85500000D01*
X165607547Y-85500000D01*
X165629307Y-85720931D01*
X165693750Y-85933371D01*
X165798400Y-86129157D01*
X165939235Y-86300765D01*
X166110843Y-86441600D01*
X166306629Y-86546250D01*
X166519069Y-86610693D01*
X166684635Y-86627000D01*
X167315365Y-86627000D01*
X167480931Y-86610693D01*
X167693371Y-86546250D01*
X167889157Y-86441600D01*
X168060765Y-86300765D01*
X168201600Y-86129157D01*
X168306250Y-85933371D01*
X168370693Y-85720931D01*
X168392453Y-85500000D01*
X168370693Y-85279069D01*
X168306250Y-85066629D01*
X168201600Y-84870843D01*
X168060765Y-84699235D01*
X167889157Y-84558400D01*
X167693371Y-84453750D01*
X167480931Y-84389307D01*
X167315365Y-84373000D01*
X166684635Y-84373000D01*
X166519069Y-84389307D01*
X166306629Y-84453750D01*
X166110843Y-84558400D01*
X165939235Y-84699235D01*
X165798400Y-84870843D01*
X165693750Y-85066629D01*
X165629307Y-85279069D01*
X165607547Y-85500000D01*
X164402000Y-85500000D01*
X164402000Y-79000000D01*
X165611176Y-79000000D01*
X165611176Y-80000000D01*
X165623259Y-80122677D01*
X165659042Y-80240641D01*
X165717152Y-80349356D01*
X165795354Y-80444646D01*
X165890644Y-80522848D01*
X165999359Y-80580958D01*
X166117323Y-80616741D01*
X166240000Y-80628824D01*
X167760000Y-80628824D01*
X167882677Y-80616741D01*
X168000641Y-80580958D01*
X168109356Y-80522848D01*
X168204646Y-80444646D01*
X168282848Y-80349356D01*
X168340958Y-80240641D01*
X168376741Y-80122677D01*
X168388824Y-80000000D01*
X168388824Y-79000000D01*
X168376741Y-78877323D01*
X168340958Y-78759359D01*
X168282848Y-78650644D01*
X168204646Y-78555354D01*
X168109356Y-78477152D01*
X168000641Y-78419042D01*
X167882677Y-78383259D01*
X167760000Y-78371176D01*
X166240000Y-78371176D01*
X166117323Y-78383259D01*
X165999359Y-78419042D01*
X165890644Y-78477152D01*
X165795354Y-78555354D01*
X165717152Y-78650644D01*
X165659042Y-78759359D01*
X165623259Y-78877323D01*
X165611176Y-79000000D01*
X164402000Y-79000000D01*
X164402000Y-77800000D01*
X174421176Y-77800000D01*
X174421176Y-80200000D01*
X174428455Y-80273905D01*
X174450012Y-80344970D01*
X174485019Y-80410463D01*
X174532131Y-80467869D01*
X174589537Y-80514981D01*
X174655030Y-80549988D01*
X174726095Y-80571545D01*
X174800000Y-80578824D01*
X177200000Y-80578824D01*
X177273905Y-80571545D01*
X177344970Y-80549988D01*
X177410463Y-80514981D01*
X177467869Y-80467869D01*
X177514981Y-80410463D01*
X177549988Y-80344970D01*
X177571545Y-80273905D01*
X177578824Y-80200000D01*
X177578824Y-77800000D01*
X177571545Y-77726095D01*
X177549988Y-77655030D01*
X177514981Y-77589537D01*
X177467869Y-77532131D01*
X177410463Y-77485019D01*
X177344970Y-77450012D01*
X177273905Y-77428455D01*
X177200000Y-77421176D01*
X174800000Y-77421176D01*
X174726095Y-77428455D01*
X174655030Y-77450012D01*
X174589537Y-77485019D01*
X174532131Y-77532131D01*
X174485019Y-77589537D01*
X174450012Y-77655030D01*
X174428455Y-77726095D01*
X174421176Y-77800000D01*
X164402000Y-77800000D01*
X164402000Y-76400327D01*
X167948000Y-76400327D01*
X167948000Y-76599673D01*
X167986890Y-76795190D01*
X168063177Y-76979362D01*
X168173928Y-77145113D01*
X168314887Y-77286072D01*
X168480638Y-77396823D01*
X168664810Y-77473110D01*
X168860327Y-77512000D01*
X169059673Y-77512000D01*
X169255190Y-77473110D01*
X169439362Y-77396823D01*
X169605113Y-77286072D01*
X169746072Y-77145113D01*
X169856823Y-76979362D01*
X169933110Y-76795190D01*
X169972000Y-76599673D01*
X169972000Y-76400327D01*
X169933110Y-76204810D01*
X169856823Y-76020638D01*
X169746072Y-75854887D01*
X169605113Y-75713928D01*
X169439362Y-75603177D01*
X169255190Y-75526890D01*
X169059673Y-75488000D01*
X168860327Y-75488000D01*
X168664810Y-75526890D01*
X168480638Y-75603177D01*
X168314887Y-75713928D01*
X168173928Y-75854887D01*
X168063177Y-76020638D01*
X167986890Y-76204810D01*
X167948000Y-76400327D01*
X164402000Y-76400327D01*
X164402000Y-73074981D01*
X181223000Y-73074981D01*
X181223000Y-73425019D01*
X181291289Y-73768332D01*
X181425243Y-74091725D01*
X181619714Y-74382771D01*
X181867229Y-74630286D01*
X182158275Y-74824757D01*
X182481668Y-74958711D01*
X182824981Y-75027000D01*
X183175019Y-75027000D01*
X183518332Y-74958711D01*
X183841725Y-74824757D01*
X184132771Y-74630286D01*
X184380286Y-74382771D01*
X184574757Y-74091725D01*
X184708711Y-73768332D01*
X184711960Y-73752000D01*
X188276298Y-73752000D01*
X188283259Y-73822678D01*
X188319042Y-73940641D01*
X188377152Y-74049356D01*
X188455354Y-74144646D01*
X188550644Y-74222848D01*
X188659359Y-74280958D01*
X188777322Y-74316741D01*
X188899999Y-74328824D01*
X189550001Y-74328824D01*
X189672678Y-74316741D01*
X189790641Y-74280958D01*
X189899356Y-74222848D01*
X189994646Y-74144646D01*
X190072848Y-74049356D01*
X190130958Y-73940641D01*
X190166741Y-73822678D01*
X190178824Y-73700001D01*
X190178824Y-72799999D01*
X190166741Y-72677322D01*
X190130958Y-72559359D01*
X190072848Y-72450644D01*
X189994646Y-72355354D01*
X189899356Y-72277152D01*
X189790641Y-72219042D01*
X189672678Y-72183259D01*
X189550001Y-72171176D01*
X188899999Y-72171176D01*
X188777322Y-72183259D01*
X188659359Y-72219042D01*
X188550644Y-72277152D01*
X188455354Y-72355354D01*
X188377152Y-72450644D01*
X188319042Y-72559359D01*
X188283259Y-72677322D01*
X188276298Y-72748000D01*
X184711960Y-72748000D01*
X184708711Y-72731668D01*
X184574757Y-72408275D01*
X184380286Y-72117229D01*
X184132771Y-71869714D01*
X183841725Y-71675243D01*
X183518332Y-71541289D01*
X183175019Y-71473000D01*
X182824981Y-71473000D01*
X182481668Y-71541289D01*
X182158275Y-71675243D01*
X181867229Y-71869714D01*
X181619714Y-72117229D01*
X181425243Y-72408275D01*
X181291289Y-72731668D01*
X181223000Y-73074981D01*
X164402000Y-73074981D01*
X164402000Y-71019658D01*
X164422054Y-70815132D01*
X165123000Y-70815132D01*
X165123000Y-71184868D01*
X165195132Y-71547501D01*
X165336624Y-71889093D01*
X165542039Y-72196518D01*
X165803482Y-72457961D01*
X166110907Y-72663376D01*
X166452499Y-72804868D01*
X166815132Y-72877000D01*
X167184868Y-72877000D01*
X167547501Y-72804868D01*
X167889093Y-72663376D01*
X168196518Y-72457961D01*
X168457961Y-72196518D01*
X168663376Y-71889093D01*
X168804868Y-71547501D01*
X168877000Y-71184868D01*
X168877000Y-70815132D01*
X168804868Y-70452499D01*
X168663376Y-70110907D01*
X168457961Y-69803482D01*
X168196518Y-69542039D01*
X167889093Y-69336624D01*
X167547501Y-69195132D01*
X167184868Y-69123000D01*
X166815132Y-69123000D01*
X166452499Y-69195132D01*
X166110907Y-69336624D01*
X165803482Y-69542039D01*
X165542039Y-69803482D01*
X165336624Y-70110907D01*
X165195132Y-70452499D01*
X165123000Y-70815132D01*
X164422054Y-70815132D01*
X164453369Y-70495758D01*
X164599812Y-70010714D01*
X164837674Y-69563358D01*
X165157904Y-69170718D01*
X165548294Y-68847759D01*
X165993980Y-68606778D01*
X166477987Y-68456952D01*
X167000820Y-68402000D01*
X192373000Y-68402000D01*
X192373000Y-72748000D01*
G36*
X174450012Y-94155030D02*
G01*
X174428455Y-94226095D01*
X174421176Y-94300000D01*
X174421176Y-96700000D01*
X174428455Y-96773905D01*
X174450012Y-96844970D01*
X174485019Y-96910463D01*
X174532131Y-96967869D01*
X174589537Y-97014981D01*
X174655030Y-97049988D01*
X174726095Y-97071545D01*
X174800000Y-97078824D01*
X177200000Y-97078824D01*
X177273905Y-97071545D01*
X177344970Y-97049988D01*
X177410463Y-97014981D01*
X177467869Y-96967869D01*
X177514981Y-96910463D01*
X177549988Y-96844970D01*
X177571545Y-96773905D01*
X177578824Y-96700000D01*
X177578824Y-94300000D01*
X177571545Y-94226095D01*
X177549988Y-94155030D01*
X177535006Y-94127000D01*
X192373000Y-94127000D01*
X192373000Y-111373000D01*
X164402000Y-111373000D01*
X164402000Y-104900327D01*
X167948000Y-104900327D01*
X167948000Y-105099673D01*
X167986890Y-105295190D01*
X168063177Y-105479362D01*
X168173928Y-105645113D01*
X168314887Y-105786072D01*
X168480638Y-105896823D01*
X168664810Y-105973110D01*
X168860327Y-106012000D01*
X169059673Y-106012000D01*
X169255190Y-105973110D01*
X169439362Y-105896823D01*
X169605113Y-105786072D01*
X169746072Y-105645113D01*
X169856823Y-105479362D01*
X169933110Y-105295190D01*
X169972000Y-105099673D01*
X169972000Y-104900327D01*
X169933110Y-104704810D01*
X169856823Y-104520638D01*
X169746072Y-104354887D01*
X169605113Y-104213928D01*
X169439362Y-104103177D01*
X169255190Y-104026890D01*
X169059673Y-103988000D01*
X168860327Y-103988000D01*
X168664810Y-104026890D01*
X168480638Y-104103177D01*
X168314887Y-104213928D01*
X168173928Y-104354887D01*
X168063177Y-104520638D01*
X167986890Y-104704810D01*
X167948000Y-104900327D01*
X164402000Y-104900327D01*
X164402000Y-98500000D01*
X165611176Y-98500000D01*
X165611176Y-99500000D01*
X165623259Y-99622677D01*
X165659042Y-99740641D01*
X165717152Y-99849356D01*
X165795354Y-99944646D01*
X165890644Y-100022848D01*
X165999359Y-100080958D01*
X166117323Y-100116741D01*
X166240000Y-100128824D01*
X167760000Y-100128824D01*
X167882677Y-100116741D01*
X168000641Y-100080958D01*
X168109356Y-100022848D01*
X168204646Y-99944646D01*
X168282848Y-99849356D01*
X168340958Y-99740641D01*
X168376741Y-99622677D01*
X168388824Y-99500000D01*
X168388824Y-98500000D01*
X168376741Y-98377323D01*
X168340958Y-98259359D01*
X168282848Y-98150644D01*
X168204646Y-98055354D01*
X168109356Y-97977152D01*
X168000641Y-97919042D01*
X167882677Y-97883259D01*
X167760000Y-97871176D01*
X166240000Y-97871176D01*
X166117323Y-97883259D01*
X165999359Y-97919042D01*
X165890644Y-97977152D01*
X165795354Y-98055354D01*
X165717152Y-98150644D01*
X165659042Y-98259359D01*
X165623259Y-98377323D01*
X165611176Y-98500000D01*
X164402000Y-98500000D01*
X164402000Y-95900327D01*
X167948000Y-95900327D01*
X167948000Y-96099673D01*
X167986890Y-96295190D01*
X168063177Y-96479362D01*
X168173928Y-96645113D01*
X168314887Y-96786072D01*
X168480638Y-96896823D01*
X168664810Y-96973110D01*
X168860327Y-97012000D01*
X169059673Y-97012000D01*
X169255190Y-96973110D01*
X169439362Y-96896823D01*
X169605113Y-96786072D01*
X169746072Y-96645113D01*
X169856823Y-96479362D01*
X169933110Y-96295190D01*
X169972000Y-96099673D01*
X169972000Y-95900327D01*
X169933110Y-95704810D01*
X169856823Y-95520638D01*
X169746072Y-95354887D01*
X169605113Y-95213928D01*
X169439362Y-95103177D01*
X169255190Y-95026890D01*
X169059673Y-94988000D01*
X168860327Y-94988000D01*
X168664810Y-95026890D01*
X168480638Y-95103177D01*
X168314887Y-95213928D01*
X168173928Y-95354887D01*
X168063177Y-95520638D01*
X167986890Y-95704810D01*
X167948000Y-95900327D01*
X164402000Y-95900327D01*
X164402000Y-94127000D01*
X174464994Y-94127000D01*
X174450012Y-94155030D01*
G37*
X174450012Y-94155030D02*
X174428455Y-94226095D01*
X174421176Y-94300000D01*
X174421176Y-96700000D01*
X174428455Y-96773905D01*
X174450012Y-96844970D01*
X174485019Y-96910463D01*
X174532131Y-96967869D01*
X174589537Y-97014981D01*
X174655030Y-97049988D01*
X174726095Y-97071545D01*
X174800000Y-97078824D01*
X177200000Y-97078824D01*
X177273905Y-97071545D01*
X177344970Y-97049988D01*
X177410463Y-97014981D01*
X177467869Y-96967869D01*
X177514981Y-96910463D01*
X177549988Y-96844970D01*
X177571545Y-96773905D01*
X177578824Y-96700000D01*
X177578824Y-94300000D01*
X177571545Y-94226095D01*
X177549988Y-94155030D01*
X177535006Y-94127000D01*
X192373000Y-94127000D01*
X192373000Y-111373000D01*
X164402000Y-111373000D01*
X164402000Y-104900327D01*
X167948000Y-104900327D01*
X167948000Y-105099673D01*
X167986890Y-105295190D01*
X168063177Y-105479362D01*
X168173928Y-105645113D01*
X168314887Y-105786072D01*
X168480638Y-105896823D01*
X168664810Y-105973110D01*
X168860327Y-106012000D01*
X169059673Y-106012000D01*
X169255190Y-105973110D01*
X169439362Y-105896823D01*
X169605113Y-105786072D01*
X169746072Y-105645113D01*
X169856823Y-105479362D01*
X169933110Y-105295190D01*
X169972000Y-105099673D01*
X169972000Y-104900327D01*
X169933110Y-104704810D01*
X169856823Y-104520638D01*
X169746072Y-104354887D01*
X169605113Y-104213928D01*
X169439362Y-104103177D01*
X169255190Y-104026890D01*
X169059673Y-103988000D01*
X168860327Y-103988000D01*
X168664810Y-104026890D01*
X168480638Y-104103177D01*
X168314887Y-104213928D01*
X168173928Y-104354887D01*
X168063177Y-104520638D01*
X167986890Y-104704810D01*
X167948000Y-104900327D01*
X164402000Y-104900327D01*
X164402000Y-98500000D01*
X165611176Y-98500000D01*
X165611176Y-99500000D01*
X165623259Y-99622677D01*
X165659042Y-99740641D01*
X165717152Y-99849356D01*
X165795354Y-99944646D01*
X165890644Y-100022848D01*
X165999359Y-100080958D01*
X166117323Y-100116741D01*
X166240000Y-100128824D01*
X167760000Y-100128824D01*
X167882677Y-100116741D01*
X168000641Y-100080958D01*
X168109356Y-100022848D01*
X168204646Y-99944646D01*
X168282848Y-99849356D01*
X168340958Y-99740641D01*
X168376741Y-99622677D01*
X168388824Y-99500000D01*
X168388824Y-98500000D01*
X168376741Y-98377323D01*
X168340958Y-98259359D01*
X168282848Y-98150644D01*
X168204646Y-98055354D01*
X168109356Y-97977152D01*
X168000641Y-97919042D01*
X167882677Y-97883259D01*
X167760000Y-97871176D01*
X166240000Y-97871176D01*
X166117323Y-97883259D01*
X165999359Y-97919042D01*
X165890644Y-97977152D01*
X165795354Y-98055354D01*
X165717152Y-98150644D01*
X165659042Y-98259359D01*
X165623259Y-98377323D01*
X165611176Y-98500000D01*
X164402000Y-98500000D01*
X164402000Y-95900327D01*
X167948000Y-95900327D01*
X167948000Y-96099673D01*
X167986890Y-96295190D01*
X168063177Y-96479362D01*
X168173928Y-96645113D01*
X168314887Y-96786072D01*
X168480638Y-96896823D01*
X168664810Y-96973110D01*
X168860327Y-97012000D01*
X169059673Y-97012000D01*
X169255190Y-96973110D01*
X169439362Y-96896823D01*
X169605113Y-96786072D01*
X169746072Y-96645113D01*
X169856823Y-96479362D01*
X169933110Y-96295190D01*
X169972000Y-96099673D01*
X169972000Y-95900327D01*
X169933110Y-95704810D01*
X169856823Y-95520638D01*
X169746072Y-95354887D01*
X169605113Y-95213928D01*
X169439362Y-95103177D01*
X169255190Y-95026890D01*
X169059673Y-94988000D01*
X168860327Y-94988000D01*
X168664810Y-95026890D01*
X168480638Y-95103177D01*
X168314887Y-95213928D01*
X168173928Y-95354887D01*
X168063177Y-95520638D01*
X167986890Y-95704810D01*
X167948000Y-95900327D01*
X164402000Y-95900327D01*
X164402000Y-94127000D01*
X174464994Y-94127000D01*
X174450012Y-94155030D01*
G36*
X227504242Y-68453369D02*
G01*
X227989286Y-68599812D01*
X228436642Y-68837674D01*
X228829282Y-69157904D01*
X229152241Y-69548294D01*
X229393222Y-69993980D01*
X229543048Y-70477987D01*
X229598000Y-71000820D01*
X229598001Y-71001114D01*
X229598000Y-123273000D01*
X193127000Y-123273000D01*
X193127000Y-117315132D01*
X223443000Y-117315132D01*
X223443000Y-117684868D01*
X223515132Y-118047501D01*
X223656624Y-118389093D01*
X223862039Y-118696518D01*
X224123482Y-118957961D01*
X224430907Y-119163376D01*
X224772499Y-119304868D01*
X225135132Y-119377000D01*
X225504868Y-119377000D01*
X225867501Y-119304868D01*
X226209093Y-119163376D01*
X226516518Y-118957961D01*
X226777961Y-118696518D01*
X226983376Y-118389093D01*
X227124868Y-118047501D01*
X227197000Y-117684868D01*
X227197000Y-117315132D01*
X227124868Y-116952499D01*
X226983376Y-116610907D01*
X226777961Y-116303482D01*
X226516518Y-116042039D01*
X226209093Y-115836624D01*
X225867501Y-115695132D01*
X225504868Y-115623000D01*
X225135132Y-115623000D01*
X224772499Y-115695132D01*
X224430907Y-115836624D01*
X224123482Y-116042039D01*
X223862039Y-116303482D01*
X223656624Y-116610907D01*
X223515132Y-116952499D01*
X223443000Y-117315132D01*
X193127000Y-117315132D01*
X193127000Y-115500000D01*
X219611176Y-115500000D01*
X219611176Y-116500000D01*
X219623259Y-116622677D01*
X219659042Y-116740641D01*
X219717152Y-116849356D01*
X219795354Y-116944646D01*
X219890644Y-117022848D01*
X219999359Y-117080958D01*
X220117323Y-117116741D01*
X220240000Y-117128824D01*
X221760000Y-117128824D01*
X221882677Y-117116741D01*
X222000641Y-117080958D01*
X222109356Y-117022848D01*
X222204646Y-116944646D01*
X222282848Y-116849356D01*
X222340958Y-116740641D01*
X222376741Y-116622677D01*
X222388824Y-116500000D01*
X222388824Y-115500000D01*
X222376741Y-115377323D01*
X222340958Y-115259359D01*
X222282848Y-115150644D01*
X222204646Y-115055354D01*
X222109356Y-114977152D01*
X222000641Y-114919042D01*
X221882677Y-114883259D01*
X221760000Y-114871176D01*
X220240000Y-114871176D01*
X220117323Y-114883259D01*
X219999359Y-114919042D01*
X219890644Y-114977152D01*
X219795354Y-115055354D01*
X219717152Y-115150644D01*
X219659042Y-115259359D01*
X219623259Y-115377323D01*
X219611176Y-115500000D01*
X193127000Y-115500000D01*
X193127000Y-113923472D01*
X207223000Y-113923472D01*
X207223000Y-114076528D01*
X207252859Y-114226643D01*
X207311431Y-114368048D01*
X207396464Y-114495309D01*
X207504691Y-114603536D01*
X207631952Y-114688569D01*
X207773357Y-114747141D01*
X207923472Y-114777000D01*
X208076528Y-114777000D01*
X208226643Y-114747141D01*
X208368048Y-114688569D01*
X208495309Y-114603536D01*
X208596845Y-114502000D01*
X213457321Y-114502000D01*
X213469042Y-114540641D01*
X213527152Y-114649356D01*
X213605354Y-114744646D01*
X213700644Y-114822848D01*
X213809359Y-114880958D01*
X213927322Y-114916741D01*
X214049999Y-114928824D01*
X214950001Y-114928824D01*
X215072678Y-114916741D01*
X215190641Y-114880958D01*
X215299356Y-114822848D01*
X215394646Y-114744646D01*
X215472848Y-114649356D01*
X215530958Y-114540641D01*
X215566741Y-114422678D01*
X215578824Y-114300001D01*
X215578824Y-113649999D01*
X215566741Y-113527322D01*
X215530958Y-113409359D01*
X215472848Y-113300644D01*
X215394646Y-113205354D01*
X215299356Y-113127152D01*
X215190641Y-113069042D01*
X215072678Y-113033259D01*
X214950001Y-113021176D01*
X214049999Y-113021176D01*
X213927322Y-113033259D01*
X213809359Y-113069042D01*
X213700644Y-113127152D01*
X213605354Y-113205354D01*
X213527152Y-113300644D01*
X213469042Y-113409359D01*
X213442154Y-113498000D01*
X208596845Y-113498000D01*
X208495309Y-113396464D01*
X208368048Y-113311431D01*
X208226643Y-113252859D01*
X208076528Y-113223000D01*
X207923472Y-113223000D01*
X207773357Y-113252859D01*
X207631952Y-113311431D01*
X207504691Y-113396464D01*
X207396464Y-113504691D01*
X207311431Y-113631952D01*
X207252859Y-113773357D01*
X207223000Y-113923472D01*
X193127000Y-113923472D01*
X193127000Y-108127000D01*
X198049737Y-108127000D01*
X198069042Y-108190641D01*
X198127152Y-108299356D01*
X198205354Y-108394646D01*
X198300644Y-108472848D01*
X198409359Y-108530958D01*
X198527322Y-108566741D01*
X198649999Y-108578824D01*
X199300001Y-108578824D01*
X199422678Y-108566741D01*
X199540641Y-108530958D01*
X199649356Y-108472848D01*
X199744646Y-108394646D01*
X199822848Y-108299356D01*
X199880958Y-108190641D01*
X199916741Y-108072678D01*
X199928824Y-107950001D01*
X199928824Y-107049999D01*
X200071176Y-107049999D01*
X200071176Y-107950001D01*
X200083259Y-108072678D01*
X200119042Y-108190641D01*
X200177152Y-108299356D01*
X200255354Y-108394646D01*
X200350644Y-108472848D01*
X200459359Y-108530958D01*
X200577322Y-108566741D01*
X200699999Y-108578824D01*
X201350001Y-108578824D01*
X201472678Y-108566741D01*
X201590641Y-108530958D01*
X201699356Y-108472848D01*
X201794646Y-108394646D01*
X201872848Y-108299356D01*
X201930958Y-108190641D01*
X201966741Y-108072678D01*
X201973702Y-108002000D01*
X203526298Y-108002000D01*
X203533259Y-108072678D01*
X203569042Y-108190641D01*
X203627152Y-108299356D01*
X203705354Y-108394646D01*
X203800644Y-108472848D01*
X203909359Y-108530958D01*
X204027322Y-108566741D01*
X204149999Y-108578824D01*
X204800001Y-108578824D01*
X204922678Y-108566741D01*
X205040641Y-108530958D01*
X205149356Y-108472848D01*
X205244646Y-108394646D01*
X205322848Y-108299356D01*
X205380958Y-108190641D01*
X205416741Y-108072678D01*
X205428824Y-107950001D01*
X205428824Y-107049999D01*
X205571176Y-107049999D01*
X205571176Y-107950001D01*
X205583259Y-108072678D01*
X205619042Y-108190641D01*
X205677152Y-108299356D01*
X205755354Y-108394646D01*
X205850644Y-108472848D01*
X205959359Y-108530958D01*
X206077322Y-108566741D01*
X206199999Y-108578824D01*
X206850001Y-108578824D01*
X206972678Y-108566741D01*
X207090641Y-108530958D01*
X207199356Y-108472848D01*
X207294646Y-108394646D01*
X207372848Y-108299356D01*
X207430958Y-108190641D01*
X207466741Y-108072678D01*
X207478824Y-107950001D01*
X207478824Y-107831110D01*
X208337538Y-106972397D01*
X208356684Y-106956684D01*
X208419417Y-106880245D01*
X208466031Y-106793036D01*
X208494736Y-106698409D01*
X208502000Y-106624653D01*
X208502000Y-106624644D01*
X208504427Y-106600001D01*
X208502000Y-106575358D01*
X208502000Y-105596845D01*
X208603536Y-105495309D01*
X208688569Y-105368048D01*
X208747141Y-105226643D01*
X208777000Y-105076528D01*
X208777000Y-104923472D01*
X208747141Y-104773357D01*
X208688569Y-104631952D01*
X208603536Y-104504691D01*
X208495309Y-104396464D01*
X208368048Y-104311431D01*
X208226643Y-104252859D01*
X208076528Y-104223000D01*
X207923472Y-104223000D01*
X207773357Y-104252859D01*
X207631952Y-104311431D01*
X207504691Y-104396464D01*
X207396464Y-104504691D01*
X207311431Y-104631952D01*
X207252859Y-104773357D01*
X207223000Y-104923472D01*
X207223000Y-105076528D01*
X207252859Y-105226643D01*
X207311431Y-105368048D01*
X207396464Y-105495309D01*
X207498001Y-105596846D01*
X207498000Y-106392065D01*
X207289189Y-106600876D01*
X207199356Y-106527152D01*
X207090641Y-106469042D01*
X206972678Y-106433259D01*
X206850001Y-106421176D01*
X206199999Y-106421176D01*
X206077322Y-106433259D01*
X205959359Y-106469042D01*
X205850644Y-106527152D01*
X205755354Y-106605354D01*
X205677152Y-106700644D01*
X205619042Y-106809359D01*
X205583259Y-106927322D01*
X205571176Y-107049999D01*
X205428824Y-107049999D01*
X205416741Y-106927322D01*
X205380958Y-106809359D01*
X205322848Y-106700644D01*
X205244646Y-106605354D01*
X205149356Y-106527152D01*
X205040641Y-106469042D01*
X204922678Y-106433259D01*
X204800001Y-106421176D01*
X204149999Y-106421176D01*
X204027322Y-106433259D01*
X203909359Y-106469042D01*
X203800644Y-106527152D01*
X203705354Y-106605354D01*
X203627152Y-106700644D01*
X203569042Y-106809359D01*
X203533259Y-106927322D01*
X203526298Y-106998000D01*
X201973702Y-106998000D01*
X201966741Y-106927322D01*
X201930958Y-106809359D01*
X201872848Y-106700644D01*
X201794646Y-106605354D01*
X201699356Y-106527152D01*
X201590641Y-106469042D01*
X201472678Y-106433259D01*
X201350001Y-106421176D01*
X200699999Y-106421176D01*
X200577322Y-106433259D01*
X200459359Y-106469042D01*
X200350644Y-106527152D01*
X200255354Y-106605354D01*
X200177152Y-106700644D01*
X200119042Y-106809359D01*
X200083259Y-106927322D01*
X200071176Y-107049999D01*
X199928824Y-107049999D01*
X199916741Y-106927322D01*
X199880958Y-106809359D01*
X199822848Y-106700644D01*
X199744646Y-106605354D01*
X199649356Y-106527152D01*
X199540641Y-106469042D01*
X199422678Y-106433259D01*
X199300001Y-106421176D01*
X198649999Y-106421176D01*
X198527322Y-106433259D01*
X198409359Y-106469042D01*
X198300644Y-106527152D01*
X198205354Y-106605354D01*
X198127152Y-106700644D01*
X198069042Y-106809359D01*
X198049737Y-106873000D01*
X193127000Y-106873000D01*
X193127000Y-103821154D01*
X193157131Y-103857869D01*
X193214537Y-103904981D01*
X193280030Y-103939988D01*
X193351095Y-103961545D01*
X193425000Y-103968824D01*
X198025000Y-103968824D01*
X198098905Y-103961545D01*
X198169970Y-103939988D01*
X198235463Y-103904981D01*
X198292869Y-103857869D01*
X198339981Y-103800463D01*
X198374988Y-103734970D01*
X198396545Y-103663905D01*
X198403824Y-103590000D01*
X198403824Y-103542000D01*
X203530237Y-103542000D01*
X203533259Y-103572678D01*
X203569042Y-103690641D01*
X203627152Y-103799356D01*
X203705354Y-103894646D01*
X203800644Y-103972848D01*
X203909359Y-104030958D01*
X204027322Y-104066741D01*
X204149999Y-104078824D01*
X204800001Y-104078824D01*
X204922678Y-104066741D01*
X205040641Y-104030958D01*
X205149356Y-103972848D01*
X205244646Y-103894646D01*
X205322848Y-103799356D01*
X205380958Y-103690641D01*
X205416741Y-103572678D01*
X205428824Y-103450001D01*
X205428824Y-102549999D01*
X205416741Y-102427322D01*
X205380958Y-102309359D01*
X205322848Y-102200644D01*
X205244646Y-102105354D01*
X205149356Y-102027152D01*
X205040641Y-101969042D01*
X204922678Y-101933259D01*
X204800001Y-101921176D01*
X204149999Y-101921176D01*
X204027322Y-101933259D01*
X203909359Y-101969042D01*
X203800644Y-102027152D01*
X203705354Y-102105354D01*
X203627152Y-102200644D01*
X203569042Y-102309359D01*
X203533259Y-102427322D01*
X203522358Y-102538000D01*
X198403824Y-102538000D01*
X198403824Y-102490000D01*
X198396545Y-102416095D01*
X198374988Y-102345030D01*
X198339981Y-102279537D01*
X198292869Y-102222131D01*
X198235463Y-102175019D01*
X198169970Y-102140012D01*
X198098905Y-102118455D01*
X198025000Y-102111176D01*
X193425000Y-102111176D01*
X193351095Y-102118455D01*
X193280030Y-102140012D01*
X193214537Y-102175019D01*
X193157131Y-102222131D01*
X193127000Y-102258846D01*
X193127000Y-101281154D01*
X193157131Y-101317869D01*
X193214537Y-101364981D01*
X193280030Y-101399988D01*
X193351095Y-101421545D01*
X193425000Y-101428824D01*
X198025000Y-101428824D01*
X198098905Y-101421545D01*
X198169970Y-101399988D01*
X198235463Y-101364981D01*
X198292869Y-101317869D01*
X198339981Y-101260463D01*
X198374988Y-101194970D01*
X198396545Y-101123905D01*
X198403824Y-101050000D01*
X198403824Y-99950000D01*
X198396545Y-99876095D01*
X198374988Y-99805030D01*
X198339981Y-99739537D01*
X198292869Y-99682131D01*
X198235463Y-99635019D01*
X198169970Y-99600012D01*
X198098905Y-99578455D01*
X198025000Y-99571176D01*
X193425000Y-99571176D01*
X193351095Y-99578455D01*
X193280030Y-99600012D01*
X193214537Y-99635019D01*
X193157131Y-99682131D01*
X193127000Y-99718846D01*
X193127000Y-99349981D01*
X200723000Y-99349981D01*
X200723000Y-99700019D01*
X200791289Y-100043332D01*
X200925243Y-100366725D01*
X201119714Y-100657771D01*
X201367229Y-100905286D01*
X201658275Y-101099757D01*
X201981668Y-101233711D01*
X202324981Y-101302000D01*
X202675019Y-101302000D01*
X203018332Y-101233711D01*
X203341725Y-101099757D01*
X203632771Y-100905286D01*
X203880286Y-100657771D01*
X204074757Y-100366725D01*
X204208711Y-100043332D01*
X204211960Y-100027000D01*
X206949737Y-100027000D01*
X206969042Y-100090641D01*
X207027152Y-100199356D01*
X207105354Y-100294646D01*
X207200644Y-100372848D01*
X207309359Y-100430958D01*
X207427322Y-100466741D01*
X207549999Y-100478824D01*
X208450001Y-100478824D01*
X208572678Y-100466741D01*
X208690641Y-100430958D01*
X208799356Y-100372848D01*
X208894646Y-100294646D01*
X208972848Y-100199356D01*
X209030958Y-100090641D01*
X209042537Y-100052471D01*
X209188000Y-100197935D01*
X209188001Y-102296176D01*
X209080000Y-102296176D01*
X209006095Y-102303455D01*
X208935030Y-102325012D01*
X208869537Y-102360019D01*
X208812131Y-102407131D01*
X208765019Y-102464537D01*
X208747133Y-102498000D01*
X207473702Y-102498000D01*
X207466741Y-102427322D01*
X207430958Y-102309359D01*
X207372848Y-102200644D01*
X207294646Y-102105354D01*
X207199356Y-102027152D01*
X207090641Y-101969042D01*
X206972678Y-101933259D01*
X206850001Y-101921176D01*
X206199999Y-101921176D01*
X206077322Y-101933259D01*
X205959359Y-101969042D01*
X205850644Y-102027152D01*
X205755354Y-102105354D01*
X205677152Y-102200644D01*
X205619042Y-102309359D01*
X205583259Y-102427322D01*
X205571176Y-102549999D01*
X205571176Y-103450001D01*
X205583259Y-103572678D01*
X205619042Y-103690641D01*
X205677152Y-103799356D01*
X205755354Y-103894646D01*
X205850644Y-103972848D01*
X205959359Y-104030958D01*
X206077322Y-104066741D01*
X206199999Y-104078824D01*
X206850001Y-104078824D01*
X206972678Y-104066741D01*
X207090641Y-104030958D01*
X207199356Y-103972848D01*
X207294646Y-103894646D01*
X207372848Y-103799356D01*
X207430958Y-103690641D01*
X207466741Y-103572678D01*
X207473702Y-103502000D01*
X208747133Y-103502000D01*
X208765019Y-103535463D01*
X208812131Y-103592869D01*
X208869537Y-103639981D01*
X208935030Y-103674988D01*
X209006095Y-103696545D01*
X209080000Y-103703824D01*
X210300000Y-103703824D01*
X210373905Y-103696545D01*
X210444970Y-103674988D01*
X210510463Y-103639981D01*
X210528717Y-103625000D01*
X211321176Y-103625000D01*
X211321176Y-104275000D01*
X211328455Y-104348905D01*
X211350012Y-104419970D01*
X211385019Y-104485463D01*
X211432131Y-104542869D01*
X211489537Y-104589981D01*
X211555030Y-104624988D01*
X211626095Y-104646545D01*
X211700000Y-104653824D01*
X212920000Y-104653824D01*
X212993905Y-104646545D01*
X213064970Y-104624988D01*
X213130463Y-104589981D01*
X213187869Y-104542869D01*
X213234981Y-104485463D01*
X213256102Y-104445948D01*
X213268409Y-104444736D01*
X213363036Y-104416031D01*
X213450245Y-104369417D01*
X213526684Y-104306684D01*
X213542401Y-104287533D01*
X215337543Y-102492393D01*
X215356684Y-102476684D01*
X215372392Y-102457544D01*
X215372400Y-102457536D01*
X215419416Y-102400246D01*
X215440918Y-102360019D01*
X215466031Y-102313036D01*
X215494736Y-102218409D01*
X215502000Y-102144653D01*
X215502000Y-102144643D01*
X215504427Y-102120000D01*
X215502000Y-102095357D01*
X215502000Y-100815132D01*
X223443000Y-100815132D01*
X223443000Y-101184868D01*
X223515132Y-101547501D01*
X223656624Y-101889093D01*
X223862039Y-102196518D01*
X224123482Y-102457961D01*
X224430907Y-102663376D01*
X224772499Y-102804868D01*
X225135132Y-102877000D01*
X225504868Y-102877000D01*
X225867501Y-102804868D01*
X226209093Y-102663376D01*
X226516518Y-102457961D01*
X226777961Y-102196518D01*
X226983376Y-101889093D01*
X227124868Y-101547501D01*
X227197000Y-101184868D01*
X227197000Y-100815132D01*
X227124868Y-100452499D01*
X226983376Y-100110907D01*
X226777961Y-99803482D01*
X226516518Y-99542039D01*
X226209093Y-99336624D01*
X225867501Y-99195132D01*
X225504868Y-99123000D01*
X225135132Y-99123000D01*
X224772499Y-99195132D01*
X224430907Y-99336624D01*
X224123482Y-99542039D01*
X223862039Y-99803482D01*
X223656624Y-100110907D01*
X223515132Y-100452499D01*
X223443000Y-100815132D01*
X215502000Y-100815132D01*
X215502000Y-100473702D01*
X215572678Y-100466741D01*
X215690641Y-100430958D01*
X215799356Y-100372848D01*
X215894646Y-100294646D01*
X215972848Y-100199356D01*
X216030958Y-100090641D01*
X216050263Y-100027000D01*
X219613835Y-100027000D01*
X219623259Y-100122677D01*
X219659042Y-100240641D01*
X219717152Y-100349356D01*
X219795354Y-100444646D01*
X219890644Y-100522848D01*
X219999359Y-100580958D01*
X220117323Y-100616741D01*
X220240000Y-100628824D01*
X221760000Y-100628824D01*
X221882677Y-100616741D01*
X222000641Y-100580958D01*
X222109356Y-100522848D01*
X222204646Y-100444646D01*
X222282848Y-100349356D01*
X222340958Y-100240641D01*
X222376741Y-100122677D01*
X222388824Y-100000000D01*
X222388824Y-99000000D01*
X222376741Y-98877323D01*
X222340958Y-98759359D01*
X222282848Y-98650644D01*
X222204646Y-98555354D01*
X222109356Y-98477152D01*
X222000641Y-98419042D01*
X221882677Y-98383259D01*
X221760000Y-98371176D01*
X220240000Y-98371176D01*
X220117323Y-98383259D01*
X219999359Y-98419042D01*
X219890644Y-98477152D01*
X219795354Y-98555354D01*
X219717152Y-98650644D01*
X219659042Y-98759359D01*
X219623259Y-98877323D01*
X219611176Y-99000000D01*
X219611176Y-99023000D01*
X216050263Y-99023000D01*
X216030958Y-98959359D01*
X215972848Y-98850644D01*
X215894646Y-98755354D01*
X215799356Y-98677152D01*
X215690641Y-98619042D01*
X215572678Y-98583259D01*
X215450001Y-98571176D01*
X214549999Y-98571176D01*
X214427322Y-98583259D01*
X214309359Y-98619042D01*
X214200644Y-98677152D01*
X214105354Y-98755354D01*
X214027152Y-98850644D01*
X213969042Y-98959359D01*
X213933259Y-99077322D01*
X213921176Y-99199999D01*
X213921176Y-99850001D01*
X213933259Y-99972678D01*
X213969042Y-100090641D01*
X214027152Y-100199356D01*
X214105354Y-100294646D01*
X214200644Y-100372848D01*
X214309359Y-100430958D01*
X214427322Y-100466741D01*
X214498001Y-100473702D01*
X214498000Y-101912064D01*
X213110642Y-103299424D01*
X213064970Y-103275012D01*
X212993905Y-103253455D01*
X212920000Y-103246176D01*
X211700000Y-103246176D01*
X211626095Y-103253455D01*
X211555030Y-103275012D01*
X211489537Y-103310019D01*
X211432131Y-103357131D01*
X211385019Y-103414537D01*
X211350012Y-103480030D01*
X211328455Y-103551095D01*
X211321176Y-103625000D01*
X210528717Y-103625000D01*
X210567869Y-103592869D01*
X210614981Y-103535463D01*
X210649988Y-103469970D01*
X210671545Y-103398905D01*
X210678824Y-103325000D01*
X210678824Y-102675000D01*
X210671545Y-102601095D01*
X210649988Y-102530030D01*
X210614981Y-102464537D01*
X210567869Y-102407131D01*
X210510463Y-102360019D01*
X210444970Y-102325012D01*
X210373905Y-102303455D01*
X210300000Y-102296176D01*
X210192000Y-102296176D01*
X210192000Y-100107425D01*
X210194735Y-100098409D01*
X210204427Y-99999999D01*
X210194735Y-99901590D01*
X210166030Y-99806963D01*
X210119416Y-99719754D01*
X210072399Y-99662464D01*
X210072396Y-99662461D01*
X210056684Y-99643316D01*
X210037539Y-99627604D01*
X209597399Y-99187465D01*
X209581684Y-99168316D01*
X209505245Y-99105583D01*
X209418036Y-99058969D01*
X209323409Y-99030264D01*
X209249653Y-99023000D01*
X209249643Y-99023000D01*
X209225000Y-99020573D01*
X209200357Y-99023000D01*
X209050263Y-99023000D01*
X209030958Y-98959359D01*
X208972848Y-98850644D01*
X208894646Y-98755354D01*
X208799356Y-98677152D01*
X208690641Y-98619042D01*
X208572678Y-98583259D01*
X208450001Y-98571176D01*
X207549999Y-98571176D01*
X207427322Y-98583259D01*
X207309359Y-98619042D01*
X207200644Y-98677152D01*
X207105354Y-98755354D01*
X207027152Y-98850644D01*
X206969042Y-98959359D01*
X206949737Y-99023000D01*
X204211960Y-99023000D01*
X204208711Y-99006668D01*
X204074757Y-98683275D01*
X203880286Y-98392229D01*
X203632771Y-98144714D01*
X203341725Y-97950243D01*
X203018332Y-97816289D01*
X202675019Y-97748000D01*
X202324981Y-97748000D01*
X201981668Y-97816289D01*
X201658275Y-97950243D01*
X201367229Y-98144714D01*
X201119714Y-98392229D01*
X200925243Y-98683275D01*
X200791289Y-99006668D01*
X200723000Y-99349981D01*
X193127000Y-99349981D01*
X193127000Y-91627000D01*
X198049737Y-91627000D01*
X198069042Y-91690641D01*
X198127152Y-91799356D01*
X198205354Y-91894646D01*
X198300644Y-91972848D01*
X198409359Y-92030958D01*
X198527322Y-92066741D01*
X198649999Y-92078824D01*
X199300001Y-92078824D01*
X199422678Y-92066741D01*
X199540641Y-92030958D01*
X199649356Y-91972848D01*
X199744646Y-91894646D01*
X199822848Y-91799356D01*
X199880958Y-91690641D01*
X199916741Y-91572678D01*
X199928824Y-91450001D01*
X199928824Y-90549999D01*
X200071176Y-90549999D01*
X200071176Y-91450001D01*
X200083259Y-91572678D01*
X200119042Y-91690641D01*
X200177152Y-91799356D01*
X200255354Y-91894646D01*
X200350644Y-91972848D01*
X200459359Y-92030958D01*
X200577322Y-92066741D01*
X200699999Y-92078824D01*
X201350001Y-92078824D01*
X201472678Y-92066741D01*
X201590641Y-92030958D01*
X201699356Y-91972848D01*
X201794646Y-91894646D01*
X201872848Y-91799356D01*
X201930958Y-91690641D01*
X201966741Y-91572678D01*
X201973702Y-91502000D01*
X203526298Y-91502000D01*
X203533259Y-91572678D01*
X203569042Y-91690641D01*
X203627152Y-91799356D01*
X203705354Y-91894646D01*
X203800644Y-91972848D01*
X203909359Y-92030958D01*
X204027322Y-92066741D01*
X204149999Y-92078824D01*
X204800001Y-92078824D01*
X204922678Y-92066741D01*
X205040641Y-92030958D01*
X205149356Y-91972848D01*
X205244646Y-91894646D01*
X205322848Y-91799356D01*
X205380958Y-91690641D01*
X205416741Y-91572678D01*
X205428824Y-91450001D01*
X205428824Y-90549999D01*
X205571176Y-90549999D01*
X205571176Y-91450001D01*
X205583259Y-91572678D01*
X205619042Y-91690641D01*
X205677152Y-91799356D01*
X205755354Y-91894646D01*
X205850644Y-91972848D01*
X205959359Y-92030958D01*
X206077322Y-92066741D01*
X206199999Y-92078824D01*
X206850001Y-92078824D01*
X206972678Y-92066741D01*
X207090641Y-92030958D01*
X207199356Y-91972848D01*
X207289189Y-91899124D01*
X207498001Y-92107936D01*
X207498000Y-96526298D01*
X207427322Y-96533259D01*
X207309359Y-96569042D01*
X207200644Y-96627152D01*
X207105354Y-96705354D01*
X207027152Y-96800644D01*
X206969042Y-96909359D01*
X206933259Y-97027322D01*
X206921176Y-97149999D01*
X206921176Y-97800001D01*
X206933259Y-97922678D01*
X206969042Y-98040641D01*
X207027152Y-98149356D01*
X207105354Y-98244646D01*
X207200644Y-98322848D01*
X207309359Y-98380958D01*
X207427322Y-98416741D01*
X207549999Y-98428824D01*
X208450001Y-98428824D01*
X208572678Y-98416741D01*
X208690641Y-98380958D01*
X208799356Y-98322848D01*
X208894646Y-98244646D01*
X208972848Y-98149356D01*
X209030958Y-98040641D01*
X209050263Y-97977000D01*
X213949737Y-97977000D01*
X213969042Y-98040641D01*
X214027152Y-98149356D01*
X214105354Y-98244646D01*
X214200644Y-98322848D01*
X214309359Y-98380958D01*
X214427322Y-98416741D01*
X214549999Y-98428824D01*
X215450001Y-98428824D01*
X215572678Y-98416741D01*
X215690641Y-98380958D01*
X215799356Y-98322848D01*
X215894646Y-98244646D01*
X215972848Y-98149356D01*
X216030958Y-98040641D01*
X216066741Y-97922678D01*
X216078824Y-97800001D01*
X216078824Y-97149999D01*
X216066741Y-97027322D01*
X216030958Y-96909359D01*
X215972848Y-96800644D01*
X215894646Y-96705354D01*
X215799356Y-96627152D01*
X215690641Y-96569042D01*
X215572678Y-96533259D01*
X215450001Y-96521176D01*
X214549999Y-96521176D01*
X214427322Y-96533259D01*
X214309359Y-96569042D01*
X214200644Y-96627152D01*
X214105354Y-96705354D01*
X214027152Y-96800644D01*
X213969042Y-96909359D01*
X213949737Y-96973000D01*
X209050263Y-96973000D01*
X209030958Y-96909359D01*
X208972848Y-96800644D01*
X208894646Y-96705354D01*
X208799356Y-96627152D01*
X208690641Y-96569042D01*
X208572678Y-96533259D01*
X208502000Y-96526298D01*
X208502000Y-91924642D01*
X208504427Y-91899999D01*
X208502000Y-91875356D01*
X208502000Y-91875347D01*
X208494736Y-91801591D01*
X208466031Y-91706964D01*
X208419417Y-91619755D01*
X208356684Y-91543316D01*
X208337538Y-91527603D01*
X207478824Y-90668890D01*
X207478824Y-90549999D01*
X207466741Y-90427322D01*
X207430958Y-90309359D01*
X207372848Y-90200644D01*
X207294646Y-90105354D01*
X207199356Y-90027152D01*
X207090641Y-89969042D01*
X206972678Y-89933259D01*
X206850001Y-89921176D01*
X206199999Y-89921176D01*
X206077322Y-89933259D01*
X205959359Y-89969042D01*
X205850644Y-90027152D01*
X205755354Y-90105354D01*
X205677152Y-90200644D01*
X205619042Y-90309359D01*
X205583259Y-90427322D01*
X205571176Y-90549999D01*
X205428824Y-90549999D01*
X205416741Y-90427322D01*
X205380958Y-90309359D01*
X205322848Y-90200644D01*
X205244646Y-90105354D01*
X205149356Y-90027152D01*
X205040641Y-89969042D01*
X204922678Y-89933259D01*
X204800001Y-89921176D01*
X204149999Y-89921176D01*
X204027322Y-89933259D01*
X203909359Y-89969042D01*
X203800644Y-90027152D01*
X203705354Y-90105354D01*
X203627152Y-90200644D01*
X203569042Y-90309359D01*
X203533259Y-90427322D01*
X203526298Y-90498000D01*
X201973702Y-90498000D01*
X201966741Y-90427322D01*
X201930958Y-90309359D01*
X201872848Y-90200644D01*
X201794646Y-90105354D01*
X201699356Y-90027152D01*
X201590641Y-89969042D01*
X201472678Y-89933259D01*
X201350001Y-89921176D01*
X200699999Y-89921176D01*
X200577322Y-89933259D01*
X200459359Y-89969042D01*
X200350644Y-90027152D01*
X200255354Y-90105354D01*
X200177152Y-90200644D01*
X200119042Y-90309359D01*
X200083259Y-90427322D01*
X200071176Y-90549999D01*
X199928824Y-90549999D01*
X199916741Y-90427322D01*
X199880958Y-90309359D01*
X199822848Y-90200644D01*
X199744646Y-90105354D01*
X199649356Y-90027152D01*
X199540641Y-89969042D01*
X199422678Y-89933259D01*
X199300001Y-89921176D01*
X198649999Y-89921176D01*
X198527322Y-89933259D01*
X198409359Y-89969042D01*
X198300644Y-90027152D01*
X198205354Y-90105354D01*
X198127152Y-90200644D01*
X198069042Y-90309359D01*
X198049737Y-90373000D01*
X193127000Y-90373000D01*
X193127000Y-87394692D01*
X193139537Y-87404981D01*
X193205030Y-87439988D01*
X193276095Y-87461545D01*
X193350000Y-87468824D01*
X197950000Y-87468824D01*
X198023905Y-87461545D01*
X198094970Y-87439988D01*
X198160463Y-87404981D01*
X198217869Y-87357869D01*
X198264981Y-87300463D01*
X198299988Y-87234970D01*
X198321545Y-87163905D01*
X198328824Y-87090000D01*
X198328824Y-87042000D01*
X203530237Y-87042000D01*
X203533259Y-87072678D01*
X203569042Y-87190641D01*
X203627152Y-87299356D01*
X203705354Y-87394646D01*
X203800644Y-87472848D01*
X203909359Y-87530958D01*
X204027322Y-87566741D01*
X204149999Y-87578824D01*
X204800001Y-87578824D01*
X204922678Y-87566741D01*
X205040641Y-87530958D01*
X205149356Y-87472848D01*
X205244646Y-87394646D01*
X205322848Y-87299356D01*
X205380958Y-87190641D01*
X205416741Y-87072678D01*
X205428824Y-86950001D01*
X205428824Y-86049999D01*
X205416741Y-85927322D01*
X205380958Y-85809359D01*
X205322848Y-85700644D01*
X205244646Y-85605354D01*
X205149356Y-85527152D01*
X205040641Y-85469042D01*
X204922678Y-85433259D01*
X204800001Y-85421176D01*
X204149999Y-85421176D01*
X204027322Y-85433259D01*
X203909359Y-85469042D01*
X203800644Y-85527152D01*
X203705354Y-85605354D01*
X203627152Y-85700644D01*
X203569042Y-85809359D01*
X203533259Y-85927322D01*
X203522358Y-86038000D01*
X198328824Y-86038000D01*
X198328824Y-85990000D01*
X198321545Y-85916095D01*
X198299988Y-85845030D01*
X198264981Y-85779537D01*
X198217869Y-85722131D01*
X198160463Y-85675019D01*
X198094970Y-85640012D01*
X198023905Y-85618455D01*
X197950000Y-85611176D01*
X193350000Y-85611176D01*
X193276095Y-85618455D01*
X193205030Y-85640012D01*
X193139537Y-85675019D01*
X193127000Y-85685308D01*
X193127000Y-84854692D01*
X193139537Y-84864981D01*
X193205030Y-84899988D01*
X193276095Y-84921545D01*
X193350000Y-84928824D01*
X197950000Y-84928824D01*
X198023905Y-84921545D01*
X198094970Y-84899988D01*
X198160463Y-84864981D01*
X198217869Y-84817869D01*
X198264981Y-84760463D01*
X198299988Y-84694970D01*
X198321545Y-84623905D01*
X198328824Y-84550000D01*
X198328824Y-83450000D01*
X198321545Y-83376095D01*
X198299988Y-83305030D01*
X198264981Y-83239537D01*
X198217869Y-83182131D01*
X198160463Y-83135019D01*
X198094970Y-83100012D01*
X198023905Y-83078455D01*
X197950000Y-83071176D01*
X193350000Y-83071176D01*
X193276095Y-83078455D01*
X193205030Y-83100012D01*
X193139537Y-83135019D01*
X193127000Y-83145308D01*
X193127000Y-82849981D01*
X200723000Y-82849981D01*
X200723000Y-83200019D01*
X200791289Y-83543332D01*
X200925243Y-83866725D01*
X201119714Y-84157771D01*
X201367229Y-84405286D01*
X201658275Y-84599757D01*
X201981668Y-84733711D01*
X202324981Y-84802000D01*
X202675019Y-84802000D01*
X203018332Y-84733711D01*
X203341725Y-84599757D01*
X203632771Y-84405286D01*
X203880286Y-84157771D01*
X204074757Y-83866725D01*
X204208711Y-83543332D01*
X204211960Y-83527000D01*
X206949737Y-83527000D01*
X206969042Y-83590641D01*
X207027152Y-83699356D01*
X207105354Y-83794646D01*
X207200644Y-83872848D01*
X207309359Y-83930958D01*
X207427322Y-83966741D01*
X207549999Y-83978824D01*
X208450001Y-83978824D01*
X208572678Y-83966741D01*
X208690641Y-83930958D01*
X208799356Y-83872848D01*
X208894646Y-83794646D01*
X208972848Y-83699356D01*
X209030958Y-83590641D01*
X209042537Y-83552471D01*
X209188000Y-83697935D01*
X209188001Y-85796176D01*
X209080000Y-85796176D01*
X209006095Y-85803455D01*
X208935030Y-85825012D01*
X208869537Y-85860019D01*
X208812131Y-85907131D01*
X208765019Y-85964537D01*
X208747133Y-85998000D01*
X207473702Y-85998000D01*
X207466741Y-85927322D01*
X207430958Y-85809359D01*
X207372848Y-85700644D01*
X207294646Y-85605354D01*
X207199356Y-85527152D01*
X207090641Y-85469042D01*
X206972678Y-85433259D01*
X206850001Y-85421176D01*
X206199999Y-85421176D01*
X206077322Y-85433259D01*
X205959359Y-85469042D01*
X205850644Y-85527152D01*
X205755354Y-85605354D01*
X205677152Y-85700644D01*
X205619042Y-85809359D01*
X205583259Y-85927322D01*
X205571176Y-86049999D01*
X205571176Y-86950001D01*
X205583259Y-87072678D01*
X205619042Y-87190641D01*
X205677152Y-87299356D01*
X205755354Y-87394646D01*
X205850644Y-87472848D01*
X205959359Y-87530958D01*
X206077322Y-87566741D01*
X206199999Y-87578824D01*
X206850001Y-87578824D01*
X206972678Y-87566741D01*
X207090641Y-87530958D01*
X207199356Y-87472848D01*
X207294646Y-87394646D01*
X207372848Y-87299356D01*
X207430958Y-87190641D01*
X207466741Y-87072678D01*
X207473702Y-87002000D01*
X208747133Y-87002000D01*
X208765019Y-87035463D01*
X208812131Y-87092869D01*
X208869537Y-87139981D01*
X208935030Y-87174988D01*
X209006095Y-87196545D01*
X209080000Y-87203824D01*
X210300000Y-87203824D01*
X210373905Y-87196545D01*
X210444970Y-87174988D01*
X210510463Y-87139981D01*
X210528717Y-87125000D01*
X211321176Y-87125000D01*
X211321176Y-87775000D01*
X211328455Y-87848905D01*
X211350012Y-87919970D01*
X211385019Y-87985463D01*
X211432131Y-88042869D01*
X211489537Y-88089981D01*
X211555030Y-88124988D01*
X211626095Y-88146545D01*
X211700000Y-88153824D01*
X212920000Y-88153824D01*
X212993905Y-88146545D01*
X213064970Y-88124988D01*
X213130463Y-88089981D01*
X213187869Y-88042869D01*
X213234981Y-87985463D01*
X213256102Y-87945948D01*
X213268409Y-87944736D01*
X213363036Y-87916031D01*
X213450245Y-87869417D01*
X213526684Y-87806684D01*
X213542401Y-87787533D01*
X215337543Y-85992393D01*
X215356684Y-85976684D01*
X215372392Y-85957544D01*
X215372400Y-85957536D01*
X215419416Y-85900246D01*
X215440918Y-85860019D01*
X215466031Y-85813036D01*
X215494736Y-85718409D01*
X215502000Y-85644653D01*
X215502000Y-85644643D01*
X215504427Y-85620000D01*
X215502000Y-85595357D01*
X215502000Y-84315132D01*
X223443000Y-84315132D01*
X223443000Y-84684868D01*
X223515132Y-85047501D01*
X223656624Y-85389093D01*
X223862039Y-85696518D01*
X224123482Y-85957961D01*
X224430907Y-86163376D01*
X224772499Y-86304868D01*
X225135132Y-86377000D01*
X225504868Y-86377000D01*
X225867501Y-86304868D01*
X226209093Y-86163376D01*
X226516518Y-85957961D01*
X226777961Y-85696518D01*
X226983376Y-85389093D01*
X227124868Y-85047501D01*
X227197000Y-84684868D01*
X227197000Y-84315132D01*
X227124868Y-83952499D01*
X226983376Y-83610907D01*
X226777961Y-83303482D01*
X226516518Y-83042039D01*
X226209093Y-82836624D01*
X225867501Y-82695132D01*
X225504868Y-82623000D01*
X225135132Y-82623000D01*
X224772499Y-82695132D01*
X224430907Y-82836624D01*
X224123482Y-83042039D01*
X223862039Y-83303482D01*
X223656624Y-83610907D01*
X223515132Y-83952499D01*
X223443000Y-84315132D01*
X215502000Y-84315132D01*
X215502000Y-83973702D01*
X215572678Y-83966741D01*
X215690641Y-83930958D01*
X215799356Y-83872848D01*
X215894646Y-83794646D01*
X215972848Y-83699356D01*
X216030958Y-83590641D01*
X216050263Y-83527000D01*
X219613835Y-83527000D01*
X219623259Y-83622677D01*
X219659042Y-83740641D01*
X219717152Y-83849356D01*
X219795354Y-83944646D01*
X219890644Y-84022848D01*
X219999359Y-84080958D01*
X220117323Y-84116741D01*
X220240000Y-84128824D01*
X221760000Y-84128824D01*
X221882677Y-84116741D01*
X222000641Y-84080958D01*
X222109356Y-84022848D01*
X222204646Y-83944646D01*
X222282848Y-83849356D01*
X222340958Y-83740641D01*
X222376741Y-83622677D01*
X222388824Y-83500000D01*
X222388824Y-82500000D01*
X222376741Y-82377323D01*
X222340958Y-82259359D01*
X222282848Y-82150644D01*
X222204646Y-82055354D01*
X222109356Y-81977152D01*
X222000641Y-81919042D01*
X221882677Y-81883259D01*
X221760000Y-81871176D01*
X220240000Y-81871176D01*
X220117323Y-81883259D01*
X219999359Y-81919042D01*
X219890644Y-81977152D01*
X219795354Y-82055354D01*
X219717152Y-82150644D01*
X219659042Y-82259359D01*
X219623259Y-82377323D01*
X219611176Y-82500000D01*
X219611176Y-82523000D01*
X216050263Y-82523000D01*
X216030958Y-82459359D01*
X215972848Y-82350644D01*
X215894646Y-82255354D01*
X215799356Y-82177152D01*
X215690641Y-82119042D01*
X215572678Y-82083259D01*
X215450001Y-82071176D01*
X214549999Y-82071176D01*
X214427322Y-82083259D01*
X214309359Y-82119042D01*
X214200644Y-82177152D01*
X214105354Y-82255354D01*
X214027152Y-82350644D01*
X213969042Y-82459359D01*
X213933259Y-82577322D01*
X213921176Y-82699999D01*
X213921176Y-83350001D01*
X213933259Y-83472678D01*
X213969042Y-83590641D01*
X214027152Y-83699356D01*
X214105354Y-83794646D01*
X214200644Y-83872848D01*
X214309359Y-83930958D01*
X214427322Y-83966741D01*
X214498001Y-83973702D01*
X214498000Y-85412064D01*
X213110642Y-86799424D01*
X213064970Y-86775012D01*
X212993905Y-86753455D01*
X212920000Y-86746176D01*
X211700000Y-86746176D01*
X211626095Y-86753455D01*
X211555030Y-86775012D01*
X211489537Y-86810019D01*
X211432131Y-86857131D01*
X211385019Y-86914537D01*
X211350012Y-86980030D01*
X211328455Y-87051095D01*
X211321176Y-87125000D01*
X210528717Y-87125000D01*
X210567869Y-87092869D01*
X210614981Y-87035463D01*
X210649988Y-86969970D01*
X210671545Y-86898905D01*
X210678824Y-86825000D01*
X210678824Y-86175000D01*
X210671545Y-86101095D01*
X210649988Y-86030030D01*
X210614981Y-85964537D01*
X210567869Y-85907131D01*
X210510463Y-85860019D01*
X210444970Y-85825012D01*
X210373905Y-85803455D01*
X210300000Y-85796176D01*
X210192000Y-85796176D01*
X210192000Y-83514642D01*
X210194427Y-83489999D01*
X210192000Y-83465356D01*
X210192000Y-83465347D01*
X210184736Y-83391591D01*
X210156031Y-83296964D01*
X210109417Y-83209755D01*
X210046684Y-83133316D01*
X210027538Y-83117603D01*
X209597399Y-82687465D01*
X209581684Y-82668316D01*
X209505245Y-82605583D01*
X209418036Y-82558969D01*
X209323409Y-82530264D01*
X209249653Y-82523000D01*
X209249643Y-82523000D01*
X209225000Y-82520573D01*
X209200357Y-82523000D01*
X209050263Y-82523000D01*
X209030958Y-82459359D01*
X208972848Y-82350644D01*
X208894646Y-82255354D01*
X208799356Y-82177152D01*
X208690641Y-82119042D01*
X208572678Y-82083259D01*
X208450001Y-82071176D01*
X207549999Y-82071176D01*
X207427322Y-82083259D01*
X207309359Y-82119042D01*
X207200644Y-82177152D01*
X207105354Y-82255354D01*
X207027152Y-82350644D01*
X206969042Y-82459359D01*
X206949737Y-82523000D01*
X204211960Y-82523000D01*
X204208711Y-82506668D01*
X204074757Y-82183275D01*
X203880286Y-81892229D01*
X203632771Y-81644714D01*
X203341725Y-81450243D01*
X203018332Y-81316289D01*
X202675019Y-81248000D01*
X202324981Y-81248000D01*
X201981668Y-81316289D01*
X201658275Y-81450243D01*
X201367229Y-81644714D01*
X201119714Y-81892229D01*
X200925243Y-82183275D01*
X200791289Y-82506668D01*
X200723000Y-82849981D01*
X193127000Y-82849981D01*
X193127000Y-80649999D01*
X206921176Y-80649999D01*
X206921176Y-81300001D01*
X206933259Y-81422678D01*
X206969042Y-81540641D01*
X207027152Y-81649356D01*
X207105354Y-81744646D01*
X207200644Y-81822848D01*
X207309359Y-81880958D01*
X207427322Y-81916741D01*
X207549999Y-81928824D01*
X208450001Y-81928824D01*
X208572678Y-81916741D01*
X208690641Y-81880958D01*
X208799356Y-81822848D01*
X208894646Y-81744646D01*
X208972848Y-81649356D01*
X209030958Y-81540641D01*
X209050263Y-81477000D01*
X213949737Y-81477000D01*
X213969042Y-81540641D01*
X214027152Y-81649356D01*
X214105354Y-81744646D01*
X214200644Y-81822848D01*
X214309359Y-81880958D01*
X214427322Y-81916741D01*
X214549999Y-81928824D01*
X215450001Y-81928824D01*
X215572678Y-81916741D01*
X215690641Y-81880958D01*
X215799356Y-81822848D01*
X215894646Y-81744646D01*
X215972848Y-81649356D01*
X216030958Y-81540641D01*
X216066741Y-81422678D01*
X216078824Y-81300001D01*
X216078824Y-80649999D01*
X216066741Y-80527322D01*
X216030958Y-80409359D01*
X215972848Y-80300644D01*
X215894646Y-80205354D01*
X215799356Y-80127152D01*
X215690641Y-80069042D01*
X215572678Y-80033259D01*
X215450001Y-80021176D01*
X214549999Y-80021176D01*
X214427322Y-80033259D01*
X214309359Y-80069042D01*
X214200644Y-80127152D01*
X214105354Y-80205354D01*
X214027152Y-80300644D01*
X213969042Y-80409359D01*
X213949737Y-80473000D01*
X209050263Y-80473000D01*
X209030958Y-80409359D01*
X208972848Y-80300644D01*
X208894646Y-80205354D01*
X208799356Y-80127152D01*
X208690641Y-80069042D01*
X208572678Y-80033259D01*
X208450001Y-80021176D01*
X207549999Y-80021176D01*
X207427322Y-80033259D01*
X207309359Y-80069042D01*
X207200644Y-80127152D01*
X207105354Y-80205354D01*
X207027152Y-80300644D01*
X206969042Y-80409359D01*
X206933259Y-80527322D01*
X206921176Y-80649999D01*
X193127000Y-80649999D01*
X193127000Y-73752000D01*
X193276298Y-73752000D01*
X193283259Y-73822678D01*
X193319042Y-73940641D01*
X193377152Y-74049356D01*
X193455354Y-74144646D01*
X193550644Y-74222848D01*
X193659359Y-74280958D01*
X193777322Y-74316741D01*
X193899999Y-74328824D01*
X194550001Y-74328824D01*
X194672678Y-74316741D01*
X194790641Y-74280958D01*
X194899356Y-74222848D01*
X194994646Y-74144646D01*
X195072848Y-74049356D01*
X195130958Y-73940641D01*
X195166741Y-73822678D01*
X195178824Y-73700001D01*
X195178824Y-72799999D01*
X195166741Y-72677322D01*
X195130958Y-72559359D01*
X195072848Y-72450644D01*
X194994646Y-72355354D01*
X194899356Y-72277152D01*
X194790641Y-72219042D01*
X194672678Y-72183259D01*
X194550001Y-72171176D01*
X193899999Y-72171176D01*
X193777322Y-72183259D01*
X193659359Y-72219042D01*
X193550644Y-72277152D01*
X193455354Y-72355354D01*
X193377152Y-72450644D01*
X193319042Y-72559359D01*
X193283259Y-72677322D01*
X193276298Y-72748000D01*
X193127000Y-72748000D01*
X193127000Y-70815132D01*
X225123000Y-70815132D01*
X225123000Y-71184868D01*
X225195132Y-71547501D01*
X225336624Y-71889093D01*
X225542039Y-72196518D01*
X225803482Y-72457961D01*
X226110907Y-72663376D01*
X226452499Y-72804868D01*
X226815132Y-72877000D01*
X227184868Y-72877000D01*
X227547501Y-72804868D01*
X227889093Y-72663376D01*
X228196518Y-72457961D01*
X228457961Y-72196518D01*
X228663376Y-71889093D01*
X228804868Y-71547501D01*
X228877000Y-71184868D01*
X228877000Y-70815132D01*
X228804868Y-70452499D01*
X228663376Y-70110907D01*
X228457961Y-69803482D01*
X228196518Y-69542039D01*
X227889093Y-69336624D01*
X227547501Y-69195132D01*
X227184868Y-69123000D01*
X226815132Y-69123000D01*
X226452499Y-69195132D01*
X226110907Y-69336624D01*
X225803482Y-69542039D01*
X225542039Y-69803482D01*
X225336624Y-70110907D01*
X225195132Y-70452499D01*
X225123000Y-70815132D01*
X193127000Y-70815132D01*
X193127000Y-68402000D01*
X226980342Y-68402000D01*
X227504242Y-68453369D01*
G37*
X227504242Y-68453369D02*
X227989286Y-68599812D01*
X228436642Y-68837674D01*
X228829282Y-69157904D01*
X229152241Y-69548294D01*
X229393222Y-69993980D01*
X229543048Y-70477987D01*
X229598000Y-71000820D01*
X229598001Y-71001114D01*
X229598000Y-123273000D01*
X193127000Y-123273000D01*
X193127000Y-117315132D01*
X223443000Y-117315132D01*
X223443000Y-117684868D01*
X223515132Y-118047501D01*
X223656624Y-118389093D01*
X223862039Y-118696518D01*
X224123482Y-118957961D01*
X224430907Y-119163376D01*
X224772499Y-119304868D01*
X225135132Y-119377000D01*
X225504868Y-119377000D01*
X225867501Y-119304868D01*
X226209093Y-119163376D01*
X226516518Y-118957961D01*
X226777961Y-118696518D01*
X226983376Y-118389093D01*
X227124868Y-118047501D01*
X227197000Y-117684868D01*
X227197000Y-117315132D01*
X227124868Y-116952499D01*
X226983376Y-116610907D01*
X226777961Y-116303482D01*
X226516518Y-116042039D01*
X226209093Y-115836624D01*
X225867501Y-115695132D01*
X225504868Y-115623000D01*
X225135132Y-115623000D01*
X224772499Y-115695132D01*
X224430907Y-115836624D01*
X224123482Y-116042039D01*
X223862039Y-116303482D01*
X223656624Y-116610907D01*
X223515132Y-116952499D01*
X223443000Y-117315132D01*
X193127000Y-117315132D01*
X193127000Y-115500000D01*
X219611176Y-115500000D01*
X219611176Y-116500000D01*
X219623259Y-116622677D01*
X219659042Y-116740641D01*
X219717152Y-116849356D01*
X219795354Y-116944646D01*
X219890644Y-117022848D01*
X219999359Y-117080958D01*
X220117323Y-117116741D01*
X220240000Y-117128824D01*
X221760000Y-117128824D01*
X221882677Y-117116741D01*
X222000641Y-117080958D01*
X222109356Y-117022848D01*
X222204646Y-116944646D01*
X222282848Y-116849356D01*
X222340958Y-116740641D01*
X222376741Y-116622677D01*
X222388824Y-116500000D01*
X222388824Y-115500000D01*
X222376741Y-115377323D01*
X222340958Y-115259359D01*
X222282848Y-115150644D01*
X222204646Y-115055354D01*
X222109356Y-114977152D01*
X222000641Y-114919042D01*
X221882677Y-114883259D01*
X221760000Y-114871176D01*
X220240000Y-114871176D01*
X220117323Y-114883259D01*
X219999359Y-114919042D01*
X219890644Y-114977152D01*
X219795354Y-115055354D01*
X219717152Y-115150644D01*
X219659042Y-115259359D01*
X219623259Y-115377323D01*
X219611176Y-115500000D01*
X193127000Y-115500000D01*
X193127000Y-113923472D01*
X207223000Y-113923472D01*
X207223000Y-114076528D01*
X207252859Y-114226643D01*
X207311431Y-114368048D01*
X207396464Y-114495309D01*
X207504691Y-114603536D01*
X207631952Y-114688569D01*
X207773357Y-114747141D01*
X207923472Y-114777000D01*
X208076528Y-114777000D01*
X208226643Y-114747141D01*
X208368048Y-114688569D01*
X208495309Y-114603536D01*
X208596845Y-114502000D01*
X213457321Y-114502000D01*
X213469042Y-114540641D01*
X213527152Y-114649356D01*
X213605354Y-114744646D01*
X213700644Y-114822848D01*
X213809359Y-114880958D01*
X213927322Y-114916741D01*
X214049999Y-114928824D01*
X214950001Y-114928824D01*
X215072678Y-114916741D01*
X215190641Y-114880958D01*
X215299356Y-114822848D01*
X215394646Y-114744646D01*
X215472848Y-114649356D01*
X215530958Y-114540641D01*
X215566741Y-114422678D01*
X215578824Y-114300001D01*
X215578824Y-113649999D01*
X215566741Y-113527322D01*
X215530958Y-113409359D01*
X215472848Y-113300644D01*
X215394646Y-113205354D01*
X215299356Y-113127152D01*
X215190641Y-113069042D01*
X215072678Y-113033259D01*
X214950001Y-113021176D01*
X214049999Y-113021176D01*
X213927322Y-113033259D01*
X213809359Y-113069042D01*
X213700644Y-113127152D01*
X213605354Y-113205354D01*
X213527152Y-113300644D01*
X213469042Y-113409359D01*
X213442154Y-113498000D01*
X208596845Y-113498000D01*
X208495309Y-113396464D01*
X208368048Y-113311431D01*
X208226643Y-113252859D01*
X208076528Y-113223000D01*
X207923472Y-113223000D01*
X207773357Y-113252859D01*
X207631952Y-113311431D01*
X207504691Y-113396464D01*
X207396464Y-113504691D01*
X207311431Y-113631952D01*
X207252859Y-113773357D01*
X207223000Y-113923472D01*
X193127000Y-113923472D01*
X193127000Y-108127000D01*
X198049737Y-108127000D01*
X198069042Y-108190641D01*
X198127152Y-108299356D01*
X198205354Y-108394646D01*
X198300644Y-108472848D01*
X198409359Y-108530958D01*
X198527322Y-108566741D01*
X198649999Y-108578824D01*
X199300001Y-108578824D01*
X199422678Y-108566741D01*
X199540641Y-108530958D01*
X199649356Y-108472848D01*
X199744646Y-108394646D01*
X199822848Y-108299356D01*
X199880958Y-108190641D01*
X199916741Y-108072678D01*
X199928824Y-107950001D01*
X199928824Y-107049999D01*
X200071176Y-107049999D01*
X200071176Y-107950001D01*
X200083259Y-108072678D01*
X200119042Y-108190641D01*
X200177152Y-108299356D01*
X200255354Y-108394646D01*
X200350644Y-108472848D01*
X200459359Y-108530958D01*
X200577322Y-108566741D01*
X200699999Y-108578824D01*
X201350001Y-108578824D01*
X201472678Y-108566741D01*
X201590641Y-108530958D01*
X201699356Y-108472848D01*
X201794646Y-108394646D01*
X201872848Y-108299356D01*
X201930958Y-108190641D01*
X201966741Y-108072678D01*
X201973702Y-108002000D01*
X203526298Y-108002000D01*
X203533259Y-108072678D01*
X203569042Y-108190641D01*
X203627152Y-108299356D01*
X203705354Y-108394646D01*
X203800644Y-108472848D01*
X203909359Y-108530958D01*
X204027322Y-108566741D01*
X204149999Y-108578824D01*
X204800001Y-108578824D01*
X204922678Y-108566741D01*
X205040641Y-108530958D01*
X205149356Y-108472848D01*
X205244646Y-108394646D01*
X205322848Y-108299356D01*
X205380958Y-108190641D01*
X205416741Y-108072678D01*
X205428824Y-107950001D01*
X205428824Y-107049999D01*
X205571176Y-107049999D01*
X205571176Y-107950001D01*
X205583259Y-108072678D01*
X205619042Y-108190641D01*
X205677152Y-108299356D01*
X205755354Y-108394646D01*
X205850644Y-108472848D01*
X205959359Y-108530958D01*
X206077322Y-108566741D01*
X206199999Y-108578824D01*
X206850001Y-108578824D01*
X206972678Y-108566741D01*
X207090641Y-108530958D01*
X207199356Y-108472848D01*
X207294646Y-108394646D01*
X207372848Y-108299356D01*
X207430958Y-108190641D01*
X207466741Y-108072678D01*
X207478824Y-107950001D01*
X207478824Y-107831110D01*
X208337538Y-106972397D01*
X208356684Y-106956684D01*
X208419417Y-106880245D01*
X208466031Y-106793036D01*
X208494736Y-106698409D01*
X208502000Y-106624653D01*
X208502000Y-106624644D01*
X208504427Y-106600001D01*
X208502000Y-106575358D01*
X208502000Y-105596845D01*
X208603536Y-105495309D01*
X208688569Y-105368048D01*
X208747141Y-105226643D01*
X208777000Y-105076528D01*
X208777000Y-104923472D01*
X208747141Y-104773357D01*
X208688569Y-104631952D01*
X208603536Y-104504691D01*
X208495309Y-104396464D01*
X208368048Y-104311431D01*
X208226643Y-104252859D01*
X208076528Y-104223000D01*
X207923472Y-104223000D01*
X207773357Y-104252859D01*
X207631952Y-104311431D01*
X207504691Y-104396464D01*
X207396464Y-104504691D01*
X207311431Y-104631952D01*
X207252859Y-104773357D01*
X207223000Y-104923472D01*
X207223000Y-105076528D01*
X207252859Y-105226643D01*
X207311431Y-105368048D01*
X207396464Y-105495309D01*
X207498001Y-105596846D01*
X207498000Y-106392065D01*
X207289189Y-106600876D01*
X207199356Y-106527152D01*
X207090641Y-106469042D01*
X206972678Y-106433259D01*
X206850001Y-106421176D01*
X206199999Y-106421176D01*
X206077322Y-106433259D01*
X205959359Y-106469042D01*
X205850644Y-106527152D01*
X205755354Y-106605354D01*
X205677152Y-106700644D01*
X205619042Y-106809359D01*
X205583259Y-106927322D01*
X205571176Y-107049999D01*
X205428824Y-107049999D01*
X205416741Y-106927322D01*
X205380958Y-106809359D01*
X205322848Y-106700644D01*
X205244646Y-106605354D01*
X205149356Y-106527152D01*
X205040641Y-106469042D01*
X204922678Y-106433259D01*
X204800001Y-106421176D01*
X204149999Y-106421176D01*
X204027322Y-106433259D01*
X203909359Y-106469042D01*
X203800644Y-106527152D01*
X203705354Y-106605354D01*
X203627152Y-106700644D01*
X203569042Y-106809359D01*
X203533259Y-106927322D01*
X203526298Y-106998000D01*
X201973702Y-106998000D01*
X201966741Y-106927322D01*
X201930958Y-106809359D01*
X201872848Y-106700644D01*
X201794646Y-106605354D01*
X201699356Y-106527152D01*
X201590641Y-106469042D01*
X201472678Y-106433259D01*
X201350001Y-106421176D01*
X200699999Y-106421176D01*
X200577322Y-106433259D01*
X200459359Y-106469042D01*
X200350644Y-106527152D01*
X200255354Y-106605354D01*
X200177152Y-106700644D01*
X200119042Y-106809359D01*
X200083259Y-106927322D01*
X200071176Y-107049999D01*
X199928824Y-107049999D01*
X199916741Y-106927322D01*
X199880958Y-106809359D01*
X199822848Y-106700644D01*
X199744646Y-106605354D01*
X199649356Y-106527152D01*
X199540641Y-106469042D01*
X199422678Y-106433259D01*
X199300001Y-106421176D01*
X198649999Y-106421176D01*
X198527322Y-106433259D01*
X198409359Y-106469042D01*
X198300644Y-106527152D01*
X198205354Y-106605354D01*
X198127152Y-106700644D01*
X198069042Y-106809359D01*
X198049737Y-106873000D01*
X193127000Y-106873000D01*
X193127000Y-103821154D01*
X193157131Y-103857869D01*
X193214537Y-103904981D01*
X193280030Y-103939988D01*
X193351095Y-103961545D01*
X193425000Y-103968824D01*
X198025000Y-103968824D01*
X198098905Y-103961545D01*
X198169970Y-103939988D01*
X198235463Y-103904981D01*
X198292869Y-103857869D01*
X198339981Y-103800463D01*
X198374988Y-103734970D01*
X198396545Y-103663905D01*
X198403824Y-103590000D01*
X198403824Y-103542000D01*
X203530237Y-103542000D01*
X203533259Y-103572678D01*
X203569042Y-103690641D01*
X203627152Y-103799356D01*
X203705354Y-103894646D01*
X203800644Y-103972848D01*
X203909359Y-104030958D01*
X204027322Y-104066741D01*
X204149999Y-104078824D01*
X204800001Y-104078824D01*
X204922678Y-104066741D01*
X205040641Y-104030958D01*
X205149356Y-103972848D01*
X205244646Y-103894646D01*
X205322848Y-103799356D01*
X205380958Y-103690641D01*
X205416741Y-103572678D01*
X205428824Y-103450001D01*
X205428824Y-102549999D01*
X205416741Y-102427322D01*
X205380958Y-102309359D01*
X205322848Y-102200644D01*
X205244646Y-102105354D01*
X205149356Y-102027152D01*
X205040641Y-101969042D01*
X204922678Y-101933259D01*
X204800001Y-101921176D01*
X204149999Y-101921176D01*
X204027322Y-101933259D01*
X203909359Y-101969042D01*
X203800644Y-102027152D01*
X203705354Y-102105354D01*
X203627152Y-102200644D01*
X203569042Y-102309359D01*
X203533259Y-102427322D01*
X203522358Y-102538000D01*
X198403824Y-102538000D01*
X198403824Y-102490000D01*
X198396545Y-102416095D01*
X198374988Y-102345030D01*
X198339981Y-102279537D01*
X198292869Y-102222131D01*
X198235463Y-102175019D01*
X198169970Y-102140012D01*
X198098905Y-102118455D01*
X198025000Y-102111176D01*
X193425000Y-102111176D01*
X193351095Y-102118455D01*
X193280030Y-102140012D01*
X193214537Y-102175019D01*
X193157131Y-102222131D01*
X193127000Y-102258846D01*
X193127000Y-101281154D01*
X193157131Y-101317869D01*
X193214537Y-101364981D01*
X193280030Y-101399988D01*
X193351095Y-101421545D01*
X193425000Y-101428824D01*
X198025000Y-101428824D01*
X198098905Y-101421545D01*
X198169970Y-101399988D01*
X198235463Y-101364981D01*
X198292869Y-101317869D01*
X198339981Y-101260463D01*
X198374988Y-101194970D01*
X198396545Y-101123905D01*
X198403824Y-101050000D01*
X198403824Y-99950000D01*
X198396545Y-99876095D01*
X198374988Y-99805030D01*
X198339981Y-99739537D01*
X198292869Y-99682131D01*
X198235463Y-99635019D01*
X198169970Y-99600012D01*
X198098905Y-99578455D01*
X198025000Y-99571176D01*
X193425000Y-99571176D01*
X193351095Y-99578455D01*
X193280030Y-99600012D01*
X193214537Y-99635019D01*
X193157131Y-99682131D01*
X193127000Y-99718846D01*
X193127000Y-99349981D01*
X200723000Y-99349981D01*
X200723000Y-99700019D01*
X200791289Y-100043332D01*
X200925243Y-100366725D01*
X201119714Y-100657771D01*
X201367229Y-100905286D01*
X201658275Y-101099757D01*
X201981668Y-101233711D01*
X202324981Y-101302000D01*
X202675019Y-101302000D01*
X203018332Y-101233711D01*
X203341725Y-101099757D01*
X203632771Y-100905286D01*
X203880286Y-100657771D01*
X204074757Y-100366725D01*
X204208711Y-100043332D01*
X204211960Y-100027000D01*
X206949737Y-100027000D01*
X206969042Y-100090641D01*
X207027152Y-100199356D01*
X207105354Y-100294646D01*
X207200644Y-100372848D01*
X207309359Y-100430958D01*
X207427322Y-100466741D01*
X207549999Y-100478824D01*
X208450001Y-100478824D01*
X208572678Y-100466741D01*
X208690641Y-100430958D01*
X208799356Y-100372848D01*
X208894646Y-100294646D01*
X208972848Y-100199356D01*
X209030958Y-100090641D01*
X209042537Y-100052471D01*
X209188000Y-100197935D01*
X209188001Y-102296176D01*
X209080000Y-102296176D01*
X209006095Y-102303455D01*
X208935030Y-102325012D01*
X208869537Y-102360019D01*
X208812131Y-102407131D01*
X208765019Y-102464537D01*
X208747133Y-102498000D01*
X207473702Y-102498000D01*
X207466741Y-102427322D01*
X207430958Y-102309359D01*
X207372848Y-102200644D01*
X207294646Y-102105354D01*
X207199356Y-102027152D01*
X207090641Y-101969042D01*
X206972678Y-101933259D01*
X206850001Y-101921176D01*
X206199999Y-101921176D01*
X206077322Y-101933259D01*
X205959359Y-101969042D01*
X205850644Y-102027152D01*
X205755354Y-102105354D01*
X205677152Y-102200644D01*
X205619042Y-102309359D01*
X205583259Y-102427322D01*
X205571176Y-102549999D01*
X205571176Y-103450001D01*
X205583259Y-103572678D01*
X205619042Y-103690641D01*
X205677152Y-103799356D01*
X205755354Y-103894646D01*
X205850644Y-103972848D01*
X205959359Y-104030958D01*
X206077322Y-104066741D01*
X206199999Y-104078824D01*
X206850001Y-104078824D01*
X206972678Y-104066741D01*
X207090641Y-104030958D01*
X207199356Y-103972848D01*
X207294646Y-103894646D01*
X207372848Y-103799356D01*
X207430958Y-103690641D01*
X207466741Y-103572678D01*
X207473702Y-103502000D01*
X208747133Y-103502000D01*
X208765019Y-103535463D01*
X208812131Y-103592869D01*
X208869537Y-103639981D01*
X208935030Y-103674988D01*
X209006095Y-103696545D01*
X209080000Y-103703824D01*
X210300000Y-103703824D01*
X210373905Y-103696545D01*
X210444970Y-103674988D01*
X210510463Y-103639981D01*
X210528717Y-103625000D01*
X211321176Y-103625000D01*
X211321176Y-104275000D01*
X211328455Y-104348905D01*
X211350012Y-104419970D01*
X211385019Y-104485463D01*
X211432131Y-104542869D01*
X211489537Y-104589981D01*
X211555030Y-104624988D01*
X211626095Y-104646545D01*
X211700000Y-104653824D01*
X212920000Y-104653824D01*
X212993905Y-104646545D01*
X213064970Y-104624988D01*
X213130463Y-104589981D01*
X213187869Y-104542869D01*
X213234981Y-104485463D01*
X213256102Y-104445948D01*
X213268409Y-104444736D01*
X213363036Y-104416031D01*
X213450245Y-104369417D01*
X213526684Y-104306684D01*
X213542401Y-104287533D01*
X215337543Y-102492393D01*
X215356684Y-102476684D01*
X215372392Y-102457544D01*
X215372400Y-102457536D01*
X215419416Y-102400246D01*
X215440918Y-102360019D01*
X215466031Y-102313036D01*
X215494736Y-102218409D01*
X215502000Y-102144653D01*
X215502000Y-102144643D01*
X215504427Y-102120000D01*
X215502000Y-102095357D01*
X215502000Y-100815132D01*
X223443000Y-100815132D01*
X223443000Y-101184868D01*
X223515132Y-101547501D01*
X223656624Y-101889093D01*
X223862039Y-102196518D01*
X224123482Y-102457961D01*
X224430907Y-102663376D01*
X224772499Y-102804868D01*
X225135132Y-102877000D01*
X225504868Y-102877000D01*
X225867501Y-102804868D01*
X226209093Y-102663376D01*
X226516518Y-102457961D01*
X226777961Y-102196518D01*
X226983376Y-101889093D01*
X227124868Y-101547501D01*
X227197000Y-101184868D01*
X227197000Y-100815132D01*
X227124868Y-100452499D01*
X226983376Y-100110907D01*
X226777961Y-99803482D01*
X226516518Y-99542039D01*
X226209093Y-99336624D01*
X225867501Y-99195132D01*
X225504868Y-99123000D01*
X225135132Y-99123000D01*
X224772499Y-99195132D01*
X224430907Y-99336624D01*
X224123482Y-99542039D01*
X223862039Y-99803482D01*
X223656624Y-100110907D01*
X223515132Y-100452499D01*
X223443000Y-100815132D01*
X215502000Y-100815132D01*
X215502000Y-100473702D01*
X215572678Y-100466741D01*
X215690641Y-100430958D01*
X215799356Y-100372848D01*
X215894646Y-100294646D01*
X215972848Y-100199356D01*
X216030958Y-100090641D01*
X216050263Y-100027000D01*
X219613835Y-100027000D01*
X219623259Y-100122677D01*
X219659042Y-100240641D01*
X219717152Y-100349356D01*
X219795354Y-100444646D01*
X219890644Y-100522848D01*
X219999359Y-100580958D01*
X220117323Y-100616741D01*
X220240000Y-100628824D01*
X221760000Y-100628824D01*
X221882677Y-100616741D01*
X222000641Y-100580958D01*
X222109356Y-100522848D01*
X222204646Y-100444646D01*
X222282848Y-100349356D01*
X222340958Y-100240641D01*
X222376741Y-100122677D01*
X222388824Y-100000000D01*
X222388824Y-99000000D01*
X222376741Y-98877323D01*
X222340958Y-98759359D01*
X222282848Y-98650644D01*
X222204646Y-98555354D01*
X222109356Y-98477152D01*
X222000641Y-98419042D01*
X221882677Y-98383259D01*
X221760000Y-98371176D01*
X220240000Y-98371176D01*
X220117323Y-98383259D01*
X219999359Y-98419042D01*
X219890644Y-98477152D01*
X219795354Y-98555354D01*
X219717152Y-98650644D01*
X219659042Y-98759359D01*
X219623259Y-98877323D01*
X219611176Y-99000000D01*
X219611176Y-99023000D01*
X216050263Y-99023000D01*
X216030958Y-98959359D01*
X215972848Y-98850644D01*
X215894646Y-98755354D01*
X215799356Y-98677152D01*
X215690641Y-98619042D01*
X215572678Y-98583259D01*
X215450001Y-98571176D01*
X214549999Y-98571176D01*
X214427322Y-98583259D01*
X214309359Y-98619042D01*
X214200644Y-98677152D01*
X214105354Y-98755354D01*
X214027152Y-98850644D01*
X213969042Y-98959359D01*
X213933259Y-99077322D01*
X213921176Y-99199999D01*
X213921176Y-99850001D01*
X213933259Y-99972678D01*
X213969042Y-100090641D01*
X214027152Y-100199356D01*
X214105354Y-100294646D01*
X214200644Y-100372848D01*
X214309359Y-100430958D01*
X214427322Y-100466741D01*
X214498001Y-100473702D01*
X214498000Y-101912064D01*
X213110642Y-103299424D01*
X213064970Y-103275012D01*
X212993905Y-103253455D01*
X212920000Y-103246176D01*
X211700000Y-103246176D01*
X211626095Y-103253455D01*
X211555030Y-103275012D01*
X211489537Y-103310019D01*
X211432131Y-103357131D01*
X211385019Y-103414537D01*
X211350012Y-103480030D01*
X211328455Y-103551095D01*
X211321176Y-103625000D01*
X210528717Y-103625000D01*
X210567869Y-103592869D01*
X210614981Y-103535463D01*
X210649988Y-103469970D01*
X210671545Y-103398905D01*
X210678824Y-103325000D01*
X210678824Y-102675000D01*
X210671545Y-102601095D01*
X210649988Y-102530030D01*
X210614981Y-102464537D01*
X210567869Y-102407131D01*
X210510463Y-102360019D01*
X210444970Y-102325012D01*
X210373905Y-102303455D01*
X210300000Y-102296176D01*
X210192000Y-102296176D01*
X210192000Y-100107425D01*
X210194735Y-100098409D01*
X210204427Y-99999999D01*
X210194735Y-99901590D01*
X210166030Y-99806963D01*
X210119416Y-99719754D01*
X210072399Y-99662464D01*
X210072396Y-99662461D01*
X210056684Y-99643316D01*
X210037539Y-99627604D01*
X209597399Y-99187465D01*
X209581684Y-99168316D01*
X209505245Y-99105583D01*
X209418036Y-99058969D01*
X209323409Y-99030264D01*
X209249653Y-99023000D01*
X209249643Y-99023000D01*
X209225000Y-99020573D01*
X209200357Y-99023000D01*
X209050263Y-99023000D01*
X209030958Y-98959359D01*
X208972848Y-98850644D01*
X208894646Y-98755354D01*
X208799356Y-98677152D01*
X208690641Y-98619042D01*
X208572678Y-98583259D01*
X208450001Y-98571176D01*
X207549999Y-98571176D01*
X207427322Y-98583259D01*
X207309359Y-98619042D01*
X207200644Y-98677152D01*
X207105354Y-98755354D01*
X207027152Y-98850644D01*
X206969042Y-98959359D01*
X206949737Y-99023000D01*
X204211960Y-99023000D01*
X204208711Y-99006668D01*
X204074757Y-98683275D01*
X203880286Y-98392229D01*
X203632771Y-98144714D01*
X203341725Y-97950243D01*
X203018332Y-97816289D01*
X202675019Y-97748000D01*
X202324981Y-97748000D01*
X201981668Y-97816289D01*
X201658275Y-97950243D01*
X201367229Y-98144714D01*
X201119714Y-98392229D01*
X200925243Y-98683275D01*
X200791289Y-99006668D01*
X200723000Y-99349981D01*
X193127000Y-99349981D01*
X193127000Y-91627000D01*
X198049737Y-91627000D01*
X198069042Y-91690641D01*
X198127152Y-91799356D01*
X198205354Y-91894646D01*
X198300644Y-91972848D01*
X198409359Y-92030958D01*
X198527322Y-92066741D01*
X198649999Y-92078824D01*
X199300001Y-92078824D01*
X199422678Y-92066741D01*
X199540641Y-92030958D01*
X199649356Y-91972848D01*
X199744646Y-91894646D01*
X199822848Y-91799356D01*
X199880958Y-91690641D01*
X199916741Y-91572678D01*
X199928824Y-91450001D01*
X199928824Y-90549999D01*
X200071176Y-90549999D01*
X200071176Y-91450001D01*
X200083259Y-91572678D01*
X200119042Y-91690641D01*
X200177152Y-91799356D01*
X200255354Y-91894646D01*
X200350644Y-91972848D01*
X200459359Y-92030958D01*
X200577322Y-92066741D01*
X200699999Y-92078824D01*
X201350001Y-92078824D01*
X201472678Y-92066741D01*
X201590641Y-92030958D01*
X201699356Y-91972848D01*
X201794646Y-91894646D01*
X201872848Y-91799356D01*
X201930958Y-91690641D01*
X201966741Y-91572678D01*
X201973702Y-91502000D01*
X203526298Y-91502000D01*
X203533259Y-91572678D01*
X203569042Y-91690641D01*
X203627152Y-91799356D01*
X203705354Y-91894646D01*
X203800644Y-91972848D01*
X203909359Y-92030958D01*
X204027322Y-92066741D01*
X204149999Y-92078824D01*
X204800001Y-92078824D01*
X204922678Y-92066741D01*
X205040641Y-92030958D01*
X205149356Y-91972848D01*
X205244646Y-91894646D01*
X205322848Y-91799356D01*
X205380958Y-91690641D01*
X205416741Y-91572678D01*
X205428824Y-91450001D01*
X205428824Y-90549999D01*
X205571176Y-90549999D01*
X205571176Y-91450001D01*
X205583259Y-91572678D01*
X205619042Y-91690641D01*
X205677152Y-91799356D01*
X205755354Y-91894646D01*
X205850644Y-91972848D01*
X205959359Y-92030958D01*
X206077322Y-92066741D01*
X206199999Y-92078824D01*
X206850001Y-92078824D01*
X206972678Y-92066741D01*
X207090641Y-92030958D01*
X207199356Y-91972848D01*
X207289189Y-91899124D01*
X207498001Y-92107936D01*
X207498000Y-96526298D01*
X207427322Y-96533259D01*
X207309359Y-96569042D01*
X207200644Y-96627152D01*
X207105354Y-96705354D01*
X207027152Y-96800644D01*
X206969042Y-96909359D01*
X206933259Y-97027322D01*
X206921176Y-97149999D01*
X206921176Y-97800001D01*
X206933259Y-97922678D01*
X206969042Y-98040641D01*
X207027152Y-98149356D01*
X207105354Y-98244646D01*
X207200644Y-98322848D01*
X207309359Y-98380958D01*
X207427322Y-98416741D01*
X207549999Y-98428824D01*
X208450001Y-98428824D01*
X208572678Y-98416741D01*
X208690641Y-98380958D01*
X208799356Y-98322848D01*
X208894646Y-98244646D01*
X208972848Y-98149356D01*
X209030958Y-98040641D01*
X209050263Y-97977000D01*
X213949737Y-97977000D01*
X213969042Y-98040641D01*
X214027152Y-98149356D01*
X214105354Y-98244646D01*
X214200644Y-98322848D01*
X214309359Y-98380958D01*
X214427322Y-98416741D01*
X214549999Y-98428824D01*
X215450001Y-98428824D01*
X215572678Y-98416741D01*
X215690641Y-98380958D01*
X215799356Y-98322848D01*
X215894646Y-98244646D01*
X215972848Y-98149356D01*
X216030958Y-98040641D01*
X216066741Y-97922678D01*
X216078824Y-97800001D01*
X216078824Y-97149999D01*
X216066741Y-97027322D01*
X216030958Y-96909359D01*
X215972848Y-96800644D01*
X215894646Y-96705354D01*
X215799356Y-96627152D01*
X215690641Y-96569042D01*
X215572678Y-96533259D01*
X215450001Y-96521176D01*
X214549999Y-96521176D01*
X214427322Y-96533259D01*
X214309359Y-96569042D01*
X214200644Y-96627152D01*
X214105354Y-96705354D01*
X214027152Y-96800644D01*
X213969042Y-96909359D01*
X213949737Y-96973000D01*
X209050263Y-96973000D01*
X209030958Y-96909359D01*
X208972848Y-96800644D01*
X208894646Y-96705354D01*
X208799356Y-96627152D01*
X208690641Y-96569042D01*
X208572678Y-96533259D01*
X208502000Y-96526298D01*
X208502000Y-91924642D01*
X208504427Y-91899999D01*
X208502000Y-91875356D01*
X208502000Y-91875347D01*
X208494736Y-91801591D01*
X208466031Y-91706964D01*
X208419417Y-91619755D01*
X208356684Y-91543316D01*
X208337538Y-91527603D01*
X207478824Y-90668890D01*
X207478824Y-90549999D01*
X207466741Y-90427322D01*
X207430958Y-90309359D01*
X207372848Y-90200644D01*
X207294646Y-90105354D01*
X207199356Y-90027152D01*
X207090641Y-89969042D01*
X206972678Y-89933259D01*
X206850001Y-89921176D01*
X206199999Y-89921176D01*
X206077322Y-89933259D01*
X205959359Y-89969042D01*
X205850644Y-90027152D01*
X205755354Y-90105354D01*
X205677152Y-90200644D01*
X205619042Y-90309359D01*
X205583259Y-90427322D01*
X205571176Y-90549999D01*
X205428824Y-90549999D01*
X205416741Y-90427322D01*
X205380958Y-90309359D01*
X205322848Y-90200644D01*
X205244646Y-90105354D01*
X205149356Y-90027152D01*
X205040641Y-89969042D01*
X204922678Y-89933259D01*
X204800001Y-89921176D01*
X204149999Y-89921176D01*
X204027322Y-89933259D01*
X203909359Y-89969042D01*
X203800644Y-90027152D01*
X203705354Y-90105354D01*
X203627152Y-90200644D01*
X203569042Y-90309359D01*
X203533259Y-90427322D01*
X203526298Y-90498000D01*
X201973702Y-90498000D01*
X201966741Y-90427322D01*
X201930958Y-90309359D01*
X201872848Y-90200644D01*
X201794646Y-90105354D01*
X201699356Y-90027152D01*
X201590641Y-89969042D01*
X201472678Y-89933259D01*
X201350001Y-89921176D01*
X200699999Y-89921176D01*
X200577322Y-89933259D01*
X200459359Y-89969042D01*
X200350644Y-90027152D01*
X200255354Y-90105354D01*
X200177152Y-90200644D01*
X200119042Y-90309359D01*
X200083259Y-90427322D01*
X200071176Y-90549999D01*
X199928824Y-90549999D01*
X199916741Y-90427322D01*
X199880958Y-90309359D01*
X199822848Y-90200644D01*
X199744646Y-90105354D01*
X199649356Y-90027152D01*
X199540641Y-89969042D01*
X199422678Y-89933259D01*
X199300001Y-89921176D01*
X198649999Y-89921176D01*
X198527322Y-89933259D01*
X198409359Y-89969042D01*
X198300644Y-90027152D01*
X198205354Y-90105354D01*
X198127152Y-90200644D01*
X198069042Y-90309359D01*
X198049737Y-90373000D01*
X193127000Y-90373000D01*
X193127000Y-87394692D01*
X193139537Y-87404981D01*
X193205030Y-87439988D01*
X193276095Y-87461545D01*
X193350000Y-87468824D01*
X197950000Y-87468824D01*
X198023905Y-87461545D01*
X198094970Y-87439988D01*
X198160463Y-87404981D01*
X198217869Y-87357869D01*
X198264981Y-87300463D01*
X198299988Y-87234970D01*
X198321545Y-87163905D01*
X198328824Y-87090000D01*
X198328824Y-87042000D01*
X203530237Y-87042000D01*
X203533259Y-87072678D01*
X203569042Y-87190641D01*
X203627152Y-87299356D01*
X203705354Y-87394646D01*
X203800644Y-87472848D01*
X203909359Y-87530958D01*
X204027322Y-87566741D01*
X204149999Y-87578824D01*
X204800001Y-87578824D01*
X204922678Y-87566741D01*
X205040641Y-87530958D01*
X205149356Y-87472848D01*
X205244646Y-87394646D01*
X205322848Y-87299356D01*
X205380958Y-87190641D01*
X205416741Y-87072678D01*
X205428824Y-86950001D01*
X205428824Y-86049999D01*
X205416741Y-85927322D01*
X205380958Y-85809359D01*
X205322848Y-85700644D01*
X205244646Y-85605354D01*
X205149356Y-85527152D01*
X205040641Y-85469042D01*
X204922678Y-85433259D01*
X204800001Y-85421176D01*
X204149999Y-85421176D01*
X204027322Y-85433259D01*
X203909359Y-85469042D01*
X203800644Y-85527152D01*
X203705354Y-85605354D01*
X203627152Y-85700644D01*
X203569042Y-85809359D01*
X203533259Y-85927322D01*
X203522358Y-86038000D01*
X198328824Y-86038000D01*
X198328824Y-85990000D01*
X198321545Y-85916095D01*
X198299988Y-85845030D01*
X198264981Y-85779537D01*
X198217869Y-85722131D01*
X198160463Y-85675019D01*
X198094970Y-85640012D01*
X198023905Y-85618455D01*
X197950000Y-85611176D01*
X193350000Y-85611176D01*
X193276095Y-85618455D01*
X193205030Y-85640012D01*
X193139537Y-85675019D01*
X193127000Y-85685308D01*
X193127000Y-84854692D01*
X193139537Y-84864981D01*
X193205030Y-84899988D01*
X193276095Y-84921545D01*
X193350000Y-84928824D01*
X197950000Y-84928824D01*
X198023905Y-84921545D01*
X198094970Y-84899988D01*
X198160463Y-84864981D01*
X198217869Y-84817869D01*
X198264981Y-84760463D01*
X198299988Y-84694970D01*
X198321545Y-84623905D01*
X198328824Y-84550000D01*
X198328824Y-83450000D01*
X198321545Y-83376095D01*
X198299988Y-83305030D01*
X198264981Y-83239537D01*
X198217869Y-83182131D01*
X198160463Y-83135019D01*
X198094970Y-83100012D01*
X198023905Y-83078455D01*
X197950000Y-83071176D01*
X193350000Y-83071176D01*
X193276095Y-83078455D01*
X193205030Y-83100012D01*
X193139537Y-83135019D01*
X193127000Y-83145308D01*
X193127000Y-82849981D01*
X200723000Y-82849981D01*
X200723000Y-83200019D01*
X200791289Y-83543332D01*
X200925243Y-83866725D01*
X201119714Y-84157771D01*
X201367229Y-84405286D01*
X201658275Y-84599757D01*
X201981668Y-84733711D01*
X202324981Y-84802000D01*
X202675019Y-84802000D01*
X203018332Y-84733711D01*
X203341725Y-84599757D01*
X203632771Y-84405286D01*
X203880286Y-84157771D01*
X204074757Y-83866725D01*
X204208711Y-83543332D01*
X204211960Y-83527000D01*
X206949737Y-83527000D01*
X206969042Y-83590641D01*
X207027152Y-83699356D01*
X207105354Y-83794646D01*
X207200644Y-83872848D01*
X207309359Y-83930958D01*
X207427322Y-83966741D01*
X207549999Y-83978824D01*
X208450001Y-83978824D01*
X208572678Y-83966741D01*
X208690641Y-83930958D01*
X208799356Y-83872848D01*
X208894646Y-83794646D01*
X208972848Y-83699356D01*
X209030958Y-83590641D01*
X209042537Y-83552471D01*
X209188000Y-83697935D01*
X209188001Y-85796176D01*
X209080000Y-85796176D01*
X209006095Y-85803455D01*
X208935030Y-85825012D01*
X208869537Y-85860019D01*
X208812131Y-85907131D01*
X208765019Y-85964537D01*
X208747133Y-85998000D01*
X207473702Y-85998000D01*
X207466741Y-85927322D01*
X207430958Y-85809359D01*
X207372848Y-85700644D01*
X207294646Y-85605354D01*
X207199356Y-85527152D01*
X207090641Y-85469042D01*
X206972678Y-85433259D01*
X206850001Y-85421176D01*
X206199999Y-85421176D01*
X206077322Y-85433259D01*
X205959359Y-85469042D01*
X205850644Y-85527152D01*
X205755354Y-85605354D01*
X205677152Y-85700644D01*
X205619042Y-85809359D01*
X205583259Y-85927322D01*
X205571176Y-86049999D01*
X205571176Y-86950001D01*
X205583259Y-87072678D01*
X205619042Y-87190641D01*
X205677152Y-87299356D01*
X205755354Y-87394646D01*
X205850644Y-87472848D01*
X205959359Y-87530958D01*
X206077322Y-87566741D01*
X206199999Y-87578824D01*
X206850001Y-87578824D01*
X206972678Y-87566741D01*
X207090641Y-87530958D01*
X207199356Y-87472848D01*
X207294646Y-87394646D01*
X207372848Y-87299356D01*
X207430958Y-87190641D01*
X207466741Y-87072678D01*
X207473702Y-87002000D01*
X208747133Y-87002000D01*
X208765019Y-87035463D01*
X208812131Y-87092869D01*
X208869537Y-87139981D01*
X208935030Y-87174988D01*
X209006095Y-87196545D01*
X209080000Y-87203824D01*
X210300000Y-87203824D01*
X210373905Y-87196545D01*
X210444970Y-87174988D01*
X210510463Y-87139981D01*
X210528717Y-87125000D01*
X211321176Y-87125000D01*
X211321176Y-87775000D01*
X211328455Y-87848905D01*
X211350012Y-87919970D01*
X211385019Y-87985463D01*
X211432131Y-88042869D01*
X211489537Y-88089981D01*
X211555030Y-88124988D01*
X211626095Y-88146545D01*
X211700000Y-88153824D01*
X212920000Y-88153824D01*
X212993905Y-88146545D01*
X213064970Y-88124988D01*
X213130463Y-88089981D01*
X213187869Y-88042869D01*
X213234981Y-87985463D01*
X213256102Y-87945948D01*
X213268409Y-87944736D01*
X213363036Y-87916031D01*
X213450245Y-87869417D01*
X213526684Y-87806684D01*
X213542401Y-87787533D01*
X215337543Y-85992393D01*
X215356684Y-85976684D01*
X215372392Y-85957544D01*
X215372400Y-85957536D01*
X215419416Y-85900246D01*
X215440918Y-85860019D01*
X215466031Y-85813036D01*
X215494736Y-85718409D01*
X215502000Y-85644653D01*
X215502000Y-85644643D01*
X215504427Y-85620000D01*
X215502000Y-85595357D01*
X215502000Y-84315132D01*
X223443000Y-84315132D01*
X223443000Y-84684868D01*
X223515132Y-85047501D01*
X223656624Y-85389093D01*
X223862039Y-85696518D01*
X224123482Y-85957961D01*
X224430907Y-86163376D01*
X224772499Y-86304868D01*
X225135132Y-86377000D01*
X225504868Y-86377000D01*
X225867501Y-86304868D01*
X226209093Y-86163376D01*
X226516518Y-85957961D01*
X226777961Y-85696518D01*
X226983376Y-85389093D01*
X227124868Y-85047501D01*
X227197000Y-84684868D01*
X227197000Y-84315132D01*
X227124868Y-83952499D01*
X226983376Y-83610907D01*
X226777961Y-83303482D01*
X226516518Y-83042039D01*
X226209093Y-82836624D01*
X225867501Y-82695132D01*
X225504868Y-82623000D01*
X225135132Y-82623000D01*
X224772499Y-82695132D01*
X224430907Y-82836624D01*
X224123482Y-83042039D01*
X223862039Y-83303482D01*
X223656624Y-83610907D01*
X223515132Y-83952499D01*
X223443000Y-84315132D01*
X215502000Y-84315132D01*
X215502000Y-83973702D01*
X215572678Y-83966741D01*
X215690641Y-83930958D01*
X215799356Y-83872848D01*
X215894646Y-83794646D01*
X215972848Y-83699356D01*
X216030958Y-83590641D01*
X216050263Y-83527000D01*
X219613835Y-83527000D01*
X219623259Y-83622677D01*
X219659042Y-83740641D01*
X219717152Y-83849356D01*
X219795354Y-83944646D01*
X219890644Y-84022848D01*
X219999359Y-84080958D01*
X220117323Y-84116741D01*
X220240000Y-84128824D01*
X221760000Y-84128824D01*
X221882677Y-84116741D01*
X222000641Y-84080958D01*
X222109356Y-84022848D01*
X222204646Y-83944646D01*
X222282848Y-83849356D01*
X222340958Y-83740641D01*
X222376741Y-83622677D01*
X222388824Y-83500000D01*
X222388824Y-82500000D01*
X222376741Y-82377323D01*
X222340958Y-82259359D01*
X222282848Y-82150644D01*
X222204646Y-82055354D01*
X222109356Y-81977152D01*
X222000641Y-81919042D01*
X221882677Y-81883259D01*
X221760000Y-81871176D01*
X220240000Y-81871176D01*
X220117323Y-81883259D01*
X219999359Y-81919042D01*
X219890644Y-81977152D01*
X219795354Y-82055354D01*
X219717152Y-82150644D01*
X219659042Y-82259359D01*
X219623259Y-82377323D01*
X219611176Y-82500000D01*
X219611176Y-82523000D01*
X216050263Y-82523000D01*
X216030958Y-82459359D01*
X215972848Y-82350644D01*
X215894646Y-82255354D01*
X215799356Y-82177152D01*
X215690641Y-82119042D01*
X215572678Y-82083259D01*
X215450001Y-82071176D01*
X214549999Y-82071176D01*
X214427322Y-82083259D01*
X214309359Y-82119042D01*
X214200644Y-82177152D01*
X214105354Y-82255354D01*
X214027152Y-82350644D01*
X213969042Y-82459359D01*
X213933259Y-82577322D01*
X213921176Y-82699999D01*
X213921176Y-83350001D01*
X213933259Y-83472678D01*
X213969042Y-83590641D01*
X214027152Y-83699356D01*
X214105354Y-83794646D01*
X214200644Y-83872848D01*
X214309359Y-83930958D01*
X214427322Y-83966741D01*
X214498001Y-83973702D01*
X214498000Y-85412064D01*
X213110642Y-86799424D01*
X213064970Y-86775012D01*
X212993905Y-86753455D01*
X212920000Y-86746176D01*
X211700000Y-86746176D01*
X211626095Y-86753455D01*
X211555030Y-86775012D01*
X211489537Y-86810019D01*
X211432131Y-86857131D01*
X211385019Y-86914537D01*
X211350012Y-86980030D01*
X211328455Y-87051095D01*
X211321176Y-87125000D01*
X210528717Y-87125000D01*
X210567869Y-87092869D01*
X210614981Y-87035463D01*
X210649988Y-86969970D01*
X210671545Y-86898905D01*
X210678824Y-86825000D01*
X210678824Y-86175000D01*
X210671545Y-86101095D01*
X210649988Y-86030030D01*
X210614981Y-85964537D01*
X210567869Y-85907131D01*
X210510463Y-85860019D01*
X210444970Y-85825012D01*
X210373905Y-85803455D01*
X210300000Y-85796176D01*
X210192000Y-85796176D01*
X210192000Y-83514642D01*
X210194427Y-83489999D01*
X210192000Y-83465356D01*
X210192000Y-83465347D01*
X210184736Y-83391591D01*
X210156031Y-83296964D01*
X210109417Y-83209755D01*
X210046684Y-83133316D01*
X210027538Y-83117603D01*
X209597399Y-82687465D01*
X209581684Y-82668316D01*
X209505245Y-82605583D01*
X209418036Y-82558969D01*
X209323409Y-82530264D01*
X209249653Y-82523000D01*
X209249643Y-82523000D01*
X209225000Y-82520573D01*
X209200357Y-82523000D01*
X209050263Y-82523000D01*
X209030958Y-82459359D01*
X208972848Y-82350644D01*
X208894646Y-82255354D01*
X208799356Y-82177152D01*
X208690641Y-82119042D01*
X208572678Y-82083259D01*
X208450001Y-82071176D01*
X207549999Y-82071176D01*
X207427322Y-82083259D01*
X207309359Y-82119042D01*
X207200644Y-82177152D01*
X207105354Y-82255354D01*
X207027152Y-82350644D01*
X206969042Y-82459359D01*
X206949737Y-82523000D01*
X204211960Y-82523000D01*
X204208711Y-82506668D01*
X204074757Y-82183275D01*
X203880286Y-81892229D01*
X203632771Y-81644714D01*
X203341725Y-81450243D01*
X203018332Y-81316289D01*
X202675019Y-81248000D01*
X202324981Y-81248000D01*
X201981668Y-81316289D01*
X201658275Y-81450243D01*
X201367229Y-81644714D01*
X201119714Y-81892229D01*
X200925243Y-82183275D01*
X200791289Y-82506668D01*
X200723000Y-82849981D01*
X193127000Y-82849981D01*
X193127000Y-80649999D01*
X206921176Y-80649999D01*
X206921176Y-81300001D01*
X206933259Y-81422678D01*
X206969042Y-81540641D01*
X207027152Y-81649356D01*
X207105354Y-81744646D01*
X207200644Y-81822848D01*
X207309359Y-81880958D01*
X207427322Y-81916741D01*
X207549999Y-81928824D01*
X208450001Y-81928824D01*
X208572678Y-81916741D01*
X208690641Y-81880958D01*
X208799356Y-81822848D01*
X208894646Y-81744646D01*
X208972848Y-81649356D01*
X209030958Y-81540641D01*
X209050263Y-81477000D01*
X213949737Y-81477000D01*
X213969042Y-81540641D01*
X214027152Y-81649356D01*
X214105354Y-81744646D01*
X214200644Y-81822848D01*
X214309359Y-81880958D01*
X214427322Y-81916741D01*
X214549999Y-81928824D01*
X215450001Y-81928824D01*
X215572678Y-81916741D01*
X215690641Y-81880958D01*
X215799356Y-81822848D01*
X215894646Y-81744646D01*
X215972848Y-81649356D01*
X216030958Y-81540641D01*
X216066741Y-81422678D01*
X216078824Y-81300001D01*
X216078824Y-80649999D01*
X216066741Y-80527322D01*
X216030958Y-80409359D01*
X215972848Y-80300644D01*
X215894646Y-80205354D01*
X215799356Y-80127152D01*
X215690641Y-80069042D01*
X215572678Y-80033259D01*
X215450001Y-80021176D01*
X214549999Y-80021176D01*
X214427322Y-80033259D01*
X214309359Y-80069042D01*
X214200644Y-80127152D01*
X214105354Y-80205354D01*
X214027152Y-80300644D01*
X213969042Y-80409359D01*
X213949737Y-80473000D01*
X209050263Y-80473000D01*
X209030958Y-80409359D01*
X208972848Y-80300644D01*
X208894646Y-80205354D01*
X208799356Y-80127152D01*
X208690641Y-80069042D01*
X208572678Y-80033259D01*
X208450001Y-80021176D01*
X207549999Y-80021176D01*
X207427322Y-80033259D01*
X207309359Y-80069042D01*
X207200644Y-80127152D01*
X207105354Y-80205354D01*
X207027152Y-80300644D01*
X206969042Y-80409359D01*
X206933259Y-80527322D01*
X206921176Y-80649999D01*
X193127000Y-80649999D01*
X193127000Y-73752000D01*
X193276298Y-73752000D01*
X193283259Y-73822678D01*
X193319042Y-73940641D01*
X193377152Y-74049356D01*
X193455354Y-74144646D01*
X193550644Y-74222848D01*
X193659359Y-74280958D01*
X193777322Y-74316741D01*
X193899999Y-74328824D01*
X194550001Y-74328824D01*
X194672678Y-74316741D01*
X194790641Y-74280958D01*
X194899356Y-74222848D01*
X194994646Y-74144646D01*
X195072848Y-74049356D01*
X195130958Y-73940641D01*
X195166741Y-73822678D01*
X195178824Y-73700001D01*
X195178824Y-72799999D01*
X195166741Y-72677322D01*
X195130958Y-72559359D01*
X195072848Y-72450644D01*
X194994646Y-72355354D01*
X194899356Y-72277152D01*
X194790641Y-72219042D01*
X194672678Y-72183259D01*
X194550001Y-72171176D01*
X193899999Y-72171176D01*
X193777322Y-72183259D01*
X193659359Y-72219042D01*
X193550644Y-72277152D01*
X193455354Y-72355354D01*
X193377152Y-72450644D01*
X193319042Y-72559359D01*
X193283259Y-72677322D01*
X193276298Y-72748000D01*
X193127000Y-72748000D01*
X193127000Y-70815132D01*
X225123000Y-70815132D01*
X225123000Y-71184868D01*
X225195132Y-71547501D01*
X225336624Y-71889093D01*
X225542039Y-72196518D01*
X225803482Y-72457961D01*
X226110907Y-72663376D01*
X226452499Y-72804868D01*
X226815132Y-72877000D01*
X227184868Y-72877000D01*
X227547501Y-72804868D01*
X227889093Y-72663376D01*
X228196518Y-72457961D01*
X228457961Y-72196518D01*
X228663376Y-71889093D01*
X228804868Y-71547501D01*
X228877000Y-71184868D01*
X228877000Y-70815132D01*
X228804868Y-70452499D01*
X228663376Y-70110907D01*
X228457961Y-69803482D01*
X228196518Y-69542039D01*
X227889093Y-69336624D01*
X227547501Y-69195132D01*
X227184868Y-69123000D01*
X226815132Y-69123000D01*
X226452499Y-69195132D01*
X226110907Y-69336624D01*
X225803482Y-69542039D01*
X225542039Y-69803482D01*
X225336624Y-70110907D01*
X225195132Y-70452499D01*
X225123000Y-70815132D01*
X193127000Y-70815132D01*
X193127000Y-68402000D01*
X226980342Y-68402000D01*
X227504242Y-68453369D01*
G36*
X183873000Y-154500000D02*
G01*
X183875440Y-154524776D01*
X183882667Y-154548601D01*
X183894403Y-154570557D01*
X183910197Y-154589803D01*
X183929443Y-154605597D01*
X183951399Y-154617333D01*
X183975224Y-154624560D01*
X184000000Y-154627000D01*
X229598000Y-154627000D01*
X229598000Y-164980343D01*
X229546631Y-165504243D01*
X229400187Y-165989288D01*
X229162324Y-166436646D01*
X228842096Y-166829282D01*
X228451706Y-167152241D01*
X228006018Y-167393223D01*
X227522013Y-167543048D01*
X226999180Y-167598000D01*
X167019657Y-167598000D01*
X166495757Y-167546631D01*
X166010712Y-167400187D01*
X165563354Y-167162324D01*
X165170718Y-166842096D01*
X164847759Y-166451706D01*
X164606777Y-166006018D01*
X164456952Y-165522013D01*
X164402000Y-164999180D01*
X164402000Y-164815132D01*
X165123000Y-164815132D01*
X165123000Y-165184868D01*
X165195132Y-165547501D01*
X165336624Y-165889093D01*
X165542039Y-166196518D01*
X165803482Y-166457961D01*
X166110907Y-166663376D01*
X166452499Y-166804868D01*
X166815132Y-166877000D01*
X167184868Y-166877000D01*
X167547501Y-166804868D01*
X167889093Y-166663376D01*
X168196518Y-166457961D01*
X168457961Y-166196518D01*
X168663376Y-165889093D01*
X168804868Y-165547501D01*
X168877000Y-165184868D01*
X168877000Y-164815132D01*
X225123000Y-164815132D01*
X225123000Y-165184868D01*
X225195132Y-165547501D01*
X225336624Y-165889093D01*
X225542039Y-166196518D01*
X225803482Y-166457961D01*
X226110907Y-166663376D01*
X226452499Y-166804868D01*
X226815132Y-166877000D01*
X227184868Y-166877000D01*
X227547501Y-166804868D01*
X227889093Y-166663376D01*
X228196518Y-166457961D01*
X228457961Y-166196518D01*
X228663376Y-165889093D01*
X228804868Y-165547501D01*
X228877000Y-165184868D01*
X228877000Y-164815132D01*
X228804868Y-164452499D01*
X228663376Y-164110907D01*
X228457961Y-163803482D01*
X228196518Y-163542039D01*
X227889093Y-163336624D01*
X227547501Y-163195132D01*
X227184868Y-163123000D01*
X226815132Y-163123000D01*
X226452499Y-163195132D01*
X226110907Y-163336624D01*
X225803482Y-163542039D01*
X225542039Y-163803482D01*
X225336624Y-164110907D01*
X225195132Y-164452499D01*
X225123000Y-164815132D01*
X168877000Y-164815132D01*
X168804868Y-164452499D01*
X168663376Y-164110907D01*
X168457961Y-163803482D01*
X168196518Y-163542039D01*
X167889093Y-163336624D01*
X167547501Y-163195132D01*
X167184868Y-163123000D01*
X166815132Y-163123000D01*
X166452499Y-163195132D01*
X166110907Y-163336624D01*
X165803482Y-163542039D01*
X165542039Y-163803482D01*
X165336624Y-164110907D01*
X165195132Y-164452499D01*
X165123000Y-164815132D01*
X164402000Y-164815132D01*
X164402000Y-158005282D01*
X206423000Y-158005282D01*
X206423000Y-158394718D01*
X206498975Y-158776670D01*
X206648005Y-159136461D01*
X206864364Y-159460264D01*
X207139736Y-159735636D01*
X207463539Y-159951995D01*
X207823330Y-160101025D01*
X208205282Y-160177000D01*
X208594718Y-160177000D01*
X208976670Y-160101025D01*
X209336461Y-159951995D01*
X209660264Y-159735636D01*
X209935636Y-159460264D01*
X210151995Y-159136461D01*
X210301025Y-158776670D01*
X210377000Y-158394718D01*
X210377000Y-158005282D01*
X210301025Y-157623330D01*
X210151995Y-157263539D01*
X209935636Y-156939736D01*
X209660264Y-156664364D01*
X209336461Y-156448005D01*
X208976670Y-156298975D01*
X208594718Y-156223000D01*
X208205282Y-156223000D01*
X207823330Y-156298975D01*
X207463539Y-156448005D01*
X207139736Y-156664364D01*
X206864364Y-156939736D01*
X206648005Y-157263539D01*
X206498975Y-157623330D01*
X206423000Y-158005282D01*
X164402000Y-158005282D01*
X164402000Y-154485282D01*
X168603000Y-154485282D01*
X168603000Y-154874718D01*
X168678975Y-155256670D01*
X168828005Y-155616461D01*
X169044364Y-155940264D01*
X169319736Y-156215636D01*
X169643539Y-156431995D01*
X170003330Y-156581025D01*
X170385282Y-156657000D01*
X170774718Y-156657000D01*
X171156670Y-156581025D01*
X171516461Y-156431995D01*
X171840264Y-156215636D01*
X172115636Y-155940264D01*
X172331995Y-155616461D01*
X172481025Y-155256670D01*
X172557000Y-154874718D01*
X172557000Y-154485282D01*
X172481025Y-154103330D01*
X172331995Y-153743539D01*
X172115636Y-153419736D01*
X171840264Y-153144364D01*
X171516461Y-152928005D01*
X171156670Y-152778975D01*
X170774718Y-152703000D01*
X170385282Y-152703000D01*
X170003330Y-152778975D01*
X169643539Y-152928005D01*
X169319736Y-153144364D01*
X169044364Y-153419736D01*
X168828005Y-153743539D01*
X168678975Y-154103330D01*
X168603000Y-154485282D01*
X164402000Y-154485282D01*
X164402000Y-143127000D01*
X183873000Y-143127000D01*
X183873000Y-154500000D01*
G37*
X183873000Y-154500000D02*
X183875440Y-154524776D01*
X183882667Y-154548601D01*
X183894403Y-154570557D01*
X183910197Y-154589803D01*
X183929443Y-154605597D01*
X183951399Y-154617333D01*
X183975224Y-154624560D01*
X184000000Y-154627000D01*
X229598000Y-154627000D01*
X229598000Y-164980343D01*
X229546631Y-165504243D01*
X229400187Y-165989288D01*
X229162324Y-166436646D01*
X228842096Y-166829282D01*
X228451706Y-167152241D01*
X228006018Y-167393223D01*
X227522013Y-167543048D01*
X226999180Y-167598000D01*
X167019657Y-167598000D01*
X166495757Y-167546631D01*
X166010712Y-167400187D01*
X165563354Y-167162324D01*
X165170718Y-166842096D01*
X164847759Y-166451706D01*
X164606777Y-166006018D01*
X164456952Y-165522013D01*
X164402000Y-164999180D01*
X164402000Y-164815132D01*
X165123000Y-164815132D01*
X165123000Y-165184868D01*
X165195132Y-165547501D01*
X165336624Y-165889093D01*
X165542039Y-166196518D01*
X165803482Y-166457961D01*
X166110907Y-166663376D01*
X166452499Y-166804868D01*
X166815132Y-166877000D01*
X167184868Y-166877000D01*
X167547501Y-166804868D01*
X167889093Y-166663376D01*
X168196518Y-166457961D01*
X168457961Y-166196518D01*
X168663376Y-165889093D01*
X168804868Y-165547501D01*
X168877000Y-165184868D01*
X168877000Y-164815132D01*
X225123000Y-164815132D01*
X225123000Y-165184868D01*
X225195132Y-165547501D01*
X225336624Y-165889093D01*
X225542039Y-166196518D01*
X225803482Y-166457961D01*
X226110907Y-166663376D01*
X226452499Y-166804868D01*
X226815132Y-166877000D01*
X227184868Y-166877000D01*
X227547501Y-166804868D01*
X227889093Y-166663376D01*
X228196518Y-166457961D01*
X228457961Y-166196518D01*
X228663376Y-165889093D01*
X228804868Y-165547501D01*
X228877000Y-165184868D01*
X228877000Y-164815132D01*
X228804868Y-164452499D01*
X228663376Y-164110907D01*
X228457961Y-163803482D01*
X228196518Y-163542039D01*
X227889093Y-163336624D01*
X227547501Y-163195132D01*
X227184868Y-163123000D01*
X226815132Y-163123000D01*
X226452499Y-163195132D01*
X226110907Y-163336624D01*
X225803482Y-163542039D01*
X225542039Y-163803482D01*
X225336624Y-164110907D01*
X225195132Y-164452499D01*
X225123000Y-164815132D01*
X168877000Y-164815132D01*
X168804868Y-164452499D01*
X168663376Y-164110907D01*
X168457961Y-163803482D01*
X168196518Y-163542039D01*
X167889093Y-163336624D01*
X167547501Y-163195132D01*
X167184868Y-163123000D01*
X166815132Y-163123000D01*
X166452499Y-163195132D01*
X166110907Y-163336624D01*
X165803482Y-163542039D01*
X165542039Y-163803482D01*
X165336624Y-164110907D01*
X165195132Y-164452499D01*
X165123000Y-164815132D01*
X164402000Y-164815132D01*
X164402000Y-158005282D01*
X206423000Y-158005282D01*
X206423000Y-158394718D01*
X206498975Y-158776670D01*
X206648005Y-159136461D01*
X206864364Y-159460264D01*
X207139736Y-159735636D01*
X207463539Y-159951995D01*
X207823330Y-160101025D01*
X208205282Y-160177000D01*
X208594718Y-160177000D01*
X208976670Y-160101025D01*
X209336461Y-159951995D01*
X209660264Y-159735636D01*
X209935636Y-159460264D01*
X210151995Y-159136461D01*
X210301025Y-158776670D01*
X210377000Y-158394718D01*
X210377000Y-158005282D01*
X210301025Y-157623330D01*
X210151995Y-157263539D01*
X209935636Y-156939736D01*
X209660264Y-156664364D01*
X209336461Y-156448005D01*
X208976670Y-156298975D01*
X208594718Y-156223000D01*
X208205282Y-156223000D01*
X207823330Y-156298975D01*
X207463539Y-156448005D01*
X207139736Y-156664364D01*
X206864364Y-156939736D01*
X206648005Y-157263539D01*
X206498975Y-157623330D01*
X206423000Y-158005282D01*
X164402000Y-158005282D01*
X164402000Y-154485282D01*
X168603000Y-154485282D01*
X168603000Y-154874718D01*
X168678975Y-155256670D01*
X168828005Y-155616461D01*
X169044364Y-155940264D01*
X169319736Y-156215636D01*
X169643539Y-156431995D01*
X170003330Y-156581025D01*
X170385282Y-156657000D01*
X170774718Y-156657000D01*
X171156670Y-156581025D01*
X171516461Y-156431995D01*
X171840264Y-156215636D01*
X172115636Y-155940264D01*
X172331995Y-155616461D01*
X172481025Y-155256670D01*
X172557000Y-154874718D01*
X172557000Y-154485282D01*
X172481025Y-154103330D01*
X172331995Y-153743539D01*
X172115636Y-153419736D01*
X171840264Y-153144364D01*
X171516461Y-152928005D01*
X171156670Y-152778975D01*
X170774718Y-152703000D01*
X170385282Y-152703000D01*
X170003330Y-152778975D01*
X169643539Y-152928005D01*
X169319736Y-153144364D01*
X169044364Y-153419736D01*
X168828005Y-153743539D01*
X168678975Y-154103330D01*
X168603000Y-154485282D01*
X164402000Y-154485282D01*
X164402000Y-143127000D01*
X183873000Y-143127000D01*
X183873000Y-154500000D01*
G36*
X183873000Y-142373000D02*
G01*
X164402000Y-142373000D01*
X164402000Y-130745282D01*
X168603000Y-130745282D01*
X168603000Y-131134718D01*
X168678975Y-131516670D01*
X168828005Y-131876461D01*
X169044364Y-132200264D01*
X169319736Y-132475636D01*
X169643539Y-132691995D01*
X170003330Y-132841025D01*
X170385282Y-132917000D01*
X170774718Y-132917000D01*
X171156670Y-132841025D01*
X171516461Y-132691995D01*
X171840264Y-132475636D01*
X172115636Y-132200264D01*
X172331995Y-131876461D01*
X172481025Y-131516670D01*
X172557000Y-131134718D01*
X172557000Y-130745282D01*
X172481025Y-130363330D01*
X172331995Y-130003539D01*
X172115636Y-129679736D01*
X171840264Y-129404364D01*
X171516461Y-129188005D01*
X171156670Y-129038975D01*
X170774718Y-128963000D01*
X170385282Y-128963000D01*
X170003330Y-129038975D01*
X169643539Y-129188005D01*
X169319736Y-129404364D01*
X169044364Y-129679736D01*
X168828005Y-130003539D01*
X168678975Y-130363330D01*
X168603000Y-130745282D01*
X164402000Y-130745282D01*
X164402000Y-120815132D01*
X165123000Y-120815132D01*
X165123000Y-121184868D01*
X165195132Y-121547501D01*
X165336624Y-121889093D01*
X165542039Y-122196518D01*
X165803482Y-122457961D01*
X166110907Y-122663376D01*
X166452499Y-122804868D01*
X166815132Y-122877000D01*
X167184868Y-122877000D01*
X167547501Y-122804868D01*
X167889093Y-122663376D01*
X168196518Y-122457961D01*
X168457961Y-122196518D01*
X168663376Y-121889093D01*
X168804868Y-121547501D01*
X168877000Y-121184868D01*
X168877000Y-120815132D01*
X168804868Y-120452499D01*
X168663376Y-120110907D01*
X168457961Y-119803482D01*
X168196518Y-119542039D01*
X167889093Y-119336624D01*
X167547501Y-119195132D01*
X167184868Y-119123000D01*
X166815132Y-119123000D01*
X166452499Y-119195132D01*
X166110907Y-119336624D01*
X165803482Y-119542039D01*
X165542039Y-119803482D01*
X165336624Y-120110907D01*
X165195132Y-120452499D01*
X165123000Y-120815132D01*
X164402000Y-120815132D01*
X164402000Y-112127000D01*
X183873000Y-112127000D01*
X183873000Y-142373000D01*
G37*
X183873000Y-142373000D02*
X164402000Y-142373000D01*
X164402000Y-130745282D01*
X168603000Y-130745282D01*
X168603000Y-131134718D01*
X168678975Y-131516670D01*
X168828005Y-131876461D01*
X169044364Y-132200264D01*
X169319736Y-132475636D01*
X169643539Y-132691995D01*
X170003330Y-132841025D01*
X170385282Y-132917000D01*
X170774718Y-132917000D01*
X171156670Y-132841025D01*
X171516461Y-132691995D01*
X171840264Y-132475636D01*
X172115636Y-132200264D01*
X172331995Y-131876461D01*
X172481025Y-131516670D01*
X172557000Y-131134718D01*
X172557000Y-130745282D01*
X172481025Y-130363330D01*
X172331995Y-130003539D01*
X172115636Y-129679736D01*
X171840264Y-129404364D01*
X171516461Y-129188005D01*
X171156670Y-129038975D01*
X170774718Y-128963000D01*
X170385282Y-128963000D01*
X170003330Y-129038975D01*
X169643539Y-129188005D01*
X169319736Y-129404364D01*
X169044364Y-129679736D01*
X168828005Y-130003539D01*
X168678975Y-130363330D01*
X168603000Y-130745282D01*
X164402000Y-130745282D01*
X164402000Y-120815132D01*
X165123000Y-120815132D01*
X165123000Y-121184868D01*
X165195132Y-121547501D01*
X165336624Y-121889093D01*
X165542039Y-122196518D01*
X165803482Y-122457961D01*
X166110907Y-122663376D01*
X166452499Y-122804868D01*
X166815132Y-122877000D01*
X167184868Y-122877000D01*
X167547501Y-122804868D01*
X167889093Y-122663376D01*
X168196518Y-122457961D01*
X168457961Y-122196518D01*
X168663376Y-121889093D01*
X168804868Y-121547501D01*
X168877000Y-121184868D01*
X168877000Y-120815132D01*
X168804868Y-120452499D01*
X168663376Y-120110907D01*
X168457961Y-119803482D01*
X168196518Y-119542039D01*
X167889093Y-119336624D01*
X167547501Y-119195132D01*
X167184868Y-119123000D01*
X166815132Y-119123000D01*
X166452499Y-119195132D01*
X166110907Y-119336624D01*
X165803482Y-119542039D01*
X165542039Y-119803482D01*
X165336624Y-120110907D01*
X165195132Y-120452499D01*
X165123000Y-120815132D01*
X164402000Y-120815132D01*
X164402000Y-112127000D01*
X183873000Y-112127000D01*
X183873000Y-142373000D01*
M02*
