G04 #@! TF.GenerationSoftware,KiCad,Pcbnew,(6.0.7)*
G04 #@! TF.CreationDate,2023-02-11T16:50:08-06:00*
G04 #@! TF.ProjectId,ContactorDriver,436f6e74-6163-4746-9f72-447269766572,rev?*
G04 #@! TF.SameCoordinates,Original*
G04 #@! TF.FileFunction,Soldermask,Bot*
G04 #@! TF.FilePolarity,Negative*
%FSLAX46Y46*%
G04 Gerber Fmt 4.6, Leading zero omitted, Abs format (unit mm)*
G04 Created by KiCad (PCBNEW (6.0.7)) date 2023-02-11 16:50:08*
%MOMM*%
%LPD*%
G01*
G04 APERTURE LIST*
G04 Aperture macros list*
%AMRoundRect*
0 Rectangle with rounded corners*
0 $1 Rounding radius*
0 $2 $3 $4 $5 $6 $7 $8 $9 X,Y pos of 4 corners*
0 Add a 4 corners polygon primitive as box body*
4,1,4,$2,$3,$4,$5,$6,$7,$8,$9,$2,$3,0*
0 Add four circle primitives for the rounded corners*
1,1,$1+$1,$2,$3*
1,1,$1+$1,$4,$5*
1,1,$1+$1,$6,$7*
1,1,$1+$1,$8,$9*
0 Add four rect primitives between the rounded corners*
20,1,$1+$1,$2,$3,$4,$5,0*
20,1,$1+$1,$4,$5,$6,$7,0*
20,1,$1+$1,$6,$7,$8,$9,0*
20,1,$1+$1,$8,$9,$2,$3,0*%
G04 Aperture macros list end*
%ADD10RoundRect,0.051000X-1.200000X1.200000X-1.200000X-1.200000X1.200000X-1.200000X1.200000X1.200000X0*%
%ADD11O,2.502000X2.502000*%
%ADD12C,3.102000*%
%ADD13C,1.372000*%
%ADD14RoundRect,0.301001X-0.759999X0.499999X-0.759999X-0.499999X0.759999X-0.499999X0.759999X0.499999X0*%
%ADD15O,2.122000X1.602000*%
%ADD16C,2.902000*%
%ADD17C,3.302400*%
%ADD18C,1.630064*%
%ADD19C,4.602880*%
%ADD20C,3.302000*%
G04 APERTURE END LIST*
D10*
X176000000Y-79000000D03*
D11*
X176000000Y-89160000D03*
D10*
X176000000Y-95500000D03*
D11*
X176000000Y-105660000D03*
D12*
X227000000Y-165000000D03*
X227000000Y-71000000D03*
D13*
X168960000Y-76500000D03*
X168960000Y-91500000D03*
D14*
X167000000Y-79500000D03*
D15*
X167000000Y-82500000D03*
X167000000Y-85500000D03*
X167000000Y-88500000D03*
D12*
X225320000Y-101000000D03*
D14*
X221000000Y-99500000D03*
D15*
X221000000Y-102500000D03*
D13*
X168960000Y-96000000D03*
X168960000Y-105000000D03*
D14*
X167000000Y-99000000D03*
D15*
X167000000Y-102000000D03*
D16*
X202500000Y-83025000D03*
X183000000Y-73250000D03*
X202600000Y-73250000D03*
X202500000Y-99525000D03*
D17*
X175738439Y-158099973D03*
X175738439Y-129900029D03*
D18*
X195088413Y-137250027D03*
X192588418Y-137250027D03*
X190088423Y-137250027D03*
X187588428Y-137250027D03*
X185088433Y-137250027D03*
X182588438Y-137250027D03*
X195088413Y-139750022D03*
X192588418Y-139750022D03*
X190088423Y-139750022D03*
X187588428Y-139750022D03*
X185088433Y-139750022D03*
X182588438Y-139750022D03*
X195088413Y-148250030D03*
X192588418Y-148250030D03*
X190088423Y-148250030D03*
X187588428Y-148250030D03*
X185088433Y-148250030D03*
X182588438Y-148250030D03*
X195088413Y-150750025D03*
X192588418Y-150750025D03*
X190088423Y-150750025D03*
X187588428Y-150750025D03*
X185088433Y-150750025D03*
X182588438Y-150750025D03*
D19*
X226000000Y-158000000D03*
D12*
X167000000Y-165000000D03*
X225320000Y-117500000D03*
D14*
X221000000Y-116000000D03*
D15*
X221000000Y-119000000D03*
D12*
X225320000Y-84500000D03*
D14*
X221000000Y-83000000D03*
D15*
X221000000Y-86000000D03*
D12*
X167000000Y-71000000D03*
X167000000Y-121000000D03*
D20*
X217400000Y-158200000D03*
X196000000Y-118500000D03*
D19*
X177000000Y-120500000D03*
M02*
