M48
; DRILL file {KiCad (6.0.7)} date Sat Feb 11 16:50:32 2023
; FORMAT={-:-/ absolute / metric / decimal}
; #@! TF.CreationDate,2023-02-11T16:50:32-06:00
; #@! TF.GenerationSoftware,Kicad,Pcbnew,(6.0.7)
; #@! TF.FileFunction,Plated,1,2,PTH
FMAT,2
METRIC
; #@! TA.AperFunction,Plated,PTH,ViaDrill
T1C0.400
; #@! TA.AperFunction,Plated,PTH,ComponentDrill
T2C1.016
; #@! TA.AperFunction,Plated,PTH,ComponentDrill
T3C1.020
; #@! TA.AperFunction,Plated,PTH,ComponentDrill
T4C1.200
; #@! TA.AperFunction,Plated,PTH,ComponentDrill
T5C1.600
; #@! TA.AperFunction,Plated,PTH,ComponentDrill
T6C1.999
%
G90
G05
T1
X208.0Y-80.975
X208.0Y-97.475
X208.0Y-105.0
X208.0Y-114.0
T2
X182.588Y-137.25
X182.588Y-139.75
X182.588Y-148.25
X182.588Y-150.75
X185.088Y-137.25
X185.088Y-139.75
X185.088Y-148.25
X185.088Y-150.75
X187.588Y-137.25
X187.588Y-139.75
X187.588Y-148.25
X187.588Y-150.75
X190.088Y-137.25
X190.088Y-139.75
X190.088Y-148.25
X190.088Y-150.75
X192.588Y-137.25
X192.588Y-139.75
X192.588Y-148.25
X192.588Y-150.75
X195.088Y-137.25
X195.088Y-139.75
X195.088Y-148.25
X195.088Y-150.75
T3
X167.0Y-79.5
X167.0Y-82.5
X167.0Y-85.5
X167.0Y-88.5
X167.0Y-99.0
X167.0Y-102.0
X221.0Y-83.0
X221.0Y-86.0
X221.0Y-99.5
X221.0Y-102.5
X221.0Y-116.0
X221.0Y-119.0
T4
X176.0Y-79.0
X176.0Y-89.16
X176.0Y-95.5
X176.0Y-105.66
T5
X183.0Y-73.25
X202.5Y-83.025
X202.5Y-99.525
X202.6Y-73.25
T6
X177.0Y-120.5
X226.0Y-158.0
T0
M30
