G04 #@! TF.GenerationSoftware,KiCad,Pcbnew,(6.0.7)*
G04 #@! TF.CreationDate,2023-02-11T16:50:08-06:00*
G04 #@! TF.ProjectId,ContactorDriver,436f6e74-6163-4746-9f72-447269766572,rev?*
G04 #@! TF.SameCoordinates,Original*
G04 #@! TF.FileFunction,Copper,L2,Bot*
G04 #@! TF.FilePolarity,Positive*
%FSLAX46Y46*%
G04 Gerber Fmt 4.6, Leading zero omitted, Abs format (unit mm)*
G04 Created by KiCad (PCBNEW (6.0.7)) date 2023-02-11 16:50:08*
%MOMM*%
%LPD*%
G01*
G04 APERTURE LIST*
G04 Aperture macros list*
%AMRoundRect*
0 Rectangle with rounded corners*
0 $1 Rounding radius*
0 $2 $3 $4 $5 $6 $7 $8 $9 X,Y pos of 4 corners*
0 Add a 4 corners polygon primitive as box body*
4,1,4,$2,$3,$4,$5,$6,$7,$8,$9,$2,$3,0*
0 Add four circle primitives for the rounded corners*
1,1,$1+$1,$2,$3*
1,1,$1+$1,$4,$5*
1,1,$1+$1,$6,$7*
1,1,$1+$1,$8,$9*
0 Add four rect primitives between the rounded corners*
20,1,$1+$1,$2,$3,$4,$5,0*
20,1,$1+$1,$4,$5,$6,$7,0*
20,1,$1+$1,$6,$7,$8,$9,0*
20,1,$1+$1,$8,$9,$2,$3,0*%
G04 Aperture macros list end*
G04 #@! TA.AperFunction,ComponentPad*
%ADD10R,2.400000X2.400000*%
G04 #@! TD*
G04 #@! TA.AperFunction,ComponentPad*
%ADD11O,2.400000X2.400000*%
G04 #@! TD*
G04 #@! TA.AperFunction,ComponentPad*
%ADD12RoundRect,0.250001X-0.759999X0.499999X-0.759999X-0.499999X0.759999X-0.499999X0.759999X0.499999X0*%
G04 #@! TD*
G04 #@! TA.AperFunction,ComponentPad*
%ADD13O,2.020000X1.500000*%
G04 #@! TD*
G04 #@! TA.AperFunction,ComponentPad*
%ADD14C,2.800000*%
G04 #@! TD*
G04 #@! TA.AperFunction,ComponentPad*
%ADD15C,1.528064*%
G04 #@! TD*
G04 #@! TA.AperFunction,ComponentPad*
%ADD16C,4.500880*%
G04 #@! TD*
G04 #@! TA.AperFunction,ViaPad*
%ADD17C,0.800000*%
G04 #@! TD*
G04 #@! TA.AperFunction,Conductor*
%ADD18C,0.250000*%
G04 #@! TD*
G04 APERTURE END LIST*
D10*
X176000000Y-79000000D03*
D11*
X176000000Y-89160000D03*
D10*
X176000000Y-95500000D03*
D11*
X176000000Y-105660000D03*
D12*
X167000000Y-79500000D03*
D13*
X167000000Y-82500000D03*
X167000000Y-85500000D03*
X167000000Y-88500000D03*
D12*
X221000000Y-99500000D03*
D13*
X221000000Y-102500000D03*
D12*
X167000000Y-99000000D03*
D13*
X167000000Y-102000000D03*
D14*
X202500000Y-83025000D03*
X183000000Y-73250000D03*
X202600000Y-73250000D03*
X202500000Y-99525000D03*
D15*
X195088413Y-137250027D03*
X192588418Y-137250027D03*
X190088423Y-137250027D03*
X187588428Y-137250027D03*
X185088433Y-137250027D03*
X182588438Y-137250027D03*
X195088413Y-139750022D03*
X192588418Y-139750022D03*
X190088423Y-139750022D03*
X187588428Y-139750022D03*
X185088433Y-139750022D03*
X182588438Y-139750022D03*
X195088413Y-148250030D03*
X192588418Y-148250030D03*
X190088423Y-148250030D03*
X187588428Y-148250030D03*
X185088433Y-148250030D03*
X182588438Y-148250030D03*
X195088413Y-150750025D03*
X192588418Y-150750025D03*
X190088423Y-150750025D03*
X187588428Y-150750025D03*
X185088433Y-150750025D03*
X182588438Y-150750025D03*
D16*
X226000000Y-158000000D03*
D12*
X221000000Y-116000000D03*
D13*
X221000000Y-119000000D03*
D12*
X221000000Y-83000000D03*
D13*
X221000000Y-86000000D03*
D16*
X177000000Y-120500000D03*
D17*
X208000000Y-80975000D03*
X208000000Y-97475000D03*
X208000000Y-105000000D03*
X208000000Y-114000000D03*
D18*
X208000000Y-105000000D02*
X208000000Y-97475000D01*
X208000000Y-97475000D02*
X208000000Y-80975000D01*
X208000000Y-105000000D02*
X208000000Y-114000000D01*
G04 #@! TA.AperFunction,Conductor*
G36*
X192442121Y-68270502D02*
G01*
X192488614Y-68324158D01*
X192500000Y-68376500D01*
X192500000Y-112000000D01*
X229623500Y-112000000D01*
X229691621Y-112020002D01*
X229738114Y-112073658D01*
X229749500Y-112126000D01*
X229749500Y-123274000D01*
X229729498Y-123342121D01*
X229675842Y-123388614D01*
X229623500Y-123400000D01*
X164376500Y-123400000D01*
X164308379Y-123379998D01*
X164261886Y-123326342D01*
X164250500Y-123274000D01*
X164250500Y-121107165D01*
X165247866Y-121107165D01*
X165282952Y-121364970D01*
X165355758Y-121614757D01*
X165464686Y-121851039D01*
X165467246Y-121854944D01*
X165467249Y-121854949D01*
X165604775Y-122064712D01*
X165604779Y-122064717D01*
X165607341Y-122068625D01*
X165780591Y-122262735D01*
X165980629Y-122429105D01*
X166203061Y-122564080D01*
X166207375Y-122565889D01*
X166207377Y-122565890D01*
X166438686Y-122662886D01*
X166438691Y-122662888D01*
X166443001Y-122664695D01*
X166447533Y-122665846D01*
X166447536Y-122665847D01*
X166572815Y-122697663D01*
X166695177Y-122728739D01*
X166911286Y-122750500D01*
X167066044Y-122750500D01*
X167068369Y-122750327D01*
X167068375Y-122750327D01*
X167254814Y-122736472D01*
X167254818Y-122736471D01*
X167259466Y-122736126D01*
X167513232Y-122678705D01*
X167517586Y-122677012D01*
X167751370Y-122586098D01*
X167751372Y-122586097D01*
X167755723Y-122584405D01*
X167791285Y-122564080D01*
X167839038Y-122536786D01*
X167981612Y-122455299D01*
X168185936Y-122294223D01*
X168364208Y-122104714D01*
X168512511Y-121890937D01*
X168530258Y-121854949D01*
X168625521Y-121661775D01*
X168625522Y-121661772D01*
X168627586Y-121657587D01*
X168706906Y-121409792D01*
X168748728Y-121152994D01*
X168752134Y-120892835D01*
X168717048Y-120635030D01*
X168677690Y-120500000D01*
X174494115Y-120500000D01*
X174513875Y-120814071D01*
X174572842Y-121123188D01*
X174574069Y-121126964D01*
X174664469Y-121405186D01*
X174670087Y-121422478D01*
X174671774Y-121426064D01*
X174671776Y-121426068D01*
X174802388Y-121703633D01*
X174802392Y-121703640D01*
X174804076Y-121707219D01*
X174972696Y-121972922D01*
X175173288Y-122215396D01*
X175402689Y-122430818D01*
X175657280Y-122615789D01*
X175933046Y-122767393D01*
X176225639Y-122883238D01*
X176229473Y-122884223D01*
X176229478Y-122884224D01*
X176378042Y-122922369D01*
X176530444Y-122961499D01*
X176534372Y-122961995D01*
X176534376Y-122961996D01*
X176658260Y-122977646D01*
X176842654Y-123000940D01*
X177157346Y-123000940D01*
X177341740Y-122977646D01*
X177465624Y-122961996D01*
X177465628Y-122961995D01*
X177469556Y-122961499D01*
X177621959Y-122922368D01*
X177770522Y-122884224D01*
X177770527Y-122884223D01*
X177774361Y-122883238D01*
X178066954Y-122767393D01*
X178342720Y-122615789D01*
X178597311Y-122430818D01*
X178826712Y-122215396D01*
X179027304Y-121972922D01*
X179195924Y-121707219D01*
X179197608Y-121703640D01*
X179197612Y-121703633D01*
X179328224Y-121426068D01*
X179328226Y-121426064D01*
X179329913Y-121422478D01*
X179335532Y-121405186D01*
X179425931Y-121126964D01*
X179427158Y-121123188D01*
X179486125Y-120814071D01*
X179505885Y-120500000D01*
X179486125Y-120185929D01*
X179427158Y-119876812D01*
X179329913Y-119577522D01*
X179326795Y-119570895D01*
X179197612Y-119296367D01*
X179197608Y-119296360D01*
X179195924Y-119292781D01*
X179027304Y-119027078D01*
X178826712Y-118784604D01*
X178597311Y-118569182D01*
X178583501Y-118559148D01*
X178560029Y-118542095D01*
X194145028Y-118542095D01*
X194170534Y-118809431D01*
X194171619Y-118813865D01*
X194171620Y-118813871D01*
X194206227Y-118955299D01*
X194234364Y-119070285D01*
X194236076Y-119074511D01*
X194236077Y-119074515D01*
X194307231Y-119250184D01*
X194335182Y-119319192D01*
X194470875Y-119550938D01*
X194580873Y-119688484D01*
X194585225Y-119693925D01*
X194638601Y-119760669D01*
X194834846Y-119943991D01*
X194916165Y-120000404D01*
X195051746Y-120094461D01*
X195051751Y-120094464D01*
X195055499Y-120097064D01*
X195059584Y-120099096D01*
X195059587Y-120099098D01*
X195175719Y-120156872D01*
X195295938Y-120216680D01*
X195300272Y-120218101D01*
X195300275Y-120218102D01*
X195546793Y-120298915D01*
X195546798Y-120298916D01*
X195551126Y-120300335D01*
X195555617Y-120301115D01*
X195555618Y-120301115D01*
X195811936Y-120345620D01*
X195811944Y-120345621D01*
X195815717Y-120346276D01*
X195819554Y-120346467D01*
X195898996Y-120350422D01*
X195899004Y-120350422D01*
X195900567Y-120350500D01*
X196068223Y-120350500D01*
X196070491Y-120350335D01*
X196070503Y-120350335D01*
X196200823Y-120340879D01*
X196267846Y-120336016D01*
X196272301Y-120335032D01*
X196272304Y-120335032D01*
X196525620Y-120279105D01*
X196525624Y-120279104D01*
X196530080Y-120278120D01*
X196762954Y-120189892D01*
X196776941Y-120184593D01*
X196776944Y-120184592D01*
X196781211Y-120182975D01*
X197015976Y-120052574D01*
X197104362Y-119985120D01*
X197225833Y-119892417D01*
X197225837Y-119892413D01*
X197229458Y-119889650D01*
X197238195Y-119880713D01*
X197378424Y-119737265D01*
X197417185Y-119697614D01*
X197575225Y-119480491D01*
X197634659Y-119367525D01*
X197698140Y-119246868D01*
X197698143Y-119246862D01*
X197700265Y-119242828D01*
X197705241Y-119228739D01*
X197768668Y-119049126D01*
X219735541Y-119049126D01*
X219765935Y-119250097D01*
X219836119Y-119440852D01*
X219839479Y-119446272D01*
X219839480Y-119446273D01*
X219939863Y-119608176D01*
X219939866Y-119608180D01*
X219943226Y-119613599D01*
X219947612Y-119618237D01*
X220033612Y-119709179D01*
X220082881Y-119761280D01*
X220249379Y-119877863D01*
X220435919Y-119958586D01*
X220481947Y-119968202D01*
X220630144Y-119999162D01*
X220630149Y-119999163D01*
X220634880Y-120000151D01*
X220639762Y-120000407D01*
X220639871Y-120000413D01*
X220639887Y-120000413D01*
X220641539Y-120000500D01*
X221310800Y-120000500D01*
X221358793Y-119995625D01*
X221455868Y-119985765D01*
X221455870Y-119985765D01*
X221462216Y-119985120D01*
X221656172Y-119924338D01*
X221833944Y-119825797D01*
X221988271Y-119693523D01*
X222112848Y-119532919D01*
X222202587Y-119350545D01*
X222210754Y-119319192D01*
X222252212Y-119160034D01*
X222252212Y-119160031D01*
X222253822Y-119153852D01*
X222258434Y-119065851D01*
X222264125Y-118957256D01*
X222264125Y-118957252D01*
X222264459Y-118950874D01*
X222234065Y-118749903D01*
X222163881Y-118559148D01*
X222110345Y-118472802D01*
X222060137Y-118391824D01*
X222060134Y-118391820D01*
X222056774Y-118386401D01*
X221917119Y-118238720D01*
X221750621Y-118122137D01*
X221564081Y-118041414D01*
X221518053Y-118031798D01*
X221369856Y-118000838D01*
X221369851Y-118000837D01*
X221365120Y-117999849D01*
X221360238Y-117999593D01*
X221360129Y-117999587D01*
X221360113Y-117999587D01*
X221358461Y-117999500D01*
X220689200Y-117999500D01*
X220641207Y-118004375D01*
X220544132Y-118014235D01*
X220544130Y-118014235D01*
X220537784Y-118014880D01*
X220343828Y-118075662D01*
X220166056Y-118174203D01*
X220011729Y-118306477D01*
X219887152Y-118467081D01*
X219797413Y-118649455D01*
X219795804Y-118655633D01*
X219795803Y-118655635D01*
X219754586Y-118813871D01*
X219746178Y-118846148D01*
X219745844Y-118852527D01*
X219740610Y-118952407D01*
X219735541Y-119049126D01*
X197768668Y-119049126D01*
X197788165Y-118993916D01*
X197788165Y-118993915D01*
X197789688Y-118989603D01*
X197827628Y-118797114D01*
X197840739Y-118730594D01*
X197840740Y-118730588D01*
X197841620Y-118726122D01*
X197847664Y-118604714D01*
X197854745Y-118462474D01*
X197854745Y-118462468D01*
X197854972Y-118457905D01*
X197829466Y-118190569D01*
X197826479Y-118178359D01*
X197766721Y-117934149D01*
X197765636Y-117929715D01*
X197757567Y-117909792D01*
X197666531Y-117685037D01*
X197666531Y-117685036D01*
X197664818Y-117680808D01*
X197621698Y-117607165D01*
X223567866Y-117607165D01*
X223602952Y-117864970D01*
X223675758Y-118114757D01*
X223677718Y-118119010D01*
X223677719Y-118119011D01*
X223679160Y-118122137D01*
X223784686Y-118351039D01*
X223787246Y-118354944D01*
X223787249Y-118354949D01*
X223924775Y-118564712D01*
X223924779Y-118564717D01*
X223927341Y-118568625D01*
X224013966Y-118665680D01*
X224067913Y-118726122D01*
X224100591Y-118762735D01*
X224300629Y-118929105D01*
X224523061Y-119064080D01*
X224527375Y-119065889D01*
X224527377Y-119065890D01*
X224758686Y-119162886D01*
X224758691Y-119162888D01*
X224763001Y-119164695D01*
X224767533Y-119165846D01*
X224767536Y-119165847D01*
X224892815Y-119197663D01*
X225015177Y-119228739D01*
X225231286Y-119250500D01*
X225386044Y-119250500D01*
X225388369Y-119250327D01*
X225388375Y-119250327D01*
X225574814Y-119236472D01*
X225574818Y-119236471D01*
X225579466Y-119236126D01*
X225833232Y-119178705D01*
X225837586Y-119177012D01*
X226071370Y-119086098D01*
X226071372Y-119086097D01*
X226075723Y-119084405D01*
X226111285Y-119064080D01*
X226249434Y-118985121D01*
X226301612Y-118955299D01*
X226505936Y-118794223D01*
X226684208Y-118604714D01*
X226832511Y-118390937D01*
X226834579Y-118386744D01*
X226945521Y-118161775D01*
X226945522Y-118161772D01*
X226947586Y-118157587D01*
X226957762Y-118125799D01*
X227019109Y-117934149D01*
X227026906Y-117909792D01*
X227052420Y-117753132D01*
X227067977Y-117657606D01*
X227067977Y-117657605D01*
X227068728Y-117652994D01*
X227072134Y-117392835D01*
X227037048Y-117135030D01*
X227029855Y-117110350D01*
X227013258Y-117053410D01*
X226964242Y-116885243D01*
X226855314Y-116648961D01*
X226826637Y-116605221D01*
X226715225Y-116435288D01*
X226715221Y-116435283D01*
X226712659Y-116431375D01*
X226539409Y-116237265D01*
X226339371Y-116070895D01*
X226116939Y-115935920D01*
X226112623Y-115934110D01*
X225881314Y-115837114D01*
X225881309Y-115837112D01*
X225876999Y-115835305D01*
X225872467Y-115834154D01*
X225872464Y-115834153D01*
X225747185Y-115802337D01*
X225624823Y-115771261D01*
X225408714Y-115749500D01*
X225253956Y-115749500D01*
X225251631Y-115749673D01*
X225251625Y-115749673D01*
X225065186Y-115763528D01*
X225065182Y-115763529D01*
X225060534Y-115763874D01*
X224806768Y-115821295D01*
X224802416Y-115822987D01*
X224802414Y-115822988D01*
X224568630Y-115913902D01*
X224568628Y-115913903D01*
X224564277Y-115915595D01*
X224560223Y-115917912D01*
X224560221Y-115917913D01*
X224524467Y-115938348D01*
X224338388Y-116044701D01*
X224134064Y-116205777D01*
X223955792Y-116395286D01*
X223807489Y-116609063D01*
X223805423Y-116613253D01*
X223805421Y-116613256D01*
X223703841Y-116819242D01*
X223692414Y-116842413D01*
X223613094Y-117090208D01*
X223612344Y-117094814D01*
X223579070Y-117299127D01*
X223571272Y-117347006D01*
X223567866Y-117607165D01*
X197621698Y-117607165D01*
X197529125Y-117449062D01*
X197418211Y-117310371D01*
X197364251Y-117242897D01*
X197364250Y-117242895D01*
X197361399Y-117239331D01*
X197165154Y-117056009D01*
X197005436Y-116945208D01*
X196948254Y-116905539D01*
X196948249Y-116905536D01*
X196944501Y-116902936D01*
X196940416Y-116900904D01*
X196940413Y-116900902D01*
X196768560Y-116815407D01*
X196704062Y-116783320D01*
X196699728Y-116781899D01*
X196699725Y-116781898D01*
X196453207Y-116701085D01*
X196453202Y-116701084D01*
X196448874Y-116699665D01*
X196444382Y-116698885D01*
X196188064Y-116654380D01*
X196188056Y-116654379D01*
X196184283Y-116653724D01*
X196173898Y-116653207D01*
X196101004Y-116649578D01*
X196100996Y-116649578D01*
X196099433Y-116649500D01*
X195931777Y-116649500D01*
X195929509Y-116649665D01*
X195929497Y-116649665D01*
X195799177Y-116659121D01*
X195732154Y-116663984D01*
X195727699Y-116664968D01*
X195727696Y-116664968D01*
X195474380Y-116720895D01*
X195474376Y-116720896D01*
X195469920Y-116721880D01*
X195344355Y-116769452D01*
X195223059Y-116815407D01*
X195223056Y-116815408D01*
X195218789Y-116817025D01*
X194984024Y-116947426D01*
X194980392Y-116950198D01*
X194774167Y-117107583D01*
X194774163Y-117107587D01*
X194770542Y-117110350D01*
X194582815Y-117302386D01*
X194424775Y-117519509D01*
X194422651Y-117523547D01*
X194301860Y-117753132D01*
X194301857Y-117753138D01*
X194299735Y-117757172D01*
X194298215Y-117761477D01*
X194298213Y-117761481D01*
X194214160Y-117999500D01*
X194210312Y-118010397D01*
X194189743Y-118114757D01*
X194165310Y-118238720D01*
X194158380Y-118273878D01*
X194158153Y-118278431D01*
X194158153Y-118278434D01*
X194148992Y-118462474D01*
X194145028Y-118542095D01*
X178560029Y-118542095D01*
X178437880Y-118453349D01*
X178342720Y-118384211D01*
X178338268Y-118381763D01*
X178193770Y-118302325D01*
X178066954Y-118232607D01*
X177774361Y-118116762D01*
X177770527Y-118115777D01*
X177770522Y-118115776D01*
X177606845Y-118073751D01*
X177469556Y-118038501D01*
X177465628Y-118038005D01*
X177465624Y-118038004D01*
X177341740Y-118022354D01*
X177157346Y-117999060D01*
X176842654Y-117999060D01*
X176658260Y-118022354D01*
X176534376Y-118038004D01*
X176534372Y-118038005D01*
X176530444Y-118038501D01*
X176393155Y-118073751D01*
X176229478Y-118115776D01*
X176229473Y-118115777D01*
X176225639Y-118116762D01*
X175933046Y-118232607D01*
X175806230Y-118302325D01*
X175661733Y-118381763D01*
X175657280Y-118384211D01*
X175562120Y-118453349D01*
X175416500Y-118559148D01*
X175402689Y-118569182D01*
X175173288Y-118784604D01*
X174972696Y-119027078D01*
X174804076Y-119292781D01*
X174802392Y-119296360D01*
X174802388Y-119296367D01*
X174673205Y-119570895D01*
X174670087Y-119577522D01*
X174572842Y-119876812D01*
X174513875Y-120185929D01*
X174494115Y-120500000D01*
X168677690Y-120500000D01*
X168644242Y-120385243D01*
X168625976Y-120345620D01*
X168594111Y-120276502D01*
X168535314Y-120148961D01*
X168501289Y-120097064D01*
X168395225Y-119935288D01*
X168395221Y-119935283D01*
X168392659Y-119931375D01*
X168219409Y-119737265D01*
X168019371Y-119570895D01*
X167796939Y-119435920D01*
X167792623Y-119434110D01*
X167561314Y-119337114D01*
X167561309Y-119337112D01*
X167556999Y-119335305D01*
X167552467Y-119334154D01*
X167552464Y-119334153D01*
X167376380Y-119289434D01*
X167304823Y-119271261D01*
X167088714Y-119249500D01*
X166933956Y-119249500D01*
X166931631Y-119249673D01*
X166931625Y-119249673D01*
X166745186Y-119263528D01*
X166745182Y-119263529D01*
X166740534Y-119263874D01*
X166486768Y-119321295D01*
X166482416Y-119322987D01*
X166482414Y-119322988D01*
X166248630Y-119413902D01*
X166248628Y-119413903D01*
X166244277Y-119415595D01*
X166240223Y-119417912D01*
X166240221Y-119417913D01*
X166160962Y-119463214D01*
X166018388Y-119544701D01*
X165814064Y-119705777D01*
X165635792Y-119895286D01*
X165487489Y-120109063D01*
X165485423Y-120113253D01*
X165485421Y-120113256D01*
X165375569Y-120336016D01*
X165372414Y-120342413D01*
X165293094Y-120590208D01*
X165251272Y-120847006D01*
X165247866Y-121107165D01*
X164250500Y-121107165D01*
X164250500Y-105093070D01*
X168074500Y-105093070D01*
X168113200Y-105275142D01*
X168115883Y-105281168D01*
X168163124Y-105387272D01*
X168188910Y-105445189D01*
X168298320Y-105595779D01*
X168303230Y-105600200D01*
X168303231Y-105600201D01*
X168369645Y-105660000D01*
X168436649Y-105720331D01*
X168597851Y-105813401D01*
X168604137Y-105815443D01*
X168604136Y-105815443D01*
X168768601Y-105868881D01*
X168768602Y-105868881D01*
X168774880Y-105870921D01*
X168781443Y-105871611D01*
X168781444Y-105871611D01*
X168804808Y-105874067D01*
X168913589Y-105885500D01*
X169006411Y-105885500D01*
X169115192Y-105874067D01*
X169138556Y-105871611D01*
X169138557Y-105871611D01*
X169145120Y-105870921D01*
X169151398Y-105868881D01*
X169151399Y-105868881D01*
X169315864Y-105815443D01*
X169315863Y-105815443D01*
X169322149Y-105813401D01*
X169483351Y-105720331D01*
X169550356Y-105660000D01*
X169589849Y-105624440D01*
X174544963Y-105624440D01*
X174545260Y-105629592D01*
X174545260Y-105629596D01*
X174558396Y-105857403D01*
X174558397Y-105857409D01*
X174558694Y-105862562D01*
X174611131Y-106095245D01*
X174613075Y-106100032D01*
X174613076Y-106100036D01*
X174651960Y-106195795D01*
X174700867Y-106316239D01*
X174825493Y-106519609D01*
X174981660Y-106699894D01*
X175165176Y-106852252D01*
X175371112Y-106972591D01*
X175593937Y-107057680D01*
X175599005Y-107058711D01*
X175599008Y-107058712D01*
X175714267Y-107082162D01*
X175827666Y-107105233D01*
X175832839Y-107105423D01*
X175832842Y-107105423D01*
X176060861Y-107113784D01*
X176060865Y-107113784D01*
X176066025Y-107113973D01*
X176071146Y-107113317D01*
X176297489Y-107084321D01*
X176297490Y-107084321D01*
X176302609Y-107083665D01*
X176531068Y-107015125D01*
X176745264Y-106910191D01*
X176826492Y-106852252D01*
X176935242Y-106774681D01*
X176939445Y-106771683D01*
X177108397Y-106603320D01*
X177247582Y-106409623D01*
X177296106Y-106311444D01*
X177350969Y-106200437D01*
X177350970Y-106200435D01*
X177353263Y-106195795D01*
X177422600Y-105967577D01*
X177435594Y-105868881D01*
X177453296Y-105734421D01*
X177453297Y-105734414D01*
X177453733Y-105731099D01*
X177455471Y-105660000D01*
X177447755Y-105566143D01*
X177436351Y-105427435D01*
X177436350Y-105427429D01*
X177435927Y-105422284D01*
X177406874Y-105306618D01*
X177379080Y-105195963D01*
X177379079Y-105195959D01*
X177377821Y-105190952D01*
X177365415Y-105162420D01*
X177284772Y-104976953D01*
X177284770Y-104976950D01*
X177282712Y-104972216D01*
X177153155Y-104771951D01*
X177124360Y-104740305D01*
X176996107Y-104599358D01*
X176996105Y-104599357D01*
X176992629Y-104595536D01*
X176988578Y-104592337D01*
X176988574Y-104592333D01*
X176809500Y-104450909D01*
X176809496Y-104450907D01*
X176805445Y-104447707D01*
X176766125Y-104426001D01*
X176749682Y-104416924D01*
X176596631Y-104332436D01*
X176591762Y-104330712D01*
X176591758Y-104330710D01*
X176376663Y-104254541D01*
X176376661Y-104254540D01*
X176371794Y-104252817D01*
X176254383Y-104231903D01*
X176142060Y-104211894D01*
X176142056Y-104211894D01*
X176136972Y-104210988D01*
X176053140Y-104209964D01*
X175903640Y-104208137D01*
X175903638Y-104208137D01*
X175898471Y-104208074D01*
X175662698Y-104244153D01*
X175435982Y-104318255D01*
X175431394Y-104320643D01*
X175431390Y-104320645D01*
X175229003Y-104426001D01*
X175224414Y-104428390D01*
X175220281Y-104431493D01*
X175220278Y-104431495D01*
X175063153Y-104549469D01*
X175033675Y-104571602D01*
X174868887Y-104744042D01*
X174734475Y-104941082D01*
X174634051Y-105157428D01*
X174570309Y-105387272D01*
X174569760Y-105392409D01*
X174563549Y-105450531D01*
X174544963Y-105624440D01*
X169589849Y-105624440D01*
X169616769Y-105600201D01*
X169616770Y-105600200D01*
X169621680Y-105595779D01*
X169731090Y-105445189D01*
X169756877Y-105387272D01*
X169804117Y-105281168D01*
X169806800Y-105275142D01*
X169845500Y-105093070D01*
X169845500Y-104906930D01*
X169810878Y-104744042D01*
X169808172Y-104731311D01*
X169808171Y-104731307D01*
X169806800Y-104724858D01*
X169738566Y-104571602D01*
X169733775Y-104560841D01*
X169733774Y-104560839D01*
X169731090Y-104554811D01*
X169655601Y-104450909D01*
X169625563Y-104409565D01*
X169625561Y-104409563D01*
X169621680Y-104404221D01*
X169540038Y-104330710D01*
X169488259Y-104284088D01*
X169488258Y-104284087D01*
X169483351Y-104279669D01*
X169322149Y-104186599D01*
X169248661Y-104162722D01*
X169151399Y-104131119D01*
X169151398Y-104131119D01*
X169145120Y-104129079D01*
X169138557Y-104128389D01*
X169138556Y-104128389D01*
X169115192Y-104125933D01*
X169006411Y-104114500D01*
X168913589Y-104114500D01*
X168804808Y-104125933D01*
X168781444Y-104128389D01*
X168781443Y-104128389D01*
X168774880Y-104129079D01*
X168768602Y-104131119D01*
X168768601Y-104131119D01*
X168671339Y-104162722D01*
X168597851Y-104186599D01*
X168436649Y-104279669D01*
X168431742Y-104284087D01*
X168431741Y-104284088D01*
X168379962Y-104330710D01*
X168298320Y-104404221D01*
X168294439Y-104409563D01*
X168294437Y-104409565D01*
X168264399Y-104450909D01*
X168188910Y-104554811D01*
X168186226Y-104560839D01*
X168186225Y-104560841D01*
X168181434Y-104571602D01*
X168113200Y-104724858D01*
X168111829Y-104731307D01*
X168111828Y-104731311D01*
X168109122Y-104744042D01*
X168074500Y-104906930D01*
X168074500Y-105093070D01*
X164250500Y-105093070D01*
X164250500Y-102049126D01*
X165735541Y-102049126D01*
X165765935Y-102250097D01*
X165836119Y-102440852D01*
X165839479Y-102446272D01*
X165839480Y-102446273D01*
X165939863Y-102608176D01*
X165939866Y-102608180D01*
X165943226Y-102613599D01*
X165947612Y-102618237D01*
X166052109Y-102728739D01*
X166082881Y-102761280D01*
X166249379Y-102877863D01*
X166435919Y-102958586D01*
X166481947Y-102968202D01*
X166630144Y-102999162D01*
X166630149Y-102999163D01*
X166634880Y-103000151D01*
X166639762Y-103000407D01*
X166639871Y-103000413D01*
X166639887Y-103000413D01*
X166641539Y-103000500D01*
X167310800Y-103000500D01*
X167358793Y-102995625D01*
X167455868Y-102985765D01*
X167455870Y-102985765D01*
X167462216Y-102985120D01*
X167656172Y-102924338D01*
X167833944Y-102825797D01*
X167988271Y-102693523D01*
X168112848Y-102532919D01*
X168202587Y-102350545D01*
X168228752Y-102250097D01*
X168252212Y-102160034D01*
X168252212Y-102160031D01*
X168253822Y-102153852D01*
X168264459Y-101950874D01*
X168234065Y-101749903D01*
X168229951Y-101738720D01*
X168184341Y-101614757D01*
X168163881Y-101559148D01*
X168136434Y-101514880D01*
X168060137Y-101391824D01*
X168060134Y-101391820D01*
X168056774Y-101386401D01*
X167917119Y-101238720D01*
X167750621Y-101122137D01*
X167564081Y-101041414D01*
X167518053Y-101031798D01*
X167369856Y-101000838D01*
X167369851Y-101000837D01*
X167365120Y-100999849D01*
X167360238Y-100999593D01*
X167360129Y-100999587D01*
X167360113Y-100999587D01*
X167358461Y-100999500D01*
X166689200Y-100999500D01*
X166641207Y-101004375D01*
X166544132Y-101014235D01*
X166544130Y-101014235D01*
X166537784Y-101014880D01*
X166343828Y-101075662D01*
X166166056Y-101174203D01*
X166011729Y-101306477D01*
X165887152Y-101467081D01*
X165838903Y-101565137D01*
X165814487Y-101614757D01*
X165797413Y-101649455D01*
X165795804Y-101655633D01*
X165795803Y-101655635D01*
X165756512Y-101806477D01*
X165746178Y-101846148D01*
X165745844Y-101852527D01*
X165739841Y-101967081D01*
X165735541Y-102049126D01*
X164250500Y-102049126D01*
X164250500Y-96093070D01*
X168074500Y-96093070D01*
X168113200Y-96275142D01*
X168188910Y-96445189D01*
X168298320Y-96595779D01*
X168436649Y-96720331D01*
X168597851Y-96813401D01*
X168604137Y-96815443D01*
X168604136Y-96815443D01*
X168768601Y-96868881D01*
X168768602Y-96868881D01*
X168774880Y-96870921D01*
X168781443Y-96871611D01*
X168781444Y-96871611D01*
X168804808Y-96874067D01*
X168913589Y-96885500D01*
X169006411Y-96885500D01*
X169115192Y-96874067D01*
X169138556Y-96871611D01*
X169138557Y-96871611D01*
X169145120Y-96870921D01*
X169151398Y-96868881D01*
X169151399Y-96868881D01*
X169315864Y-96815443D01*
X169315863Y-96815443D01*
X169322149Y-96813401D01*
X169483351Y-96720331D01*
X169621680Y-96595779D01*
X169731090Y-96445189D01*
X169806800Y-96275142D01*
X169845500Y-96093070D01*
X169845500Y-95906930D01*
X169806800Y-95724858D01*
X169731090Y-95554811D01*
X169621680Y-95404221D01*
X169483351Y-95279669D01*
X169322149Y-95186599D01*
X169248661Y-95162722D01*
X169151399Y-95131119D01*
X169151398Y-95131119D01*
X169145120Y-95129079D01*
X169138557Y-95128389D01*
X169138556Y-95128389D01*
X169115192Y-95125933D01*
X169006411Y-95114500D01*
X168913589Y-95114500D01*
X168804808Y-95125933D01*
X168781444Y-95128389D01*
X168781443Y-95128389D01*
X168774880Y-95129079D01*
X168768602Y-95131119D01*
X168768601Y-95131119D01*
X168671339Y-95162722D01*
X168597851Y-95186599D01*
X168436649Y-95279669D01*
X168298320Y-95404221D01*
X168188910Y-95554811D01*
X168113200Y-95724858D01*
X168074500Y-95906930D01*
X168074500Y-96093070D01*
X164250500Y-96093070D01*
X164250500Y-91593070D01*
X168074500Y-91593070D01*
X168113200Y-91775142D01*
X168188910Y-91945189D01*
X168298320Y-92095779D01*
X168436649Y-92220331D01*
X168597851Y-92313401D01*
X168604137Y-92315443D01*
X168604136Y-92315443D01*
X168768601Y-92368881D01*
X168768602Y-92368881D01*
X168774880Y-92370921D01*
X168781443Y-92371611D01*
X168781444Y-92371611D01*
X168804808Y-92374067D01*
X168913589Y-92385500D01*
X169006411Y-92385500D01*
X169115192Y-92374067D01*
X169138556Y-92371611D01*
X169138557Y-92371611D01*
X169145120Y-92370921D01*
X169151398Y-92368881D01*
X169151399Y-92368881D01*
X169315864Y-92315443D01*
X169315863Y-92315443D01*
X169322149Y-92313401D01*
X169483351Y-92220331D01*
X169621680Y-92095779D01*
X169731090Y-91945189D01*
X169806800Y-91775142D01*
X169845500Y-91593070D01*
X169845500Y-91406930D01*
X169806800Y-91224858D01*
X169731090Y-91054811D01*
X169621680Y-90904221D01*
X169483351Y-90779669D01*
X169322149Y-90686599D01*
X169248661Y-90662722D01*
X169151399Y-90631119D01*
X169151398Y-90631119D01*
X169145120Y-90629079D01*
X169138557Y-90628389D01*
X169138556Y-90628389D01*
X169115192Y-90625933D01*
X169006411Y-90614500D01*
X168913589Y-90614500D01*
X168804808Y-90625933D01*
X168781444Y-90628389D01*
X168781443Y-90628389D01*
X168774880Y-90629079D01*
X168768602Y-90631119D01*
X168768601Y-90631119D01*
X168671339Y-90662722D01*
X168597851Y-90686599D01*
X168436649Y-90779669D01*
X168298320Y-90904221D01*
X168188910Y-91054811D01*
X168113200Y-91224858D01*
X168074500Y-91406930D01*
X168074500Y-91593070D01*
X164250500Y-91593070D01*
X164250500Y-88549126D01*
X165735541Y-88549126D01*
X165765935Y-88750097D01*
X165836119Y-88940852D01*
X165839479Y-88946272D01*
X165839480Y-88946273D01*
X165939863Y-89108176D01*
X165939866Y-89108180D01*
X165943226Y-89113599D01*
X166082881Y-89261280D01*
X166249379Y-89377863D01*
X166435919Y-89458586D01*
X166454420Y-89462451D01*
X166630144Y-89499162D01*
X166630149Y-89499163D01*
X166634880Y-89500151D01*
X166639762Y-89500407D01*
X166639871Y-89500413D01*
X166639887Y-89500413D01*
X166641539Y-89500500D01*
X167310800Y-89500500D01*
X167358793Y-89495625D01*
X167455868Y-89485765D01*
X167455870Y-89485765D01*
X167462216Y-89485120D01*
X167656172Y-89424338D01*
X167833944Y-89325797D01*
X167988271Y-89193523D01*
X168041857Y-89124440D01*
X174544963Y-89124440D01*
X174545260Y-89129592D01*
X174545260Y-89129596D01*
X174558396Y-89357403D01*
X174558397Y-89357409D01*
X174558694Y-89362562D01*
X174611131Y-89595245D01*
X174613075Y-89600032D01*
X174613076Y-89600036D01*
X174651960Y-89695795D01*
X174700867Y-89816239D01*
X174825493Y-90019609D01*
X174981660Y-90199894D01*
X175165176Y-90352252D01*
X175371112Y-90472591D01*
X175593937Y-90557680D01*
X175599005Y-90558711D01*
X175599008Y-90558712D01*
X175714267Y-90582162D01*
X175827666Y-90605233D01*
X175832839Y-90605423D01*
X175832842Y-90605423D01*
X176060861Y-90613784D01*
X176060865Y-90613784D01*
X176066025Y-90613973D01*
X176071146Y-90613317D01*
X176297489Y-90584321D01*
X176297490Y-90584321D01*
X176302609Y-90583665D01*
X176531068Y-90515125D01*
X176745264Y-90410191D01*
X176826492Y-90352252D01*
X176935242Y-90274681D01*
X176939445Y-90271683D01*
X177108397Y-90103320D01*
X177247582Y-89909623D01*
X177296106Y-89811444D01*
X177350969Y-89700437D01*
X177350970Y-89700435D01*
X177353263Y-89695795D01*
X177412627Y-89500404D01*
X177421098Y-89472521D01*
X177421098Y-89472520D01*
X177422600Y-89467577D01*
X177428293Y-89424338D01*
X177453296Y-89234421D01*
X177453297Y-89234414D01*
X177453733Y-89231099D01*
X177455471Y-89160000D01*
X177444553Y-89027198D01*
X177436351Y-88927435D01*
X177436350Y-88927429D01*
X177435927Y-88922284D01*
X177392677Y-88750097D01*
X177379080Y-88695963D01*
X177379079Y-88695959D01*
X177377821Y-88690952D01*
X177365415Y-88662420D01*
X177284772Y-88476953D01*
X177284770Y-88476950D01*
X177282712Y-88472216D01*
X177153155Y-88271951D01*
X177124360Y-88240305D01*
X176996107Y-88099358D01*
X176996105Y-88099357D01*
X176992629Y-88095536D01*
X176988578Y-88092337D01*
X176988574Y-88092333D01*
X176809500Y-87950909D01*
X176809496Y-87950907D01*
X176805445Y-87947707D01*
X176766125Y-87926001D01*
X176749682Y-87916924D01*
X176596631Y-87832436D01*
X176591762Y-87830712D01*
X176591758Y-87830710D01*
X176376663Y-87754541D01*
X176376661Y-87754540D01*
X176371794Y-87752817D01*
X176254383Y-87731903D01*
X176142060Y-87711894D01*
X176142056Y-87711894D01*
X176136972Y-87710988D01*
X176053140Y-87709964D01*
X175903640Y-87708137D01*
X175903638Y-87708137D01*
X175898471Y-87708074D01*
X175662698Y-87744153D01*
X175435982Y-87818255D01*
X175431394Y-87820643D01*
X175431390Y-87820645D01*
X175229003Y-87926001D01*
X175224414Y-87928390D01*
X175220281Y-87931493D01*
X175220278Y-87931495D01*
X175037810Y-88068497D01*
X175033675Y-88071602D01*
X174868887Y-88244042D01*
X174734475Y-88441082D01*
X174634051Y-88657428D01*
X174570309Y-88887272D01*
X174569760Y-88892409D01*
X174545626Y-89118237D01*
X174544963Y-89124440D01*
X168041857Y-89124440D01*
X168112848Y-89032919D01*
X168202587Y-88850545D01*
X168228752Y-88750097D01*
X168252212Y-88660034D01*
X168252212Y-88660031D01*
X168253822Y-88653852D01*
X168259645Y-88542744D01*
X168264125Y-88457256D01*
X168264125Y-88457252D01*
X168264459Y-88450874D01*
X168234065Y-88249903D01*
X168163881Y-88059148D01*
X168110345Y-87972802D01*
X168060137Y-87891824D01*
X168060134Y-87891820D01*
X168056774Y-87886401D01*
X167929593Y-87751911D01*
X167921508Y-87743361D01*
X167921507Y-87743360D01*
X167917119Y-87738720D01*
X167750621Y-87622137D01*
X167564081Y-87541414D01*
X167518053Y-87531798D01*
X167369856Y-87500838D01*
X167369851Y-87500837D01*
X167365120Y-87499849D01*
X167360238Y-87499593D01*
X167360129Y-87499587D01*
X167360113Y-87499587D01*
X167358461Y-87499500D01*
X166689200Y-87499500D01*
X166641207Y-87504375D01*
X166544132Y-87514235D01*
X166544130Y-87514235D01*
X166537784Y-87514880D01*
X166343828Y-87575662D01*
X166166056Y-87674203D01*
X166011729Y-87806477D01*
X166007822Y-87811514D01*
X166007820Y-87811516D01*
X166002593Y-87818255D01*
X165887152Y-87967081D01*
X165797413Y-88149455D01*
X165795804Y-88155633D01*
X165795803Y-88155635D01*
X165764374Y-88276294D01*
X165746178Y-88346148D01*
X165735541Y-88549126D01*
X164250500Y-88549126D01*
X164250500Y-85549126D01*
X165735541Y-85549126D01*
X165765935Y-85750097D01*
X165836119Y-85940852D01*
X165839479Y-85946272D01*
X165839480Y-85946273D01*
X165939863Y-86108176D01*
X165939866Y-86108180D01*
X165943226Y-86113599D01*
X165947612Y-86118237D01*
X166052109Y-86228739D01*
X166082881Y-86261280D01*
X166249379Y-86377863D01*
X166435919Y-86458586D01*
X166481947Y-86468202D01*
X166630144Y-86499162D01*
X166630149Y-86499163D01*
X166634880Y-86500151D01*
X166639762Y-86500407D01*
X166639871Y-86500413D01*
X166639887Y-86500413D01*
X166641539Y-86500500D01*
X167310800Y-86500500D01*
X167358793Y-86495625D01*
X167455868Y-86485765D01*
X167455870Y-86485765D01*
X167462216Y-86485120D01*
X167656172Y-86424338D01*
X167833944Y-86325797D01*
X167988271Y-86193523D01*
X168112848Y-86032919D01*
X168202587Y-85850545D01*
X168228752Y-85750097D01*
X168252212Y-85660034D01*
X168252212Y-85660031D01*
X168253822Y-85653852D01*
X168264459Y-85450874D01*
X168234065Y-85249903D01*
X168229951Y-85238720D01*
X168184341Y-85114757D01*
X168163881Y-85059148D01*
X168136434Y-85014880D01*
X168060137Y-84891824D01*
X168060134Y-84891820D01*
X168056774Y-84886401D01*
X167917119Y-84738720D01*
X167750621Y-84622137D01*
X167564081Y-84541414D01*
X167518053Y-84531798D01*
X167369856Y-84500838D01*
X167369851Y-84500837D01*
X167365120Y-84499849D01*
X167360238Y-84499593D01*
X167360129Y-84499587D01*
X167360113Y-84499587D01*
X167358461Y-84499500D01*
X166689200Y-84499500D01*
X166641207Y-84504375D01*
X166544132Y-84514235D01*
X166544130Y-84514235D01*
X166537784Y-84514880D01*
X166343828Y-84575662D01*
X166166056Y-84674203D01*
X166011729Y-84806477D01*
X165887152Y-84967081D01*
X165838903Y-85065137D01*
X165814487Y-85114757D01*
X165797413Y-85149455D01*
X165795804Y-85155633D01*
X165795803Y-85155635D01*
X165756512Y-85306477D01*
X165746178Y-85346148D01*
X165745844Y-85352527D01*
X165739841Y-85467081D01*
X165735541Y-85549126D01*
X164250500Y-85549126D01*
X164250500Y-82549126D01*
X165735541Y-82549126D01*
X165765935Y-82750097D01*
X165836119Y-82940852D01*
X165839479Y-82946272D01*
X165839480Y-82946273D01*
X165939863Y-83108176D01*
X165939866Y-83108180D01*
X165943226Y-83113599D01*
X166082881Y-83261280D01*
X166249379Y-83377863D01*
X166435919Y-83458586D01*
X166481947Y-83468202D01*
X166630144Y-83499162D01*
X166630149Y-83499163D01*
X166634880Y-83500151D01*
X166639762Y-83500407D01*
X166639871Y-83500413D01*
X166639887Y-83500413D01*
X166641539Y-83500500D01*
X167310800Y-83500500D01*
X167358793Y-83495625D01*
X167455868Y-83485765D01*
X167455870Y-83485765D01*
X167462216Y-83485120D01*
X167656172Y-83424338D01*
X167833944Y-83325797D01*
X167988271Y-83193523D01*
X168112848Y-83032919D01*
X168202587Y-82850545D01*
X168228752Y-82750097D01*
X168252212Y-82660034D01*
X168252212Y-82660031D01*
X168253822Y-82653852D01*
X168264459Y-82450874D01*
X168234065Y-82249903D01*
X168163881Y-82059148D01*
X168159362Y-82051860D01*
X168060137Y-81891824D01*
X168060134Y-81891820D01*
X168056774Y-81886401D01*
X167917119Y-81738720D01*
X167750621Y-81622137D01*
X167564081Y-81541414D01*
X167518053Y-81531798D01*
X167369856Y-81500838D01*
X167369851Y-81500837D01*
X167365120Y-81499849D01*
X167360238Y-81499593D01*
X167360129Y-81499587D01*
X167360113Y-81499587D01*
X167358461Y-81499500D01*
X166689200Y-81499500D01*
X166641207Y-81504375D01*
X166544132Y-81514235D01*
X166544130Y-81514235D01*
X166537784Y-81514880D01*
X166343828Y-81575662D01*
X166166056Y-81674203D01*
X166011729Y-81806477D01*
X165887152Y-81967081D01*
X165797413Y-82149455D01*
X165795804Y-82155633D01*
X165795803Y-82155635D01*
X165769603Y-82256220D01*
X165746178Y-82346148D01*
X165741924Y-82427328D01*
X165737414Y-82513390D01*
X165735541Y-82549126D01*
X164250500Y-82549126D01*
X164250500Y-76593070D01*
X168074500Y-76593070D01*
X168113200Y-76775142D01*
X168188910Y-76945189D01*
X168298320Y-77095779D01*
X168436649Y-77220331D01*
X168597851Y-77313401D01*
X168604137Y-77315443D01*
X168604136Y-77315443D01*
X168768601Y-77368881D01*
X168768602Y-77368881D01*
X168774880Y-77370921D01*
X168781443Y-77371611D01*
X168781444Y-77371611D01*
X168804808Y-77374067D01*
X168913589Y-77385500D01*
X169006411Y-77385500D01*
X169115192Y-77374067D01*
X169138556Y-77371611D01*
X169138557Y-77371611D01*
X169145120Y-77370921D01*
X169151398Y-77368881D01*
X169151399Y-77368881D01*
X169315864Y-77315443D01*
X169315863Y-77315443D01*
X169322149Y-77313401D01*
X169483351Y-77220331D01*
X169621680Y-77095779D01*
X169731090Y-76945189D01*
X169806800Y-76775142D01*
X169845500Y-76593070D01*
X169845500Y-76406930D01*
X169806800Y-76224858D01*
X169731090Y-76054811D01*
X169621680Y-75904221D01*
X169483351Y-75779669D01*
X169322149Y-75686599D01*
X169248661Y-75662722D01*
X169151399Y-75631119D01*
X169151398Y-75631119D01*
X169145120Y-75629079D01*
X169138557Y-75628389D01*
X169138556Y-75628389D01*
X169115192Y-75625933D01*
X169006411Y-75614500D01*
X168913589Y-75614500D01*
X168804808Y-75625933D01*
X168781444Y-75628389D01*
X168781443Y-75628389D01*
X168774880Y-75629079D01*
X168768602Y-75631119D01*
X168768601Y-75631119D01*
X168671339Y-75662722D01*
X168597851Y-75686599D01*
X168436649Y-75779669D01*
X168298320Y-75904221D01*
X168188910Y-76054811D01*
X168113200Y-76224858D01*
X168074500Y-76406930D01*
X168074500Y-76593070D01*
X164250500Y-76593070D01*
X164250500Y-71107165D01*
X165247866Y-71107165D01*
X165282952Y-71364970D01*
X165355758Y-71614757D01*
X165464686Y-71851039D01*
X165467246Y-71854944D01*
X165467249Y-71854949D01*
X165604775Y-72064712D01*
X165604779Y-72064717D01*
X165607341Y-72068625D01*
X165780591Y-72262735D01*
X165980629Y-72429105D01*
X166203061Y-72564080D01*
X166207375Y-72565889D01*
X166207377Y-72565890D01*
X166438686Y-72662886D01*
X166438691Y-72662888D01*
X166443001Y-72664695D01*
X166447533Y-72665846D01*
X166447536Y-72665847D01*
X166572815Y-72697663D01*
X166695177Y-72728739D01*
X166911286Y-72750500D01*
X167066044Y-72750500D01*
X167068369Y-72750327D01*
X167068375Y-72750327D01*
X167254814Y-72736472D01*
X167254818Y-72736471D01*
X167259466Y-72736126D01*
X167513232Y-72678705D01*
X167517586Y-72677012D01*
X167751370Y-72586098D01*
X167751372Y-72586097D01*
X167755723Y-72584405D01*
X167791285Y-72564080D01*
X167839038Y-72536786D01*
X167981612Y-72455299D01*
X168185936Y-72294223D01*
X168364208Y-72104714D01*
X168512511Y-71890937D01*
X168530258Y-71854949D01*
X168625521Y-71661775D01*
X168625522Y-71661772D01*
X168627586Y-71657587D01*
X168706906Y-71409792D01*
X168748728Y-71152994D01*
X168752134Y-70892835D01*
X168717048Y-70635030D01*
X168644242Y-70385243D01*
X168535314Y-70148961D01*
X168502359Y-70098696D01*
X168395225Y-69935288D01*
X168395221Y-69935283D01*
X168392659Y-69931375D01*
X168306034Y-69834320D01*
X168222526Y-69740757D01*
X168222524Y-69740755D01*
X168219409Y-69737265D01*
X168019371Y-69570895D01*
X167796939Y-69435920D01*
X167792623Y-69434110D01*
X167561314Y-69337114D01*
X167561309Y-69337112D01*
X167556999Y-69335305D01*
X167552467Y-69334154D01*
X167552464Y-69334153D01*
X167427185Y-69302337D01*
X167304823Y-69271261D01*
X167088714Y-69249500D01*
X166933956Y-69249500D01*
X166931631Y-69249673D01*
X166931625Y-69249673D01*
X166745186Y-69263528D01*
X166745182Y-69263529D01*
X166740534Y-69263874D01*
X166486768Y-69321295D01*
X166482416Y-69322987D01*
X166482414Y-69322988D01*
X166248630Y-69413902D01*
X166248628Y-69413903D01*
X166244277Y-69415595D01*
X166240223Y-69417912D01*
X166240221Y-69417913D01*
X166204467Y-69438348D01*
X166018388Y-69544701D01*
X165814064Y-69705777D01*
X165635792Y-69895286D01*
X165487489Y-70109063D01*
X165485423Y-70113253D01*
X165485421Y-70113256D01*
X165465720Y-70153207D01*
X165372414Y-70342413D01*
X165370992Y-70346856D01*
X165370991Y-70346858D01*
X165358704Y-70385243D01*
X165293094Y-70590208D01*
X165251272Y-70847006D01*
X165247866Y-71107165D01*
X164250500Y-71107165D01*
X164250500Y-71037085D01*
X164252921Y-71012504D01*
X164252987Y-71012171D01*
X164255408Y-71000000D01*
X164252988Y-70987831D01*
X164252988Y-70975419D01*
X164253224Y-70975419D01*
X164252477Y-70964794D01*
X164256256Y-70897512D01*
X164267392Y-70699215D01*
X164268973Y-70685178D01*
X164285110Y-70590208D01*
X164318251Y-70395155D01*
X164321395Y-70381380D01*
X164402835Y-70098696D01*
X164407502Y-70085359D01*
X164520078Y-69813574D01*
X164526209Y-69800843D01*
X164561348Y-69737265D01*
X164653297Y-69570895D01*
X164668510Y-69543370D01*
X164676027Y-69531407D01*
X164815168Y-69335305D01*
X164846258Y-69291487D01*
X164855067Y-69280441D01*
X164862241Y-69272414D01*
X165051096Y-69061085D01*
X165061086Y-69051095D01*
X165280441Y-68855067D01*
X165291489Y-68846257D01*
X165531407Y-68676027D01*
X165543370Y-68668510D01*
X165645486Y-68612072D01*
X165800847Y-68526207D01*
X165813570Y-68520080D01*
X165918656Y-68476552D01*
X166085359Y-68407502D01*
X166098696Y-68402835D01*
X166381380Y-68321395D01*
X166395155Y-68318251D01*
X166540167Y-68293612D01*
X166685183Y-68268972D01*
X166699215Y-68267392D01*
X166964798Y-68252477D01*
X166975419Y-68253224D01*
X166975419Y-68252988D01*
X166987831Y-68252988D01*
X167000000Y-68255408D01*
X167012199Y-68252982D01*
X167012504Y-68252921D01*
X167037085Y-68250500D01*
X192374000Y-68250500D01*
X192442121Y-68270502D01*
G37*
G04 #@! TD.AperFunction*
G04 #@! TA.AperFunction,Conductor*
G36*
X226987496Y-68252921D02*
G01*
X226987801Y-68252982D01*
X227000000Y-68255408D01*
X227012169Y-68252988D01*
X227024581Y-68252988D01*
X227024581Y-68253224D01*
X227035202Y-68252477D01*
X227300785Y-68267392D01*
X227314817Y-68268972D01*
X227459834Y-68293612D01*
X227604845Y-68318251D01*
X227618620Y-68321395D01*
X227901304Y-68402835D01*
X227914641Y-68407502D01*
X228081344Y-68476552D01*
X228186430Y-68520080D01*
X228199153Y-68526207D01*
X228354514Y-68612072D01*
X228456630Y-68668510D01*
X228468593Y-68676027D01*
X228708511Y-68846257D01*
X228719559Y-68855067D01*
X228938914Y-69051095D01*
X228948904Y-69061085D01*
X229137760Y-69272414D01*
X229144933Y-69280441D01*
X229153742Y-69291487D01*
X229184832Y-69335305D01*
X229323973Y-69531407D01*
X229331490Y-69543370D01*
X229346703Y-69570895D01*
X229438653Y-69737265D01*
X229473791Y-69800843D01*
X229479922Y-69813574D01*
X229592498Y-70085359D01*
X229597165Y-70098696D01*
X229678605Y-70381380D01*
X229681749Y-70395155D01*
X229714891Y-70590208D01*
X229731027Y-70685178D01*
X229732608Y-70699215D01*
X229743745Y-70897512D01*
X229747523Y-70964794D01*
X229746776Y-70975419D01*
X229747012Y-70975419D01*
X229747012Y-70987831D01*
X229744592Y-71000000D01*
X229747013Y-71012171D01*
X229747079Y-71012504D01*
X229749500Y-71037085D01*
X229749500Y-111374000D01*
X229729498Y-111442121D01*
X229675842Y-111488614D01*
X229623500Y-111500000D01*
X208501500Y-111500000D01*
X208433379Y-111479998D01*
X208386886Y-111426342D01*
X208375500Y-111374000D01*
X208375500Y-105592886D01*
X208395502Y-105524765D01*
X208419669Y-105497075D01*
X208476576Y-105448472D01*
X208476577Y-105448471D01*
X208482348Y-105443542D01*
X208574224Y-105315683D01*
X208632950Y-105169598D01*
X208655134Y-105013723D01*
X208655278Y-105000000D01*
X208636363Y-104843694D01*
X208580710Y-104696412D01*
X208491531Y-104566657D01*
X208417681Y-104500859D01*
X208380125Y-104440609D01*
X208375500Y-104406783D01*
X208375500Y-101107165D01*
X223567866Y-101107165D01*
X223602952Y-101364970D01*
X223675758Y-101614757D01*
X223784686Y-101851039D01*
X223787246Y-101854944D01*
X223787249Y-101854949D01*
X223924775Y-102064712D01*
X223924779Y-102064717D01*
X223927341Y-102068625D01*
X224100591Y-102262735D01*
X224300629Y-102429105D01*
X224523061Y-102564080D01*
X224527375Y-102565889D01*
X224527377Y-102565890D01*
X224758686Y-102662886D01*
X224758691Y-102662888D01*
X224763001Y-102664695D01*
X224767533Y-102665846D01*
X224767536Y-102665847D01*
X224892815Y-102697663D01*
X225015177Y-102728739D01*
X225231286Y-102750500D01*
X225386044Y-102750500D01*
X225388369Y-102750327D01*
X225388375Y-102750327D01*
X225574814Y-102736472D01*
X225574818Y-102736471D01*
X225579466Y-102736126D01*
X225833232Y-102678705D01*
X225837586Y-102677012D01*
X226071370Y-102586098D01*
X226071372Y-102586097D01*
X226075723Y-102584405D01*
X226111285Y-102564080D01*
X226159038Y-102536786D01*
X226301612Y-102455299D01*
X226505936Y-102294223D01*
X226684208Y-102104714D01*
X226832511Y-101890937D01*
X226850258Y-101854949D01*
X226945521Y-101661775D01*
X226945522Y-101661772D01*
X226947586Y-101657587D01*
X227026906Y-101409792D01*
X227049743Y-101269569D01*
X227067977Y-101157606D01*
X227067977Y-101157605D01*
X227068728Y-101152994D01*
X227072134Y-100892835D01*
X227037048Y-100635030D01*
X226964242Y-100385243D01*
X226951474Y-100357546D01*
X226916115Y-100280848D01*
X226855314Y-100148961D01*
X226826637Y-100105221D01*
X226715225Y-99935288D01*
X226715221Y-99935283D01*
X226712659Y-99931375D01*
X226539409Y-99737265D01*
X226339371Y-99570895D01*
X226116939Y-99435920D01*
X226112623Y-99434110D01*
X225881314Y-99337114D01*
X225881309Y-99337112D01*
X225876999Y-99335305D01*
X225872467Y-99334154D01*
X225872464Y-99334153D01*
X225747185Y-99302337D01*
X225624823Y-99271261D01*
X225408714Y-99249500D01*
X225253956Y-99249500D01*
X225251631Y-99249673D01*
X225251625Y-99249673D01*
X225065186Y-99263528D01*
X225065182Y-99263529D01*
X225060534Y-99263874D01*
X224806768Y-99321295D01*
X224802416Y-99322987D01*
X224802414Y-99322988D01*
X224568630Y-99413902D01*
X224568628Y-99413903D01*
X224564277Y-99415595D01*
X224560223Y-99417912D01*
X224560221Y-99417913D01*
X224524467Y-99438348D01*
X224338388Y-99544701D01*
X224134064Y-99705777D01*
X223955792Y-99895286D01*
X223807489Y-100109063D01*
X223805423Y-100113253D01*
X223805421Y-100113256D01*
X223745671Y-100234419D01*
X223692414Y-100342413D01*
X223613094Y-100590208D01*
X223571272Y-100847006D01*
X223567866Y-101107165D01*
X208375500Y-101107165D01*
X208375500Y-100047376D01*
X219739500Y-100047376D01*
X219746149Y-100108579D01*
X219748921Y-100115972D01*
X219748921Y-100115974D01*
X219761287Y-100148961D01*
X219796474Y-100242823D01*
X219801854Y-100250002D01*
X219801856Y-100250005D01*
X219818381Y-100272054D01*
X219882454Y-100357546D01*
X219889634Y-100362927D01*
X219989995Y-100438144D01*
X219989998Y-100438146D01*
X219997177Y-100443526D01*
X220086562Y-100477034D01*
X220124026Y-100491079D01*
X220124028Y-100491079D01*
X220131421Y-100493851D01*
X220139271Y-100494704D01*
X220139272Y-100494704D01*
X220189227Y-100500131D01*
X220192624Y-100500500D01*
X221807376Y-100500500D01*
X221810773Y-100500131D01*
X221860728Y-100494704D01*
X221860729Y-100494704D01*
X221868579Y-100493851D01*
X221875972Y-100491079D01*
X221875974Y-100491079D01*
X221913438Y-100477034D01*
X222002823Y-100443526D01*
X222010002Y-100438146D01*
X222010005Y-100438144D01*
X222110366Y-100362927D01*
X222117546Y-100357546D01*
X222181619Y-100272054D01*
X222198144Y-100250005D01*
X222198146Y-100250002D01*
X222203526Y-100242823D01*
X222238713Y-100148961D01*
X222251079Y-100115974D01*
X222251079Y-100115972D01*
X222253851Y-100108579D01*
X222260500Y-100047376D01*
X222260500Y-98952624D01*
X222253851Y-98891421D01*
X222203526Y-98757177D01*
X222198146Y-98749998D01*
X222198144Y-98749995D01*
X222122927Y-98649634D01*
X222117546Y-98642454D01*
X222095596Y-98626003D01*
X222010005Y-98561856D01*
X222010002Y-98561854D01*
X222002823Y-98556474D01*
X221913438Y-98522966D01*
X221875974Y-98508921D01*
X221875972Y-98508921D01*
X221868579Y-98506149D01*
X221860729Y-98505296D01*
X221860728Y-98505296D01*
X221810773Y-98499869D01*
X221810772Y-98499869D01*
X221807376Y-98499500D01*
X220192624Y-98499500D01*
X220189228Y-98499869D01*
X220189227Y-98499869D01*
X220139272Y-98505296D01*
X220139271Y-98505296D01*
X220131421Y-98506149D01*
X220124028Y-98508921D01*
X220124026Y-98508921D01*
X220086562Y-98522966D01*
X219997177Y-98556474D01*
X219989998Y-98561854D01*
X219989995Y-98561856D01*
X219904404Y-98626003D01*
X219882454Y-98642454D01*
X219877073Y-98649634D01*
X219801856Y-98749995D01*
X219801854Y-98749998D01*
X219796474Y-98757177D01*
X219746149Y-98891421D01*
X219739500Y-98952624D01*
X219739500Y-100047376D01*
X208375500Y-100047376D01*
X208375500Y-98067886D01*
X208395502Y-97999765D01*
X208419669Y-97972075D01*
X208476576Y-97923472D01*
X208476577Y-97923471D01*
X208482348Y-97918542D01*
X208574224Y-97790683D01*
X208632950Y-97644598D01*
X208655134Y-97488723D01*
X208655278Y-97475000D01*
X208636363Y-97318694D01*
X208580710Y-97171412D01*
X208491531Y-97041657D01*
X208417681Y-96975859D01*
X208380125Y-96915609D01*
X208375500Y-96881783D01*
X208375500Y-84607165D01*
X223567866Y-84607165D01*
X223602952Y-84864970D01*
X223675758Y-85114757D01*
X223784686Y-85351039D01*
X223787246Y-85354944D01*
X223787249Y-85354949D01*
X223924775Y-85564712D01*
X223924779Y-85564717D01*
X223927341Y-85568625D01*
X224100591Y-85762735D01*
X224300629Y-85929105D01*
X224523061Y-86064080D01*
X224527375Y-86065889D01*
X224527377Y-86065890D01*
X224758686Y-86162886D01*
X224758691Y-86162888D01*
X224763001Y-86164695D01*
X224767533Y-86165846D01*
X224767536Y-86165847D01*
X224892815Y-86197663D01*
X225015177Y-86228739D01*
X225231286Y-86250500D01*
X225386044Y-86250500D01*
X225388369Y-86250327D01*
X225388375Y-86250327D01*
X225574814Y-86236472D01*
X225574818Y-86236471D01*
X225579466Y-86236126D01*
X225833232Y-86178705D01*
X225837586Y-86177012D01*
X226071370Y-86086098D01*
X226071372Y-86086097D01*
X226075723Y-86084405D01*
X226111285Y-86064080D01*
X226159038Y-86036786D01*
X226301612Y-85955299D01*
X226505936Y-85794223D01*
X226684208Y-85604714D01*
X226832511Y-85390937D01*
X226850258Y-85354949D01*
X226945521Y-85161775D01*
X226945522Y-85161772D01*
X226947586Y-85157587D01*
X227026906Y-84909792D01*
X227049743Y-84769569D01*
X227067977Y-84657606D01*
X227067977Y-84657605D01*
X227068728Y-84652994D01*
X227072134Y-84392835D01*
X227037048Y-84135030D01*
X226964242Y-83885243D01*
X226951474Y-83857546D01*
X226916115Y-83780848D01*
X226855314Y-83648961D01*
X226826637Y-83605221D01*
X226715225Y-83435288D01*
X226715221Y-83435283D01*
X226712659Y-83431375D01*
X226539409Y-83237265D01*
X226339371Y-83070895D01*
X226116939Y-82935920D01*
X226112623Y-82934110D01*
X225881314Y-82837114D01*
X225881309Y-82837112D01*
X225876999Y-82835305D01*
X225872467Y-82834154D01*
X225872464Y-82834153D01*
X225747185Y-82802337D01*
X225624823Y-82771261D01*
X225408714Y-82749500D01*
X225253956Y-82749500D01*
X225251631Y-82749673D01*
X225251625Y-82749673D01*
X225065186Y-82763528D01*
X225065182Y-82763529D01*
X225060534Y-82763874D01*
X224806768Y-82821295D01*
X224802416Y-82822987D01*
X224802414Y-82822988D01*
X224568630Y-82913902D01*
X224568628Y-82913903D01*
X224564277Y-82915595D01*
X224560223Y-82917912D01*
X224560221Y-82917913D01*
X224524467Y-82938348D01*
X224338388Y-83044701D01*
X224134064Y-83205777D01*
X223955792Y-83395286D01*
X223807489Y-83609063D01*
X223805423Y-83613253D01*
X223805421Y-83613256D01*
X223745671Y-83734419D01*
X223692414Y-83842413D01*
X223613094Y-84090208D01*
X223571272Y-84347006D01*
X223567866Y-84607165D01*
X208375500Y-84607165D01*
X208375500Y-83547376D01*
X219739500Y-83547376D01*
X219746149Y-83608579D01*
X219748921Y-83615972D01*
X219748921Y-83615974D01*
X219761287Y-83648961D01*
X219796474Y-83742823D01*
X219801854Y-83750002D01*
X219801856Y-83750005D01*
X219818381Y-83772054D01*
X219882454Y-83857546D01*
X219889634Y-83862927D01*
X219989995Y-83938144D01*
X219989998Y-83938146D01*
X219997177Y-83943526D01*
X220086562Y-83977034D01*
X220124026Y-83991079D01*
X220124028Y-83991079D01*
X220131421Y-83993851D01*
X220139271Y-83994704D01*
X220139272Y-83994704D01*
X220189227Y-84000131D01*
X220192624Y-84000500D01*
X221807376Y-84000500D01*
X221810773Y-84000131D01*
X221860728Y-83994704D01*
X221860729Y-83994704D01*
X221868579Y-83993851D01*
X221875972Y-83991079D01*
X221875974Y-83991079D01*
X221913438Y-83977034D01*
X222002823Y-83943526D01*
X222010002Y-83938146D01*
X222010005Y-83938144D01*
X222110366Y-83862927D01*
X222117546Y-83857546D01*
X222181619Y-83772054D01*
X222198144Y-83750005D01*
X222198146Y-83750002D01*
X222203526Y-83742823D01*
X222238713Y-83648961D01*
X222251079Y-83615974D01*
X222251079Y-83615972D01*
X222253851Y-83608579D01*
X222260500Y-83547376D01*
X222260500Y-82452624D01*
X222253851Y-82391421D01*
X222203526Y-82257177D01*
X222198146Y-82249998D01*
X222198144Y-82249995D01*
X222122927Y-82149634D01*
X222117546Y-82142454D01*
X222095596Y-82126003D01*
X222010005Y-82061856D01*
X222010002Y-82061854D01*
X222002823Y-82056474D01*
X221913438Y-82022966D01*
X221875974Y-82008921D01*
X221875972Y-82008921D01*
X221868579Y-82006149D01*
X221860729Y-82005296D01*
X221860728Y-82005296D01*
X221810773Y-81999869D01*
X221810772Y-81999869D01*
X221807376Y-81999500D01*
X220192624Y-81999500D01*
X220189228Y-81999869D01*
X220189227Y-81999869D01*
X220139272Y-82005296D01*
X220139271Y-82005296D01*
X220131421Y-82006149D01*
X220124028Y-82008921D01*
X220124026Y-82008921D01*
X220086562Y-82022966D01*
X219997177Y-82056474D01*
X219989998Y-82061854D01*
X219989995Y-82061856D01*
X219904404Y-82126003D01*
X219882454Y-82142454D01*
X219877073Y-82149634D01*
X219801856Y-82249995D01*
X219801854Y-82249998D01*
X219796474Y-82257177D01*
X219746149Y-82391421D01*
X219739500Y-82452624D01*
X219739500Y-83547376D01*
X208375500Y-83547376D01*
X208375500Y-81567886D01*
X208395502Y-81499765D01*
X208419669Y-81472075D01*
X208476576Y-81423472D01*
X208476577Y-81423471D01*
X208482348Y-81418542D01*
X208574224Y-81290683D01*
X208632950Y-81144598D01*
X208655134Y-80988723D01*
X208655278Y-80975000D01*
X208636363Y-80818694D01*
X208580710Y-80671412D01*
X208491531Y-80541657D01*
X208444971Y-80500174D01*
X208379648Y-80441972D01*
X208379645Y-80441970D01*
X208373976Y-80436919D01*
X208234831Y-80363245D01*
X208218122Y-80359048D01*
X208089498Y-80326740D01*
X208089496Y-80326740D01*
X208082128Y-80324889D01*
X208074530Y-80324849D01*
X208074528Y-80324849D01*
X208007319Y-80324497D01*
X207924684Y-80324065D01*
X207917305Y-80325837D01*
X207917301Y-80325837D01*
X207778967Y-80359048D01*
X207778963Y-80359049D01*
X207771588Y-80360820D01*
X207631679Y-80433032D01*
X207625957Y-80438024D01*
X207625955Y-80438025D01*
X207518759Y-80531538D01*
X207518756Y-80531541D01*
X207513034Y-80536533D01*
X207422501Y-80665348D01*
X207365309Y-80812039D01*
X207344758Y-80968138D01*
X207362035Y-81124633D01*
X207416143Y-81272490D01*
X207420380Y-81278796D01*
X207420382Y-81278799D01*
X207460709Y-81338811D01*
X207503958Y-81403172D01*
X207509573Y-81408281D01*
X207509578Y-81408287D01*
X207583300Y-81475369D01*
X207620222Y-81536009D01*
X207624500Y-81568562D01*
X207624500Y-96882006D01*
X207604498Y-96950127D01*
X207581331Y-96976953D01*
X207513034Y-97036533D01*
X207422501Y-97165348D01*
X207365309Y-97312039D01*
X207344758Y-97468138D01*
X207362035Y-97624633D01*
X207416143Y-97772490D01*
X207420380Y-97778796D01*
X207420382Y-97778799D01*
X207460709Y-97838811D01*
X207503958Y-97903172D01*
X207509573Y-97908281D01*
X207509578Y-97908287D01*
X207583300Y-97975369D01*
X207620222Y-98036009D01*
X207624500Y-98068562D01*
X207624500Y-104407006D01*
X207604498Y-104475127D01*
X207581331Y-104501953D01*
X207513034Y-104561533D01*
X207422501Y-104690348D01*
X207365309Y-104837039D01*
X207344758Y-104993138D01*
X207362035Y-105149633D01*
X207416143Y-105297490D01*
X207420380Y-105303796D01*
X207420382Y-105303799D01*
X207460709Y-105363811D01*
X207503958Y-105428172D01*
X207509573Y-105433281D01*
X207509578Y-105433287D01*
X207583300Y-105500369D01*
X207620222Y-105561009D01*
X207624500Y-105593562D01*
X207624500Y-111374000D01*
X207604498Y-111442121D01*
X207550842Y-111488614D01*
X207498500Y-111500000D01*
X193126000Y-111500000D01*
X193057879Y-111479998D01*
X193011386Y-111426342D01*
X193000000Y-111374000D01*
X193000000Y-99525000D01*
X200844396Y-99525000D01*
X200864779Y-99783994D01*
X200865933Y-99788801D01*
X200865934Y-99788807D01*
X200899324Y-99927883D01*
X200925427Y-100036610D01*
X200927320Y-100041181D01*
X200927321Y-100041183D01*
X200958301Y-100115974D01*
X201024846Y-100276628D01*
X201160588Y-100498140D01*
X201329311Y-100695689D01*
X201526860Y-100864412D01*
X201748372Y-101000154D01*
X201752942Y-101002047D01*
X201752946Y-101002049D01*
X201983817Y-101097679D01*
X201988390Y-101099573D01*
X202039315Y-101111799D01*
X202236193Y-101159066D01*
X202236199Y-101159067D01*
X202241006Y-101160221D01*
X202500000Y-101180604D01*
X202758994Y-101160221D01*
X202763801Y-101159067D01*
X202763807Y-101159066D01*
X202960685Y-101111799D01*
X203011610Y-101099573D01*
X203016183Y-101097679D01*
X203247054Y-101002049D01*
X203247058Y-101002047D01*
X203251628Y-101000154D01*
X203473140Y-100864412D01*
X203670689Y-100695689D01*
X203839412Y-100498140D01*
X203975154Y-100276628D01*
X204041700Y-100115974D01*
X204072679Y-100041183D01*
X204072680Y-100041181D01*
X204074573Y-100036610D01*
X204100676Y-99927883D01*
X204134066Y-99788807D01*
X204134067Y-99788801D01*
X204135221Y-99783994D01*
X204155604Y-99525000D01*
X204135221Y-99266006D01*
X204134067Y-99261199D01*
X204134066Y-99261193D01*
X204075728Y-99018202D01*
X204074573Y-99013390D01*
X203975154Y-98773372D01*
X203839412Y-98551860D01*
X203670689Y-98354311D01*
X203473140Y-98185588D01*
X203251628Y-98049846D01*
X203247058Y-98047953D01*
X203247054Y-98047951D01*
X203016183Y-97952321D01*
X203016181Y-97952320D01*
X203011610Y-97950427D01*
X202899335Y-97923472D01*
X202763807Y-97890934D01*
X202763801Y-97890933D01*
X202758994Y-97889779D01*
X202500000Y-97869396D01*
X202241006Y-97889779D01*
X202236199Y-97890933D01*
X202236193Y-97890934D01*
X202100665Y-97923472D01*
X201988390Y-97950427D01*
X201983819Y-97952320D01*
X201983817Y-97952321D01*
X201752946Y-98047951D01*
X201752942Y-98047953D01*
X201748372Y-98049846D01*
X201526860Y-98185588D01*
X201329311Y-98354311D01*
X201160588Y-98551860D01*
X201024846Y-98773372D01*
X200925427Y-99013390D01*
X200924272Y-99018202D01*
X200865934Y-99261193D01*
X200865933Y-99261199D01*
X200864779Y-99266006D01*
X200844396Y-99525000D01*
X193000000Y-99525000D01*
X193000000Y-83025000D01*
X200844396Y-83025000D01*
X200864779Y-83283994D01*
X200865933Y-83288801D01*
X200865934Y-83288807D01*
X200899324Y-83427883D01*
X200925427Y-83536610D01*
X200927320Y-83541181D01*
X200927321Y-83541183D01*
X200958301Y-83615974D01*
X201024846Y-83776628D01*
X201160588Y-83998140D01*
X201329311Y-84195689D01*
X201526860Y-84364412D01*
X201748372Y-84500154D01*
X201752942Y-84502047D01*
X201752946Y-84502049D01*
X201983817Y-84597679D01*
X201988390Y-84599573D01*
X202039315Y-84611799D01*
X202236193Y-84659066D01*
X202236199Y-84659067D01*
X202241006Y-84660221D01*
X202500000Y-84680604D01*
X202758994Y-84660221D01*
X202763801Y-84659067D01*
X202763807Y-84659066D01*
X202960685Y-84611799D01*
X203011610Y-84599573D01*
X203016183Y-84597679D01*
X203247054Y-84502049D01*
X203247058Y-84502047D01*
X203251628Y-84500154D01*
X203473140Y-84364412D01*
X203670689Y-84195689D01*
X203839412Y-83998140D01*
X203975154Y-83776628D01*
X204041700Y-83615974D01*
X204072679Y-83541183D01*
X204072680Y-83541181D01*
X204074573Y-83536610D01*
X204100676Y-83427883D01*
X204134066Y-83288807D01*
X204134067Y-83288801D01*
X204135221Y-83283994D01*
X204155604Y-83025000D01*
X204135221Y-82766006D01*
X204134067Y-82761199D01*
X204134066Y-82761193D01*
X204075728Y-82518202D01*
X204074573Y-82513390D01*
X203975154Y-82273372D01*
X203839412Y-82051860D01*
X203670689Y-81854311D01*
X203473140Y-81685588D01*
X203251628Y-81549846D01*
X203247058Y-81547953D01*
X203247054Y-81547951D01*
X203016183Y-81452321D01*
X203016181Y-81452320D01*
X203011610Y-81450427D01*
X202899335Y-81423472D01*
X202763807Y-81390934D01*
X202763801Y-81390933D01*
X202758994Y-81389779D01*
X202500000Y-81369396D01*
X202241006Y-81389779D01*
X202236199Y-81390933D01*
X202236193Y-81390934D01*
X202100665Y-81423472D01*
X201988390Y-81450427D01*
X201983819Y-81452320D01*
X201983817Y-81452321D01*
X201752946Y-81547951D01*
X201752942Y-81547953D01*
X201748372Y-81549846D01*
X201526860Y-81685588D01*
X201329311Y-81854311D01*
X201160588Y-82051860D01*
X201024846Y-82273372D01*
X200925427Y-82513390D01*
X200924272Y-82518202D01*
X200865934Y-82761193D01*
X200865933Y-82761199D01*
X200864779Y-82766006D01*
X200844396Y-83025000D01*
X193000000Y-83025000D01*
X193000000Y-71107165D01*
X225247866Y-71107165D01*
X225282952Y-71364970D01*
X225355758Y-71614757D01*
X225464686Y-71851039D01*
X225467246Y-71854944D01*
X225467249Y-71854949D01*
X225604775Y-72064712D01*
X225604779Y-72064717D01*
X225607341Y-72068625D01*
X225780591Y-72262735D01*
X225980629Y-72429105D01*
X226203061Y-72564080D01*
X226207375Y-72565889D01*
X226207377Y-72565890D01*
X226438686Y-72662886D01*
X226438691Y-72662888D01*
X226443001Y-72664695D01*
X226447533Y-72665846D01*
X226447536Y-72665847D01*
X226572815Y-72697663D01*
X226695177Y-72728739D01*
X226911286Y-72750500D01*
X227066044Y-72750500D01*
X227068369Y-72750327D01*
X227068375Y-72750327D01*
X227254814Y-72736472D01*
X227254818Y-72736471D01*
X227259466Y-72736126D01*
X227513232Y-72678705D01*
X227517586Y-72677012D01*
X227751370Y-72586098D01*
X227751372Y-72586097D01*
X227755723Y-72584405D01*
X227791285Y-72564080D01*
X227839038Y-72536786D01*
X227981612Y-72455299D01*
X228185936Y-72294223D01*
X228364208Y-72104714D01*
X228512511Y-71890937D01*
X228530258Y-71854949D01*
X228625521Y-71661775D01*
X228625522Y-71661772D01*
X228627586Y-71657587D01*
X228706906Y-71409792D01*
X228748728Y-71152994D01*
X228752134Y-70892835D01*
X228717048Y-70635030D01*
X228644242Y-70385243D01*
X228535314Y-70148961D01*
X228502359Y-70098696D01*
X228395225Y-69935288D01*
X228395221Y-69935283D01*
X228392659Y-69931375D01*
X228306034Y-69834320D01*
X228222526Y-69740757D01*
X228222524Y-69740755D01*
X228219409Y-69737265D01*
X228019371Y-69570895D01*
X227796939Y-69435920D01*
X227792623Y-69434110D01*
X227561314Y-69337114D01*
X227561309Y-69337112D01*
X227556999Y-69335305D01*
X227552467Y-69334154D01*
X227552464Y-69334153D01*
X227427185Y-69302337D01*
X227304823Y-69271261D01*
X227088714Y-69249500D01*
X226933956Y-69249500D01*
X226931631Y-69249673D01*
X226931625Y-69249673D01*
X226745186Y-69263528D01*
X226745182Y-69263529D01*
X226740534Y-69263874D01*
X226486768Y-69321295D01*
X226482416Y-69322987D01*
X226482414Y-69322988D01*
X226248630Y-69413902D01*
X226248628Y-69413903D01*
X226244277Y-69415595D01*
X226240223Y-69417912D01*
X226240221Y-69417913D01*
X226204467Y-69438348D01*
X226018388Y-69544701D01*
X225814064Y-69705777D01*
X225635792Y-69895286D01*
X225487489Y-70109063D01*
X225485423Y-70113253D01*
X225485421Y-70113256D01*
X225465720Y-70153207D01*
X225372414Y-70342413D01*
X225370992Y-70346856D01*
X225370991Y-70346858D01*
X225358704Y-70385243D01*
X225293094Y-70590208D01*
X225251272Y-70847006D01*
X225247866Y-71107165D01*
X193000000Y-71107165D01*
X193000000Y-68376500D01*
X193020002Y-68308379D01*
X193073658Y-68261886D01*
X193126000Y-68250500D01*
X226962915Y-68250500D01*
X226987496Y-68252921D01*
G37*
G04 #@! TD.AperFunction*
M02*
