%TF.GenerationSoftware,KiCad,Pcbnew,8.0.1*%
%TF.CreationDate,2024-11-23T23:09:25-06:00*%
%TF.ProjectId,ContactorDriver,436f6e74-6163-4746-9f72-447269766572,rev?*%
%TF.SameCoordinates,Original*%
%TF.FileFunction,Legend,Top*%
%TF.FilePolarity,Positive*%
%FSLAX46Y46*%
G04 Gerber Fmt 4.6, Leading zero omitted, Abs format (unit mm)*
G04 Created by KiCad (PCBNEW 8.0.1) date 2024-11-23 23:09:25*
%MOMM*%
%LPD*%
G01*
G04 APERTURE LIST*
G04 Aperture macros list*
%AMRoundRect*
0 Rectangle with rounded corners*
0 $1 Rounding radius*
0 $2 $3 $4 $5 $6 $7 $8 $9 X,Y pos of 4 corners*
0 Add a 4 corners polygon primitive as box body*
4,1,4,$2,$3,$4,$5,$6,$7,$8,$9,$2,$3,0*
0 Add four circle primitives for the rounded corners*
1,1,$1+$1,$2,$3*
1,1,$1+$1,$4,$5*
1,1,$1+$1,$6,$7*
1,1,$1+$1,$8,$9*
0 Add four rect primitives between the rounded corners*
20,1,$1+$1,$2,$3,$4,$5,0*
20,1,$1+$1,$4,$5,$6,$7,0*
20,1,$1+$1,$6,$7,$8,$9,0*
20,1,$1+$1,$8,$9,$2,$3,0*%
G04 Aperture macros list end*
%ADD10C,0.150000*%
%ADD11C,0.200000*%
%ADD12C,0.250000*%
%ADD13C,0.254000*%
%ADD14C,0.120000*%
%ADD15C,0.100000*%
%ADD16RoundRect,0.150000X-0.587500X-0.150000X0.587500X-0.150000X0.587500X0.150000X-0.587500X0.150000X0*%
%ADD17C,3.000000*%
%ADD18RoundRect,0.250000X-0.262500X-0.450000X0.262500X-0.450000X0.262500X0.450000X-0.262500X0.450000X0*%
%ADD19R,1.200000X1.520000*%
%ADD20RoundRect,0.250000X0.350000X0.450000X-0.350000X0.450000X-0.350000X-0.450000X0.350000X-0.450000X0*%
%ADD21C,2.800000*%
%ADD22C,1.270000*%
%ADD23C,1.700000*%
%ADD24RoundRect,0.250000X-0.325000X-0.450000X0.325000X-0.450000X0.325000X0.450000X-0.325000X0.450000X0*%
%ADD25RoundRect,0.150000X0.662500X0.150000X-0.662500X0.150000X-0.662500X-0.150000X0.662500X-0.150000X0*%
%ADD26RoundRect,0.250000X-0.250000X-0.475000X0.250000X-0.475000X0.250000X0.475000X-0.250000X0.475000X0*%
%ADD27RoundRect,0.150000X0.150000X-0.587500X0.150000X0.587500X-0.150000X0.587500X-0.150000X-0.587500X0*%
%ADD28RoundRect,0.250001X0.499999X0.759999X-0.499999X0.759999X-0.499999X-0.759999X0.499999X-0.759999X0*%
%ADD29O,1.500000X2.020000*%
%ADD30RoundRect,0.250000X-0.450000X0.350000X-0.450000X-0.350000X0.450000X-0.350000X0.450000X0.350000X0*%
%ADD31R,0.910000X1.220000*%
%ADD32RoundRect,0.250000X0.262500X0.450000X-0.262500X0.450000X-0.262500X-0.450000X0.262500X-0.450000X0*%
%ADD33RoundRect,0.250001X-0.499999X-0.759999X0.499999X-0.759999X0.499999X0.759999X-0.499999X0.759999X0*%
%ADD34RoundRect,0.250000X0.450000X-0.350000X0.450000X0.350000X-0.450000X0.350000X-0.450000X-0.350000X0*%
%ADD35RoundRect,0.112500X0.112500X-0.187500X0.112500X0.187500X-0.112500X0.187500X-0.112500X-0.187500X0*%
%ADD36RoundRect,0.250000X0.325000X0.450000X-0.325000X0.450000X-0.325000X-0.450000X0.325000X-0.450000X0*%
G04 APERTURE END LIST*
D10*
X134963112Y-142969009D02*
X134629779Y-142969009D01*
X134629779Y-143492819D02*
X134629779Y-142492819D01*
X134629779Y-142492819D02*
X135105969Y-142492819D01*
X135439303Y-143207104D02*
X135915493Y-143207104D01*
X135344065Y-143492819D02*
X135677398Y-142492819D01*
X135677398Y-142492819D02*
X136010731Y-143492819D01*
X136344065Y-143492819D02*
X136344065Y-142492819D01*
X136344065Y-142492819D02*
X136915493Y-143492819D01*
X136915493Y-143492819D02*
X136915493Y-142492819D01*
X137153589Y-143588057D02*
X137915493Y-143588057D01*
X138105970Y-143207104D02*
X138582160Y-143207104D01*
X138010732Y-143492819D02*
X138344065Y-142492819D01*
X138344065Y-142492819D02*
X138677398Y-143492819D01*
X154378207Y-119267580D02*
X154330588Y-119315200D01*
X154330588Y-119315200D02*
X154187731Y-119362819D01*
X154187731Y-119362819D02*
X154092493Y-119362819D01*
X154092493Y-119362819D02*
X153949636Y-119315200D01*
X153949636Y-119315200D02*
X153854398Y-119219961D01*
X153854398Y-119219961D02*
X153806779Y-119124723D01*
X153806779Y-119124723D02*
X153759160Y-118934247D01*
X153759160Y-118934247D02*
X153759160Y-118791390D01*
X153759160Y-118791390D02*
X153806779Y-118600914D01*
X153806779Y-118600914D02*
X153854398Y-118505676D01*
X153854398Y-118505676D02*
X153949636Y-118410438D01*
X153949636Y-118410438D02*
X154092493Y-118362819D01*
X154092493Y-118362819D02*
X154187731Y-118362819D01*
X154187731Y-118362819D02*
X154330588Y-118410438D01*
X154330588Y-118410438D02*
X154378207Y-118458057D01*
X154806779Y-119362819D02*
X154806779Y-118362819D01*
X154806779Y-118362819D02*
X155378207Y-119362819D01*
X155378207Y-119362819D02*
X155378207Y-118362819D01*
X155711541Y-118362819D02*
X156282969Y-118362819D01*
X155997255Y-119362819D02*
X155997255Y-118362819D01*
X157187731Y-119267580D02*
X157140112Y-119315200D01*
X157140112Y-119315200D02*
X156997255Y-119362819D01*
X156997255Y-119362819D02*
X156902017Y-119362819D01*
X156902017Y-119362819D02*
X156759160Y-119315200D01*
X156759160Y-119315200D02*
X156663922Y-119219961D01*
X156663922Y-119219961D02*
X156616303Y-119124723D01*
X156616303Y-119124723D02*
X156568684Y-118934247D01*
X156568684Y-118934247D02*
X156568684Y-118791390D01*
X156568684Y-118791390D02*
X156616303Y-118600914D01*
X156616303Y-118600914D02*
X156663922Y-118505676D01*
X156663922Y-118505676D02*
X156759160Y-118410438D01*
X156759160Y-118410438D02*
X156902017Y-118362819D01*
X156902017Y-118362819D02*
X156997255Y-118362819D01*
X156997255Y-118362819D02*
X157140112Y-118410438D01*
X157140112Y-118410438D02*
X157187731Y-118458057D01*
X157473446Y-118362819D02*
X158044874Y-118362819D01*
X157759160Y-119362819D02*
X157759160Y-118362819D01*
X158949636Y-119362819D02*
X158616303Y-118886628D01*
X158378208Y-119362819D02*
X158378208Y-118362819D01*
X158378208Y-118362819D02*
X158759160Y-118362819D01*
X158759160Y-118362819D02*
X158854398Y-118410438D01*
X158854398Y-118410438D02*
X158902017Y-118458057D01*
X158902017Y-118458057D02*
X158949636Y-118553295D01*
X158949636Y-118553295D02*
X158949636Y-118696152D01*
X158949636Y-118696152D02*
X158902017Y-118791390D01*
X158902017Y-118791390D02*
X158854398Y-118839009D01*
X158854398Y-118839009D02*
X158759160Y-118886628D01*
X158759160Y-118886628D02*
X158378208Y-118886628D01*
X159140113Y-119458057D02*
X159902017Y-119458057D01*
X160092494Y-119077104D02*
X160568684Y-119077104D01*
X159997256Y-119362819D02*
X160330589Y-118362819D01*
X160330589Y-118362819D02*
X160663922Y-119362819D01*
X120739160Y-118934200D02*
X120882017Y-118981819D01*
X120882017Y-118981819D02*
X121120112Y-118981819D01*
X121120112Y-118981819D02*
X121215350Y-118934200D01*
X121215350Y-118934200D02*
X121262969Y-118886580D01*
X121262969Y-118886580D02*
X121310588Y-118791342D01*
X121310588Y-118791342D02*
X121310588Y-118696104D01*
X121310588Y-118696104D02*
X121262969Y-118600866D01*
X121262969Y-118600866D02*
X121215350Y-118553247D01*
X121215350Y-118553247D02*
X121120112Y-118505628D01*
X121120112Y-118505628D02*
X120929636Y-118458009D01*
X120929636Y-118458009D02*
X120834398Y-118410390D01*
X120834398Y-118410390D02*
X120786779Y-118362771D01*
X120786779Y-118362771D02*
X120739160Y-118267533D01*
X120739160Y-118267533D02*
X120739160Y-118172295D01*
X120739160Y-118172295D02*
X120786779Y-118077057D01*
X120786779Y-118077057D02*
X120834398Y-118029438D01*
X120834398Y-118029438D02*
X120929636Y-117981819D01*
X120929636Y-117981819D02*
X121167731Y-117981819D01*
X121167731Y-117981819D02*
X121310588Y-118029438D01*
X121739160Y-118981819D02*
X121739160Y-117981819D01*
X122739159Y-118029438D02*
X122643921Y-117981819D01*
X122643921Y-117981819D02*
X122501064Y-117981819D01*
X122501064Y-117981819D02*
X122358207Y-118029438D01*
X122358207Y-118029438D02*
X122262969Y-118124676D01*
X122262969Y-118124676D02*
X122215350Y-118219914D01*
X122215350Y-118219914D02*
X122167731Y-118410390D01*
X122167731Y-118410390D02*
X122167731Y-118553247D01*
X122167731Y-118553247D02*
X122215350Y-118743723D01*
X122215350Y-118743723D02*
X122262969Y-118838961D01*
X122262969Y-118838961D02*
X122358207Y-118934200D01*
X122358207Y-118934200D02*
X122501064Y-118981819D01*
X122501064Y-118981819D02*
X122596302Y-118981819D01*
X122596302Y-118981819D02*
X122739159Y-118934200D01*
X122739159Y-118934200D02*
X122786778Y-118886580D01*
X122786778Y-118886580D02*
X122786778Y-118553247D01*
X122786778Y-118553247D02*
X122596302Y-118553247D01*
X123215350Y-118981819D02*
X123215350Y-117981819D01*
X123215350Y-117981819D02*
X123786778Y-118981819D01*
X123786778Y-118981819D02*
X123786778Y-117981819D01*
X124215350Y-118696104D02*
X124691540Y-118696104D01*
X124120112Y-118981819D02*
X124453445Y-117981819D01*
X124453445Y-117981819D02*
X124786778Y-118981819D01*
X125596302Y-118981819D02*
X125120112Y-118981819D01*
X125120112Y-118981819D02*
X125120112Y-117981819D01*
X125691541Y-119077057D02*
X126453445Y-119077057D01*
X126691541Y-118981819D02*
X126691541Y-117981819D01*
X127167731Y-118981819D02*
X127167731Y-117981819D01*
X127167731Y-117981819D02*
X127739159Y-118981819D01*
X127739159Y-118981819D02*
X127739159Y-117981819D01*
X127977255Y-119077057D02*
X128739159Y-119077057D01*
X128929636Y-118696104D02*
X129405826Y-118696104D01*
X128834398Y-118981819D02*
X129167731Y-117981819D01*
X129167731Y-117981819D02*
X129501064Y-118981819D01*
X154775112Y-135730009D02*
X154441779Y-135730009D01*
X154441779Y-136253819D02*
X154441779Y-135253819D01*
X154441779Y-135253819D02*
X154917969Y-135253819D01*
X155251303Y-135968104D02*
X155727493Y-135968104D01*
X155156065Y-136253819D02*
X155489398Y-135253819D01*
X155489398Y-135253819D02*
X155822731Y-136253819D01*
X156156065Y-136253819D02*
X156156065Y-135253819D01*
X156156065Y-135253819D02*
X156727493Y-136253819D01*
X156727493Y-136253819D02*
X156727493Y-135253819D01*
X156965589Y-136349057D02*
X157727493Y-136349057D01*
X158298922Y-135730009D02*
X158441779Y-135777628D01*
X158441779Y-135777628D02*
X158489398Y-135825247D01*
X158489398Y-135825247D02*
X158537017Y-135920485D01*
X158537017Y-135920485D02*
X158537017Y-136063342D01*
X158537017Y-136063342D02*
X158489398Y-136158580D01*
X158489398Y-136158580D02*
X158441779Y-136206200D01*
X158441779Y-136206200D02*
X158346541Y-136253819D01*
X158346541Y-136253819D02*
X157965589Y-136253819D01*
X157965589Y-136253819D02*
X157965589Y-135253819D01*
X157965589Y-135253819D02*
X158298922Y-135253819D01*
X158298922Y-135253819D02*
X158394160Y-135301438D01*
X158394160Y-135301438D02*
X158441779Y-135349057D01*
X158441779Y-135349057D02*
X158489398Y-135444295D01*
X158489398Y-135444295D02*
X158489398Y-135539533D01*
X158489398Y-135539533D02*
X158441779Y-135634771D01*
X158441779Y-135634771D02*
X158394160Y-135682390D01*
X158394160Y-135682390D02*
X158298922Y-135730009D01*
X158298922Y-135730009D02*
X157965589Y-135730009D01*
D11*
X152458482Y-88339838D02*
X152363244Y-88292219D01*
X152363244Y-88292219D02*
X152220387Y-88292219D01*
X152220387Y-88292219D02*
X152077530Y-88339838D01*
X152077530Y-88339838D02*
X151982292Y-88435076D01*
X151982292Y-88435076D02*
X151934673Y-88530314D01*
X151934673Y-88530314D02*
X151887054Y-88720790D01*
X151887054Y-88720790D02*
X151887054Y-88863647D01*
X151887054Y-88863647D02*
X151934673Y-89054123D01*
X151934673Y-89054123D02*
X151982292Y-89149361D01*
X151982292Y-89149361D02*
X152077530Y-89244600D01*
X152077530Y-89244600D02*
X152220387Y-89292219D01*
X152220387Y-89292219D02*
X152315625Y-89292219D01*
X152315625Y-89292219D02*
X152458482Y-89244600D01*
X152458482Y-89244600D02*
X152506101Y-89196980D01*
X152506101Y-89196980D02*
X152506101Y-88863647D01*
X152506101Y-88863647D02*
X152315625Y-88863647D01*
X152934673Y-89292219D02*
X152934673Y-88292219D01*
X152934673Y-88292219D02*
X153506101Y-89292219D01*
X153506101Y-89292219D02*
X153506101Y-88292219D01*
X153982292Y-89292219D02*
X153982292Y-88292219D01*
X153982292Y-88292219D02*
X154220387Y-88292219D01*
X154220387Y-88292219D02*
X154363244Y-88339838D01*
X154363244Y-88339838D02*
X154458482Y-88435076D01*
X154458482Y-88435076D02*
X154506101Y-88530314D01*
X154506101Y-88530314D02*
X154553720Y-88720790D01*
X154553720Y-88720790D02*
X154553720Y-88863647D01*
X154553720Y-88863647D02*
X154506101Y-89054123D01*
X154506101Y-89054123D02*
X154458482Y-89149361D01*
X154458482Y-89149361D02*
X154363244Y-89244600D01*
X154363244Y-89244600D02*
X154220387Y-89292219D01*
X154220387Y-89292219D02*
X153982292Y-89292219D01*
D10*
X146647112Y-142969009D02*
X146313779Y-142969009D01*
X146313779Y-143492819D02*
X146313779Y-142492819D01*
X146313779Y-142492819D02*
X146789969Y-142492819D01*
X147123303Y-143207104D02*
X147599493Y-143207104D01*
X147028065Y-143492819D02*
X147361398Y-142492819D01*
X147361398Y-142492819D02*
X147694731Y-143492819D01*
X148028065Y-143492819D02*
X148028065Y-142492819D01*
X148028065Y-142492819D02*
X148599493Y-143492819D01*
X148599493Y-143492819D02*
X148599493Y-142492819D01*
X148837589Y-143588057D02*
X149599493Y-143588057D01*
X150170922Y-142969009D02*
X150313779Y-143016628D01*
X150313779Y-143016628D02*
X150361398Y-143064247D01*
X150361398Y-143064247D02*
X150409017Y-143159485D01*
X150409017Y-143159485D02*
X150409017Y-143302342D01*
X150409017Y-143302342D02*
X150361398Y-143397580D01*
X150361398Y-143397580D02*
X150313779Y-143445200D01*
X150313779Y-143445200D02*
X150218541Y-143492819D01*
X150218541Y-143492819D02*
X149837589Y-143492819D01*
X149837589Y-143492819D02*
X149837589Y-142492819D01*
X149837589Y-142492819D02*
X150170922Y-142492819D01*
X150170922Y-142492819D02*
X150266160Y-142540438D01*
X150266160Y-142540438D02*
X150313779Y-142588057D01*
X150313779Y-142588057D02*
X150361398Y-142683295D01*
X150361398Y-142683295D02*
X150361398Y-142778533D01*
X150361398Y-142778533D02*
X150313779Y-142873771D01*
X150313779Y-142873771D02*
X150266160Y-142921390D01*
X150266160Y-142921390D02*
X150170922Y-142969009D01*
X150170922Y-142969009D02*
X149837589Y-142969009D01*
X154505207Y-93867580D02*
X154457588Y-93915200D01*
X154457588Y-93915200D02*
X154314731Y-93962819D01*
X154314731Y-93962819D02*
X154219493Y-93962819D01*
X154219493Y-93962819D02*
X154076636Y-93915200D01*
X154076636Y-93915200D02*
X153981398Y-93819961D01*
X153981398Y-93819961D02*
X153933779Y-93724723D01*
X153933779Y-93724723D02*
X153886160Y-93534247D01*
X153886160Y-93534247D02*
X153886160Y-93391390D01*
X153886160Y-93391390D02*
X153933779Y-93200914D01*
X153933779Y-93200914D02*
X153981398Y-93105676D01*
X153981398Y-93105676D02*
X154076636Y-93010438D01*
X154076636Y-93010438D02*
X154219493Y-92962819D01*
X154219493Y-92962819D02*
X154314731Y-92962819D01*
X154314731Y-92962819D02*
X154457588Y-93010438D01*
X154457588Y-93010438D02*
X154505207Y-93058057D01*
X154933779Y-93962819D02*
X154933779Y-92962819D01*
X154933779Y-92962819D02*
X155505207Y-93962819D01*
X155505207Y-93962819D02*
X155505207Y-92962819D01*
X155838541Y-92962819D02*
X156409969Y-92962819D01*
X156124255Y-93962819D02*
X156124255Y-92962819D01*
X157314731Y-93867580D02*
X157267112Y-93915200D01*
X157267112Y-93915200D02*
X157124255Y-93962819D01*
X157124255Y-93962819D02*
X157029017Y-93962819D01*
X157029017Y-93962819D02*
X156886160Y-93915200D01*
X156886160Y-93915200D02*
X156790922Y-93819961D01*
X156790922Y-93819961D02*
X156743303Y-93724723D01*
X156743303Y-93724723D02*
X156695684Y-93534247D01*
X156695684Y-93534247D02*
X156695684Y-93391390D01*
X156695684Y-93391390D02*
X156743303Y-93200914D01*
X156743303Y-93200914D02*
X156790922Y-93105676D01*
X156790922Y-93105676D02*
X156886160Y-93010438D01*
X156886160Y-93010438D02*
X157029017Y-92962819D01*
X157029017Y-92962819D02*
X157124255Y-92962819D01*
X157124255Y-92962819D02*
X157267112Y-93010438D01*
X157267112Y-93010438D02*
X157314731Y-93058057D01*
X157600446Y-92962819D02*
X158171874Y-92962819D01*
X157886160Y-93962819D02*
X157886160Y-92962819D01*
X159076636Y-93962819D02*
X158743303Y-93486628D01*
X158505208Y-93962819D02*
X158505208Y-92962819D01*
X158505208Y-92962819D02*
X158886160Y-92962819D01*
X158886160Y-92962819D02*
X158981398Y-93010438D01*
X158981398Y-93010438D02*
X159029017Y-93058057D01*
X159029017Y-93058057D02*
X159076636Y-93153295D01*
X159076636Y-93153295D02*
X159076636Y-93296152D01*
X159076636Y-93296152D02*
X159029017Y-93391390D01*
X159029017Y-93391390D02*
X158981398Y-93439009D01*
X158981398Y-93439009D02*
X158886160Y-93486628D01*
X158886160Y-93486628D02*
X158505208Y-93486628D01*
X159267113Y-94058057D02*
X160029017Y-94058057D01*
X160838541Y-93867580D02*
X160790922Y-93915200D01*
X160790922Y-93915200D02*
X160648065Y-93962819D01*
X160648065Y-93962819D02*
X160552827Y-93962819D01*
X160552827Y-93962819D02*
X160409970Y-93915200D01*
X160409970Y-93915200D02*
X160314732Y-93819961D01*
X160314732Y-93819961D02*
X160267113Y-93724723D01*
X160267113Y-93724723D02*
X160219494Y-93534247D01*
X160219494Y-93534247D02*
X160219494Y-93391390D01*
X160219494Y-93391390D02*
X160267113Y-93200914D01*
X160267113Y-93200914D02*
X160314732Y-93105676D01*
X160314732Y-93105676D02*
X160409970Y-93010438D01*
X160409970Y-93010438D02*
X160552827Y-92962819D01*
X160552827Y-92962819D02*
X160648065Y-92962819D01*
X160648065Y-92962819D02*
X160790922Y-93010438D01*
X160790922Y-93010438D02*
X160838541Y-93058057D01*
X120739160Y-93788200D02*
X120882017Y-93835819D01*
X120882017Y-93835819D02*
X121120112Y-93835819D01*
X121120112Y-93835819D02*
X121215350Y-93788200D01*
X121215350Y-93788200D02*
X121262969Y-93740580D01*
X121262969Y-93740580D02*
X121310588Y-93645342D01*
X121310588Y-93645342D02*
X121310588Y-93550104D01*
X121310588Y-93550104D02*
X121262969Y-93454866D01*
X121262969Y-93454866D02*
X121215350Y-93407247D01*
X121215350Y-93407247D02*
X121120112Y-93359628D01*
X121120112Y-93359628D02*
X120929636Y-93312009D01*
X120929636Y-93312009D02*
X120834398Y-93264390D01*
X120834398Y-93264390D02*
X120786779Y-93216771D01*
X120786779Y-93216771D02*
X120739160Y-93121533D01*
X120739160Y-93121533D02*
X120739160Y-93026295D01*
X120739160Y-93026295D02*
X120786779Y-92931057D01*
X120786779Y-92931057D02*
X120834398Y-92883438D01*
X120834398Y-92883438D02*
X120929636Y-92835819D01*
X120929636Y-92835819D02*
X121167731Y-92835819D01*
X121167731Y-92835819D02*
X121310588Y-92883438D01*
X121739160Y-93835819D02*
X121739160Y-92835819D01*
X122739159Y-92883438D02*
X122643921Y-92835819D01*
X122643921Y-92835819D02*
X122501064Y-92835819D01*
X122501064Y-92835819D02*
X122358207Y-92883438D01*
X122358207Y-92883438D02*
X122262969Y-92978676D01*
X122262969Y-92978676D02*
X122215350Y-93073914D01*
X122215350Y-93073914D02*
X122167731Y-93264390D01*
X122167731Y-93264390D02*
X122167731Y-93407247D01*
X122167731Y-93407247D02*
X122215350Y-93597723D01*
X122215350Y-93597723D02*
X122262969Y-93692961D01*
X122262969Y-93692961D02*
X122358207Y-93788200D01*
X122358207Y-93788200D02*
X122501064Y-93835819D01*
X122501064Y-93835819D02*
X122596302Y-93835819D01*
X122596302Y-93835819D02*
X122739159Y-93788200D01*
X122739159Y-93788200D02*
X122786778Y-93740580D01*
X122786778Y-93740580D02*
X122786778Y-93407247D01*
X122786778Y-93407247D02*
X122596302Y-93407247D01*
X123215350Y-93835819D02*
X123215350Y-92835819D01*
X123215350Y-92835819D02*
X123786778Y-93835819D01*
X123786778Y-93835819D02*
X123786778Y-92835819D01*
X124215350Y-93550104D02*
X124691540Y-93550104D01*
X124120112Y-93835819D02*
X124453445Y-92835819D01*
X124453445Y-92835819D02*
X124786778Y-93835819D01*
X125596302Y-93835819D02*
X125120112Y-93835819D01*
X125120112Y-93835819D02*
X125120112Y-92835819D01*
X125691541Y-93931057D02*
X126453445Y-93931057D01*
X126691541Y-93835819D02*
X126691541Y-92835819D01*
X127167731Y-93835819D02*
X127167731Y-92835819D01*
X127167731Y-92835819D02*
X127739159Y-93835819D01*
X127739159Y-93835819D02*
X127739159Y-92835819D01*
X127977255Y-93931057D02*
X128739159Y-93931057D01*
X129548683Y-93740580D02*
X129501064Y-93788200D01*
X129501064Y-93788200D02*
X129358207Y-93835819D01*
X129358207Y-93835819D02*
X129262969Y-93835819D01*
X129262969Y-93835819D02*
X129120112Y-93788200D01*
X129120112Y-93788200D02*
X129024874Y-93692961D01*
X129024874Y-93692961D02*
X128977255Y-93597723D01*
X128977255Y-93597723D02*
X128929636Y-93407247D01*
X128929636Y-93407247D02*
X128929636Y-93264390D01*
X128929636Y-93264390D02*
X128977255Y-93073914D01*
X128977255Y-93073914D02*
X129024874Y-92978676D01*
X129024874Y-92978676D02*
X129120112Y-92883438D01*
X129120112Y-92883438D02*
X129262969Y-92835819D01*
X129262969Y-92835819D02*
X129358207Y-92835819D01*
X129358207Y-92835819D02*
X129501064Y-92883438D01*
X129501064Y-92883438D02*
X129548683Y-92931057D01*
X127343112Y-136238009D02*
X127009779Y-136238009D01*
X127009779Y-136761819D02*
X127009779Y-135761819D01*
X127009779Y-135761819D02*
X127485969Y-135761819D01*
X127819303Y-136476104D02*
X128295493Y-136476104D01*
X127724065Y-136761819D02*
X128057398Y-135761819D01*
X128057398Y-135761819D02*
X128390731Y-136761819D01*
X128724065Y-136761819D02*
X128724065Y-135761819D01*
X128724065Y-135761819D02*
X129295493Y-136761819D01*
X129295493Y-136761819D02*
X129295493Y-135761819D01*
X129533589Y-136857057D02*
X130295493Y-136857057D01*
X130485970Y-136476104D02*
X130962160Y-136476104D01*
X130390732Y-136761819D02*
X130724065Y-135761819D01*
X130724065Y-135761819D02*
X131057398Y-136761819D01*
X134553579Y-89771819D02*
X134553579Y-88771819D01*
X134553579Y-88771819D02*
X134934531Y-88771819D01*
X134934531Y-88771819D02*
X135029769Y-88819438D01*
X135029769Y-88819438D02*
X135077388Y-88867057D01*
X135077388Y-88867057D02*
X135125007Y-88962295D01*
X135125007Y-88962295D02*
X135125007Y-89105152D01*
X135125007Y-89105152D02*
X135077388Y-89200390D01*
X135077388Y-89200390D02*
X135029769Y-89248009D01*
X135029769Y-89248009D02*
X134934531Y-89295628D01*
X134934531Y-89295628D02*
X134553579Y-89295628D01*
X135458341Y-88771819D02*
X135696436Y-89771819D01*
X135696436Y-89771819D02*
X135886912Y-89057533D01*
X135886912Y-89057533D02*
X136077388Y-89771819D01*
X136077388Y-89771819D02*
X136315484Y-88771819D01*
X137267864Y-89771819D02*
X136934531Y-89295628D01*
X136696436Y-89771819D02*
X136696436Y-88771819D01*
X136696436Y-88771819D02*
X137077388Y-88771819D01*
X137077388Y-88771819D02*
X137172626Y-88819438D01*
X137172626Y-88819438D02*
X137220245Y-88867057D01*
X137220245Y-88867057D02*
X137267864Y-88962295D01*
X137267864Y-88962295D02*
X137267864Y-89105152D01*
X137267864Y-89105152D02*
X137220245Y-89200390D01*
X137220245Y-89200390D02*
X137172626Y-89248009D01*
X137172626Y-89248009D02*
X137077388Y-89295628D01*
X137077388Y-89295628D02*
X136696436Y-89295628D01*
X120739160Y-106361200D02*
X120882017Y-106408819D01*
X120882017Y-106408819D02*
X121120112Y-106408819D01*
X121120112Y-106408819D02*
X121215350Y-106361200D01*
X121215350Y-106361200D02*
X121262969Y-106313580D01*
X121262969Y-106313580D02*
X121310588Y-106218342D01*
X121310588Y-106218342D02*
X121310588Y-106123104D01*
X121310588Y-106123104D02*
X121262969Y-106027866D01*
X121262969Y-106027866D02*
X121215350Y-105980247D01*
X121215350Y-105980247D02*
X121120112Y-105932628D01*
X121120112Y-105932628D02*
X120929636Y-105885009D01*
X120929636Y-105885009D02*
X120834398Y-105837390D01*
X120834398Y-105837390D02*
X120786779Y-105789771D01*
X120786779Y-105789771D02*
X120739160Y-105694533D01*
X120739160Y-105694533D02*
X120739160Y-105599295D01*
X120739160Y-105599295D02*
X120786779Y-105504057D01*
X120786779Y-105504057D02*
X120834398Y-105456438D01*
X120834398Y-105456438D02*
X120929636Y-105408819D01*
X120929636Y-105408819D02*
X121167731Y-105408819D01*
X121167731Y-105408819D02*
X121310588Y-105456438D01*
X121739160Y-106408819D02*
X121739160Y-105408819D01*
X122739159Y-105456438D02*
X122643921Y-105408819D01*
X122643921Y-105408819D02*
X122501064Y-105408819D01*
X122501064Y-105408819D02*
X122358207Y-105456438D01*
X122358207Y-105456438D02*
X122262969Y-105551676D01*
X122262969Y-105551676D02*
X122215350Y-105646914D01*
X122215350Y-105646914D02*
X122167731Y-105837390D01*
X122167731Y-105837390D02*
X122167731Y-105980247D01*
X122167731Y-105980247D02*
X122215350Y-106170723D01*
X122215350Y-106170723D02*
X122262969Y-106265961D01*
X122262969Y-106265961D02*
X122358207Y-106361200D01*
X122358207Y-106361200D02*
X122501064Y-106408819D01*
X122501064Y-106408819D02*
X122596302Y-106408819D01*
X122596302Y-106408819D02*
X122739159Y-106361200D01*
X122739159Y-106361200D02*
X122786778Y-106313580D01*
X122786778Y-106313580D02*
X122786778Y-105980247D01*
X122786778Y-105980247D02*
X122596302Y-105980247D01*
X123215350Y-106408819D02*
X123215350Y-105408819D01*
X123215350Y-105408819D02*
X123786778Y-106408819D01*
X123786778Y-106408819D02*
X123786778Y-105408819D01*
X124215350Y-106123104D02*
X124691540Y-106123104D01*
X124120112Y-106408819D02*
X124453445Y-105408819D01*
X124453445Y-105408819D02*
X124786778Y-106408819D01*
X125596302Y-106408819D02*
X125120112Y-106408819D01*
X125120112Y-106408819D02*
X125120112Y-105408819D01*
X125691541Y-106504057D02*
X126453445Y-106504057D01*
X126691541Y-106408819D02*
X126691541Y-105408819D01*
X127167731Y-106408819D02*
X127167731Y-105408819D01*
X127167731Y-105408819D02*
X127739159Y-106408819D01*
X127739159Y-106408819D02*
X127739159Y-105408819D01*
X127977255Y-106504057D02*
X128739159Y-106504057D01*
X129310588Y-105885009D02*
X129453445Y-105932628D01*
X129453445Y-105932628D02*
X129501064Y-105980247D01*
X129501064Y-105980247D02*
X129548683Y-106075485D01*
X129548683Y-106075485D02*
X129548683Y-106218342D01*
X129548683Y-106218342D02*
X129501064Y-106313580D01*
X129501064Y-106313580D02*
X129453445Y-106361200D01*
X129453445Y-106361200D02*
X129358207Y-106408819D01*
X129358207Y-106408819D02*
X128977255Y-106408819D01*
X128977255Y-106408819D02*
X128977255Y-105408819D01*
X128977255Y-105408819D02*
X129310588Y-105408819D01*
X129310588Y-105408819D02*
X129405826Y-105456438D01*
X129405826Y-105456438D02*
X129453445Y-105504057D01*
X129453445Y-105504057D02*
X129501064Y-105599295D01*
X129501064Y-105599295D02*
X129501064Y-105694533D01*
X129501064Y-105694533D02*
X129453445Y-105789771D01*
X129453445Y-105789771D02*
X129405826Y-105837390D01*
X129405826Y-105837390D02*
X129310588Y-105885009D01*
X129310588Y-105885009D02*
X128977255Y-105885009D01*
X130438779Y-90025819D02*
X130438779Y-89025819D01*
X130438779Y-89025819D02*
X130819731Y-89025819D01*
X130819731Y-89025819D02*
X130914969Y-89073438D01*
X130914969Y-89073438D02*
X130962588Y-89121057D01*
X130962588Y-89121057D02*
X131010207Y-89216295D01*
X131010207Y-89216295D02*
X131010207Y-89359152D01*
X131010207Y-89359152D02*
X130962588Y-89454390D01*
X130962588Y-89454390D02*
X130914969Y-89502009D01*
X130914969Y-89502009D02*
X130819731Y-89549628D01*
X130819731Y-89549628D02*
X130438779Y-89549628D01*
X131343541Y-89025819D02*
X131581636Y-90025819D01*
X131581636Y-90025819D02*
X131772112Y-89311533D01*
X131772112Y-89311533D02*
X131962588Y-90025819D01*
X131962588Y-90025819D02*
X132200684Y-89025819D01*
X133153064Y-90025819D02*
X132819731Y-89549628D01*
X132581636Y-90025819D02*
X132581636Y-89025819D01*
X132581636Y-89025819D02*
X132962588Y-89025819D01*
X132962588Y-89025819D02*
X133057826Y-89073438D01*
X133057826Y-89073438D02*
X133105445Y-89121057D01*
X133105445Y-89121057D02*
X133153064Y-89216295D01*
X133153064Y-89216295D02*
X133153064Y-89359152D01*
X133153064Y-89359152D02*
X133105445Y-89454390D01*
X133105445Y-89454390D02*
X133057826Y-89502009D01*
X133057826Y-89502009D02*
X132962588Y-89549628D01*
X132962588Y-89549628D02*
X132581636Y-89549628D01*
D11*
X145968482Y-89292219D02*
X145397054Y-89292219D01*
X145682768Y-89292219D02*
X145682768Y-88292219D01*
X145682768Y-88292219D02*
X145587530Y-88435076D01*
X145587530Y-88435076D02*
X145492292Y-88530314D01*
X145492292Y-88530314D02*
X145397054Y-88577933D01*
X146349435Y-88387457D02*
X146397054Y-88339838D01*
X146397054Y-88339838D02*
X146492292Y-88292219D01*
X146492292Y-88292219D02*
X146730387Y-88292219D01*
X146730387Y-88292219D02*
X146825625Y-88339838D01*
X146825625Y-88339838D02*
X146873244Y-88387457D01*
X146873244Y-88387457D02*
X146920863Y-88482695D01*
X146920863Y-88482695D02*
X146920863Y-88577933D01*
X146920863Y-88577933D02*
X146873244Y-88720790D01*
X146873244Y-88720790D02*
X146301816Y-89292219D01*
X146301816Y-89292219D02*
X146920863Y-89292219D01*
X147206578Y-88292219D02*
X147539911Y-89292219D01*
X147539911Y-89292219D02*
X147873244Y-88292219D01*
X148968483Y-89292219D02*
X148968483Y-88292219D01*
X149444673Y-89292219D02*
X149444673Y-88292219D01*
X149444673Y-88292219D02*
X150016101Y-89292219D01*
X150016101Y-89292219D02*
X150016101Y-88292219D01*
D10*
X154632207Y-106440580D02*
X154584588Y-106488200D01*
X154584588Y-106488200D02*
X154441731Y-106535819D01*
X154441731Y-106535819D02*
X154346493Y-106535819D01*
X154346493Y-106535819D02*
X154203636Y-106488200D01*
X154203636Y-106488200D02*
X154108398Y-106392961D01*
X154108398Y-106392961D02*
X154060779Y-106297723D01*
X154060779Y-106297723D02*
X154013160Y-106107247D01*
X154013160Y-106107247D02*
X154013160Y-105964390D01*
X154013160Y-105964390D02*
X154060779Y-105773914D01*
X154060779Y-105773914D02*
X154108398Y-105678676D01*
X154108398Y-105678676D02*
X154203636Y-105583438D01*
X154203636Y-105583438D02*
X154346493Y-105535819D01*
X154346493Y-105535819D02*
X154441731Y-105535819D01*
X154441731Y-105535819D02*
X154584588Y-105583438D01*
X154584588Y-105583438D02*
X154632207Y-105631057D01*
X155060779Y-106535819D02*
X155060779Y-105535819D01*
X155060779Y-105535819D02*
X155632207Y-106535819D01*
X155632207Y-106535819D02*
X155632207Y-105535819D01*
X155965541Y-105535819D02*
X156536969Y-105535819D01*
X156251255Y-106535819D02*
X156251255Y-105535819D01*
X157441731Y-106440580D02*
X157394112Y-106488200D01*
X157394112Y-106488200D02*
X157251255Y-106535819D01*
X157251255Y-106535819D02*
X157156017Y-106535819D01*
X157156017Y-106535819D02*
X157013160Y-106488200D01*
X157013160Y-106488200D02*
X156917922Y-106392961D01*
X156917922Y-106392961D02*
X156870303Y-106297723D01*
X156870303Y-106297723D02*
X156822684Y-106107247D01*
X156822684Y-106107247D02*
X156822684Y-105964390D01*
X156822684Y-105964390D02*
X156870303Y-105773914D01*
X156870303Y-105773914D02*
X156917922Y-105678676D01*
X156917922Y-105678676D02*
X157013160Y-105583438D01*
X157013160Y-105583438D02*
X157156017Y-105535819D01*
X157156017Y-105535819D02*
X157251255Y-105535819D01*
X157251255Y-105535819D02*
X157394112Y-105583438D01*
X157394112Y-105583438D02*
X157441731Y-105631057D01*
X157727446Y-105535819D02*
X158298874Y-105535819D01*
X158013160Y-106535819D02*
X158013160Y-105535819D01*
X159203636Y-106535819D02*
X158870303Y-106059628D01*
X158632208Y-106535819D02*
X158632208Y-105535819D01*
X158632208Y-105535819D02*
X159013160Y-105535819D01*
X159013160Y-105535819D02*
X159108398Y-105583438D01*
X159108398Y-105583438D02*
X159156017Y-105631057D01*
X159156017Y-105631057D02*
X159203636Y-105726295D01*
X159203636Y-105726295D02*
X159203636Y-105869152D01*
X159203636Y-105869152D02*
X159156017Y-105964390D01*
X159156017Y-105964390D02*
X159108398Y-106012009D01*
X159108398Y-106012009D02*
X159013160Y-106059628D01*
X159013160Y-106059628D02*
X158632208Y-106059628D01*
X159394113Y-106631057D02*
X160156017Y-106631057D01*
X160727446Y-106012009D02*
X160870303Y-106059628D01*
X160870303Y-106059628D02*
X160917922Y-106107247D01*
X160917922Y-106107247D02*
X160965541Y-106202485D01*
X160965541Y-106202485D02*
X160965541Y-106345342D01*
X160965541Y-106345342D02*
X160917922Y-106440580D01*
X160917922Y-106440580D02*
X160870303Y-106488200D01*
X160870303Y-106488200D02*
X160775065Y-106535819D01*
X160775065Y-106535819D02*
X160394113Y-106535819D01*
X160394113Y-106535819D02*
X160394113Y-105535819D01*
X160394113Y-105535819D02*
X160727446Y-105535819D01*
X160727446Y-105535819D02*
X160822684Y-105583438D01*
X160822684Y-105583438D02*
X160870303Y-105631057D01*
X160870303Y-105631057D02*
X160917922Y-105726295D01*
X160917922Y-105726295D02*
X160917922Y-105821533D01*
X160917922Y-105821533D02*
X160870303Y-105916771D01*
X160870303Y-105916771D02*
X160822684Y-105964390D01*
X160822684Y-105964390D02*
X160727446Y-106012009D01*
X160727446Y-106012009D02*
X160394113Y-106012009D01*
X144304761Y-107600057D02*
X144209523Y-107552438D01*
X144209523Y-107552438D02*
X144114285Y-107457200D01*
X144114285Y-107457200D02*
X143971428Y-107314342D01*
X143971428Y-107314342D02*
X143876190Y-107266723D01*
X143876190Y-107266723D02*
X143780952Y-107266723D01*
X143828571Y-107504819D02*
X143733333Y-107457200D01*
X143733333Y-107457200D02*
X143638095Y-107361961D01*
X143638095Y-107361961D02*
X143590476Y-107171485D01*
X143590476Y-107171485D02*
X143590476Y-106838152D01*
X143590476Y-106838152D02*
X143638095Y-106647676D01*
X143638095Y-106647676D02*
X143733333Y-106552438D01*
X143733333Y-106552438D02*
X143828571Y-106504819D01*
X143828571Y-106504819D02*
X144019047Y-106504819D01*
X144019047Y-106504819D02*
X144114285Y-106552438D01*
X144114285Y-106552438D02*
X144209523Y-106647676D01*
X144209523Y-106647676D02*
X144257142Y-106838152D01*
X144257142Y-106838152D02*
X144257142Y-107171485D01*
X144257142Y-107171485D02*
X144209523Y-107361961D01*
X144209523Y-107361961D02*
X144114285Y-107457200D01*
X144114285Y-107457200D02*
X144019047Y-107504819D01*
X144019047Y-107504819D02*
X143828571Y-107504819D01*
X144638095Y-106600057D02*
X144685714Y-106552438D01*
X144685714Y-106552438D02*
X144780952Y-106504819D01*
X144780952Y-106504819D02*
X145019047Y-106504819D01*
X145019047Y-106504819D02*
X145114285Y-106552438D01*
X145114285Y-106552438D02*
X145161904Y-106600057D01*
X145161904Y-106600057D02*
X145209523Y-106695295D01*
X145209523Y-106695295D02*
X145209523Y-106790533D01*
X145209523Y-106790533D02*
X145161904Y-106933390D01*
X145161904Y-106933390D02*
X144590476Y-107504819D01*
X144590476Y-107504819D02*
X145209523Y-107504819D01*
X146318333Y-127567819D02*
X145985000Y-127091628D01*
X145746905Y-127567819D02*
X145746905Y-126567819D01*
X145746905Y-126567819D02*
X146127857Y-126567819D01*
X146127857Y-126567819D02*
X146223095Y-126615438D01*
X146223095Y-126615438D02*
X146270714Y-126663057D01*
X146270714Y-126663057D02*
X146318333Y-126758295D01*
X146318333Y-126758295D02*
X146318333Y-126901152D01*
X146318333Y-126901152D02*
X146270714Y-126996390D01*
X146270714Y-126996390D02*
X146223095Y-127044009D01*
X146223095Y-127044009D02*
X146127857Y-127091628D01*
X146127857Y-127091628D02*
X145746905Y-127091628D01*
X147270714Y-127567819D02*
X146699286Y-127567819D01*
X146985000Y-127567819D02*
X146985000Y-126567819D01*
X146985000Y-126567819D02*
X146889762Y-126710676D01*
X146889762Y-126710676D02*
X146794524Y-126805914D01*
X146794524Y-126805914D02*
X146699286Y-126853533D01*
X144404761Y-95100057D02*
X144309523Y-95052438D01*
X144309523Y-95052438D02*
X144214285Y-94957200D01*
X144214285Y-94957200D02*
X144071428Y-94814342D01*
X144071428Y-94814342D02*
X143976190Y-94766723D01*
X143976190Y-94766723D02*
X143880952Y-94766723D01*
X143928571Y-95004819D02*
X143833333Y-94957200D01*
X143833333Y-94957200D02*
X143738095Y-94861961D01*
X143738095Y-94861961D02*
X143690476Y-94671485D01*
X143690476Y-94671485D02*
X143690476Y-94338152D01*
X143690476Y-94338152D02*
X143738095Y-94147676D01*
X143738095Y-94147676D02*
X143833333Y-94052438D01*
X143833333Y-94052438D02*
X143928571Y-94004819D01*
X143928571Y-94004819D02*
X144119047Y-94004819D01*
X144119047Y-94004819D02*
X144214285Y-94052438D01*
X144214285Y-94052438D02*
X144309523Y-94147676D01*
X144309523Y-94147676D02*
X144357142Y-94338152D01*
X144357142Y-94338152D02*
X144357142Y-94671485D01*
X144357142Y-94671485D02*
X144309523Y-94861961D01*
X144309523Y-94861961D02*
X144214285Y-94957200D01*
X144214285Y-94957200D02*
X144119047Y-95004819D01*
X144119047Y-95004819D02*
X143928571Y-95004819D01*
X145214285Y-94338152D02*
X145214285Y-95004819D01*
X144976190Y-93957200D02*
X144738095Y-94671485D01*
X144738095Y-94671485D02*
X145357142Y-94671485D01*
D12*
X136106857Y-125761928D02*
X136106857Y-124261928D01*
X136106857Y-124261928D02*
X136464000Y-124261928D01*
X136464000Y-124261928D02*
X136678286Y-124333357D01*
X136678286Y-124333357D02*
X136821143Y-124476214D01*
X136821143Y-124476214D02*
X136892572Y-124619071D01*
X136892572Y-124619071D02*
X136964000Y-124904785D01*
X136964000Y-124904785D02*
X136964000Y-125119071D01*
X136964000Y-125119071D02*
X136892572Y-125404785D01*
X136892572Y-125404785D02*
X136821143Y-125547642D01*
X136821143Y-125547642D02*
X136678286Y-125690500D01*
X136678286Y-125690500D02*
X136464000Y-125761928D01*
X136464000Y-125761928D02*
X136106857Y-125761928D01*
X137535429Y-124404785D02*
X137606857Y-124333357D01*
X137606857Y-124333357D02*
X137749715Y-124261928D01*
X137749715Y-124261928D02*
X138106857Y-124261928D01*
X138106857Y-124261928D02*
X138249715Y-124333357D01*
X138249715Y-124333357D02*
X138321143Y-124404785D01*
X138321143Y-124404785D02*
X138392572Y-124547642D01*
X138392572Y-124547642D02*
X138392572Y-124690500D01*
X138392572Y-124690500D02*
X138321143Y-124904785D01*
X138321143Y-124904785D02*
X137464000Y-125761928D01*
X137464000Y-125761928D02*
X138392572Y-125761928D01*
D10*
X139053933Y-122207619D02*
X138720600Y-121731428D01*
X138482505Y-122207619D02*
X138482505Y-121207619D01*
X138482505Y-121207619D02*
X138863457Y-121207619D01*
X138863457Y-121207619D02*
X138958695Y-121255238D01*
X138958695Y-121255238D02*
X139006314Y-121302857D01*
X139006314Y-121302857D02*
X139053933Y-121398095D01*
X139053933Y-121398095D02*
X139053933Y-121540952D01*
X139053933Y-121540952D02*
X139006314Y-121636190D01*
X139006314Y-121636190D02*
X138958695Y-121683809D01*
X138958695Y-121683809D02*
X138863457Y-121731428D01*
X138863457Y-121731428D02*
X138482505Y-121731428D01*
X139434886Y-121302857D02*
X139482505Y-121255238D01*
X139482505Y-121255238D02*
X139577743Y-121207619D01*
X139577743Y-121207619D02*
X139815838Y-121207619D01*
X139815838Y-121207619D02*
X139911076Y-121255238D01*
X139911076Y-121255238D02*
X139958695Y-121302857D01*
X139958695Y-121302857D02*
X140006314Y-121398095D01*
X140006314Y-121398095D02*
X140006314Y-121493333D01*
X140006314Y-121493333D02*
X139958695Y-121636190D01*
X139958695Y-121636190D02*
X139387267Y-122207619D01*
X139387267Y-122207619D02*
X140006314Y-122207619D01*
X144329761Y-120300057D02*
X144234523Y-120252438D01*
X144234523Y-120252438D02*
X144139285Y-120157200D01*
X144139285Y-120157200D02*
X143996428Y-120014342D01*
X143996428Y-120014342D02*
X143901190Y-119966723D01*
X143901190Y-119966723D02*
X143805952Y-119966723D01*
X143853571Y-120204819D02*
X143758333Y-120157200D01*
X143758333Y-120157200D02*
X143663095Y-120061961D01*
X143663095Y-120061961D02*
X143615476Y-119871485D01*
X143615476Y-119871485D02*
X143615476Y-119538152D01*
X143615476Y-119538152D02*
X143663095Y-119347676D01*
X143663095Y-119347676D02*
X143758333Y-119252438D01*
X143758333Y-119252438D02*
X143853571Y-119204819D01*
X143853571Y-119204819D02*
X144044047Y-119204819D01*
X144044047Y-119204819D02*
X144139285Y-119252438D01*
X144139285Y-119252438D02*
X144234523Y-119347676D01*
X144234523Y-119347676D02*
X144282142Y-119538152D01*
X144282142Y-119538152D02*
X144282142Y-119871485D01*
X144282142Y-119871485D02*
X144234523Y-120061961D01*
X144234523Y-120061961D02*
X144139285Y-120157200D01*
X144139285Y-120157200D02*
X144044047Y-120204819D01*
X144044047Y-120204819D02*
X143853571Y-120204819D01*
X144615476Y-119204819D02*
X145234523Y-119204819D01*
X145234523Y-119204819D02*
X144901190Y-119585771D01*
X144901190Y-119585771D02*
X145044047Y-119585771D01*
X145044047Y-119585771D02*
X145139285Y-119633390D01*
X145139285Y-119633390D02*
X145186904Y-119681009D01*
X145186904Y-119681009D02*
X145234523Y-119776247D01*
X145234523Y-119776247D02*
X145234523Y-120014342D01*
X145234523Y-120014342D02*
X145186904Y-120109580D01*
X145186904Y-120109580D02*
X145139285Y-120157200D01*
X145139285Y-120157200D02*
X145044047Y-120204819D01*
X145044047Y-120204819D02*
X144758333Y-120204819D01*
X144758333Y-120204819D02*
X144663095Y-120157200D01*
X144663095Y-120157200D02*
X144615476Y-120109580D01*
X146318333Y-102040819D02*
X145985000Y-101564628D01*
X145746905Y-102040819D02*
X145746905Y-101040819D01*
X145746905Y-101040819D02*
X146127857Y-101040819D01*
X146127857Y-101040819D02*
X146223095Y-101088438D01*
X146223095Y-101088438D02*
X146270714Y-101136057D01*
X146270714Y-101136057D02*
X146318333Y-101231295D01*
X146318333Y-101231295D02*
X146318333Y-101374152D01*
X146318333Y-101374152D02*
X146270714Y-101469390D01*
X146270714Y-101469390D02*
X146223095Y-101517009D01*
X146223095Y-101517009D02*
X146127857Y-101564628D01*
X146127857Y-101564628D02*
X145746905Y-101564628D01*
X147175476Y-101040819D02*
X146985000Y-101040819D01*
X146985000Y-101040819D02*
X146889762Y-101088438D01*
X146889762Y-101088438D02*
X146842143Y-101136057D01*
X146842143Y-101136057D02*
X146746905Y-101278914D01*
X146746905Y-101278914D02*
X146699286Y-101469390D01*
X146699286Y-101469390D02*
X146699286Y-101850342D01*
X146699286Y-101850342D02*
X146746905Y-101945580D01*
X146746905Y-101945580D02*
X146794524Y-101993200D01*
X146794524Y-101993200D02*
X146889762Y-102040819D01*
X146889762Y-102040819D02*
X147080238Y-102040819D01*
X147080238Y-102040819D02*
X147175476Y-101993200D01*
X147175476Y-101993200D02*
X147223095Y-101945580D01*
X147223095Y-101945580D02*
X147270714Y-101850342D01*
X147270714Y-101850342D02*
X147270714Y-101612247D01*
X147270714Y-101612247D02*
X147223095Y-101517009D01*
X147223095Y-101517009D02*
X147175476Y-101469390D01*
X147175476Y-101469390D02*
X147080238Y-101421771D01*
X147080238Y-101421771D02*
X146889762Y-101421771D01*
X146889762Y-101421771D02*
X146794524Y-101469390D01*
X146794524Y-101469390D02*
X146746905Y-101517009D01*
X146746905Y-101517009D02*
X146699286Y-101612247D01*
X124566666Y-125864819D02*
X124566666Y-126579104D01*
X124566666Y-126579104D02*
X124519047Y-126721961D01*
X124519047Y-126721961D02*
X124423809Y-126817200D01*
X124423809Y-126817200D02*
X124280952Y-126864819D01*
X124280952Y-126864819D02*
X124185714Y-126864819D01*
X124995238Y-125960057D02*
X125042857Y-125912438D01*
X125042857Y-125912438D02*
X125138095Y-125864819D01*
X125138095Y-125864819D02*
X125376190Y-125864819D01*
X125376190Y-125864819D02*
X125471428Y-125912438D01*
X125471428Y-125912438D02*
X125519047Y-125960057D01*
X125519047Y-125960057D02*
X125566666Y-126055295D01*
X125566666Y-126055295D02*
X125566666Y-126150533D01*
X125566666Y-126150533D02*
X125519047Y-126293390D01*
X125519047Y-126293390D02*
X124947619Y-126864819D01*
X124947619Y-126864819D02*
X125566666Y-126864819D01*
X139786094Y-110661009D02*
X139928951Y-110708628D01*
X139928951Y-110708628D02*
X139976570Y-110756247D01*
X139976570Y-110756247D02*
X140024189Y-110851485D01*
X140024189Y-110851485D02*
X140024189Y-110994342D01*
X140024189Y-110994342D02*
X139976570Y-111089580D01*
X139976570Y-111089580D02*
X139928951Y-111137200D01*
X139928951Y-111137200D02*
X139833713Y-111184819D01*
X139833713Y-111184819D02*
X139452761Y-111184819D01*
X139452761Y-111184819D02*
X139452761Y-110184819D01*
X139452761Y-110184819D02*
X139786094Y-110184819D01*
X139786094Y-110184819D02*
X139881332Y-110232438D01*
X139881332Y-110232438D02*
X139928951Y-110280057D01*
X139928951Y-110280057D02*
X139976570Y-110375295D01*
X139976570Y-110375295D02*
X139976570Y-110470533D01*
X139976570Y-110470533D02*
X139928951Y-110565771D01*
X139928951Y-110565771D02*
X139881332Y-110613390D01*
X139881332Y-110613390D02*
X139786094Y-110661009D01*
X139786094Y-110661009D02*
X139452761Y-110661009D01*
X140405142Y-111137200D02*
X140547999Y-111184819D01*
X140547999Y-111184819D02*
X140786094Y-111184819D01*
X140786094Y-111184819D02*
X140881332Y-111137200D01*
X140881332Y-111137200D02*
X140928951Y-111089580D01*
X140928951Y-111089580D02*
X140976570Y-110994342D01*
X140976570Y-110994342D02*
X140976570Y-110899104D01*
X140976570Y-110899104D02*
X140928951Y-110803866D01*
X140928951Y-110803866D02*
X140881332Y-110756247D01*
X140881332Y-110756247D02*
X140786094Y-110708628D01*
X140786094Y-110708628D02*
X140595618Y-110661009D01*
X140595618Y-110661009D02*
X140500380Y-110613390D01*
X140500380Y-110613390D02*
X140452761Y-110565771D01*
X140452761Y-110565771D02*
X140405142Y-110470533D01*
X140405142Y-110470533D02*
X140405142Y-110375295D01*
X140405142Y-110375295D02*
X140452761Y-110280057D01*
X140452761Y-110280057D02*
X140500380Y-110232438D01*
X140500380Y-110232438D02*
X140595618Y-110184819D01*
X140595618Y-110184819D02*
X140833713Y-110184819D01*
X140833713Y-110184819D02*
X140976570Y-110232438D01*
X141262285Y-110518152D02*
X141643237Y-110518152D01*
X141405142Y-110184819D02*
X141405142Y-111041961D01*
X141405142Y-111041961D02*
X141452761Y-111137200D01*
X141452761Y-111137200D02*
X141547999Y-111184819D01*
X141547999Y-111184819D02*
X141643237Y-111184819D01*
X142405142Y-111184819D02*
X142405142Y-110661009D01*
X142405142Y-110661009D02*
X142357523Y-110565771D01*
X142357523Y-110565771D02*
X142262285Y-110518152D01*
X142262285Y-110518152D02*
X142071809Y-110518152D01*
X142071809Y-110518152D02*
X141976571Y-110565771D01*
X142405142Y-111137200D02*
X142309904Y-111184819D01*
X142309904Y-111184819D02*
X142071809Y-111184819D01*
X142071809Y-111184819D02*
X141976571Y-111137200D01*
X141976571Y-111137200D02*
X141928952Y-111041961D01*
X141928952Y-111041961D02*
X141928952Y-110946723D01*
X141928952Y-110946723D02*
X141976571Y-110851485D01*
X141976571Y-110851485D02*
X142071809Y-110803866D01*
X142071809Y-110803866D02*
X142309904Y-110803866D01*
X142309904Y-110803866D02*
X142405142Y-110756247D01*
X142738476Y-110518152D02*
X143119428Y-110518152D01*
X142881333Y-110184819D02*
X142881333Y-111041961D01*
X142881333Y-111041961D02*
X142928952Y-111137200D01*
X142928952Y-111137200D02*
X143024190Y-111184819D01*
X143024190Y-111184819D02*
X143119428Y-111184819D01*
X143881333Y-110518152D02*
X143881333Y-111184819D01*
X143452762Y-110518152D02*
X143452762Y-111041961D01*
X143452762Y-111041961D02*
X143500381Y-111137200D01*
X143500381Y-111137200D02*
X143595619Y-111184819D01*
X143595619Y-111184819D02*
X143738476Y-111184819D01*
X143738476Y-111184819D02*
X143833714Y-111137200D01*
X143833714Y-111137200D02*
X143881333Y-111089580D01*
X144309905Y-111137200D02*
X144405143Y-111184819D01*
X144405143Y-111184819D02*
X144595619Y-111184819D01*
X144595619Y-111184819D02*
X144690857Y-111137200D01*
X144690857Y-111137200D02*
X144738476Y-111041961D01*
X144738476Y-111041961D02*
X144738476Y-110994342D01*
X144738476Y-110994342D02*
X144690857Y-110899104D01*
X144690857Y-110899104D02*
X144595619Y-110851485D01*
X144595619Y-110851485D02*
X144452762Y-110851485D01*
X144452762Y-110851485D02*
X144357524Y-110803866D01*
X144357524Y-110803866D02*
X144309905Y-110708628D01*
X144309905Y-110708628D02*
X144309905Y-110661009D01*
X144309905Y-110661009D02*
X144357524Y-110565771D01*
X144357524Y-110565771D02*
X144452762Y-110518152D01*
X144452762Y-110518152D02*
X144595619Y-110518152D01*
X144595619Y-110518152D02*
X144690857Y-110565771D01*
X145690857Y-111184819D02*
X145119429Y-111184819D01*
X145405143Y-111184819D02*
X145405143Y-110184819D01*
X145405143Y-110184819D02*
X145309905Y-110327676D01*
X145309905Y-110327676D02*
X145214667Y-110422914D01*
X145214667Y-110422914D02*
X145119429Y-110470533D01*
X156866666Y-100404819D02*
X156866666Y-101119104D01*
X156866666Y-101119104D02*
X156819047Y-101261961D01*
X156819047Y-101261961D02*
X156723809Y-101357200D01*
X156723809Y-101357200D02*
X156580952Y-101404819D01*
X156580952Y-101404819D02*
X156485714Y-101404819D01*
X157819047Y-100404819D02*
X157342857Y-100404819D01*
X157342857Y-100404819D02*
X157295238Y-100881009D01*
X157295238Y-100881009D02*
X157342857Y-100833390D01*
X157342857Y-100833390D02*
X157438095Y-100785771D01*
X157438095Y-100785771D02*
X157676190Y-100785771D01*
X157676190Y-100785771D02*
X157771428Y-100833390D01*
X157771428Y-100833390D02*
X157819047Y-100881009D01*
X157819047Y-100881009D02*
X157866666Y-100976247D01*
X157866666Y-100976247D02*
X157866666Y-101214342D01*
X157866666Y-101214342D02*
X157819047Y-101309580D01*
X157819047Y-101309580D02*
X157771428Y-101357200D01*
X157771428Y-101357200D02*
X157676190Y-101404819D01*
X157676190Y-101404819D02*
X157438095Y-101404819D01*
X157438095Y-101404819D02*
X157342857Y-101357200D01*
X157342857Y-101357200D02*
X157295238Y-101309580D01*
X138513095Y-118504819D02*
X138513095Y-119314342D01*
X138513095Y-119314342D02*
X138560714Y-119409580D01*
X138560714Y-119409580D02*
X138608333Y-119457200D01*
X138608333Y-119457200D02*
X138703571Y-119504819D01*
X138703571Y-119504819D02*
X138894047Y-119504819D01*
X138894047Y-119504819D02*
X138989285Y-119457200D01*
X138989285Y-119457200D02*
X139036904Y-119409580D01*
X139036904Y-119409580D02*
X139084523Y-119314342D01*
X139084523Y-119314342D02*
X139084523Y-118504819D01*
X139513095Y-118600057D02*
X139560714Y-118552438D01*
X139560714Y-118552438D02*
X139655952Y-118504819D01*
X139655952Y-118504819D02*
X139894047Y-118504819D01*
X139894047Y-118504819D02*
X139989285Y-118552438D01*
X139989285Y-118552438D02*
X140036904Y-118600057D01*
X140036904Y-118600057D02*
X140084523Y-118695295D01*
X140084523Y-118695295D02*
X140084523Y-118790533D01*
X140084523Y-118790533D02*
X140036904Y-118933390D01*
X140036904Y-118933390D02*
X139465476Y-119504819D01*
X139465476Y-119504819D02*
X140084523Y-119504819D01*
X156674380Y-91465666D02*
X156722000Y-91513285D01*
X156722000Y-91513285D02*
X156769619Y-91656142D01*
X156769619Y-91656142D02*
X156769619Y-91751380D01*
X156769619Y-91751380D02*
X156722000Y-91894237D01*
X156722000Y-91894237D02*
X156626761Y-91989475D01*
X156626761Y-91989475D02*
X156531523Y-92037094D01*
X156531523Y-92037094D02*
X156341047Y-92084713D01*
X156341047Y-92084713D02*
X156198190Y-92084713D01*
X156198190Y-92084713D02*
X156007714Y-92037094D01*
X156007714Y-92037094D02*
X155912476Y-91989475D01*
X155912476Y-91989475D02*
X155817238Y-91894237D01*
X155817238Y-91894237D02*
X155769619Y-91751380D01*
X155769619Y-91751380D02*
X155769619Y-91656142D01*
X155769619Y-91656142D02*
X155817238Y-91513285D01*
X155817238Y-91513285D02*
X155864857Y-91465666D01*
X156769619Y-90513285D02*
X156769619Y-91084713D01*
X156769619Y-90798999D02*
X155769619Y-90798999D01*
X155769619Y-90798999D02*
X155912476Y-90894237D01*
X155912476Y-90894237D02*
X156007714Y-90989475D01*
X156007714Y-90989475D02*
X156055333Y-91084713D01*
X143304761Y-86175057D02*
X143209523Y-86127438D01*
X143209523Y-86127438D02*
X143114285Y-86032200D01*
X143114285Y-86032200D02*
X142971428Y-85889342D01*
X142971428Y-85889342D02*
X142876190Y-85841723D01*
X142876190Y-85841723D02*
X142780952Y-85841723D01*
X142828571Y-86079819D02*
X142733333Y-86032200D01*
X142733333Y-86032200D02*
X142638095Y-85936961D01*
X142638095Y-85936961D02*
X142590476Y-85746485D01*
X142590476Y-85746485D02*
X142590476Y-85413152D01*
X142590476Y-85413152D02*
X142638095Y-85222676D01*
X142638095Y-85222676D02*
X142733333Y-85127438D01*
X142733333Y-85127438D02*
X142828571Y-85079819D01*
X142828571Y-85079819D02*
X143019047Y-85079819D01*
X143019047Y-85079819D02*
X143114285Y-85127438D01*
X143114285Y-85127438D02*
X143209523Y-85222676D01*
X143209523Y-85222676D02*
X143257142Y-85413152D01*
X143257142Y-85413152D02*
X143257142Y-85746485D01*
X143257142Y-85746485D02*
X143209523Y-85936961D01*
X143209523Y-85936961D02*
X143114285Y-86032200D01*
X143114285Y-86032200D02*
X143019047Y-86079819D01*
X143019047Y-86079819D02*
X142828571Y-86079819D01*
X144209523Y-86079819D02*
X143638095Y-86079819D01*
X143923809Y-86079819D02*
X143923809Y-85079819D01*
X143923809Y-85079819D02*
X143828571Y-85222676D01*
X143828571Y-85222676D02*
X143733333Y-85317914D01*
X143733333Y-85317914D02*
X143638095Y-85365533D01*
X156866666Y-113079819D02*
X156866666Y-113794104D01*
X156866666Y-113794104D02*
X156819047Y-113936961D01*
X156819047Y-113936961D02*
X156723809Y-114032200D01*
X156723809Y-114032200D02*
X156580952Y-114079819D01*
X156580952Y-114079819D02*
X156485714Y-114079819D01*
X157247619Y-113079819D02*
X157866666Y-113079819D01*
X157866666Y-113079819D02*
X157533333Y-113460771D01*
X157533333Y-113460771D02*
X157676190Y-113460771D01*
X157676190Y-113460771D02*
X157771428Y-113508390D01*
X157771428Y-113508390D02*
X157819047Y-113556009D01*
X157819047Y-113556009D02*
X157866666Y-113651247D01*
X157866666Y-113651247D02*
X157866666Y-113889342D01*
X157866666Y-113889342D02*
X157819047Y-113984580D01*
X157819047Y-113984580D02*
X157771428Y-114032200D01*
X157771428Y-114032200D02*
X157676190Y-114079819D01*
X157676190Y-114079819D02*
X157390476Y-114079819D01*
X157390476Y-114079819D02*
X157295238Y-114032200D01*
X157295238Y-114032200D02*
X157247619Y-113984580D01*
X147984819Y-105042857D02*
X147508628Y-105376190D01*
X147984819Y-105614285D02*
X146984819Y-105614285D01*
X146984819Y-105614285D02*
X146984819Y-105233333D01*
X146984819Y-105233333D02*
X147032438Y-105138095D01*
X147032438Y-105138095D02*
X147080057Y-105090476D01*
X147080057Y-105090476D02*
X147175295Y-105042857D01*
X147175295Y-105042857D02*
X147318152Y-105042857D01*
X147318152Y-105042857D02*
X147413390Y-105090476D01*
X147413390Y-105090476D02*
X147461009Y-105138095D01*
X147461009Y-105138095D02*
X147508628Y-105233333D01*
X147508628Y-105233333D02*
X147508628Y-105614285D01*
X147984819Y-104090476D02*
X147984819Y-104661904D01*
X147984819Y-104376190D02*
X146984819Y-104376190D01*
X146984819Y-104376190D02*
X147127676Y-104471428D01*
X147127676Y-104471428D02*
X147222914Y-104566666D01*
X147222914Y-104566666D02*
X147270533Y-104661904D01*
X147984819Y-103138095D02*
X147984819Y-103709523D01*
X147984819Y-103423809D02*
X146984819Y-103423809D01*
X146984819Y-103423809D02*
X147127676Y-103519047D01*
X147127676Y-103519047D02*
X147222914Y-103614285D01*
X147222914Y-103614285D02*
X147270533Y-103709523D01*
X138213095Y-105854819D02*
X138213095Y-106664342D01*
X138213095Y-106664342D02*
X138260714Y-106759580D01*
X138260714Y-106759580D02*
X138308333Y-106807200D01*
X138308333Y-106807200D02*
X138403571Y-106854819D01*
X138403571Y-106854819D02*
X138594047Y-106854819D01*
X138594047Y-106854819D02*
X138689285Y-106807200D01*
X138689285Y-106807200D02*
X138736904Y-106759580D01*
X138736904Y-106759580D02*
X138784523Y-106664342D01*
X138784523Y-106664342D02*
X138784523Y-105854819D01*
X139165476Y-105854819D02*
X139784523Y-105854819D01*
X139784523Y-105854819D02*
X139451190Y-106235771D01*
X139451190Y-106235771D02*
X139594047Y-106235771D01*
X139594047Y-106235771D02*
X139689285Y-106283390D01*
X139689285Y-106283390D02*
X139736904Y-106331009D01*
X139736904Y-106331009D02*
X139784523Y-106426247D01*
X139784523Y-106426247D02*
X139784523Y-106664342D01*
X139784523Y-106664342D02*
X139736904Y-106759580D01*
X139736904Y-106759580D02*
X139689285Y-106807200D01*
X139689285Y-106807200D02*
X139594047Y-106854819D01*
X139594047Y-106854819D02*
X139308333Y-106854819D01*
X139308333Y-106854819D02*
X139213095Y-106807200D01*
X139213095Y-106807200D02*
X139165476Y-106759580D01*
D13*
X146156904Y-91829318D02*
X147003571Y-91829318D01*
X147003571Y-91829318D02*
X146156904Y-93099318D01*
X146156904Y-93099318D02*
X147003571Y-93099318D01*
X148152619Y-93099318D02*
X147426904Y-93099318D01*
X147789761Y-93099318D02*
X147789761Y-91829318D01*
X147789761Y-91829318D02*
X147668809Y-92010746D01*
X147668809Y-92010746D02*
X147547857Y-92131699D01*
X147547857Y-92131699D02*
X147426904Y-92192175D01*
D10*
X126252333Y-89975819D02*
X125919000Y-89499628D01*
X125680905Y-89975819D02*
X125680905Y-88975819D01*
X125680905Y-88975819D02*
X126061857Y-88975819D01*
X126061857Y-88975819D02*
X126157095Y-89023438D01*
X126157095Y-89023438D02*
X126204714Y-89071057D01*
X126204714Y-89071057D02*
X126252333Y-89166295D01*
X126252333Y-89166295D02*
X126252333Y-89309152D01*
X126252333Y-89309152D02*
X126204714Y-89404390D01*
X126204714Y-89404390D02*
X126157095Y-89452009D01*
X126157095Y-89452009D02*
X126061857Y-89499628D01*
X126061857Y-89499628D02*
X125680905Y-89499628D01*
X127157095Y-88975819D02*
X126680905Y-88975819D01*
X126680905Y-88975819D02*
X126633286Y-89452009D01*
X126633286Y-89452009D02*
X126680905Y-89404390D01*
X126680905Y-89404390D02*
X126776143Y-89356771D01*
X126776143Y-89356771D02*
X127014238Y-89356771D01*
X127014238Y-89356771D02*
X127109476Y-89404390D01*
X127109476Y-89404390D02*
X127157095Y-89452009D01*
X127157095Y-89452009D02*
X127204714Y-89547247D01*
X127204714Y-89547247D02*
X127204714Y-89785342D01*
X127204714Y-89785342D02*
X127157095Y-89880580D01*
X127157095Y-89880580D02*
X127109476Y-89928200D01*
X127109476Y-89928200D02*
X127014238Y-89975819D01*
X127014238Y-89975819D02*
X126776143Y-89975819D01*
X126776143Y-89975819D02*
X126680905Y-89928200D01*
X126680905Y-89928200D02*
X126633286Y-89880580D01*
D12*
X136377857Y-100234928D02*
X136377857Y-98734928D01*
X136377857Y-98734928D02*
X136735000Y-98734928D01*
X136735000Y-98734928D02*
X136949286Y-98806357D01*
X136949286Y-98806357D02*
X137092143Y-98949214D01*
X137092143Y-98949214D02*
X137163572Y-99092071D01*
X137163572Y-99092071D02*
X137235000Y-99377785D01*
X137235000Y-99377785D02*
X137235000Y-99592071D01*
X137235000Y-99592071D02*
X137163572Y-99877785D01*
X137163572Y-99877785D02*
X137092143Y-100020642D01*
X137092143Y-100020642D02*
X136949286Y-100163500D01*
X136949286Y-100163500D02*
X136735000Y-100234928D01*
X136735000Y-100234928D02*
X136377857Y-100234928D01*
X138520715Y-99234928D02*
X138520715Y-100234928D01*
X138163572Y-98663500D02*
X137806429Y-99734928D01*
X137806429Y-99734928D02*
X138735000Y-99734928D01*
D10*
X146191333Y-114740819D02*
X145858000Y-114264628D01*
X145619905Y-114740819D02*
X145619905Y-113740819D01*
X145619905Y-113740819D02*
X146000857Y-113740819D01*
X146000857Y-113740819D02*
X146096095Y-113788438D01*
X146096095Y-113788438D02*
X146143714Y-113836057D01*
X146143714Y-113836057D02*
X146191333Y-113931295D01*
X146191333Y-113931295D02*
X146191333Y-114074152D01*
X146191333Y-114074152D02*
X146143714Y-114169390D01*
X146143714Y-114169390D02*
X146096095Y-114217009D01*
X146096095Y-114217009D02*
X146000857Y-114264628D01*
X146000857Y-114264628D02*
X145619905Y-114264628D01*
X146524667Y-113740819D02*
X147143714Y-113740819D01*
X147143714Y-113740819D02*
X146810381Y-114121771D01*
X146810381Y-114121771D02*
X146953238Y-114121771D01*
X146953238Y-114121771D02*
X147048476Y-114169390D01*
X147048476Y-114169390D02*
X147096095Y-114217009D01*
X147096095Y-114217009D02*
X147143714Y-114312247D01*
X147143714Y-114312247D02*
X147143714Y-114550342D01*
X147143714Y-114550342D02*
X147096095Y-114645580D01*
X147096095Y-114645580D02*
X147048476Y-114693200D01*
X147048476Y-114693200D02*
X146953238Y-114740819D01*
X146953238Y-114740819D02*
X146667524Y-114740819D01*
X146667524Y-114740819D02*
X146572286Y-114693200D01*
X146572286Y-114693200D02*
X146524667Y-114645580D01*
X147904819Y-130066666D02*
X147428628Y-130399999D01*
X147904819Y-130638094D02*
X146904819Y-130638094D01*
X146904819Y-130638094D02*
X146904819Y-130257142D01*
X146904819Y-130257142D02*
X146952438Y-130161904D01*
X146952438Y-130161904D02*
X147000057Y-130114285D01*
X147000057Y-130114285D02*
X147095295Y-130066666D01*
X147095295Y-130066666D02*
X147238152Y-130066666D01*
X147238152Y-130066666D02*
X147333390Y-130114285D01*
X147333390Y-130114285D02*
X147381009Y-130161904D01*
X147381009Y-130161904D02*
X147428628Y-130257142D01*
X147428628Y-130257142D02*
X147428628Y-130638094D01*
X147904819Y-129590475D02*
X147904819Y-129399999D01*
X147904819Y-129399999D02*
X147857200Y-129304761D01*
X147857200Y-129304761D02*
X147809580Y-129257142D01*
X147809580Y-129257142D02*
X147666723Y-129161904D01*
X147666723Y-129161904D02*
X147476247Y-129114285D01*
X147476247Y-129114285D02*
X147095295Y-129114285D01*
X147095295Y-129114285D02*
X147000057Y-129161904D01*
X147000057Y-129161904D02*
X146952438Y-129209523D01*
X146952438Y-129209523D02*
X146904819Y-129304761D01*
X146904819Y-129304761D02*
X146904819Y-129495237D01*
X146904819Y-129495237D02*
X146952438Y-129590475D01*
X146952438Y-129590475D02*
X147000057Y-129638094D01*
X147000057Y-129638094D02*
X147095295Y-129685713D01*
X147095295Y-129685713D02*
X147333390Y-129685713D01*
X147333390Y-129685713D02*
X147428628Y-129638094D01*
X147428628Y-129638094D02*
X147476247Y-129590475D01*
X147476247Y-129590475D02*
X147523866Y-129495237D01*
X147523866Y-129495237D02*
X147523866Y-129304761D01*
X147523866Y-129304761D02*
X147476247Y-129209523D01*
X147476247Y-129209523D02*
X147428628Y-129161904D01*
X147428628Y-129161904D02*
X147333390Y-129114285D01*
X141229819Y-92641666D02*
X140753628Y-92974999D01*
X141229819Y-93213094D02*
X140229819Y-93213094D01*
X140229819Y-93213094D02*
X140229819Y-92832142D01*
X140229819Y-92832142D02*
X140277438Y-92736904D01*
X140277438Y-92736904D02*
X140325057Y-92689285D01*
X140325057Y-92689285D02*
X140420295Y-92641666D01*
X140420295Y-92641666D02*
X140563152Y-92641666D01*
X140563152Y-92641666D02*
X140658390Y-92689285D01*
X140658390Y-92689285D02*
X140706009Y-92736904D01*
X140706009Y-92736904D02*
X140753628Y-92832142D01*
X140753628Y-92832142D02*
X140753628Y-93213094D01*
X140658390Y-92070237D02*
X140610771Y-92165475D01*
X140610771Y-92165475D02*
X140563152Y-92213094D01*
X140563152Y-92213094D02*
X140467914Y-92260713D01*
X140467914Y-92260713D02*
X140420295Y-92260713D01*
X140420295Y-92260713D02*
X140325057Y-92213094D01*
X140325057Y-92213094D02*
X140277438Y-92165475D01*
X140277438Y-92165475D02*
X140229819Y-92070237D01*
X140229819Y-92070237D02*
X140229819Y-91879761D01*
X140229819Y-91879761D02*
X140277438Y-91784523D01*
X140277438Y-91784523D02*
X140325057Y-91736904D01*
X140325057Y-91736904D02*
X140420295Y-91689285D01*
X140420295Y-91689285D02*
X140467914Y-91689285D01*
X140467914Y-91689285D02*
X140563152Y-91736904D01*
X140563152Y-91736904D02*
X140610771Y-91784523D01*
X140610771Y-91784523D02*
X140658390Y-91879761D01*
X140658390Y-91879761D02*
X140658390Y-92070237D01*
X140658390Y-92070237D02*
X140706009Y-92165475D01*
X140706009Y-92165475D02*
X140753628Y-92213094D01*
X140753628Y-92213094D02*
X140848866Y-92260713D01*
X140848866Y-92260713D02*
X141039342Y-92260713D01*
X141039342Y-92260713D02*
X141134580Y-92213094D01*
X141134580Y-92213094D02*
X141182200Y-92165475D01*
X141182200Y-92165475D02*
X141229819Y-92070237D01*
X141229819Y-92070237D02*
X141229819Y-91879761D01*
X141229819Y-91879761D02*
X141182200Y-91784523D01*
X141182200Y-91784523D02*
X141134580Y-91736904D01*
X141134580Y-91736904D02*
X141039342Y-91689285D01*
X141039342Y-91689285D02*
X140848866Y-91689285D01*
X140848866Y-91689285D02*
X140753628Y-91736904D01*
X140753628Y-91736904D02*
X140706009Y-91784523D01*
X140706009Y-91784523D02*
X140658390Y-91879761D01*
X147904819Y-117702857D02*
X147428628Y-118036190D01*
X147904819Y-118274285D02*
X146904819Y-118274285D01*
X146904819Y-118274285D02*
X146904819Y-117893333D01*
X146904819Y-117893333D02*
X146952438Y-117798095D01*
X146952438Y-117798095D02*
X147000057Y-117750476D01*
X147000057Y-117750476D02*
X147095295Y-117702857D01*
X147095295Y-117702857D02*
X147238152Y-117702857D01*
X147238152Y-117702857D02*
X147333390Y-117750476D01*
X147333390Y-117750476D02*
X147381009Y-117798095D01*
X147381009Y-117798095D02*
X147428628Y-117893333D01*
X147428628Y-117893333D02*
X147428628Y-118274285D01*
X147904819Y-116750476D02*
X147904819Y-117321904D01*
X147904819Y-117036190D02*
X146904819Y-117036190D01*
X146904819Y-117036190D02*
X147047676Y-117131428D01*
X147047676Y-117131428D02*
X147142914Y-117226666D01*
X147142914Y-117226666D02*
X147190533Y-117321904D01*
X146904819Y-116131428D02*
X146904819Y-116036190D01*
X146904819Y-116036190D02*
X146952438Y-115940952D01*
X146952438Y-115940952D02*
X147000057Y-115893333D01*
X147000057Y-115893333D02*
X147095295Y-115845714D01*
X147095295Y-115845714D02*
X147285771Y-115798095D01*
X147285771Y-115798095D02*
X147523866Y-115798095D01*
X147523866Y-115798095D02*
X147714342Y-115845714D01*
X147714342Y-115845714D02*
X147809580Y-115893333D01*
X147809580Y-115893333D02*
X147857200Y-115940952D01*
X147857200Y-115940952D02*
X147904819Y-116036190D01*
X147904819Y-116036190D02*
X147904819Y-116131428D01*
X147904819Y-116131428D02*
X147857200Y-116226666D01*
X147857200Y-116226666D02*
X147809580Y-116274285D01*
X147809580Y-116274285D02*
X147714342Y-116321904D01*
X147714342Y-116321904D02*
X147523866Y-116369523D01*
X147523866Y-116369523D02*
X147285771Y-116369523D01*
X147285771Y-116369523D02*
X147095295Y-116321904D01*
X147095295Y-116321904D02*
X147000057Y-116274285D01*
X147000057Y-116274285D02*
X146952438Y-116226666D01*
X146952438Y-116226666D02*
X146904819Y-116131428D01*
X137287819Y-93205494D02*
X136287819Y-93205494D01*
X136287819Y-93205494D02*
X136287819Y-92967399D01*
X136287819Y-92967399D02*
X136335438Y-92824542D01*
X136335438Y-92824542D02*
X136430676Y-92729304D01*
X136430676Y-92729304D02*
X136525914Y-92681685D01*
X136525914Y-92681685D02*
X136716390Y-92634066D01*
X136716390Y-92634066D02*
X136859247Y-92634066D01*
X136859247Y-92634066D02*
X137049723Y-92681685D01*
X137049723Y-92681685D02*
X137144961Y-92729304D01*
X137144961Y-92729304D02*
X137240200Y-92824542D01*
X137240200Y-92824542D02*
X137287819Y-92967399D01*
X137287819Y-92967399D02*
X137287819Y-93205494D01*
X137287819Y-91681685D02*
X137287819Y-92253113D01*
X137287819Y-91967399D02*
X136287819Y-91967399D01*
X136287819Y-91967399D02*
X136430676Y-92062637D01*
X136430676Y-92062637D02*
X136525914Y-92157875D01*
X136525914Y-92157875D02*
X136573533Y-92253113D01*
X124566666Y-113079819D02*
X124566666Y-113794104D01*
X124566666Y-113794104D02*
X124519047Y-113936961D01*
X124519047Y-113936961D02*
X124423809Y-114032200D01*
X124423809Y-114032200D02*
X124280952Y-114079819D01*
X124280952Y-114079819D02*
X124185714Y-114079819D01*
X125471428Y-113413152D02*
X125471428Y-114079819D01*
X125233333Y-113032200D02*
X124995238Y-113746485D01*
X124995238Y-113746485D02*
X125614285Y-113746485D01*
X140405189Y-98643580D02*
X140357570Y-98691200D01*
X140357570Y-98691200D02*
X140214713Y-98738819D01*
X140214713Y-98738819D02*
X140119475Y-98738819D01*
X140119475Y-98738819D02*
X139976618Y-98691200D01*
X139976618Y-98691200D02*
X139881380Y-98595961D01*
X139881380Y-98595961D02*
X139833761Y-98500723D01*
X139833761Y-98500723D02*
X139786142Y-98310247D01*
X139786142Y-98310247D02*
X139786142Y-98167390D01*
X139786142Y-98167390D02*
X139833761Y-97976914D01*
X139833761Y-97976914D02*
X139881380Y-97881676D01*
X139881380Y-97881676D02*
X139976618Y-97786438D01*
X139976618Y-97786438D02*
X140119475Y-97738819D01*
X140119475Y-97738819D02*
X140214713Y-97738819D01*
X140214713Y-97738819D02*
X140357570Y-97786438D01*
X140357570Y-97786438D02*
X140405189Y-97834057D01*
X140786142Y-98691200D02*
X140928999Y-98738819D01*
X140928999Y-98738819D02*
X141167094Y-98738819D01*
X141167094Y-98738819D02*
X141262332Y-98691200D01*
X141262332Y-98691200D02*
X141309951Y-98643580D01*
X141309951Y-98643580D02*
X141357570Y-98548342D01*
X141357570Y-98548342D02*
X141357570Y-98453104D01*
X141357570Y-98453104D02*
X141309951Y-98357866D01*
X141309951Y-98357866D02*
X141262332Y-98310247D01*
X141262332Y-98310247D02*
X141167094Y-98262628D01*
X141167094Y-98262628D02*
X140976618Y-98215009D01*
X140976618Y-98215009D02*
X140881380Y-98167390D01*
X140881380Y-98167390D02*
X140833761Y-98119771D01*
X140833761Y-98119771D02*
X140786142Y-98024533D01*
X140786142Y-98024533D02*
X140786142Y-97929295D01*
X140786142Y-97929295D02*
X140833761Y-97834057D01*
X140833761Y-97834057D02*
X140881380Y-97786438D01*
X140881380Y-97786438D02*
X140976618Y-97738819D01*
X140976618Y-97738819D02*
X141214713Y-97738819D01*
X141214713Y-97738819D02*
X141357570Y-97786438D01*
X141643285Y-98072152D02*
X142024237Y-98072152D01*
X141786142Y-97738819D02*
X141786142Y-98595961D01*
X141786142Y-98595961D02*
X141833761Y-98691200D01*
X141833761Y-98691200D02*
X141928999Y-98738819D01*
X141928999Y-98738819D02*
X142024237Y-98738819D01*
X142786142Y-98738819D02*
X142786142Y-98215009D01*
X142786142Y-98215009D02*
X142738523Y-98119771D01*
X142738523Y-98119771D02*
X142643285Y-98072152D01*
X142643285Y-98072152D02*
X142452809Y-98072152D01*
X142452809Y-98072152D02*
X142357571Y-98119771D01*
X142786142Y-98691200D02*
X142690904Y-98738819D01*
X142690904Y-98738819D02*
X142452809Y-98738819D01*
X142452809Y-98738819D02*
X142357571Y-98691200D01*
X142357571Y-98691200D02*
X142309952Y-98595961D01*
X142309952Y-98595961D02*
X142309952Y-98500723D01*
X142309952Y-98500723D02*
X142357571Y-98405485D01*
X142357571Y-98405485D02*
X142452809Y-98357866D01*
X142452809Y-98357866D02*
X142690904Y-98357866D01*
X142690904Y-98357866D02*
X142786142Y-98310247D01*
X143119476Y-98072152D02*
X143500428Y-98072152D01*
X143262333Y-97738819D02*
X143262333Y-98595961D01*
X143262333Y-98595961D02*
X143309952Y-98691200D01*
X143309952Y-98691200D02*
X143405190Y-98738819D01*
X143405190Y-98738819D02*
X143500428Y-98738819D01*
X144262333Y-98072152D02*
X144262333Y-98738819D01*
X143833762Y-98072152D02*
X143833762Y-98595961D01*
X143833762Y-98595961D02*
X143881381Y-98691200D01*
X143881381Y-98691200D02*
X143976619Y-98738819D01*
X143976619Y-98738819D02*
X144119476Y-98738819D01*
X144119476Y-98738819D02*
X144214714Y-98691200D01*
X144214714Y-98691200D02*
X144262333Y-98643580D01*
X144690905Y-98691200D02*
X144786143Y-98738819D01*
X144786143Y-98738819D02*
X144976619Y-98738819D01*
X144976619Y-98738819D02*
X145071857Y-98691200D01*
X145071857Y-98691200D02*
X145119476Y-98595961D01*
X145119476Y-98595961D02*
X145119476Y-98548342D01*
X145119476Y-98548342D02*
X145071857Y-98453104D01*
X145071857Y-98453104D02*
X144976619Y-98405485D01*
X144976619Y-98405485D02*
X144833762Y-98405485D01*
X144833762Y-98405485D02*
X144738524Y-98357866D01*
X144738524Y-98357866D02*
X144690905Y-98262628D01*
X144690905Y-98262628D02*
X144690905Y-98215009D01*
X144690905Y-98215009D02*
X144738524Y-98119771D01*
X144738524Y-98119771D02*
X144833762Y-98072152D01*
X144833762Y-98072152D02*
X144976619Y-98072152D01*
X144976619Y-98072152D02*
X145071857Y-98119771D01*
X146071857Y-98738819D02*
X145500429Y-98738819D01*
X145786143Y-98738819D02*
X145786143Y-97738819D01*
X145786143Y-97738819D02*
X145690905Y-97881676D01*
X145690905Y-97881676D02*
X145595667Y-97976914D01*
X145595667Y-97976914D02*
X145500429Y-98024533D01*
X156390476Y-125864819D02*
X156390476Y-126579104D01*
X156390476Y-126579104D02*
X156342857Y-126721961D01*
X156342857Y-126721961D02*
X156247619Y-126817200D01*
X156247619Y-126817200D02*
X156104762Y-126864819D01*
X156104762Y-126864819D02*
X156009524Y-126864819D01*
X157390476Y-126864819D02*
X156819048Y-126864819D01*
X157104762Y-126864819D02*
X157104762Y-125864819D01*
X157104762Y-125864819D02*
X157009524Y-126007676D01*
X157009524Y-126007676D02*
X156914286Y-126102914D01*
X156914286Y-126102914D02*
X156819048Y-126150533D01*
X157771429Y-125960057D02*
X157819048Y-125912438D01*
X157819048Y-125912438D02*
X157914286Y-125864819D01*
X157914286Y-125864819D02*
X158152381Y-125864819D01*
X158152381Y-125864819D02*
X158247619Y-125912438D01*
X158247619Y-125912438D02*
X158295238Y-125960057D01*
X158295238Y-125960057D02*
X158342857Y-126055295D01*
X158342857Y-126055295D02*
X158342857Y-126150533D01*
X158342857Y-126150533D02*
X158295238Y-126293390D01*
X158295238Y-126293390D02*
X157723810Y-126864819D01*
X157723810Y-126864819D02*
X158342857Y-126864819D01*
X124666666Y-100404819D02*
X124666666Y-101119104D01*
X124666666Y-101119104D02*
X124619047Y-101261961D01*
X124619047Y-101261961D02*
X124523809Y-101357200D01*
X124523809Y-101357200D02*
X124380952Y-101404819D01*
X124380952Y-101404819D02*
X124285714Y-101404819D01*
X125571428Y-100404819D02*
X125380952Y-100404819D01*
X125380952Y-100404819D02*
X125285714Y-100452438D01*
X125285714Y-100452438D02*
X125238095Y-100500057D01*
X125238095Y-100500057D02*
X125142857Y-100642914D01*
X125142857Y-100642914D02*
X125095238Y-100833390D01*
X125095238Y-100833390D02*
X125095238Y-101214342D01*
X125095238Y-101214342D02*
X125142857Y-101309580D01*
X125142857Y-101309580D02*
X125190476Y-101357200D01*
X125190476Y-101357200D02*
X125285714Y-101404819D01*
X125285714Y-101404819D02*
X125476190Y-101404819D01*
X125476190Y-101404819D02*
X125571428Y-101357200D01*
X125571428Y-101357200D02*
X125619047Y-101309580D01*
X125619047Y-101309580D02*
X125666666Y-101214342D01*
X125666666Y-101214342D02*
X125666666Y-100976247D01*
X125666666Y-100976247D02*
X125619047Y-100881009D01*
X125619047Y-100881009D02*
X125571428Y-100833390D01*
X125571428Y-100833390D02*
X125476190Y-100785771D01*
X125476190Y-100785771D02*
X125285714Y-100785771D01*
X125285714Y-100785771D02*
X125190476Y-100833390D01*
X125190476Y-100833390D02*
X125142857Y-100881009D01*
X125142857Y-100881009D02*
X125095238Y-100976247D01*
D12*
X136233857Y-112934928D02*
X136233857Y-111434928D01*
X136233857Y-111434928D02*
X136591000Y-111434928D01*
X136591000Y-111434928D02*
X136805286Y-111506357D01*
X136805286Y-111506357D02*
X136948143Y-111649214D01*
X136948143Y-111649214D02*
X137019572Y-111792071D01*
X137019572Y-111792071D02*
X137091000Y-112077785D01*
X137091000Y-112077785D02*
X137091000Y-112292071D01*
X137091000Y-112292071D02*
X137019572Y-112577785D01*
X137019572Y-112577785D02*
X136948143Y-112720642D01*
X136948143Y-112720642D02*
X136805286Y-112863500D01*
X136805286Y-112863500D02*
X136591000Y-112934928D01*
X136591000Y-112934928D02*
X136233857Y-112934928D01*
X137591000Y-111434928D02*
X138519572Y-111434928D01*
X138519572Y-111434928D02*
X138019572Y-112006357D01*
X138019572Y-112006357D02*
X138233857Y-112006357D01*
X138233857Y-112006357D02*
X138376715Y-112077785D01*
X138376715Y-112077785D02*
X138448143Y-112149214D01*
X138448143Y-112149214D02*
X138519572Y-112292071D01*
X138519572Y-112292071D02*
X138519572Y-112649214D01*
X138519572Y-112649214D02*
X138448143Y-112792071D01*
X138448143Y-112792071D02*
X138376715Y-112863500D01*
X138376715Y-112863500D02*
X138233857Y-112934928D01*
X138233857Y-112934928D02*
X137805286Y-112934928D01*
X137805286Y-112934928D02*
X137662429Y-112863500D01*
X137662429Y-112863500D02*
X137591000Y-112792071D01*
D10*
X139333333Y-96960819D02*
X139000000Y-96484628D01*
X138761905Y-96960819D02*
X138761905Y-95960819D01*
X138761905Y-95960819D02*
X139142857Y-95960819D01*
X139142857Y-95960819D02*
X139238095Y-96008438D01*
X139238095Y-96008438D02*
X139285714Y-96056057D01*
X139285714Y-96056057D02*
X139333333Y-96151295D01*
X139333333Y-96151295D02*
X139333333Y-96294152D01*
X139333333Y-96294152D02*
X139285714Y-96389390D01*
X139285714Y-96389390D02*
X139238095Y-96437009D01*
X139238095Y-96437009D02*
X139142857Y-96484628D01*
X139142857Y-96484628D02*
X138761905Y-96484628D01*
X139666667Y-95960819D02*
X140333333Y-95960819D01*
X140333333Y-95960819D02*
X139904762Y-96960819D01*
X138538095Y-131254819D02*
X138538095Y-132064342D01*
X138538095Y-132064342D02*
X138585714Y-132159580D01*
X138585714Y-132159580D02*
X138633333Y-132207200D01*
X138633333Y-132207200D02*
X138728571Y-132254819D01*
X138728571Y-132254819D02*
X138919047Y-132254819D01*
X138919047Y-132254819D02*
X139014285Y-132207200D01*
X139014285Y-132207200D02*
X139061904Y-132159580D01*
X139061904Y-132159580D02*
X139109523Y-132064342D01*
X139109523Y-132064342D02*
X139109523Y-131254819D01*
X140109523Y-132254819D02*
X139538095Y-132254819D01*
X139823809Y-132254819D02*
X139823809Y-131254819D01*
X139823809Y-131254819D02*
X139728571Y-131397676D01*
X139728571Y-131397676D02*
X139633333Y-131492914D01*
X139633333Y-131492914D02*
X139538095Y-131540533D01*
X139155533Y-109660819D02*
X138822200Y-109184628D01*
X138584105Y-109660819D02*
X138584105Y-108660819D01*
X138584105Y-108660819D02*
X138965057Y-108660819D01*
X138965057Y-108660819D02*
X139060295Y-108708438D01*
X139060295Y-108708438D02*
X139107914Y-108756057D01*
X139107914Y-108756057D02*
X139155533Y-108851295D01*
X139155533Y-108851295D02*
X139155533Y-108994152D01*
X139155533Y-108994152D02*
X139107914Y-109089390D01*
X139107914Y-109089390D02*
X139060295Y-109137009D01*
X139060295Y-109137009D02*
X138965057Y-109184628D01*
X138965057Y-109184628D02*
X138584105Y-109184628D01*
X140012676Y-108994152D02*
X140012676Y-109660819D01*
X139774581Y-108613200D02*
X139536486Y-109327485D01*
X139536486Y-109327485D02*
X140155533Y-109327485D01*
X139603571Y-123599104D02*
X140079761Y-123599104D01*
X139508333Y-123884819D02*
X139841666Y-122884819D01*
X139841666Y-122884819D02*
X140174999Y-123884819D01*
X140460714Y-123837200D02*
X140603571Y-123884819D01*
X140603571Y-123884819D02*
X140841666Y-123884819D01*
X140841666Y-123884819D02*
X140936904Y-123837200D01*
X140936904Y-123837200D02*
X140984523Y-123789580D01*
X140984523Y-123789580D02*
X141032142Y-123694342D01*
X141032142Y-123694342D02*
X141032142Y-123599104D01*
X141032142Y-123599104D02*
X140984523Y-123503866D01*
X140984523Y-123503866D02*
X140936904Y-123456247D01*
X140936904Y-123456247D02*
X140841666Y-123408628D01*
X140841666Y-123408628D02*
X140651190Y-123361009D01*
X140651190Y-123361009D02*
X140555952Y-123313390D01*
X140555952Y-123313390D02*
X140508333Y-123265771D01*
X140508333Y-123265771D02*
X140460714Y-123170533D01*
X140460714Y-123170533D02*
X140460714Y-123075295D01*
X140460714Y-123075295D02*
X140508333Y-122980057D01*
X140508333Y-122980057D02*
X140555952Y-122932438D01*
X140555952Y-122932438D02*
X140651190Y-122884819D01*
X140651190Y-122884819D02*
X140889285Y-122884819D01*
X140889285Y-122884819D02*
X141032142Y-122932438D01*
X141317857Y-123218152D02*
X141698809Y-123218152D01*
X141460714Y-122884819D02*
X141460714Y-123741961D01*
X141460714Y-123741961D02*
X141508333Y-123837200D01*
X141508333Y-123837200D02*
X141603571Y-123884819D01*
X141603571Y-123884819D02*
X141698809Y-123884819D01*
X142460714Y-123884819D02*
X142460714Y-123361009D01*
X142460714Y-123361009D02*
X142413095Y-123265771D01*
X142413095Y-123265771D02*
X142317857Y-123218152D01*
X142317857Y-123218152D02*
X142127381Y-123218152D01*
X142127381Y-123218152D02*
X142032143Y-123265771D01*
X142460714Y-123837200D02*
X142365476Y-123884819D01*
X142365476Y-123884819D02*
X142127381Y-123884819D01*
X142127381Y-123884819D02*
X142032143Y-123837200D01*
X142032143Y-123837200D02*
X141984524Y-123741961D01*
X141984524Y-123741961D02*
X141984524Y-123646723D01*
X141984524Y-123646723D02*
X142032143Y-123551485D01*
X142032143Y-123551485D02*
X142127381Y-123503866D01*
X142127381Y-123503866D02*
X142365476Y-123503866D01*
X142365476Y-123503866D02*
X142460714Y-123456247D01*
X142794048Y-123218152D02*
X143175000Y-123218152D01*
X142936905Y-122884819D02*
X142936905Y-123741961D01*
X142936905Y-123741961D02*
X142984524Y-123837200D01*
X142984524Y-123837200D02*
X143079762Y-123884819D01*
X143079762Y-123884819D02*
X143175000Y-123884819D01*
X143936905Y-123218152D02*
X143936905Y-123884819D01*
X143508334Y-123218152D02*
X143508334Y-123741961D01*
X143508334Y-123741961D02*
X143555953Y-123837200D01*
X143555953Y-123837200D02*
X143651191Y-123884819D01*
X143651191Y-123884819D02*
X143794048Y-123884819D01*
X143794048Y-123884819D02*
X143889286Y-123837200D01*
X143889286Y-123837200D02*
X143936905Y-123789580D01*
X144365477Y-123837200D02*
X144460715Y-123884819D01*
X144460715Y-123884819D02*
X144651191Y-123884819D01*
X144651191Y-123884819D02*
X144746429Y-123837200D01*
X144746429Y-123837200D02*
X144794048Y-123741961D01*
X144794048Y-123741961D02*
X144794048Y-123694342D01*
X144794048Y-123694342D02*
X144746429Y-123599104D01*
X144746429Y-123599104D02*
X144651191Y-123551485D01*
X144651191Y-123551485D02*
X144508334Y-123551485D01*
X144508334Y-123551485D02*
X144413096Y-123503866D01*
X144413096Y-123503866D02*
X144365477Y-123408628D01*
X144365477Y-123408628D02*
X144365477Y-123361009D01*
X144365477Y-123361009D02*
X144413096Y-123265771D01*
X144413096Y-123265771D02*
X144508334Y-123218152D01*
X144508334Y-123218152D02*
X144651191Y-123218152D01*
X144651191Y-123218152D02*
X144746429Y-123265771D01*
X145746429Y-123884819D02*
X145175001Y-123884819D01*
X145460715Y-123884819D02*
X145460715Y-122884819D01*
X145460715Y-122884819D02*
X145365477Y-123027676D01*
X145365477Y-123027676D02*
X145270239Y-123122914D01*
X145270239Y-123122914D02*
X145175001Y-123170533D01*
D14*
X144462500Y-108015000D02*
X143812500Y-108015000D01*
X144462500Y-108015000D02*
X145112500Y-108015000D01*
X144462500Y-111135000D02*
X143812500Y-111135000D01*
X144462500Y-111135000D02*
X145112500Y-111135000D01*
X143300000Y-108065000D02*
X143060000Y-107735000D01*
X143540000Y-107735000D01*
X143300000Y-108065000D01*
G36*
X143300000Y-108065000D02*
G01*
X143060000Y-107735000D01*
X143540000Y-107735000D01*
X143300000Y-108065000D01*
G37*
X146197936Y-124615000D02*
X146652064Y-124615000D01*
X146197936Y-126085000D02*
X146652064Y-126085000D01*
X144450000Y-95490000D02*
X143800000Y-95490000D01*
X144450000Y-95490000D02*
X145100000Y-95490000D01*
X144450000Y-98610000D02*
X143800000Y-98610000D01*
X144450000Y-98610000D02*
X145100000Y-98610000D01*
X143287500Y-95540000D02*
X143047500Y-95210000D01*
X143527500Y-95210000D01*
X143287500Y-95540000D01*
G36*
X143287500Y-95540000D02*
G01*
X143047500Y-95210000D01*
X143527500Y-95210000D01*
X143287500Y-95540000D01*
G37*
D11*
X135140000Y-123675000D02*
X135140000Y-123925000D01*
X135140000Y-126375000D02*
X135140000Y-126125000D01*
X138340000Y-126275000D02*
X138340000Y-123775000D01*
X139515000Y-123675000D02*
X135165000Y-123675000D01*
X139515000Y-126375000D02*
X135165000Y-126375000D01*
X139540000Y-123675000D02*
X139540000Y-123925000D01*
X139540000Y-126375000D02*
X139540000Y-126125000D01*
D14*
X136702064Y-121040000D02*
X136247936Y-121040000D01*
X136702064Y-122510000D02*
X136247936Y-122510000D01*
X144450000Y-120852500D02*
X143800000Y-120852500D01*
X144450000Y-120852500D02*
X145100000Y-120852500D01*
X144450000Y-123972500D02*
X143800000Y-123972500D01*
X144450000Y-123972500D02*
X145100000Y-123972500D01*
X143287500Y-120902500D02*
X143047500Y-120572500D01*
X143527500Y-120572500D01*
X143287500Y-120902500D01*
G36*
X143287500Y-120902500D02*
G01*
X143047500Y-120572500D01*
X143527500Y-120572500D01*
X143287500Y-120902500D01*
G37*
D10*
X149505000Y-85533200D02*
G75*
G02*
X146005000Y-85533200I-1750000J0D01*
G01*
X146005000Y-85533200D02*
G75*
G02*
X149505000Y-85533200I1750000J0D01*
G01*
D14*
X146222936Y-99240000D02*
X146677064Y-99240000D01*
X146222936Y-100710000D02*
X146677064Y-100710000D01*
D10*
X115900000Y-121010000D02*
X133900000Y-121010000D01*
X115900000Y-125910000D02*
X115900000Y-121010000D01*
X118900000Y-124910000D02*
X118900000Y-125910000D01*
X118900000Y-125910000D02*
X115900000Y-125910000D01*
X130900000Y-124910000D02*
X118900000Y-124910000D01*
X130900000Y-125910000D02*
X130900000Y-124910000D01*
X133900000Y-121010000D02*
X133900000Y-125910000D01*
X133900000Y-125910000D02*
X130900000Y-125910000D01*
D14*
X140640000Y-111565000D02*
X140640000Y-113485000D01*
X140640000Y-113485000D02*
X143500000Y-113485000D01*
X143500000Y-111565000D02*
X140640000Y-111565000D01*
D10*
X148200000Y-95550000D02*
X166200000Y-95550000D01*
X148200000Y-100450000D02*
X148200000Y-95550000D01*
X151200000Y-99450000D02*
X151200000Y-100450000D01*
X151200000Y-100450000D02*
X148200000Y-100450000D01*
X163200000Y-99450000D02*
X151200000Y-99450000D01*
X163200000Y-100450000D02*
X163200000Y-99450000D01*
X166200000Y-95550000D02*
X166200000Y-100450000D01*
X166200000Y-100450000D02*
X163200000Y-100450000D01*
D14*
X136965000Y-115390000D02*
X136965000Y-115605000D01*
X136965000Y-118210000D02*
X136965000Y-117995000D01*
X139275000Y-115390000D02*
X136965000Y-115390000D01*
X139275000Y-115390000D02*
X141585000Y-115390000D01*
X139275000Y-118210000D02*
X136965000Y-118210000D01*
X139275000Y-118210000D02*
X141585000Y-118210000D01*
X141585000Y-115390000D02*
X141585000Y-115605000D01*
X141585000Y-118210000D02*
X141585000Y-117995000D01*
X142615000Y-118325000D02*
X142135000Y-118325000D01*
X142375000Y-117995000D01*
X142615000Y-118325000D01*
G36*
X142615000Y-118325000D02*
G01*
X142135000Y-118325000D01*
X142375000Y-117995000D01*
X142615000Y-118325000D01*
G37*
X158608748Y-90564000D02*
X159131252Y-90564000D01*
X158608748Y-92034000D02*
X159131252Y-92034000D01*
X141865000Y-88487500D02*
X141865000Y-87837500D01*
X141865000Y-88487500D02*
X141865000Y-89137500D01*
X144985000Y-88487500D02*
X144985000Y-87837500D01*
X144985000Y-88487500D02*
X144985000Y-89137500D01*
X141915000Y-89650000D02*
X141585000Y-89890000D01*
X141585000Y-89410000D01*
X141915000Y-89650000D01*
G36*
X141915000Y-89650000D02*
G01*
X141585000Y-89890000D01*
X141585000Y-89410000D01*
X141915000Y-89650000D01*
G37*
D10*
X148200000Y-108225000D02*
X166200000Y-108225000D01*
X148200000Y-113125000D02*
X148200000Y-108225000D01*
X151200000Y-112125000D02*
X151200000Y-113125000D01*
X151200000Y-113125000D02*
X148200000Y-113125000D01*
X163200000Y-112125000D02*
X151200000Y-112125000D01*
X163200000Y-113125000D02*
X163200000Y-112125000D01*
X166200000Y-108225000D02*
X166200000Y-113125000D01*
X166200000Y-113125000D02*
X163200000Y-113125000D01*
D14*
X131665000Y-137265000D02*
X131665000Y-140340000D01*
X133085000Y-141355000D02*
X133085000Y-141855000D01*
X133085000Y-141855000D02*
X133105000Y-141855000D01*
X140095000Y-141855000D02*
X140115000Y-141855000D01*
X140115000Y-141355000D02*
X133085000Y-141355000D01*
X140115000Y-141855000D02*
X140115000Y-141355000D01*
X141535000Y-137265000D02*
X131665000Y-137265000D01*
X141535000Y-140340000D02*
X141535000Y-137265000D01*
X145145000Y-104172936D02*
X145145000Y-104627064D01*
X146615000Y-104172936D02*
X146615000Y-104627064D01*
X136665000Y-102740000D02*
X136665000Y-102955000D01*
X136665000Y-105560000D02*
X136665000Y-105345000D01*
X138975000Y-102740000D02*
X136665000Y-102740000D01*
X138975000Y-102740000D02*
X141285000Y-102740000D01*
X138975000Y-105560000D02*
X136665000Y-105560000D01*
X138975000Y-105560000D02*
X141285000Y-105560000D01*
X141285000Y-102740000D02*
X141285000Y-102955000D01*
X141285000Y-105560000D02*
X141285000Y-105345000D01*
X142315000Y-105675000D02*
X141835000Y-105675000D01*
X142075000Y-105345000D01*
X142315000Y-105675000D01*
G36*
X142315000Y-105675000D02*
G01*
X141835000Y-105675000D01*
X142075000Y-105345000D01*
X142315000Y-105675000D01*
G37*
D11*
X147985000Y-91725000D02*
X146385000Y-91725000D01*
X147985000Y-93325000D02*
X146385000Y-93325000D01*
D15*
X149885000Y-92525000D02*
X149885000Y-92525000D01*
X149985000Y-92525000D02*
X149985000Y-92525000D01*
X149885000Y-92525000D02*
G75*
G02*
X149985000Y-92525000I50000J0D01*
G01*
X149985000Y-92525000D02*
G75*
G02*
X149885000Y-92525000I-50000J0D01*
G01*
D14*
X123965000Y-130380000D02*
X123965000Y-133455000D01*
X125385000Y-134470000D02*
X125385000Y-134970000D01*
X125385000Y-134970000D02*
X125405000Y-134970000D01*
X132395000Y-134970000D02*
X132415000Y-134970000D01*
X132415000Y-134470000D02*
X125385000Y-134470000D01*
X132415000Y-134970000D02*
X132415000Y-134470000D01*
X133835000Y-130380000D02*
X123965000Y-130380000D01*
X133835000Y-133455000D02*
X133835000Y-130380000D01*
X126773064Y-90691000D02*
X126318936Y-90691000D01*
X126773064Y-92161000D02*
X126318936Y-92161000D01*
D11*
X135325000Y-98175000D02*
X135325000Y-98425000D01*
X135325000Y-100875000D02*
X135325000Y-100625000D01*
X138525000Y-100775000D02*
X138525000Y-98275000D01*
X139700000Y-98175000D02*
X135350000Y-98175000D01*
X139700000Y-100875000D02*
X135350000Y-100875000D01*
X139725000Y-98175000D02*
X139725000Y-98425000D01*
X139725000Y-100875000D02*
X139725000Y-100625000D01*
D14*
X131035800Y-85230200D02*
X131035800Y-88305200D01*
X131035800Y-88305200D02*
X140905800Y-88305200D01*
X132455800Y-83715200D02*
X132455800Y-84215200D01*
X132455800Y-84215200D02*
X139485800Y-84215200D01*
X132475800Y-83715200D02*
X132455800Y-83715200D01*
X139485800Y-83715200D02*
X139465800Y-83715200D01*
X139485800Y-84215200D02*
X139485800Y-83715200D01*
X140905800Y-88305200D02*
X140905800Y-85230200D01*
X146072936Y-111790000D02*
X146527064Y-111790000D01*
X146072936Y-113260000D02*
X146527064Y-113260000D01*
X145065000Y-129672936D02*
X145065000Y-130127064D01*
X146535000Y-129672936D02*
X146535000Y-130127064D01*
D10*
X153975400Y-85482400D02*
G75*
G02*
X150475400Y-85482400I-1750000J0D01*
G01*
X150475400Y-85482400D02*
G75*
G02*
X153975400Y-85482400I1750000J0D01*
G01*
D14*
X141765000Y-92677064D02*
X141765000Y-92222936D01*
X143235000Y-92677064D02*
X143235000Y-92222936D01*
X145065000Y-116832936D02*
X145065000Y-117287064D01*
X146535000Y-116832936D02*
X146535000Y-117287064D01*
X137684800Y-94077400D02*
X137684800Y-91417400D01*
X137684800Y-94077400D02*
X139384800Y-94077400D01*
X139384800Y-94077400D02*
X139384800Y-91417400D01*
D10*
X115900000Y-108225000D02*
X133900000Y-108225000D01*
X115900000Y-113125000D02*
X115900000Y-108225000D01*
X118900000Y-112125000D02*
X118900000Y-113125000D01*
X118900000Y-113125000D02*
X115900000Y-113125000D01*
X130900000Y-112125000D02*
X118900000Y-112125000D01*
X130900000Y-113125000D02*
X130900000Y-112125000D01*
X133900000Y-108225000D02*
X133900000Y-113125000D01*
X133900000Y-113125000D02*
X130900000Y-113125000D01*
D14*
X140815000Y-99015000D02*
X140815000Y-100935000D01*
X140815000Y-100935000D02*
X143675000Y-100935000D01*
X143675000Y-99015000D02*
X140815000Y-99015000D01*
D10*
X148200000Y-121010000D02*
X166200000Y-121010000D01*
X148200000Y-125910000D02*
X148200000Y-121010000D01*
X151200000Y-124910000D02*
X151200000Y-125910000D01*
X151200000Y-125910000D02*
X148200000Y-125910000D01*
X163200000Y-124910000D02*
X151200000Y-124910000D01*
X163200000Y-125910000D02*
X163200000Y-124910000D01*
X166200000Y-121010000D02*
X166200000Y-125910000D01*
X166200000Y-125910000D02*
X163200000Y-125910000D01*
D14*
X130626000Y-92386000D02*
X133486000Y-92386000D01*
X133486000Y-90466000D02*
X130626000Y-90466000D01*
X133486000Y-92386000D02*
X133486000Y-90466000D01*
D10*
X116000000Y-95550000D02*
X134000000Y-95550000D01*
X116000000Y-100450000D02*
X116000000Y-95550000D01*
X119000000Y-99450000D02*
X119000000Y-100450000D01*
X119000000Y-100450000D02*
X116000000Y-100450000D01*
X131000000Y-99450000D02*
X119000000Y-99450000D01*
X131000000Y-100450000D02*
X131000000Y-99450000D01*
X134000000Y-95550000D02*
X134000000Y-100450000D01*
X134000000Y-100450000D02*
X131000000Y-100450000D01*
D11*
X135225000Y-110775000D02*
X135225000Y-111025000D01*
X135225000Y-113475000D02*
X135225000Y-113225000D01*
X138425000Y-113375000D02*
X138425000Y-110875000D01*
X139600000Y-110775000D02*
X135250000Y-110775000D01*
X139600000Y-113475000D02*
X135250000Y-113475000D01*
X139625000Y-110775000D02*
X139625000Y-111025000D01*
X139625000Y-113475000D02*
X139625000Y-113225000D01*
D14*
X136852064Y-95690000D02*
X136397936Y-95690000D01*
X136852064Y-97160000D02*
X136397936Y-97160000D01*
X136990000Y-128140000D02*
X136990000Y-128355000D01*
X136990000Y-130960000D02*
X136990000Y-130745000D01*
X139300000Y-128140000D02*
X136990000Y-128140000D01*
X139300000Y-128140000D02*
X141610000Y-128140000D01*
X139300000Y-130960000D02*
X136990000Y-130960000D01*
X139300000Y-130960000D02*
X141610000Y-130960000D01*
X141610000Y-128140000D02*
X141610000Y-128355000D01*
X141610000Y-130960000D02*
X141610000Y-130745000D01*
X142640000Y-131075000D02*
X142160000Y-131075000D01*
X142400000Y-130745000D01*
X142640000Y-131075000D01*
G36*
X142640000Y-131075000D02*
G01*
X142160000Y-131075000D01*
X142400000Y-130745000D01*
X142640000Y-131075000D01*
G37*
X136702064Y-108340000D02*
X136247936Y-108340000D01*
X136702064Y-109810000D02*
X136247936Y-109810000D01*
X151265000Y-130005000D02*
X151265000Y-133080000D01*
X152685000Y-134095000D02*
X152685000Y-134595000D01*
X152685000Y-134595000D02*
X152705000Y-134595000D01*
X159695000Y-134595000D02*
X159715000Y-134595000D01*
X159715000Y-134095000D02*
X152685000Y-134095000D01*
X159715000Y-134595000D02*
X159715000Y-134095000D01*
X161135000Y-130005000D02*
X151265000Y-130005000D01*
X161135000Y-133080000D02*
X161135000Y-130005000D01*
X140715000Y-124390000D02*
X140715000Y-126310000D01*
X140715000Y-126310000D02*
X143575000Y-126310000D01*
X143575000Y-124390000D02*
X140715000Y-124390000D01*
X143665000Y-137180000D02*
X143665000Y-140255000D01*
X145085000Y-141270000D02*
X145085000Y-141770000D01*
X145085000Y-141770000D02*
X145105000Y-141770000D01*
X152095000Y-141770000D02*
X152115000Y-141770000D01*
X152115000Y-141270000D02*
X145085000Y-141270000D01*
X152115000Y-141770000D02*
X152115000Y-141270000D01*
X153535000Y-137180000D02*
X143665000Y-137180000D01*
X153535000Y-140255000D02*
X153535000Y-137180000D01*
%LPC*%
D16*
X143525000Y-108625000D03*
X143525000Y-110525000D03*
X145400000Y-109575000D03*
D17*
X119299997Y-140300000D03*
D18*
X145512500Y-125350000D03*
X147337500Y-125350000D03*
D16*
X143512500Y-96100000D03*
X143512500Y-98000000D03*
X145387500Y-97050000D03*
D19*
X135180000Y-125025000D03*
X139500000Y-125025000D03*
D20*
X137475000Y-121775000D03*
X135475000Y-121775000D03*
D16*
X143512500Y-121462500D03*
X143512500Y-123362500D03*
X145387500Y-122412500D03*
D21*
X147755000Y-85533200D03*
D18*
X145537500Y-99975000D03*
X147362500Y-99975000D03*
D17*
X163000000Y-140300000D03*
D22*
X132400000Y-124870000D03*
X117400000Y-124870000D03*
D23*
X129400000Y-122910000D03*
X126400000Y-122910000D03*
X123400000Y-122910000D03*
X120400000Y-122910000D03*
D24*
X141475000Y-112525000D03*
X143525000Y-112525000D03*
D22*
X164700000Y-99410000D03*
X149700000Y-99410000D03*
D23*
X161700000Y-97450000D03*
X158700000Y-97450000D03*
X155700000Y-97450000D03*
X152700000Y-97450000D03*
D25*
X142462500Y-117435000D03*
X142462500Y-116165000D03*
X136087500Y-116165000D03*
X136087500Y-117435000D03*
D26*
X157920000Y-91299000D03*
X159820000Y-91299000D03*
D27*
X142475000Y-89425000D03*
X144375000Y-89425000D03*
X143425000Y-87550000D03*
D22*
X164700000Y-112085000D03*
X149700000Y-112085000D03*
D23*
X161700000Y-110125000D03*
X158700000Y-110125000D03*
X155700000Y-110125000D03*
X152700000Y-110125000D03*
D22*
X141100000Y-141235000D03*
X132100000Y-141235000D03*
D28*
X138100000Y-139275000D03*
D29*
X135100000Y-139275000D03*
D30*
X145880000Y-103400000D03*
X145880000Y-105400000D03*
D25*
X142162500Y-104785000D03*
X142162500Y-103515000D03*
X135787500Y-103515000D03*
X135787500Y-104785000D03*
D31*
X148820000Y-92525000D03*
X145550000Y-92525000D03*
D22*
X133400000Y-134350000D03*
X124400000Y-134350000D03*
D28*
X130400000Y-132390000D03*
D29*
X127400000Y-132390000D03*
D32*
X127458500Y-91426000D03*
X125633500Y-91426000D03*
D17*
X163000000Y-86600000D03*
D19*
X135365000Y-99525000D03*
X139685000Y-99525000D03*
D22*
X131470800Y-84335200D03*
X140470800Y-84335200D03*
D33*
X134470800Y-86295200D03*
D29*
X137470800Y-86295200D03*
D18*
X145387500Y-112525000D03*
X147212500Y-112525000D03*
D30*
X145800000Y-128900000D03*
X145800000Y-130900000D03*
D21*
X152225400Y-85482400D03*
D34*
X142500000Y-93450000D03*
X142500000Y-91450000D03*
D17*
X119299997Y-86600000D03*
D30*
X145800000Y-116060000D03*
X145800000Y-118060000D03*
D35*
X138534800Y-93517400D03*
X138534800Y-91417400D03*
D22*
X132400000Y-112085000D03*
X117400000Y-112085000D03*
D23*
X129400000Y-110125000D03*
X126400000Y-110125000D03*
X123400000Y-110125000D03*
X120400000Y-110125000D03*
D24*
X141650000Y-99975000D03*
X143700000Y-99975000D03*
D22*
X164700000Y-124870000D03*
X149700000Y-124870000D03*
D23*
X161700000Y-122910000D03*
X158700000Y-122910000D03*
X155700000Y-122910000D03*
X152700000Y-122910000D03*
D36*
X132651000Y-91426000D03*
X130601000Y-91426000D03*
D22*
X132500000Y-99410000D03*
X117500000Y-99410000D03*
D23*
X129500000Y-97450000D03*
X126500000Y-97450000D03*
X123500000Y-97450000D03*
X120500000Y-97450000D03*
D19*
X135265000Y-112125000D03*
X139585000Y-112125000D03*
D20*
X137625000Y-96425000D03*
X135625000Y-96425000D03*
D25*
X142487500Y-130185000D03*
X142487500Y-128915000D03*
X136112500Y-128915000D03*
X136112500Y-130185000D03*
D20*
X137475000Y-109075000D03*
X135475000Y-109075000D03*
D22*
X160700000Y-133975000D03*
X151700000Y-133975000D03*
D28*
X157700000Y-132015000D03*
D29*
X154700000Y-132015000D03*
D24*
X141550000Y-125350000D03*
X143600000Y-125350000D03*
D22*
X153100000Y-141150000D03*
X144100000Y-141150000D03*
D28*
X150100000Y-139190000D03*
D29*
X147100000Y-139190000D03*
%LPD*%
M02*
