G04 #@! TF.GenerationSoftware,KiCad,Pcbnew,7.0.2*
G04 #@! TF.CreationDate,2023-08-23T16:22:14-05:00*
G04 #@! TF.ProjectId,ContactorDriver,436f6e74-6163-4746-9f72-447269766572,rev?*
G04 #@! TF.SameCoordinates,Original*
G04 #@! TF.FileFunction,Legend,Top*
G04 #@! TF.FilePolarity,Positive*
%FSLAX46Y46*%
G04 Gerber Fmt 4.6, Leading zero omitted, Abs format (unit mm)*
G04 Created by KiCad (PCBNEW 7.0.2) date 2023-08-23 16:22:14*
%MOMM*%
%LPD*%
G01*
G04 APERTURE LIST*
G04 Aperture macros list*
%AMRoundRect*
0 Rectangle with rounded corners*
0 $1 Rounding radius*
0 $2 $3 $4 $5 $6 $7 $8 $9 X,Y pos of 4 corners*
0 Add a 4 corners polygon primitive as box body*
4,1,4,$2,$3,$4,$5,$6,$7,$8,$9,$2,$3,0*
0 Add four circle primitives for the rounded corners*
1,1,$1+$1,$2,$3*
1,1,$1+$1,$4,$5*
1,1,$1+$1,$6,$7*
1,1,$1+$1,$8,$9*
0 Add four rect primitives between the rounded corners*
20,1,$1+$1,$2,$3,$4,$5,0*
20,1,$1+$1,$4,$5,$6,$7,0*
20,1,$1+$1,$6,$7,$8,$9,0*
20,1,$1+$1,$8,$9,$2,$3,0*%
G04 Aperture macros list end*
%ADD10C,0.120000*%
%ADD11C,0.100000*%
%ADD12C,0.150000*%
%ADD13C,0.500000*%
%ADD14C,0.375000*%
%ADD15C,0.152400*%
%ADD16RoundRect,0.301000X0.450000X-0.325000X0.450000X0.325000X-0.450000X0.325000X-0.450000X-0.325000X0*%
%ADD17C,3.000000*%
%ADD18RoundRect,0.301001X-0.759999X0.499999X-0.759999X-0.499999X0.759999X-0.499999X0.759999X0.499999X0*%
%ADD19O,2.122000X1.602000*%
%ADD20RoundRect,0.201000X-0.800000X-0.150000X0.800000X-0.150000X0.800000X0.150000X-0.800000X0.150000X0*%
%ADD21RoundRect,0.301000X-0.350000X-0.450000X0.350000X-0.450000X0.350000X0.450000X-0.350000X0.450000X0*%
%ADD22RoundRect,0.301000X0.450000X-0.262500X0.450000X0.262500X-0.450000X0.262500X-0.450000X-0.262500X0*%
%ADD23RoundRect,0.301000X0.850000X0.350000X-0.850000X0.350000X-0.850000X-0.350000X0.850000X-0.350000X0*%
%ADD24RoundRect,0.300997X2.950003X2.650003X-2.950003X2.650003X-2.950003X-2.650003X2.950003X-2.650003X0*%
%ADD25C,4.602880*%
%ADD26C,3.200000*%
%ADD27RoundRect,0.301000X-0.475000X0.250000X-0.475000X-0.250000X0.475000X-0.250000X0.475000X0.250000X0*%
%ADD28RoundRect,0.301000X-0.250000X-0.475000X0.250000X-0.475000X0.250000X0.475000X-0.250000X0.475000X0*%
%ADD29RoundRect,0.301000X-0.350000X0.850000X-0.350000X-0.850000X0.350000X-0.850000X0.350000X0.850000X0*%
%ADD30RoundRect,0.300997X-2.650003X2.950003X-2.650003X-2.950003X2.650003X-2.950003X2.650003X2.950003X0*%
%ADD31O,1.902000X1.302000*%
%ADD32RoundRect,0.269750X-0.218750X-0.381250X0.218750X-0.381250X0.218750X0.381250X-0.218750X0.381250X0*%
%ADD33RoundRect,0.051000X-0.596900X0.520700X-0.596900X-0.520700X0.596900X-0.520700X0.596900X0.520700X0*%
%ADD34C,1.270000*%
%ADD35C,1.802000*%
%ADD36C,2.902000*%
%ADD37RoundRect,0.269750X0.218750X0.381250X-0.218750X0.381250X-0.218750X-0.381250X0.218750X-0.381250X0*%
%ADD38RoundRect,0.051000X0.325000X0.200000X-0.325000X0.200000X-0.325000X-0.200000X0.325000X-0.200000X0*%
%ADD39RoundRect,0.301000X0.475000X-0.250000X0.475000X0.250000X-0.475000X0.250000X-0.475000X-0.250000X0*%
%ADD40RoundRect,0.163500X-0.112500X0.187500X-0.112500X-0.187500X0.112500X-0.187500X0.112500X0.187500X0*%
%ADD41C,2.388000*%
G04 APERTURE END LIST*
D10*
X196000000Y-118500000D02*
X202000000Y-118500000D01*
X217400000Y-158200000D02*
X211000000Y-158200000D01*
X202000000Y-118500000D02*
X202000000Y-158200000D01*
X211000000Y-158200000D02*
X211000000Y-118500000D01*
X211000000Y-118500000D02*
X202000000Y-118500000D01*
X202000000Y-158200000D02*
X211000000Y-158200000D01*
D11*
X211000000Y-158200000D02*
X202000000Y-158200000D01*
X202000000Y-118500000D01*
X211000000Y-118500000D01*
X211000000Y-158200000D01*
G36*
X211000000Y-158200000D02*
G01*
X202000000Y-158200000D01*
X202000000Y-118500000D01*
X211000000Y-118500000D01*
X211000000Y-158200000D01*
G37*
D10*
X169500000Y-88500000D02*
X171000000Y-88500000D01*
X12700000Y-12700000D02*
X88900000Y-12700000D01*
X88900000Y-78740000D01*
X12700000Y-78740000D01*
X12700000Y-12700000D01*
X12700000Y-17780000D02*
X88900000Y-17780000D01*
X169500000Y-85500000D02*
X171000000Y-85500000D01*
X171000000Y-85500000D02*
X171000000Y-86000000D01*
X171000000Y-88500000D02*
X171000000Y-88000000D01*
D12*
X215238095Y-101581666D02*
X216000000Y-101581666D01*
X215619047Y-101962619D02*
X215619047Y-101200714D01*
X216999999Y-101962619D02*
X216428571Y-101962619D01*
X216714285Y-101962619D02*
X216714285Y-100962619D01*
X216714285Y-100962619D02*
X216619047Y-101105476D01*
X216619047Y-101105476D02*
X216523809Y-101200714D01*
X216523809Y-101200714D02*
X216428571Y-101248333D01*
X217380952Y-101057857D02*
X217428571Y-101010238D01*
X217428571Y-101010238D02*
X217523809Y-100962619D01*
X217523809Y-100962619D02*
X217761904Y-100962619D01*
X217761904Y-100962619D02*
X217857142Y-101010238D01*
X217857142Y-101010238D02*
X217904761Y-101057857D01*
X217904761Y-101057857D02*
X217952380Y-101153095D01*
X217952380Y-101153095D02*
X217952380Y-101248333D01*
X217952380Y-101248333D02*
X217904761Y-101391190D01*
X217904761Y-101391190D02*
X217333333Y-101962619D01*
X217333333Y-101962619D02*
X217952380Y-101962619D01*
X218238095Y-100962619D02*
X218571428Y-101962619D01*
X218571428Y-101962619D02*
X218904761Y-100962619D01*
X216238095Y-107010238D02*
X216142857Y-106962619D01*
X216142857Y-106962619D02*
X216000000Y-106962619D01*
X216000000Y-106962619D02*
X215857143Y-107010238D01*
X215857143Y-107010238D02*
X215761905Y-107105476D01*
X215761905Y-107105476D02*
X215714286Y-107200714D01*
X215714286Y-107200714D02*
X215666667Y-107391190D01*
X215666667Y-107391190D02*
X215666667Y-107534047D01*
X215666667Y-107534047D02*
X215714286Y-107724523D01*
X215714286Y-107724523D02*
X215761905Y-107819761D01*
X215761905Y-107819761D02*
X215857143Y-107915000D01*
X215857143Y-107915000D02*
X216000000Y-107962619D01*
X216000000Y-107962619D02*
X216095238Y-107962619D01*
X216095238Y-107962619D02*
X216238095Y-107915000D01*
X216238095Y-107915000D02*
X216285714Y-107867380D01*
X216285714Y-107867380D02*
X216285714Y-107534047D01*
X216285714Y-107534047D02*
X216095238Y-107534047D01*
X216714286Y-107962619D02*
X216714286Y-106962619D01*
X216714286Y-106962619D02*
X217285714Y-107962619D01*
X217285714Y-107962619D02*
X217285714Y-106962619D01*
X217761905Y-107962619D02*
X217761905Y-106962619D01*
X217761905Y-106962619D02*
X218000000Y-106962619D01*
X218000000Y-106962619D02*
X218142857Y-107010238D01*
X218142857Y-107010238D02*
X218238095Y-107105476D01*
X218238095Y-107105476D02*
X218285714Y-107200714D01*
X218285714Y-107200714D02*
X218333333Y-107391190D01*
X218333333Y-107391190D02*
X218333333Y-107534047D01*
X218333333Y-107534047D02*
X218285714Y-107724523D01*
X218285714Y-107724523D02*
X218238095Y-107819761D01*
X218238095Y-107819761D02*
X218142857Y-107915000D01*
X218142857Y-107915000D02*
X218000000Y-107962619D01*
X218000000Y-107962619D02*
X217761905Y-107962619D01*
X221652619Y-164928572D02*
X220652619Y-164928572D01*
X220652619Y-164928572D02*
X220652619Y-164547620D01*
X220652619Y-164547620D02*
X220700238Y-164452382D01*
X220700238Y-164452382D02*
X220747857Y-164404763D01*
X220747857Y-164404763D02*
X220843095Y-164357144D01*
X220843095Y-164357144D02*
X220985952Y-164357144D01*
X220985952Y-164357144D02*
X221081190Y-164404763D01*
X221081190Y-164404763D02*
X221128809Y-164452382D01*
X221128809Y-164452382D02*
X221176428Y-164547620D01*
X221176428Y-164547620D02*
X221176428Y-164928572D01*
X221652619Y-163928572D02*
X220985952Y-163928572D01*
X221176428Y-163928572D02*
X221081190Y-163880953D01*
X221081190Y-163880953D02*
X221033571Y-163833334D01*
X221033571Y-163833334D02*
X220985952Y-163738096D01*
X220985952Y-163738096D02*
X220985952Y-163642858D01*
X221605000Y-162928572D02*
X221652619Y-163023810D01*
X221652619Y-163023810D02*
X221652619Y-163214286D01*
X221652619Y-163214286D02*
X221605000Y-163309524D01*
X221605000Y-163309524D02*
X221509761Y-163357143D01*
X221509761Y-163357143D02*
X221128809Y-163357143D01*
X221128809Y-163357143D02*
X221033571Y-163309524D01*
X221033571Y-163309524D02*
X220985952Y-163214286D01*
X220985952Y-163214286D02*
X220985952Y-163023810D01*
X220985952Y-163023810D02*
X221033571Y-162928572D01*
X221033571Y-162928572D02*
X221128809Y-162880953D01*
X221128809Y-162880953D02*
X221224047Y-162880953D01*
X221224047Y-162880953D02*
X221319285Y-163357143D01*
X221605000Y-162023810D02*
X221652619Y-162119048D01*
X221652619Y-162119048D02*
X221652619Y-162309524D01*
X221652619Y-162309524D02*
X221605000Y-162404762D01*
X221605000Y-162404762D02*
X221557380Y-162452381D01*
X221557380Y-162452381D02*
X221462142Y-162500000D01*
X221462142Y-162500000D02*
X221176428Y-162500000D01*
X221176428Y-162500000D02*
X221081190Y-162452381D01*
X221081190Y-162452381D02*
X221033571Y-162404762D01*
X221033571Y-162404762D02*
X220985952Y-162309524D01*
X220985952Y-162309524D02*
X220985952Y-162119048D01*
X220985952Y-162119048D02*
X221033571Y-162023810D01*
X221652619Y-161595238D02*
X220652619Y-161595238D01*
X221652619Y-161166667D02*
X221128809Y-161166667D01*
X221128809Y-161166667D02*
X221033571Y-161214286D01*
X221033571Y-161214286D02*
X220985952Y-161309524D01*
X220985952Y-161309524D02*
X220985952Y-161452381D01*
X220985952Y-161452381D02*
X221033571Y-161547619D01*
X221033571Y-161547619D02*
X221081190Y-161595238D01*
X221652619Y-160261905D02*
X221128809Y-160261905D01*
X221128809Y-160261905D02*
X221033571Y-160309524D01*
X221033571Y-160309524D02*
X220985952Y-160404762D01*
X220985952Y-160404762D02*
X220985952Y-160595238D01*
X220985952Y-160595238D02*
X221033571Y-160690476D01*
X221605000Y-160261905D02*
X221652619Y-160357143D01*
X221652619Y-160357143D02*
X221652619Y-160595238D01*
X221652619Y-160595238D02*
X221605000Y-160690476D01*
X221605000Y-160690476D02*
X221509761Y-160738095D01*
X221509761Y-160738095D02*
X221414523Y-160738095D01*
X221414523Y-160738095D02*
X221319285Y-160690476D01*
X221319285Y-160690476D02*
X221271666Y-160595238D01*
X221271666Y-160595238D02*
X221271666Y-160357143D01*
X221271666Y-160357143D02*
X221224047Y-160261905D01*
X221652619Y-159785714D02*
X220985952Y-159785714D01*
X221176428Y-159785714D02*
X221081190Y-159738095D01*
X221081190Y-159738095D02*
X221033571Y-159690476D01*
X221033571Y-159690476D02*
X220985952Y-159595238D01*
X220985952Y-159595238D02*
X220985952Y-159500000D01*
X220985952Y-158738095D02*
X221795476Y-158738095D01*
X221795476Y-158738095D02*
X221890714Y-158785714D01*
X221890714Y-158785714D02*
X221938333Y-158833333D01*
X221938333Y-158833333D02*
X221985952Y-158928571D01*
X221985952Y-158928571D02*
X221985952Y-159071428D01*
X221985952Y-159071428D02*
X221938333Y-159166666D01*
X221605000Y-158738095D02*
X221652619Y-158833333D01*
X221652619Y-158833333D02*
X221652619Y-159023809D01*
X221652619Y-159023809D02*
X221605000Y-159119047D01*
X221605000Y-159119047D02*
X221557380Y-159166666D01*
X221557380Y-159166666D02*
X221462142Y-159214285D01*
X221462142Y-159214285D02*
X221176428Y-159214285D01*
X221176428Y-159214285D02*
X221081190Y-159166666D01*
X221081190Y-159166666D02*
X221033571Y-159119047D01*
X221033571Y-159119047D02*
X220985952Y-159023809D01*
X220985952Y-159023809D02*
X220985952Y-158833333D01*
X220985952Y-158833333D02*
X221033571Y-158738095D01*
X221605000Y-157880952D02*
X221652619Y-157976190D01*
X221652619Y-157976190D02*
X221652619Y-158166666D01*
X221652619Y-158166666D02*
X221605000Y-158261904D01*
X221605000Y-158261904D02*
X221509761Y-158309523D01*
X221509761Y-158309523D02*
X221128809Y-158309523D01*
X221128809Y-158309523D02*
X221033571Y-158261904D01*
X221033571Y-158261904D02*
X220985952Y-158166666D01*
X220985952Y-158166666D02*
X220985952Y-157976190D01*
X220985952Y-157976190D02*
X221033571Y-157880952D01*
X221033571Y-157880952D02*
X221128809Y-157833333D01*
X221128809Y-157833333D02*
X221224047Y-157833333D01*
X221224047Y-157833333D02*
X221319285Y-158309523D01*
X221652619Y-156071428D02*
X221176428Y-156404761D01*
X221652619Y-156642856D02*
X220652619Y-156642856D01*
X220652619Y-156642856D02*
X220652619Y-156261904D01*
X220652619Y-156261904D02*
X220700238Y-156166666D01*
X220700238Y-156166666D02*
X220747857Y-156119047D01*
X220747857Y-156119047D02*
X220843095Y-156071428D01*
X220843095Y-156071428D02*
X220985952Y-156071428D01*
X220985952Y-156071428D02*
X221081190Y-156119047D01*
X221081190Y-156119047D02*
X221128809Y-156166666D01*
X221128809Y-156166666D02*
X221176428Y-156261904D01*
X221176428Y-156261904D02*
X221176428Y-156642856D01*
X221605000Y-155261904D02*
X221652619Y-155357142D01*
X221652619Y-155357142D02*
X221652619Y-155547618D01*
X221652619Y-155547618D02*
X221605000Y-155642856D01*
X221605000Y-155642856D02*
X221509761Y-155690475D01*
X221509761Y-155690475D02*
X221128809Y-155690475D01*
X221128809Y-155690475D02*
X221033571Y-155642856D01*
X221033571Y-155642856D02*
X220985952Y-155547618D01*
X220985952Y-155547618D02*
X220985952Y-155357142D01*
X220985952Y-155357142D02*
X221033571Y-155261904D01*
X221033571Y-155261904D02*
X221128809Y-155214285D01*
X221128809Y-155214285D02*
X221224047Y-155214285D01*
X221224047Y-155214285D02*
X221319285Y-155690475D01*
X221605000Y-154833332D02*
X221652619Y-154738094D01*
X221652619Y-154738094D02*
X221652619Y-154547618D01*
X221652619Y-154547618D02*
X221605000Y-154452380D01*
X221605000Y-154452380D02*
X221509761Y-154404761D01*
X221509761Y-154404761D02*
X221462142Y-154404761D01*
X221462142Y-154404761D02*
X221366904Y-154452380D01*
X221366904Y-154452380D02*
X221319285Y-154547618D01*
X221319285Y-154547618D02*
X221319285Y-154690475D01*
X221319285Y-154690475D02*
X221271666Y-154785713D01*
X221271666Y-154785713D02*
X221176428Y-154833332D01*
X221176428Y-154833332D02*
X221128809Y-154833332D01*
X221128809Y-154833332D02*
X221033571Y-154785713D01*
X221033571Y-154785713D02*
X220985952Y-154690475D01*
X220985952Y-154690475D02*
X220985952Y-154547618D01*
X220985952Y-154547618D02*
X221033571Y-154452380D01*
X221652619Y-153976189D02*
X220985952Y-153976189D01*
X220652619Y-153976189D02*
X220700238Y-154023808D01*
X220700238Y-154023808D02*
X220747857Y-153976189D01*
X220747857Y-153976189D02*
X220700238Y-153928570D01*
X220700238Y-153928570D02*
X220652619Y-153976189D01*
X220652619Y-153976189D02*
X220747857Y-153976189D01*
X221605000Y-153547618D02*
X221652619Y-153452380D01*
X221652619Y-153452380D02*
X221652619Y-153261904D01*
X221652619Y-153261904D02*
X221605000Y-153166666D01*
X221605000Y-153166666D02*
X221509761Y-153119047D01*
X221509761Y-153119047D02*
X221462142Y-153119047D01*
X221462142Y-153119047D02*
X221366904Y-153166666D01*
X221366904Y-153166666D02*
X221319285Y-153261904D01*
X221319285Y-153261904D02*
X221319285Y-153404761D01*
X221319285Y-153404761D02*
X221271666Y-153499999D01*
X221271666Y-153499999D02*
X221176428Y-153547618D01*
X221176428Y-153547618D02*
X221128809Y-153547618D01*
X221128809Y-153547618D02*
X221033571Y-153499999D01*
X221033571Y-153499999D02*
X220985952Y-153404761D01*
X220985952Y-153404761D02*
X220985952Y-153261904D01*
X220985952Y-153261904D02*
X221033571Y-153166666D01*
X220985952Y-152833332D02*
X220985952Y-152452380D01*
X220652619Y-152690475D02*
X221509761Y-152690475D01*
X221509761Y-152690475D02*
X221605000Y-152642856D01*
X221605000Y-152642856D02*
X221652619Y-152547618D01*
X221652619Y-152547618D02*
X221652619Y-152452380D01*
X221652619Y-151976189D02*
X221605000Y-152071427D01*
X221605000Y-152071427D02*
X221557380Y-152119046D01*
X221557380Y-152119046D02*
X221462142Y-152166665D01*
X221462142Y-152166665D02*
X221176428Y-152166665D01*
X221176428Y-152166665D02*
X221081190Y-152119046D01*
X221081190Y-152119046D02*
X221033571Y-152071427D01*
X221033571Y-152071427D02*
X220985952Y-151976189D01*
X220985952Y-151976189D02*
X220985952Y-151833332D01*
X220985952Y-151833332D02*
X221033571Y-151738094D01*
X221033571Y-151738094D02*
X221081190Y-151690475D01*
X221081190Y-151690475D02*
X221176428Y-151642856D01*
X221176428Y-151642856D02*
X221462142Y-151642856D01*
X221462142Y-151642856D02*
X221557380Y-151690475D01*
X221557380Y-151690475D02*
X221605000Y-151738094D01*
X221605000Y-151738094D02*
X221652619Y-151833332D01*
X221652619Y-151833332D02*
X221652619Y-151976189D01*
X221652619Y-151214284D02*
X220985952Y-151214284D01*
X221176428Y-151214284D02*
X221081190Y-151166665D01*
X221081190Y-151166665D02*
X221033571Y-151119046D01*
X221033571Y-151119046D02*
X220985952Y-151023808D01*
X220985952Y-151023808D02*
X220985952Y-150928570D01*
X223272619Y-158999999D02*
X222272619Y-158999999D01*
X223272619Y-158523809D02*
X222272619Y-158523809D01*
X222272619Y-158523809D02*
X223272619Y-157952381D01*
X223272619Y-157952381D02*
X222272619Y-157952381D01*
X222367857Y-157523809D02*
X222320238Y-157476190D01*
X222320238Y-157476190D02*
X222272619Y-157380952D01*
X222272619Y-157380952D02*
X222272619Y-157142857D01*
X222272619Y-157142857D02*
X222320238Y-157047619D01*
X222320238Y-157047619D02*
X222367857Y-157000000D01*
X222367857Y-157000000D02*
X222463095Y-156952381D01*
X222463095Y-156952381D02*
X222558333Y-156952381D01*
X222558333Y-156952381D02*
X222701190Y-157000000D01*
X222701190Y-157000000D02*
X223272619Y-157571428D01*
X223272619Y-157571428D02*
X223272619Y-156952381D01*
X215152619Y-145428572D02*
X214152619Y-145428572D01*
X214152619Y-145428572D02*
X214152619Y-145047620D01*
X214152619Y-145047620D02*
X214200238Y-144952382D01*
X214200238Y-144952382D02*
X214247857Y-144904763D01*
X214247857Y-144904763D02*
X214343095Y-144857144D01*
X214343095Y-144857144D02*
X214485952Y-144857144D01*
X214485952Y-144857144D02*
X214581190Y-144904763D01*
X214581190Y-144904763D02*
X214628809Y-144952382D01*
X214628809Y-144952382D02*
X214676428Y-145047620D01*
X214676428Y-145047620D02*
X214676428Y-145428572D01*
X215152619Y-144428572D02*
X214485952Y-144428572D01*
X214676428Y-144428572D02*
X214581190Y-144380953D01*
X214581190Y-144380953D02*
X214533571Y-144333334D01*
X214533571Y-144333334D02*
X214485952Y-144238096D01*
X214485952Y-144238096D02*
X214485952Y-144142858D01*
X215105000Y-143428572D02*
X215152619Y-143523810D01*
X215152619Y-143523810D02*
X215152619Y-143714286D01*
X215152619Y-143714286D02*
X215105000Y-143809524D01*
X215105000Y-143809524D02*
X215009761Y-143857143D01*
X215009761Y-143857143D02*
X214628809Y-143857143D01*
X214628809Y-143857143D02*
X214533571Y-143809524D01*
X214533571Y-143809524D02*
X214485952Y-143714286D01*
X214485952Y-143714286D02*
X214485952Y-143523810D01*
X214485952Y-143523810D02*
X214533571Y-143428572D01*
X214533571Y-143428572D02*
X214628809Y-143380953D01*
X214628809Y-143380953D02*
X214724047Y-143380953D01*
X214724047Y-143380953D02*
X214819285Y-143857143D01*
X215105000Y-142523810D02*
X215152619Y-142619048D01*
X215152619Y-142619048D02*
X215152619Y-142809524D01*
X215152619Y-142809524D02*
X215105000Y-142904762D01*
X215105000Y-142904762D02*
X215057380Y-142952381D01*
X215057380Y-142952381D02*
X214962142Y-143000000D01*
X214962142Y-143000000D02*
X214676428Y-143000000D01*
X214676428Y-143000000D02*
X214581190Y-142952381D01*
X214581190Y-142952381D02*
X214533571Y-142904762D01*
X214533571Y-142904762D02*
X214485952Y-142809524D01*
X214485952Y-142809524D02*
X214485952Y-142619048D01*
X214485952Y-142619048D02*
X214533571Y-142523810D01*
X215152619Y-142095238D02*
X214152619Y-142095238D01*
X215152619Y-141666667D02*
X214628809Y-141666667D01*
X214628809Y-141666667D02*
X214533571Y-141714286D01*
X214533571Y-141714286D02*
X214485952Y-141809524D01*
X214485952Y-141809524D02*
X214485952Y-141952381D01*
X214485952Y-141952381D02*
X214533571Y-142047619D01*
X214533571Y-142047619D02*
X214581190Y-142095238D01*
X215152619Y-140761905D02*
X214628809Y-140761905D01*
X214628809Y-140761905D02*
X214533571Y-140809524D01*
X214533571Y-140809524D02*
X214485952Y-140904762D01*
X214485952Y-140904762D02*
X214485952Y-141095238D01*
X214485952Y-141095238D02*
X214533571Y-141190476D01*
X215105000Y-140761905D02*
X215152619Y-140857143D01*
X215152619Y-140857143D02*
X215152619Y-141095238D01*
X215152619Y-141095238D02*
X215105000Y-141190476D01*
X215105000Y-141190476D02*
X215009761Y-141238095D01*
X215009761Y-141238095D02*
X214914523Y-141238095D01*
X214914523Y-141238095D02*
X214819285Y-141190476D01*
X214819285Y-141190476D02*
X214771666Y-141095238D01*
X214771666Y-141095238D02*
X214771666Y-140857143D01*
X214771666Y-140857143D02*
X214724047Y-140761905D01*
X215152619Y-140285714D02*
X214485952Y-140285714D01*
X214676428Y-140285714D02*
X214581190Y-140238095D01*
X214581190Y-140238095D02*
X214533571Y-140190476D01*
X214533571Y-140190476D02*
X214485952Y-140095238D01*
X214485952Y-140095238D02*
X214485952Y-140000000D01*
X214485952Y-139238095D02*
X215295476Y-139238095D01*
X215295476Y-139238095D02*
X215390714Y-139285714D01*
X215390714Y-139285714D02*
X215438333Y-139333333D01*
X215438333Y-139333333D02*
X215485952Y-139428571D01*
X215485952Y-139428571D02*
X215485952Y-139571428D01*
X215485952Y-139571428D02*
X215438333Y-139666666D01*
X215105000Y-139238095D02*
X215152619Y-139333333D01*
X215152619Y-139333333D02*
X215152619Y-139523809D01*
X215152619Y-139523809D02*
X215105000Y-139619047D01*
X215105000Y-139619047D02*
X215057380Y-139666666D01*
X215057380Y-139666666D02*
X214962142Y-139714285D01*
X214962142Y-139714285D02*
X214676428Y-139714285D01*
X214676428Y-139714285D02*
X214581190Y-139666666D01*
X214581190Y-139666666D02*
X214533571Y-139619047D01*
X214533571Y-139619047D02*
X214485952Y-139523809D01*
X214485952Y-139523809D02*
X214485952Y-139333333D01*
X214485952Y-139333333D02*
X214533571Y-139238095D01*
X215105000Y-138380952D02*
X215152619Y-138476190D01*
X215152619Y-138476190D02*
X215152619Y-138666666D01*
X215152619Y-138666666D02*
X215105000Y-138761904D01*
X215105000Y-138761904D02*
X215009761Y-138809523D01*
X215009761Y-138809523D02*
X214628809Y-138809523D01*
X214628809Y-138809523D02*
X214533571Y-138761904D01*
X214533571Y-138761904D02*
X214485952Y-138666666D01*
X214485952Y-138666666D02*
X214485952Y-138476190D01*
X214485952Y-138476190D02*
X214533571Y-138380952D01*
X214533571Y-138380952D02*
X214628809Y-138333333D01*
X214628809Y-138333333D02*
X214724047Y-138333333D01*
X214724047Y-138333333D02*
X214819285Y-138809523D01*
X215152619Y-136571428D02*
X214676428Y-136904761D01*
X215152619Y-137142856D02*
X214152619Y-137142856D01*
X214152619Y-137142856D02*
X214152619Y-136761904D01*
X214152619Y-136761904D02*
X214200238Y-136666666D01*
X214200238Y-136666666D02*
X214247857Y-136619047D01*
X214247857Y-136619047D02*
X214343095Y-136571428D01*
X214343095Y-136571428D02*
X214485952Y-136571428D01*
X214485952Y-136571428D02*
X214581190Y-136619047D01*
X214581190Y-136619047D02*
X214628809Y-136666666D01*
X214628809Y-136666666D02*
X214676428Y-136761904D01*
X214676428Y-136761904D02*
X214676428Y-137142856D01*
X215105000Y-135761904D02*
X215152619Y-135857142D01*
X215152619Y-135857142D02*
X215152619Y-136047618D01*
X215152619Y-136047618D02*
X215105000Y-136142856D01*
X215105000Y-136142856D02*
X215009761Y-136190475D01*
X215009761Y-136190475D02*
X214628809Y-136190475D01*
X214628809Y-136190475D02*
X214533571Y-136142856D01*
X214533571Y-136142856D02*
X214485952Y-136047618D01*
X214485952Y-136047618D02*
X214485952Y-135857142D01*
X214485952Y-135857142D02*
X214533571Y-135761904D01*
X214533571Y-135761904D02*
X214628809Y-135714285D01*
X214628809Y-135714285D02*
X214724047Y-135714285D01*
X214724047Y-135714285D02*
X214819285Y-136190475D01*
X215105000Y-135333332D02*
X215152619Y-135238094D01*
X215152619Y-135238094D02*
X215152619Y-135047618D01*
X215152619Y-135047618D02*
X215105000Y-134952380D01*
X215105000Y-134952380D02*
X215009761Y-134904761D01*
X215009761Y-134904761D02*
X214962142Y-134904761D01*
X214962142Y-134904761D02*
X214866904Y-134952380D01*
X214866904Y-134952380D02*
X214819285Y-135047618D01*
X214819285Y-135047618D02*
X214819285Y-135190475D01*
X214819285Y-135190475D02*
X214771666Y-135285713D01*
X214771666Y-135285713D02*
X214676428Y-135333332D01*
X214676428Y-135333332D02*
X214628809Y-135333332D01*
X214628809Y-135333332D02*
X214533571Y-135285713D01*
X214533571Y-135285713D02*
X214485952Y-135190475D01*
X214485952Y-135190475D02*
X214485952Y-135047618D01*
X214485952Y-135047618D02*
X214533571Y-134952380D01*
X215152619Y-134476189D02*
X214485952Y-134476189D01*
X214152619Y-134476189D02*
X214200238Y-134523808D01*
X214200238Y-134523808D02*
X214247857Y-134476189D01*
X214247857Y-134476189D02*
X214200238Y-134428570D01*
X214200238Y-134428570D02*
X214152619Y-134476189D01*
X214152619Y-134476189D02*
X214247857Y-134476189D01*
X215105000Y-134047618D02*
X215152619Y-133952380D01*
X215152619Y-133952380D02*
X215152619Y-133761904D01*
X215152619Y-133761904D02*
X215105000Y-133666666D01*
X215105000Y-133666666D02*
X215009761Y-133619047D01*
X215009761Y-133619047D02*
X214962142Y-133619047D01*
X214962142Y-133619047D02*
X214866904Y-133666666D01*
X214866904Y-133666666D02*
X214819285Y-133761904D01*
X214819285Y-133761904D02*
X214819285Y-133904761D01*
X214819285Y-133904761D02*
X214771666Y-133999999D01*
X214771666Y-133999999D02*
X214676428Y-134047618D01*
X214676428Y-134047618D02*
X214628809Y-134047618D01*
X214628809Y-134047618D02*
X214533571Y-133999999D01*
X214533571Y-133999999D02*
X214485952Y-133904761D01*
X214485952Y-133904761D02*
X214485952Y-133761904D01*
X214485952Y-133761904D02*
X214533571Y-133666666D01*
X214485952Y-133333332D02*
X214485952Y-132952380D01*
X214152619Y-133190475D02*
X215009761Y-133190475D01*
X215009761Y-133190475D02*
X215105000Y-133142856D01*
X215105000Y-133142856D02*
X215152619Y-133047618D01*
X215152619Y-133047618D02*
X215152619Y-132952380D01*
X215152619Y-132476189D02*
X215105000Y-132571427D01*
X215105000Y-132571427D02*
X215057380Y-132619046D01*
X215057380Y-132619046D02*
X214962142Y-132666665D01*
X214962142Y-132666665D02*
X214676428Y-132666665D01*
X214676428Y-132666665D02*
X214581190Y-132619046D01*
X214581190Y-132619046D02*
X214533571Y-132571427D01*
X214533571Y-132571427D02*
X214485952Y-132476189D01*
X214485952Y-132476189D02*
X214485952Y-132333332D01*
X214485952Y-132333332D02*
X214533571Y-132238094D01*
X214533571Y-132238094D02*
X214581190Y-132190475D01*
X214581190Y-132190475D02*
X214676428Y-132142856D01*
X214676428Y-132142856D02*
X214962142Y-132142856D01*
X214962142Y-132142856D02*
X215057380Y-132190475D01*
X215057380Y-132190475D02*
X215105000Y-132238094D01*
X215105000Y-132238094D02*
X215152619Y-132333332D01*
X215152619Y-132333332D02*
X215152619Y-132476189D01*
X215152619Y-131714284D02*
X214485952Y-131714284D01*
X214676428Y-131714284D02*
X214581190Y-131666665D01*
X214581190Y-131666665D02*
X214533571Y-131619046D01*
X214533571Y-131619046D02*
X214485952Y-131523808D01*
X214485952Y-131523808D02*
X214485952Y-131428570D01*
X216772619Y-140214285D02*
X215772619Y-140214285D01*
X216248809Y-140214285D02*
X216248809Y-139642857D01*
X216772619Y-139642857D02*
X215772619Y-139642857D01*
X216725000Y-139214285D02*
X216772619Y-139071428D01*
X216772619Y-139071428D02*
X216772619Y-138833333D01*
X216772619Y-138833333D02*
X216725000Y-138738095D01*
X216725000Y-138738095D02*
X216677380Y-138690476D01*
X216677380Y-138690476D02*
X216582142Y-138642857D01*
X216582142Y-138642857D02*
X216486904Y-138642857D01*
X216486904Y-138642857D02*
X216391666Y-138690476D01*
X216391666Y-138690476D02*
X216344047Y-138738095D01*
X216344047Y-138738095D02*
X216296428Y-138833333D01*
X216296428Y-138833333D02*
X216248809Y-139023809D01*
X216248809Y-139023809D02*
X216201190Y-139119047D01*
X216201190Y-139119047D02*
X216153571Y-139166666D01*
X216153571Y-139166666D02*
X216058333Y-139214285D01*
X216058333Y-139214285D02*
X215963095Y-139214285D01*
X215963095Y-139214285D02*
X215867857Y-139166666D01*
X215867857Y-139166666D02*
X215820238Y-139119047D01*
X215820238Y-139119047D02*
X215772619Y-139023809D01*
X215772619Y-139023809D02*
X215772619Y-138785714D01*
X215772619Y-138785714D02*
X215820238Y-138642857D01*
X215772619Y-137738095D02*
X215772619Y-138214285D01*
X215772619Y-138214285D02*
X216248809Y-138261904D01*
X216248809Y-138261904D02*
X216201190Y-138214285D01*
X216201190Y-138214285D02*
X216153571Y-138119047D01*
X216153571Y-138119047D02*
X216153571Y-137880952D01*
X216153571Y-137880952D02*
X216201190Y-137785714D01*
X216201190Y-137785714D02*
X216248809Y-137738095D01*
X216248809Y-137738095D02*
X216344047Y-137690476D01*
X216344047Y-137690476D02*
X216582142Y-137690476D01*
X216582142Y-137690476D02*
X216677380Y-137738095D01*
X216677380Y-137738095D02*
X216725000Y-137785714D01*
X216725000Y-137785714D02*
X216772619Y-137880952D01*
X216772619Y-137880952D02*
X216772619Y-138119047D01*
X216772619Y-138119047D02*
X216725000Y-138214285D01*
X216725000Y-138214285D02*
X216677380Y-138261904D01*
X215772619Y-137071428D02*
X215772619Y-136976190D01*
X215772619Y-136976190D02*
X215820238Y-136880952D01*
X215820238Y-136880952D02*
X215867857Y-136833333D01*
X215867857Y-136833333D02*
X215963095Y-136785714D01*
X215963095Y-136785714D02*
X216153571Y-136738095D01*
X216153571Y-136738095D02*
X216391666Y-136738095D01*
X216391666Y-136738095D02*
X216582142Y-136785714D01*
X216582142Y-136785714D02*
X216677380Y-136833333D01*
X216677380Y-136833333D02*
X216725000Y-136880952D01*
X216725000Y-136880952D02*
X216772619Y-136976190D01*
X216772619Y-136976190D02*
X216772619Y-137071428D01*
X216772619Y-137071428D02*
X216725000Y-137166666D01*
X216725000Y-137166666D02*
X216677380Y-137214285D01*
X216677380Y-137214285D02*
X216582142Y-137261904D01*
X216582142Y-137261904D02*
X216391666Y-137309523D01*
X216391666Y-137309523D02*
X216153571Y-137309523D01*
X216153571Y-137309523D02*
X215963095Y-137261904D01*
X215963095Y-137261904D02*
X215867857Y-137214285D01*
X215867857Y-137214285D02*
X215820238Y-137166666D01*
X215820238Y-137166666D02*
X215772619Y-137071428D01*
D13*
X171908333Y-124404761D02*
X171908333Y-120595238D01*
D12*
X13557142Y-44750714D02*
X13057142Y-44750714D01*
X13057142Y-45536428D02*
X13057142Y-44036428D01*
X13057142Y-44036428D02*
X13771428Y-44036428D01*
X14985714Y-44536428D02*
X14985714Y-45536428D01*
X14342856Y-44536428D02*
X14342856Y-45322142D01*
X14342856Y-45322142D02*
X14414285Y-45465000D01*
X14414285Y-45465000D02*
X14557142Y-45536428D01*
X14557142Y-45536428D02*
X14771428Y-45536428D01*
X14771428Y-45536428D02*
X14914285Y-45465000D01*
X14914285Y-45465000D02*
X14985714Y-45393571D01*
X15485714Y-44536428D02*
X16057142Y-44536428D01*
X15699999Y-44036428D02*
X15699999Y-45322142D01*
X15699999Y-45322142D02*
X15771428Y-45465000D01*
X15771428Y-45465000D02*
X15914285Y-45536428D01*
X15914285Y-45536428D02*
X16057142Y-45536428D01*
X17200000Y-44536428D02*
X17200000Y-45536428D01*
X16557142Y-44536428D02*
X16557142Y-45322142D01*
X16557142Y-45322142D02*
X16628571Y-45465000D01*
X16628571Y-45465000D02*
X16771428Y-45536428D01*
X16771428Y-45536428D02*
X16985714Y-45536428D01*
X16985714Y-45536428D02*
X17128571Y-45465000D01*
X17128571Y-45465000D02*
X17200000Y-45393571D01*
X17914285Y-45536428D02*
X17914285Y-44536428D01*
X17914285Y-44822142D02*
X17985714Y-44679285D01*
X17985714Y-44679285D02*
X18057143Y-44607857D01*
X18057143Y-44607857D02*
X18200000Y-44536428D01*
X18200000Y-44536428D02*
X18342857Y-44536428D01*
X19414285Y-45465000D02*
X19271428Y-45536428D01*
X19271428Y-45536428D02*
X18985714Y-45536428D01*
X18985714Y-45536428D02*
X18842856Y-45465000D01*
X18842856Y-45465000D02*
X18771428Y-45322142D01*
X18771428Y-45322142D02*
X18771428Y-44750714D01*
X18771428Y-44750714D02*
X18842856Y-44607857D01*
X18842856Y-44607857D02*
X18985714Y-44536428D01*
X18985714Y-44536428D02*
X19271428Y-44536428D01*
X19271428Y-44536428D02*
X19414285Y-44607857D01*
X19414285Y-44607857D02*
X19485714Y-44750714D01*
X19485714Y-44750714D02*
X19485714Y-44893571D01*
X19485714Y-44893571D02*
X18771428Y-45036428D01*
X22128570Y-45393571D02*
X22057142Y-45465000D01*
X22057142Y-45465000D02*
X21842856Y-45536428D01*
X21842856Y-45536428D02*
X21699999Y-45536428D01*
X21699999Y-45536428D02*
X21485713Y-45465000D01*
X21485713Y-45465000D02*
X21342856Y-45322142D01*
X21342856Y-45322142D02*
X21271427Y-45179285D01*
X21271427Y-45179285D02*
X21199999Y-44893571D01*
X21199999Y-44893571D02*
X21199999Y-44679285D01*
X21199999Y-44679285D02*
X21271427Y-44393571D01*
X21271427Y-44393571D02*
X21342856Y-44250714D01*
X21342856Y-44250714D02*
X21485713Y-44107857D01*
X21485713Y-44107857D02*
X21699999Y-44036428D01*
X21699999Y-44036428D02*
X21842856Y-44036428D01*
X21842856Y-44036428D02*
X22057142Y-44107857D01*
X22057142Y-44107857D02*
X22128570Y-44179285D01*
X22771427Y-45536428D02*
X22771427Y-44036428D01*
X23414285Y-45536428D02*
X23414285Y-44750714D01*
X23414285Y-44750714D02*
X23342856Y-44607857D01*
X23342856Y-44607857D02*
X23199999Y-44536428D01*
X23199999Y-44536428D02*
X22985713Y-44536428D01*
X22985713Y-44536428D02*
X22842856Y-44607857D01*
X22842856Y-44607857D02*
X22771427Y-44679285D01*
X24771428Y-45536428D02*
X24771428Y-44750714D01*
X24771428Y-44750714D02*
X24699999Y-44607857D01*
X24699999Y-44607857D02*
X24557142Y-44536428D01*
X24557142Y-44536428D02*
X24271428Y-44536428D01*
X24271428Y-44536428D02*
X24128570Y-44607857D01*
X24771428Y-45465000D02*
X24628570Y-45536428D01*
X24628570Y-45536428D02*
X24271428Y-45536428D01*
X24271428Y-45536428D02*
X24128570Y-45465000D01*
X24128570Y-45465000D02*
X24057142Y-45322142D01*
X24057142Y-45322142D02*
X24057142Y-45179285D01*
X24057142Y-45179285D02*
X24128570Y-45036428D01*
X24128570Y-45036428D02*
X24271428Y-44965000D01*
X24271428Y-44965000D02*
X24628570Y-44965000D01*
X24628570Y-44965000D02*
X24771428Y-44893571D01*
X25485713Y-44536428D02*
X25485713Y-45536428D01*
X25485713Y-44679285D02*
X25557142Y-44607857D01*
X25557142Y-44607857D02*
X25699999Y-44536428D01*
X25699999Y-44536428D02*
X25914285Y-44536428D01*
X25914285Y-44536428D02*
X26057142Y-44607857D01*
X26057142Y-44607857D02*
X26128571Y-44750714D01*
X26128571Y-44750714D02*
X26128571Y-45536428D01*
X27485714Y-44536428D02*
X27485714Y-45750714D01*
X27485714Y-45750714D02*
X27414285Y-45893571D01*
X27414285Y-45893571D02*
X27342856Y-45965000D01*
X27342856Y-45965000D02*
X27199999Y-46036428D01*
X27199999Y-46036428D02*
X26985714Y-46036428D01*
X26985714Y-46036428D02*
X26842856Y-45965000D01*
X27485714Y-45465000D02*
X27342856Y-45536428D01*
X27342856Y-45536428D02*
X27057142Y-45536428D01*
X27057142Y-45536428D02*
X26914285Y-45465000D01*
X26914285Y-45465000D02*
X26842856Y-45393571D01*
X26842856Y-45393571D02*
X26771428Y-45250714D01*
X26771428Y-45250714D02*
X26771428Y-44822142D01*
X26771428Y-44822142D02*
X26842856Y-44679285D01*
X26842856Y-44679285D02*
X26914285Y-44607857D01*
X26914285Y-44607857D02*
X27057142Y-44536428D01*
X27057142Y-44536428D02*
X27342856Y-44536428D01*
X27342856Y-44536428D02*
X27485714Y-44607857D01*
X28771428Y-45465000D02*
X28628571Y-45536428D01*
X28628571Y-45536428D02*
X28342857Y-45536428D01*
X28342857Y-45536428D02*
X28199999Y-45465000D01*
X28199999Y-45465000D02*
X28128571Y-45322142D01*
X28128571Y-45322142D02*
X28128571Y-44750714D01*
X28128571Y-44750714D02*
X28199999Y-44607857D01*
X28199999Y-44607857D02*
X28342857Y-44536428D01*
X28342857Y-44536428D02*
X28628571Y-44536428D01*
X28628571Y-44536428D02*
X28771428Y-44607857D01*
X28771428Y-44607857D02*
X28842857Y-44750714D01*
X28842857Y-44750714D02*
X28842857Y-44893571D01*
X28842857Y-44893571D02*
X28128571Y-45036428D01*
X29414285Y-45465000D02*
X29557142Y-45536428D01*
X29557142Y-45536428D02*
X29842856Y-45536428D01*
X29842856Y-45536428D02*
X29985713Y-45465000D01*
X29985713Y-45465000D02*
X30057142Y-45322142D01*
X30057142Y-45322142D02*
X30057142Y-45250714D01*
X30057142Y-45250714D02*
X29985713Y-45107857D01*
X29985713Y-45107857D02*
X29842856Y-45036428D01*
X29842856Y-45036428D02*
X29628571Y-45036428D01*
X29628571Y-45036428D02*
X29485713Y-44965000D01*
X29485713Y-44965000D02*
X29414285Y-44822142D01*
X29414285Y-44822142D02*
X29414285Y-44750714D01*
X29414285Y-44750714D02*
X29485713Y-44607857D01*
X29485713Y-44607857D02*
X29628571Y-44536428D01*
X29628571Y-44536428D02*
X29842856Y-44536428D01*
X29842856Y-44536428D02*
X29985713Y-44607857D01*
X30699999Y-45393571D02*
X30771428Y-45465000D01*
X30771428Y-45465000D02*
X30699999Y-45536428D01*
X30699999Y-45536428D02*
X30628571Y-45465000D01*
X30628571Y-45465000D02*
X30699999Y-45393571D01*
X30699999Y-45393571D02*
X30699999Y-45536428D01*
X30699999Y-44607857D02*
X30771428Y-44679285D01*
X30771428Y-44679285D02*
X30699999Y-44750714D01*
X30699999Y-44750714D02*
X30628571Y-44679285D01*
X30628571Y-44679285D02*
X30699999Y-44607857D01*
X30699999Y-44607857D02*
X30699999Y-44750714D01*
X217761905Y-85938809D02*
X218095238Y-85938809D01*
X218238095Y-86462619D02*
X217761905Y-86462619D01*
X217761905Y-86462619D02*
X217761905Y-85462619D01*
X217761905Y-85462619D02*
X218238095Y-85462619D01*
X218666667Y-86462619D02*
X218666667Y-85462619D01*
X218666667Y-85462619D02*
X219238095Y-86462619D01*
X219238095Y-86462619D02*
X219238095Y-85462619D01*
X170071427Y-116152619D02*
X170071427Y-115152619D01*
X170071427Y-115152619D02*
X170452379Y-115152619D01*
X170452379Y-115152619D02*
X170547617Y-115200238D01*
X170547617Y-115200238D02*
X170595236Y-115247857D01*
X170595236Y-115247857D02*
X170642855Y-115343095D01*
X170642855Y-115343095D02*
X170642855Y-115485952D01*
X170642855Y-115485952D02*
X170595236Y-115581190D01*
X170595236Y-115581190D02*
X170547617Y-115628809D01*
X170547617Y-115628809D02*
X170452379Y-115676428D01*
X170452379Y-115676428D02*
X170071427Y-115676428D01*
X171071427Y-116152619D02*
X171071427Y-115485952D01*
X171071427Y-115676428D02*
X171119046Y-115581190D01*
X171119046Y-115581190D02*
X171166665Y-115533571D01*
X171166665Y-115533571D02*
X171261903Y-115485952D01*
X171261903Y-115485952D02*
X171357141Y-115485952D01*
X172071427Y-116105000D02*
X171976189Y-116152619D01*
X171976189Y-116152619D02*
X171785713Y-116152619D01*
X171785713Y-116152619D02*
X171690475Y-116105000D01*
X171690475Y-116105000D02*
X171642856Y-116009761D01*
X171642856Y-116009761D02*
X171642856Y-115628809D01*
X171642856Y-115628809D02*
X171690475Y-115533571D01*
X171690475Y-115533571D02*
X171785713Y-115485952D01*
X171785713Y-115485952D02*
X171976189Y-115485952D01*
X171976189Y-115485952D02*
X172071427Y-115533571D01*
X172071427Y-115533571D02*
X172119046Y-115628809D01*
X172119046Y-115628809D02*
X172119046Y-115724047D01*
X172119046Y-115724047D02*
X171642856Y-115819285D01*
X172976189Y-116105000D02*
X172880951Y-116152619D01*
X172880951Y-116152619D02*
X172690475Y-116152619D01*
X172690475Y-116152619D02*
X172595237Y-116105000D01*
X172595237Y-116105000D02*
X172547618Y-116057380D01*
X172547618Y-116057380D02*
X172499999Y-115962142D01*
X172499999Y-115962142D02*
X172499999Y-115676428D01*
X172499999Y-115676428D02*
X172547618Y-115581190D01*
X172547618Y-115581190D02*
X172595237Y-115533571D01*
X172595237Y-115533571D02*
X172690475Y-115485952D01*
X172690475Y-115485952D02*
X172880951Y-115485952D01*
X172880951Y-115485952D02*
X172976189Y-115533571D01*
X173404761Y-116152619D02*
X173404761Y-115152619D01*
X173833332Y-116152619D02*
X173833332Y-115628809D01*
X173833332Y-115628809D02*
X173785713Y-115533571D01*
X173785713Y-115533571D02*
X173690475Y-115485952D01*
X173690475Y-115485952D02*
X173547618Y-115485952D01*
X173547618Y-115485952D02*
X173452380Y-115533571D01*
X173452380Y-115533571D02*
X173404761Y-115581190D01*
X174738094Y-116152619D02*
X174738094Y-115628809D01*
X174738094Y-115628809D02*
X174690475Y-115533571D01*
X174690475Y-115533571D02*
X174595237Y-115485952D01*
X174595237Y-115485952D02*
X174404761Y-115485952D01*
X174404761Y-115485952D02*
X174309523Y-115533571D01*
X174738094Y-116105000D02*
X174642856Y-116152619D01*
X174642856Y-116152619D02*
X174404761Y-116152619D01*
X174404761Y-116152619D02*
X174309523Y-116105000D01*
X174309523Y-116105000D02*
X174261904Y-116009761D01*
X174261904Y-116009761D02*
X174261904Y-115914523D01*
X174261904Y-115914523D02*
X174309523Y-115819285D01*
X174309523Y-115819285D02*
X174404761Y-115771666D01*
X174404761Y-115771666D02*
X174642856Y-115771666D01*
X174642856Y-115771666D02*
X174738094Y-115724047D01*
X175214285Y-116152619D02*
X175214285Y-115485952D01*
X175214285Y-115676428D02*
X175261904Y-115581190D01*
X175261904Y-115581190D02*
X175309523Y-115533571D01*
X175309523Y-115533571D02*
X175404761Y-115485952D01*
X175404761Y-115485952D02*
X175499999Y-115485952D01*
X176261904Y-115485952D02*
X176261904Y-116295476D01*
X176261904Y-116295476D02*
X176214285Y-116390714D01*
X176214285Y-116390714D02*
X176166666Y-116438333D01*
X176166666Y-116438333D02*
X176071428Y-116485952D01*
X176071428Y-116485952D02*
X175928571Y-116485952D01*
X175928571Y-116485952D02*
X175833333Y-116438333D01*
X176261904Y-116105000D02*
X176166666Y-116152619D01*
X176166666Y-116152619D02*
X175976190Y-116152619D01*
X175976190Y-116152619D02*
X175880952Y-116105000D01*
X175880952Y-116105000D02*
X175833333Y-116057380D01*
X175833333Y-116057380D02*
X175785714Y-115962142D01*
X175785714Y-115962142D02*
X175785714Y-115676428D01*
X175785714Y-115676428D02*
X175833333Y-115581190D01*
X175833333Y-115581190D02*
X175880952Y-115533571D01*
X175880952Y-115533571D02*
X175976190Y-115485952D01*
X175976190Y-115485952D02*
X176166666Y-115485952D01*
X176166666Y-115485952D02*
X176261904Y-115533571D01*
X177119047Y-116105000D02*
X177023809Y-116152619D01*
X177023809Y-116152619D02*
X176833333Y-116152619D01*
X176833333Y-116152619D02*
X176738095Y-116105000D01*
X176738095Y-116105000D02*
X176690476Y-116009761D01*
X176690476Y-116009761D02*
X176690476Y-115628809D01*
X176690476Y-115628809D02*
X176738095Y-115533571D01*
X176738095Y-115533571D02*
X176833333Y-115485952D01*
X176833333Y-115485952D02*
X177023809Y-115485952D01*
X177023809Y-115485952D02*
X177119047Y-115533571D01*
X177119047Y-115533571D02*
X177166666Y-115628809D01*
X177166666Y-115628809D02*
X177166666Y-115724047D01*
X177166666Y-115724047D02*
X176690476Y-115819285D01*
X178928571Y-116152619D02*
X178595238Y-115676428D01*
X178357143Y-116152619D02*
X178357143Y-115152619D01*
X178357143Y-115152619D02*
X178738095Y-115152619D01*
X178738095Y-115152619D02*
X178833333Y-115200238D01*
X178833333Y-115200238D02*
X178880952Y-115247857D01*
X178880952Y-115247857D02*
X178928571Y-115343095D01*
X178928571Y-115343095D02*
X178928571Y-115485952D01*
X178928571Y-115485952D02*
X178880952Y-115581190D01*
X178880952Y-115581190D02*
X178833333Y-115628809D01*
X178833333Y-115628809D02*
X178738095Y-115676428D01*
X178738095Y-115676428D02*
X178357143Y-115676428D01*
X179738095Y-116105000D02*
X179642857Y-116152619D01*
X179642857Y-116152619D02*
X179452381Y-116152619D01*
X179452381Y-116152619D02*
X179357143Y-116105000D01*
X179357143Y-116105000D02*
X179309524Y-116009761D01*
X179309524Y-116009761D02*
X179309524Y-115628809D01*
X179309524Y-115628809D02*
X179357143Y-115533571D01*
X179357143Y-115533571D02*
X179452381Y-115485952D01*
X179452381Y-115485952D02*
X179642857Y-115485952D01*
X179642857Y-115485952D02*
X179738095Y-115533571D01*
X179738095Y-115533571D02*
X179785714Y-115628809D01*
X179785714Y-115628809D02*
X179785714Y-115724047D01*
X179785714Y-115724047D02*
X179309524Y-115819285D01*
X180166667Y-116105000D02*
X180261905Y-116152619D01*
X180261905Y-116152619D02*
X180452381Y-116152619D01*
X180452381Y-116152619D02*
X180547619Y-116105000D01*
X180547619Y-116105000D02*
X180595238Y-116009761D01*
X180595238Y-116009761D02*
X180595238Y-115962142D01*
X180595238Y-115962142D02*
X180547619Y-115866904D01*
X180547619Y-115866904D02*
X180452381Y-115819285D01*
X180452381Y-115819285D02*
X180309524Y-115819285D01*
X180309524Y-115819285D02*
X180214286Y-115771666D01*
X180214286Y-115771666D02*
X180166667Y-115676428D01*
X180166667Y-115676428D02*
X180166667Y-115628809D01*
X180166667Y-115628809D02*
X180214286Y-115533571D01*
X180214286Y-115533571D02*
X180309524Y-115485952D01*
X180309524Y-115485952D02*
X180452381Y-115485952D01*
X180452381Y-115485952D02*
X180547619Y-115533571D01*
X181023810Y-116152619D02*
X181023810Y-115485952D01*
X181023810Y-115152619D02*
X180976191Y-115200238D01*
X180976191Y-115200238D02*
X181023810Y-115247857D01*
X181023810Y-115247857D02*
X181071429Y-115200238D01*
X181071429Y-115200238D02*
X181023810Y-115152619D01*
X181023810Y-115152619D02*
X181023810Y-115247857D01*
X181452381Y-116105000D02*
X181547619Y-116152619D01*
X181547619Y-116152619D02*
X181738095Y-116152619D01*
X181738095Y-116152619D02*
X181833333Y-116105000D01*
X181833333Y-116105000D02*
X181880952Y-116009761D01*
X181880952Y-116009761D02*
X181880952Y-115962142D01*
X181880952Y-115962142D02*
X181833333Y-115866904D01*
X181833333Y-115866904D02*
X181738095Y-115819285D01*
X181738095Y-115819285D02*
X181595238Y-115819285D01*
X181595238Y-115819285D02*
X181500000Y-115771666D01*
X181500000Y-115771666D02*
X181452381Y-115676428D01*
X181452381Y-115676428D02*
X181452381Y-115628809D01*
X181452381Y-115628809D02*
X181500000Y-115533571D01*
X181500000Y-115533571D02*
X181595238Y-115485952D01*
X181595238Y-115485952D02*
X181738095Y-115485952D01*
X181738095Y-115485952D02*
X181833333Y-115533571D01*
X182166667Y-115485952D02*
X182547619Y-115485952D01*
X182309524Y-115152619D02*
X182309524Y-116009761D01*
X182309524Y-116009761D02*
X182357143Y-116105000D01*
X182357143Y-116105000D02*
X182452381Y-116152619D01*
X182452381Y-116152619D02*
X182547619Y-116152619D01*
X183023810Y-116152619D02*
X182928572Y-116105000D01*
X182928572Y-116105000D02*
X182880953Y-116057380D01*
X182880953Y-116057380D02*
X182833334Y-115962142D01*
X182833334Y-115962142D02*
X182833334Y-115676428D01*
X182833334Y-115676428D02*
X182880953Y-115581190D01*
X182880953Y-115581190D02*
X182928572Y-115533571D01*
X182928572Y-115533571D02*
X183023810Y-115485952D01*
X183023810Y-115485952D02*
X183166667Y-115485952D01*
X183166667Y-115485952D02*
X183261905Y-115533571D01*
X183261905Y-115533571D02*
X183309524Y-115581190D01*
X183309524Y-115581190D02*
X183357143Y-115676428D01*
X183357143Y-115676428D02*
X183357143Y-115962142D01*
X183357143Y-115962142D02*
X183309524Y-116057380D01*
X183309524Y-116057380D02*
X183261905Y-116105000D01*
X183261905Y-116105000D02*
X183166667Y-116152619D01*
X183166667Y-116152619D02*
X183023810Y-116152619D01*
X183785715Y-116152619D02*
X183785715Y-115485952D01*
X183785715Y-115676428D02*
X183833334Y-115581190D01*
X183833334Y-115581190D02*
X183880953Y-115533571D01*
X183880953Y-115533571D02*
X183976191Y-115485952D01*
X183976191Y-115485952D02*
X184071429Y-115485952D01*
X176000000Y-117772619D02*
X176000000Y-116772619D01*
X176476190Y-117772619D02*
X176476190Y-116772619D01*
X176476190Y-116772619D02*
X177047618Y-117772619D01*
X177047618Y-117772619D02*
X177047618Y-116772619D01*
X178047618Y-117772619D02*
X177476190Y-117772619D01*
X177761904Y-117772619D02*
X177761904Y-116772619D01*
X177761904Y-116772619D02*
X177666666Y-116915476D01*
X177666666Y-116915476D02*
X177571428Y-117010714D01*
X177571428Y-117010714D02*
X177476190Y-117058333D01*
D13*
X169995238Y-165308333D02*
X173804762Y-165308333D01*
X171900000Y-167213095D02*
X171900000Y-163403571D01*
D12*
X217380952Y-83462619D02*
X216809524Y-83462619D01*
X217095238Y-83462619D02*
X217095238Y-82462619D01*
X217095238Y-82462619D02*
X217000000Y-82605476D01*
X217000000Y-82605476D02*
X216904762Y-82700714D01*
X216904762Y-82700714D02*
X216809524Y-82748333D01*
X217761905Y-82557857D02*
X217809524Y-82510238D01*
X217809524Y-82510238D02*
X217904762Y-82462619D01*
X217904762Y-82462619D02*
X218142857Y-82462619D01*
X218142857Y-82462619D02*
X218238095Y-82510238D01*
X218238095Y-82510238D02*
X218285714Y-82557857D01*
X218285714Y-82557857D02*
X218333333Y-82653095D01*
X218333333Y-82653095D02*
X218333333Y-82748333D01*
X218333333Y-82748333D02*
X218285714Y-82891190D01*
X218285714Y-82891190D02*
X217714286Y-83462619D01*
X217714286Y-83462619D02*
X218333333Y-83462619D01*
X218619048Y-82462619D02*
X218952381Y-83462619D01*
X218952381Y-83462619D02*
X219285714Y-82462619D01*
X224023809Y-98462619D02*
X224023809Y-97462619D01*
X224023809Y-97462619D02*
X224404761Y-97462619D01*
X224404761Y-97462619D02*
X224499999Y-97510238D01*
X224499999Y-97510238D02*
X224547618Y-97557857D01*
X224547618Y-97557857D02*
X224595237Y-97653095D01*
X224595237Y-97653095D02*
X224595237Y-97795952D01*
X224595237Y-97795952D02*
X224547618Y-97891190D01*
X224547618Y-97891190D02*
X224499999Y-97938809D01*
X224499999Y-97938809D02*
X224404761Y-97986428D01*
X224404761Y-97986428D02*
X224023809Y-97986428D01*
X225166666Y-98462619D02*
X225071428Y-98415000D01*
X225071428Y-98415000D02*
X225023809Y-98367380D01*
X225023809Y-98367380D02*
X224976190Y-98272142D01*
X224976190Y-98272142D02*
X224976190Y-97986428D01*
X224976190Y-97986428D02*
X225023809Y-97891190D01*
X225023809Y-97891190D02*
X225071428Y-97843571D01*
X225071428Y-97843571D02*
X225166666Y-97795952D01*
X225166666Y-97795952D02*
X225309523Y-97795952D01*
X225309523Y-97795952D02*
X225404761Y-97843571D01*
X225404761Y-97843571D02*
X225452380Y-97891190D01*
X225452380Y-97891190D02*
X225499999Y-97986428D01*
X225499999Y-97986428D02*
X225499999Y-98272142D01*
X225499999Y-98272142D02*
X225452380Y-98367380D01*
X225452380Y-98367380D02*
X225404761Y-98415000D01*
X225404761Y-98415000D02*
X225309523Y-98462619D01*
X225309523Y-98462619D02*
X225166666Y-98462619D01*
X225833333Y-97795952D02*
X226023809Y-98462619D01*
X226023809Y-98462619D02*
X226214285Y-97986428D01*
X226214285Y-97986428D02*
X226404761Y-98462619D01*
X226404761Y-98462619D02*
X226595237Y-97795952D01*
X227357142Y-98415000D02*
X227261904Y-98462619D01*
X227261904Y-98462619D02*
X227071428Y-98462619D01*
X227071428Y-98462619D02*
X226976190Y-98415000D01*
X226976190Y-98415000D02*
X226928571Y-98319761D01*
X226928571Y-98319761D02*
X226928571Y-97938809D01*
X226928571Y-97938809D02*
X226976190Y-97843571D01*
X226976190Y-97843571D02*
X227071428Y-97795952D01*
X227071428Y-97795952D02*
X227261904Y-97795952D01*
X227261904Y-97795952D02*
X227357142Y-97843571D01*
X227357142Y-97843571D02*
X227404761Y-97938809D01*
X227404761Y-97938809D02*
X227404761Y-98034047D01*
X227404761Y-98034047D02*
X226928571Y-98129285D01*
X227833333Y-98462619D02*
X227833333Y-97795952D01*
X227833333Y-97986428D02*
X227880952Y-97891190D01*
X227880952Y-97891190D02*
X227928571Y-97843571D01*
X227928571Y-97843571D02*
X228023809Y-97795952D01*
X228023809Y-97795952D02*
X228119047Y-97795952D01*
X184746269Y-108745832D02*
X183746269Y-108745832D01*
X183746269Y-108745832D02*
X183746269Y-108364880D01*
X183746269Y-108364880D02*
X183793888Y-108269642D01*
X183793888Y-108269642D02*
X183841507Y-108222023D01*
X183841507Y-108222023D02*
X183936745Y-108174404D01*
X183936745Y-108174404D02*
X184079602Y-108174404D01*
X184079602Y-108174404D02*
X184174840Y-108222023D01*
X184174840Y-108222023D02*
X184222459Y-108269642D01*
X184222459Y-108269642D02*
X184270078Y-108364880D01*
X184270078Y-108364880D02*
X184270078Y-108745832D01*
X183746269Y-107841070D02*
X184746269Y-107602975D01*
X184746269Y-107602975D02*
X184031983Y-107412499D01*
X184031983Y-107412499D02*
X184746269Y-107222023D01*
X184746269Y-107222023D02*
X183746269Y-106983928D01*
X184746269Y-106031547D02*
X184270078Y-106364880D01*
X184746269Y-106602975D02*
X183746269Y-106602975D01*
X183746269Y-106602975D02*
X183746269Y-106222023D01*
X183746269Y-106222023D02*
X183793888Y-106126785D01*
X183793888Y-106126785D02*
X183841507Y-106079166D01*
X183841507Y-106079166D02*
X183936745Y-106031547D01*
X183936745Y-106031547D02*
X184079602Y-106031547D01*
X184079602Y-106031547D02*
X184174840Y-106079166D01*
X184174840Y-106079166D02*
X184222459Y-106126785D01*
X184222459Y-106126785D02*
X184270078Y-106222023D01*
X184270078Y-106222023D02*
X184270078Y-106602975D01*
X169761905Y-87176904D02*
X170238095Y-87176904D01*
X169666667Y-87462619D02*
X170000000Y-86462619D01*
X170000000Y-86462619D02*
X170333333Y-87462619D01*
X170666667Y-86462619D02*
X170666667Y-87272142D01*
X170666667Y-87272142D02*
X170714286Y-87367380D01*
X170714286Y-87367380D02*
X170761905Y-87415000D01*
X170761905Y-87415000D02*
X170857143Y-87462619D01*
X170857143Y-87462619D02*
X171047619Y-87462619D01*
X171047619Y-87462619D02*
X171142857Y-87415000D01*
X171142857Y-87415000D02*
X171190476Y-87367380D01*
X171190476Y-87367380D02*
X171238095Y-87272142D01*
X171238095Y-87272142D02*
X171238095Y-86462619D01*
X171619048Y-86462619D02*
X172285714Y-87462619D01*
X172285714Y-86462619D02*
X171619048Y-87462619D01*
X166190475Y-94867380D02*
X166142856Y-94915000D01*
X166142856Y-94915000D02*
X165999999Y-94962619D01*
X165999999Y-94962619D02*
X165904761Y-94962619D01*
X165904761Y-94962619D02*
X165761904Y-94915000D01*
X165761904Y-94915000D02*
X165666666Y-94819761D01*
X165666666Y-94819761D02*
X165619047Y-94724523D01*
X165619047Y-94724523D02*
X165571428Y-94534047D01*
X165571428Y-94534047D02*
X165571428Y-94391190D01*
X165571428Y-94391190D02*
X165619047Y-94200714D01*
X165619047Y-94200714D02*
X165666666Y-94105476D01*
X165666666Y-94105476D02*
X165761904Y-94010238D01*
X165761904Y-94010238D02*
X165904761Y-93962619D01*
X165904761Y-93962619D02*
X165999999Y-93962619D01*
X165999999Y-93962619D02*
X166142856Y-94010238D01*
X166142856Y-94010238D02*
X166190475Y-94057857D01*
X166761904Y-94962619D02*
X166666666Y-94915000D01*
X166666666Y-94915000D02*
X166619047Y-94867380D01*
X166619047Y-94867380D02*
X166571428Y-94772142D01*
X166571428Y-94772142D02*
X166571428Y-94486428D01*
X166571428Y-94486428D02*
X166619047Y-94391190D01*
X166619047Y-94391190D02*
X166666666Y-94343571D01*
X166666666Y-94343571D02*
X166761904Y-94295952D01*
X166761904Y-94295952D02*
X166904761Y-94295952D01*
X166904761Y-94295952D02*
X166999999Y-94343571D01*
X166999999Y-94343571D02*
X167047618Y-94391190D01*
X167047618Y-94391190D02*
X167095237Y-94486428D01*
X167095237Y-94486428D02*
X167095237Y-94772142D01*
X167095237Y-94772142D02*
X167047618Y-94867380D01*
X167047618Y-94867380D02*
X166999999Y-94915000D01*
X166999999Y-94915000D02*
X166904761Y-94962619D01*
X166904761Y-94962619D02*
X166761904Y-94962619D01*
X167523809Y-94295952D02*
X167523809Y-94962619D01*
X167523809Y-94391190D02*
X167571428Y-94343571D01*
X167571428Y-94343571D02*
X167666666Y-94295952D01*
X167666666Y-94295952D02*
X167809523Y-94295952D01*
X167809523Y-94295952D02*
X167904761Y-94343571D01*
X167904761Y-94343571D02*
X167952380Y-94438809D01*
X167952380Y-94438809D02*
X167952380Y-94962619D01*
X168285714Y-94295952D02*
X168666666Y-94295952D01*
X168428571Y-93962619D02*
X168428571Y-94819761D01*
X168428571Y-94819761D02*
X168476190Y-94915000D01*
X168476190Y-94915000D02*
X168571428Y-94962619D01*
X168571428Y-94962619D02*
X168666666Y-94962619D01*
X169428571Y-94962619D02*
X169428571Y-94438809D01*
X169428571Y-94438809D02*
X169380952Y-94343571D01*
X169380952Y-94343571D02*
X169285714Y-94295952D01*
X169285714Y-94295952D02*
X169095238Y-94295952D01*
X169095238Y-94295952D02*
X169000000Y-94343571D01*
X169428571Y-94915000D02*
X169333333Y-94962619D01*
X169333333Y-94962619D02*
X169095238Y-94962619D01*
X169095238Y-94962619D02*
X169000000Y-94915000D01*
X169000000Y-94915000D02*
X168952381Y-94819761D01*
X168952381Y-94819761D02*
X168952381Y-94724523D01*
X168952381Y-94724523D02*
X169000000Y-94629285D01*
X169000000Y-94629285D02*
X169095238Y-94581666D01*
X169095238Y-94581666D02*
X169333333Y-94581666D01*
X169333333Y-94581666D02*
X169428571Y-94534047D01*
X170333333Y-94915000D02*
X170238095Y-94962619D01*
X170238095Y-94962619D02*
X170047619Y-94962619D01*
X170047619Y-94962619D02*
X169952381Y-94915000D01*
X169952381Y-94915000D02*
X169904762Y-94867380D01*
X169904762Y-94867380D02*
X169857143Y-94772142D01*
X169857143Y-94772142D02*
X169857143Y-94486428D01*
X169857143Y-94486428D02*
X169904762Y-94391190D01*
X169904762Y-94391190D02*
X169952381Y-94343571D01*
X169952381Y-94343571D02*
X170047619Y-94295952D01*
X170047619Y-94295952D02*
X170238095Y-94295952D01*
X170238095Y-94295952D02*
X170333333Y-94343571D01*
X170619048Y-94295952D02*
X171000000Y-94295952D01*
X170761905Y-93962619D02*
X170761905Y-94819761D01*
X170761905Y-94819761D02*
X170809524Y-94915000D01*
X170809524Y-94915000D02*
X170904762Y-94962619D01*
X170904762Y-94962619D02*
X171000000Y-94962619D01*
X171476191Y-94962619D02*
X171380953Y-94915000D01*
X171380953Y-94915000D02*
X171333334Y-94867380D01*
X171333334Y-94867380D02*
X171285715Y-94772142D01*
X171285715Y-94772142D02*
X171285715Y-94486428D01*
X171285715Y-94486428D02*
X171333334Y-94391190D01*
X171333334Y-94391190D02*
X171380953Y-94343571D01*
X171380953Y-94343571D02*
X171476191Y-94295952D01*
X171476191Y-94295952D02*
X171619048Y-94295952D01*
X171619048Y-94295952D02*
X171714286Y-94343571D01*
X171714286Y-94343571D02*
X171761905Y-94391190D01*
X171761905Y-94391190D02*
X171809524Y-94486428D01*
X171809524Y-94486428D02*
X171809524Y-94772142D01*
X171809524Y-94772142D02*
X171761905Y-94867380D01*
X171761905Y-94867380D02*
X171714286Y-94915000D01*
X171714286Y-94915000D02*
X171619048Y-94962619D01*
X171619048Y-94962619D02*
X171476191Y-94962619D01*
X172238096Y-94962619D02*
X172238096Y-94295952D01*
X172238096Y-94486428D02*
X172285715Y-94391190D01*
X172285715Y-94391190D02*
X172333334Y-94343571D01*
X172333334Y-94343571D02*
X172428572Y-94295952D01*
X172428572Y-94295952D02*
X172523810Y-94295952D01*
X178867380Y-86904762D02*
X178915000Y-86952381D01*
X178915000Y-86952381D02*
X178962619Y-87095238D01*
X178962619Y-87095238D02*
X178962619Y-87190476D01*
X178962619Y-87190476D02*
X178915000Y-87333333D01*
X178915000Y-87333333D02*
X178819761Y-87428571D01*
X178819761Y-87428571D02*
X178724523Y-87476190D01*
X178724523Y-87476190D02*
X178534047Y-87523809D01*
X178534047Y-87523809D02*
X178391190Y-87523809D01*
X178391190Y-87523809D02*
X178200714Y-87476190D01*
X178200714Y-87476190D02*
X178105476Y-87428571D01*
X178105476Y-87428571D02*
X178010238Y-87333333D01*
X178010238Y-87333333D02*
X177962619Y-87190476D01*
X177962619Y-87190476D02*
X177962619Y-87095238D01*
X177962619Y-87095238D02*
X178010238Y-86952381D01*
X178010238Y-86952381D02*
X178057857Y-86904762D01*
X177962619Y-86285714D02*
X177962619Y-86095238D01*
X177962619Y-86095238D02*
X178010238Y-86000000D01*
X178010238Y-86000000D02*
X178105476Y-85904762D01*
X178105476Y-85904762D02*
X178295952Y-85857143D01*
X178295952Y-85857143D02*
X178629285Y-85857143D01*
X178629285Y-85857143D02*
X178819761Y-85904762D01*
X178819761Y-85904762D02*
X178915000Y-86000000D01*
X178915000Y-86000000D02*
X178962619Y-86095238D01*
X178962619Y-86095238D02*
X178962619Y-86285714D01*
X178962619Y-86285714D02*
X178915000Y-86380952D01*
X178915000Y-86380952D02*
X178819761Y-86476190D01*
X178819761Y-86476190D02*
X178629285Y-86523809D01*
X178629285Y-86523809D02*
X178295952Y-86523809D01*
X178295952Y-86523809D02*
X178105476Y-86476190D01*
X178105476Y-86476190D02*
X178010238Y-86380952D01*
X178010238Y-86380952D02*
X177962619Y-86285714D01*
X178962619Y-85428571D02*
X177962619Y-85428571D01*
X177962619Y-85428571D02*
X178962619Y-84857143D01*
X178962619Y-84857143D02*
X177962619Y-84857143D01*
X177962619Y-84523809D02*
X177962619Y-83952381D01*
X178962619Y-84238095D02*
X177962619Y-84238095D01*
X178676904Y-83666666D02*
X178676904Y-83190476D01*
X178962619Y-83761904D02*
X177962619Y-83428571D01*
X177962619Y-83428571D02*
X178962619Y-83095238D01*
X178867380Y-82190476D02*
X178915000Y-82238095D01*
X178915000Y-82238095D02*
X178962619Y-82380952D01*
X178962619Y-82380952D02*
X178962619Y-82476190D01*
X178962619Y-82476190D02*
X178915000Y-82619047D01*
X178915000Y-82619047D02*
X178819761Y-82714285D01*
X178819761Y-82714285D02*
X178724523Y-82761904D01*
X178724523Y-82761904D02*
X178534047Y-82809523D01*
X178534047Y-82809523D02*
X178391190Y-82809523D01*
X178391190Y-82809523D02*
X178200714Y-82761904D01*
X178200714Y-82761904D02*
X178105476Y-82714285D01*
X178105476Y-82714285D02*
X178010238Y-82619047D01*
X178010238Y-82619047D02*
X177962619Y-82476190D01*
X177962619Y-82476190D02*
X177962619Y-82380952D01*
X177962619Y-82380952D02*
X178010238Y-82238095D01*
X178010238Y-82238095D02*
X178057857Y-82190476D01*
X177962619Y-81904761D02*
X177962619Y-81333333D01*
X178962619Y-81619047D02*
X177962619Y-81619047D01*
X177962619Y-80809523D02*
X177962619Y-80619047D01*
X177962619Y-80619047D02*
X178010238Y-80523809D01*
X178010238Y-80523809D02*
X178105476Y-80428571D01*
X178105476Y-80428571D02*
X178295952Y-80380952D01*
X178295952Y-80380952D02*
X178629285Y-80380952D01*
X178629285Y-80380952D02*
X178819761Y-80428571D01*
X178819761Y-80428571D02*
X178915000Y-80523809D01*
X178915000Y-80523809D02*
X178962619Y-80619047D01*
X178962619Y-80619047D02*
X178962619Y-80809523D01*
X178962619Y-80809523D02*
X178915000Y-80904761D01*
X178915000Y-80904761D02*
X178819761Y-80999999D01*
X178819761Y-80999999D02*
X178629285Y-81047618D01*
X178629285Y-81047618D02*
X178295952Y-81047618D01*
X178295952Y-81047618D02*
X178105476Y-80999999D01*
X178105476Y-80999999D02*
X178010238Y-80904761D01*
X178010238Y-80904761D02*
X177962619Y-80809523D01*
X178962619Y-79380952D02*
X178486428Y-79714285D01*
X178962619Y-79952380D02*
X177962619Y-79952380D01*
X177962619Y-79952380D02*
X177962619Y-79571428D01*
X177962619Y-79571428D02*
X178010238Y-79476190D01*
X178010238Y-79476190D02*
X178057857Y-79428571D01*
X178057857Y-79428571D02*
X178153095Y-79380952D01*
X178153095Y-79380952D02*
X178295952Y-79380952D01*
X178295952Y-79380952D02*
X178391190Y-79428571D01*
X178391190Y-79428571D02*
X178438809Y-79476190D01*
X178438809Y-79476190D02*
X178486428Y-79571428D01*
X178486428Y-79571428D02*
X178486428Y-79952380D01*
X178962619Y-78190475D02*
X177962619Y-78190475D01*
X177962619Y-78190475D02*
X177962619Y-77809523D01*
X177962619Y-77809523D02*
X178010238Y-77714285D01*
X178010238Y-77714285D02*
X178057857Y-77666666D01*
X178057857Y-77666666D02*
X178153095Y-77619047D01*
X178153095Y-77619047D02*
X178295952Y-77619047D01*
X178295952Y-77619047D02*
X178391190Y-77666666D01*
X178391190Y-77666666D02*
X178438809Y-77714285D01*
X178438809Y-77714285D02*
X178486428Y-77809523D01*
X178486428Y-77809523D02*
X178486428Y-78190475D01*
X177962619Y-77285713D02*
X178962619Y-77047618D01*
X178962619Y-77047618D02*
X178248333Y-76857142D01*
X178248333Y-76857142D02*
X178962619Y-76666666D01*
X178962619Y-76666666D02*
X177962619Y-76428571D01*
X178962619Y-75476190D02*
X178486428Y-75809523D01*
X178962619Y-76047618D02*
X177962619Y-76047618D01*
X177962619Y-76047618D02*
X177962619Y-75666666D01*
X177962619Y-75666666D02*
X178010238Y-75571428D01*
X178010238Y-75571428D02*
X178057857Y-75523809D01*
X178057857Y-75523809D02*
X178153095Y-75476190D01*
X178153095Y-75476190D02*
X178295952Y-75476190D01*
X178295952Y-75476190D02*
X178391190Y-75523809D01*
X178391190Y-75523809D02*
X178438809Y-75571428D01*
X178438809Y-75571428D02*
X178486428Y-75666666D01*
X178486428Y-75666666D02*
X178486428Y-76047618D01*
X169619048Y-82581666D02*
X170380953Y-82581666D01*
D14*
X15128571Y-17127142D02*
X14985714Y-17270000D01*
X14985714Y-17270000D02*
X14557142Y-17412857D01*
X14557142Y-17412857D02*
X14271428Y-17412857D01*
X14271428Y-17412857D02*
X13842857Y-17270000D01*
X13842857Y-17270000D02*
X13557142Y-16984285D01*
X13557142Y-16984285D02*
X13414285Y-16698571D01*
X13414285Y-16698571D02*
X13271428Y-16127142D01*
X13271428Y-16127142D02*
X13271428Y-15698571D01*
X13271428Y-15698571D02*
X13414285Y-15127142D01*
X13414285Y-15127142D02*
X13557142Y-14841428D01*
X13557142Y-14841428D02*
X13842857Y-14555714D01*
X13842857Y-14555714D02*
X14271428Y-14412857D01*
X14271428Y-14412857D02*
X14557142Y-14412857D01*
X14557142Y-14412857D02*
X14985714Y-14555714D01*
X14985714Y-14555714D02*
X15128571Y-14698571D01*
X16842857Y-17412857D02*
X16557142Y-17270000D01*
X16557142Y-17270000D02*
X16414285Y-17127142D01*
X16414285Y-17127142D02*
X16271428Y-16841428D01*
X16271428Y-16841428D02*
X16271428Y-15984285D01*
X16271428Y-15984285D02*
X16414285Y-15698571D01*
X16414285Y-15698571D02*
X16557142Y-15555714D01*
X16557142Y-15555714D02*
X16842857Y-15412857D01*
X16842857Y-15412857D02*
X17271428Y-15412857D01*
X17271428Y-15412857D02*
X17557142Y-15555714D01*
X17557142Y-15555714D02*
X17700000Y-15698571D01*
X17700000Y-15698571D02*
X17842857Y-15984285D01*
X17842857Y-15984285D02*
X17842857Y-16841428D01*
X17842857Y-16841428D02*
X17700000Y-17127142D01*
X17700000Y-17127142D02*
X17557142Y-17270000D01*
X17557142Y-17270000D02*
X17271428Y-17412857D01*
X17271428Y-17412857D02*
X16842857Y-17412857D01*
X19128571Y-15412857D02*
X19128571Y-17412857D01*
X19128571Y-15698571D02*
X19271428Y-15555714D01*
X19271428Y-15555714D02*
X19557143Y-15412857D01*
X19557143Y-15412857D02*
X19985714Y-15412857D01*
X19985714Y-15412857D02*
X20271428Y-15555714D01*
X20271428Y-15555714D02*
X20414286Y-15841428D01*
X20414286Y-15841428D02*
X20414286Y-17412857D01*
X21414286Y-15412857D02*
X22557143Y-15412857D01*
X21842857Y-14412857D02*
X21842857Y-16984285D01*
X21842857Y-16984285D02*
X21985714Y-17270000D01*
X21985714Y-17270000D02*
X22271429Y-17412857D01*
X22271429Y-17412857D02*
X22557143Y-17412857D01*
X24842858Y-17412857D02*
X24842858Y-15841428D01*
X24842858Y-15841428D02*
X24700000Y-15555714D01*
X24700000Y-15555714D02*
X24414286Y-15412857D01*
X24414286Y-15412857D02*
X23842858Y-15412857D01*
X23842858Y-15412857D02*
X23557143Y-15555714D01*
X24842858Y-17270000D02*
X24557143Y-17412857D01*
X24557143Y-17412857D02*
X23842858Y-17412857D01*
X23842858Y-17412857D02*
X23557143Y-17270000D01*
X23557143Y-17270000D02*
X23414286Y-16984285D01*
X23414286Y-16984285D02*
X23414286Y-16698571D01*
X23414286Y-16698571D02*
X23557143Y-16412857D01*
X23557143Y-16412857D02*
X23842858Y-16270000D01*
X23842858Y-16270000D02*
X24557143Y-16270000D01*
X24557143Y-16270000D02*
X24842858Y-16127142D01*
X27557144Y-17270000D02*
X27271429Y-17412857D01*
X27271429Y-17412857D02*
X26700001Y-17412857D01*
X26700001Y-17412857D02*
X26414286Y-17270000D01*
X26414286Y-17270000D02*
X26271429Y-17127142D01*
X26271429Y-17127142D02*
X26128572Y-16841428D01*
X26128572Y-16841428D02*
X26128572Y-15984285D01*
X26128572Y-15984285D02*
X26271429Y-15698571D01*
X26271429Y-15698571D02*
X26414286Y-15555714D01*
X26414286Y-15555714D02*
X26700001Y-15412857D01*
X26700001Y-15412857D02*
X27271429Y-15412857D01*
X27271429Y-15412857D02*
X27557144Y-15555714D01*
X28414287Y-15412857D02*
X29557144Y-15412857D01*
X28842858Y-14412857D02*
X28842858Y-16984285D01*
X28842858Y-16984285D02*
X28985715Y-17270000D01*
X28985715Y-17270000D02*
X29271430Y-17412857D01*
X29271430Y-17412857D02*
X29557144Y-17412857D01*
X30985716Y-17412857D02*
X30700001Y-17270000D01*
X30700001Y-17270000D02*
X30557144Y-17127142D01*
X30557144Y-17127142D02*
X30414287Y-16841428D01*
X30414287Y-16841428D02*
X30414287Y-15984285D01*
X30414287Y-15984285D02*
X30557144Y-15698571D01*
X30557144Y-15698571D02*
X30700001Y-15555714D01*
X30700001Y-15555714D02*
X30985716Y-15412857D01*
X30985716Y-15412857D02*
X31414287Y-15412857D01*
X31414287Y-15412857D02*
X31700001Y-15555714D01*
X31700001Y-15555714D02*
X31842859Y-15698571D01*
X31842859Y-15698571D02*
X31985716Y-15984285D01*
X31985716Y-15984285D02*
X31985716Y-16841428D01*
X31985716Y-16841428D02*
X31842859Y-17127142D01*
X31842859Y-17127142D02*
X31700001Y-17270000D01*
X31700001Y-17270000D02*
X31414287Y-17412857D01*
X31414287Y-17412857D02*
X30985716Y-17412857D01*
X33271430Y-17412857D02*
X33271430Y-15412857D01*
X33271430Y-15984285D02*
X33414287Y-15698571D01*
X33414287Y-15698571D02*
X33557145Y-15555714D01*
X33557145Y-15555714D02*
X33842859Y-15412857D01*
X33842859Y-15412857D02*
X34128573Y-15412857D01*
X37414287Y-17412857D02*
X37414287Y-14412857D01*
X37414287Y-14412857D02*
X38128573Y-14412857D01*
X38128573Y-14412857D02*
X38557144Y-14555714D01*
X38557144Y-14555714D02*
X38842859Y-14841428D01*
X38842859Y-14841428D02*
X38985716Y-15127142D01*
X38985716Y-15127142D02*
X39128573Y-15698571D01*
X39128573Y-15698571D02*
X39128573Y-16127142D01*
X39128573Y-16127142D02*
X38985716Y-16698571D01*
X38985716Y-16698571D02*
X38842859Y-16984285D01*
X38842859Y-16984285D02*
X38557144Y-17270000D01*
X38557144Y-17270000D02*
X38128573Y-17412857D01*
X38128573Y-17412857D02*
X37414287Y-17412857D01*
X40414287Y-17412857D02*
X40414287Y-15412857D01*
X40414287Y-15984285D02*
X40557144Y-15698571D01*
X40557144Y-15698571D02*
X40700002Y-15555714D01*
X40700002Y-15555714D02*
X40985716Y-15412857D01*
X40985716Y-15412857D02*
X41271430Y-15412857D01*
X42271430Y-17412857D02*
X42271430Y-15412857D01*
X42271430Y-14412857D02*
X42128573Y-14555714D01*
X42128573Y-14555714D02*
X42271430Y-14698571D01*
X42271430Y-14698571D02*
X42414287Y-14555714D01*
X42414287Y-14555714D02*
X42271430Y-14412857D01*
X42271430Y-14412857D02*
X42271430Y-14698571D01*
X43414287Y-15412857D02*
X44128573Y-17412857D01*
X44128573Y-17412857D02*
X44842858Y-15412857D01*
X47128572Y-17270000D02*
X46842858Y-17412857D01*
X46842858Y-17412857D02*
X46271430Y-17412857D01*
X46271430Y-17412857D02*
X45985715Y-17270000D01*
X45985715Y-17270000D02*
X45842858Y-16984285D01*
X45842858Y-16984285D02*
X45842858Y-15841428D01*
X45842858Y-15841428D02*
X45985715Y-15555714D01*
X45985715Y-15555714D02*
X46271430Y-15412857D01*
X46271430Y-15412857D02*
X46842858Y-15412857D01*
X46842858Y-15412857D02*
X47128572Y-15555714D01*
X47128572Y-15555714D02*
X47271430Y-15841428D01*
X47271430Y-15841428D02*
X47271430Y-16127142D01*
X47271430Y-16127142D02*
X45842858Y-16412857D01*
X48557144Y-17412857D02*
X48557144Y-15412857D01*
X48557144Y-15984285D02*
X48700001Y-15698571D01*
X48700001Y-15698571D02*
X48842859Y-15555714D01*
X48842859Y-15555714D02*
X49128573Y-15412857D01*
X49128573Y-15412857D02*
X49414287Y-15412857D01*
X52271430Y-14412857D02*
X53271430Y-17412857D01*
X53271430Y-17412857D02*
X54271430Y-14412857D01*
X56414287Y-17270000D02*
X56128573Y-17412857D01*
X56128573Y-17412857D02*
X55557145Y-17412857D01*
X55557145Y-17412857D02*
X55271430Y-17270000D01*
X55271430Y-17270000D02*
X55128573Y-16984285D01*
X55128573Y-16984285D02*
X55128573Y-15841428D01*
X55128573Y-15841428D02*
X55271430Y-15555714D01*
X55271430Y-15555714D02*
X55557145Y-15412857D01*
X55557145Y-15412857D02*
X56128573Y-15412857D01*
X56128573Y-15412857D02*
X56414287Y-15555714D01*
X56414287Y-15555714D02*
X56557145Y-15841428D01*
X56557145Y-15841428D02*
X56557145Y-16127142D01*
X56557145Y-16127142D02*
X55128573Y-16412857D01*
X57842859Y-17412857D02*
X57842859Y-15412857D01*
X57842859Y-15984285D02*
X57985716Y-15698571D01*
X57985716Y-15698571D02*
X58128574Y-15555714D01*
X58128574Y-15555714D02*
X58414288Y-15412857D01*
X58414288Y-15412857D02*
X58700002Y-15412857D01*
X59557145Y-17270000D02*
X59842859Y-17412857D01*
X59842859Y-17412857D02*
X60414288Y-17412857D01*
X60414288Y-17412857D02*
X60700002Y-17270000D01*
X60700002Y-17270000D02*
X60842859Y-16984285D01*
X60842859Y-16984285D02*
X60842859Y-16841428D01*
X60842859Y-16841428D02*
X60700002Y-16555714D01*
X60700002Y-16555714D02*
X60414288Y-16412857D01*
X60414288Y-16412857D02*
X59985717Y-16412857D01*
X59985717Y-16412857D02*
X59700002Y-16270000D01*
X59700002Y-16270000D02*
X59557145Y-15984285D01*
X59557145Y-15984285D02*
X59557145Y-15841428D01*
X59557145Y-15841428D02*
X59700002Y-15555714D01*
X59700002Y-15555714D02*
X59985717Y-15412857D01*
X59985717Y-15412857D02*
X60414288Y-15412857D01*
X60414288Y-15412857D02*
X60700002Y-15555714D01*
X62128573Y-17412857D02*
X62128573Y-15412857D01*
X62128573Y-14412857D02*
X61985716Y-14555714D01*
X61985716Y-14555714D02*
X62128573Y-14698571D01*
X62128573Y-14698571D02*
X62271430Y-14555714D01*
X62271430Y-14555714D02*
X62128573Y-14412857D01*
X62128573Y-14412857D02*
X62128573Y-14698571D01*
X63985716Y-17412857D02*
X63700001Y-17270000D01*
X63700001Y-17270000D02*
X63557144Y-17127142D01*
X63557144Y-17127142D02*
X63414287Y-16841428D01*
X63414287Y-16841428D02*
X63414287Y-15984285D01*
X63414287Y-15984285D02*
X63557144Y-15698571D01*
X63557144Y-15698571D02*
X63700001Y-15555714D01*
X63700001Y-15555714D02*
X63985716Y-15412857D01*
X63985716Y-15412857D02*
X64414287Y-15412857D01*
X64414287Y-15412857D02*
X64700001Y-15555714D01*
X64700001Y-15555714D02*
X64842859Y-15698571D01*
X64842859Y-15698571D02*
X64985716Y-15984285D01*
X64985716Y-15984285D02*
X64985716Y-16841428D01*
X64985716Y-16841428D02*
X64842859Y-17127142D01*
X64842859Y-17127142D02*
X64700001Y-17270000D01*
X64700001Y-17270000D02*
X64414287Y-17412857D01*
X64414287Y-17412857D02*
X63985716Y-17412857D01*
X66271430Y-15412857D02*
X66271430Y-17412857D01*
X66271430Y-15698571D02*
X66414287Y-15555714D01*
X66414287Y-15555714D02*
X66700002Y-15412857D01*
X66700002Y-15412857D02*
X67128573Y-15412857D01*
X67128573Y-15412857D02*
X67414287Y-15555714D01*
X67414287Y-15555714D02*
X67557145Y-15841428D01*
X67557145Y-15841428D02*
X67557145Y-17412857D01*
X71271430Y-17412857D02*
X71271430Y-14412857D01*
X71271430Y-15841428D02*
X72985716Y-15841428D01*
X72985716Y-17412857D02*
X72985716Y-14412857D01*
X74414287Y-17412857D02*
X74414287Y-15412857D01*
X74414287Y-14412857D02*
X74271430Y-14555714D01*
X74271430Y-14555714D02*
X74414287Y-14698571D01*
X74414287Y-14698571D02*
X74557144Y-14555714D01*
X74557144Y-14555714D02*
X74414287Y-14412857D01*
X74414287Y-14412857D02*
X74414287Y-14698571D01*
X75700001Y-17270000D02*
X75985715Y-17412857D01*
X75985715Y-17412857D02*
X76557144Y-17412857D01*
X76557144Y-17412857D02*
X76842858Y-17270000D01*
X76842858Y-17270000D02*
X76985715Y-16984285D01*
X76985715Y-16984285D02*
X76985715Y-16841428D01*
X76985715Y-16841428D02*
X76842858Y-16555714D01*
X76842858Y-16555714D02*
X76557144Y-16412857D01*
X76557144Y-16412857D02*
X76128573Y-16412857D01*
X76128573Y-16412857D02*
X75842858Y-16270000D01*
X75842858Y-16270000D02*
X75700001Y-15984285D01*
X75700001Y-15984285D02*
X75700001Y-15841428D01*
X75700001Y-15841428D02*
X75842858Y-15555714D01*
X75842858Y-15555714D02*
X76128573Y-15412857D01*
X76128573Y-15412857D02*
X76557144Y-15412857D01*
X76557144Y-15412857D02*
X76842858Y-15555714D01*
X77842858Y-15412857D02*
X78985715Y-15412857D01*
X78271429Y-14412857D02*
X78271429Y-16984285D01*
X78271429Y-16984285D02*
X78414286Y-17270000D01*
X78414286Y-17270000D02*
X78700001Y-17412857D01*
X78700001Y-17412857D02*
X78985715Y-17412857D01*
X80414287Y-17412857D02*
X80128572Y-17270000D01*
X80128572Y-17270000D02*
X79985715Y-17127142D01*
X79985715Y-17127142D02*
X79842858Y-16841428D01*
X79842858Y-16841428D02*
X79842858Y-15984285D01*
X79842858Y-15984285D02*
X79985715Y-15698571D01*
X79985715Y-15698571D02*
X80128572Y-15555714D01*
X80128572Y-15555714D02*
X80414287Y-15412857D01*
X80414287Y-15412857D02*
X80842858Y-15412857D01*
X80842858Y-15412857D02*
X81128572Y-15555714D01*
X81128572Y-15555714D02*
X81271430Y-15698571D01*
X81271430Y-15698571D02*
X81414287Y-15984285D01*
X81414287Y-15984285D02*
X81414287Y-16841428D01*
X81414287Y-16841428D02*
X81271430Y-17127142D01*
X81271430Y-17127142D02*
X81128572Y-17270000D01*
X81128572Y-17270000D02*
X80842858Y-17412857D01*
X80842858Y-17412857D02*
X80414287Y-17412857D01*
X82700001Y-17412857D02*
X82700001Y-15412857D01*
X82700001Y-15984285D02*
X82842858Y-15698571D01*
X82842858Y-15698571D02*
X82985716Y-15555714D01*
X82985716Y-15555714D02*
X83271430Y-15412857D01*
X83271430Y-15412857D02*
X83557144Y-15412857D01*
X84271430Y-15412857D02*
X84985716Y-17412857D01*
X85700001Y-15412857D02*
X84985716Y-17412857D01*
X84985716Y-17412857D02*
X84700001Y-18127142D01*
X84700001Y-18127142D02*
X84557144Y-18270000D01*
X84557144Y-18270000D02*
X84271430Y-18412857D01*
D12*
X169619048Y-79581666D02*
X170380953Y-79581666D01*
X170000000Y-79962619D02*
X170000000Y-79200714D01*
X224942619Y-139952380D02*
X225752142Y-139952380D01*
X225752142Y-139952380D02*
X225847380Y-139904761D01*
X225847380Y-139904761D02*
X225895000Y-139857142D01*
X225895000Y-139857142D02*
X225942619Y-139761904D01*
X225942619Y-139761904D02*
X225942619Y-139571428D01*
X225942619Y-139571428D02*
X225895000Y-139476190D01*
X225895000Y-139476190D02*
X225847380Y-139428571D01*
X225847380Y-139428571D02*
X225752142Y-139380952D01*
X225752142Y-139380952D02*
X224942619Y-139380952D01*
X224942619Y-139047618D02*
X224942619Y-138476190D01*
X225942619Y-138761904D02*
X224942619Y-138761904D01*
X225895000Y-138190475D02*
X225942619Y-138047618D01*
X225942619Y-138047618D02*
X225942619Y-137809523D01*
X225942619Y-137809523D02*
X225895000Y-137714285D01*
X225895000Y-137714285D02*
X225847380Y-137666666D01*
X225847380Y-137666666D02*
X225752142Y-137619047D01*
X225752142Y-137619047D02*
X225656904Y-137619047D01*
X225656904Y-137619047D02*
X225561666Y-137666666D01*
X225561666Y-137666666D02*
X225514047Y-137714285D01*
X225514047Y-137714285D02*
X225466428Y-137809523D01*
X225466428Y-137809523D02*
X225418809Y-137999999D01*
X225418809Y-137999999D02*
X225371190Y-138095237D01*
X225371190Y-138095237D02*
X225323571Y-138142856D01*
X225323571Y-138142856D02*
X225228333Y-138190475D01*
X225228333Y-138190475D02*
X225133095Y-138190475D01*
X225133095Y-138190475D02*
X225037857Y-138142856D01*
X225037857Y-138142856D02*
X224990238Y-138095237D01*
X224990238Y-138095237D02*
X224942619Y-137999999D01*
X224942619Y-137999999D02*
X224942619Y-137761904D01*
X224942619Y-137761904D02*
X224990238Y-137619047D01*
X224942619Y-137333332D02*
X225942619Y-136999999D01*
X225942619Y-136999999D02*
X224942619Y-136666666D01*
X224942619Y-136476189D02*
X224942619Y-135904761D01*
X225942619Y-136190475D02*
X224942619Y-136190475D01*
X227562619Y-150166668D02*
X226562619Y-150166668D01*
X226562619Y-150166668D02*
X226562619Y-149785716D01*
X226562619Y-149785716D02*
X226610238Y-149690478D01*
X226610238Y-149690478D02*
X226657857Y-149642859D01*
X226657857Y-149642859D02*
X226753095Y-149595240D01*
X226753095Y-149595240D02*
X226895952Y-149595240D01*
X226895952Y-149595240D02*
X226991190Y-149642859D01*
X226991190Y-149642859D02*
X227038809Y-149690478D01*
X227038809Y-149690478D02*
X227086428Y-149785716D01*
X227086428Y-149785716D02*
X227086428Y-150166668D01*
X227562619Y-149166668D02*
X226895952Y-149166668D01*
X227086428Y-149166668D02*
X226991190Y-149119049D01*
X226991190Y-149119049D02*
X226943571Y-149071430D01*
X226943571Y-149071430D02*
X226895952Y-148976192D01*
X226895952Y-148976192D02*
X226895952Y-148880954D01*
X227515000Y-148166668D02*
X227562619Y-148261906D01*
X227562619Y-148261906D02*
X227562619Y-148452382D01*
X227562619Y-148452382D02*
X227515000Y-148547620D01*
X227515000Y-148547620D02*
X227419761Y-148595239D01*
X227419761Y-148595239D02*
X227038809Y-148595239D01*
X227038809Y-148595239D02*
X226943571Y-148547620D01*
X226943571Y-148547620D02*
X226895952Y-148452382D01*
X226895952Y-148452382D02*
X226895952Y-148261906D01*
X226895952Y-148261906D02*
X226943571Y-148166668D01*
X226943571Y-148166668D02*
X227038809Y-148119049D01*
X227038809Y-148119049D02*
X227134047Y-148119049D01*
X227134047Y-148119049D02*
X227229285Y-148595239D01*
X227515000Y-147261906D02*
X227562619Y-147357144D01*
X227562619Y-147357144D02*
X227562619Y-147547620D01*
X227562619Y-147547620D02*
X227515000Y-147642858D01*
X227515000Y-147642858D02*
X227467380Y-147690477D01*
X227467380Y-147690477D02*
X227372142Y-147738096D01*
X227372142Y-147738096D02*
X227086428Y-147738096D01*
X227086428Y-147738096D02*
X226991190Y-147690477D01*
X226991190Y-147690477D02*
X226943571Y-147642858D01*
X226943571Y-147642858D02*
X226895952Y-147547620D01*
X226895952Y-147547620D02*
X226895952Y-147357144D01*
X226895952Y-147357144D02*
X226943571Y-147261906D01*
X227562619Y-146833334D02*
X226562619Y-146833334D01*
X227562619Y-146404763D02*
X227038809Y-146404763D01*
X227038809Y-146404763D02*
X226943571Y-146452382D01*
X226943571Y-146452382D02*
X226895952Y-146547620D01*
X226895952Y-146547620D02*
X226895952Y-146690477D01*
X226895952Y-146690477D02*
X226943571Y-146785715D01*
X226943571Y-146785715D02*
X226991190Y-146833334D01*
X227562619Y-145500001D02*
X227038809Y-145500001D01*
X227038809Y-145500001D02*
X226943571Y-145547620D01*
X226943571Y-145547620D02*
X226895952Y-145642858D01*
X226895952Y-145642858D02*
X226895952Y-145833334D01*
X226895952Y-145833334D02*
X226943571Y-145928572D01*
X227515000Y-145500001D02*
X227562619Y-145595239D01*
X227562619Y-145595239D02*
X227562619Y-145833334D01*
X227562619Y-145833334D02*
X227515000Y-145928572D01*
X227515000Y-145928572D02*
X227419761Y-145976191D01*
X227419761Y-145976191D02*
X227324523Y-145976191D01*
X227324523Y-145976191D02*
X227229285Y-145928572D01*
X227229285Y-145928572D02*
X227181666Y-145833334D01*
X227181666Y-145833334D02*
X227181666Y-145595239D01*
X227181666Y-145595239D02*
X227134047Y-145500001D01*
X227562619Y-145023810D02*
X226895952Y-145023810D01*
X227086428Y-145023810D02*
X226991190Y-144976191D01*
X226991190Y-144976191D02*
X226943571Y-144928572D01*
X226943571Y-144928572D02*
X226895952Y-144833334D01*
X226895952Y-144833334D02*
X226895952Y-144738096D01*
X226895952Y-143976191D02*
X227705476Y-143976191D01*
X227705476Y-143976191D02*
X227800714Y-144023810D01*
X227800714Y-144023810D02*
X227848333Y-144071429D01*
X227848333Y-144071429D02*
X227895952Y-144166667D01*
X227895952Y-144166667D02*
X227895952Y-144309524D01*
X227895952Y-144309524D02*
X227848333Y-144404762D01*
X227515000Y-143976191D02*
X227562619Y-144071429D01*
X227562619Y-144071429D02*
X227562619Y-144261905D01*
X227562619Y-144261905D02*
X227515000Y-144357143D01*
X227515000Y-144357143D02*
X227467380Y-144404762D01*
X227467380Y-144404762D02*
X227372142Y-144452381D01*
X227372142Y-144452381D02*
X227086428Y-144452381D01*
X227086428Y-144452381D02*
X226991190Y-144404762D01*
X226991190Y-144404762D02*
X226943571Y-144357143D01*
X226943571Y-144357143D02*
X226895952Y-144261905D01*
X226895952Y-144261905D02*
X226895952Y-144071429D01*
X226895952Y-144071429D02*
X226943571Y-143976191D01*
X227515000Y-143119048D02*
X227562619Y-143214286D01*
X227562619Y-143214286D02*
X227562619Y-143404762D01*
X227562619Y-143404762D02*
X227515000Y-143500000D01*
X227515000Y-143500000D02*
X227419761Y-143547619D01*
X227419761Y-143547619D02*
X227038809Y-143547619D01*
X227038809Y-143547619D02*
X226943571Y-143500000D01*
X226943571Y-143500000D02*
X226895952Y-143404762D01*
X226895952Y-143404762D02*
X226895952Y-143214286D01*
X226895952Y-143214286D02*
X226943571Y-143119048D01*
X226943571Y-143119048D02*
X227038809Y-143071429D01*
X227038809Y-143071429D02*
X227134047Y-143071429D01*
X227134047Y-143071429D02*
X227229285Y-143547619D01*
X226515000Y-141928572D02*
X227800714Y-142785714D01*
X227467380Y-141023810D02*
X227515000Y-141071429D01*
X227515000Y-141071429D02*
X227562619Y-141214286D01*
X227562619Y-141214286D02*
X227562619Y-141309524D01*
X227562619Y-141309524D02*
X227515000Y-141452381D01*
X227515000Y-141452381D02*
X227419761Y-141547619D01*
X227419761Y-141547619D02*
X227324523Y-141595238D01*
X227324523Y-141595238D02*
X227134047Y-141642857D01*
X227134047Y-141642857D02*
X226991190Y-141642857D01*
X226991190Y-141642857D02*
X226800714Y-141595238D01*
X226800714Y-141595238D02*
X226705476Y-141547619D01*
X226705476Y-141547619D02*
X226610238Y-141452381D01*
X226610238Y-141452381D02*
X226562619Y-141309524D01*
X226562619Y-141309524D02*
X226562619Y-141214286D01*
X226562619Y-141214286D02*
X226610238Y-141071429D01*
X226610238Y-141071429D02*
X226657857Y-141023810D01*
X227562619Y-140452381D02*
X227515000Y-140547619D01*
X227515000Y-140547619D02*
X227467380Y-140595238D01*
X227467380Y-140595238D02*
X227372142Y-140642857D01*
X227372142Y-140642857D02*
X227086428Y-140642857D01*
X227086428Y-140642857D02*
X226991190Y-140595238D01*
X226991190Y-140595238D02*
X226943571Y-140547619D01*
X226943571Y-140547619D02*
X226895952Y-140452381D01*
X226895952Y-140452381D02*
X226895952Y-140309524D01*
X226895952Y-140309524D02*
X226943571Y-140214286D01*
X226943571Y-140214286D02*
X226991190Y-140166667D01*
X226991190Y-140166667D02*
X227086428Y-140119048D01*
X227086428Y-140119048D02*
X227372142Y-140119048D01*
X227372142Y-140119048D02*
X227467380Y-140166667D01*
X227467380Y-140166667D02*
X227515000Y-140214286D01*
X227515000Y-140214286D02*
X227562619Y-140309524D01*
X227562619Y-140309524D02*
X227562619Y-140452381D01*
X226895952Y-139690476D02*
X227562619Y-139690476D01*
X226991190Y-139690476D02*
X226943571Y-139642857D01*
X226943571Y-139642857D02*
X226895952Y-139547619D01*
X226895952Y-139547619D02*
X226895952Y-139404762D01*
X226895952Y-139404762D02*
X226943571Y-139309524D01*
X226943571Y-139309524D02*
X227038809Y-139261905D01*
X227038809Y-139261905D02*
X227562619Y-139261905D01*
X226895952Y-138928571D02*
X226895952Y-138547619D01*
X226562619Y-138785714D02*
X227419761Y-138785714D01*
X227419761Y-138785714D02*
X227515000Y-138738095D01*
X227515000Y-138738095D02*
X227562619Y-138642857D01*
X227562619Y-138642857D02*
X227562619Y-138547619D01*
X227562619Y-137785714D02*
X227038809Y-137785714D01*
X227038809Y-137785714D02*
X226943571Y-137833333D01*
X226943571Y-137833333D02*
X226895952Y-137928571D01*
X226895952Y-137928571D02*
X226895952Y-138119047D01*
X226895952Y-138119047D02*
X226943571Y-138214285D01*
X227515000Y-137785714D02*
X227562619Y-137880952D01*
X227562619Y-137880952D02*
X227562619Y-138119047D01*
X227562619Y-138119047D02*
X227515000Y-138214285D01*
X227515000Y-138214285D02*
X227419761Y-138261904D01*
X227419761Y-138261904D02*
X227324523Y-138261904D01*
X227324523Y-138261904D02*
X227229285Y-138214285D01*
X227229285Y-138214285D02*
X227181666Y-138119047D01*
X227181666Y-138119047D02*
X227181666Y-137880952D01*
X227181666Y-137880952D02*
X227134047Y-137785714D01*
X227515000Y-136880952D02*
X227562619Y-136976190D01*
X227562619Y-136976190D02*
X227562619Y-137166666D01*
X227562619Y-137166666D02*
X227515000Y-137261904D01*
X227515000Y-137261904D02*
X227467380Y-137309523D01*
X227467380Y-137309523D02*
X227372142Y-137357142D01*
X227372142Y-137357142D02*
X227086428Y-137357142D01*
X227086428Y-137357142D02*
X226991190Y-137309523D01*
X226991190Y-137309523D02*
X226943571Y-137261904D01*
X226943571Y-137261904D02*
X226895952Y-137166666D01*
X226895952Y-137166666D02*
X226895952Y-136976190D01*
X226895952Y-136976190D02*
X226943571Y-136880952D01*
X226895952Y-136595237D02*
X226895952Y-136214285D01*
X226562619Y-136452380D02*
X227419761Y-136452380D01*
X227419761Y-136452380D02*
X227515000Y-136404761D01*
X227515000Y-136404761D02*
X227562619Y-136309523D01*
X227562619Y-136309523D02*
X227562619Y-136214285D01*
X227562619Y-135738094D02*
X227515000Y-135833332D01*
X227515000Y-135833332D02*
X227467380Y-135880951D01*
X227467380Y-135880951D02*
X227372142Y-135928570D01*
X227372142Y-135928570D02*
X227086428Y-135928570D01*
X227086428Y-135928570D02*
X226991190Y-135880951D01*
X226991190Y-135880951D02*
X226943571Y-135833332D01*
X226943571Y-135833332D02*
X226895952Y-135738094D01*
X226895952Y-135738094D02*
X226895952Y-135595237D01*
X226895952Y-135595237D02*
X226943571Y-135499999D01*
X226943571Y-135499999D02*
X226991190Y-135452380D01*
X226991190Y-135452380D02*
X227086428Y-135404761D01*
X227086428Y-135404761D02*
X227372142Y-135404761D01*
X227372142Y-135404761D02*
X227467380Y-135452380D01*
X227467380Y-135452380D02*
X227515000Y-135499999D01*
X227515000Y-135499999D02*
X227562619Y-135595237D01*
X227562619Y-135595237D02*
X227562619Y-135738094D01*
X227562619Y-134976189D02*
X226895952Y-134976189D01*
X227086428Y-134976189D02*
X226991190Y-134928570D01*
X226991190Y-134928570D02*
X226943571Y-134880951D01*
X226943571Y-134880951D02*
X226895952Y-134785713D01*
X226895952Y-134785713D02*
X226895952Y-134690475D01*
X227562619Y-133595236D02*
X226562619Y-133595236D01*
X226562619Y-133595236D02*
X226562619Y-133357141D01*
X226562619Y-133357141D02*
X226610238Y-133214284D01*
X226610238Y-133214284D02*
X226705476Y-133119046D01*
X226705476Y-133119046D02*
X226800714Y-133071427D01*
X226800714Y-133071427D02*
X226991190Y-133023808D01*
X226991190Y-133023808D02*
X227134047Y-133023808D01*
X227134047Y-133023808D02*
X227324523Y-133071427D01*
X227324523Y-133071427D02*
X227419761Y-133119046D01*
X227419761Y-133119046D02*
X227515000Y-133214284D01*
X227515000Y-133214284D02*
X227562619Y-133357141D01*
X227562619Y-133357141D02*
X227562619Y-133595236D01*
X227562619Y-132595236D02*
X226895952Y-132595236D01*
X227086428Y-132595236D02*
X226991190Y-132547617D01*
X226991190Y-132547617D02*
X226943571Y-132499998D01*
X226943571Y-132499998D02*
X226895952Y-132404760D01*
X226895952Y-132404760D02*
X226895952Y-132309522D01*
X227562619Y-131976188D02*
X226895952Y-131976188D01*
X226562619Y-131976188D02*
X226610238Y-132023807D01*
X226610238Y-132023807D02*
X226657857Y-131976188D01*
X226657857Y-131976188D02*
X226610238Y-131928569D01*
X226610238Y-131928569D02*
X226562619Y-131976188D01*
X226562619Y-131976188D02*
X226657857Y-131976188D01*
X226895952Y-131595236D02*
X227562619Y-131357141D01*
X227562619Y-131357141D02*
X226895952Y-131119046D01*
X227515000Y-130357141D02*
X227562619Y-130452379D01*
X227562619Y-130452379D02*
X227562619Y-130642855D01*
X227562619Y-130642855D02*
X227515000Y-130738093D01*
X227515000Y-130738093D02*
X227419761Y-130785712D01*
X227419761Y-130785712D02*
X227038809Y-130785712D01*
X227038809Y-130785712D02*
X226943571Y-130738093D01*
X226943571Y-130738093D02*
X226895952Y-130642855D01*
X226895952Y-130642855D02*
X226895952Y-130452379D01*
X226895952Y-130452379D02*
X226943571Y-130357141D01*
X226943571Y-130357141D02*
X227038809Y-130309522D01*
X227038809Y-130309522D02*
X227134047Y-130309522D01*
X227134047Y-130309522D02*
X227229285Y-130785712D01*
X227562619Y-129880950D02*
X226895952Y-129880950D01*
X227086428Y-129880950D02*
X226991190Y-129833331D01*
X226991190Y-129833331D02*
X226943571Y-129785712D01*
X226943571Y-129785712D02*
X226895952Y-129690474D01*
X226895952Y-129690474D02*
X226895952Y-129595236D01*
X226895952Y-128595235D02*
X227562619Y-128357140D01*
X227562619Y-128357140D02*
X226895952Y-128119045D01*
X226657857Y-127785711D02*
X226610238Y-127738092D01*
X226610238Y-127738092D02*
X226562619Y-127642854D01*
X226562619Y-127642854D02*
X226562619Y-127404759D01*
X226562619Y-127404759D02*
X226610238Y-127309521D01*
X226610238Y-127309521D02*
X226657857Y-127261902D01*
X226657857Y-127261902D02*
X226753095Y-127214283D01*
X226753095Y-127214283D02*
X226848333Y-127214283D01*
X226848333Y-127214283D02*
X226991190Y-127261902D01*
X226991190Y-127261902D02*
X227562619Y-127833330D01*
X227562619Y-127833330D02*
X227562619Y-127214283D01*
X227467380Y-126785711D02*
X227515000Y-126738092D01*
X227515000Y-126738092D02*
X227562619Y-126785711D01*
X227562619Y-126785711D02*
X227515000Y-126833330D01*
X227515000Y-126833330D02*
X227467380Y-126785711D01*
X227467380Y-126785711D02*
X227562619Y-126785711D01*
X226562619Y-126119045D02*
X226562619Y-126023807D01*
X226562619Y-126023807D02*
X226610238Y-125928569D01*
X226610238Y-125928569D02*
X226657857Y-125880950D01*
X226657857Y-125880950D02*
X226753095Y-125833331D01*
X226753095Y-125833331D02*
X226943571Y-125785712D01*
X226943571Y-125785712D02*
X227181666Y-125785712D01*
X227181666Y-125785712D02*
X227372142Y-125833331D01*
X227372142Y-125833331D02*
X227467380Y-125880950D01*
X227467380Y-125880950D02*
X227515000Y-125928569D01*
X227515000Y-125928569D02*
X227562619Y-126023807D01*
X227562619Y-126023807D02*
X227562619Y-126119045D01*
X227562619Y-126119045D02*
X227515000Y-126214283D01*
X227515000Y-126214283D02*
X227467380Y-126261902D01*
X227467380Y-126261902D02*
X227372142Y-126309521D01*
X227372142Y-126309521D02*
X227181666Y-126357140D01*
X227181666Y-126357140D02*
X226943571Y-126357140D01*
X226943571Y-126357140D02*
X226753095Y-126309521D01*
X226753095Y-126309521D02*
X226657857Y-126261902D01*
X226657857Y-126261902D02*
X226610238Y-126214283D01*
X226610238Y-126214283D02*
X226562619Y-126119045D01*
X229135000Y-149666667D02*
X229182619Y-149523810D01*
X229182619Y-149523810D02*
X229182619Y-149285715D01*
X229182619Y-149285715D02*
X229135000Y-149190477D01*
X229135000Y-149190477D02*
X229087380Y-149142858D01*
X229087380Y-149142858D02*
X228992142Y-149095239D01*
X228992142Y-149095239D02*
X228896904Y-149095239D01*
X228896904Y-149095239D02*
X228801666Y-149142858D01*
X228801666Y-149142858D02*
X228754047Y-149190477D01*
X228754047Y-149190477D02*
X228706428Y-149285715D01*
X228706428Y-149285715D02*
X228658809Y-149476191D01*
X228658809Y-149476191D02*
X228611190Y-149571429D01*
X228611190Y-149571429D02*
X228563571Y-149619048D01*
X228563571Y-149619048D02*
X228468333Y-149666667D01*
X228468333Y-149666667D02*
X228373095Y-149666667D01*
X228373095Y-149666667D02*
X228277857Y-149619048D01*
X228277857Y-149619048D02*
X228230238Y-149571429D01*
X228230238Y-149571429D02*
X228182619Y-149476191D01*
X228182619Y-149476191D02*
X228182619Y-149238096D01*
X228182619Y-149238096D02*
X228230238Y-149095239D01*
X228515952Y-148666667D02*
X229515952Y-148666667D01*
X228563571Y-148666667D02*
X228515952Y-148571429D01*
X228515952Y-148571429D02*
X228515952Y-148380953D01*
X228515952Y-148380953D02*
X228563571Y-148285715D01*
X228563571Y-148285715D02*
X228611190Y-148238096D01*
X228611190Y-148238096D02*
X228706428Y-148190477D01*
X228706428Y-148190477D02*
X228992142Y-148190477D01*
X228992142Y-148190477D02*
X229087380Y-148238096D01*
X229087380Y-148238096D02*
X229135000Y-148285715D01*
X229135000Y-148285715D02*
X229182619Y-148380953D01*
X229182619Y-148380953D02*
X229182619Y-148571429D01*
X229182619Y-148571429D02*
X229135000Y-148666667D01*
X229182619Y-147761905D02*
X228515952Y-147761905D01*
X228706428Y-147761905D02*
X228611190Y-147714286D01*
X228611190Y-147714286D02*
X228563571Y-147666667D01*
X228563571Y-147666667D02*
X228515952Y-147571429D01*
X228515952Y-147571429D02*
X228515952Y-147476191D01*
X229182619Y-147142857D02*
X228515952Y-147142857D01*
X228182619Y-147142857D02*
X228230238Y-147190476D01*
X228230238Y-147190476D02*
X228277857Y-147142857D01*
X228277857Y-147142857D02*
X228230238Y-147095238D01*
X228230238Y-147095238D02*
X228182619Y-147142857D01*
X228182619Y-147142857D02*
X228277857Y-147142857D01*
X228515952Y-146666667D02*
X229182619Y-146666667D01*
X228611190Y-146666667D02*
X228563571Y-146619048D01*
X228563571Y-146619048D02*
X228515952Y-146523810D01*
X228515952Y-146523810D02*
X228515952Y-146380953D01*
X228515952Y-146380953D02*
X228563571Y-146285715D01*
X228563571Y-146285715D02*
X228658809Y-146238096D01*
X228658809Y-146238096D02*
X229182619Y-146238096D01*
X228515952Y-145333334D02*
X229325476Y-145333334D01*
X229325476Y-145333334D02*
X229420714Y-145380953D01*
X229420714Y-145380953D02*
X229468333Y-145428572D01*
X229468333Y-145428572D02*
X229515952Y-145523810D01*
X229515952Y-145523810D02*
X229515952Y-145666667D01*
X229515952Y-145666667D02*
X229468333Y-145761905D01*
X229135000Y-145333334D02*
X229182619Y-145428572D01*
X229182619Y-145428572D02*
X229182619Y-145619048D01*
X229182619Y-145619048D02*
X229135000Y-145714286D01*
X229135000Y-145714286D02*
X229087380Y-145761905D01*
X229087380Y-145761905D02*
X228992142Y-145809524D01*
X228992142Y-145809524D02*
X228706428Y-145809524D01*
X228706428Y-145809524D02*
X228611190Y-145761905D01*
X228611190Y-145761905D02*
X228563571Y-145714286D01*
X228563571Y-145714286D02*
X228515952Y-145619048D01*
X228515952Y-145619048D02*
X228515952Y-145428572D01*
X228515952Y-145428572D02*
X228563571Y-145333334D01*
X228277857Y-144142857D02*
X228230238Y-144095238D01*
X228230238Y-144095238D02*
X228182619Y-144000000D01*
X228182619Y-144000000D02*
X228182619Y-143761905D01*
X228182619Y-143761905D02*
X228230238Y-143666667D01*
X228230238Y-143666667D02*
X228277857Y-143619048D01*
X228277857Y-143619048D02*
X228373095Y-143571429D01*
X228373095Y-143571429D02*
X228468333Y-143571429D01*
X228468333Y-143571429D02*
X228611190Y-143619048D01*
X228611190Y-143619048D02*
X229182619Y-144190476D01*
X229182619Y-144190476D02*
X229182619Y-143571429D01*
X228182619Y-142952381D02*
X228182619Y-142857143D01*
X228182619Y-142857143D02*
X228230238Y-142761905D01*
X228230238Y-142761905D02*
X228277857Y-142714286D01*
X228277857Y-142714286D02*
X228373095Y-142666667D01*
X228373095Y-142666667D02*
X228563571Y-142619048D01*
X228563571Y-142619048D02*
X228801666Y-142619048D01*
X228801666Y-142619048D02*
X228992142Y-142666667D01*
X228992142Y-142666667D02*
X229087380Y-142714286D01*
X229087380Y-142714286D02*
X229135000Y-142761905D01*
X229135000Y-142761905D02*
X229182619Y-142857143D01*
X229182619Y-142857143D02*
X229182619Y-142952381D01*
X229182619Y-142952381D02*
X229135000Y-143047619D01*
X229135000Y-143047619D02*
X229087380Y-143095238D01*
X229087380Y-143095238D02*
X228992142Y-143142857D01*
X228992142Y-143142857D02*
X228801666Y-143190476D01*
X228801666Y-143190476D02*
X228563571Y-143190476D01*
X228563571Y-143190476D02*
X228373095Y-143142857D01*
X228373095Y-143142857D02*
X228277857Y-143095238D01*
X228277857Y-143095238D02*
X228230238Y-143047619D01*
X228230238Y-143047619D02*
X228182619Y-142952381D01*
X228277857Y-142238095D02*
X228230238Y-142190476D01*
X228230238Y-142190476D02*
X228182619Y-142095238D01*
X228182619Y-142095238D02*
X228182619Y-141857143D01*
X228182619Y-141857143D02*
X228230238Y-141761905D01*
X228230238Y-141761905D02*
X228277857Y-141714286D01*
X228277857Y-141714286D02*
X228373095Y-141666667D01*
X228373095Y-141666667D02*
X228468333Y-141666667D01*
X228468333Y-141666667D02*
X228611190Y-141714286D01*
X228611190Y-141714286D02*
X229182619Y-142285714D01*
X229182619Y-142285714D02*
X229182619Y-141666667D01*
X228182619Y-141333333D02*
X228182619Y-140714286D01*
X228182619Y-140714286D02*
X228563571Y-141047619D01*
X228563571Y-141047619D02*
X228563571Y-140904762D01*
X228563571Y-140904762D02*
X228611190Y-140809524D01*
X228611190Y-140809524D02*
X228658809Y-140761905D01*
X228658809Y-140761905D02*
X228754047Y-140714286D01*
X228754047Y-140714286D02*
X228992142Y-140714286D01*
X228992142Y-140714286D02*
X229087380Y-140761905D01*
X229087380Y-140761905D02*
X229135000Y-140809524D01*
X229135000Y-140809524D02*
X229182619Y-140904762D01*
X229182619Y-140904762D02*
X229182619Y-141190476D01*
X229182619Y-141190476D02*
X229135000Y-141285714D01*
X229135000Y-141285714D02*
X229087380Y-141333333D01*
X228801666Y-139523809D02*
X228801666Y-138761905D01*
X229182619Y-137523809D02*
X228182619Y-137523809D01*
X228182619Y-137523809D02*
X228182619Y-137285714D01*
X228182619Y-137285714D02*
X228230238Y-137142857D01*
X228230238Y-137142857D02*
X228325476Y-137047619D01*
X228325476Y-137047619D02*
X228420714Y-137000000D01*
X228420714Y-137000000D02*
X228611190Y-136952381D01*
X228611190Y-136952381D02*
X228754047Y-136952381D01*
X228754047Y-136952381D02*
X228944523Y-137000000D01*
X228944523Y-137000000D02*
X229039761Y-137047619D01*
X229039761Y-137047619D02*
X229135000Y-137142857D01*
X229135000Y-137142857D02*
X229182619Y-137285714D01*
X229182619Y-137285714D02*
X229182619Y-137523809D01*
X229182619Y-136095238D02*
X228658809Y-136095238D01*
X228658809Y-136095238D02*
X228563571Y-136142857D01*
X228563571Y-136142857D02*
X228515952Y-136238095D01*
X228515952Y-136238095D02*
X228515952Y-136428571D01*
X228515952Y-136428571D02*
X228563571Y-136523809D01*
X229135000Y-136095238D02*
X229182619Y-136190476D01*
X229182619Y-136190476D02*
X229182619Y-136428571D01*
X229182619Y-136428571D02*
X229135000Y-136523809D01*
X229135000Y-136523809D02*
X229039761Y-136571428D01*
X229039761Y-136571428D02*
X228944523Y-136571428D01*
X228944523Y-136571428D02*
X228849285Y-136523809D01*
X228849285Y-136523809D02*
X228801666Y-136428571D01*
X228801666Y-136428571D02*
X228801666Y-136190476D01*
X228801666Y-136190476D02*
X228754047Y-136095238D01*
X228182619Y-134666666D02*
X228182619Y-134476190D01*
X228182619Y-134476190D02*
X228230238Y-134380952D01*
X228230238Y-134380952D02*
X228325476Y-134285714D01*
X228325476Y-134285714D02*
X228515952Y-134238095D01*
X228515952Y-134238095D02*
X228849285Y-134238095D01*
X228849285Y-134238095D02*
X229039761Y-134285714D01*
X229039761Y-134285714D02*
X229135000Y-134380952D01*
X229135000Y-134380952D02*
X229182619Y-134476190D01*
X229182619Y-134476190D02*
X229182619Y-134666666D01*
X229182619Y-134666666D02*
X229135000Y-134761904D01*
X229135000Y-134761904D02*
X229039761Y-134857142D01*
X229039761Y-134857142D02*
X228849285Y-134904761D01*
X228849285Y-134904761D02*
X228515952Y-134904761D01*
X228515952Y-134904761D02*
X228325476Y-134857142D01*
X228325476Y-134857142D02*
X228230238Y-134761904D01*
X228230238Y-134761904D02*
X228182619Y-134666666D01*
X228230238Y-133285714D02*
X228182619Y-133380952D01*
X228182619Y-133380952D02*
X228182619Y-133523809D01*
X228182619Y-133523809D02*
X228230238Y-133666666D01*
X228230238Y-133666666D02*
X228325476Y-133761904D01*
X228325476Y-133761904D02*
X228420714Y-133809523D01*
X228420714Y-133809523D02*
X228611190Y-133857142D01*
X228611190Y-133857142D02*
X228754047Y-133857142D01*
X228754047Y-133857142D02*
X228944523Y-133809523D01*
X228944523Y-133809523D02*
X229039761Y-133761904D01*
X229039761Y-133761904D02*
X229135000Y-133666666D01*
X229135000Y-133666666D02*
X229182619Y-133523809D01*
X229182619Y-133523809D02*
X229182619Y-133428571D01*
X229182619Y-133428571D02*
X229135000Y-133285714D01*
X229135000Y-133285714D02*
X229087380Y-133238095D01*
X229087380Y-133238095D02*
X228754047Y-133238095D01*
X228754047Y-133238095D02*
X228754047Y-133428571D01*
X229182619Y-132047618D02*
X228182619Y-132047618D01*
X228182619Y-132047618D02*
X228896904Y-131714285D01*
X228896904Y-131714285D02*
X228182619Y-131380952D01*
X228182619Y-131380952D02*
X229182619Y-131380952D01*
X229182619Y-130476190D02*
X228658809Y-130476190D01*
X228658809Y-130476190D02*
X228563571Y-130523809D01*
X228563571Y-130523809D02*
X228515952Y-130619047D01*
X228515952Y-130619047D02*
X228515952Y-130809523D01*
X228515952Y-130809523D02*
X228563571Y-130904761D01*
X229135000Y-130476190D02*
X229182619Y-130571428D01*
X229182619Y-130571428D02*
X229182619Y-130809523D01*
X229182619Y-130809523D02*
X229135000Y-130904761D01*
X229135000Y-130904761D02*
X229039761Y-130952380D01*
X229039761Y-130952380D02*
X228944523Y-130952380D01*
X228944523Y-130952380D02*
X228849285Y-130904761D01*
X228849285Y-130904761D02*
X228801666Y-130809523D01*
X228801666Y-130809523D02*
X228801666Y-130571428D01*
X228801666Y-130571428D02*
X228754047Y-130476190D01*
X228515952Y-129999999D02*
X229182619Y-129999999D01*
X228611190Y-129999999D02*
X228563571Y-129952380D01*
X228563571Y-129952380D02*
X228515952Y-129857142D01*
X228515952Y-129857142D02*
X228515952Y-129714285D01*
X228515952Y-129714285D02*
X228563571Y-129619047D01*
X228563571Y-129619047D02*
X228658809Y-129571428D01*
X228658809Y-129571428D02*
X229182619Y-129571428D01*
X229182619Y-128666666D02*
X228658809Y-128666666D01*
X228658809Y-128666666D02*
X228563571Y-128714285D01*
X228563571Y-128714285D02*
X228515952Y-128809523D01*
X228515952Y-128809523D02*
X228515952Y-128999999D01*
X228515952Y-128999999D02*
X228563571Y-129095237D01*
X229135000Y-128666666D02*
X229182619Y-128761904D01*
X229182619Y-128761904D02*
X229182619Y-128999999D01*
X229182619Y-128999999D02*
X229135000Y-129095237D01*
X229135000Y-129095237D02*
X229039761Y-129142856D01*
X229039761Y-129142856D02*
X228944523Y-129142856D01*
X228944523Y-129142856D02*
X228849285Y-129095237D01*
X228849285Y-129095237D02*
X228801666Y-128999999D01*
X228801666Y-128999999D02*
X228801666Y-128761904D01*
X228801666Y-128761904D02*
X228754047Y-128666666D01*
X228515952Y-128333332D02*
X228515952Y-127952380D01*
X228182619Y-128190475D02*
X229039761Y-128190475D01*
X229039761Y-128190475D02*
X229135000Y-128142856D01*
X229135000Y-128142856D02*
X229182619Y-128047618D01*
X229182619Y-128047618D02*
X229182619Y-127952380D01*
X229135000Y-127238094D02*
X229182619Y-127333332D01*
X229182619Y-127333332D02*
X229182619Y-127523808D01*
X229182619Y-127523808D02*
X229135000Y-127619046D01*
X229135000Y-127619046D02*
X229039761Y-127666665D01*
X229039761Y-127666665D02*
X228658809Y-127666665D01*
X228658809Y-127666665D02*
X228563571Y-127619046D01*
X228563571Y-127619046D02*
X228515952Y-127523808D01*
X228515952Y-127523808D02*
X228515952Y-127333332D01*
X228515952Y-127333332D02*
X228563571Y-127238094D01*
X228563571Y-127238094D02*
X228658809Y-127190475D01*
X228658809Y-127190475D02*
X228754047Y-127190475D01*
X228754047Y-127190475D02*
X228849285Y-127666665D01*
X229135000Y-126380951D02*
X229182619Y-126476189D01*
X229182619Y-126476189D02*
X229182619Y-126666665D01*
X229182619Y-126666665D02*
X229135000Y-126761903D01*
X229135000Y-126761903D02*
X229039761Y-126809522D01*
X229039761Y-126809522D02*
X228658809Y-126809522D01*
X228658809Y-126809522D02*
X228563571Y-126761903D01*
X228563571Y-126761903D02*
X228515952Y-126666665D01*
X228515952Y-126666665D02*
X228515952Y-126476189D01*
X228515952Y-126476189D02*
X228563571Y-126380951D01*
X228563571Y-126380951D02*
X228658809Y-126333332D01*
X228658809Y-126333332D02*
X228754047Y-126333332D01*
X228754047Y-126333332D02*
X228849285Y-126809522D01*
X181096269Y-108238094D02*
X180096269Y-108238094D01*
X180096269Y-108238094D02*
X180096269Y-107999999D01*
X180096269Y-107999999D02*
X180143888Y-107857142D01*
X180143888Y-107857142D02*
X180239126Y-107761904D01*
X180239126Y-107761904D02*
X180334364Y-107714285D01*
X180334364Y-107714285D02*
X180524840Y-107666666D01*
X180524840Y-107666666D02*
X180667697Y-107666666D01*
X180667697Y-107666666D02*
X180858173Y-107714285D01*
X180858173Y-107714285D02*
X180953411Y-107761904D01*
X180953411Y-107761904D02*
X181048650Y-107857142D01*
X181048650Y-107857142D02*
X181096269Y-107999999D01*
X181096269Y-107999999D02*
X181096269Y-108238094D01*
X180429602Y-106809523D02*
X181096269Y-106809523D01*
X180048650Y-107047618D02*
X180762935Y-107285713D01*
X180762935Y-107285713D02*
X180762935Y-106666666D01*
X176962619Y-87738094D02*
X175962619Y-87738094D01*
X175962619Y-87738094D02*
X175962619Y-87499999D01*
X175962619Y-87499999D02*
X176010238Y-87357142D01*
X176010238Y-87357142D02*
X176105476Y-87261904D01*
X176105476Y-87261904D02*
X176200714Y-87214285D01*
X176200714Y-87214285D02*
X176391190Y-87166666D01*
X176391190Y-87166666D02*
X176534047Y-87166666D01*
X176534047Y-87166666D02*
X176724523Y-87214285D01*
X176724523Y-87214285D02*
X176819761Y-87261904D01*
X176819761Y-87261904D02*
X176915000Y-87357142D01*
X176915000Y-87357142D02*
X176962619Y-87499999D01*
X176962619Y-87499999D02*
X176962619Y-87738094D01*
X176057857Y-86785713D02*
X176010238Y-86738094D01*
X176010238Y-86738094D02*
X175962619Y-86642856D01*
X175962619Y-86642856D02*
X175962619Y-86404761D01*
X175962619Y-86404761D02*
X176010238Y-86309523D01*
X176010238Y-86309523D02*
X176057857Y-86261904D01*
X176057857Y-86261904D02*
X176153095Y-86214285D01*
X176153095Y-86214285D02*
X176248333Y-86214285D01*
X176248333Y-86214285D02*
X176391190Y-86261904D01*
X176391190Y-86261904D02*
X176962619Y-86833332D01*
X176962619Y-86833332D02*
X176962619Y-86214285D01*
X230262619Y-84833333D02*
X230976904Y-84833333D01*
X230976904Y-84833333D02*
X231119761Y-84880952D01*
X231119761Y-84880952D02*
X231215000Y-84976190D01*
X231215000Y-84976190D02*
X231262619Y-85119047D01*
X231262619Y-85119047D02*
X231262619Y-85214285D01*
X230357857Y-84404761D02*
X230310238Y-84357142D01*
X230310238Y-84357142D02*
X230262619Y-84261904D01*
X230262619Y-84261904D02*
X230262619Y-84023809D01*
X230262619Y-84023809D02*
X230310238Y-83928571D01*
X230310238Y-83928571D02*
X230357857Y-83880952D01*
X230357857Y-83880952D02*
X230453095Y-83833333D01*
X230453095Y-83833333D02*
X230548333Y-83833333D01*
X230548333Y-83833333D02*
X230691190Y-83880952D01*
X230691190Y-83880952D02*
X231262619Y-84452380D01*
X231262619Y-84452380D02*
X231262619Y-83833333D01*
X183904761Y-76007857D02*
X183809523Y-75960238D01*
X183809523Y-75960238D02*
X183714285Y-75865000D01*
X183714285Y-75865000D02*
X183571428Y-75722142D01*
X183571428Y-75722142D02*
X183476190Y-75674523D01*
X183476190Y-75674523D02*
X183380952Y-75674523D01*
X183428571Y-75912619D02*
X183333333Y-75865000D01*
X183333333Y-75865000D02*
X183238095Y-75769761D01*
X183238095Y-75769761D02*
X183190476Y-75579285D01*
X183190476Y-75579285D02*
X183190476Y-75245952D01*
X183190476Y-75245952D02*
X183238095Y-75055476D01*
X183238095Y-75055476D02*
X183333333Y-74960238D01*
X183333333Y-74960238D02*
X183428571Y-74912619D01*
X183428571Y-74912619D02*
X183619047Y-74912619D01*
X183619047Y-74912619D02*
X183714285Y-74960238D01*
X183714285Y-74960238D02*
X183809523Y-75055476D01*
X183809523Y-75055476D02*
X183857142Y-75245952D01*
X183857142Y-75245952D02*
X183857142Y-75579285D01*
X183857142Y-75579285D02*
X183809523Y-75769761D01*
X183809523Y-75769761D02*
X183714285Y-75865000D01*
X183714285Y-75865000D02*
X183619047Y-75912619D01*
X183619047Y-75912619D02*
X183428571Y-75912619D01*
X184238095Y-75007857D02*
X184285714Y-74960238D01*
X184285714Y-74960238D02*
X184380952Y-74912619D01*
X184380952Y-74912619D02*
X184619047Y-74912619D01*
X184619047Y-74912619D02*
X184714285Y-74960238D01*
X184714285Y-74960238D02*
X184761904Y-75007857D01*
X184761904Y-75007857D02*
X184809523Y-75103095D01*
X184809523Y-75103095D02*
X184809523Y-75198333D01*
X184809523Y-75198333D02*
X184761904Y-75341190D01*
X184761904Y-75341190D02*
X184190476Y-75912619D01*
X184190476Y-75912619D02*
X184809523Y-75912619D01*
X213833333Y-81812619D02*
X213500000Y-81336428D01*
X213261905Y-81812619D02*
X213261905Y-80812619D01*
X213261905Y-80812619D02*
X213642857Y-80812619D01*
X213642857Y-80812619D02*
X213738095Y-80860238D01*
X213738095Y-80860238D02*
X213785714Y-80907857D01*
X213785714Y-80907857D02*
X213833333Y-81003095D01*
X213833333Y-81003095D02*
X213833333Y-81145952D01*
X213833333Y-81145952D02*
X213785714Y-81241190D01*
X213785714Y-81241190D02*
X213738095Y-81288809D01*
X213738095Y-81288809D02*
X213642857Y-81336428D01*
X213642857Y-81336428D02*
X213261905Y-81336428D01*
X214214286Y-80907857D02*
X214261905Y-80860238D01*
X214261905Y-80860238D02*
X214357143Y-80812619D01*
X214357143Y-80812619D02*
X214595238Y-80812619D01*
X214595238Y-80812619D02*
X214690476Y-80860238D01*
X214690476Y-80860238D02*
X214738095Y-80907857D01*
X214738095Y-80907857D02*
X214785714Y-81003095D01*
X214785714Y-81003095D02*
X214785714Y-81098333D01*
X214785714Y-81098333D02*
X214738095Y-81241190D01*
X214738095Y-81241190D02*
X214166667Y-81812619D01*
X214166667Y-81812619D02*
X214785714Y-81812619D01*
X187312619Y-140666666D02*
X186836428Y-140999999D01*
X187312619Y-141238094D02*
X186312619Y-141238094D01*
X186312619Y-141238094D02*
X186312619Y-140857142D01*
X186312619Y-140857142D02*
X186360238Y-140761904D01*
X186360238Y-140761904D02*
X186407857Y-140714285D01*
X186407857Y-140714285D02*
X186503095Y-140666666D01*
X186503095Y-140666666D02*
X186645952Y-140666666D01*
X186645952Y-140666666D02*
X186741190Y-140714285D01*
X186741190Y-140714285D02*
X186788809Y-140761904D01*
X186788809Y-140761904D02*
X186836428Y-140857142D01*
X186836428Y-140857142D02*
X186836428Y-141238094D01*
X186312619Y-140333332D02*
X186312619Y-139714285D01*
X186312619Y-139714285D02*
X186693571Y-140047618D01*
X186693571Y-140047618D02*
X186693571Y-139904761D01*
X186693571Y-139904761D02*
X186741190Y-139809523D01*
X186741190Y-139809523D02*
X186788809Y-139761904D01*
X186788809Y-139761904D02*
X186884047Y-139714285D01*
X186884047Y-139714285D02*
X187122142Y-139714285D01*
X187122142Y-139714285D02*
X187217380Y-139761904D01*
X187217380Y-139761904D02*
X187265000Y-139809523D01*
X187265000Y-139809523D02*
X187312619Y-139904761D01*
X187312619Y-139904761D02*
X187312619Y-140190475D01*
X187312619Y-140190475D02*
X187265000Y-140285713D01*
X187265000Y-140285713D02*
X187217380Y-140333332D01*
X176962619Y-75666666D02*
X176486428Y-75999999D01*
X176962619Y-76238094D02*
X175962619Y-76238094D01*
X175962619Y-76238094D02*
X175962619Y-75857142D01*
X175962619Y-75857142D02*
X176010238Y-75761904D01*
X176010238Y-75761904D02*
X176057857Y-75714285D01*
X176057857Y-75714285D02*
X176153095Y-75666666D01*
X176153095Y-75666666D02*
X176295952Y-75666666D01*
X176295952Y-75666666D02*
X176391190Y-75714285D01*
X176391190Y-75714285D02*
X176438809Y-75761904D01*
X176438809Y-75761904D02*
X176486428Y-75857142D01*
X176486428Y-75857142D02*
X176486428Y-76238094D01*
X176962619Y-74714285D02*
X176962619Y-75285713D01*
X176962619Y-74999999D02*
X175962619Y-74999999D01*
X175962619Y-74999999D02*
X176105476Y-75095237D01*
X176105476Y-75095237D02*
X176200714Y-75190475D01*
X176200714Y-75190475D02*
X176248333Y-75285713D01*
X207364761Y-109777857D02*
X207269523Y-109730238D01*
X207269523Y-109730238D02*
X207174285Y-109635000D01*
X207174285Y-109635000D02*
X207031428Y-109492142D01*
X207031428Y-109492142D02*
X206936190Y-109444523D01*
X206936190Y-109444523D02*
X206840952Y-109444523D01*
X206888571Y-109682619D02*
X206793333Y-109635000D01*
X206793333Y-109635000D02*
X206698095Y-109539761D01*
X206698095Y-109539761D02*
X206650476Y-109349285D01*
X206650476Y-109349285D02*
X206650476Y-109015952D01*
X206650476Y-109015952D02*
X206698095Y-108825476D01*
X206698095Y-108825476D02*
X206793333Y-108730238D01*
X206793333Y-108730238D02*
X206888571Y-108682619D01*
X206888571Y-108682619D02*
X207079047Y-108682619D01*
X207079047Y-108682619D02*
X207174285Y-108730238D01*
X207174285Y-108730238D02*
X207269523Y-108825476D01*
X207269523Y-108825476D02*
X207317142Y-109015952D01*
X207317142Y-109015952D02*
X207317142Y-109349285D01*
X207317142Y-109349285D02*
X207269523Y-109539761D01*
X207269523Y-109539761D02*
X207174285Y-109635000D01*
X207174285Y-109635000D02*
X207079047Y-109682619D01*
X207079047Y-109682619D02*
X206888571Y-109682619D01*
X208269523Y-109682619D02*
X207698095Y-109682619D01*
X207983809Y-109682619D02*
X207983809Y-108682619D01*
X207983809Y-108682619D02*
X207888571Y-108825476D01*
X207888571Y-108825476D02*
X207793333Y-108920714D01*
X207793333Y-108920714D02*
X207698095Y-108968333D01*
X230262619Y-104833333D02*
X230976904Y-104833333D01*
X230976904Y-104833333D02*
X231119761Y-104880952D01*
X231119761Y-104880952D02*
X231215000Y-104976190D01*
X231215000Y-104976190D02*
X231262619Y-105119047D01*
X231262619Y-105119047D02*
X231262619Y-105214285D01*
X231262619Y-103833333D02*
X231262619Y-104404761D01*
X231262619Y-104119047D02*
X230262619Y-104119047D01*
X230262619Y-104119047D02*
X230405476Y-104214285D01*
X230405476Y-104214285D02*
X230500714Y-104309523D01*
X230500714Y-104309523D02*
X230548333Y-104404761D01*
X198294680Y-102666666D02*
X198342300Y-102714285D01*
X198342300Y-102714285D02*
X198389919Y-102857142D01*
X198389919Y-102857142D02*
X198389919Y-102952380D01*
X198389919Y-102952380D02*
X198342300Y-103095237D01*
X198342300Y-103095237D02*
X198247061Y-103190475D01*
X198247061Y-103190475D02*
X198151823Y-103238094D01*
X198151823Y-103238094D02*
X197961347Y-103285713D01*
X197961347Y-103285713D02*
X197818490Y-103285713D01*
X197818490Y-103285713D02*
X197628014Y-103238094D01*
X197628014Y-103238094D02*
X197532776Y-103190475D01*
X197532776Y-103190475D02*
X197437538Y-103095237D01*
X197437538Y-103095237D02*
X197389919Y-102952380D01*
X197389919Y-102952380D02*
X197389919Y-102857142D01*
X197389919Y-102857142D02*
X197437538Y-102714285D01*
X197437538Y-102714285D02*
X197485157Y-102666666D01*
X197389919Y-102333332D02*
X197389919Y-101714285D01*
X197389919Y-101714285D02*
X197770871Y-102047618D01*
X197770871Y-102047618D02*
X197770871Y-101904761D01*
X197770871Y-101904761D02*
X197818490Y-101809523D01*
X197818490Y-101809523D02*
X197866109Y-101761904D01*
X197866109Y-101761904D02*
X197961347Y-101714285D01*
X197961347Y-101714285D02*
X198199442Y-101714285D01*
X198199442Y-101714285D02*
X198294680Y-101761904D01*
X198294680Y-101761904D02*
X198342300Y-101809523D01*
X198342300Y-101809523D02*
X198389919Y-101904761D01*
X198389919Y-101904761D02*
X198389919Y-102190475D01*
X198389919Y-102190475D02*
X198342300Y-102285713D01*
X198342300Y-102285713D02*
X198294680Y-102333332D01*
X197333333Y-75197380D02*
X197285714Y-75245000D01*
X197285714Y-75245000D02*
X197142857Y-75292619D01*
X197142857Y-75292619D02*
X197047619Y-75292619D01*
X197047619Y-75292619D02*
X196904762Y-75245000D01*
X196904762Y-75245000D02*
X196809524Y-75149761D01*
X196809524Y-75149761D02*
X196761905Y-75054523D01*
X196761905Y-75054523D02*
X196714286Y-74864047D01*
X196714286Y-74864047D02*
X196714286Y-74721190D01*
X196714286Y-74721190D02*
X196761905Y-74530714D01*
X196761905Y-74530714D02*
X196809524Y-74435476D01*
X196809524Y-74435476D02*
X196904762Y-74340238D01*
X196904762Y-74340238D02*
X197047619Y-74292619D01*
X197047619Y-74292619D02*
X197142857Y-74292619D01*
X197142857Y-74292619D02*
X197285714Y-74340238D01*
X197285714Y-74340238D02*
X197333333Y-74387857D01*
X198190476Y-74625952D02*
X198190476Y-75292619D01*
X197952381Y-74245000D02*
X197714286Y-74959285D01*
X197714286Y-74959285D02*
X198333333Y-74959285D01*
X217837857Y-91135238D02*
X217790238Y-91230476D01*
X217790238Y-91230476D02*
X217695000Y-91325714D01*
X217695000Y-91325714D02*
X217552142Y-91468571D01*
X217552142Y-91468571D02*
X217504523Y-91563809D01*
X217504523Y-91563809D02*
X217504523Y-91659047D01*
X217742619Y-91611428D02*
X217695000Y-91706666D01*
X217695000Y-91706666D02*
X217599761Y-91801904D01*
X217599761Y-91801904D02*
X217409285Y-91849523D01*
X217409285Y-91849523D02*
X217075952Y-91849523D01*
X217075952Y-91849523D02*
X216885476Y-91801904D01*
X216885476Y-91801904D02*
X216790238Y-91706666D01*
X216790238Y-91706666D02*
X216742619Y-91611428D01*
X216742619Y-91611428D02*
X216742619Y-91420952D01*
X216742619Y-91420952D02*
X216790238Y-91325714D01*
X216790238Y-91325714D02*
X216885476Y-91230476D01*
X216885476Y-91230476D02*
X217075952Y-91182857D01*
X217075952Y-91182857D02*
X217409285Y-91182857D01*
X217409285Y-91182857D02*
X217599761Y-91230476D01*
X217599761Y-91230476D02*
X217695000Y-91325714D01*
X217695000Y-91325714D02*
X217742619Y-91420952D01*
X217742619Y-91420952D02*
X217742619Y-91611428D01*
X216742619Y-90849523D02*
X216742619Y-90230476D01*
X216742619Y-90230476D02*
X217123571Y-90563809D01*
X217123571Y-90563809D02*
X217123571Y-90420952D01*
X217123571Y-90420952D02*
X217171190Y-90325714D01*
X217171190Y-90325714D02*
X217218809Y-90278095D01*
X217218809Y-90278095D02*
X217314047Y-90230476D01*
X217314047Y-90230476D02*
X217552142Y-90230476D01*
X217552142Y-90230476D02*
X217647380Y-90278095D01*
X217647380Y-90278095D02*
X217695000Y-90325714D01*
X217695000Y-90325714D02*
X217742619Y-90420952D01*
X217742619Y-90420952D02*
X217742619Y-90706666D01*
X217742619Y-90706666D02*
X217695000Y-90801904D01*
X217695000Y-90801904D02*
X217647380Y-90849523D01*
X189638095Y-97762619D02*
X189638095Y-98572142D01*
X189638095Y-98572142D02*
X189685714Y-98667380D01*
X189685714Y-98667380D02*
X189733333Y-98715000D01*
X189733333Y-98715000D02*
X189828571Y-98762619D01*
X189828571Y-98762619D02*
X190019047Y-98762619D01*
X190019047Y-98762619D02*
X190114285Y-98715000D01*
X190114285Y-98715000D02*
X190161904Y-98667380D01*
X190161904Y-98667380D02*
X190209523Y-98572142D01*
X190209523Y-98572142D02*
X190209523Y-97762619D01*
X191209523Y-98762619D02*
X190638095Y-98762619D01*
X190923809Y-98762619D02*
X190923809Y-97762619D01*
X190923809Y-97762619D02*
X190828571Y-97905476D01*
X190828571Y-97905476D02*
X190733333Y-98000714D01*
X190733333Y-98000714D02*
X190638095Y-98048333D01*
X203666666Y-76388809D02*
X203333333Y-76388809D01*
X203333333Y-76912619D02*
X203333333Y-75912619D01*
X203333333Y-75912619D02*
X203809523Y-75912619D01*
X204523809Y-76388809D02*
X204666666Y-76436428D01*
X204666666Y-76436428D02*
X204714285Y-76484047D01*
X204714285Y-76484047D02*
X204761904Y-76579285D01*
X204761904Y-76579285D02*
X204761904Y-76722142D01*
X204761904Y-76722142D02*
X204714285Y-76817380D01*
X204714285Y-76817380D02*
X204666666Y-76865000D01*
X204666666Y-76865000D02*
X204571428Y-76912619D01*
X204571428Y-76912619D02*
X204190476Y-76912619D01*
X204190476Y-76912619D02*
X204190476Y-75912619D01*
X204190476Y-75912619D02*
X204523809Y-75912619D01*
X204523809Y-75912619D02*
X204619047Y-75960238D01*
X204619047Y-75960238D02*
X204666666Y-76007857D01*
X204666666Y-76007857D02*
X204714285Y-76103095D01*
X204714285Y-76103095D02*
X204714285Y-76198333D01*
X204714285Y-76198333D02*
X204666666Y-76293571D01*
X204666666Y-76293571D02*
X204619047Y-76341190D01*
X204619047Y-76341190D02*
X204523809Y-76388809D01*
X204523809Y-76388809D02*
X204190476Y-76388809D01*
X205714285Y-76912619D02*
X205142857Y-76912619D01*
X205428571Y-76912619D02*
X205428571Y-75912619D01*
X205428571Y-75912619D02*
X205333333Y-76055476D01*
X205333333Y-76055476D02*
X205238095Y-76150714D01*
X205238095Y-76150714D02*
X205142857Y-76198333D01*
X175469219Y-81712694D02*
X174469219Y-81712694D01*
X174469219Y-81712694D02*
X174469219Y-81474599D01*
X174469219Y-81474599D02*
X174516838Y-81331742D01*
X174516838Y-81331742D02*
X174612076Y-81236504D01*
X174612076Y-81236504D02*
X174707314Y-81188885D01*
X174707314Y-81188885D02*
X174897790Y-81141266D01*
X174897790Y-81141266D02*
X175040647Y-81141266D01*
X175040647Y-81141266D02*
X175231123Y-81188885D01*
X175231123Y-81188885D02*
X175326361Y-81236504D01*
X175326361Y-81236504D02*
X175421600Y-81331742D01*
X175421600Y-81331742D02*
X175469219Y-81474599D01*
X175469219Y-81474599D02*
X175469219Y-81712694D01*
X174469219Y-80807932D02*
X174469219Y-80188885D01*
X174469219Y-80188885D02*
X174850171Y-80522218D01*
X174850171Y-80522218D02*
X174850171Y-80379361D01*
X174850171Y-80379361D02*
X174897790Y-80284123D01*
X174897790Y-80284123D02*
X174945409Y-80236504D01*
X174945409Y-80236504D02*
X175040647Y-80188885D01*
X175040647Y-80188885D02*
X175278742Y-80188885D01*
X175278742Y-80188885D02*
X175373980Y-80236504D01*
X175373980Y-80236504D02*
X175421600Y-80284123D01*
X175421600Y-80284123D02*
X175469219Y-80379361D01*
X175469219Y-80379361D02*
X175469219Y-80665075D01*
X175469219Y-80665075D02*
X175421600Y-80760313D01*
X175421600Y-80760313D02*
X175373980Y-80807932D01*
X172462619Y-78459999D02*
X172700714Y-78459999D01*
X172605476Y-78698094D02*
X172700714Y-78459999D01*
X172700714Y-78459999D02*
X172605476Y-78221904D01*
X172891190Y-78602856D02*
X172700714Y-78459999D01*
X172700714Y-78459999D02*
X172891190Y-78317142D01*
X169962619Y-84333333D02*
X170676904Y-84333333D01*
X170676904Y-84333333D02*
X170819761Y-84380952D01*
X170819761Y-84380952D02*
X170915000Y-84476190D01*
X170915000Y-84476190D02*
X170962619Y-84619047D01*
X170962619Y-84619047D02*
X170962619Y-84714285D01*
X169962619Y-83952380D02*
X169962619Y-83333333D01*
X169962619Y-83333333D02*
X170343571Y-83666666D01*
X170343571Y-83666666D02*
X170343571Y-83523809D01*
X170343571Y-83523809D02*
X170391190Y-83428571D01*
X170391190Y-83428571D02*
X170438809Y-83380952D01*
X170438809Y-83380952D02*
X170534047Y-83333333D01*
X170534047Y-83333333D02*
X170772142Y-83333333D01*
X170772142Y-83333333D02*
X170867380Y-83380952D01*
X170867380Y-83380952D02*
X170915000Y-83428571D01*
X170915000Y-83428571D02*
X170962619Y-83523809D01*
X170962619Y-83523809D02*
X170962619Y-83809523D01*
X170962619Y-83809523D02*
X170915000Y-83904761D01*
X170915000Y-83904761D02*
X170867380Y-83952380D01*
X188535714Y-73962619D02*
X188535714Y-72962619D01*
X188535714Y-72962619D02*
X188916666Y-72962619D01*
X188916666Y-72962619D02*
X189011904Y-73010238D01*
X189011904Y-73010238D02*
X189059523Y-73057857D01*
X189059523Y-73057857D02*
X189107142Y-73153095D01*
X189107142Y-73153095D02*
X189107142Y-73295952D01*
X189107142Y-73295952D02*
X189059523Y-73391190D01*
X189059523Y-73391190D02*
X189011904Y-73438809D01*
X189011904Y-73438809D02*
X188916666Y-73486428D01*
X188916666Y-73486428D02*
X188535714Y-73486428D01*
X190107142Y-73962619D02*
X189773809Y-73486428D01*
X189535714Y-73962619D02*
X189535714Y-72962619D01*
X189535714Y-72962619D02*
X189916666Y-72962619D01*
X189916666Y-72962619D02*
X190011904Y-73010238D01*
X190011904Y-73010238D02*
X190059523Y-73057857D01*
X190059523Y-73057857D02*
X190107142Y-73153095D01*
X190107142Y-73153095D02*
X190107142Y-73295952D01*
X190107142Y-73295952D02*
X190059523Y-73391190D01*
X190059523Y-73391190D02*
X190011904Y-73438809D01*
X190011904Y-73438809D02*
X189916666Y-73486428D01*
X189916666Y-73486428D02*
X189535714Y-73486428D01*
X191107142Y-73867380D02*
X191059523Y-73915000D01*
X191059523Y-73915000D02*
X190916666Y-73962619D01*
X190916666Y-73962619D02*
X190821428Y-73962619D01*
X190821428Y-73962619D02*
X190678571Y-73915000D01*
X190678571Y-73915000D02*
X190583333Y-73819761D01*
X190583333Y-73819761D02*
X190535714Y-73724523D01*
X190535714Y-73724523D02*
X190488095Y-73534047D01*
X190488095Y-73534047D02*
X190488095Y-73391190D01*
X190488095Y-73391190D02*
X190535714Y-73200714D01*
X190535714Y-73200714D02*
X190583333Y-73105476D01*
X190583333Y-73105476D02*
X190678571Y-73010238D01*
X190678571Y-73010238D02*
X190821428Y-72962619D01*
X190821428Y-72962619D02*
X190916666Y-72962619D01*
X190916666Y-72962619D02*
X191059523Y-73010238D01*
X191059523Y-73010238D02*
X191107142Y-73057857D01*
X191535714Y-73962619D02*
X191535714Y-72962619D01*
X191535714Y-73438809D02*
X192107142Y-73438809D01*
X192107142Y-73962619D02*
X192107142Y-72962619D01*
X193154761Y-73962619D02*
X192821428Y-73486428D01*
X192583333Y-73962619D02*
X192583333Y-72962619D01*
X192583333Y-72962619D02*
X192964285Y-72962619D01*
X192964285Y-72962619D02*
X193059523Y-73010238D01*
X193059523Y-73010238D02*
X193107142Y-73057857D01*
X193107142Y-73057857D02*
X193154761Y-73153095D01*
X193154761Y-73153095D02*
X193154761Y-73295952D01*
X193154761Y-73295952D02*
X193107142Y-73391190D01*
X193107142Y-73391190D02*
X193059523Y-73438809D01*
X193059523Y-73438809D02*
X192964285Y-73486428D01*
X192964285Y-73486428D02*
X192583333Y-73486428D01*
X194107142Y-73010238D02*
X194011904Y-72962619D01*
X194011904Y-72962619D02*
X193869047Y-72962619D01*
X193869047Y-72962619D02*
X193726190Y-73010238D01*
X193726190Y-73010238D02*
X193630952Y-73105476D01*
X193630952Y-73105476D02*
X193583333Y-73200714D01*
X193583333Y-73200714D02*
X193535714Y-73391190D01*
X193535714Y-73391190D02*
X193535714Y-73534047D01*
X193535714Y-73534047D02*
X193583333Y-73724523D01*
X193583333Y-73724523D02*
X193630952Y-73819761D01*
X193630952Y-73819761D02*
X193726190Y-73915000D01*
X193726190Y-73915000D02*
X193869047Y-73962619D01*
X193869047Y-73962619D02*
X193964285Y-73962619D01*
X193964285Y-73962619D02*
X194107142Y-73915000D01*
X194107142Y-73915000D02*
X194154761Y-73867380D01*
X194154761Y-73867380D02*
X194154761Y-73534047D01*
X194154761Y-73534047D02*
X193964285Y-73534047D01*
X194345238Y-74057857D02*
X195107142Y-74057857D01*
X195345238Y-73962619D02*
X195345238Y-72962619D01*
X195345238Y-73438809D02*
X195916666Y-73438809D01*
X195916666Y-73962619D02*
X195916666Y-72962619D01*
X196392857Y-73962619D02*
X196392857Y-72962619D01*
X196392857Y-73438809D02*
X196964285Y-73438809D01*
X196964285Y-73962619D02*
X196964285Y-72962619D01*
X198294680Y-107716666D02*
X198342300Y-107764285D01*
X198342300Y-107764285D02*
X198389919Y-107907142D01*
X198389919Y-107907142D02*
X198389919Y-108002380D01*
X198389919Y-108002380D02*
X198342300Y-108145237D01*
X198342300Y-108145237D02*
X198247061Y-108240475D01*
X198247061Y-108240475D02*
X198151823Y-108288094D01*
X198151823Y-108288094D02*
X197961347Y-108335713D01*
X197961347Y-108335713D02*
X197818490Y-108335713D01*
X197818490Y-108335713D02*
X197628014Y-108288094D01*
X197628014Y-108288094D02*
X197532776Y-108240475D01*
X197532776Y-108240475D02*
X197437538Y-108145237D01*
X197437538Y-108145237D02*
X197389919Y-108002380D01*
X197389919Y-108002380D02*
X197389919Y-107907142D01*
X197389919Y-107907142D02*
X197437538Y-107764285D01*
X197437538Y-107764285D02*
X197485157Y-107716666D01*
X198389919Y-106764285D02*
X198389919Y-107335713D01*
X198389919Y-107049999D02*
X197389919Y-107049999D01*
X197389919Y-107049999D02*
X197532776Y-107145237D01*
X197532776Y-107145237D02*
X197628014Y-107240475D01*
X197628014Y-107240475D02*
X197675633Y-107335713D01*
X203634166Y-82488809D02*
X203300833Y-82488809D01*
X203300833Y-83012619D02*
X203300833Y-82012619D01*
X203300833Y-82012619D02*
X203777023Y-82012619D01*
X204491309Y-82488809D02*
X204634166Y-82536428D01*
X204634166Y-82536428D02*
X204681785Y-82584047D01*
X204681785Y-82584047D02*
X204729404Y-82679285D01*
X204729404Y-82679285D02*
X204729404Y-82822142D01*
X204729404Y-82822142D02*
X204681785Y-82917380D01*
X204681785Y-82917380D02*
X204634166Y-82965000D01*
X204634166Y-82965000D02*
X204538928Y-83012619D01*
X204538928Y-83012619D02*
X204157976Y-83012619D01*
X204157976Y-83012619D02*
X204157976Y-82012619D01*
X204157976Y-82012619D02*
X204491309Y-82012619D01*
X204491309Y-82012619D02*
X204586547Y-82060238D01*
X204586547Y-82060238D02*
X204634166Y-82107857D01*
X204634166Y-82107857D02*
X204681785Y-82203095D01*
X204681785Y-82203095D02*
X204681785Y-82298333D01*
X204681785Y-82298333D02*
X204634166Y-82393571D01*
X204634166Y-82393571D02*
X204586547Y-82441190D01*
X204586547Y-82441190D02*
X204491309Y-82488809D01*
X204491309Y-82488809D02*
X204157976Y-82488809D01*
X205110357Y-82107857D02*
X205157976Y-82060238D01*
X205157976Y-82060238D02*
X205253214Y-82012619D01*
X205253214Y-82012619D02*
X205491309Y-82012619D01*
X205491309Y-82012619D02*
X205586547Y-82060238D01*
X205586547Y-82060238D02*
X205634166Y-82107857D01*
X205634166Y-82107857D02*
X205681785Y-82203095D01*
X205681785Y-82203095D02*
X205681785Y-82298333D01*
X205681785Y-82298333D02*
X205634166Y-82441190D01*
X205634166Y-82441190D02*
X205062738Y-83012619D01*
X205062738Y-83012619D02*
X205681785Y-83012619D01*
X196705595Y-80972619D02*
X196705595Y-81782142D01*
X196705595Y-81782142D02*
X196753214Y-81877380D01*
X196753214Y-81877380D02*
X196800833Y-81925000D01*
X196800833Y-81925000D02*
X196896071Y-81972619D01*
X196896071Y-81972619D02*
X197086547Y-81972619D01*
X197086547Y-81972619D02*
X197181785Y-81925000D01*
X197181785Y-81925000D02*
X197229404Y-81877380D01*
X197229404Y-81877380D02*
X197277023Y-81782142D01*
X197277023Y-81782142D02*
X197277023Y-80972619D01*
X197705595Y-81067857D02*
X197753214Y-81020238D01*
X197753214Y-81020238D02*
X197848452Y-80972619D01*
X197848452Y-80972619D02*
X198086547Y-80972619D01*
X198086547Y-80972619D02*
X198181785Y-81020238D01*
X198181785Y-81020238D02*
X198229404Y-81067857D01*
X198229404Y-81067857D02*
X198277023Y-81163095D01*
X198277023Y-81163095D02*
X198277023Y-81258333D01*
X198277023Y-81258333D02*
X198229404Y-81401190D01*
X198229404Y-81401190D02*
X197657976Y-81972619D01*
X197657976Y-81972619D02*
X198277023Y-81972619D01*
X200233333Y-83867380D02*
X200185714Y-83915000D01*
X200185714Y-83915000D02*
X200042857Y-83962619D01*
X200042857Y-83962619D02*
X199947619Y-83962619D01*
X199947619Y-83962619D02*
X199804762Y-83915000D01*
X199804762Y-83915000D02*
X199709524Y-83819761D01*
X199709524Y-83819761D02*
X199661905Y-83724523D01*
X199661905Y-83724523D02*
X199614286Y-83534047D01*
X199614286Y-83534047D02*
X199614286Y-83391190D01*
X199614286Y-83391190D02*
X199661905Y-83200714D01*
X199661905Y-83200714D02*
X199709524Y-83105476D01*
X199709524Y-83105476D02*
X199804762Y-83010238D01*
X199804762Y-83010238D02*
X199947619Y-82962619D01*
X199947619Y-82962619D02*
X200042857Y-82962619D01*
X200042857Y-82962619D02*
X200185714Y-83010238D01*
X200185714Y-83010238D02*
X200233333Y-83057857D01*
X201090476Y-82962619D02*
X200900000Y-82962619D01*
X200900000Y-82962619D02*
X200804762Y-83010238D01*
X200804762Y-83010238D02*
X200757143Y-83057857D01*
X200757143Y-83057857D02*
X200661905Y-83200714D01*
X200661905Y-83200714D02*
X200614286Y-83391190D01*
X200614286Y-83391190D02*
X200614286Y-83772142D01*
X200614286Y-83772142D02*
X200661905Y-83867380D01*
X200661905Y-83867380D02*
X200709524Y-83915000D01*
X200709524Y-83915000D02*
X200804762Y-83962619D01*
X200804762Y-83962619D02*
X200995238Y-83962619D01*
X200995238Y-83962619D02*
X201090476Y-83915000D01*
X201090476Y-83915000D02*
X201138095Y-83867380D01*
X201138095Y-83867380D02*
X201185714Y-83772142D01*
X201185714Y-83772142D02*
X201185714Y-83534047D01*
X201185714Y-83534047D02*
X201138095Y-83438809D01*
X201138095Y-83438809D02*
X201090476Y-83391190D01*
X201090476Y-83391190D02*
X200995238Y-83343571D01*
X200995238Y-83343571D02*
X200804762Y-83343571D01*
X200804762Y-83343571D02*
X200709524Y-83391190D01*
X200709524Y-83391190D02*
X200661905Y-83438809D01*
X200661905Y-83438809D02*
X200614286Y-83534047D01*
X202067380Y-105266666D02*
X202115000Y-105314285D01*
X202115000Y-105314285D02*
X202162619Y-105457142D01*
X202162619Y-105457142D02*
X202162619Y-105552380D01*
X202162619Y-105552380D02*
X202115000Y-105695237D01*
X202115000Y-105695237D02*
X202019761Y-105790475D01*
X202019761Y-105790475D02*
X201924523Y-105838094D01*
X201924523Y-105838094D02*
X201734047Y-105885713D01*
X201734047Y-105885713D02*
X201591190Y-105885713D01*
X201591190Y-105885713D02*
X201400714Y-105838094D01*
X201400714Y-105838094D02*
X201305476Y-105790475D01*
X201305476Y-105790475D02*
X201210238Y-105695237D01*
X201210238Y-105695237D02*
X201162619Y-105552380D01*
X201162619Y-105552380D02*
X201162619Y-105457142D01*
X201162619Y-105457142D02*
X201210238Y-105314285D01*
X201210238Y-105314285D02*
X201257857Y-105266666D01*
X201257857Y-104885713D02*
X201210238Y-104838094D01*
X201210238Y-104838094D02*
X201162619Y-104742856D01*
X201162619Y-104742856D02*
X201162619Y-104504761D01*
X201162619Y-104504761D02*
X201210238Y-104409523D01*
X201210238Y-104409523D02*
X201257857Y-104361904D01*
X201257857Y-104361904D02*
X201353095Y-104314285D01*
X201353095Y-104314285D02*
X201448333Y-104314285D01*
X201448333Y-104314285D02*
X201591190Y-104361904D01*
X201591190Y-104361904D02*
X202162619Y-104933332D01*
X202162619Y-104933332D02*
X202162619Y-104314285D01*
X187312619Y-146166666D02*
X186836428Y-146499999D01*
X187312619Y-146738094D02*
X186312619Y-146738094D01*
X186312619Y-146738094D02*
X186312619Y-146357142D01*
X186312619Y-146357142D02*
X186360238Y-146261904D01*
X186360238Y-146261904D02*
X186407857Y-146214285D01*
X186407857Y-146214285D02*
X186503095Y-146166666D01*
X186503095Y-146166666D02*
X186645952Y-146166666D01*
X186645952Y-146166666D02*
X186741190Y-146214285D01*
X186741190Y-146214285D02*
X186788809Y-146261904D01*
X186788809Y-146261904D02*
X186836428Y-146357142D01*
X186836428Y-146357142D02*
X186836428Y-146738094D01*
X186645952Y-145309523D02*
X187312619Y-145309523D01*
X186265000Y-145547618D02*
X186979285Y-145785713D01*
X186979285Y-145785713D02*
X186979285Y-145166666D01*
X200833333Y-77377380D02*
X200785714Y-77425000D01*
X200785714Y-77425000D02*
X200642857Y-77472619D01*
X200642857Y-77472619D02*
X200547619Y-77472619D01*
X200547619Y-77472619D02*
X200404762Y-77425000D01*
X200404762Y-77425000D02*
X200309524Y-77329761D01*
X200309524Y-77329761D02*
X200261905Y-77234523D01*
X200261905Y-77234523D02*
X200214286Y-77044047D01*
X200214286Y-77044047D02*
X200214286Y-76901190D01*
X200214286Y-76901190D02*
X200261905Y-76710714D01*
X200261905Y-76710714D02*
X200309524Y-76615476D01*
X200309524Y-76615476D02*
X200404762Y-76520238D01*
X200404762Y-76520238D02*
X200547619Y-76472619D01*
X200547619Y-76472619D02*
X200642857Y-76472619D01*
X200642857Y-76472619D02*
X200785714Y-76520238D01*
X200785714Y-76520238D02*
X200833333Y-76567857D01*
X201166667Y-76472619D02*
X201833333Y-76472619D01*
X201833333Y-76472619D02*
X201404762Y-77472619D01*
X218312619Y-105238094D02*
X217312619Y-105238094D01*
X217312619Y-105238094D02*
X217312619Y-104999999D01*
X217312619Y-104999999D02*
X217360238Y-104857142D01*
X217360238Y-104857142D02*
X217455476Y-104761904D01*
X217455476Y-104761904D02*
X217550714Y-104714285D01*
X217550714Y-104714285D02*
X217741190Y-104666666D01*
X217741190Y-104666666D02*
X217884047Y-104666666D01*
X217884047Y-104666666D02*
X218074523Y-104714285D01*
X218074523Y-104714285D02*
X218169761Y-104761904D01*
X218169761Y-104761904D02*
X218265000Y-104857142D01*
X218265000Y-104857142D02*
X218312619Y-104999999D01*
X218312619Y-104999999D02*
X218312619Y-105238094D01*
X218312619Y-103714285D02*
X218312619Y-104285713D01*
X218312619Y-103999999D02*
X217312619Y-103999999D01*
X217312619Y-103999999D02*
X217455476Y-104095237D01*
X217455476Y-104095237D02*
X217550714Y-104190475D01*
X217550714Y-104190475D02*
X217598333Y-104285713D01*
X181096269Y-102666666D02*
X180620078Y-102999999D01*
X181096269Y-103238094D02*
X180096269Y-103238094D01*
X180096269Y-103238094D02*
X180096269Y-102857142D01*
X180096269Y-102857142D02*
X180143888Y-102761904D01*
X180143888Y-102761904D02*
X180191507Y-102714285D01*
X180191507Y-102714285D02*
X180286745Y-102666666D01*
X180286745Y-102666666D02*
X180429602Y-102666666D01*
X180429602Y-102666666D02*
X180524840Y-102714285D01*
X180524840Y-102714285D02*
X180572459Y-102761904D01*
X180572459Y-102761904D02*
X180620078Y-102857142D01*
X180620078Y-102857142D02*
X180620078Y-103238094D01*
X180096269Y-101761904D02*
X180096269Y-102238094D01*
X180096269Y-102238094D02*
X180572459Y-102285713D01*
X180572459Y-102285713D02*
X180524840Y-102238094D01*
X180524840Y-102238094D02*
X180477221Y-102142856D01*
X180477221Y-102142856D02*
X180477221Y-101904761D01*
X180477221Y-101904761D02*
X180524840Y-101809523D01*
X180524840Y-101809523D02*
X180572459Y-101761904D01*
X180572459Y-101761904D02*
X180667697Y-101714285D01*
X180667697Y-101714285D02*
X180905792Y-101714285D01*
X180905792Y-101714285D02*
X181001030Y-101761904D01*
X181001030Y-101761904D02*
X181048650Y-101809523D01*
X181048650Y-101809523D02*
X181096269Y-101904761D01*
X181096269Y-101904761D02*
X181096269Y-102142856D01*
X181096269Y-102142856D02*
X181048650Y-102238094D01*
X181048650Y-102238094D02*
X181001030Y-102285713D01*
X185946619Y-143463333D02*
X186660904Y-143463333D01*
X186660904Y-143463333D02*
X186803761Y-143510952D01*
X186803761Y-143510952D02*
X186899000Y-143606190D01*
X186899000Y-143606190D02*
X186946619Y-143749047D01*
X186946619Y-143749047D02*
X186946619Y-143844285D01*
X186279952Y-142558571D02*
X186946619Y-142558571D01*
X185899000Y-142796666D02*
X186613285Y-143034761D01*
X186613285Y-143034761D02*
X186613285Y-142415714D01*
D10*
X181323650Y-109360000D02*
X183243650Y-109360000D01*
X183243650Y-109360000D02*
X183243650Y-106500000D01*
X181323650Y-106500000D02*
X181323650Y-109360000D01*
X175540000Y-85772500D02*
X177460000Y-85772500D01*
X177460000Y-85772500D02*
X177460000Y-82912500D01*
X175540000Y-82912500D02*
X175540000Y-85772500D01*
X228710000Y-79565000D02*
X229710000Y-80565000D01*
X219590000Y-79565000D02*
X228710000Y-79565000D01*
X219590000Y-79565000D02*
X219590000Y-81990000D01*
X229710000Y-80565000D02*
X229710000Y-88435000D01*
X219590000Y-84010000D02*
X219590000Y-85348233D01*
X229710000Y-88435000D02*
X228710000Y-89435000D01*
X228710000Y-89435000D02*
X219590000Y-89435000D01*
X219590000Y-89435000D02*
X219590000Y-86651767D01*
X181240000Y-76290000D02*
X181240000Y-77035000D01*
X181240000Y-77035000D02*
X179550000Y-77035000D01*
X181240000Y-82710000D02*
X181240000Y-81965000D01*
X184000000Y-76290000D02*
X181240000Y-76290000D01*
X184000000Y-76290000D02*
X186760000Y-76290000D01*
X184000000Y-82710000D02*
X181240000Y-82710000D01*
X184000000Y-82710000D02*
X186760000Y-82710000D01*
X186760000Y-76290000D02*
X186760000Y-77035000D01*
X186760000Y-82710000D02*
X186760000Y-81965000D01*
X213772936Y-82265000D02*
X214227064Y-82265000D01*
X213772936Y-83735000D02*
X214227064Y-83735000D01*
X187765000Y-140727064D02*
X187765000Y-140272936D01*
X189235000Y-140727064D02*
X189235000Y-140272936D01*
X175765000Y-78639564D02*
X175765000Y-78185436D01*
X177235000Y-78639564D02*
X177235000Y-78185436D01*
X210770000Y-108170000D02*
X210770000Y-107900000D01*
X210770000Y-107900000D02*
X213600000Y-107900000D01*
X210770000Y-101540000D02*
X211870000Y-101540000D01*
X210770000Y-101270000D02*
X210770000Y-101540000D01*
X204350000Y-108170000D02*
X210770000Y-108170000D01*
X204350000Y-101270000D02*
X210770000Y-101270000D01*
X228710000Y-99565000D02*
X229710000Y-100565000D01*
X219590000Y-99565000D02*
X228710000Y-99565000D01*
X219590000Y-99565000D02*
X219590000Y-101990000D01*
X229710000Y-100565000D02*
X229710000Y-108435000D01*
X219590000Y-104010000D02*
X219590000Y-105348233D01*
X229710000Y-108435000D02*
X228710000Y-109435000D01*
X228710000Y-109435000D02*
X219590000Y-109435000D01*
X219590000Y-109435000D02*
X219590000Y-106651767D01*
X196982300Y-102238748D02*
X196982300Y-102761252D01*
X195512300Y-102238748D02*
X195512300Y-102761252D01*
X197238748Y-75775000D02*
X197761252Y-75775000D01*
X197238748Y-77245000D02*
X197761252Y-77245000D01*
X216230000Y-87730000D02*
X215960000Y-87730000D01*
X215960000Y-87730000D02*
X215960000Y-84900000D01*
X209600000Y-87730000D02*
X209600000Y-86630000D01*
X209330000Y-87730000D02*
X209600000Y-87730000D01*
X216230000Y-94150000D02*
X216230000Y-87730000D01*
X209330000Y-94150000D02*
X209330000Y-87730000D01*
D12*
X186697300Y-110800000D02*
X186697300Y-99300000D01*
X194297300Y-110800000D02*
X186697300Y-110800000D01*
X186697300Y-99300000D02*
X194297300Y-99300000D01*
X194297300Y-99300000D02*
X194297300Y-110800000D01*
D10*
X204100378Y-77440000D02*
X204899622Y-77440000D01*
X204100378Y-78560000D02*
X204899622Y-78560000D01*
D15*
X171920500Y-79425200D02*
X171920500Y-82574800D01*
X174079500Y-82574800D02*
X174079500Y-79425200D01*
D12*
X170000000Y-75000000D02*
X170000000Y-78000000D01*
X165100000Y-75000000D02*
X170000000Y-75000000D01*
X170000000Y-78000000D02*
X169000000Y-78000000D01*
X169000000Y-78000000D02*
X169000000Y-90000000D01*
X170000000Y-90000000D02*
X170000000Y-93000000D01*
X169000000Y-90000000D02*
X170000000Y-90000000D01*
X170000000Y-93000000D02*
X165100000Y-93000000D01*
X165100000Y-93000000D02*
X165100000Y-75000000D01*
X194500000Y-76500000D02*
G75*
G03*
X194500000Y-76500000I-1750000J0D01*
G01*
D10*
X196982300Y-107288748D02*
X196982300Y-107811252D01*
X195512300Y-107288748D02*
X195512300Y-107811252D01*
X204867122Y-81560000D02*
X204067878Y-81560000D01*
X204867122Y-80440000D02*
X204067878Y-80440000D01*
X198167500Y-78340000D02*
X196767500Y-78340000D01*
X196767500Y-80660000D02*
X198667500Y-80660000D01*
D12*
X216750000Y-99000000D02*
G75*
G03*
X216750000Y-99000000I-1750000J0D01*
G01*
D10*
X197238748Y-82775000D02*
X197761252Y-82775000D01*
X197238748Y-84245000D02*
X197761252Y-84245000D01*
X199265000Y-105261252D02*
X199265000Y-104738748D01*
X200735000Y-105261252D02*
X200735000Y-104738748D01*
X187765000Y-146227064D02*
X187765000Y-145772936D01*
X189235000Y-146227064D02*
X189235000Y-145772936D01*
X201735000Y-79248748D02*
X201735000Y-79771252D01*
X200265000Y-79248748D02*
X200265000Y-79771252D01*
D12*
X216750000Y-110500000D02*
G75*
G03*
X216750000Y-110500000I-1750000J0D01*
G01*
D10*
X216850000Y-102890000D02*
X215150000Y-102890000D01*
X216850000Y-102890000D02*
X216850000Y-105550000D01*
X215150000Y-102890000D02*
X215150000Y-105550000D01*
X181548650Y-102727064D02*
X181548650Y-102272936D01*
X183018650Y-102727064D02*
X183018650Y-102272936D01*
D12*
X185468000Y-127460000D02*
X185468000Y-158800000D01*
X166164000Y-127460000D02*
X185468000Y-127460000D01*
X185468000Y-158800000D02*
X166164000Y-158800000D01*
X166164000Y-158800000D02*
X166164000Y-127460000D01*
%LPC*%
D16*
X182283650Y-108525000D03*
X182283650Y-106475000D03*
X176500000Y-84937500D03*
X176500000Y-82887500D03*
D17*
X227000000Y-165000000D03*
X227000000Y-71000000D03*
X225000000Y-84500000D03*
D18*
X220680000Y-83000000D03*
D19*
X220680000Y-86000000D03*
D20*
X180500000Y-77595000D03*
X180500000Y-78865000D03*
X180500000Y-80135000D03*
X180500000Y-81405000D03*
X187500000Y-81405000D03*
X187500000Y-80135000D03*
X187500000Y-78865000D03*
X187500000Y-77595000D03*
D21*
X213000000Y-83000000D03*
X215000000Y-83000000D03*
D22*
X188500000Y-141412500D03*
X188500000Y-139587500D03*
X176500000Y-79325000D03*
X176500000Y-77500000D03*
D23*
X212500000Y-107000000D03*
D24*
X206200000Y-104720000D03*
D23*
X212500000Y-102440000D03*
D25*
X226000000Y-158000000D03*
D17*
X167000000Y-165000000D03*
X225000000Y-104500000D03*
D18*
X220680000Y-103000000D03*
D19*
X220680000Y-106000000D03*
D17*
X167000000Y-71000000D03*
X167000000Y-121000000D03*
D26*
X217400000Y-158200000D03*
X196000000Y-118500000D03*
D25*
X177000000Y-120500000D03*
D27*
X196247300Y-101550000D03*
X196247300Y-103450000D03*
D28*
X196550000Y-76510000D03*
X198450000Y-76510000D03*
D29*
X215060000Y-86000000D03*
D30*
X212780000Y-92300000D03*
D29*
X210500000Y-86000000D03*
D31*
X193027300Y-108860000D03*
X193027300Y-106320000D03*
X193027300Y-103780000D03*
X193027300Y-101240000D03*
D32*
X203437500Y-78000000D03*
X205562500Y-78000000D03*
D33*
X173000000Y-79361700D03*
X173000000Y-82638300D03*
D34*
X168960000Y-76500000D03*
X168960000Y-91500000D03*
D35*
X167000000Y-79500000D03*
X167000000Y-82500000D03*
X167000000Y-85500000D03*
X167000000Y-88500000D03*
D36*
X192750000Y-76500000D03*
D27*
X196247300Y-106600000D03*
X196247300Y-108500000D03*
D37*
X205530000Y-81000000D03*
X203405000Y-81000000D03*
D38*
X198417500Y-80150000D03*
X198417500Y-79500000D03*
X198417500Y-78850000D03*
X196517500Y-78850000D03*
X196517500Y-79500000D03*
X196517500Y-80150000D03*
D36*
X215000000Y-99000000D03*
D28*
X196550000Y-83510000D03*
X198450000Y-83510000D03*
D39*
X200000000Y-105950000D03*
X200000000Y-104050000D03*
D22*
X188500000Y-146912500D03*
X188500000Y-145087500D03*
D27*
X201000000Y-78560000D03*
X201000000Y-80460000D03*
D36*
X215000000Y-110500000D03*
D40*
X216000000Y-103450000D03*
X216000000Y-105550000D03*
D22*
X182283650Y-103412500D03*
X182283650Y-101587500D03*
D26*
X172000000Y-131260000D03*
X172000000Y-155000000D03*
D41*
X182420000Y-139320000D03*
X177340000Y-139320000D03*
X174800000Y-139320000D03*
X182420000Y-146940000D03*
X177340000Y-146940000D03*
X174800000Y-146940000D03*
%LPD*%
M02*
