M48
; DRILL file {KiCad 8.0.1} date 2024-11-19T16:07:38-0600
; FORMAT={-:-/ absolute / metric / decimal}
; #@! TF.CreationDate,2024-11-19T16:07:38-06:00
; #@! TF.GenerationSoftware,Kicad,Pcbnew,8.0.1
; #@! TF.FileFunction,NonPlated,1,2,NPTH
FMAT,2
METRIC
; #@! TA.AperFunction,NonPlated,NPTH,ComponentDrill
T1C1.270
; #@! TA.AperFunction,NonPlated,NPTH,ComponentDrill
T2C3.000
%
G90
G05
T1
X124.4Y-126.475
X124.41Y-104.89
X124.41Y-114.475
X124.51Y-95.425
X131.471Y-84.335
X132.1Y-133.36
X133.4Y-126.475
X133.41Y-104.89
X133.41Y-114.475
X133.51Y-95.425
X140.471Y-84.335
X141.1Y-133.36
X144.1Y-133.275
X151.7Y-126.1
X151.8Y-100.4
X151.8Y-109.575
X151.8Y-118.6
X153.1Y-133.275
X160.7Y-126.1
X160.8Y-100.4
X160.8Y-109.575
X160.8Y-118.6
T2
X126.8Y-86.6
X126.8Y-132.425
X158.3Y-86.6
X158.3Y-132.425
M30
