G04 #@! TF.GenerationSoftware,KiCad,Pcbnew,8.0.1*
G04 #@! TF.CreationDate,2024-11-19T16:07:31-06:00*
G04 #@! TF.ProjectId,ContactorDriver,436f6e74-6163-4746-9f72-447269766572,rev?*
G04 #@! TF.SameCoordinates,Original*
G04 #@! TF.FileFunction,Soldermask,Top*
G04 #@! TF.FilePolarity,Negative*
%FSLAX46Y46*%
G04 Gerber Fmt 4.6, Leading zero omitted, Abs format (unit mm)*
G04 Created by KiCad (PCBNEW 8.0.1) date 2024-11-19 16:07:31*
%MOMM*%
%LPD*%
G01*
G04 APERTURE LIST*
G04 Aperture macros list*
%AMRoundRect*
0 Rectangle with rounded corners*
0 $1 Rounding radius*
0 $2 $3 $4 $5 $6 $7 $8 $9 X,Y pos of 4 corners*
0 Add a 4 corners polygon primitive as box body*
4,1,4,$2,$3,$4,$5,$6,$7,$8,$9,$2,$3,0*
0 Add four circle primitives for the rounded corners*
1,1,$1+$1,$2,$3*
1,1,$1+$1,$4,$5*
1,1,$1+$1,$6,$7*
1,1,$1+$1,$8,$9*
0 Add four rect primitives between the rounded corners*
20,1,$1+$1,$2,$3,$4,$5,0*
20,1,$1+$1,$4,$5,$6,$7,0*
20,1,$1+$1,$6,$7,$8,$9,0*
20,1,$1+$1,$8,$9,$2,$3,0*%
G04 Aperture macros list end*
%ADD10RoundRect,0.175500X-0.613000X-0.175500X0.613000X-0.175500X0.613000X0.175500X-0.613000X0.175500X0*%
%ADD11C,3.102000*%
%ADD12RoundRect,0.274878X-0.288622X-0.476122X0.288622X-0.476122X0.288622X0.476122X-0.288622X0.476122X0*%
%ADD13RoundRect,0.051000X0.600000X0.760000X-0.600000X0.760000X-0.600000X-0.760000X0.600000X-0.760000X0*%
%ADD14RoundRect,0.271250X0.379750X0.479750X-0.379750X0.479750X-0.379750X-0.479750X0.379750X-0.479750X0*%
%ADD15C,2.902000*%
%ADD16C,1.372000*%
%ADD17RoundRect,0.267001X-0.533999X-0.793999X0.533999X-0.793999X0.533999X0.793999X-0.533999X0.793999X0*%
%ADD18O,1.602000X2.122000*%
%ADD19RoundRect,0.272174X-0.353826X-0.478826X0.353826X-0.478826X0.353826X0.478826X-0.353826X0.478826X0*%
%ADD20RoundRect,0.267001X0.533999X0.793999X-0.533999X0.793999X-0.533999X-0.793999X0.533999X-0.793999X0*%
%ADD21RoundRect,0.275500X-0.275500X-0.500500X0.275500X-0.500500X0.275500X0.500500X-0.275500X0.500500X0*%
%ADD22RoundRect,0.175500X0.175500X-0.613000X0.175500X0.613000X-0.175500X0.613000X-0.175500X-0.613000X0*%
%ADD23RoundRect,0.051000X0.455000X0.610000X-0.455000X0.610000X-0.455000X-0.610000X0.455000X-0.610000X0*%
%ADD24RoundRect,0.274878X0.288622X0.476122X-0.288622X0.476122X-0.288622X-0.476122X0.288622X-0.476122X0*%
%ADD25RoundRect,0.271250X0.479750X-0.379750X0.479750X0.379750X-0.479750X0.379750X-0.479750X-0.379750X0*%
%ADD26RoundRect,0.138000X0.138000X-0.213000X0.138000X0.213000X-0.138000X0.213000X-0.138000X-0.213000X0*%
%ADD27RoundRect,0.272174X0.353826X0.478826X-0.353826X0.478826X-0.353826X-0.478826X0.353826X-0.478826X0*%
G04 APERTURE END LIST*
D10*
X143525000Y-105425000D03*
X143525000Y-107325000D03*
X145400000Y-106375000D03*
D11*
X126800000Y-132425000D03*
D12*
X145512500Y-118950000D03*
X147337500Y-118950000D03*
D10*
X143512500Y-96100000D03*
X143512500Y-98000000D03*
X145387500Y-97050000D03*
D13*
X135180000Y-118625000D03*
X139500000Y-118625000D03*
D14*
X137475000Y-115375000D03*
X135475000Y-115375000D03*
D10*
X143512500Y-115062500D03*
X143512500Y-116962500D03*
X145387500Y-116012500D03*
D15*
X147755000Y-85533200D03*
D12*
X145537500Y-99975000D03*
X147362500Y-99975000D03*
D11*
X158300000Y-132425000D03*
D16*
X124410000Y-114475000D03*
X133410000Y-114475000D03*
D17*
X127410000Y-116435000D03*
D18*
X130410000Y-116435000D03*
D19*
X141475000Y-109325000D03*
X143525000Y-109325000D03*
D16*
X160800000Y-109575000D03*
X151800000Y-109575000D03*
D20*
X157800000Y-107615000D03*
D18*
X154800000Y-107615000D03*
D21*
X157920000Y-91299000D03*
X159820000Y-91299000D03*
D22*
X142475000Y-89425000D03*
X144375000Y-89425000D03*
X143425000Y-87550000D03*
D16*
X160800000Y-118600000D03*
X151800000Y-118600000D03*
D20*
X157800000Y-116640000D03*
D18*
X154800000Y-116640000D03*
D16*
X141100000Y-133360000D03*
X132100000Y-133360000D03*
D20*
X138100000Y-131400000D03*
D18*
X135100000Y-131400000D03*
D23*
X148820000Y-92525000D03*
X145550000Y-92525000D03*
D16*
X133400000Y-126475000D03*
X124400000Y-126475000D03*
D20*
X130400000Y-124515000D03*
D18*
X127400000Y-124515000D03*
D24*
X127458500Y-91426000D03*
X125633500Y-91426000D03*
D11*
X158300000Y-86600000D03*
D13*
X135365000Y-99525000D03*
X139685000Y-99525000D03*
D16*
X131470800Y-84335200D03*
X140470800Y-84335200D03*
D17*
X134470800Y-86295200D03*
D18*
X137470800Y-86295200D03*
D12*
X145387500Y-109325000D03*
X147212500Y-109325000D03*
D15*
X152225400Y-85482400D03*
D25*
X142500000Y-93450000D03*
X142500000Y-91450000D03*
D11*
X126800000Y-86600000D03*
D26*
X138534800Y-93517400D03*
X138534800Y-91417400D03*
D16*
X124410000Y-104890000D03*
X133410000Y-104890000D03*
D17*
X127410000Y-106850000D03*
D18*
X130410000Y-106850000D03*
D16*
X160800000Y-100400000D03*
X151800000Y-100400000D03*
D20*
X157800000Y-98440000D03*
D18*
X154800000Y-98440000D03*
D19*
X141650000Y-99975000D03*
X143700000Y-99975000D03*
D27*
X132651000Y-91426000D03*
X130601000Y-91426000D03*
D16*
X124510000Y-95425000D03*
X133510000Y-95425000D03*
D17*
X127510000Y-97385000D03*
D18*
X130510000Y-97385000D03*
D13*
X135265000Y-108925000D03*
X139585000Y-108925000D03*
D14*
X137625000Y-96425000D03*
X135625000Y-96425000D03*
X137475000Y-105875000D03*
X135475000Y-105875000D03*
D16*
X160700000Y-126100000D03*
X151700000Y-126100000D03*
D20*
X157700000Y-124140000D03*
D18*
X154700000Y-124140000D03*
D19*
X141550000Y-118950000D03*
X143600000Y-118950000D03*
D16*
X153100000Y-133275000D03*
X144100000Y-133275000D03*
D20*
X150100000Y-131315000D03*
D18*
X147100000Y-131315000D03*
M02*
