G04 #@! TF.GenerationSoftware,KiCad,Pcbnew,7.0.2*
G04 #@! TF.CreationDate,2023-08-23T16:22:14-05:00*
G04 #@! TF.ProjectId,ContactorDriver,436f6e74-6163-4746-9f72-447269766572,rev?*
G04 #@! TF.SameCoordinates,Original*
G04 #@! TF.FileFunction,Soldermask,Top*
G04 #@! TF.FilePolarity,Negative*
%FSLAX46Y46*%
G04 Gerber Fmt 4.6, Leading zero omitted, Abs format (unit mm)*
G04 Created by KiCad (PCBNEW 7.0.2) date 2023-08-23 16:22:14*
%MOMM*%
%LPD*%
G01*
G04 APERTURE LIST*
G04 Aperture macros list*
%AMRoundRect*
0 Rectangle with rounded corners*
0 $1 Rounding radius*
0 $2 $3 $4 $5 $6 $7 $8 $9 X,Y pos of 4 corners*
0 Add a 4 corners polygon primitive as box body*
4,1,4,$2,$3,$4,$5,$6,$7,$8,$9,$2,$3,0*
0 Add four circle primitives for the rounded corners*
1,1,$1+$1,$2,$3*
1,1,$1+$1,$4,$5*
1,1,$1+$1,$6,$7*
1,1,$1+$1,$8,$9*
0 Add four rect primitives between the rounded corners*
20,1,$1+$1,$2,$3,$4,$5,0*
20,1,$1+$1,$4,$5,$6,$7,0*
20,1,$1+$1,$6,$7,$8,$9,0*
20,1,$1+$1,$8,$9,$2,$3,0*%
G04 Aperture macros list end*
%ADD10RoundRect,0.301000X0.450000X-0.325000X0.450000X0.325000X-0.450000X0.325000X-0.450000X-0.325000X0*%
%ADD11C,3.000000*%
%ADD12RoundRect,0.301001X-0.759999X0.499999X-0.759999X-0.499999X0.759999X-0.499999X0.759999X0.499999X0*%
%ADD13O,2.122000X1.602000*%
%ADD14RoundRect,0.201000X-0.800000X-0.150000X0.800000X-0.150000X0.800000X0.150000X-0.800000X0.150000X0*%
%ADD15RoundRect,0.301000X-0.350000X-0.450000X0.350000X-0.450000X0.350000X0.450000X-0.350000X0.450000X0*%
%ADD16RoundRect,0.301000X0.450000X-0.262500X0.450000X0.262500X-0.450000X0.262500X-0.450000X-0.262500X0*%
%ADD17RoundRect,0.301000X0.850000X0.350000X-0.850000X0.350000X-0.850000X-0.350000X0.850000X-0.350000X0*%
%ADD18RoundRect,0.300997X2.950003X2.650003X-2.950003X2.650003X-2.950003X-2.650003X2.950003X-2.650003X0*%
%ADD19C,4.602880*%
%ADD20C,3.200000*%
%ADD21RoundRect,0.301000X-0.475000X0.250000X-0.475000X-0.250000X0.475000X-0.250000X0.475000X0.250000X0*%
%ADD22RoundRect,0.301000X-0.250000X-0.475000X0.250000X-0.475000X0.250000X0.475000X-0.250000X0.475000X0*%
%ADD23RoundRect,0.301000X-0.350000X0.850000X-0.350000X-0.850000X0.350000X-0.850000X0.350000X0.850000X0*%
%ADD24RoundRect,0.300997X-2.650003X2.950003X-2.650003X-2.950003X2.650003X-2.950003X2.650003X2.950003X0*%
%ADD25O,1.902000X1.302000*%
%ADD26RoundRect,0.269750X-0.218750X-0.381250X0.218750X-0.381250X0.218750X0.381250X-0.218750X0.381250X0*%
%ADD27RoundRect,0.051000X-0.596900X0.520700X-0.596900X-0.520700X0.596900X-0.520700X0.596900X0.520700X0*%
%ADD28C,1.270000*%
%ADD29C,1.802000*%
%ADD30C,2.902000*%
%ADD31RoundRect,0.269750X0.218750X0.381250X-0.218750X0.381250X-0.218750X-0.381250X0.218750X-0.381250X0*%
%ADD32RoundRect,0.051000X0.325000X0.200000X-0.325000X0.200000X-0.325000X-0.200000X0.325000X-0.200000X0*%
%ADD33RoundRect,0.301000X0.475000X-0.250000X0.475000X0.250000X-0.475000X0.250000X-0.475000X-0.250000X0*%
%ADD34RoundRect,0.163500X-0.112500X0.187500X-0.112500X-0.187500X0.112500X-0.187500X0.112500X0.187500X0*%
%ADD35C,2.388000*%
G04 APERTURE END LIST*
D10*
X182283650Y-108525000D03*
X182283650Y-106475000D03*
X176500000Y-84937500D03*
X176500000Y-82887500D03*
D11*
X227000000Y-165000000D03*
X227000000Y-71000000D03*
X225000000Y-84500000D03*
D12*
X220680000Y-83000000D03*
D13*
X220680000Y-86000000D03*
D14*
X180500000Y-77595000D03*
X180500000Y-78865000D03*
X180500000Y-80135000D03*
X180500000Y-81405000D03*
X187500000Y-81405000D03*
X187500000Y-80135000D03*
X187500000Y-78865000D03*
X187500000Y-77595000D03*
D15*
X213000000Y-83000000D03*
X215000000Y-83000000D03*
D16*
X188500000Y-141412500D03*
X188500000Y-139587500D03*
X176500000Y-79325000D03*
X176500000Y-77500000D03*
D17*
X212500000Y-107000000D03*
D18*
X206200000Y-104720000D03*
D17*
X212500000Y-102440000D03*
D19*
X226000000Y-158000000D03*
D11*
X167000000Y-165000000D03*
X225000000Y-104500000D03*
D12*
X220680000Y-103000000D03*
D13*
X220680000Y-106000000D03*
D11*
X167000000Y-71000000D03*
X167000000Y-121000000D03*
D20*
X217400000Y-158200000D03*
X196000000Y-118500000D03*
D19*
X177000000Y-120500000D03*
D21*
X196247300Y-101550000D03*
X196247300Y-103450000D03*
D22*
X196550000Y-76510000D03*
X198450000Y-76510000D03*
D23*
X215060000Y-86000000D03*
D24*
X212780000Y-92300000D03*
D23*
X210500000Y-86000000D03*
D25*
X193027300Y-108860000D03*
X193027300Y-106320000D03*
X193027300Y-103780000D03*
X193027300Y-101240000D03*
D26*
X203437500Y-78000000D03*
X205562500Y-78000000D03*
D27*
X173000000Y-79361700D03*
X173000000Y-82638300D03*
D28*
X168960000Y-76500000D03*
X168960000Y-91500000D03*
D29*
X167000000Y-79500000D03*
X167000000Y-82500000D03*
X167000000Y-85500000D03*
X167000000Y-88500000D03*
D30*
X192750000Y-76500000D03*
D21*
X196247300Y-106600000D03*
X196247300Y-108500000D03*
D31*
X205530000Y-81000000D03*
X203405000Y-81000000D03*
D32*
X198417500Y-80150000D03*
X198417500Y-79500000D03*
X198417500Y-78850000D03*
X196517500Y-78850000D03*
X196517500Y-79500000D03*
X196517500Y-80150000D03*
D30*
X215000000Y-99000000D03*
D22*
X196550000Y-83510000D03*
X198450000Y-83510000D03*
D33*
X200000000Y-105950000D03*
X200000000Y-104050000D03*
D16*
X188500000Y-146912500D03*
X188500000Y-145087500D03*
D21*
X201000000Y-78560000D03*
X201000000Y-80460000D03*
D30*
X215000000Y-110500000D03*
D34*
X216000000Y-103450000D03*
X216000000Y-105550000D03*
D16*
X182283650Y-103412500D03*
X182283650Y-101587500D03*
D20*
X172000000Y-131260000D03*
X172000000Y-155000000D03*
D35*
X182420000Y-139320000D03*
X177340000Y-139320000D03*
X174800000Y-139320000D03*
X182420000Y-146940000D03*
X177340000Y-146940000D03*
X174800000Y-146940000D03*
M02*
