G04 #@! TF.GenerationSoftware,KiCad,Pcbnew,7.0.5*
G04 #@! TF.CreationDate,2023-11-04T12:06:22-05:00*
G04 #@! TF.ProjectId,ContactorDriver,436f6e74-6163-4746-9f72-447269766572,rev?*
G04 #@! TF.SameCoordinates,Original*
G04 #@! TF.FileFunction,Legend,Top*
G04 #@! TF.FilePolarity,Positive*
%FSLAX46Y46*%
G04 Gerber Fmt 4.6, Leading zero omitted, Abs format (unit mm)*
G04 Created by KiCad (PCBNEW 7.0.5) date 2023-11-04 12:06:22*
%MOMM*%
%LPD*%
G01*
G04 APERTURE LIST*
G04 Aperture macros list*
%AMRoundRect*
0 Rectangle with rounded corners*
0 $1 Rounding radius*
0 $2 $3 $4 $5 $6 $7 $8 $9 X,Y pos of 4 corners*
0 Add a 4 corners polygon primitive as box body*
4,1,4,$2,$3,$4,$5,$6,$7,$8,$9,$2,$3,0*
0 Add four circle primitives for the rounded corners*
1,1,$1+$1,$2,$3*
1,1,$1+$1,$4,$5*
1,1,$1+$1,$6,$7*
1,1,$1+$1,$8,$9*
0 Add four rect primitives between the rounded corners*
20,1,$1+$1,$2,$3,$4,$5,0*
20,1,$1+$1,$4,$5,$6,$7,0*
20,1,$1+$1,$6,$7,$8,$9,0*
20,1,$1+$1,$8,$9,$2,$3,0*%
G04 Aperture macros list end*
%ADD10C,0.120000*%
%ADD11C,0.100000*%
%ADD12C,0.150000*%
%ADD13C,0.500000*%
%ADD14C,0.375000*%
%ADD15C,0.152400*%
%ADD16RoundRect,0.301000X0.450000X-0.325000X0.450000X0.325000X-0.450000X0.325000X-0.450000X-0.325000X0*%
%ADD17C,3.102000*%
%ADD18RoundRect,0.301001X-0.759999X0.499999X-0.759999X-0.499999X0.759999X-0.499999X0.759999X0.499999X0*%
%ADD19O,2.122000X1.602000*%
%ADD20RoundRect,0.201000X-0.800000X-0.150000X0.800000X-0.150000X0.800000X0.150000X-0.800000X0.150000X0*%
%ADD21RoundRect,0.301000X-0.450000X0.350000X-0.450000X-0.350000X0.450000X-0.350000X0.450000X0.350000X0*%
%ADD22RoundRect,0.301000X0.450000X-0.262500X0.450000X0.262500X-0.450000X0.262500X-0.450000X-0.262500X0*%
%ADD23RoundRect,0.301000X0.850000X0.350000X-0.850000X0.350000X-0.850000X-0.350000X0.850000X-0.350000X0*%
%ADD24RoundRect,0.300997X2.950003X2.650003X-2.950003X2.650003X-2.950003X-2.650003X2.950003X-2.650003X0*%
%ADD25C,4.602880*%
%ADD26C,3.302000*%
%ADD27RoundRect,0.301000X-0.475000X0.250000X-0.475000X-0.250000X0.475000X-0.250000X0.475000X0.250000X0*%
%ADD28RoundRect,0.301000X-0.250000X-0.475000X0.250000X-0.475000X0.250000X0.475000X-0.250000X0.475000X0*%
%ADD29C,2.902000*%
%ADD30O,1.902000X1.302000*%
%ADD31RoundRect,0.269750X-0.218750X-0.381250X0.218750X-0.381250X0.218750X0.381250X-0.218750X0.381250X0*%
%ADD32RoundRect,0.051000X-0.596900X0.520700X-0.596900X-0.520700X0.596900X-0.520700X0.596900X0.520700X0*%
%ADD33C,1.372000*%
%ADD34C,1.802000*%
%ADD35RoundRect,0.269750X0.218750X0.381250X-0.218750X0.381250X-0.218750X-0.381250X0.218750X-0.381250X0*%
%ADD36RoundRect,0.051000X0.325000X0.200000X-0.325000X0.200000X-0.325000X-0.200000X0.325000X-0.200000X0*%
%ADD37RoundRect,0.301000X0.475000X-0.250000X0.475000X0.250000X-0.475000X0.250000X-0.475000X-0.250000X0*%
%ADD38RoundRect,0.163500X-0.112500X0.187500X-0.112500X-0.187500X0.112500X-0.187500X0.112500X0.187500X0*%
%ADD39RoundRect,0.301001X0.759999X-0.499999X0.759999X0.499999X-0.759999X0.499999X-0.759999X-0.499999X0*%
G04 APERTURE END LIST*
D10*
X196000000Y-118500000D02*
X202000000Y-118500000D01*
X217400000Y-158200000D02*
X211000000Y-158200000D01*
X202000000Y-118500000D02*
X202000000Y-158200000D01*
X211000000Y-158200000D02*
X211000000Y-118500000D01*
X211000000Y-118500000D02*
X202000000Y-118500000D01*
X202000000Y-158200000D02*
X211000000Y-158200000D01*
D11*
X211000000Y-158200000D02*
X202000000Y-158200000D01*
X202000000Y-118500000D01*
X211000000Y-118500000D01*
X211000000Y-158200000D01*
G36*
X211000000Y-158200000D02*
G01*
X202000000Y-158200000D01*
X202000000Y-118500000D01*
X211000000Y-118500000D01*
X211000000Y-158200000D01*
G37*
D10*
X169500000Y-88500000D02*
X171000000Y-88500000D01*
X12700000Y-12700000D02*
X88900000Y-12700000D01*
X88900000Y-78740000D01*
X12700000Y-78740000D01*
X12700000Y-12700000D01*
X12700000Y-17780000D02*
X88900000Y-17780000D01*
X169500000Y-85500000D02*
X171000000Y-85500000D01*
X171000000Y-85500000D02*
X171000000Y-86000000D01*
X171000000Y-88500000D02*
X171000000Y-88000000D01*
D12*
X215238095Y-101573866D02*
X216000000Y-101573866D01*
X215619047Y-101954819D02*
X215619047Y-101192914D01*
X216999999Y-101954819D02*
X216428571Y-101954819D01*
X216714285Y-101954819D02*
X216714285Y-100954819D01*
X216714285Y-100954819D02*
X216619047Y-101097676D01*
X216619047Y-101097676D02*
X216523809Y-101192914D01*
X216523809Y-101192914D02*
X216428571Y-101240533D01*
X217380952Y-101050057D02*
X217428571Y-101002438D01*
X217428571Y-101002438D02*
X217523809Y-100954819D01*
X217523809Y-100954819D02*
X217761904Y-100954819D01*
X217761904Y-100954819D02*
X217857142Y-101002438D01*
X217857142Y-101002438D02*
X217904761Y-101050057D01*
X217904761Y-101050057D02*
X217952380Y-101145295D01*
X217952380Y-101145295D02*
X217952380Y-101240533D01*
X217952380Y-101240533D02*
X217904761Y-101383390D01*
X217904761Y-101383390D02*
X217333333Y-101954819D01*
X217333333Y-101954819D02*
X217952380Y-101954819D01*
X218238095Y-100954819D02*
X218571428Y-101954819D01*
X218571428Y-101954819D02*
X218904761Y-100954819D01*
X216238095Y-107002438D02*
X216142857Y-106954819D01*
X216142857Y-106954819D02*
X216000000Y-106954819D01*
X216000000Y-106954819D02*
X215857143Y-107002438D01*
X215857143Y-107002438D02*
X215761905Y-107097676D01*
X215761905Y-107097676D02*
X215714286Y-107192914D01*
X215714286Y-107192914D02*
X215666667Y-107383390D01*
X215666667Y-107383390D02*
X215666667Y-107526247D01*
X215666667Y-107526247D02*
X215714286Y-107716723D01*
X215714286Y-107716723D02*
X215761905Y-107811961D01*
X215761905Y-107811961D02*
X215857143Y-107907200D01*
X215857143Y-107907200D02*
X216000000Y-107954819D01*
X216000000Y-107954819D02*
X216095238Y-107954819D01*
X216095238Y-107954819D02*
X216238095Y-107907200D01*
X216238095Y-107907200D02*
X216285714Y-107859580D01*
X216285714Y-107859580D02*
X216285714Y-107526247D01*
X216285714Y-107526247D02*
X216095238Y-107526247D01*
X216714286Y-107954819D02*
X216714286Y-106954819D01*
X216714286Y-106954819D02*
X217285714Y-107954819D01*
X217285714Y-107954819D02*
X217285714Y-106954819D01*
X217761905Y-107954819D02*
X217761905Y-106954819D01*
X217761905Y-106954819D02*
X218000000Y-106954819D01*
X218000000Y-106954819D02*
X218142857Y-107002438D01*
X218142857Y-107002438D02*
X218238095Y-107097676D01*
X218238095Y-107097676D02*
X218285714Y-107192914D01*
X218285714Y-107192914D02*
X218333333Y-107383390D01*
X218333333Y-107383390D02*
X218333333Y-107526247D01*
X218333333Y-107526247D02*
X218285714Y-107716723D01*
X218285714Y-107716723D02*
X218238095Y-107811961D01*
X218238095Y-107811961D02*
X218142857Y-107907200D01*
X218142857Y-107907200D02*
X218000000Y-107954819D01*
X218000000Y-107954819D02*
X217761905Y-107954819D01*
X221649819Y-164928572D02*
X220649819Y-164928572D01*
X220649819Y-164928572D02*
X220649819Y-164547620D01*
X220649819Y-164547620D02*
X220697438Y-164452382D01*
X220697438Y-164452382D02*
X220745057Y-164404763D01*
X220745057Y-164404763D02*
X220840295Y-164357144D01*
X220840295Y-164357144D02*
X220983152Y-164357144D01*
X220983152Y-164357144D02*
X221078390Y-164404763D01*
X221078390Y-164404763D02*
X221126009Y-164452382D01*
X221126009Y-164452382D02*
X221173628Y-164547620D01*
X221173628Y-164547620D02*
X221173628Y-164928572D01*
X221649819Y-163928572D02*
X220983152Y-163928572D01*
X221173628Y-163928572D02*
X221078390Y-163880953D01*
X221078390Y-163880953D02*
X221030771Y-163833334D01*
X221030771Y-163833334D02*
X220983152Y-163738096D01*
X220983152Y-163738096D02*
X220983152Y-163642858D01*
X221602200Y-162928572D02*
X221649819Y-163023810D01*
X221649819Y-163023810D02*
X221649819Y-163214286D01*
X221649819Y-163214286D02*
X221602200Y-163309524D01*
X221602200Y-163309524D02*
X221506961Y-163357143D01*
X221506961Y-163357143D02*
X221126009Y-163357143D01*
X221126009Y-163357143D02*
X221030771Y-163309524D01*
X221030771Y-163309524D02*
X220983152Y-163214286D01*
X220983152Y-163214286D02*
X220983152Y-163023810D01*
X220983152Y-163023810D02*
X221030771Y-162928572D01*
X221030771Y-162928572D02*
X221126009Y-162880953D01*
X221126009Y-162880953D02*
X221221247Y-162880953D01*
X221221247Y-162880953D02*
X221316485Y-163357143D01*
X221602200Y-162023810D02*
X221649819Y-162119048D01*
X221649819Y-162119048D02*
X221649819Y-162309524D01*
X221649819Y-162309524D02*
X221602200Y-162404762D01*
X221602200Y-162404762D02*
X221554580Y-162452381D01*
X221554580Y-162452381D02*
X221459342Y-162500000D01*
X221459342Y-162500000D02*
X221173628Y-162500000D01*
X221173628Y-162500000D02*
X221078390Y-162452381D01*
X221078390Y-162452381D02*
X221030771Y-162404762D01*
X221030771Y-162404762D02*
X220983152Y-162309524D01*
X220983152Y-162309524D02*
X220983152Y-162119048D01*
X220983152Y-162119048D02*
X221030771Y-162023810D01*
X221649819Y-161595238D02*
X220649819Y-161595238D01*
X221649819Y-161166667D02*
X221126009Y-161166667D01*
X221126009Y-161166667D02*
X221030771Y-161214286D01*
X221030771Y-161214286D02*
X220983152Y-161309524D01*
X220983152Y-161309524D02*
X220983152Y-161452381D01*
X220983152Y-161452381D02*
X221030771Y-161547619D01*
X221030771Y-161547619D02*
X221078390Y-161595238D01*
X221649819Y-160261905D02*
X221126009Y-160261905D01*
X221126009Y-160261905D02*
X221030771Y-160309524D01*
X221030771Y-160309524D02*
X220983152Y-160404762D01*
X220983152Y-160404762D02*
X220983152Y-160595238D01*
X220983152Y-160595238D02*
X221030771Y-160690476D01*
X221602200Y-160261905D02*
X221649819Y-160357143D01*
X221649819Y-160357143D02*
X221649819Y-160595238D01*
X221649819Y-160595238D02*
X221602200Y-160690476D01*
X221602200Y-160690476D02*
X221506961Y-160738095D01*
X221506961Y-160738095D02*
X221411723Y-160738095D01*
X221411723Y-160738095D02*
X221316485Y-160690476D01*
X221316485Y-160690476D02*
X221268866Y-160595238D01*
X221268866Y-160595238D02*
X221268866Y-160357143D01*
X221268866Y-160357143D02*
X221221247Y-160261905D01*
X221649819Y-159785714D02*
X220983152Y-159785714D01*
X221173628Y-159785714D02*
X221078390Y-159738095D01*
X221078390Y-159738095D02*
X221030771Y-159690476D01*
X221030771Y-159690476D02*
X220983152Y-159595238D01*
X220983152Y-159595238D02*
X220983152Y-159500000D01*
X220983152Y-158738095D02*
X221792676Y-158738095D01*
X221792676Y-158738095D02*
X221887914Y-158785714D01*
X221887914Y-158785714D02*
X221935533Y-158833333D01*
X221935533Y-158833333D02*
X221983152Y-158928571D01*
X221983152Y-158928571D02*
X221983152Y-159071428D01*
X221983152Y-159071428D02*
X221935533Y-159166666D01*
X221602200Y-158738095D02*
X221649819Y-158833333D01*
X221649819Y-158833333D02*
X221649819Y-159023809D01*
X221649819Y-159023809D02*
X221602200Y-159119047D01*
X221602200Y-159119047D02*
X221554580Y-159166666D01*
X221554580Y-159166666D02*
X221459342Y-159214285D01*
X221459342Y-159214285D02*
X221173628Y-159214285D01*
X221173628Y-159214285D02*
X221078390Y-159166666D01*
X221078390Y-159166666D02*
X221030771Y-159119047D01*
X221030771Y-159119047D02*
X220983152Y-159023809D01*
X220983152Y-159023809D02*
X220983152Y-158833333D01*
X220983152Y-158833333D02*
X221030771Y-158738095D01*
X221602200Y-157880952D02*
X221649819Y-157976190D01*
X221649819Y-157976190D02*
X221649819Y-158166666D01*
X221649819Y-158166666D02*
X221602200Y-158261904D01*
X221602200Y-158261904D02*
X221506961Y-158309523D01*
X221506961Y-158309523D02*
X221126009Y-158309523D01*
X221126009Y-158309523D02*
X221030771Y-158261904D01*
X221030771Y-158261904D02*
X220983152Y-158166666D01*
X220983152Y-158166666D02*
X220983152Y-157976190D01*
X220983152Y-157976190D02*
X221030771Y-157880952D01*
X221030771Y-157880952D02*
X221126009Y-157833333D01*
X221126009Y-157833333D02*
X221221247Y-157833333D01*
X221221247Y-157833333D02*
X221316485Y-158309523D01*
X221649819Y-156071428D02*
X221173628Y-156404761D01*
X221649819Y-156642856D02*
X220649819Y-156642856D01*
X220649819Y-156642856D02*
X220649819Y-156261904D01*
X220649819Y-156261904D02*
X220697438Y-156166666D01*
X220697438Y-156166666D02*
X220745057Y-156119047D01*
X220745057Y-156119047D02*
X220840295Y-156071428D01*
X220840295Y-156071428D02*
X220983152Y-156071428D01*
X220983152Y-156071428D02*
X221078390Y-156119047D01*
X221078390Y-156119047D02*
X221126009Y-156166666D01*
X221126009Y-156166666D02*
X221173628Y-156261904D01*
X221173628Y-156261904D02*
X221173628Y-156642856D01*
X221602200Y-155261904D02*
X221649819Y-155357142D01*
X221649819Y-155357142D02*
X221649819Y-155547618D01*
X221649819Y-155547618D02*
X221602200Y-155642856D01*
X221602200Y-155642856D02*
X221506961Y-155690475D01*
X221506961Y-155690475D02*
X221126009Y-155690475D01*
X221126009Y-155690475D02*
X221030771Y-155642856D01*
X221030771Y-155642856D02*
X220983152Y-155547618D01*
X220983152Y-155547618D02*
X220983152Y-155357142D01*
X220983152Y-155357142D02*
X221030771Y-155261904D01*
X221030771Y-155261904D02*
X221126009Y-155214285D01*
X221126009Y-155214285D02*
X221221247Y-155214285D01*
X221221247Y-155214285D02*
X221316485Y-155690475D01*
X221602200Y-154833332D02*
X221649819Y-154738094D01*
X221649819Y-154738094D02*
X221649819Y-154547618D01*
X221649819Y-154547618D02*
X221602200Y-154452380D01*
X221602200Y-154452380D02*
X221506961Y-154404761D01*
X221506961Y-154404761D02*
X221459342Y-154404761D01*
X221459342Y-154404761D02*
X221364104Y-154452380D01*
X221364104Y-154452380D02*
X221316485Y-154547618D01*
X221316485Y-154547618D02*
X221316485Y-154690475D01*
X221316485Y-154690475D02*
X221268866Y-154785713D01*
X221268866Y-154785713D02*
X221173628Y-154833332D01*
X221173628Y-154833332D02*
X221126009Y-154833332D01*
X221126009Y-154833332D02*
X221030771Y-154785713D01*
X221030771Y-154785713D02*
X220983152Y-154690475D01*
X220983152Y-154690475D02*
X220983152Y-154547618D01*
X220983152Y-154547618D02*
X221030771Y-154452380D01*
X221649819Y-153976189D02*
X220983152Y-153976189D01*
X220649819Y-153976189D02*
X220697438Y-154023808D01*
X220697438Y-154023808D02*
X220745057Y-153976189D01*
X220745057Y-153976189D02*
X220697438Y-153928570D01*
X220697438Y-153928570D02*
X220649819Y-153976189D01*
X220649819Y-153976189D02*
X220745057Y-153976189D01*
X221602200Y-153547618D02*
X221649819Y-153452380D01*
X221649819Y-153452380D02*
X221649819Y-153261904D01*
X221649819Y-153261904D02*
X221602200Y-153166666D01*
X221602200Y-153166666D02*
X221506961Y-153119047D01*
X221506961Y-153119047D02*
X221459342Y-153119047D01*
X221459342Y-153119047D02*
X221364104Y-153166666D01*
X221364104Y-153166666D02*
X221316485Y-153261904D01*
X221316485Y-153261904D02*
X221316485Y-153404761D01*
X221316485Y-153404761D02*
X221268866Y-153499999D01*
X221268866Y-153499999D02*
X221173628Y-153547618D01*
X221173628Y-153547618D02*
X221126009Y-153547618D01*
X221126009Y-153547618D02*
X221030771Y-153499999D01*
X221030771Y-153499999D02*
X220983152Y-153404761D01*
X220983152Y-153404761D02*
X220983152Y-153261904D01*
X220983152Y-153261904D02*
X221030771Y-153166666D01*
X220983152Y-152833332D02*
X220983152Y-152452380D01*
X220649819Y-152690475D02*
X221506961Y-152690475D01*
X221506961Y-152690475D02*
X221602200Y-152642856D01*
X221602200Y-152642856D02*
X221649819Y-152547618D01*
X221649819Y-152547618D02*
X221649819Y-152452380D01*
X221649819Y-151976189D02*
X221602200Y-152071427D01*
X221602200Y-152071427D02*
X221554580Y-152119046D01*
X221554580Y-152119046D02*
X221459342Y-152166665D01*
X221459342Y-152166665D02*
X221173628Y-152166665D01*
X221173628Y-152166665D02*
X221078390Y-152119046D01*
X221078390Y-152119046D02*
X221030771Y-152071427D01*
X221030771Y-152071427D02*
X220983152Y-151976189D01*
X220983152Y-151976189D02*
X220983152Y-151833332D01*
X220983152Y-151833332D02*
X221030771Y-151738094D01*
X221030771Y-151738094D02*
X221078390Y-151690475D01*
X221078390Y-151690475D02*
X221173628Y-151642856D01*
X221173628Y-151642856D02*
X221459342Y-151642856D01*
X221459342Y-151642856D02*
X221554580Y-151690475D01*
X221554580Y-151690475D02*
X221602200Y-151738094D01*
X221602200Y-151738094D02*
X221649819Y-151833332D01*
X221649819Y-151833332D02*
X221649819Y-151976189D01*
X221649819Y-151214284D02*
X220983152Y-151214284D01*
X221173628Y-151214284D02*
X221078390Y-151166665D01*
X221078390Y-151166665D02*
X221030771Y-151119046D01*
X221030771Y-151119046D02*
X220983152Y-151023808D01*
X220983152Y-151023808D02*
X220983152Y-150928570D01*
X223259819Y-158999999D02*
X222259819Y-158999999D01*
X223259819Y-158523809D02*
X222259819Y-158523809D01*
X222259819Y-158523809D02*
X223259819Y-157952381D01*
X223259819Y-157952381D02*
X222259819Y-157952381D01*
X222355057Y-157523809D02*
X222307438Y-157476190D01*
X222307438Y-157476190D02*
X222259819Y-157380952D01*
X222259819Y-157380952D02*
X222259819Y-157142857D01*
X222259819Y-157142857D02*
X222307438Y-157047619D01*
X222307438Y-157047619D02*
X222355057Y-157000000D01*
X222355057Y-157000000D02*
X222450295Y-156952381D01*
X222450295Y-156952381D02*
X222545533Y-156952381D01*
X222545533Y-156952381D02*
X222688390Y-157000000D01*
X222688390Y-157000000D02*
X223259819Y-157571428D01*
X223259819Y-157571428D02*
X223259819Y-156952381D01*
X215149819Y-145428572D02*
X214149819Y-145428572D01*
X214149819Y-145428572D02*
X214149819Y-145047620D01*
X214149819Y-145047620D02*
X214197438Y-144952382D01*
X214197438Y-144952382D02*
X214245057Y-144904763D01*
X214245057Y-144904763D02*
X214340295Y-144857144D01*
X214340295Y-144857144D02*
X214483152Y-144857144D01*
X214483152Y-144857144D02*
X214578390Y-144904763D01*
X214578390Y-144904763D02*
X214626009Y-144952382D01*
X214626009Y-144952382D02*
X214673628Y-145047620D01*
X214673628Y-145047620D02*
X214673628Y-145428572D01*
X215149819Y-144428572D02*
X214483152Y-144428572D01*
X214673628Y-144428572D02*
X214578390Y-144380953D01*
X214578390Y-144380953D02*
X214530771Y-144333334D01*
X214530771Y-144333334D02*
X214483152Y-144238096D01*
X214483152Y-144238096D02*
X214483152Y-144142858D01*
X215102200Y-143428572D02*
X215149819Y-143523810D01*
X215149819Y-143523810D02*
X215149819Y-143714286D01*
X215149819Y-143714286D02*
X215102200Y-143809524D01*
X215102200Y-143809524D02*
X215006961Y-143857143D01*
X215006961Y-143857143D02*
X214626009Y-143857143D01*
X214626009Y-143857143D02*
X214530771Y-143809524D01*
X214530771Y-143809524D02*
X214483152Y-143714286D01*
X214483152Y-143714286D02*
X214483152Y-143523810D01*
X214483152Y-143523810D02*
X214530771Y-143428572D01*
X214530771Y-143428572D02*
X214626009Y-143380953D01*
X214626009Y-143380953D02*
X214721247Y-143380953D01*
X214721247Y-143380953D02*
X214816485Y-143857143D01*
X215102200Y-142523810D02*
X215149819Y-142619048D01*
X215149819Y-142619048D02*
X215149819Y-142809524D01*
X215149819Y-142809524D02*
X215102200Y-142904762D01*
X215102200Y-142904762D02*
X215054580Y-142952381D01*
X215054580Y-142952381D02*
X214959342Y-143000000D01*
X214959342Y-143000000D02*
X214673628Y-143000000D01*
X214673628Y-143000000D02*
X214578390Y-142952381D01*
X214578390Y-142952381D02*
X214530771Y-142904762D01*
X214530771Y-142904762D02*
X214483152Y-142809524D01*
X214483152Y-142809524D02*
X214483152Y-142619048D01*
X214483152Y-142619048D02*
X214530771Y-142523810D01*
X215149819Y-142095238D02*
X214149819Y-142095238D01*
X215149819Y-141666667D02*
X214626009Y-141666667D01*
X214626009Y-141666667D02*
X214530771Y-141714286D01*
X214530771Y-141714286D02*
X214483152Y-141809524D01*
X214483152Y-141809524D02*
X214483152Y-141952381D01*
X214483152Y-141952381D02*
X214530771Y-142047619D01*
X214530771Y-142047619D02*
X214578390Y-142095238D01*
X215149819Y-140761905D02*
X214626009Y-140761905D01*
X214626009Y-140761905D02*
X214530771Y-140809524D01*
X214530771Y-140809524D02*
X214483152Y-140904762D01*
X214483152Y-140904762D02*
X214483152Y-141095238D01*
X214483152Y-141095238D02*
X214530771Y-141190476D01*
X215102200Y-140761905D02*
X215149819Y-140857143D01*
X215149819Y-140857143D02*
X215149819Y-141095238D01*
X215149819Y-141095238D02*
X215102200Y-141190476D01*
X215102200Y-141190476D02*
X215006961Y-141238095D01*
X215006961Y-141238095D02*
X214911723Y-141238095D01*
X214911723Y-141238095D02*
X214816485Y-141190476D01*
X214816485Y-141190476D02*
X214768866Y-141095238D01*
X214768866Y-141095238D02*
X214768866Y-140857143D01*
X214768866Y-140857143D02*
X214721247Y-140761905D01*
X215149819Y-140285714D02*
X214483152Y-140285714D01*
X214673628Y-140285714D02*
X214578390Y-140238095D01*
X214578390Y-140238095D02*
X214530771Y-140190476D01*
X214530771Y-140190476D02*
X214483152Y-140095238D01*
X214483152Y-140095238D02*
X214483152Y-140000000D01*
X214483152Y-139238095D02*
X215292676Y-139238095D01*
X215292676Y-139238095D02*
X215387914Y-139285714D01*
X215387914Y-139285714D02*
X215435533Y-139333333D01*
X215435533Y-139333333D02*
X215483152Y-139428571D01*
X215483152Y-139428571D02*
X215483152Y-139571428D01*
X215483152Y-139571428D02*
X215435533Y-139666666D01*
X215102200Y-139238095D02*
X215149819Y-139333333D01*
X215149819Y-139333333D02*
X215149819Y-139523809D01*
X215149819Y-139523809D02*
X215102200Y-139619047D01*
X215102200Y-139619047D02*
X215054580Y-139666666D01*
X215054580Y-139666666D02*
X214959342Y-139714285D01*
X214959342Y-139714285D02*
X214673628Y-139714285D01*
X214673628Y-139714285D02*
X214578390Y-139666666D01*
X214578390Y-139666666D02*
X214530771Y-139619047D01*
X214530771Y-139619047D02*
X214483152Y-139523809D01*
X214483152Y-139523809D02*
X214483152Y-139333333D01*
X214483152Y-139333333D02*
X214530771Y-139238095D01*
X215102200Y-138380952D02*
X215149819Y-138476190D01*
X215149819Y-138476190D02*
X215149819Y-138666666D01*
X215149819Y-138666666D02*
X215102200Y-138761904D01*
X215102200Y-138761904D02*
X215006961Y-138809523D01*
X215006961Y-138809523D02*
X214626009Y-138809523D01*
X214626009Y-138809523D02*
X214530771Y-138761904D01*
X214530771Y-138761904D02*
X214483152Y-138666666D01*
X214483152Y-138666666D02*
X214483152Y-138476190D01*
X214483152Y-138476190D02*
X214530771Y-138380952D01*
X214530771Y-138380952D02*
X214626009Y-138333333D01*
X214626009Y-138333333D02*
X214721247Y-138333333D01*
X214721247Y-138333333D02*
X214816485Y-138809523D01*
X215149819Y-136571428D02*
X214673628Y-136904761D01*
X215149819Y-137142856D02*
X214149819Y-137142856D01*
X214149819Y-137142856D02*
X214149819Y-136761904D01*
X214149819Y-136761904D02*
X214197438Y-136666666D01*
X214197438Y-136666666D02*
X214245057Y-136619047D01*
X214245057Y-136619047D02*
X214340295Y-136571428D01*
X214340295Y-136571428D02*
X214483152Y-136571428D01*
X214483152Y-136571428D02*
X214578390Y-136619047D01*
X214578390Y-136619047D02*
X214626009Y-136666666D01*
X214626009Y-136666666D02*
X214673628Y-136761904D01*
X214673628Y-136761904D02*
X214673628Y-137142856D01*
X215102200Y-135761904D02*
X215149819Y-135857142D01*
X215149819Y-135857142D02*
X215149819Y-136047618D01*
X215149819Y-136047618D02*
X215102200Y-136142856D01*
X215102200Y-136142856D02*
X215006961Y-136190475D01*
X215006961Y-136190475D02*
X214626009Y-136190475D01*
X214626009Y-136190475D02*
X214530771Y-136142856D01*
X214530771Y-136142856D02*
X214483152Y-136047618D01*
X214483152Y-136047618D02*
X214483152Y-135857142D01*
X214483152Y-135857142D02*
X214530771Y-135761904D01*
X214530771Y-135761904D02*
X214626009Y-135714285D01*
X214626009Y-135714285D02*
X214721247Y-135714285D01*
X214721247Y-135714285D02*
X214816485Y-136190475D01*
X215102200Y-135333332D02*
X215149819Y-135238094D01*
X215149819Y-135238094D02*
X215149819Y-135047618D01*
X215149819Y-135047618D02*
X215102200Y-134952380D01*
X215102200Y-134952380D02*
X215006961Y-134904761D01*
X215006961Y-134904761D02*
X214959342Y-134904761D01*
X214959342Y-134904761D02*
X214864104Y-134952380D01*
X214864104Y-134952380D02*
X214816485Y-135047618D01*
X214816485Y-135047618D02*
X214816485Y-135190475D01*
X214816485Y-135190475D02*
X214768866Y-135285713D01*
X214768866Y-135285713D02*
X214673628Y-135333332D01*
X214673628Y-135333332D02*
X214626009Y-135333332D01*
X214626009Y-135333332D02*
X214530771Y-135285713D01*
X214530771Y-135285713D02*
X214483152Y-135190475D01*
X214483152Y-135190475D02*
X214483152Y-135047618D01*
X214483152Y-135047618D02*
X214530771Y-134952380D01*
X215149819Y-134476189D02*
X214483152Y-134476189D01*
X214149819Y-134476189D02*
X214197438Y-134523808D01*
X214197438Y-134523808D02*
X214245057Y-134476189D01*
X214245057Y-134476189D02*
X214197438Y-134428570D01*
X214197438Y-134428570D02*
X214149819Y-134476189D01*
X214149819Y-134476189D02*
X214245057Y-134476189D01*
X215102200Y-134047618D02*
X215149819Y-133952380D01*
X215149819Y-133952380D02*
X215149819Y-133761904D01*
X215149819Y-133761904D02*
X215102200Y-133666666D01*
X215102200Y-133666666D02*
X215006961Y-133619047D01*
X215006961Y-133619047D02*
X214959342Y-133619047D01*
X214959342Y-133619047D02*
X214864104Y-133666666D01*
X214864104Y-133666666D02*
X214816485Y-133761904D01*
X214816485Y-133761904D02*
X214816485Y-133904761D01*
X214816485Y-133904761D02*
X214768866Y-133999999D01*
X214768866Y-133999999D02*
X214673628Y-134047618D01*
X214673628Y-134047618D02*
X214626009Y-134047618D01*
X214626009Y-134047618D02*
X214530771Y-133999999D01*
X214530771Y-133999999D02*
X214483152Y-133904761D01*
X214483152Y-133904761D02*
X214483152Y-133761904D01*
X214483152Y-133761904D02*
X214530771Y-133666666D01*
X214483152Y-133333332D02*
X214483152Y-132952380D01*
X214149819Y-133190475D02*
X215006961Y-133190475D01*
X215006961Y-133190475D02*
X215102200Y-133142856D01*
X215102200Y-133142856D02*
X215149819Y-133047618D01*
X215149819Y-133047618D02*
X215149819Y-132952380D01*
X215149819Y-132476189D02*
X215102200Y-132571427D01*
X215102200Y-132571427D02*
X215054580Y-132619046D01*
X215054580Y-132619046D02*
X214959342Y-132666665D01*
X214959342Y-132666665D02*
X214673628Y-132666665D01*
X214673628Y-132666665D02*
X214578390Y-132619046D01*
X214578390Y-132619046D02*
X214530771Y-132571427D01*
X214530771Y-132571427D02*
X214483152Y-132476189D01*
X214483152Y-132476189D02*
X214483152Y-132333332D01*
X214483152Y-132333332D02*
X214530771Y-132238094D01*
X214530771Y-132238094D02*
X214578390Y-132190475D01*
X214578390Y-132190475D02*
X214673628Y-132142856D01*
X214673628Y-132142856D02*
X214959342Y-132142856D01*
X214959342Y-132142856D02*
X215054580Y-132190475D01*
X215054580Y-132190475D02*
X215102200Y-132238094D01*
X215102200Y-132238094D02*
X215149819Y-132333332D01*
X215149819Y-132333332D02*
X215149819Y-132476189D01*
X215149819Y-131714284D02*
X214483152Y-131714284D01*
X214673628Y-131714284D02*
X214578390Y-131666665D01*
X214578390Y-131666665D02*
X214530771Y-131619046D01*
X214530771Y-131619046D02*
X214483152Y-131523808D01*
X214483152Y-131523808D02*
X214483152Y-131428570D01*
X216759819Y-140214285D02*
X215759819Y-140214285D01*
X216236009Y-140214285D02*
X216236009Y-139642857D01*
X216759819Y-139642857D02*
X215759819Y-139642857D01*
X216712200Y-139214285D02*
X216759819Y-139071428D01*
X216759819Y-139071428D02*
X216759819Y-138833333D01*
X216759819Y-138833333D02*
X216712200Y-138738095D01*
X216712200Y-138738095D02*
X216664580Y-138690476D01*
X216664580Y-138690476D02*
X216569342Y-138642857D01*
X216569342Y-138642857D02*
X216474104Y-138642857D01*
X216474104Y-138642857D02*
X216378866Y-138690476D01*
X216378866Y-138690476D02*
X216331247Y-138738095D01*
X216331247Y-138738095D02*
X216283628Y-138833333D01*
X216283628Y-138833333D02*
X216236009Y-139023809D01*
X216236009Y-139023809D02*
X216188390Y-139119047D01*
X216188390Y-139119047D02*
X216140771Y-139166666D01*
X216140771Y-139166666D02*
X216045533Y-139214285D01*
X216045533Y-139214285D02*
X215950295Y-139214285D01*
X215950295Y-139214285D02*
X215855057Y-139166666D01*
X215855057Y-139166666D02*
X215807438Y-139119047D01*
X215807438Y-139119047D02*
X215759819Y-139023809D01*
X215759819Y-139023809D02*
X215759819Y-138785714D01*
X215759819Y-138785714D02*
X215807438Y-138642857D01*
X215759819Y-137738095D02*
X215759819Y-138214285D01*
X215759819Y-138214285D02*
X216236009Y-138261904D01*
X216236009Y-138261904D02*
X216188390Y-138214285D01*
X216188390Y-138214285D02*
X216140771Y-138119047D01*
X216140771Y-138119047D02*
X216140771Y-137880952D01*
X216140771Y-137880952D02*
X216188390Y-137785714D01*
X216188390Y-137785714D02*
X216236009Y-137738095D01*
X216236009Y-137738095D02*
X216331247Y-137690476D01*
X216331247Y-137690476D02*
X216569342Y-137690476D01*
X216569342Y-137690476D02*
X216664580Y-137738095D01*
X216664580Y-137738095D02*
X216712200Y-137785714D01*
X216712200Y-137785714D02*
X216759819Y-137880952D01*
X216759819Y-137880952D02*
X216759819Y-138119047D01*
X216759819Y-138119047D02*
X216712200Y-138214285D01*
X216712200Y-138214285D02*
X216664580Y-138261904D01*
X215759819Y-137071428D02*
X215759819Y-136976190D01*
X215759819Y-136976190D02*
X215807438Y-136880952D01*
X215807438Y-136880952D02*
X215855057Y-136833333D01*
X215855057Y-136833333D02*
X215950295Y-136785714D01*
X215950295Y-136785714D02*
X216140771Y-136738095D01*
X216140771Y-136738095D02*
X216378866Y-136738095D01*
X216378866Y-136738095D02*
X216569342Y-136785714D01*
X216569342Y-136785714D02*
X216664580Y-136833333D01*
X216664580Y-136833333D02*
X216712200Y-136880952D01*
X216712200Y-136880952D02*
X216759819Y-136976190D01*
X216759819Y-136976190D02*
X216759819Y-137071428D01*
X216759819Y-137071428D02*
X216712200Y-137166666D01*
X216712200Y-137166666D02*
X216664580Y-137214285D01*
X216664580Y-137214285D02*
X216569342Y-137261904D01*
X216569342Y-137261904D02*
X216378866Y-137309523D01*
X216378866Y-137309523D02*
X216140771Y-137309523D01*
X216140771Y-137309523D02*
X215950295Y-137261904D01*
X215950295Y-137261904D02*
X215855057Y-137214285D01*
X215855057Y-137214285D02*
X215807438Y-137166666D01*
X215807438Y-137166666D02*
X215759819Y-137071428D01*
D13*
X170882333Y-166904761D02*
X170882333Y-163095238D01*
D12*
X13751541Y-19563628D02*
X14251541Y-21063628D01*
X14251541Y-21063628D02*
X14751541Y-19563628D01*
X15180112Y-19706485D02*
X15251540Y-19635057D01*
X15251540Y-19635057D02*
X15394398Y-19563628D01*
X15394398Y-19563628D02*
X15751540Y-19563628D01*
X15751540Y-19563628D02*
X15894398Y-19635057D01*
X15894398Y-19635057D02*
X15965826Y-19706485D01*
X15965826Y-19706485D02*
X16037255Y-19849342D01*
X16037255Y-19849342D02*
X16037255Y-19992200D01*
X16037255Y-19992200D02*
X15965826Y-20206485D01*
X15965826Y-20206485D02*
X15108683Y-21063628D01*
X15108683Y-21063628D02*
X16037255Y-21063628D01*
X16680111Y-20920771D02*
X16751540Y-20992200D01*
X16751540Y-20992200D02*
X16680111Y-21063628D01*
X16680111Y-21063628D02*
X16608683Y-20992200D01*
X16608683Y-20992200D02*
X16680111Y-20920771D01*
X16680111Y-20920771D02*
X16680111Y-21063628D01*
X18180112Y-21063628D02*
X17322969Y-21063628D01*
X17751540Y-21063628D02*
X17751540Y-19563628D01*
X17751540Y-19563628D02*
X17608683Y-19777914D01*
X17608683Y-19777914D02*
X17465826Y-19920771D01*
X17465826Y-19920771D02*
X17322969Y-19992200D01*
X18822968Y-20920771D02*
X18894397Y-20992200D01*
X18894397Y-20992200D02*
X18822968Y-21063628D01*
X18822968Y-21063628D02*
X18751540Y-20992200D01*
X18751540Y-20992200D02*
X18822968Y-20920771D01*
X18822968Y-20920771D02*
X18822968Y-21063628D01*
X18822968Y-20135057D02*
X18894397Y-20206485D01*
X18894397Y-20206485D02*
X18822968Y-20277914D01*
X18822968Y-20277914D02*
X18751540Y-20206485D01*
X18751540Y-20206485D02*
X18822968Y-20135057D01*
X18822968Y-20135057D02*
X18822968Y-20277914D01*
X20680111Y-21063628D02*
X20680111Y-19563628D01*
X20680111Y-19563628D02*
X21180111Y-20635057D01*
X21180111Y-20635057D02*
X21680111Y-19563628D01*
X21680111Y-19563628D02*
X21680111Y-21063628D01*
X23037255Y-21063628D02*
X23037255Y-20277914D01*
X23037255Y-20277914D02*
X22965826Y-20135057D01*
X22965826Y-20135057D02*
X22822969Y-20063628D01*
X22822969Y-20063628D02*
X22537255Y-20063628D01*
X22537255Y-20063628D02*
X22394397Y-20135057D01*
X23037255Y-20992200D02*
X22894397Y-21063628D01*
X22894397Y-21063628D02*
X22537255Y-21063628D01*
X22537255Y-21063628D02*
X22394397Y-20992200D01*
X22394397Y-20992200D02*
X22322969Y-20849342D01*
X22322969Y-20849342D02*
X22322969Y-20706485D01*
X22322969Y-20706485D02*
X22394397Y-20563628D01*
X22394397Y-20563628D02*
X22537255Y-20492200D01*
X22537255Y-20492200D02*
X22894397Y-20492200D01*
X22894397Y-20492200D02*
X23037255Y-20420771D01*
X24394398Y-21063628D02*
X24394398Y-19563628D01*
X24394398Y-20992200D02*
X24251540Y-21063628D01*
X24251540Y-21063628D02*
X23965826Y-21063628D01*
X23965826Y-21063628D02*
X23822969Y-20992200D01*
X23822969Y-20992200D02*
X23751540Y-20920771D01*
X23751540Y-20920771D02*
X23680112Y-20777914D01*
X23680112Y-20777914D02*
X23680112Y-20349342D01*
X23680112Y-20349342D02*
X23751540Y-20206485D01*
X23751540Y-20206485D02*
X23822969Y-20135057D01*
X23822969Y-20135057D02*
X23965826Y-20063628D01*
X23965826Y-20063628D02*
X24251540Y-20063628D01*
X24251540Y-20063628D02*
X24394398Y-20135057D01*
X25680112Y-20992200D02*
X25537255Y-21063628D01*
X25537255Y-21063628D02*
X25251541Y-21063628D01*
X25251541Y-21063628D02*
X25108683Y-20992200D01*
X25108683Y-20992200D02*
X25037255Y-20849342D01*
X25037255Y-20849342D02*
X25037255Y-20277914D01*
X25037255Y-20277914D02*
X25108683Y-20135057D01*
X25108683Y-20135057D02*
X25251541Y-20063628D01*
X25251541Y-20063628D02*
X25537255Y-20063628D01*
X25537255Y-20063628D02*
X25680112Y-20135057D01*
X25680112Y-20135057D02*
X25751541Y-20277914D01*
X25751541Y-20277914D02*
X25751541Y-20420771D01*
X25751541Y-20420771D02*
X25037255Y-20563628D01*
X27465826Y-20992200D02*
X27608683Y-21063628D01*
X27608683Y-21063628D02*
X27894397Y-21063628D01*
X27894397Y-21063628D02*
X28037254Y-20992200D01*
X28037254Y-20992200D02*
X28108683Y-20849342D01*
X28108683Y-20849342D02*
X28108683Y-20777914D01*
X28108683Y-20777914D02*
X28037254Y-20635057D01*
X28037254Y-20635057D02*
X27894397Y-20563628D01*
X27894397Y-20563628D02*
X27680112Y-20563628D01*
X27680112Y-20563628D02*
X27537254Y-20492200D01*
X27537254Y-20492200D02*
X27465826Y-20349342D01*
X27465826Y-20349342D02*
X27465826Y-20277914D01*
X27465826Y-20277914D02*
X27537254Y-20135057D01*
X27537254Y-20135057D02*
X27680112Y-20063628D01*
X27680112Y-20063628D02*
X27894397Y-20063628D01*
X27894397Y-20063628D02*
X28037254Y-20135057D01*
X28965826Y-21063628D02*
X28822969Y-20992200D01*
X28822969Y-20992200D02*
X28751540Y-20920771D01*
X28751540Y-20920771D02*
X28680112Y-20777914D01*
X28680112Y-20777914D02*
X28680112Y-20349342D01*
X28680112Y-20349342D02*
X28751540Y-20206485D01*
X28751540Y-20206485D02*
X28822969Y-20135057D01*
X28822969Y-20135057D02*
X28965826Y-20063628D01*
X28965826Y-20063628D02*
X29180112Y-20063628D01*
X29180112Y-20063628D02*
X29322969Y-20135057D01*
X29322969Y-20135057D02*
X29394398Y-20206485D01*
X29394398Y-20206485D02*
X29465826Y-20349342D01*
X29465826Y-20349342D02*
X29465826Y-20777914D01*
X29465826Y-20777914D02*
X29394398Y-20920771D01*
X29394398Y-20920771D02*
X29322969Y-20992200D01*
X29322969Y-20992200D02*
X29180112Y-21063628D01*
X29180112Y-21063628D02*
X28965826Y-21063628D01*
X30322969Y-21063628D02*
X30180112Y-20992200D01*
X30180112Y-20992200D02*
X30108683Y-20849342D01*
X30108683Y-20849342D02*
X30108683Y-19563628D01*
X30894397Y-21063628D02*
X30894397Y-20063628D01*
X30894397Y-19563628D02*
X30822969Y-19635057D01*
X30822969Y-19635057D02*
X30894397Y-19706485D01*
X30894397Y-19706485D02*
X30965826Y-19635057D01*
X30965826Y-19635057D02*
X30894397Y-19563628D01*
X30894397Y-19563628D02*
X30894397Y-19706485D01*
X32251541Y-21063628D02*
X32251541Y-19563628D01*
X32251541Y-20992200D02*
X32108683Y-21063628D01*
X32108683Y-21063628D02*
X31822969Y-21063628D01*
X31822969Y-21063628D02*
X31680112Y-20992200D01*
X31680112Y-20992200D02*
X31608683Y-20920771D01*
X31608683Y-20920771D02*
X31537255Y-20777914D01*
X31537255Y-20777914D02*
X31537255Y-20349342D01*
X31537255Y-20349342D02*
X31608683Y-20206485D01*
X31608683Y-20206485D02*
X31680112Y-20135057D01*
X31680112Y-20135057D02*
X31822969Y-20063628D01*
X31822969Y-20063628D02*
X32108683Y-20063628D01*
X32108683Y-20063628D02*
X32251541Y-20135057D01*
X33894398Y-20063628D02*
X34465826Y-20063628D01*
X34108683Y-21063628D02*
X34108683Y-19777914D01*
X34108683Y-19777914D02*
X34180112Y-19635057D01*
X34180112Y-19635057D02*
X34322969Y-19563628D01*
X34322969Y-19563628D02*
X34465826Y-19563628D01*
X34965826Y-21063628D02*
X34965826Y-20063628D01*
X34965826Y-19563628D02*
X34894398Y-19635057D01*
X34894398Y-19635057D02*
X34965826Y-19706485D01*
X34965826Y-19706485D02*
X35037255Y-19635057D01*
X35037255Y-19635057D02*
X34965826Y-19563628D01*
X34965826Y-19563628D02*
X34965826Y-19706485D01*
X35894398Y-21063628D02*
X35751541Y-20992200D01*
X35751541Y-20992200D02*
X35680112Y-20849342D01*
X35680112Y-20849342D02*
X35680112Y-19563628D01*
X36680112Y-21063628D02*
X36537255Y-20992200D01*
X36537255Y-20992200D02*
X36465826Y-20849342D01*
X36465826Y-20849342D02*
X36465826Y-19563628D01*
X37180112Y-20992200D02*
X37322969Y-21063628D01*
X37322969Y-21063628D02*
X37608683Y-21063628D01*
X37608683Y-21063628D02*
X37751540Y-20992200D01*
X37751540Y-20992200D02*
X37822969Y-20849342D01*
X37822969Y-20849342D02*
X37822969Y-20777914D01*
X37822969Y-20777914D02*
X37751540Y-20635057D01*
X37751540Y-20635057D02*
X37608683Y-20563628D01*
X37608683Y-20563628D02*
X37394398Y-20563628D01*
X37394398Y-20563628D02*
X37251540Y-20492200D01*
X37251540Y-20492200D02*
X37180112Y-20349342D01*
X37180112Y-20349342D02*
X37180112Y-20277914D01*
X37180112Y-20277914D02*
X37251540Y-20135057D01*
X37251540Y-20135057D02*
X37394398Y-20063628D01*
X37394398Y-20063628D02*
X37608683Y-20063628D01*
X37608683Y-20063628D02*
X37751540Y-20135057D01*
X39394398Y-20063628D02*
X39965826Y-20063628D01*
X39608683Y-21063628D02*
X39608683Y-19777914D01*
X39608683Y-19777914D02*
X39680112Y-19635057D01*
X39680112Y-19635057D02*
X39822969Y-19563628D01*
X39822969Y-19563628D02*
X39965826Y-19563628D01*
X40680112Y-21063628D02*
X40537255Y-20992200D01*
X40537255Y-20992200D02*
X40465826Y-20920771D01*
X40465826Y-20920771D02*
X40394398Y-20777914D01*
X40394398Y-20777914D02*
X40394398Y-20349342D01*
X40394398Y-20349342D02*
X40465826Y-20206485D01*
X40465826Y-20206485D02*
X40537255Y-20135057D01*
X40537255Y-20135057D02*
X40680112Y-20063628D01*
X40680112Y-20063628D02*
X40894398Y-20063628D01*
X40894398Y-20063628D02*
X41037255Y-20135057D01*
X41037255Y-20135057D02*
X41108684Y-20206485D01*
X41108684Y-20206485D02*
X41180112Y-20349342D01*
X41180112Y-20349342D02*
X41180112Y-20777914D01*
X41180112Y-20777914D02*
X41108684Y-20920771D01*
X41108684Y-20920771D02*
X41037255Y-20992200D01*
X41037255Y-20992200D02*
X40894398Y-21063628D01*
X40894398Y-21063628D02*
X40680112Y-21063628D01*
X41822969Y-21063628D02*
X41822969Y-20063628D01*
X41822969Y-20349342D02*
X41894398Y-20206485D01*
X41894398Y-20206485D02*
X41965827Y-20135057D01*
X41965827Y-20135057D02*
X42108684Y-20063628D01*
X42108684Y-20063628D02*
X42251541Y-20063628D01*
X43894397Y-21063628D02*
X43894397Y-19563628D01*
X43894397Y-19563628D02*
X44465826Y-19563628D01*
X44465826Y-19563628D02*
X44608683Y-19635057D01*
X44608683Y-19635057D02*
X44680112Y-19706485D01*
X44680112Y-19706485D02*
X44751540Y-19849342D01*
X44751540Y-19849342D02*
X44751540Y-20063628D01*
X44751540Y-20063628D02*
X44680112Y-20206485D01*
X44680112Y-20206485D02*
X44608683Y-20277914D01*
X44608683Y-20277914D02*
X44465826Y-20349342D01*
X44465826Y-20349342D02*
X43894397Y-20349342D01*
X46251540Y-21063628D02*
X45751540Y-20349342D01*
X45394397Y-21063628D02*
X45394397Y-19563628D01*
X45394397Y-19563628D02*
X45965826Y-19563628D01*
X45965826Y-19563628D02*
X46108683Y-19635057D01*
X46108683Y-19635057D02*
X46180112Y-19706485D01*
X46180112Y-19706485D02*
X46251540Y-19849342D01*
X46251540Y-19849342D02*
X46251540Y-20063628D01*
X46251540Y-20063628D02*
X46180112Y-20206485D01*
X46180112Y-20206485D02*
X46108683Y-20277914D01*
X46108683Y-20277914D02*
X45965826Y-20349342D01*
X45965826Y-20349342D02*
X45394397Y-20349342D01*
X47751540Y-20920771D02*
X47680112Y-20992200D01*
X47680112Y-20992200D02*
X47465826Y-21063628D01*
X47465826Y-21063628D02*
X47322969Y-21063628D01*
X47322969Y-21063628D02*
X47108683Y-20992200D01*
X47108683Y-20992200D02*
X46965826Y-20849342D01*
X46965826Y-20849342D02*
X46894397Y-20706485D01*
X46894397Y-20706485D02*
X46822969Y-20420771D01*
X46822969Y-20420771D02*
X46822969Y-20206485D01*
X46822969Y-20206485D02*
X46894397Y-19920771D01*
X46894397Y-19920771D02*
X46965826Y-19777914D01*
X46965826Y-19777914D02*
X47108683Y-19635057D01*
X47108683Y-19635057D02*
X47322969Y-19563628D01*
X47322969Y-19563628D02*
X47465826Y-19563628D01*
X47465826Y-19563628D02*
X47680112Y-19635057D01*
X47680112Y-19635057D02*
X47751540Y-19706485D01*
X48394397Y-21063628D02*
X48394397Y-19563628D01*
X48394397Y-20277914D02*
X49251540Y-20277914D01*
X49251540Y-21063628D02*
X49251540Y-19563628D01*
X50822969Y-21063628D02*
X50322969Y-20349342D01*
X49965826Y-21063628D02*
X49965826Y-19563628D01*
X49965826Y-19563628D02*
X50537255Y-19563628D01*
X50537255Y-19563628D02*
X50680112Y-19635057D01*
X50680112Y-19635057D02*
X50751541Y-19706485D01*
X50751541Y-19706485D02*
X50822969Y-19849342D01*
X50822969Y-19849342D02*
X50822969Y-20063628D01*
X50822969Y-20063628D02*
X50751541Y-20206485D01*
X50751541Y-20206485D02*
X50680112Y-20277914D01*
X50680112Y-20277914D02*
X50537255Y-20349342D01*
X50537255Y-20349342D02*
X49965826Y-20349342D01*
X52251541Y-19635057D02*
X52108684Y-19563628D01*
X52108684Y-19563628D02*
X51894398Y-19563628D01*
X51894398Y-19563628D02*
X51680112Y-19635057D01*
X51680112Y-19635057D02*
X51537255Y-19777914D01*
X51537255Y-19777914D02*
X51465826Y-19920771D01*
X51465826Y-19920771D02*
X51394398Y-20206485D01*
X51394398Y-20206485D02*
X51394398Y-20420771D01*
X51394398Y-20420771D02*
X51465826Y-20706485D01*
X51465826Y-20706485D02*
X51537255Y-20849342D01*
X51537255Y-20849342D02*
X51680112Y-20992200D01*
X51680112Y-20992200D02*
X51894398Y-21063628D01*
X51894398Y-21063628D02*
X52037255Y-21063628D01*
X52037255Y-21063628D02*
X52251541Y-20992200D01*
X52251541Y-20992200D02*
X52322969Y-20920771D01*
X52322969Y-20920771D02*
X52322969Y-20420771D01*
X52322969Y-20420771D02*
X52037255Y-20420771D01*
X54965826Y-20920771D02*
X54894398Y-20992200D01*
X54894398Y-20992200D02*
X54680112Y-21063628D01*
X54680112Y-21063628D02*
X54537255Y-21063628D01*
X54537255Y-21063628D02*
X54322969Y-20992200D01*
X54322969Y-20992200D02*
X54180112Y-20849342D01*
X54180112Y-20849342D02*
X54108683Y-20706485D01*
X54108683Y-20706485D02*
X54037255Y-20420771D01*
X54037255Y-20420771D02*
X54037255Y-20206485D01*
X54037255Y-20206485D02*
X54108683Y-19920771D01*
X54108683Y-19920771D02*
X54180112Y-19777914D01*
X54180112Y-19777914D02*
X54322969Y-19635057D01*
X54322969Y-19635057D02*
X54537255Y-19563628D01*
X54537255Y-19563628D02*
X54680112Y-19563628D01*
X54680112Y-19563628D02*
X54894398Y-19635057D01*
X54894398Y-19635057D02*
X54965826Y-19706485D01*
X55822969Y-21063628D02*
X55680112Y-20992200D01*
X55680112Y-20992200D02*
X55608683Y-20920771D01*
X55608683Y-20920771D02*
X55537255Y-20777914D01*
X55537255Y-20777914D02*
X55537255Y-20349342D01*
X55537255Y-20349342D02*
X55608683Y-20206485D01*
X55608683Y-20206485D02*
X55680112Y-20135057D01*
X55680112Y-20135057D02*
X55822969Y-20063628D01*
X55822969Y-20063628D02*
X56037255Y-20063628D01*
X56037255Y-20063628D02*
X56180112Y-20135057D01*
X56180112Y-20135057D02*
X56251541Y-20206485D01*
X56251541Y-20206485D02*
X56322969Y-20349342D01*
X56322969Y-20349342D02*
X56322969Y-20777914D01*
X56322969Y-20777914D02*
X56251541Y-20920771D01*
X56251541Y-20920771D02*
X56180112Y-20992200D01*
X56180112Y-20992200D02*
X56037255Y-21063628D01*
X56037255Y-21063628D02*
X55822969Y-21063628D01*
X56965826Y-20063628D02*
X56965826Y-21063628D01*
X56965826Y-20206485D02*
X57037255Y-20135057D01*
X57037255Y-20135057D02*
X57180112Y-20063628D01*
X57180112Y-20063628D02*
X57394398Y-20063628D01*
X57394398Y-20063628D02*
X57537255Y-20135057D01*
X57537255Y-20135057D02*
X57608684Y-20277914D01*
X57608684Y-20277914D02*
X57608684Y-21063628D01*
X58322969Y-20063628D02*
X58322969Y-21063628D01*
X58322969Y-20206485D02*
X58394398Y-20135057D01*
X58394398Y-20135057D02*
X58537255Y-20063628D01*
X58537255Y-20063628D02*
X58751541Y-20063628D01*
X58751541Y-20063628D02*
X58894398Y-20135057D01*
X58894398Y-20135057D02*
X58965827Y-20277914D01*
X58965827Y-20277914D02*
X58965827Y-21063628D01*
X60251541Y-20992200D02*
X60108684Y-21063628D01*
X60108684Y-21063628D02*
X59822970Y-21063628D01*
X59822970Y-21063628D02*
X59680112Y-20992200D01*
X59680112Y-20992200D02*
X59608684Y-20849342D01*
X59608684Y-20849342D02*
X59608684Y-20277914D01*
X59608684Y-20277914D02*
X59680112Y-20135057D01*
X59680112Y-20135057D02*
X59822970Y-20063628D01*
X59822970Y-20063628D02*
X60108684Y-20063628D01*
X60108684Y-20063628D02*
X60251541Y-20135057D01*
X60251541Y-20135057D02*
X60322970Y-20277914D01*
X60322970Y-20277914D02*
X60322970Y-20420771D01*
X60322970Y-20420771D02*
X59608684Y-20563628D01*
X61608684Y-20992200D02*
X61465826Y-21063628D01*
X61465826Y-21063628D02*
X61180112Y-21063628D01*
X61180112Y-21063628D02*
X61037255Y-20992200D01*
X61037255Y-20992200D02*
X60965826Y-20920771D01*
X60965826Y-20920771D02*
X60894398Y-20777914D01*
X60894398Y-20777914D02*
X60894398Y-20349342D01*
X60894398Y-20349342D02*
X60965826Y-20206485D01*
X60965826Y-20206485D02*
X61037255Y-20135057D01*
X61037255Y-20135057D02*
X61180112Y-20063628D01*
X61180112Y-20063628D02*
X61465826Y-20063628D01*
X61465826Y-20063628D02*
X61608684Y-20135057D01*
X62037255Y-20063628D02*
X62608683Y-20063628D01*
X62251540Y-19563628D02*
X62251540Y-20849342D01*
X62251540Y-20849342D02*
X62322969Y-20992200D01*
X62322969Y-20992200D02*
X62465826Y-21063628D01*
X62465826Y-21063628D02*
X62608683Y-21063628D01*
X63322969Y-21063628D02*
X63180112Y-20992200D01*
X63180112Y-20992200D02*
X63108683Y-20920771D01*
X63108683Y-20920771D02*
X63037255Y-20777914D01*
X63037255Y-20777914D02*
X63037255Y-20349342D01*
X63037255Y-20349342D02*
X63108683Y-20206485D01*
X63108683Y-20206485D02*
X63180112Y-20135057D01*
X63180112Y-20135057D02*
X63322969Y-20063628D01*
X63322969Y-20063628D02*
X63537255Y-20063628D01*
X63537255Y-20063628D02*
X63680112Y-20135057D01*
X63680112Y-20135057D02*
X63751541Y-20206485D01*
X63751541Y-20206485D02*
X63822969Y-20349342D01*
X63822969Y-20349342D02*
X63822969Y-20777914D01*
X63822969Y-20777914D02*
X63751541Y-20920771D01*
X63751541Y-20920771D02*
X63680112Y-20992200D01*
X63680112Y-20992200D02*
X63537255Y-21063628D01*
X63537255Y-21063628D02*
X63322969Y-21063628D01*
X64465826Y-21063628D02*
X64465826Y-20063628D01*
X64465826Y-20349342D02*
X64537255Y-20206485D01*
X64537255Y-20206485D02*
X64608684Y-20135057D01*
X64608684Y-20135057D02*
X64751541Y-20063628D01*
X64751541Y-20063628D02*
X64894398Y-20063628D01*
X67180112Y-21063628D02*
X67180112Y-20277914D01*
X67180112Y-20277914D02*
X67108683Y-20135057D01*
X67108683Y-20135057D02*
X66965826Y-20063628D01*
X66965826Y-20063628D02*
X66680112Y-20063628D01*
X66680112Y-20063628D02*
X66537254Y-20135057D01*
X67180112Y-20992200D02*
X67037254Y-21063628D01*
X67037254Y-21063628D02*
X66680112Y-21063628D01*
X66680112Y-21063628D02*
X66537254Y-20992200D01*
X66537254Y-20992200D02*
X66465826Y-20849342D01*
X66465826Y-20849342D02*
X66465826Y-20706485D01*
X66465826Y-20706485D02*
X66537254Y-20563628D01*
X66537254Y-20563628D02*
X66680112Y-20492200D01*
X66680112Y-20492200D02*
X67037254Y-20492200D01*
X67037254Y-20492200D02*
X67180112Y-20420771D01*
X67894397Y-20063628D02*
X67894397Y-21063628D01*
X67894397Y-20206485D02*
X67965826Y-20135057D01*
X67965826Y-20135057D02*
X68108683Y-20063628D01*
X68108683Y-20063628D02*
X68322969Y-20063628D01*
X68322969Y-20063628D02*
X68465826Y-20135057D01*
X68465826Y-20135057D02*
X68537255Y-20277914D01*
X68537255Y-20277914D02*
X68537255Y-21063628D01*
X69894398Y-21063628D02*
X69894398Y-19563628D01*
X69894398Y-20992200D02*
X69751540Y-21063628D01*
X69751540Y-21063628D02*
X69465826Y-21063628D01*
X69465826Y-21063628D02*
X69322969Y-20992200D01*
X69322969Y-20992200D02*
X69251540Y-20920771D01*
X69251540Y-20920771D02*
X69180112Y-20777914D01*
X69180112Y-20777914D02*
X69180112Y-20349342D01*
X69180112Y-20349342D02*
X69251540Y-20206485D01*
X69251540Y-20206485D02*
X69322969Y-20135057D01*
X69322969Y-20135057D02*
X69465826Y-20063628D01*
X69465826Y-20063628D02*
X69751540Y-20063628D01*
X69751540Y-20063628D02*
X69894398Y-20135057D01*
X71751540Y-21063628D02*
X71751540Y-19563628D01*
X71751540Y-19563628D02*
X72322969Y-19563628D01*
X72322969Y-19563628D02*
X72465826Y-19635057D01*
X72465826Y-19635057D02*
X72537255Y-19706485D01*
X72537255Y-19706485D02*
X72608683Y-19849342D01*
X72608683Y-19849342D02*
X72608683Y-20063628D01*
X72608683Y-20063628D02*
X72537255Y-20206485D01*
X72537255Y-20206485D02*
X72465826Y-20277914D01*
X72465826Y-20277914D02*
X72322969Y-20349342D01*
X72322969Y-20349342D02*
X71751540Y-20349342D01*
X74108683Y-21063628D02*
X73608683Y-20349342D01*
X73251540Y-21063628D02*
X73251540Y-19563628D01*
X73251540Y-19563628D02*
X73822969Y-19563628D01*
X73822969Y-19563628D02*
X73965826Y-19635057D01*
X73965826Y-19635057D02*
X74037255Y-19706485D01*
X74037255Y-19706485D02*
X74108683Y-19849342D01*
X74108683Y-19849342D02*
X74108683Y-20063628D01*
X74108683Y-20063628D02*
X74037255Y-20206485D01*
X74037255Y-20206485D02*
X73965826Y-20277914D01*
X73965826Y-20277914D02*
X73822969Y-20349342D01*
X73822969Y-20349342D02*
X73251540Y-20349342D01*
X75608683Y-20920771D02*
X75537255Y-20992200D01*
X75537255Y-20992200D02*
X75322969Y-21063628D01*
X75322969Y-21063628D02*
X75180112Y-21063628D01*
X75180112Y-21063628D02*
X74965826Y-20992200D01*
X74965826Y-20992200D02*
X74822969Y-20849342D01*
X74822969Y-20849342D02*
X74751540Y-20706485D01*
X74751540Y-20706485D02*
X74680112Y-20420771D01*
X74680112Y-20420771D02*
X74680112Y-20206485D01*
X74680112Y-20206485D02*
X74751540Y-19920771D01*
X74751540Y-19920771D02*
X74822969Y-19777914D01*
X74822969Y-19777914D02*
X74965826Y-19635057D01*
X74965826Y-19635057D02*
X75180112Y-19563628D01*
X75180112Y-19563628D02*
X75322969Y-19563628D01*
X75322969Y-19563628D02*
X75537255Y-19635057D01*
X75537255Y-19635057D02*
X75608683Y-19706485D01*
X76251540Y-21063628D02*
X76251540Y-19563628D01*
X76251540Y-20277914D02*
X77108683Y-20277914D01*
X77108683Y-21063628D02*
X77108683Y-19563628D01*
X78680112Y-21063628D02*
X78180112Y-20349342D01*
X77822969Y-21063628D02*
X77822969Y-19563628D01*
X77822969Y-19563628D02*
X78394398Y-19563628D01*
X78394398Y-19563628D02*
X78537255Y-19635057D01*
X78537255Y-19635057D02*
X78608684Y-19706485D01*
X78608684Y-19706485D02*
X78680112Y-19849342D01*
X78680112Y-19849342D02*
X78680112Y-20063628D01*
X78680112Y-20063628D02*
X78608684Y-20206485D01*
X78608684Y-20206485D02*
X78537255Y-20277914D01*
X78537255Y-20277914D02*
X78394398Y-20349342D01*
X78394398Y-20349342D02*
X77822969Y-20349342D01*
X80108684Y-19635057D02*
X79965827Y-19563628D01*
X79965827Y-19563628D02*
X79751541Y-19563628D01*
X79751541Y-19563628D02*
X79537255Y-19635057D01*
X79537255Y-19635057D02*
X79394398Y-19777914D01*
X79394398Y-19777914D02*
X79322969Y-19920771D01*
X79322969Y-19920771D02*
X79251541Y-20206485D01*
X79251541Y-20206485D02*
X79251541Y-20420771D01*
X79251541Y-20420771D02*
X79322969Y-20706485D01*
X79322969Y-20706485D02*
X79394398Y-20849342D01*
X79394398Y-20849342D02*
X79537255Y-20992200D01*
X79537255Y-20992200D02*
X79751541Y-21063628D01*
X79751541Y-21063628D02*
X79894398Y-21063628D01*
X79894398Y-21063628D02*
X80108684Y-20992200D01*
X80108684Y-20992200D02*
X80180112Y-20920771D01*
X80180112Y-20920771D02*
X80180112Y-20420771D01*
X80180112Y-20420771D02*
X79894398Y-20420771D01*
X13751541Y-22478628D02*
X14322969Y-22478628D01*
X13965826Y-21978628D02*
X13965826Y-23264342D01*
X13965826Y-23264342D02*
X14037255Y-23407200D01*
X14037255Y-23407200D02*
X14180112Y-23478628D01*
X14180112Y-23478628D02*
X14322969Y-23478628D01*
X15394398Y-23407200D02*
X15251541Y-23478628D01*
X15251541Y-23478628D02*
X14965827Y-23478628D01*
X14965827Y-23478628D02*
X14822969Y-23407200D01*
X14822969Y-23407200D02*
X14751541Y-23264342D01*
X14751541Y-23264342D02*
X14751541Y-22692914D01*
X14751541Y-22692914D02*
X14822969Y-22550057D01*
X14822969Y-22550057D02*
X14965827Y-22478628D01*
X14965827Y-22478628D02*
X15251541Y-22478628D01*
X15251541Y-22478628D02*
X15394398Y-22550057D01*
X15394398Y-22550057D02*
X15465827Y-22692914D01*
X15465827Y-22692914D02*
X15465827Y-22835771D01*
X15465827Y-22835771D02*
X14751541Y-22978628D01*
X16037255Y-23407200D02*
X16180112Y-23478628D01*
X16180112Y-23478628D02*
X16465826Y-23478628D01*
X16465826Y-23478628D02*
X16608683Y-23407200D01*
X16608683Y-23407200D02*
X16680112Y-23264342D01*
X16680112Y-23264342D02*
X16680112Y-23192914D01*
X16680112Y-23192914D02*
X16608683Y-23050057D01*
X16608683Y-23050057D02*
X16465826Y-22978628D01*
X16465826Y-22978628D02*
X16251541Y-22978628D01*
X16251541Y-22978628D02*
X16108683Y-22907200D01*
X16108683Y-22907200D02*
X16037255Y-22764342D01*
X16037255Y-22764342D02*
X16037255Y-22692914D01*
X16037255Y-22692914D02*
X16108683Y-22550057D01*
X16108683Y-22550057D02*
X16251541Y-22478628D01*
X16251541Y-22478628D02*
X16465826Y-22478628D01*
X16465826Y-22478628D02*
X16608683Y-22550057D01*
X17108684Y-22478628D02*
X17680112Y-22478628D01*
X17322969Y-21978628D02*
X17322969Y-23264342D01*
X17322969Y-23264342D02*
X17394398Y-23407200D01*
X17394398Y-23407200D02*
X17537255Y-23478628D01*
X17537255Y-23478628D02*
X17680112Y-23478628D01*
X19322969Y-22478628D02*
X19322969Y-23978628D01*
X19322969Y-22550057D02*
X19465827Y-22478628D01*
X19465827Y-22478628D02*
X19751541Y-22478628D01*
X19751541Y-22478628D02*
X19894398Y-22550057D01*
X19894398Y-22550057D02*
X19965827Y-22621485D01*
X19965827Y-22621485D02*
X20037255Y-22764342D01*
X20037255Y-22764342D02*
X20037255Y-23192914D01*
X20037255Y-23192914D02*
X19965827Y-23335771D01*
X19965827Y-23335771D02*
X19894398Y-23407200D01*
X19894398Y-23407200D02*
X19751541Y-23478628D01*
X19751541Y-23478628D02*
X19465827Y-23478628D01*
X19465827Y-23478628D02*
X19322969Y-23407200D01*
X20894398Y-23478628D02*
X20751541Y-23407200D01*
X20751541Y-23407200D02*
X20680112Y-23335771D01*
X20680112Y-23335771D02*
X20608684Y-23192914D01*
X20608684Y-23192914D02*
X20608684Y-22764342D01*
X20608684Y-22764342D02*
X20680112Y-22621485D01*
X20680112Y-22621485D02*
X20751541Y-22550057D01*
X20751541Y-22550057D02*
X20894398Y-22478628D01*
X20894398Y-22478628D02*
X21108684Y-22478628D01*
X21108684Y-22478628D02*
X21251541Y-22550057D01*
X21251541Y-22550057D02*
X21322970Y-22621485D01*
X21322970Y-22621485D02*
X21394398Y-22764342D01*
X21394398Y-22764342D02*
X21394398Y-23192914D01*
X21394398Y-23192914D02*
X21322970Y-23335771D01*
X21322970Y-23335771D02*
X21251541Y-23407200D01*
X21251541Y-23407200D02*
X21108684Y-23478628D01*
X21108684Y-23478628D02*
X20894398Y-23478628D01*
X22037255Y-23478628D02*
X22037255Y-22478628D01*
X22037255Y-21978628D02*
X21965827Y-22050057D01*
X21965827Y-22050057D02*
X22037255Y-22121485D01*
X22037255Y-22121485D02*
X22108684Y-22050057D01*
X22108684Y-22050057D02*
X22037255Y-21978628D01*
X22037255Y-21978628D02*
X22037255Y-22121485D01*
X22751541Y-22478628D02*
X22751541Y-23478628D01*
X22751541Y-22621485D02*
X22822970Y-22550057D01*
X22822970Y-22550057D02*
X22965827Y-22478628D01*
X22965827Y-22478628D02*
X23180113Y-22478628D01*
X23180113Y-22478628D02*
X23322970Y-22550057D01*
X23322970Y-22550057D02*
X23394399Y-22692914D01*
X23394399Y-22692914D02*
X23394399Y-23478628D01*
X23894399Y-22478628D02*
X24465827Y-22478628D01*
X24108684Y-21978628D02*
X24108684Y-23264342D01*
X24108684Y-23264342D02*
X24180113Y-23407200D01*
X24180113Y-23407200D02*
X24322970Y-23478628D01*
X24322970Y-23478628D02*
X24465827Y-23478628D01*
X24894399Y-23407200D02*
X25037256Y-23478628D01*
X25037256Y-23478628D02*
X25322970Y-23478628D01*
X25322970Y-23478628D02*
X25465827Y-23407200D01*
X25465827Y-23407200D02*
X25537256Y-23264342D01*
X25537256Y-23264342D02*
X25537256Y-23192914D01*
X25537256Y-23192914D02*
X25465827Y-23050057D01*
X25465827Y-23050057D02*
X25322970Y-22978628D01*
X25322970Y-22978628D02*
X25108685Y-22978628D01*
X25108685Y-22978628D02*
X24965827Y-22907200D01*
X24965827Y-22907200D02*
X24894399Y-22764342D01*
X24894399Y-22764342D02*
X24894399Y-22692914D01*
X24894399Y-22692914D02*
X24965827Y-22550057D01*
X24965827Y-22550057D02*
X25108685Y-22478628D01*
X25108685Y-22478628D02*
X25322970Y-22478628D01*
X25322970Y-22478628D02*
X25465827Y-22550057D01*
X217761905Y-85931009D02*
X218095238Y-85931009D01*
X218238095Y-86454819D02*
X217761905Y-86454819D01*
X217761905Y-86454819D02*
X217761905Y-85454819D01*
X217761905Y-85454819D02*
X218238095Y-85454819D01*
X218666667Y-86454819D02*
X218666667Y-85454819D01*
X218666667Y-85454819D02*
X219238095Y-86454819D01*
X219238095Y-86454819D02*
X219238095Y-85454819D01*
X170071427Y-116149819D02*
X170071427Y-115149819D01*
X170071427Y-115149819D02*
X170452379Y-115149819D01*
X170452379Y-115149819D02*
X170547617Y-115197438D01*
X170547617Y-115197438D02*
X170595236Y-115245057D01*
X170595236Y-115245057D02*
X170642855Y-115340295D01*
X170642855Y-115340295D02*
X170642855Y-115483152D01*
X170642855Y-115483152D02*
X170595236Y-115578390D01*
X170595236Y-115578390D02*
X170547617Y-115626009D01*
X170547617Y-115626009D02*
X170452379Y-115673628D01*
X170452379Y-115673628D02*
X170071427Y-115673628D01*
X171071427Y-116149819D02*
X171071427Y-115483152D01*
X171071427Y-115673628D02*
X171119046Y-115578390D01*
X171119046Y-115578390D02*
X171166665Y-115530771D01*
X171166665Y-115530771D02*
X171261903Y-115483152D01*
X171261903Y-115483152D02*
X171357141Y-115483152D01*
X172071427Y-116102200D02*
X171976189Y-116149819D01*
X171976189Y-116149819D02*
X171785713Y-116149819D01*
X171785713Y-116149819D02*
X171690475Y-116102200D01*
X171690475Y-116102200D02*
X171642856Y-116006961D01*
X171642856Y-116006961D02*
X171642856Y-115626009D01*
X171642856Y-115626009D02*
X171690475Y-115530771D01*
X171690475Y-115530771D02*
X171785713Y-115483152D01*
X171785713Y-115483152D02*
X171976189Y-115483152D01*
X171976189Y-115483152D02*
X172071427Y-115530771D01*
X172071427Y-115530771D02*
X172119046Y-115626009D01*
X172119046Y-115626009D02*
X172119046Y-115721247D01*
X172119046Y-115721247D02*
X171642856Y-115816485D01*
X172976189Y-116102200D02*
X172880951Y-116149819D01*
X172880951Y-116149819D02*
X172690475Y-116149819D01*
X172690475Y-116149819D02*
X172595237Y-116102200D01*
X172595237Y-116102200D02*
X172547618Y-116054580D01*
X172547618Y-116054580D02*
X172499999Y-115959342D01*
X172499999Y-115959342D02*
X172499999Y-115673628D01*
X172499999Y-115673628D02*
X172547618Y-115578390D01*
X172547618Y-115578390D02*
X172595237Y-115530771D01*
X172595237Y-115530771D02*
X172690475Y-115483152D01*
X172690475Y-115483152D02*
X172880951Y-115483152D01*
X172880951Y-115483152D02*
X172976189Y-115530771D01*
X173404761Y-116149819D02*
X173404761Y-115149819D01*
X173833332Y-116149819D02*
X173833332Y-115626009D01*
X173833332Y-115626009D02*
X173785713Y-115530771D01*
X173785713Y-115530771D02*
X173690475Y-115483152D01*
X173690475Y-115483152D02*
X173547618Y-115483152D01*
X173547618Y-115483152D02*
X173452380Y-115530771D01*
X173452380Y-115530771D02*
X173404761Y-115578390D01*
X174738094Y-116149819D02*
X174738094Y-115626009D01*
X174738094Y-115626009D02*
X174690475Y-115530771D01*
X174690475Y-115530771D02*
X174595237Y-115483152D01*
X174595237Y-115483152D02*
X174404761Y-115483152D01*
X174404761Y-115483152D02*
X174309523Y-115530771D01*
X174738094Y-116102200D02*
X174642856Y-116149819D01*
X174642856Y-116149819D02*
X174404761Y-116149819D01*
X174404761Y-116149819D02*
X174309523Y-116102200D01*
X174309523Y-116102200D02*
X174261904Y-116006961D01*
X174261904Y-116006961D02*
X174261904Y-115911723D01*
X174261904Y-115911723D02*
X174309523Y-115816485D01*
X174309523Y-115816485D02*
X174404761Y-115768866D01*
X174404761Y-115768866D02*
X174642856Y-115768866D01*
X174642856Y-115768866D02*
X174738094Y-115721247D01*
X175214285Y-116149819D02*
X175214285Y-115483152D01*
X175214285Y-115673628D02*
X175261904Y-115578390D01*
X175261904Y-115578390D02*
X175309523Y-115530771D01*
X175309523Y-115530771D02*
X175404761Y-115483152D01*
X175404761Y-115483152D02*
X175499999Y-115483152D01*
X176261904Y-115483152D02*
X176261904Y-116292676D01*
X176261904Y-116292676D02*
X176214285Y-116387914D01*
X176214285Y-116387914D02*
X176166666Y-116435533D01*
X176166666Y-116435533D02*
X176071428Y-116483152D01*
X176071428Y-116483152D02*
X175928571Y-116483152D01*
X175928571Y-116483152D02*
X175833333Y-116435533D01*
X176261904Y-116102200D02*
X176166666Y-116149819D01*
X176166666Y-116149819D02*
X175976190Y-116149819D01*
X175976190Y-116149819D02*
X175880952Y-116102200D01*
X175880952Y-116102200D02*
X175833333Y-116054580D01*
X175833333Y-116054580D02*
X175785714Y-115959342D01*
X175785714Y-115959342D02*
X175785714Y-115673628D01*
X175785714Y-115673628D02*
X175833333Y-115578390D01*
X175833333Y-115578390D02*
X175880952Y-115530771D01*
X175880952Y-115530771D02*
X175976190Y-115483152D01*
X175976190Y-115483152D02*
X176166666Y-115483152D01*
X176166666Y-115483152D02*
X176261904Y-115530771D01*
X177119047Y-116102200D02*
X177023809Y-116149819D01*
X177023809Y-116149819D02*
X176833333Y-116149819D01*
X176833333Y-116149819D02*
X176738095Y-116102200D01*
X176738095Y-116102200D02*
X176690476Y-116006961D01*
X176690476Y-116006961D02*
X176690476Y-115626009D01*
X176690476Y-115626009D02*
X176738095Y-115530771D01*
X176738095Y-115530771D02*
X176833333Y-115483152D01*
X176833333Y-115483152D02*
X177023809Y-115483152D01*
X177023809Y-115483152D02*
X177119047Y-115530771D01*
X177119047Y-115530771D02*
X177166666Y-115626009D01*
X177166666Y-115626009D02*
X177166666Y-115721247D01*
X177166666Y-115721247D02*
X176690476Y-115816485D01*
X178928571Y-116149819D02*
X178595238Y-115673628D01*
X178357143Y-116149819D02*
X178357143Y-115149819D01*
X178357143Y-115149819D02*
X178738095Y-115149819D01*
X178738095Y-115149819D02*
X178833333Y-115197438D01*
X178833333Y-115197438D02*
X178880952Y-115245057D01*
X178880952Y-115245057D02*
X178928571Y-115340295D01*
X178928571Y-115340295D02*
X178928571Y-115483152D01*
X178928571Y-115483152D02*
X178880952Y-115578390D01*
X178880952Y-115578390D02*
X178833333Y-115626009D01*
X178833333Y-115626009D02*
X178738095Y-115673628D01*
X178738095Y-115673628D02*
X178357143Y-115673628D01*
X179738095Y-116102200D02*
X179642857Y-116149819D01*
X179642857Y-116149819D02*
X179452381Y-116149819D01*
X179452381Y-116149819D02*
X179357143Y-116102200D01*
X179357143Y-116102200D02*
X179309524Y-116006961D01*
X179309524Y-116006961D02*
X179309524Y-115626009D01*
X179309524Y-115626009D02*
X179357143Y-115530771D01*
X179357143Y-115530771D02*
X179452381Y-115483152D01*
X179452381Y-115483152D02*
X179642857Y-115483152D01*
X179642857Y-115483152D02*
X179738095Y-115530771D01*
X179738095Y-115530771D02*
X179785714Y-115626009D01*
X179785714Y-115626009D02*
X179785714Y-115721247D01*
X179785714Y-115721247D02*
X179309524Y-115816485D01*
X180166667Y-116102200D02*
X180261905Y-116149819D01*
X180261905Y-116149819D02*
X180452381Y-116149819D01*
X180452381Y-116149819D02*
X180547619Y-116102200D01*
X180547619Y-116102200D02*
X180595238Y-116006961D01*
X180595238Y-116006961D02*
X180595238Y-115959342D01*
X180595238Y-115959342D02*
X180547619Y-115864104D01*
X180547619Y-115864104D02*
X180452381Y-115816485D01*
X180452381Y-115816485D02*
X180309524Y-115816485D01*
X180309524Y-115816485D02*
X180214286Y-115768866D01*
X180214286Y-115768866D02*
X180166667Y-115673628D01*
X180166667Y-115673628D02*
X180166667Y-115626009D01*
X180166667Y-115626009D02*
X180214286Y-115530771D01*
X180214286Y-115530771D02*
X180309524Y-115483152D01*
X180309524Y-115483152D02*
X180452381Y-115483152D01*
X180452381Y-115483152D02*
X180547619Y-115530771D01*
X181023810Y-116149819D02*
X181023810Y-115483152D01*
X181023810Y-115149819D02*
X180976191Y-115197438D01*
X180976191Y-115197438D02*
X181023810Y-115245057D01*
X181023810Y-115245057D02*
X181071429Y-115197438D01*
X181071429Y-115197438D02*
X181023810Y-115149819D01*
X181023810Y-115149819D02*
X181023810Y-115245057D01*
X181452381Y-116102200D02*
X181547619Y-116149819D01*
X181547619Y-116149819D02*
X181738095Y-116149819D01*
X181738095Y-116149819D02*
X181833333Y-116102200D01*
X181833333Y-116102200D02*
X181880952Y-116006961D01*
X181880952Y-116006961D02*
X181880952Y-115959342D01*
X181880952Y-115959342D02*
X181833333Y-115864104D01*
X181833333Y-115864104D02*
X181738095Y-115816485D01*
X181738095Y-115816485D02*
X181595238Y-115816485D01*
X181595238Y-115816485D02*
X181500000Y-115768866D01*
X181500000Y-115768866D02*
X181452381Y-115673628D01*
X181452381Y-115673628D02*
X181452381Y-115626009D01*
X181452381Y-115626009D02*
X181500000Y-115530771D01*
X181500000Y-115530771D02*
X181595238Y-115483152D01*
X181595238Y-115483152D02*
X181738095Y-115483152D01*
X181738095Y-115483152D02*
X181833333Y-115530771D01*
X182166667Y-115483152D02*
X182547619Y-115483152D01*
X182309524Y-115149819D02*
X182309524Y-116006961D01*
X182309524Y-116006961D02*
X182357143Y-116102200D01*
X182357143Y-116102200D02*
X182452381Y-116149819D01*
X182452381Y-116149819D02*
X182547619Y-116149819D01*
X183023810Y-116149819D02*
X182928572Y-116102200D01*
X182928572Y-116102200D02*
X182880953Y-116054580D01*
X182880953Y-116054580D02*
X182833334Y-115959342D01*
X182833334Y-115959342D02*
X182833334Y-115673628D01*
X182833334Y-115673628D02*
X182880953Y-115578390D01*
X182880953Y-115578390D02*
X182928572Y-115530771D01*
X182928572Y-115530771D02*
X183023810Y-115483152D01*
X183023810Y-115483152D02*
X183166667Y-115483152D01*
X183166667Y-115483152D02*
X183261905Y-115530771D01*
X183261905Y-115530771D02*
X183309524Y-115578390D01*
X183309524Y-115578390D02*
X183357143Y-115673628D01*
X183357143Y-115673628D02*
X183357143Y-115959342D01*
X183357143Y-115959342D02*
X183309524Y-116054580D01*
X183309524Y-116054580D02*
X183261905Y-116102200D01*
X183261905Y-116102200D02*
X183166667Y-116149819D01*
X183166667Y-116149819D02*
X183023810Y-116149819D01*
X183785715Y-116149819D02*
X183785715Y-115483152D01*
X183785715Y-115673628D02*
X183833334Y-115578390D01*
X183833334Y-115578390D02*
X183880953Y-115530771D01*
X183880953Y-115530771D02*
X183976191Y-115483152D01*
X183976191Y-115483152D02*
X184071429Y-115483152D01*
X176000000Y-117759819D02*
X176000000Y-116759819D01*
X176476190Y-117759819D02*
X176476190Y-116759819D01*
X176476190Y-116759819D02*
X177047618Y-117759819D01*
X177047618Y-117759819D02*
X177047618Y-116759819D01*
X178047618Y-117759819D02*
X177476190Y-117759819D01*
X177761904Y-117759819D02*
X177761904Y-116759819D01*
X177761904Y-116759819D02*
X177666666Y-116902676D01*
X177666666Y-116902676D02*
X177571428Y-116997914D01*
X177571428Y-116997914D02*
X177476190Y-117045533D01*
D13*
X169095238Y-123882333D02*
X172904762Y-123882333D01*
X171000000Y-125787095D02*
X171000000Y-121977571D01*
D12*
X217380952Y-83454819D02*
X216809524Y-83454819D01*
X217095238Y-83454819D02*
X217095238Y-82454819D01*
X217095238Y-82454819D02*
X217000000Y-82597676D01*
X217000000Y-82597676D02*
X216904762Y-82692914D01*
X216904762Y-82692914D02*
X216809524Y-82740533D01*
X217761905Y-82550057D02*
X217809524Y-82502438D01*
X217809524Y-82502438D02*
X217904762Y-82454819D01*
X217904762Y-82454819D02*
X218142857Y-82454819D01*
X218142857Y-82454819D02*
X218238095Y-82502438D01*
X218238095Y-82502438D02*
X218285714Y-82550057D01*
X218285714Y-82550057D02*
X218333333Y-82645295D01*
X218333333Y-82645295D02*
X218333333Y-82740533D01*
X218333333Y-82740533D02*
X218285714Y-82883390D01*
X218285714Y-82883390D02*
X217714286Y-83454819D01*
X217714286Y-83454819D02*
X218333333Y-83454819D01*
X218619048Y-82454819D02*
X218952381Y-83454819D01*
X218952381Y-83454819D02*
X219285714Y-82454819D01*
X223023809Y-111454819D02*
X223023809Y-110454819D01*
X223023809Y-110454819D02*
X223404761Y-110454819D01*
X223404761Y-110454819D02*
X223499999Y-110502438D01*
X223499999Y-110502438D02*
X223547618Y-110550057D01*
X223547618Y-110550057D02*
X223595237Y-110645295D01*
X223595237Y-110645295D02*
X223595237Y-110788152D01*
X223595237Y-110788152D02*
X223547618Y-110883390D01*
X223547618Y-110883390D02*
X223499999Y-110931009D01*
X223499999Y-110931009D02*
X223404761Y-110978628D01*
X223404761Y-110978628D02*
X223023809Y-110978628D01*
X224166666Y-111454819D02*
X224071428Y-111407200D01*
X224071428Y-111407200D02*
X224023809Y-111359580D01*
X224023809Y-111359580D02*
X223976190Y-111264342D01*
X223976190Y-111264342D02*
X223976190Y-110978628D01*
X223976190Y-110978628D02*
X224023809Y-110883390D01*
X224023809Y-110883390D02*
X224071428Y-110835771D01*
X224071428Y-110835771D02*
X224166666Y-110788152D01*
X224166666Y-110788152D02*
X224309523Y-110788152D01*
X224309523Y-110788152D02*
X224404761Y-110835771D01*
X224404761Y-110835771D02*
X224452380Y-110883390D01*
X224452380Y-110883390D02*
X224499999Y-110978628D01*
X224499999Y-110978628D02*
X224499999Y-111264342D01*
X224499999Y-111264342D02*
X224452380Y-111359580D01*
X224452380Y-111359580D02*
X224404761Y-111407200D01*
X224404761Y-111407200D02*
X224309523Y-111454819D01*
X224309523Y-111454819D02*
X224166666Y-111454819D01*
X224833333Y-110788152D02*
X225023809Y-111454819D01*
X225023809Y-111454819D02*
X225214285Y-110978628D01*
X225214285Y-110978628D02*
X225404761Y-111454819D01*
X225404761Y-111454819D02*
X225595237Y-110788152D01*
X226357142Y-111407200D02*
X226261904Y-111454819D01*
X226261904Y-111454819D02*
X226071428Y-111454819D01*
X226071428Y-111454819D02*
X225976190Y-111407200D01*
X225976190Y-111407200D02*
X225928571Y-111311961D01*
X225928571Y-111311961D02*
X225928571Y-110931009D01*
X225928571Y-110931009D02*
X225976190Y-110835771D01*
X225976190Y-110835771D02*
X226071428Y-110788152D01*
X226071428Y-110788152D02*
X226261904Y-110788152D01*
X226261904Y-110788152D02*
X226357142Y-110835771D01*
X226357142Y-110835771D02*
X226404761Y-110931009D01*
X226404761Y-110931009D02*
X226404761Y-111026247D01*
X226404761Y-111026247D02*
X225928571Y-111121485D01*
X226833333Y-111454819D02*
X226833333Y-110788152D01*
X226833333Y-110978628D02*
X226880952Y-110883390D01*
X226880952Y-110883390D02*
X226928571Y-110835771D01*
X226928571Y-110835771D02*
X227023809Y-110788152D01*
X227023809Y-110788152D02*
X227119047Y-110788152D01*
X184738469Y-108745832D02*
X183738469Y-108745832D01*
X183738469Y-108745832D02*
X183738469Y-108364880D01*
X183738469Y-108364880D02*
X183786088Y-108269642D01*
X183786088Y-108269642D02*
X183833707Y-108222023D01*
X183833707Y-108222023D02*
X183928945Y-108174404D01*
X183928945Y-108174404D02*
X184071802Y-108174404D01*
X184071802Y-108174404D02*
X184167040Y-108222023D01*
X184167040Y-108222023D02*
X184214659Y-108269642D01*
X184214659Y-108269642D02*
X184262278Y-108364880D01*
X184262278Y-108364880D02*
X184262278Y-108745832D01*
X183738469Y-107841070D02*
X184738469Y-107602975D01*
X184738469Y-107602975D02*
X184024183Y-107412499D01*
X184024183Y-107412499D02*
X184738469Y-107222023D01*
X184738469Y-107222023D02*
X183738469Y-106983928D01*
X184738469Y-106031547D02*
X184262278Y-106364880D01*
X184738469Y-106602975D02*
X183738469Y-106602975D01*
X183738469Y-106602975D02*
X183738469Y-106222023D01*
X183738469Y-106222023D02*
X183786088Y-106126785D01*
X183786088Y-106126785D02*
X183833707Y-106079166D01*
X183833707Y-106079166D02*
X183928945Y-106031547D01*
X183928945Y-106031547D02*
X184071802Y-106031547D01*
X184071802Y-106031547D02*
X184167040Y-106079166D01*
X184167040Y-106079166D02*
X184214659Y-106126785D01*
X184214659Y-106126785D02*
X184262278Y-106222023D01*
X184262278Y-106222023D02*
X184262278Y-106602975D01*
X169761905Y-87169104D02*
X170238095Y-87169104D01*
X169666667Y-87454819D02*
X170000000Y-86454819D01*
X170000000Y-86454819D02*
X170333333Y-87454819D01*
X170666667Y-86454819D02*
X170666667Y-87264342D01*
X170666667Y-87264342D02*
X170714286Y-87359580D01*
X170714286Y-87359580D02*
X170761905Y-87407200D01*
X170761905Y-87407200D02*
X170857143Y-87454819D01*
X170857143Y-87454819D02*
X171047619Y-87454819D01*
X171047619Y-87454819D02*
X171142857Y-87407200D01*
X171142857Y-87407200D02*
X171190476Y-87359580D01*
X171190476Y-87359580D02*
X171238095Y-87264342D01*
X171238095Y-87264342D02*
X171238095Y-86454819D01*
X171619048Y-86454819D02*
X172285714Y-87454819D01*
X172285714Y-86454819D02*
X171619048Y-87454819D01*
X166190475Y-94859580D02*
X166142856Y-94907200D01*
X166142856Y-94907200D02*
X165999999Y-94954819D01*
X165999999Y-94954819D02*
X165904761Y-94954819D01*
X165904761Y-94954819D02*
X165761904Y-94907200D01*
X165761904Y-94907200D02*
X165666666Y-94811961D01*
X165666666Y-94811961D02*
X165619047Y-94716723D01*
X165619047Y-94716723D02*
X165571428Y-94526247D01*
X165571428Y-94526247D02*
X165571428Y-94383390D01*
X165571428Y-94383390D02*
X165619047Y-94192914D01*
X165619047Y-94192914D02*
X165666666Y-94097676D01*
X165666666Y-94097676D02*
X165761904Y-94002438D01*
X165761904Y-94002438D02*
X165904761Y-93954819D01*
X165904761Y-93954819D02*
X165999999Y-93954819D01*
X165999999Y-93954819D02*
X166142856Y-94002438D01*
X166142856Y-94002438D02*
X166190475Y-94050057D01*
X166761904Y-94954819D02*
X166666666Y-94907200D01*
X166666666Y-94907200D02*
X166619047Y-94859580D01*
X166619047Y-94859580D02*
X166571428Y-94764342D01*
X166571428Y-94764342D02*
X166571428Y-94478628D01*
X166571428Y-94478628D02*
X166619047Y-94383390D01*
X166619047Y-94383390D02*
X166666666Y-94335771D01*
X166666666Y-94335771D02*
X166761904Y-94288152D01*
X166761904Y-94288152D02*
X166904761Y-94288152D01*
X166904761Y-94288152D02*
X166999999Y-94335771D01*
X166999999Y-94335771D02*
X167047618Y-94383390D01*
X167047618Y-94383390D02*
X167095237Y-94478628D01*
X167095237Y-94478628D02*
X167095237Y-94764342D01*
X167095237Y-94764342D02*
X167047618Y-94859580D01*
X167047618Y-94859580D02*
X166999999Y-94907200D01*
X166999999Y-94907200D02*
X166904761Y-94954819D01*
X166904761Y-94954819D02*
X166761904Y-94954819D01*
X167523809Y-94288152D02*
X167523809Y-94954819D01*
X167523809Y-94383390D02*
X167571428Y-94335771D01*
X167571428Y-94335771D02*
X167666666Y-94288152D01*
X167666666Y-94288152D02*
X167809523Y-94288152D01*
X167809523Y-94288152D02*
X167904761Y-94335771D01*
X167904761Y-94335771D02*
X167952380Y-94431009D01*
X167952380Y-94431009D02*
X167952380Y-94954819D01*
X168285714Y-94288152D02*
X168666666Y-94288152D01*
X168428571Y-93954819D02*
X168428571Y-94811961D01*
X168428571Y-94811961D02*
X168476190Y-94907200D01*
X168476190Y-94907200D02*
X168571428Y-94954819D01*
X168571428Y-94954819D02*
X168666666Y-94954819D01*
X169428571Y-94954819D02*
X169428571Y-94431009D01*
X169428571Y-94431009D02*
X169380952Y-94335771D01*
X169380952Y-94335771D02*
X169285714Y-94288152D01*
X169285714Y-94288152D02*
X169095238Y-94288152D01*
X169095238Y-94288152D02*
X169000000Y-94335771D01*
X169428571Y-94907200D02*
X169333333Y-94954819D01*
X169333333Y-94954819D02*
X169095238Y-94954819D01*
X169095238Y-94954819D02*
X169000000Y-94907200D01*
X169000000Y-94907200D02*
X168952381Y-94811961D01*
X168952381Y-94811961D02*
X168952381Y-94716723D01*
X168952381Y-94716723D02*
X169000000Y-94621485D01*
X169000000Y-94621485D02*
X169095238Y-94573866D01*
X169095238Y-94573866D02*
X169333333Y-94573866D01*
X169333333Y-94573866D02*
X169428571Y-94526247D01*
X170333333Y-94907200D02*
X170238095Y-94954819D01*
X170238095Y-94954819D02*
X170047619Y-94954819D01*
X170047619Y-94954819D02*
X169952381Y-94907200D01*
X169952381Y-94907200D02*
X169904762Y-94859580D01*
X169904762Y-94859580D02*
X169857143Y-94764342D01*
X169857143Y-94764342D02*
X169857143Y-94478628D01*
X169857143Y-94478628D02*
X169904762Y-94383390D01*
X169904762Y-94383390D02*
X169952381Y-94335771D01*
X169952381Y-94335771D02*
X170047619Y-94288152D01*
X170047619Y-94288152D02*
X170238095Y-94288152D01*
X170238095Y-94288152D02*
X170333333Y-94335771D01*
X170619048Y-94288152D02*
X171000000Y-94288152D01*
X170761905Y-93954819D02*
X170761905Y-94811961D01*
X170761905Y-94811961D02*
X170809524Y-94907200D01*
X170809524Y-94907200D02*
X170904762Y-94954819D01*
X170904762Y-94954819D02*
X171000000Y-94954819D01*
X171476191Y-94954819D02*
X171380953Y-94907200D01*
X171380953Y-94907200D02*
X171333334Y-94859580D01*
X171333334Y-94859580D02*
X171285715Y-94764342D01*
X171285715Y-94764342D02*
X171285715Y-94478628D01*
X171285715Y-94478628D02*
X171333334Y-94383390D01*
X171333334Y-94383390D02*
X171380953Y-94335771D01*
X171380953Y-94335771D02*
X171476191Y-94288152D01*
X171476191Y-94288152D02*
X171619048Y-94288152D01*
X171619048Y-94288152D02*
X171714286Y-94335771D01*
X171714286Y-94335771D02*
X171761905Y-94383390D01*
X171761905Y-94383390D02*
X171809524Y-94478628D01*
X171809524Y-94478628D02*
X171809524Y-94764342D01*
X171809524Y-94764342D02*
X171761905Y-94859580D01*
X171761905Y-94859580D02*
X171714286Y-94907200D01*
X171714286Y-94907200D02*
X171619048Y-94954819D01*
X171619048Y-94954819D02*
X171476191Y-94954819D01*
X172238096Y-94954819D02*
X172238096Y-94288152D01*
X172238096Y-94478628D02*
X172285715Y-94383390D01*
X172285715Y-94383390D02*
X172333334Y-94335771D01*
X172333334Y-94335771D02*
X172428572Y-94288152D01*
X172428572Y-94288152D02*
X172523810Y-94288152D01*
X178859580Y-86904762D02*
X178907200Y-86952381D01*
X178907200Y-86952381D02*
X178954819Y-87095238D01*
X178954819Y-87095238D02*
X178954819Y-87190476D01*
X178954819Y-87190476D02*
X178907200Y-87333333D01*
X178907200Y-87333333D02*
X178811961Y-87428571D01*
X178811961Y-87428571D02*
X178716723Y-87476190D01*
X178716723Y-87476190D02*
X178526247Y-87523809D01*
X178526247Y-87523809D02*
X178383390Y-87523809D01*
X178383390Y-87523809D02*
X178192914Y-87476190D01*
X178192914Y-87476190D02*
X178097676Y-87428571D01*
X178097676Y-87428571D02*
X178002438Y-87333333D01*
X178002438Y-87333333D02*
X177954819Y-87190476D01*
X177954819Y-87190476D02*
X177954819Y-87095238D01*
X177954819Y-87095238D02*
X178002438Y-86952381D01*
X178002438Y-86952381D02*
X178050057Y-86904762D01*
X177954819Y-86285714D02*
X177954819Y-86095238D01*
X177954819Y-86095238D02*
X178002438Y-86000000D01*
X178002438Y-86000000D02*
X178097676Y-85904762D01*
X178097676Y-85904762D02*
X178288152Y-85857143D01*
X178288152Y-85857143D02*
X178621485Y-85857143D01*
X178621485Y-85857143D02*
X178811961Y-85904762D01*
X178811961Y-85904762D02*
X178907200Y-86000000D01*
X178907200Y-86000000D02*
X178954819Y-86095238D01*
X178954819Y-86095238D02*
X178954819Y-86285714D01*
X178954819Y-86285714D02*
X178907200Y-86380952D01*
X178907200Y-86380952D02*
X178811961Y-86476190D01*
X178811961Y-86476190D02*
X178621485Y-86523809D01*
X178621485Y-86523809D02*
X178288152Y-86523809D01*
X178288152Y-86523809D02*
X178097676Y-86476190D01*
X178097676Y-86476190D02*
X178002438Y-86380952D01*
X178002438Y-86380952D02*
X177954819Y-86285714D01*
X178954819Y-85428571D02*
X177954819Y-85428571D01*
X177954819Y-85428571D02*
X178954819Y-84857143D01*
X178954819Y-84857143D02*
X177954819Y-84857143D01*
X177954819Y-84523809D02*
X177954819Y-83952381D01*
X178954819Y-84238095D02*
X177954819Y-84238095D01*
X178669104Y-83666666D02*
X178669104Y-83190476D01*
X178954819Y-83761904D02*
X177954819Y-83428571D01*
X177954819Y-83428571D02*
X178954819Y-83095238D01*
X178859580Y-82190476D02*
X178907200Y-82238095D01*
X178907200Y-82238095D02*
X178954819Y-82380952D01*
X178954819Y-82380952D02*
X178954819Y-82476190D01*
X178954819Y-82476190D02*
X178907200Y-82619047D01*
X178907200Y-82619047D02*
X178811961Y-82714285D01*
X178811961Y-82714285D02*
X178716723Y-82761904D01*
X178716723Y-82761904D02*
X178526247Y-82809523D01*
X178526247Y-82809523D02*
X178383390Y-82809523D01*
X178383390Y-82809523D02*
X178192914Y-82761904D01*
X178192914Y-82761904D02*
X178097676Y-82714285D01*
X178097676Y-82714285D02*
X178002438Y-82619047D01*
X178002438Y-82619047D02*
X177954819Y-82476190D01*
X177954819Y-82476190D02*
X177954819Y-82380952D01*
X177954819Y-82380952D02*
X178002438Y-82238095D01*
X178002438Y-82238095D02*
X178050057Y-82190476D01*
X177954819Y-81904761D02*
X177954819Y-81333333D01*
X178954819Y-81619047D02*
X177954819Y-81619047D01*
X177954819Y-80809523D02*
X177954819Y-80619047D01*
X177954819Y-80619047D02*
X178002438Y-80523809D01*
X178002438Y-80523809D02*
X178097676Y-80428571D01*
X178097676Y-80428571D02*
X178288152Y-80380952D01*
X178288152Y-80380952D02*
X178621485Y-80380952D01*
X178621485Y-80380952D02*
X178811961Y-80428571D01*
X178811961Y-80428571D02*
X178907200Y-80523809D01*
X178907200Y-80523809D02*
X178954819Y-80619047D01*
X178954819Y-80619047D02*
X178954819Y-80809523D01*
X178954819Y-80809523D02*
X178907200Y-80904761D01*
X178907200Y-80904761D02*
X178811961Y-80999999D01*
X178811961Y-80999999D02*
X178621485Y-81047618D01*
X178621485Y-81047618D02*
X178288152Y-81047618D01*
X178288152Y-81047618D02*
X178097676Y-80999999D01*
X178097676Y-80999999D02*
X178002438Y-80904761D01*
X178002438Y-80904761D02*
X177954819Y-80809523D01*
X178954819Y-79380952D02*
X178478628Y-79714285D01*
X178954819Y-79952380D02*
X177954819Y-79952380D01*
X177954819Y-79952380D02*
X177954819Y-79571428D01*
X177954819Y-79571428D02*
X178002438Y-79476190D01*
X178002438Y-79476190D02*
X178050057Y-79428571D01*
X178050057Y-79428571D02*
X178145295Y-79380952D01*
X178145295Y-79380952D02*
X178288152Y-79380952D01*
X178288152Y-79380952D02*
X178383390Y-79428571D01*
X178383390Y-79428571D02*
X178431009Y-79476190D01*
X178431009Y-79476190D02*
X178478628Y-79571428D01*
X178478628Y-79571428D02*
X178478628Y-79952380D01*
X178954819Y-78190475D02*
X177954819Y-78190475D01*
X177954819Y-78190475D02*
X177954819Y-77809523D01*
X177954819Y-77809523D02*
X178002438Y-77714285D01*
X178002438Y-77714285D02*
X178050057Y-77666666D01*
X178050057Y-77666666D02*
X178145295Y-77619047D01*
X178145295Y-77619047D02*
X178288152Y-77619047D01*
X178288152Y-77619047D02*
X178383390Y-77666666D01*
X178383390Y-77666666D02*
X178431009Y-77714285D01*
X178431009Y-77714285D02*
X178478628Y-77809523D01*
X178478628Y-77809523D02*
X178478628Y-78190475D01*
X177954819Y-77285713D02*
X178954819Y-77047618D01*
X178954819Y-77047618D02*
X178240533Y-76857142D01*
X178240533Y-76857142D02*
X178954819Y-76666666D01*
X178954819Y-76666666D02*
X177954819Y-76428571D01*
X178954819Y-75476190D02*
X178478628Y-75809523D01*
X178954819Y-76047618D02*
X177954819Y-76047618D01*
X177954819Y-76047618D02*
X177954819Y-75666666D01*
X177954819Y-75666666D02*
X178002438Y-75571428D01*
X178002438Y-75571428D02*
X178050057Y-75523809D01*
X178050057Y-75523809D02*
X178145295Y-75476190D01*
X178145295Y-75476190D02*
X178288152Y-75476190D01*
X178288152Y-75476190D02*
X178383390Y-75523809D01*
X178383390Y-75523809D02*
X178431009Y-75571428D01*
X178431009Y-75571428D02*
X178478628Y-75666666D01*
X178478628Y-75666666D02*
X178478628Y-76047618D01*
X169619048Y-82573866D02*
X170380953Y-82573866D01*
D14*
X15375281Y-17107642D02*
X15232424Y-17250500D01*
X15232424Y-17250500D02*
X14803852Y-17393357D01*
X14803852Y-17393357D02*
X14518138Y-17393357D01*
X14518138Y-17393357D02*
X14089567Y-17250500D01*
X14089567Y-17250500D02*
X13803852Y-16964785D01*
X13803852Y-16964785D02*
X13660995Y-16679071D01*
X13660995Y-16679071D02*
X13518138Y-16107642D01*
X13518138Y-16107642D02*
X13518138Y-15679071D01*
X13518138Y-15679071D02*
X13660995Y-15107642D01*
X13660995Y-15107642D02*
X13803852Y-14821928D01*
X13803852Y-14821928D02*
X14089567Y-14536214D01*
X14089567Y-14536214D02*
X14518138Y-14393357D01*
X14518138Y-14393357D02*
X14803852Y-14393357D01*
X14803852Y-14393357D02*
X15232424Y-14536214D01*
X15232424Y-14536214D02*
X15375281Y-14679071D01*
X17089567Y-17393357D02*
X16803852Y-17250500D01*
X16803852Y-17250500D02*
X16660995Y-17107642D01*
X16660995Y-17107642D02*
X16518138Y-16821928D01*
X16518138Y-16821928D02*
X16518138Y-15964785D01*
X16518138Y-15964785D02*
X16660995Y-15679071D01*
X16660995Y-15679071D02*
X16803852Y-15536214D01*
X16803852Y-15536214D02*
X17089567Y-15393357D01*
X17089567Y-15393357D02*
X17518138Y-15393357D01*
X17518138Y-15393357D02*
X17803852Y-15536214D01*
X17803852Y-15536214D02*
X17946710Y-15679071D01*
X17946710Y-15679071D02*
X18089567Y-15964785D01*
X18089567Y-15964785D02*
X18089567Y-16821928D01*
X18089567Y-16821928D02*
X17946710Y-17107642D01*
X17946710Y-17107642D02*
X17803852Y-17250500D01*
X17803852Y-17250500D02*
X17518138Y-17393357D01*
X17518138Y-17393357D02*
X17089567Y-17393357D01*
X19375281Y-15393357D02*
X19375281Y-17393357D01*
X19375281Y-15679071D02*
X19518138Y-15536214D01*
X19518138Y-15536214D02*
X19803853Y-15393357D01*
X19803853Y-15393357D02*
X20232424Y-15393357D01*
X20232424Y-15393357D02*
X20518138Y-15536214D01*
X20518138Y-15536214D02*
X20660996Y-15821928D01*
X20660996Y-15821928D02*
X20660996Y-17393357D01*
X21660996Y-15393357D02*
X22803853Y-15393357D01*
X22089567Y-14393357D02*
X22089567Y-16964785D01*
X22089567Y-16964785D02*
X22232424Y-17250500D01*
X22232424Y-17250500D02*
X22518139Y-17393357D01*
X22518139Y-17393357D02*
X22803853Y-17393357D01*
X25089568Y-17393357D02*
X25089568Y-15821928D01*
X25089568Y-15821928D02*
X24946710Y-15536214D01*
X24946710Y-15536214D02*
X24660996Y-15393357D01*
X24660996Y-15393357D02*
X24089568Y-15393357D01*
X24089568Y-15393357D02*
X23803853Y-15536214D01*
X25089568Y-17250500D02*
X24803853Y-17393357D01*
X24803853Y-17393357D02*
X24089568Y-17393357D01*
X24089568Y-17393357D02*
X23803853Y-17250500D01*
X23803853Y-17250500D02*
X23660996Y-16964785D01*
X23660996Y-16964785D02*
X23660996Y-16679071D01*
X23660996Y-16679071D02*
X23803853Y-16393357D01*
X23803853Y-16393357D02*
X24089568Y-16250500D01*
X24089568Y-16250500D02*
X24803853Y-16250500D01*
X24803853Y-16250500D02*
X25089568Y-16107642D01*
X27803854Y-17250500D02*
X27518139Y-17393357D01*
X27518139Y-17393357D02*
X26946711Y-17393357D01*
X26946711Y-17393357D02*
X26660996Y-17250500D01*
X26660996Y-17250500D02*
X26518139Y-17107642D01*
X26518139Y-17107642D02*
X26375282Y-16821928D01*
X26375282Y-16821928D02*
X26375282Y-15964785D01*
X26375282Y-15964785D02*
X26518139Y-15679071D01*
X26518139Y-15679071D02*
X26660996Y-15536214D01*
X26660996Y-15536214D02*
X26946711Y-15393357D01*
X26946711Y-15393357D02*
X27518139Y-15393357D01*
X27518139Y-15393357D02*
X27803854Y-15536214D01*
X28660997Y-15393357D02*
X29803854Y-15393357D01*
X29089568Y-14393357D02*
X29089568Y-16964785D01*
X29089568Y-16964785D02*
X29232425Y-17250500D01*
X29232425Y-17250500D02*
X29518140Y-17393357D01*
X29518140Y-17393357D02*
X29803854Y-17393357D01*
X31232426Y-17393357D02*
X30946711Y-17250500D01*
X30946711Y-17250500D02*
X30803854Y-17107642D01*
X30803854Y-17107642D02*
X30660997Y-16821928D01*
X30660997Y-16821928D02*
X30660997Y-15964785D01*
X30660997Y-15964785D02*
X30803854Y-15679071D01*
X30803854Y-15679071D02*
X30946711Y-15536214D01*
X30946711Y-15536214D02*
X31232426Y-15393357D01*
X31232426Y-15393357D02*
X31660997Y-15393357D01*
X31660997Y-15393357D02*
X31946711Y-15536214D01*
X31946711Y-15536214D02*
X32089569Y-15679071D01*
X32089569Y-15679071D02*
X32232426Y-15964785D01*
X32232426Y-15964785D02*
X32232426Y-16821928D01*
X32232426Y-16821928D02*
X32089569Y-17107642D01*
X32089569Y-17107642D02*
X31946711Y-17250500D01*
X31946711Y-17250500D02*
X31660997Y-17393357D01*
X31660997Y-17393357D02*
X31232426Y-17393357D01*
X33518140Y-17393357D02*
X33518140Y-15393357D01*
X33518140Y-15964785D02*
X33660997Y-15679071D01*
X33660997Y-15679071D02*
X33803855Y-15536214D01*
X33803855Y-15536214D02*
X34089569Y-15393357D01*
X34089569Y-15393357D02*
X34375283Y-15393357D01*
X37660997Y-17393357D02*
X37660997Y-14393357D01*
X37660997Y-14393357D02*
X38375283Y-14393357D01*
X38375283Y-14393357D02*
X38803854Y-14536214D01*
X38803854Y-14536214D02*
X39089569Y-14821928D01*
X39089569Y-14821928D02*
X39232426Y-15107642D01*
X39232426Y-15107642D02*
X39375283Y-15679071D01*
X39375283Y-15679071D02*
X39375283Y-16107642D01*
X39375283Y-16107642D02*
X39232426Y-16679071D01*
X39232426Y-16679071D02*
X39089569Y-16964785D01*
X39089569Y-16964785D02*
X38803854Y-17250500D01*
X38803854Y-17250500D02*
X38375283Y-17393357D01*
X38375283Y-17393357D02*
X37660997Y-17393357D01*
X40660997Y-17393357D02*
X40660997Y-15393357D01*
X40660997Y-15964785D02*
X40803854Y-15679071D01*
X40803854Y-15679071D02*
X40946712Y-15536214D01*
X40946712Y-15536214D02*
X41232426Y-15393357D01*
X41232426Y-15393357D02*
X41518140Y-15393357D01*
X42518140Y-17393357D02*
X42518140Y-15393357D01*
X42518140Y-14393357D02*
X42375283Y-14536214D01*
X42375283Y-14536214D02*
X42518140Y-14679071D01*
X42518140Y-14679071D02*
X42660997Y-14536214D01*
X42660997Y-14536214D02*
X42518140Y-14393357D01*
X42518140Y-14393357D02*
X42518140Y-14679071D01*
X43660997Y-15393357D02*
X44375283Y-17393357D01*
X44375283Y-17393357D02*
X45089568Y-15393357D01*
X47375282Y-17250500D02*
X47089568Y-17393357D01*
X47089568Y-17393357D02*
X46518140Y-17393357D01*
X46518140Y-17393357D02*
X46232425Y-17250500D01*
X46232425Y-17250500D02*
X46089568Y-16964785D01*
X46089568Y-16964785D02*
X46089568Y-15821928D01*
X46089568Y-15821928D02*
X46232425Y-15536214D01*
X46232425Y-15536214D02*
X46518140Y-15393357D01*
X46518140Y-15393357D02*
X47089568Y-15393357D01*
X47089568Y-15393357D02*
X47375282Y-15536214D01*
X47375282Y-15536214D02*
X47518140Y-15821928D01*
X47518140Y-15821928D02*
X47518140Y-16107642D01*
X47518140Y-16107642D02*
X46089568Y-16393357D01*
X48803854Y-17393357D02*
X48803854Y-15393357D01*
X48803854Y-15964785D02*
X48946711Y-15679071D01*
X48946711Y-15679071D02*
X49089569Y-15536214D01*
X49089569Y-15536214D02*
X49375283Y-15393357D01*
X49375283Y-15393357D02*
X49660997Y-15393357D01*
X52518140Y-14393357D02*
X53518140Y-17393357D01*
X53518140Y-17393357D02*
X54518140Y-14393357D01*
X56660997Y-17250500D02*
X56375283Y-17393357D01*
X56375283Y-17393357D02*
X55803855Y-17393357D01*
X55803855Y-17393357D02*
X55518140Y-17250500D01*
X55518140Y-17250500D02*
X55375283Y-16964785D01*
X55375283Y-16964785D02*
X55375283Y-15821928D01*
X55375283Y-15821928D02*
X55518140Y-15536214D01*
X55518140Y-15536214D02*
X55803855Y-15393357D01*
X55803855Y-15393357D02*
X56375283Y-15393357D01*
X56375283Y-15393357D02*
X56660997Y-15536214D01*
X56660997Y-15536214D02*
X56803855Y-15821928D01*
X56803855Y-15821928D02*
X56803855Y-16107642D01*
X56803855Y-16107642D02*
X55375283Y-16393357D01*
X58089569Y-17393357D02*
X58089569Y-15393357D01*
X58089569Y-15964785D02*
X58232426Y-15679071D01*
X58232426Y-15679071D02*
X58375284Y-15536214D01*
X58375284Y-15536214D02*
X58660998Y-15393357D01*
X58660998Y-15393357D02*
X58946712Y-15393357D01*
X59803855Y-17250500D02*
X60089569Y-17393357D01*
X60089569Y-17393357D02*
X60660998Y-17393357D01*
X60660998Y-17393357D02*
X60946712Y-17250500D01*
X60946712Y-17250500D02*
X61089569Y-16964785D01*
X61089569Y-16964785D02*
X61089569Y-16821928D01*
X61089569Y-16821928D02*
X60946712Y-16536214D01*
X60946712Y-16536214D02*
X60660998Y-16393357D01*
X60660998Y-16393357D02*
X60232427Y-16393357D01*
X60232427Y-16393357D02*
X59946712Y-16250500D01*
X59946712Y-16250500D02*
X59803855Y-15964785D01*
X59803855Y-15964785D02*
X59803855Y-15821928D01*
X59803855Y-15821928D02*
X59946712Y-15536214D01*
X59946712Y-15536214D02*
X60232427Y-15393357D01*
X60232427Y-15393357D02*
X60660998Y-15393357D01*
X60660998Y-15393357D02*
X60946712Y-15536214D01*
X62375283Y-17393357D02*
X62375283Y-15393357D01*
X62375283Y-14393357D02*
X62232426Y-14536214D01*
X62232426Y-14536214D02*
X62375283Y-14679071D01*
X62375283Y-14679071D02*
X62518140Y-14536214D01*
X62518140Y-14536214D02*
X62375283Y-14393357D01*
X62375283Y-14393357D02*
X62375283Y-14679071D01*
X64232426Y-17393357D02*
X63946711Y-17250500D01*
X63946711Y-17250500D02*
X63803854Y-17107642D01*
X63803854Y-17107642D02*
X63660997Y-16821928D01*
X63660997Y-16821928D02*
X63660997Y-15964785D01*
X63660997Y-15964785D02*
X63803854Y-15679071D01*
X63803854Y-15679071D02*
X63946711Y-15536214D01*
X63946711Y-15536214D02*
X64232426Y-15393357D01*
X64232426Y-15393357D02*
X64660997Y-15393357D01*
X64660997Y-15393357D02*
X64946711Y-15536214D01*
X64946711Y-15536214D02*
X65089569Y-15679071D01*
X65089569Y-15679071D02*
X65232426Y-15964785D01*
X65232426Y-15964785D02*
X65232426Y-16821928D01*
X65232426Y-16821928D02*
X65089569Y-17107642D01*
X65089569Y-17107642D02*
X64946711Y-17250500D01*
X64946711Y-17250500D02*
X64660997Y-17393357D01*
X64660997Y-17393357D02*
X64232426Y-17393357D01*
X66518140Y-15393357D02*
X66518140Y-17393357D01*
X66518140Y-15679071D02*
X66660997Y-15536214D01*
X66660997Y-15536214D02*
X66946712Y-15393357D01*
X66946712Y-15393357D02*
X67375283Y-15393357D01*
X67375283Y-15393357D02*
X67660997Y-15536214D01*
X67660997Y-15536214D02*
X67803855Y-15821928D01*
X67803855Y-15821928D02*
X67803855Y-17393357D01*
X71518140Y-17393357D02*
X71518140Y-14393357D01*
X71518140Y-15821928D02*
X73232426Y-15821928D01*
X73232426Y-17393357D02*
X73232426Y-14393357D01*
X74660997Y-17393357D02*
X74660997Y-15393357D01*
X74660997Y-14393357D02*
X74518140Y-14536214D01*
X74518140Y-14536214D02*
X74660997Y-14679071D01*
X74660997Y-14679071D02*
X74803854Y-14536214D01*
X74803854Y-14536214D02*
X74660997Y-14393357D01*
X74660997Y-14393357D02*
X74660997Y-14679071D01*
X75946711Y-17250500D02*
X76232425Y-17393357D01*
X76232425Y-17393357D02*
X76803854Y-17393357D01*
X76803854Y-17393357D02*
X77089568Y-17250500D01*
X77089568Y-17250500D02*
X77232425Y-16964785D01*
X77232425Y-16964785D02*
X77232425Y-16821928D01*
X77232425Y-16821928D02*
X77089568Y-16536214D01*
X77089568Y-16536214D02*
X76803854Y-16393357D01*
X76803854Y-16393357D02*
X76375283Y-16393357D01*
X76375283Y-16393357D02*
X76089568Y-16250500D01*
X76089568Y-16250500D02*
X75946711Y-15964785D01*
X75946711Y-15964785D02*
X75946711Y-15821928D01*
X75946711Y-15821928D02*
X76089568Y-15536214D01*
X76089568Y-15536214D02*
X76375283Y-15393357D01*
X76375283Y-15393357D02*
X76803854Y-15393357D01*
X76803854Y-15393357D02*
X77089568Y-15536214D01*
X78089568Y-15393357D02*
X79232425Y-15393357D01*
X78518139Y-14393357D02*
X78518139Y-16964785D01*
X78518139Y-16964785D02*
X78660996Y-17250500D01*
X78660996Y-17250500D02*
X78946711Y-17393357D01*
X78946711Y-17393357D02*
X79232425Y-17393357D01*
X80660997Y-17393357D02*
X80375282Y-17250500D01*
X80375282Y-17250500D02*
X80232425Y-17107642D01*
X80232425Y-17107642D02*
X80089568Y-16821928D01*
X80089568Y-16821928D02*
X80089568Y-15964785D01*
X80089568Y-15964785D02*
X80232425Y-15679071D01*
X80232425Y-15679071D02*
X80375282Y-15536214D01*
X80375282Y-15536214D02*
X80660997Y-15393357D01*
X80660997Y-15393357D02*
X81089568Y-15393357D01*
X81089568Y-15393357D02*
X81375282Y-15536214D01*
X81375282Y-15536214D02*
X81518140Y-15679071D01*
X81518140Y-15679071D02*
X81660997Y-15964785D01*
X81660997Y-15964785D02*
X81660997Y-16821928D01*
X81660997Y-16821928D02*
X81518140Y-17107642D01*
X81518140Y-17107642D02*
X81375282Y-17250500D01*
X81375282Y-17250500D02*
X81089568Y-17393357D01*
X81089568Y-17393357D02*
X80660997Y-17393357D01*
X82946711Y-17393357D02*
X82946711Y-15393357D01*
X82946711Y-15964785D02*
X83089568Y-15679071D01*
X83089568Y-15679071D02*
X83232426Y-15536214D01*
X83232426Y-15536214D02*
X83518140Y-15393357D01*
X83518140Y-15393357D02*
X83803854Y-15393357D01*
X84518140Y-15393357D02*
X85232426Y-17393357D01*
X85946711Y-15393357D02*
X85232426Y-17393357D01*
X85232426Y-17393357D02*
X84946711Y-18107642D01*
X84946711Y-18107642D02*
X84803854Y-18250500D01*
X84803854Y-18250500D02*
X84518140Y-18393357D01*
D12*
X169619048Y-79573866D02*
X170380953Y-79573866D01*
X170000000Y-79954819D02*
X170000000Y-79192914D01*
X224944819Y-139952380D02*
X225754342Y-139952380D01*
X225754342Y-139952380D02*
X225849580Y-139904761D01*
X225849580Y-139904761D02*
X225897200Y-139857142D01*
X225897200Y-139857142D02*
X225944819Y-139761904D01*
X225944819Y-139761904D02*
X225944819Y-139571428D01*
X225944819Y-139571428D02*
X225897200Y-139476190D01*
X225897200Y-139476190D02*
X225849580Y-139428571D01*
X225849580Y-139428571D02*
X225754342Y-139380952D01*
X225754342Y-139380952D02*
X224944819Y-139380952D01*
X224944819Y-139047618D02*
X224944819Y-138476190D01*
X225944819Y-138761904D02*
X224944819Y-138761904D01*
X225897200Y-138190475D02*
X225944819Y-138047618D01*
X225944819Y-138047618D02*
X225944819Y-137809523D01*
X225944819Y-137809523D02*
X225897200Y-137714285D01*
X225897200Y-137714285D02*
X225849580Y-137666666D01*
X225849580Y-137666666D02*
X225754342Y-137619047D01*
X225754342Y-137619047D02*
X225659104Y-137619047D01*
X225659104Y-137619047D02*
X225563866Y-137666666D01*
X225563866Y-137666666D02*
X225516247Y-137714285D01*
X225516247Y-137714285D02*
X225468628Y-137809523D01*
X225468628Y-137809523D02*
X225421009Y-137999999D01*
X225421009Y-137999999D02*
X225373390Y-138095237D01*
X225373390Y-138095237D02*
X225325771Y-138142856D01*
X225325771Y-138142856D02*
X225230533Y-138190475D01*
X225230533Y-138190475D02*
X225135295Y-138190475D01*
X225135295Y-138190475D02*
X225040057Y-138142856D01*
X225040057Y-138142856D02*
X224992438Y-138095237D01*
X224992438Y-138095237D02*
X224944819Y-137999999D01*
X224944819Y-137999999D02*
X224944819Y-137761904D01*
X224944819Y-137761904D02*
X224992438Y-137619047D01*
X224944819Y-137333332D02*
X225944819Y-136999999D01*
X225944819Y-136999999D02*
X224944819Y-136666666D01*
X224944819Y-136476189D02*
X224944819Y-135904761D01*
X225944819Y-136190475D02*
X224944819Y-136190475D01*
X227554819Y-150166668D02*
X226554819Y-150166668D01*
X226554819Y-150166668D02*
X226554819Y-149785716D01*
X226554819Y-149785716D02*
X226602438Y-149690478D01*
X226602438Y-149690478D02*
X226650057Y-149642859D01*
X226650057Y-149642859D02*
X226745295Y-149595240D01*
X226745295Y-149595240D02*
X226888152Y-149595240D01*
X226888152Y-149595240D02*
X226983390Y-149642859D01*
X226983390Y-149642859D02*
X227031009Y-149690478D01*
X227031009Y-149690478D02*
X227078628Y-149785716D01*
X227078628Y-149785716D02*
X227078628Y-150166668D01*
X227554819Y-149166668D02*
X226888152Y-149166668D01*
X227078628Y-149166668D02*
X226983390Y-149119049D01*
X226983390Y-149119049D02*
X226935771Y-149071430D01*
X226935771Y-149071430D02*
X226888152Y-148976192D01*
X226888152Y-148976192D02*
X226888152Y-148880954D01*
X227507200Y-148166668D02*
X227554819Y-148261906D01*
X227554819Y-148261906D02*
X227554819Y-148452382D01*
X227554819Y-148452382D02*
X227507200Y-148547620D01*
X227507200Y-148547620D02*
X227411961Y-148595239D01*
X227411961Y-148595239D02*
X227031009Y-148595239D01*
X227031009Y-148595239D02*
X226935771Y-148547620D01*
X226935771Y-148547620D02*
X226888152Y-148452382D01*
X226888152Y-148452382D02*
X226888152Y-148261906D01*
X226888152Y-148261906D02*
X226935771Y-148166668D01*
X226935771Y-148166668D02*
X227031009Y-148119049D01*
X227031009Y-148119049D02*
X227126247Y-148119049D01*
X227126247Y-148119049D02*
X227221485Y-148595239D01*
X227507200Y-147261906D02*
X227554819Y-147357144D01*
X227554819Y-147357144D02*
X227554819Y-147547620D01*
X227554819Y-147547620D02*
X227507200Y-147642858D01*
X227507200Y-147642858D02*
X227459580Y-147690477D01*
X227459580Y-147690477D02*
X227364342Y-147738096D01*
X227364342Y-147738096D02*
X227078628Y-147738096D01*
X227078628Y-147738096D02*
X226983390Y-147690477D01*
X226983390Y-147690477D02*
X226935771Y-147642858D01*
X226935771Y-147642858D02*
X226888152Y-147547620D01*
X226888152Y-147547620D02*
X226888152Y-147357144D01*
X226888152Y-147357144D02*
X226935771Y-147261906D01*
X227554819Y-146833334D02*
X226554819Y-146833334D01*
X227554819Y-146404763D02*
X227031009Y-146404763D01*
X227031009Y-146404763D02*
X226935771Y-146452382D01*
X226935771Y-146452382D02*
X226888152Y-146547620D01*
X226888152Y-146547620D02*
X226888152Y-146690477D01*
X226888152Y-146690477D02*
X226935771Y-146785715D01*
X226935771Y-146785715D02*
X226983390Y-146833334D01*
X227554819Y-145500001D02*
X227031009Y-145500001D01*
X227031009Y-145500001D02*
X226935771Y-145547620D01*
X226935771Y-145547620D02*
X226888152Y-145642858D01*
X226888152Y-145642858D02*
X226888152Y-145833334D01*
X226888152Y-145833334D02*
X226935771Y-145928572D01*
X227507200Y-145500001D02*
X227554819Y-145595239D01*
X227554819Y-145595239D02*
X227554819Y-145833334D01*
X227554819Y-145833334D02*
X227507200Y-145928572D01*
X227507200Y-145928572D02*
X227411961Y-145976191D01*
X227411961Y-145976191D02*
X227316723Y-145976191D01*
X227316723Y-145976191D02*
X227221485Y-145928572D01*
X227221485Y-145928572D02*
X227173866Y-145833334D01*
X227173866Y-145833334D02*
X227173866Y-145595239D01*
X227173866Y-145595239D02*
X227126247Y-145500001D01*
X227554819Y-145023810D02*
X226888152Y-145023810D01*
X227078628Y-145023810D02*
X226983390Y-144976191D01*
X226983390Y-144976191D02*
X226935771Y-144928572D01*
X226935771Y-144928572D02*
X226888152Y-144833334D01*
X226888152Y-144833334D02*
X226888152Y-144738096D01*
X226888152Y-143976191D02*
X227697676Y-143976191D01*
X227697676Y-143976191D02*
X227792914Y-144023810D01*
X227792914Y-144023810D02*
X227840533Y-144071429D01*
X227840533Y-144071429D02*
X227888152Y-144166667D01*
X227888152Y-144166667D02*
X227888152Y-144309524D01*
X227888152Y-144309524D02*
X227840533Y-144404762D01*
X227507200Y-143976191D02*
X227554819Y-144071429D01*
X227554819Y-144071429D02*
X227554819Y-144261905D01*
X227554819Y-144261905D02*
X227507200Y-144357143D01*
X227507200Y-144357143D02*
X227459580Y-144404762D01*
X227459580Y-144404762D02*
X227364342Y-144452381D01*
X227364342Y-144452381D02*
X227078628Y-144452381D01*
X227078628Y-144452381D02*
X226983390Y-144404762D01*
X226983390Y-144404762D02*
X226935771Y-144357143D01*
X226935771Y-144357143D02*
X226888152Y-144261905D01*
X226888152Y-144261905D02*
X226888152Y-144071429D01*
X226888152Y-144071429D02*
X226935771Y-143976191D01*
X227507200Y-143119048D02*
X227554819Y-143214286D01*
X227554819Y-143214286D02*
X227554819Y-143404762D01*
X227554819Y-143404762D02*
X227507200Y-143500000D01*
X227507200Y-143500000D02*
X227411961Y-143547619D01*
X227411961Y-143547619D02*
X227031009Y-143547619D01*
X227031009Y-143547619D02*
X226935771Y-143500000D01*
X226935771Y-143500000D02*
X226888152Y-143404762D01*
X226888152Y-143404762D02*
X226888152Y-143214286D01*
X226888152Y-143214286D02*
X226935771Y-143119048D01*
X226935771Y-143119048D02*
X227031009Y-143071429D01*
X227031009Y-143071429D02*
X227126247Y-143071429D01*
X227126247Y-143071429D02*
X227221485Y-143547619D01*
X226507200Y-141928572D02*
X227792914Y-142785714D01*
X227459580Y-141023810D02*
X227507200Y-141071429D01*
X227507200Y-141071429D02*
X227554819Y-141214286D01*
X227554819Y-141214286D02*
X227554819Y-141309524D01*
X227554819Y-141309524D02*
X227507200Y-141452381D01*
X227507200Y-141452381D02*
X227411961Y-141547619D01*
X227411961Y-141547619D02*
X227316723Y-141595238D01*
X227316723Y-141595238D02*
X227126247Y-141642857D01*
X227126247Y-141642857D02*
X226983390Y-141642857D01*
X226983390Y-141642857D02*
X226792914Y-141595238D01*
X226792914Y-141595238D02*
X226697676Y-141547619D01*
X226697676Y-141547619D02*
X226602438Y-141452381D01*
X226602438Y-141452381D02*
X226554819Y-141309524D01*
X226554819Y-141309524D02*
X226554819Y-141214286D01*
X226554819Y-141214286D02*
X226602438Y-141071429D01*
X226602438Y-141071429D02*
X226650057Y-141023810D01*
X227554819Y-140452381D02*
X227507200Y-140547619D01*
X227507200Y-140547619D02*
X227459580Y-140595238D01*
X227459580Y-140595238D02*
X227364342Y-140642857D01*
X227364342Y-140642857D02*
X227078628Y-140642857D01*
X227078628Y-140642857D02*
X226983390Y-140595238D01*
X226983390Y-140595238D02*
X226935771Y-140547619D01*
X226935771Y-140547619D02*
X226888152Y-140452381D01*
X226888152Y-140452381D02*
X226888152Y-140309524D01*
X226888152Y-140309524D02*
X226935771Y-140214286D01*
X226935771Y-140214286D02*
X226983390Y-140166667D01*
X226983390Y-140166667D02*
X227078628Y-140119048D01*
X227078628Y-140119048D02*
X227364342Y-140119048D01*
X227364342Y-140119048D02*
X227459580Y-140166667D01*
X227459580Y-140166667D02*
X227507200Y-140214286D01*
X227507200Y-140214286D02*
X227554819Y-140309524D01*
X227554819Y-140309524D02*
X227554819Y-140452381D01*
X226888152Y-139690476D02*
X227554819Y-139690476D01*
X226983390Y-139690476D02*
X226935771Y-139642857D01*
X226935771Y-139642857D02*
X226888152Y-139547619D01*
X226888152Y-139547619D02*
X226888152Y-139404762D01*
X226888152Y-139404762D02*
X226935771Y-139309524D01*
X226935771Y-139309524D02*
X227031009Y-139261905D01*
X227031009Y-139261905D02*
X227554819Y-139261905D01*
X226888152Y-138928571D02*
X226888152Y-138547619D01*
X226554819Y-138785714D02*
X227411961Y-138785714D01*
X227411961Y-138785714D02*
X227507200Y-138738095D01*
X227507200Y-138738095D02*
X227554819Y-138642857D01*
X227554819Y-138642857D02*
X227554819Y-138547619D01*
X227554819Y-137785714D02*
X227031009Y-137785714D01*
X227031009Y-137785714D02*
X226935771Y-137833333D01*
X226935771Y-137833333D02*
X226888152Y-137928571D01*
X226888152Y-137928571D02*
X226888152Y-138119047D01*
X226888152Y-138119047D02*
X226935771Y-138214285D01*
X227507200Y-137785714D02*
X227554819Y-137880952D01*
X227554819Y-137880952D02*
X227554819Y-138119047D01*
X227554819Y-138119047D02*
X227507200Y-138214285D01*
X227507200Y-138214285D02*
X227411961Y-138261904D01*
X227411961Y-138261904D02*
X227316723Y-138261904D01*
X227316723Y-138261904D02*
X227221485Y-138214285D01*
X227221485Y-138214285D02*
X227173866Y-138119047D01*
X227173866Y-138119047D02*
X227173866Y-137880952D01*
X227173866Y-137880952D02*
X227126247Y-137785714D01*
X227507200Y-136880952D02*
X227554819Y-136976190D01*
X227554819Y-136976190D02*
X227554819Y-137166666D01*
X227554819Y-137166666D02*
X227507200Y-137261904D01*
X227507200Y-137261904D02*
X227459580Y-137309523D01*
X227459580Y-137309523D02*
X227364342Y-137357142D01*
X227364342Y-137357142D02*
X227078628Y-137357142D01*
X227078628Y-137357142D02*
X226983390Y-137309523D01*
X226983390Y-137309523D02*
X226935771Y-137261904D01*
X226935771Y-137261904D02*
X226888152Y-137166666D01*
X226888152Y-137166666D02*
X226888152Y-136976190D01*
X226888152Y-136976190D02*
X226935771Y-136880952D01*
X226888152Y-136595237D02*
X226888152Y-136214285D01*
X226554819Y-136452380D02*
X227411961Y-136452380D01*
X227411961Y-136452380D02*
X227507200Y-136404761D01*
X227507200Y-136404761D02*
X227554819Y-136309523D01*
X227554819Y-136309523D02*
X227554819Y-136214285D01*
X227554819Y-135738094D02*
X227507200Y-135833332D01*
X227507200Y-135833332D02*
X227459580Y-135880951D01*
X227459580Y-135880951D02*
X227364342Y-135928570D01*
X227364342Y-135928570D02*
X227078628Y-135928570D01*
X227078628Y-135928570D02*
X226983390Y-135880951D01*
X226983390Y-135880951D02*
X226935771Y-135833332D01*
X226935771Y-135833332D02*
X226888152Y-135738094D01*
X226888152Y-135738094D02*
X226888152Y-135595237D01*
X226888152Y-135595237D02*
X226935771Y-135499999D01*
X226935771Y-135499999D02*
X226983390Y-135452380D01*
X226983390Y-135452380D02*
X227078628Y-135404761D01*
X227078628Y-135404761D02*
X227364342Y-135404761D01*
X227364342Y-135404761D02*
X227459580Y-135452380D01*
X227459580Y-135452380D02*
X227507200Y-135499999D01*
X227507200Y-135499999D02*
X227554819Y-135595237D01*
X227554819Y-135595237D02*
X227554819Y-135738094D01*
X227554819Y-134976189D02*
X226888152Y-134976189D01*
X227078628Y-134976189D02*
X226983390Y-134928570D01*
X226983390Y-134928570D02*
X226935771Y-134880951D01*
X226935771Y-134880951D02*
X226888152Y-134785713D01*
X226888152Y-134785713D02*
X226888152Y-134690475D01*
X227554819Y-133595236D02*
X226554819Y-133595236D01*
X226554819Y-133595236D02*
X226554819Y-133357141D01*
X226554819Y-133357141D02*
X226602438Y-133214284D01*
X226602438Y-133214284D02*
X226697676Y-133119046D01*
X226697676Y-133119046D02*
X226792914Y-133071427D01*
X226792914Y-133071427D02*
X226983390Y-133023808D01*
X226983390Y-133023808D02*
X227126247Y-133023808D01*
X227126247Y-133023808D02*
X227316723Y-133071427D01*
X227316723Y-133071427D02*
X227411961Y-133119046D01*
X227411961Y-133119046D02*
X227507200Y-133214284D01*
X227507200Y-133214284D02*
X227554819Y-133357141D01*
X227554819Y-133357141D02*
X227554819Y-133595236D01*
X227554819Y-132595236D02*
X226888152Y-132595236D01*
X227078628Y-132595236D02*
X226983390Y-132547617D01*
X226983390Y-132547617D02*
X226935771Y-132499998D01*
X226935771Y-132499998D02*
X226888152Y-132404760D01*
X226888152Y-132404760D02*
X226888152Y-132309522D01*
X227554819Y-131976188D02*
X226888152Y-131976188D01*
X226554819Y-131976188D02*
X226602438Y-132023807D01*
X226602438Y-132023807D02*
X226650057Y-131976188D01*
X226650057Y-131976188D02*
X226602438Y-131928569D01*
X226602438Y-131928569D02*
X226554819Y-131976188D01*
X226554819Y-131976188D02*
X226650057Y-131976188D01*
X226888152Y-131595236D02*
X227554819Y-131357141D01*
X227554819Y-131357141D02*
X226888152Y-131119046D01*
X227507200Y-130357141D02*
X227554819Y-130452379D01*
X227554819Y-130452379D02*
X227554819Y-130642855D01*
X227554819Y-130642855D02*
X227507200Y-130738093D01*
X227507200Y-130738093D02*
X227411961Y-130785712D01*
X227411961Y-130785712D02*
X227031009Y-130785712D01*
X227031009Y-130785712D02*
X226935771Y-130738093D01*
X226935771Y-130738093D02*
X226888152Y-130642855D01*
X226888152Y-130642855D02*
X226888152Y-130452379D01*
X226888152Y-130452379D02*
X226935771Y-130357141D01*
X226935771Y-130357141D02*
X227031009Y-130309522D01*
X227031009Y-130309522D02*
X227126247Y-130309522D01*
X227126247Y-130309522D02*
X227221485Y-130785712D01*
X227554819Y-129880950D02*
X226888152Y-129880950D01*
X227078628Y-129880950D02*
X226983390Y-129833331D01*
X226983390Y-129833331D02*
X226935771Y-129785712D01*
X226935771Y-129785712D02*
X226888152Y-129690474D01*
X226888152Y-129690474D02*
X226888152Y-129595236D01*
X226888152Y-128595235D02*
X227554819Y-128357140D01*
X227554819Y-128357140D02*
X226888152Y-128119045D01*
X226650057Y-127785711D02*
X226602438Y-127738092D01*
X226602438Y-127738092D02*
X226554819Y-127642854D01*
X226554819Y-127642854D02*
X226554819Y-127404759D01*
X226554819Y-127404759D02*
X226602438Y-127309521D01*
X226602438Y-127309521D02*
X226650057Y-127261902D01*
X226650057Y-127261902D02*
X226745295Y-127214283D01*
X226745295Y-127214283D02*
X226840533Y-127214283D01*
X226840533Y-127214283D02*
X226983390Y-127261902D01*
X226983390Y-127261902D02*
X227554819Y-127833330D01*
X227554819Y-127833330D02*
X227554819Y-127214283D01*
X227459580Y-126785711D02*
X227507200Y-126738092D01*
X227507200Y-126738092D02*
X227554819Y-126785711D01*
X227554819Y-126785711D02*
X227507200Y-126833330D01*
X227507200Y-126833330D02*
X227459580Y-126785711D01*
X227459580Y-126785711D02*
X227554819Y-126785711D01*
X227554819Y-125785712D02*
X227554819Y-126357140D01*
X227554819Y-126071426D02*
X226554819Y-126071426D01*
X226554819Y-126071426D02*
X226697676Y-126166664D01*
X226697676Y-126166664D02*
X226792914Y-126261902D01*
X226792914Y-126261902D02*
X226840533Y-126357140D01*
X228641009Y-148309525D02*
X228641009Y-148642858D01*
X229164819Y-148642858D02*
X228164819Y-148642858D01*
X228164819Y-148642858D02*
X228164819Y-148166668D01*
X229164819Y-147357144D02*
X228641009Y-147357144D01*
X228641009Y-147357144D02*
X228545771Y-147404763D01*
X228545771Y-147404763D02*
X228498152Y-147500001D01*
X228498152Y-147500001D02*
X228498152Y-147690477D01*
X228498152Y-147690477D02*
X228545771Y-147785715D01*
X229117200Y-147357144D02*
X229164819Y-147452382D01*
X229164819Y-147452382D02*
X229164819Y-147690477D01*
X229164819Y-147690477D02*
X229117200Y-147785715D01*
X229117200Y-147785715D02*
X229021961Y-147833334D01*
X229021961Y-147833334D02*
X228926723Y-147833334D01*
X228926723Y-147833334D02*
X228831485Y-147785715D01*
X228831485Y-147785715D02*
X228783866Y-147690477D01*
X228783866Y-147690477D02*
X228783866Y-147452382D01*
X228783866Y-147452382D02*
X228736247Y-147357144D01*
X229164819Y-146738096D02*
X229117200Y-146833334D01*
X229117200Y-146833334D02*
X229021961Y-146880953D01*
X229021961Y-146880953D02*
X228164819Y-146880953D01*
X229164819Y-146214286D02*
X229117200Y-146309524D01*
X229117200Y-146309524D02*
X229021961Y-146357143D01*
X229021961Y-146357143D02*
X228164819Y-146357143D01*
X228260057Y-145119047D02*
X228212438Y-145071428D01*
X228212438Y-145071428D02*
X228164819Y-144976190D01*
X228164819Y-144976190D02*
X228164819Y-144738095D01*
X228164819Y-144738095D02*
X228212438Y-144642857D01*
X228212438Y-144642857D02*
X228260057Y-144595238D01*
X228260057Y-144595238D02*
X228355295Y-144547619D01*
X228355295Y-144547619D02*
X228450533Y-144547619D01*
X228450533Y-144547619D02*
X228593390Y-144595238D01*
X228593390Y-144595238D02*
X229164819Y-145166666D01*
X229164819Y-145166666D02*
X229164819Y-144547619D01*
X228164819Y-143928571D02*
X228164819Y-143833333D01*
X228164819Y-143833333D02*
X228212438Y-143738095D01*
X228212438Y-143738095D02*
X228260057Y-143690476D01*
X228260057Y-143690476D02*
X228355295Y-143642857D01*
X228355295Y-143642857D02*
X228545771Y-143595238D01*
X228545771Y-143595238D02*
X228783866Y-143595238D01*
X228783866Y-143595238D02*
X228974342Y-143642857D01*
X228974342Y-143642857D02*
X229069580Y-143690476D01*
X229069580Y-143690476D02*
X229117200Y-143738095D01*
X229117200Y-143738095D02*
X229164819Y-143833333D01*
X229164819Y-143833333D02*
X229164819Y-143928571D01*
X229164819Y-143928571D02*
X229117200Y-144023809D01*
X229117200Y-144023809D02*
X229069580Y-144071428D01*
X229069580Y-144071428D02*
X228974342Y-144119047D01*
X228974342Y-144119047D02*
X228783866Y-144166666D01*
X228783866Y-144166666D02*
X228545771Y-144166666D01*
X228545771Y-144166666D02*
X228355295Y-144119047D01*
X228355295Y-144119047D02*
X228260057Y-144071428D01*
X228260057Y-144071428D02*
X228212438Y-144023809D01*
X228212438Y-144023809D02*
X228164819Y-143928571D01*
X228260057Y-143214285D02*
X228212438Y-143166666D01*
X228212438Y-143166666D02*
X228164819Y-143071428D01*
X228164819Y-143071428D02*
X228164819Y-142833333D01*
X228164819Y-142833333D02*
X228212438Y-142738095D01*
X228212438Y-142738095D02*
X228260057Y-142690476D01*
X228260057Y-142690476D02*
X228355295Y-142642857D01*
X228355295Y-142642857D02*
X228450533Y-142642857D01*
X228450533Y-142642857D02*
X228593390Y-142690476D01*
X228593390Y-142690476D02*
X229164819Y-143261904D01*
X229164819Y-143261904D02*
X229164819Y-142642857D01*
X228164819Y-142309523D02*
X228164819Y-141690476D01*
X228164819Y-141690476D02*
X228545771Y-142023809D01*
X228545771Y-142023809D02*
X228545771Y-141880952D01*
X228545771Y-141880952D02*
X228593390Y-141785714D01*
X228593390Y-141785714D02*
X228641009Y-141738095D01*
X228641009Y-141738095D02*
X228736247Y-141690476D01*
X228736247Y-141690476D02*
X228974342Y-141690476D01*
X228974342Y-141690476D02*
X229069580Y-141738095D01*
X229069580Y-141738095D02*
X229117200Y-141785714D01*
X229117200Y-141785714D02*
X229164819Y-141880952D01*
X229164819Y-141880952D02*
X229164819Y-142166666D01*
X229164819Y-142166666D02*
X229117200Y-142261904D01*
X229117200Y-142261904D02*
X229069580Y-142309523D01*
X228783866Y-140499999D02*
X228783866Y-139738095D01*
X229164819Y-138499999D02*
X228164819Y-138499999D01*
X228164819Y-138499999D02*
X228164819Y-138261904D01*
X228164819Y-138261904D02*
X228212438Y-138119047D01*
X228212438Y-138119047D02*
X228307676Y-138023809D01*
X228307676Y-138023809D02*
X228402914Y-137976190D01*
X228402914Y-137976190D02*
X228593390Y-137928571D01*
X228593390Y-137928571D02*
X228736247Y-137928571D01*
X228736247Y-137928571D02*
X228926723Y-137976190D01*
X228926723Y-137976190D02*
X229021961Y-138023809D01*
X229021961Y-138023809D02*
X229117200Y-138119047D01*
X229117200Y-138119047D02*
X229164819Y-138261904D01*
X229164819Y-138261904D02*
X229164819Y-138499999D01*
X229164819Y-137071428D02*
X228641009Y-137071428D01*
X228641009Y-137071428D02*
X228545771Y-137119047D01*
X228545771Y-137119047D02*
X228498152Y-137214285D01*
X228498152Y-137214285D02*
X228498152Y-137404761D01*
X228498152Y-137404761D02*
X228545771Y-137499999D01*
X229117200Y-137071428D02*
X229164819Y-137166666D01*
X229164819Y-137166666D02*
X229164819Y-137404761D01*
X229164819Y-137404761D02*
X229117200Y-137499999D01*
X229117200Y-137499999D02*
X229021961Y-137547618D01*
X229021961Y-137547618D02*
X228926723Y-137547618D01*
X228926723Y-137547618D02*
X228831485Y-137499999D01*
X228831485Y-137499999D02*
X228783866Y-137404761D01*
X228783866Y-137404761D02*
X228783866Y-137166666D01*
X228783866Y-137166666D02*
X228736247Y-137071428D01*
X228164819Y-135642856D02*
X228164819Y-135452380D01*
X228164819Y-135452380D02*
X228212438Y-135357142D01*
X228212438Y-135357142D02*
X228307676Y-135261904D01*
X228307676Y-135261904D02*
X228498152Y-135214285D01*
X228498152Y-135214285D02*
X228831485Y-135214285D01*
X228831485Y-135214285D02*
X229021961Y-135261904D01*
X229021961Y-135261904D02*
X229117200Y-135357142D01*
X229117200Y-135357142D02*
X229164819Y-135452380D01*
X229164819Y-135452380D02*
X229164819Y-135642856D01*
X229164819Y-135642856D02*
X229117200Y-135738094D01*
X229117200Y-135738094D02*
X229021961Y-135833332D01*
X229021961Y-135833332D02*
X228831485Y-135880951D01*
X228831485Y-135880951D02*
X228498152Y-135880951D01*
X228498152Y-135880951D02*
X228307676Y-135833332D01*
X228307676Y-135833332D02*
X228212438Y-135738094D01*
X228212438Y-135738094D02*
X228164819Y-135642856D01*
X228212438Y-134261904D02*
X228164819Y-134357142D01*
X228164819Y-134357142D02*
X228164819Y-134499999D01*
X228164819Y-134499999D02*
X228212438Y-134642856D01*
X228212438Y-134642856D02*
X228307676Y-134738094D01*
X228307676Y-134738094D02*
X228402914Y-134785713D01*
X228402914Y-134785713D02*
X228593390Y-134833332D01*
X228593390Y-134833332D02*
X228736247Y-134833332D01*
X228736247Y-134833332D02*
X228926723Y-134785713D01*
X228926723Y-134785713D02*
X229021961Y-134738094D01*
X229021961Y-134738094D02*
X229117200Y-134642856D01*
X229117200Y-134642856D02*
X229164819Y-134499999D01*
X229164819Y-134499999D02*
X229164819Y-134404761D01*
X229164819Y-134404761D02*
X229117200Y-134261904D01*
X229117200Y-134261904D02*
X229069580Y-134214285D01*
X229069580Y-134214285D02*
X228736247Y-134214285D01*
X228736247Y-134214285D02*
X228736247Y-134404761D01*
X229164819Y-133023808D02*
X228164819Y-133023808D01*
X228164819Y-133023808D02*
X228879104Y-132690475D01*
X228879104Y-132690475D02*
X228164819Y-132357142D01*
X228164819Y-132357142D02*
X229164819Y-132357142D01*
X229164819Y-131452380D02*
X228641009Y-131452380D01*
X228641009Y-131452380D02*
X228545771Y-131499999D01*
X228545771Y-131499999D02*
X228498152Y-131595237D01*
X228498152Y-131595237D02*
X228498152Y-131785713D01*
X228498152Y-131785713D02*
X228545771Y-131880951D01*
X229117200Y-131452380D02*
X229164819Y-131547618D01*
X229164819Y-131547618D02*
X229164819Y-131785713D01*
X229164819Y-131785713D02*
X229117200Y-131880951D01*
X229117200Y-131880951D02*
X229021961Y-131928570D01*
X229021961Y-131928570D02*
X228926723Y-131928570D01*
X228926723Y-131928570D02*
X228831485Y-131880951D01*
X228831485Y-131880951D02*
X228783866Y-131785713D01*
X228783866Y-131785713D02*
X228783866Y-131547618D01*
X228783866Y-131547618D02*
X228736247Y-131452380D01*
X228498152Y-130976189D02*
X229164819Y-130976189D01*
X228593390Y-130976189D02*
X228545771Y-130928570D01*
X228545771Y-130928570D02*
X228498152Y-130833332D01*
X228498152Y-130833332D02*
X228498152Y-130690475D01*
X228498152Y-130690475D02*
X228545771Y-130595237D01*
X228545771Y-130595237D02*
X228641009Y-130547618D01*
X228641009Y-130547618D02*
X229164819Y-130547618D01*
X229164819Y-129642856D02*
X228641009Y-129642856D01*
X228641009Y-129642856D02*
X228545771Y-129690475D01*
X228545771Y-129690475D02*
X228498152Y-129785713D01*
X228498152Y-129785713D02*
X228498152Y-129976189D01*
X228498152Y-129976189D02*
X228545771Y-130071427D01*
X229117200Y-129642856D02*
X229164819Y-129738094D01*
X229164819Y-129738094D02*
X229164819Y-129976189D01*
X229164819Y-129976189D02*
X229117200Y-130071427D01*
X229117200Y-130071427D02*
X229021961Y-130119046D01*
X229021961Y-130119046D02*
X228926723Y-130119046D01*
X228926723Y-130119046D02*
X228831485Y-130071427D01*
X228831485Y-130071427D02*
X228783866Y-129976189D01*
X228783866Y-129976189D02*
X228783866Y-129738094D01*
X228783866Y-129738094D02*
X228736247Y-129642856D01*
X228498152Y-129309522D02*
X228498152Y-128928570D01*
X228164819Y-129166665D02*
X229021961Y-129166665D01*
X229021961Y-129166665D02*
X229117200Y-129119046D01*
X229117200Y-129119046D02*
X229164819Y-129023808D01*
X229164819Y-129023808D02*
X229164819Y-128928570D01*
X229117200Y-128214284D02*
X229164819Y-128309522D01*
X229164819Y-128309522D02*
X229164819Y-128499998D01*
X229164819Y-128499998D02*
X229117200Y-128595236D01*
X229117200Y-128595236D02*
X229021961Y-128642855D01*
X229021961Y-128642855D02*
X228641009Y-128642855D01*
X228641009Y-128642855D02*
X228545771Y-128595236D01*
X228545771Y-128595236D02*
X228498152Y-128499998D01*
X228498152Y-128499998D02*
X228498152Y-128309522D01*
X228498152Y-128309522D02*
X228545771Y-128214284D01*
X228545771Y-128214284D02*
X228641009Y-128166665D01*
X228641009Y-128166665D02*
X228736247Y-128166665D01*
X228736247Y-128166665D02*
X228831485Y-128642855D01*
X229117200Y-127357141D02*
X229164819Y-127452379D01*
X229164819Y-127452379D02*
X229164819Y-127642855D01*
X229164819Y-127642855D02*
X229117200Y-127738093D01*
X229117200Y-127738093D02*
X229021961Y-127785712D01*
X229021961Y-127785712D02*
X228641009Y-127785712D01*
X228641009Y-127785712D02*
X228545771Y-127738093D01*
X228545771Y-127738093D02*
X228498152Y-127642855D01*
X228498152Y-127642855D02*
X228498152Y-127452379D01*
X228498152Y-127452379D02*
X228545771Y-127357141D01*
X228545771Y-127357141D02*
X228641009Y-127309522D01*
X228641009Y-127309522D02*
X228736247Y-127309522D01*
X228736247Y-127309522D02*
X228831485Y-127785712D01*
X181088469Y-108238094D02*
X180088469Y-108238094D01*
X180088469Y-108238094D02*
X180088469Y-107999999D01*
X180088469Y-107999999D02*
X180136088Y-107857142D01*
X180136088Y-107857142D02*
X180231326Y-107761904D01*
X180231326Y-107761904D02*
X180326564Y-107714285D01*
X180326564Y-107714285D02*
X180517040Y-107666666D01*
X180517040Y-107666666D02*
X180659897Y-107666666D01*
X180659897Y-107666666D02*
X180850373Y-107714285D01*
X180850373Y-107714285D02*
X180945611Y-107761904D01*
X180945611Y-107761904D02*
X181040850Y-107857142D01*
X181040850Y-107857142D02*
X181088469Y-107999999D01*
X181088469Y-107999999D02*
X181088469Y-108238094D01*
X180421802Y-106809523D02*
X181088469Y-106809523D01*
X180040850Y-107047618D02*
X180755135Y-107285713D01*
X180755135Y-107285713D02*
X180755135Y-106666666D01*
X176954819Y-87738094D02*
X175954819Y-87738094D01*
X175954819Y-87738094D02*
X175954819Y-87499999D01*
X175954819Y-87499999D02*
X176002438Y-87357142D01*
X176002438Y-87357142D02*
X176097676Y-87261904D01*
X176097676Y-87261904D02*
X176192914Y-87214285D01*
X176192914Y-87214285D02*
X176383390Y-87166666D01*
X176383390Y-87166666D02*
X176526247Y-87166666D01*
X176526247Y-87166666D02*
X176716723Y-87214285D01*
X176716723Y-87214285D02*
X176811961Y-87261904D01*
X176811961Y-87261904D02*
X176907200Y-87357142D01*
X176907200Y-87357142D02*
X176954819Y-87499999D01*
X176954819Y-87499999D02*
X176954819Y-87738094D01*
X176050057Y-86785713D02*
X176002438Y-86738094D01*
X176002438Y-86738094D02*
X175954819Y-86642856D01*
X175954819Y-86642856D02*
X175954819Y-86404761D01*
X175954819Y-86404761D02*
X176002438Y-86309523D01*
X176002438Y-86309523D02*
X176050057Y-86261904D01*
X176050057Y-86261904D02*
X176145295Y-86214285D01*
X176145295Y-86214285D02*
X176240533Y-86214285D01*
X176240533Y-86214285D02*
X176383390Y-86261904D01*
X176383390Y-86261904D02*
X176954819Y-86833332D01*
X176954819Y-86833332D02*
X176954819Y-86214285D01*
X224666666Y-77454819D02*
X224666666Y-78169104D01*
X224666666Y-78169104D02*
X224619047Y-78311961D01*
X224619047Y-78311961D02*
X224523809Y-78407200D01*
X224523809Y-78407200D02*
X224380952Y-78454819D01*
X224380952Y-78454819D02*
X224285714Y-78454819D01*
X225095238Y-77550057D02*
X225142857Y-77502438D01*
X225142857Y-77502438D02*
X225238095Y-77454819D01*
X225238095Y-77454819D02*
X225476190Y-77454819D01*
X225476190Y-77454819D02*
X225571428Y-77502438D01*
X225571428Y-77502438D02*
X225619047Y-77550057D01*
X225619047Y-77550057D02*
X225666666Y-77645295D01*
X225666666Y-77645295D02*
X225666666Y-77740533D01*
X225666666Y-77740533D02*
X225619047Y-77883390D01*
X225619047Y-77883390D02*
X225047619Y-78454819D01*
X225047619Y-78454819D02*
X225666666Y-78454819D01*
X183904761Y-76000057D02*
X183809523Y-75952438D01*
X183809523Y-75952438D02*
X183714285Y-75857200D01*
X183714285Y-75857200D02*
X183571428Y-75714342D01*
X183571428Y-75714342D02*
X183476190Y-75666723D01*
X183476190Y-75666723D02*
X183380952Y-75666723D01*
X183428571Y-75904819D02*
X183333333Y-75857200D01*
X183333333Y-75857200D02*
X183238095Y-75761961D01*
X183238095Y-75761961D02*
X183190476Y-75571485D01*
X183190476Y-75571485D02*
X183190476Y-75238152D01*
X183190476Y-75238152D02*
X183238095Y-75047676D01*
X183238095Y-75047676D02*
X183333333Y-74952438D01*
X183333333Y-74952438D02*
X183428571Y-74904819D01*
X183428571Y-74904819D02*
X183619047Y-74904819D01*
X183619047Y-74904819D02*
X183714285Y-74952438D01*
X183714285Y-74952438D02*
X183809523Y-75047676D01*
X183809523Y-75047676D02*
X183857142Y-75238152D01*
X183857142Y-75238152D02*
X183857142Y-75571485D01*
X183857142Y-75571485D02*
X183809523Y-75761961D01*
X183809523Y-75761961D02*
X183714285Y-75857200D01*
X183714285Y-75857200D02*
X183619047Y-75904819D01*
X183619047Y-75904819D02*
X183428571Y-75904819D01*
X184238095Y-75000057D02*
X184285714Y-74952438D01*
X184285714Y-74952438D02*
X184380952Y-74904819D01*
X184380952Y-74904819D02*
X184619047Y-74904819D01*
X184619047Y-74904819D02*
X184714285Y-74952438D01*
X184714285Y-74952438D02*
X184761904Y-75000057D01*
X184761904Y-75000057D02*
X184809523Y-75095295D01*
X184809523Y-75095295D02*
X184809523Y-75190533D01*
X184809523Y-75190533D02*
X184761904Y-75333390D01*
X184761904Y-75333390D02*
X184190476Y-75904819D01*
X184190476Y-75904819D02*
X184809523Y-75904819D01*
X215423333Y-90454819D02*
X215090000Y-89978628D01*
X214851905Y-90454819D02*
X214851905Y-89454819D01*
X214851905Y-89454819D02*
X215232857Y-89454819D01*
X215232857Y-89454819D02*
X215328095Y-89502438D01*
X215328095Y-89502438D02*
X215375714Y-89550057D01*
X215375714Y-89550057D02*
X215423333Y-89645295D01*
X215423333Y-89645295D02*
X215423333Y-89788152D01*
X215423333Y-89788152D02*
X215375714Y-89883390D01*
X215375714Y-89883390D02*
X215328095Y-89931009D01*
X215328095Y-89931009D02*
X215232857Y-89978628D01*
X215232857Y-89978628D02*
X214851905Y-89978628D01*
X215804286Y-89550057D02*
X215851905Y-89502438D01*
X215851905Y-89502438D02*
X215947143Y-89454819D01*
X215947143Y-89454819D02*
X216185238Y-89454819D01*
X216185238Y-89454819D02*
X216280476Y-89502438D01*
X216280476Y-89502438D02*
X216328095Y-89550057D01*
X216328095Y-89550057D02*
X216375714Y-89645295D01*
X216375714Y-89645295D02*
X216375714Y-89740533D01*
X216375714Y-89740533D02*
X216328095Y-89883390D01*
X216328095Y-89883390D02*
X215756667Y-90454819D01*
X215756667Y-90454819D02*
X216375714Y-90454819D01*
X187304819Y-140666666D02*
X186828628Y-140999999D01*
X187304819Y-141238094D02*
X186304819Y-141238094D01*
X186304819Y-141238094D02*
X186304819Y-140857142D01*
X186304819Y-140857142D02*
X186352438Y-140761904D01*
X186352438Y-140761904D02*
X186400057Y-140714285D01*
X186400057Y-140714285D02*
X186495295Y-140666666D01*
X186495295Y-140666666D02*
X186638152Y-140666666D01*
X186638152Y-140666666D02*
X186733390Y-140714285D01*
X186733390Y-140714285D02*
X186781009Y-140761904D01*
X186781009Y-140761904D02*
X186828628Y-140857142D01*
X186828628Y-140857142D02*
X186828628Y-141238094D01*
X186304819Y-140333332D02*
X186304819Y-139714285D01*
X186304819Y-139714285D02*
X186685771Y-140047618D01*
X186685771Y-140047618D02*
X186685771Y-139904761D01*
X186685771Y-139904761D02*
X186733390Y-139809523D01*
X186733390Y-139809523D02*
X186781009Y-139761904D01*
X186781009Y-139761904D02*
X186876247Y-139714285D01*
X186876247Y-139714285D02*
X187114342Y-139714285D01*
X187114342Y-139714285D02*
X187209580Y-139761904D01*
X187209580Y-139761904D02*
X187257200Y-139809523D01*
X187257200Y-139809523D02*
X187304819Y-139904761D01*
X187304819Y-139904761D02*
X187304819Y-140190475D01*
X187304819Y-140190475D02*
X187257200Y-140285713D01*
X187257200Y-140285713D02*
X187209580Y-140333332D01*
X176954819Y-75666666D02*
X176478628Y-75999999D01*
X176954819Y-76238094D02*
X175954819Y-76238094D01*
X175954819Y-76238094D02*
X175954819Y-75857142D01*
X175954819Y-75857142D02*
X176002438Y-75761904D01*
X176002438Y-75761904D02*
X176050057Y-75714285D01*
X176050057Y-75714285D02*
X176145295Y-75666666D01*
X176145295Y-75666666D02*
X176288152Y-75666666D01*
X176288152Y-75666666D02*
X176383390Y-75714285D01*
X176383390Y-75714285D02*
X176431009Y-75761904D01*
X176431009Y-75761904D02*
X176478628Y-75857142D01*
X176478628Y-75857142D02*
X176478628Y-76238094D01*
X176954819Y-74714285D02*
X176954819Y-75285713D01*
X176954819Y-74999999D02*
X175954819Y-74999999D01*
X175954819Y-74999999D02*
X176097676Y-75095237D01*
X176097676Y-75095237D02*
X176192914Y-75190475D01*
X176192914Y-75190475D02*
X176240533Y-75285713D01*
X207364761Y-109770057D02*
X207269523Y-109722438D01*
X207269523Y-109722438D02*
X207174285Y-109627200D01*
X207174285Y-109627200D02*
X207031428Y-109484342D01*
X207031428Y-109484342D02*
X206936190Y-109436723D01*
X206936190Y-109436723D02*
X206840952Y-109436723D01*
X206888571Y-109674819D02*
X206793333Y-109627200D01*
X206793333Y-109627200D02*
X206698095Y-109531961D01*
X206698095Y-109531961D02*
X206650476Y-109341485D01*
X206650476Y-109341485D02*
X206650476Y-109008152D01*
X206650476Y-109008152D02*
X206698095Y-108817676D01*
X206698095Y-108817676D02*
X206793333Y-108722438D01*
X206793333Y-108722438D02*
X206888571Y-108674819D01*
X206888571Y-108674819D02*
X207079047Y-108674819D01*
X207079047Y-108674819D02*
X207174285Y-108722438D01*
X207174285Y-108722438D02*
X207269523Y-108817676D01*
X207269523Y-108817676D02*
X207317142Y-109008152D01*
X207317142Y-109008152D02*
X207317142Y-109341485D01*
X207317142Y-109341485D02*
X207269523Y-109531961D01*
X207269523Y-109531961D02*
X207174285Y-109627200D01*
X207174285Y-109627200D02*
X207079047Y-109674819D01*
X207079047Y-109674819D02*
X206888571Y-109674819D01*
X208269523Y-109674819D02*
X207698095Y-109674819D01*
X207983809Y-109674819D02*
X207983809Y-108674819D01*
X207983809Y-108674819D02*
X207888571Y-108817676D01*
X207888571Y-108817676D02*
X207793333Y-108912914D01*
X207793333Y-108912914D02*
X207698095Y-108960533D01*
X224666666Y-97454819D02*
X224666666Y-98169104D01*
X224666666Y-98169104D02*
X224619047Y-98311961D01*
X224619047Y-98311961D02*
X224523809Y-98407200D01*
X224523809Y-98407200D02*
X224380952Y-98454819D01*
X224380952Y-98454819D02*
X224285714Y-98454819D01*
X225666666Y-98454819D02*
X225095238Y-98454819D01*
X225380952Y-98454819D02*
X225380952Y-97454819D01*
X225380952Y-97454819D02*
X225285714Y-97597676D01*
X225285714Y-97597676D02*
X225190476Y-97692914D01*
X225190476Y-97692914D02*
X225095238Y-97740533D01*
X198286880Y-102666666D02*
X198334500Y-102714285D01*
X198334500Y-102714285D02*
X198382119Y-102857142D01*
X198382119Y-102857142D02*
X198382119Y-102952380D01*
X198382119Y-102952380D02*
X198334500Y-103095237D01*
X198334500Y-103095237D02*
X198239261Y-103190475D01*
X198239261Y-103190475D02*
X198144023Y-103238094D01*
X198144023Y-103238094D02*
X197953547Y-103285713D01*
X197953547Y-103285713D02*
X197810690Y-103285713D01*
X197810690Y-103285713D02*
X197620214Y-103238094D01*
X197620214Y-103238094D02*
X197524976Y-103190475D01*
X197524976Y-103190475D02*
X197429738Y-103095237D01*
X197429738Y-103095237D02*
X197382119Y-102952380D01*
X197382119Y-102952380D02*
X197382119Y-102857142D01*
X197382119Y-102857142D02*
X197429738Y-102714285D01*
X197429738Y-102714285D02*
X197477357Y-102666666D01*
X197382119Y-102333332D02*
X197382119Y-101714285D01*
X197382119Y-101714285D02*
X197763071Y-102047618D01*
X197763071Y-102047618D02*
X197763071Y-101904761D01*
X197763071Y-101904761D02*
X197810690Y-101809523D01*
X197810690Y-101809523D02*
X197858309Y-101761904D01*
X197858309Y-101761904D02*
X197953547Y-101714285D01*
X197953547Y-101714285D02*
X198191642Y-101714285D01*
X198191642Y-101714285D02*
X198286880Y-101761904D01*
X198286880Y-101761904D02*
X198334500Y-101809523D01*
X198334500Y-101809523D02*
X198382119Y-101904761D01*
X198382119Y-101904761D02*
X198382119Y-102190475D01*
X198382119Y-102190475D02*
X198334500Y-102285713D01*
X198334500Y-102285713D02*
X198286880Y-102333332D01*
X197333333Y-75189580D02*
X197285714Y-75237200D01*
X197285714Y-75237200D02*
X197142857Y-75284819D01*
X197142857Y-75284819D02*
X197047619Y-75284819D01*
X197047619Y-75284819D02*
X196904762Y-75237200D01*
X196904762Y-75237200D02*
X196809524Y-75141961D01*
X196809524Y-75141961D02*
X196761905Y-75046723D01*
X196761905Y-75046723D02*
X196714286Y-74856247D01*
X196714286Y-74856247D02*
X196714286Y-74713390D01*
X196714286Y-74713390D02*
X196761905Y-74522914D01*
X196761905Y-74522914D02*
X196809524Y-74427676D01*
X196809524Y-74427676D02*
X196904762Y-74332438D01*
X196904762Y-74332438D02*
X197047619Y-74284819D01*
X197047619Y-74284819D02*
X197142857Y-74284819D01*
X197142857Y-74284819D02*
X197285714Y-74332438D01*
X197285714Y-74332438D02*
X197333333Y-74380057D01*
X198190476Y-74618152D02*
X198190476Y-75284819D01*
X197952381Y-74237200D02*
X197714286Y-74951485D01*
X197714286Y-74951485D02*
X198333333Y-74951485D01*
X188585714Y-72954819D02*
X188585714Y-71954819D01*
X188585714Y-71954819D02*
X188966666Y-71954819D01*
X188966666Y-71954819D02*
X189061904Y-72002438D01*
X189061904Y-72002438D02*
X189109523Y-72050057D01*
X189109523Y-72050057D02*
X189157142Y-72145295D01*
X189157142Y-72145295D02*
X189157142Y-72288152D01*
X189157142Y-72288152D02*
X189109523Y-72383390D01*
X189109523Y-72383390D02*
X189061904Y-72431009D01*
X189061904Y-72431009D02*
X188966666Y-72478628D01*
X188966666Y-72478628D02*
X188585714Y-72478628D01*
X190157142Y-72954819D02*
X189823809Y-72478628D01*
X189585714Y-72954819D02*
X189585714Y-71954819D01*
X189585714Y-71954819D02*
X189966666Y-71954819D01*
X189966666Y-71954819D02*
X190061904Y-72002438D01*
X190061904Y-72002438D02*
X190109523Y-72050057D01*
X190109523Y-72050057D02*
X190157142Y-72145295D01*
X190157142Y-72145295D02*
X190157142Y-72288152D01*
X190157142Y-72288152D02*
X190109523Y-72383390D01*
X190109523Y-72383390D02*
X190061904Y-72431009D01*
X190061904Y-72431009D02*
X189966666Y-72478628D01*
X189966666Y-72478628D02*
X189585714Y-72478628D01*
X191157142Y-72859580D02*
X191109523Y-72907200D01*
X191109523Y-72907200D02*
X190966666Y-72954819D01*
X190966666Y-72954819D02*
X190871428Y-72954819D01*
X190871428Y-72954819D02*
X190728571Y-72907200D01*
X190728571Y-72907200D02*
X190633333Y-72811961D01*
X190633333Y-72811961D02*
X190585714Y-72716723D01*
X190585714Y-72716723D02*
X190538095Y-72526247D01*
X190538095Y-72526247D02*
X190538095Y-72383390D01*
X190538095Y-72383390D02*
X190585714Y-72192914D01*
X190585714Y-72192914D02*
X190633333Y-72097676D01*
X190633333Y-72097676D02*
X190728571Y-72002438D01*
X190728571Y-72002438D02*
X190871428Y-71954819D01*
X190871428Y-71954819D02*
X190966666Y-71954819D01*
X190966666Y-71954819D02*
X191109523Y-72002438D01*
X191109523Y-72002438D02*
X191157142Y-72050057D01*
X191585714Y-72954819D02*
X191585714Y-71954819D01*
X191585714Y-72431009D02*
X192157142Y-72431009D01*
X192157142Y-72954819D02*
X192157142Y-71954819D01*
X193204761Y-72954819D02*
X192871428Y-72478628D01*
X192633333Y-72954819D02*
X192633333Y-71954819D01*
X192633333Y-71954819D02*
X193014285Y-71954819D01*
X193014285Y-71954819D02*
X193109523Y-72002438D01*
X193109523Y-72002438D02*
X193157142Y-72050057D01*
X193157142Y-72050057D02*
X193204761Y-72145295D01*
X193204761Y-72145295D02*
X193204761Y-72288152D01*
X193204761Y-72288152D02*
X193157142Y-72383390D01*
X193157142Y-72383390D02*
X193109523Y-72431009D01*
X193109523Y-72431009D02*
X193014285Y-72478628D01*
X193014285Y-72478628D02*
X192633333Y-72478628D01*
X194157142Y-72002438D02*
X194061904Y-71954819D01*
X194061904Y-71954819D02*
X193919047Y-71954819D01*
X193919047Y-71954819D02*
X193776190Y-72002438D01*
X193776190Y-72002438D02*
X193680952Y-72097676D01*
X193680952Y-72097676D02*
X193633333Y-72192914D01*
X193633333Y-72192914D02*
X193585714Y-72383390D01*
X193585714Y-72383390D02*
X193585714Y-72526247D01*
X193585714Y-72526247D02*
X193633333Y-72716723D01*
X193633333Y-72716723D02*
X193680952Y-72811961D01*
X193680952Y-72811961D02*
X193776190Y-72907200D01*
X193776190Y-72907200D02*
X193919047Y-72954819D01*
X193919047Y-72954819D02*
X194014285Y-72954819D01*
X194014285Y-72954819D02*
X194157142Y-72907200D01*
X194157142Y-72907200D02*
X194204761Y-72859580D01*
X194204761Y-72859580D02*
X194204761Y-72526247D01*
X194204761Y-72526247D02*
X194014285Y-72526247D01*
X194395238Y-73050057D02*
X195157142Y-73050057D01*
X195395238Y-72954819D02*
X195395238Y-71954819D01*
X195395238Y-72431009D02*
X195966666Y-72431009D01*
X195966666Y-72954819D02*
X195966666Y-71954819D01*
X196442857Y-72954819D02*
X196442857Y-71954819D01*
X196442857Y-72431009D02*
X197014285Y-72431009D01*
X197014285Y-72954819D02*
X197014285Y-71954819D01*
X207404761Y-92050057D02*
X207309523Y-92002438D01*
X207309523Y-92002438D02*
X207214285Y-91907200D01*
X207214285Y-91907200D02*
X207071428Y-91764342D01*
X207071428Y-91764342D02*
X206976190Y-91716723D01*
X206976190Y-91716723D02*
X206880952Y-91716723D01*
X206928571Y-91954819D02*
X206833333Y-91907200D01*
X206833333Y-91907200D02*
X206738095Y-91811961D01*
X206738095Y-91811961D02*
X206690476Y-91621485D01*
X206690476Y-91621485D02*
X206690476Y-91288152D01*
X206690476Y-91288152D02*
X206738095Y-91097676D01*
X206738095Y-91097676D02*
X206833333Y-91002438D01*
X206833333Y-91002438D02*
X206928571Y-90954819D01*
X206928571Y-90954819D02*
X207119047Y-90954819D01*
X207119047Y-90954819D02*
X207214285Y-91002438D01*
X207214285Y-91002438D02*
X207309523Y-91097676D01*
X207309523Y-91097676D02*
X207357142Y-91288152D01*
X207357142Y-91288152D02*
X207357142Y-91621485D01*
X207357142Y-91621485D02*
X207309523Y-91811961D01*
X207309523Y-91811961D02*
X207214285Y-91907200D01*
X207214285Y-91907200D02*
X207119047Y-91954819D01*
X207119047Y-91954819D02*
X206928571Y-91954819D01*
X207690476Y-90954819D02*
X208309523Y-90954819D01*
X208309523Y-90954819D02*
X207976190Y-91335771D01*
X207976190Y-91335771D02*
X208119047Y-91335771D01*
X208119047Y-91335771D02*
X208214285Y-91383390D01*
X208214285Y-91383390D02*
X208261904Y-91431009D01*
X208261904Y-91431009D02*
X208309523Y-91526247D01*
X208309523Y-91526247D02*
X208309523Y-91764342D01*
X208309523Y-91764342D02*
X208261904Y-91859580D01*
X208261904Y-91859580D02*
X208214285Y-91907200D01*
X208214285Y-91907200D02*
X208119047Y-91954819D01*
X208119047Y-91954819D02*
X207833333Y-91954819D01*
X207833333Y-91954819D02*
X207738095Y-91907200D01*
X207738095Y-91907200D02*
X207690476Y-91859580D01*
X189638095Y-97754819D02*
X189638095Y-98564342D01*
X189638095Y-98564342D02*
X189685714Y-98659580D01*
X189685714Y-98659580D02*
X189733333Y-98707200D01*
X189733333Y-98707200D02*
X189828571Y-98754819D01*
X189828571Y-98754819D02*
X190019047Y-98754819D01*
X190019047Y-98754819D02*
X190114285Y-98707200D01*
X190114285Y-98707200D02*
X190161904Y-98659580D01*
X190161904Y-98659580D02*
X190209523Y-98564342D01*
X190209523Y-98564342D02*
X190209523Y-97754819D01*
X191209523Y-98754819D02*
X190638095Y-98754819D01*
X190923809Y-98754819D02*
X190923809Y-97754819D01*
X190923809Y-97754819D02*
X190828571Y-97897676D01*
X190828571Y-97897676D02*
X190733333Y-97992914D01*
X190733333Y-97992914D02*
X190638095Y-98040533D01*
X203666666Y-76381009D02*
X203333333Y-76381009D01*
X203333333Y-76904819D02*
X203333333Y-75904819D01*
X203333333Y-75904819D02*
X203809523Y-75904819D01*
X204523809Y-76381009D02*
X204666666Y-76428628D01*
X204666666Y-76428628D02*
X204714285Y-76476247D01*
X204714285Y-76476247D02*
X204761904Y-76571485D01*
X204761904Y-76571485D02*
X204761904Y-76714342D01*
X204761904Y-76714342D02*
X204714285Y-76809580D01*
X204714285Y-76809580D02*
X204666666Y-76857200D01*
X204666666Y-76857200D02*
X204571428Y-76904819D01*
X204571428Y-76904819D02*
X204190476Y-76904819D01*
X204190476Y-76904819D02*
X204190476Y-75904819D01*
X204190476Y-75904819D02*
X204523809Y-75904819D01*
X204523809Y-75904819D02*
X204619047Y-75952438D01*
X204619047Y-75952438D02*
X204666666Y-76000057D01*
X204666666Y-76000057D02*
X204714285Y-76095295D01*
X204714285Y-76095295D02*
X204714285Y-76190533D01*
X204714285Y-76190533D02*
X204666666Y-76285771D01*
X204666666Y-76285771D02*
X204619047Y-76333390D01*
X204619047Y-76333390D02*
X204523809Y-76381009D01*
X204523809Y-76381009D02*
X204190476Y-76381009D01*
X205714285Y-76904819D02*
X205142857Y-76904819D01*
X205428571Y-76904819D02*
X205428571Y-75904819D01*
X205428571Y-75904819D02*
X205333333Y-76047676D01*
X205333333Y-76047676D02*
X205238095Y-76142914D01*
X205238095Y-76142914D02*
X205142857Y-76190533D01*
X175461419Y-81712694D02*
X174461419Y-81712694D01*
X174461419Y-81712694D02*
X174461419Y-81474599D01*
X174461419Y-81474599D02*
X174509038Y-81331742D01*
X174509038Y-81331742D02*
X174604276Y-81236504D01*
X174604276Y-81236504D02*
X174699514Y-81188885D01*
X174699514Y-81188885D02*
X174889990Y-81141266D01*
X174889990Y-81141266D02*
X175032847Y-81141266D01*
X175032847Y-81141266D02*
X175223323Y-81188885D01*
X175223323Y-81188885D02*
X175318561Y-81236504D01*
X175318561Y-81236504D02*
X175413800Y-81331742D01*
X175413800Y-81331742D02*
X175461419Y-81474599D01*
X175461419Y-81474599D02*
X175461419Y-81712694D01*
X174461419Y-80807932D02*
X174461419Y-80188885D01*
X174461419Y-80188885D02*
X174842371Y-80522218D01*
X174842371Y-80522218D02*
X174842371Y-80379361D01*
X174842371Y-80379361D02*
X174889990Y-80284123D01*
X174889990Y-80284123D02*
X174937609Y-80236504D01*
X174937609Y-80236504D02*
X175032847Y-80188885D01*
X175032847Y-80188885D02*
X175270942Y-80188885D01*
X175270942Y-80188885D02*
X175366180Y-80236504D01*
X175366180Y-80236504D02*
X175413800Y-80284123D01*
X175413800Y-80284123D02*
X175461419Y-80379361D01*
X175461419Y-80379361D02*
X175461419Y-80665075D01*
X175461419Y-80665075D02*
X175413800Y-80760313D01*
X175413800Y-80760313D02*
X175366180Y-80807932D01*
X172454819Y-78459999D02*
X172692914Y-78459999D01*
X172597676Y-78698094D02*
X172692914Y-78459999D01*
X172692914Y-78459999D02*
X172597676Y-78221904D01*
X172883390Y-78602856D02*
X172692914Y-78459999D01*
X172692914Y-78459999D02*
X172883390Y-78317142D01*
X169954819Y-84333333D02*
X170669104Y-84333333D01*
X170669104Y-84333333D02*
X170811961Y-84380952D01*
X170811961Y-84380952D02*
X170907200Y-84476190D01*
X170907200Y-84476190D02*
X170954819Y-84619047D01*
X170954819Y-84619047D02*
X170954819Y-84714285D01*
X169954819Y-83952380D02*
X169954819Y-83333333D01*
X169954819Y-83333333D02*
X170335771Y-83666666D01*
X170335771Y-83666666D02*
X170335771Y-83523809D01*
X170335771Y-83523809D02*
X170383390Y-83428571D01*
X170383390Y-83428571D02*
X170431009Y-83380952D01*
X170431009Y-83380952D02*
X170526247Y-83333333D01*
X170526247Y-83333333D02*
X170764342Y-83333333D01*
X170764342Y-83333333D02*
X170859580Y-83380952D01*
X170859580Y-83380952D02*
X170907200Y-83428571D01*
X170907200Y-83428571D02*
X170954819Y-83523809D01*
X170954819Y-83523809D02*
X170954819Y-83809523D01*
X170954819Y-83809523D02*
X170907200Y-83904761D01*
X170907200Y-83904761D02*
X170859580Y-83952380D01*
X198286880Y-107716666D02*
X198334500Y-107764285D01*
X198334500Y-107764285D02*
X198382119Y-107907142D01*
X198382119Y-107907142D02*
X198382119Y-108002380D01*
X198382119Y-108002380D02*
X198334500Y-108145237D01*
X198334500Y-108145237D02*
X198239261Y-108240475D01*
X198239261Y-108240475D02*
X198144023Y-108288094D01*
X198144023Y-108288094D02*
X197953547Y-108335713D01*
X197953547Y-108335713D02*
X197810690Y-108335713D01*
X197810690Y-108335713D02*
X197620214Y-108288094D01*
X197620214Y-108288094D02*
X197524976Y-108240475D01*
X197524976Y-108240475D02*
X197429738Y-108145237D01*
X197429738Y-108145237D02*
X197382119Y-108002380D01*
X197382119Y-108002380D02*
X197382119Y-107907142D01*
X197382119Y-107907142D02*
X197429738Y-107764285D01*
X197429738Y-107764285D02*
X197477357Y-107716666D01*
X198382119Y-106764285D02*
X198382119Y-107335713D01*
X198382119Y-107049999D02*
X197382119Y-107049999D01*
X197382119Y-107049999D02*
X197524976Y-107145237D01*
X197524976Y-107145237D02*
X197620214Y-107240475D01*
X197620214Y-107240475D02*
X197667833Y-107335713D01*
X203634166Y-82481009D02*
X203300833Y-82481009D01*
X203300833Y-83004819D02*
X203300833Y-82004819D01*
X203300833Y-82004819D02*
X203777023Y-82004819D01*
X204491309Y-82481009D02*
X204634166Y-82528628D01*
X204634166Y-82528628D02*
X204681785Y-82576247D01*
X204681785Y-82576247D02*
X204729404Y-82671485D01*
X204729404Y-82671485D02*
X204729404Y-82814342D01*
X204729404Y-82814342D02*
X204681785Y-82909580D01*
X204681785Y-82909580D02*
X204634166Y-82957200D01*
X204634166Y-82957200D02*
X204538928Y-83004819D01*
X204538928Y-83004819D02*
X204157976Y-83004819D01*
X204157976Y-83004819D02*
X204157976Y-82004819D01*
X204157976Y-82004819D02*
X204491309Y-82004819D01*
X204491309Y-82004819D02*
X204586547Y-82052438D01*
X204586547Y-82052438D02*
X204634166Y-82100057D01*
X204634166Y-82100057D02*
X204681785Y-82195295D01*
X204681785Y-82195295D02*
X204681785Y-82290533D01*
X204681785Y-82290533D02*
X204634166Y-82385771D01*
X204634166Y-82385771D02*
X204586547Y-82433390D01*
X204586547Y-82433390D02*
X204491309Y-82481009D01*
X204491309Y-82481009D02*
X204157976Y-82481009D01*
X205110357Y-82100057D02*
X205157976Y-82052438D01*
X205157976Y-82052438D02*
X205253214Y-82004819D01*
X205253214Y-82004819D02*
X205491309Y-82004819D01*
X205491309Y-82004819D02*
X205586547Y-82052438D01*
X205586547Y-82052438D02*
X205634166Y-82100057D01*
X205634166Y-82100057D02*
X205681785Y-82195295D01*
X205681785Y-82195295D02*
X205681785Y-82290533D01*
X205681785Y-82290533D02*
X205634166Y-82433390D01*
X205634166Y-82433390D02*
X205062738Y-83004819D01*
X205062738Y-83004819D02*
X205681785Y-83004819D01*
X196705595Y-80964819D02*
X196705595Y-81774342D01*
X196705595Y-81774342D02*
X196753214Y-81869580D01*
X196753214Y-81869580D02*
X196800833Y-81917200D01*
X196800833Y-81917200D02*
X196896071Y-81964819D01*
X196896071Y-81964819D02*
X197086547Y-81964819D01*
X197086547Y-81964819D02*
X197181785Y-81917200D01*
X197181785Y-81917200D02*
X197229404Y-81869580D01*
X197229404Y-81869580D02*
X197277023Y-81774342D01*
X197277023Y-81774342D02*
X197277023Y-80964819D01*
X197705595Y-81060057D02*
X197753214Y-81012438D01*
X197753214Y-81012438D02*
X197848452Y-80964819D01*
X197848452Y-80964819D02*
X198086547Y-80964819D01*
X198086547Y-80964819D02*
X198181785Y-81012438D01*
X198181785Y-81012438D02*
X198229404Y-81060057D01*
X198229404Y-81060057D02*
X198277023Y-81155295D01*
X198277023Y-81155295D02*
X198277023Y-81250533D01*
X198277023Y-81250533D02*
X198229404Y-81393390D01*
X198229404Y-81393390D02*
X197657976Y-81964819D01*
X197657976Y-81964819D02*
X198277023Y-81964819D01*
X202059580Y-105266666D02*
X202107200Y-105314285D01*
X202107200Y-105314285D02*
X202154819Y-105457142D01*
X202154819Y-105457142D02*
X202154819Y-105552380D01*
X202154819Y-105552380D02*
X202107200Y-105695237D01*
X202107200Y-105695237D02*
X202011961Y-105790475D01*
X202011961Y-105790475D02*
X201916723Y-105838094D01*
X201916723Y-105838094D02*
X201726247Y-105885713D01*
X201726247Y-105885713D02*
X201583390Y-105885713D01*
X201583390Y-105885713D02*
X201392914Y-105838094D01*
X201392914Y-105838094D02*
X201297676Y-105790475D01*
X201297676Y-105790475D02*
X201202438Y-105695237D01*
X201202438Y-105695237D02*
X201154819Y-105552380D01*
X201154819Y-105552380D02*
X201154819Y-105457142D01*
X201154819Y-105457142D02*
X201202438Y-105314285D01*
X201202438Y-105314285D02*
X201250057Y-105266666D01*
X201250057Y-104885713D02*
X201202438Y-104838094D01*
X201202438Y-104838094D02*
X201154819Y-104742856D01*
X201154819Y-104742856D02*
X201154819Y-104504761D01*
X201154819Y-104504761D02*
X201202438Y-104409523D01*
X201202438Y-104409523D02*
X201250057Y-104361904D01*
X201250057Y-104361904D02*
X201345295Y-104314285D01*
X201345295Y-104314285D02*
X201440533Y-104314285D01*
X201440533Y-104314285D02*
X201583390Y-104361904D01*
X201583390Y-104361904D02*
X202154819Y-104933332D01*
X202154819Y-104933332D02*
X202154819Y-104314285D01*
X187304819Y-146166666D02*
X186828628Y-146499999D01*
X187304819Y-146738094D02*
X186304819Y-146738094D01*
X186304819Y-146738094D02*
X186304819Y-146357142D01*
X186304819Y-146357142D02*
X186352438Y-146261904D01*
X186352438Y-146261904D02*
X186400057Y-146214285D01*
X186400057Y-146214285D02*
X186495295Y-146166666D01*
X186495295Y-146166666D02*
X186638152Y-146166666D01*
X186638152Y-146166666D02*
X186733390Y-146214285D01*
X186733390Y-146214285D02*
X186781009Y-146261904D01*
X186781009Y-146261904D02*
X186828628Y-146357142D01*
X186828628Y-146357142D02*
X186828628Y-146738094D01*
X186638152Y-145309523D02*
X187304819Y-145309523D01*
X186257200Y-145547618D02*
X186971485Y-145785713D01*
X186971485Y-145785713D02*
X186971485Y-145166666D01*
X200833333Y-77369580D02*
X200785714Y-77417200D01*
X200785714Y-77417200D02*
X200642857Y-77464819D01*
X200642857Y-77464819D02*
X200547619Y-77464819D01*
X200547619Y-77464819D02*
X200404762Y-77417200D01*
X200404762Y-77417200D02*
X200309524Y-77321961D01*
X200309524Y-77321961D02*
X200261905Y-77226723D01*
X200261905Y-77226723D02*
X200214286Y-77036247D01*
X200214286Y-77036247D02*
X200214286Y-76893390D01*
X200214286Y-76893390D02*
X200261905Y-76702914D01*
X200261905Y-76702914D02*
X200309524Y-76607676D01*
X200309524Y-76607676D02*
X200404762Y-76512438D01*
X200404762Y-76512438D02*
X200547619Y-76464819D01*
X200547619Y-76464819D02*
X200642857Y-76464819D01*
X200642857Y-76464819D02*
X200785714Y-76512438D01*
X200785714Y-76512438D02*
X200833333Y-76560057D01*
X201166667Y-76464819D02*
X201833333Y-76464819D01*
X201833333Y-76464819D02*
X201404762Y-77464819D01*
X218304819Y-105238094D02*
X217304819Y-105238094D01*
X217304819Y-105238094D02*
X217304819Y-104999999D01*
X217304819Y-104999999D02*
X217352438Y-104857142D01*
X217352438Y-104857142D02*
X217447676Y-104761904D01*
X217447676Y-104761904D02*
X217542914Y-104714285D01*
X217542914Y-104714285D02*
X217733390Y-104666666D01*
X217733390Y-104666666D02*
X217876247Y-104666666D01*
X217876247Y-104666666D02*
X218066723Y-104714285D01*
X218066723Y-104714285D02*
X218161961Y-104761904D01*
X218161961Y-104761904D02*
X218257200Y-104857142D01*
X218257200Y-104857142D02*
X218304819Y-104999999D01*
X218304819Y-104999999D02*
X218304819Y-105238094D01*
X218304819Y-103714285D02*
X218304819Y-104285713D01*
X218304819Y-103999999D02*
X217304819Y-103999999D01*
X217304819Y-103999999D02*
X217447676Y-104095237D01*
X217447676Y-104095237D02*
X217542914Y-104190475D01*
X217542914Y-104190475D02*
X217590533Y-104285713D01*
X181088469Y-102666666D02*
X180612278Y-102999999D01*
X181088469Y-103238094D02*
X180088469Y-103238094D01*
X180088469Y-103238094D02*
X180088469Y-102857142D01*
X180088469Y-102857142D02*
X180136088Y-102761904D01*
X180136088Y-102761904D02*
X180183707Y-102714285D01*
X180183707Y-102714285D02*
X180278945Y-102666666D01*
X180278945Y-102666666D02*
X180421802Y-102666666D01*
X180421802Y-102666666D02*
X180517040Y-102714285D01*
X180517040Y-102714285D02*
X180564659Y-102761904D01*
X180564659Y-102761904D02*
X180612278Y-102857142D01*
X180612278Y-102857142D02*
X180612278Y-103238094D01*
X180088469Y-101761904D02*
X180088469Y-102238094D01*
X180088469Y-102238094D02*
X180564659Y-102285713D01*
X180564659Y-102285713D02*
X180517040Y-102238094D01*
X180517040Y-102238094D02*
X180469421Y-102142856D01*
X180469421Y-102142856D02*
X180469421Y-101904761D01*
X180469421Y-101904761D02*
X180517040Y-101809523D01*
X180517040Y-101809523D02*
X180564659Y-101761904D01*
X180564659Y-101761904D02*
X180659897Y-101714285D01*
X180659897Y-101714285D02*
X180897992Y-101714285D01*
X180897992Y-101714285D02*
X180993230Y-101761904D01*
X180993230Y-101761904D02*
X181040850Y-101809523D01*
X181040850Y-101809523D02*
X181088469Y-101904761D01*
X181088469Y-101904761D02*
X181088469Y-102142856D01*
X181088469Y-102142856D02*
X181040850Y-102238094D01*
X181040850Y-102238094D02*
X180993230Y-102285713D01*
X169666666Y-136454819D02*
X169666666Y-137169104D01*
X169666666Y-137169104D02*
X169619047Y-137311961D01*
X169619047Y-137311961D02*
X169523809Y-137407200D01*
X169523809Y-137407200D02*
X169380952Y-137454819D01*
X169380952Y-137454819D02*
X169285714Y-137454819D01*
X170571428Y-136788152D02*
X170571428Y-137454819D01*
X170333333Y-136407200D02*
X170095238Y-137121485D01*
X170095238Y-137121485D02*
X170714285Y-137121485D01*
D10*
X181323650Y-109360000D02*
X183243650Y-109360000D01*
X183243650Y-109360000D02*
X183243650Y-106500000D01*
X181323650Y-106500000D02*
X181323650Y-109360000D01*
X175540000Y-85772500D02*
X177460000Y-85772500D01*
X177460000Y-85772500D02*
X177460000Y-82912500D01*
X175540000Y-82912500D02*
X175540000Y-85772500D01*
X228710000Y-79565000D02*
X229710000Y-80565000D01*
X219590000Y-79565000D02*
X228710000Y-79565000D01*
X219590000Y-79565000D02*
X219590000Y-81990000D01*
X229710000Y-80565000D02*
X229710000Y-88435000D01*
X219590000Y-84010000D02*
X219590000Y-85348233D01*
X229710000Y-88435000D02*
X228710000Y-89435000D01*
X228710000Y-89435000D02*
X219590000Y-89435000D01*
X219590000Y-89435000D02*
X219590000Y-86651767D01*
X181240000Y-76290000D02*
X181240000Y-77035000D01*
X181240000Y-77035000D02*
X179550000Y-77035000D01*
X181240000Y-82710000D02*
X181240000Y-81965000D01*
X184000000Y-76290000D02*
X181240000Y-76290000D01*
X184000000Y-76290000D02*
X186760000Y-76290000D01*
X184000000Y-82710000D02*
X181240000Y-82710000D01*
X184000000Y-82710000D02*
X186760000Y-82710000D01*
X186760000Y-76290000D02*
X186760000Y-77035000D01*
X186760000Y-82710000D02*
X186760000Y-81965000D01*
X216325000Y-86772936D02*
X216325000Y-87227064D01*
X214855000Y-86772936D02*
X214855000Y-87227064D01*
X187765000Y-140727064D02*
X187765000Y-140272936D01*
X189235000Y-140727064D02*
X189235000Y-140272936D01*
X175765000Y-78639564D02*
X175765000Y-78185436D01*
X177235000Y-78639564D02*
X177235000Y-78185436D01*
X210770000Y-108170000D02*
X210770000Y-107900000D01*
X210770000Y-107900000D02*
X213600000Y-107900000D01*
X210770000Y-101540000D02*
X211870000Y-101540000D01*
X210770000Y-101270000D02*
X210770000Y-101540000D01*
X204350000Y-108170000D02*
X210770000Y-108170000D01*
X204350000Y-101270000D02*
X210770000Y-101270000D01*
X228710000Y-99565000D02*
X229710000Y-100565000D01*
X219590000Y-99565000D02*
X228710000Y-99565000D01*
X219590000Y-99565000D02*
X219590000Y-101990000D01*
X229710000Y-100565000D02*
X229710000Y-108435000D01*
X219590000Y-104010000D02*
X219590000Y-105348233D01*
X229710000Y-108435000D02*
X228710000Y-109435000D01*
X228710000Y-109435000D02*
X219590000Y-109435000D01*
X219590000Y-109435000D02*
X219590000Y-106651767D01*
X196982300Y-102238748D02*
X196982300Y-102761252D01*
X195512300Y-102238748D02*
X195512300Y-102761252D01*
X197238748Y-75775000D02*
X197761252Y-75775000D01*
X197238748Y-77245000D02*
X197761252Y-77245000D01*
D12*
X194550000Y-76500000D02*
G75*
G03*
X194550000Y-76500000I-1750000J0D01*
G01*
D10*
X210810000Y-90450000D02*
X210810000Y-90180000D01*
X210810000Y-90180000D02*
X213640000Y-90180000D01*
X210810000Y-83820000D02*
X211910000Y-83820000D01*
X210810000Y-83550000D02*
X210810000Y-83820000D01*
X204390000Y-90450000D02*
X210810000Y-90450000D01*
X204390000Y-83550000D02*
X210810000Y-83550000D01*
D12*
X186697300Y-110800000D02*
X186697300Y-99300000D01*
X194297300Y-110800000D02*
X186697300Y-110800000D01*
X186697300Y-99300000D02*
X194297300Y-99300000D01*
X194297300Y-99300000D02*
X194297300Y-110800000D01*
D10*
X204100378Y-77440000D02*
X204899622Y-77440000D01*
X204100378Y-78560000D02*
X204899622Y-78560000D01*
D15*
X171920500Y-79425200D02*
X171920500Y-82574800D01*
X174079500Y-82574800D02*
X174079500Y-79425200D01*
D12*
X170000000Y-75000000D02*
X170000000Y-78000000D01*
X165100000Y-75000000D02*
X170000000Y-75000000D01*
X170000000Y-78000000D02*
X169000000Y-78000000D01*
X169000000Y-78000000D02*
X169000000Y-90000000D01*
X170000000Y-90000000D02*
X170000000Y-93000000D01*
X169000000Y-90000000D02*
X170000000Y-90000000D01*
X170000000Y-93000000D02*
X165100000Y-93000000D01*
X165100000Y-93000000D02*
X165100000Y-75000000D01*
D10*
X196982300Y-107288748D02*
X196982300Y-107811252D01*
X195512300Y-107288748D02*
X195512300Y-107811252D01*
X204867122Y-81560000D02*
X204067878Y-81560000D01*
X204867122Y-80440000D02*
X204067878Y-80440000D01*
X198167500Y-78340000D02*
X196767500Y-78340000D01*
X196767500Y-80660000D02*
X198667500Y-80660000D01*
D12*
X216750000Y-99000000D02*
G75*
G03*
X216750000Y-99000000I-1750000J0D01*
G01*
D10*
X199265000Y-105261252D02*
X199265000Y-104738748D01*
X200735000Y-105261252D02*
X200735000Y-104738748D01*
X187765000Y-146227064D02*
X187765000Y-145772936D01*
X189235000Y-146227064D02*
X189235000Y-145772936D01*
X201735000Y-79248748D02*
X201735000Y-79771252D01*
X200265000Y-79248748D02*
X200265000Y-79771252D01*
D12*
X216750000Y-110500000D02*
G75*
G03*
X216750000Y-110500000I-1750000J0D01*
G01*
D10*
X216850000Y-102890000D02*
X215150000Y-102890000D01*
X216850000Y-102890000D02*
X216850000Y-105550000D01*
X215150000Y-102890000D02*
X215150000Y-105550000D01*
X181548650Y-102727064D02*
X181548650Y-102272936D01*
X183018650Y-102727064D02*
X183018650Y-102272936D01*
X165940000Y-147935000D02*
X164940000Y-146935000D01*
X175060000Y-147935000D02*
X165940000Y-147935000D01*
X175060000Y-147935000D02*
X175060000Y-145510000D01*
X164940000Y-146935000D02*
X164940000Y-139065000D01*
X175060000Y-143490000D02*
X175060000Y-142151767D01*
X164940000Y-139065000D02*
X165940000Y-138065000D01*
X165940000Y-138065000D02*
X175060000Y-138065000D01*
X175060000Y-138065000D02*
X175060000Y-140848233D01*
%LPC*%
D16*
X182283650Y-108525000D03*
X182283650Y-106475000D03*
X176500000Y-84937500D03*
X176500000Y-82887500D03*
D17*
X227000000Y-165000000D03*
X227000000Y-71000000D03*
X225000000Y-84500000D03*
D18*
X220680000Y-83000000D03*
D19*
X220680000Y-86000000D03*
D20*
X180500000Y-77595000D03*
X180500000Y-78865000D03*
X180500000Y-80135000D03*
X180500000Y-81405000D03*
X187500000Y-81405000D03*
X187500000Y-80135000D03*
X187500000Y-78865000D03*
X187500000Y-77595000D03*
D21*
X215590000Y-86000000D03*
X215590000Y-88000000D03*
D22*
X188500000Y-141412500D03*
X188500000Y-139587500D03*
X176500000Y-79325000D03*
X176500000Y-77500000D03*
D23*
X212500000Y-107000000D03*
D24*
X206200000Y-104720000D03*
D23*
X212500000Y-102440000D03*
D25*
X226000000Y-158000000D03*
D17*
X167000000Y-165000000D03*
X225000000Y-104500000D03*
D18*
X220680000Y-103000000D03*
D19*
X220680000Y-106000000D03*
D17*
X167000000Y-71000000D03*
X167000000Y-121000000D03*
D26*
X217400000Y-158200000D03*
X196000000Y-118500000D03*
D25*
X177000000Y-120500000D03*
D27*
X196247300Y-101550000D03*
X196247300Y-103450000D03*
D28*
X196550000Y-76510000D03*
X198450000Y-76510000D03*
D29*
X192800000Y-76500000D03*
D23*
X212540000Y-89280000D03*
D24*
X206240000Y-87000000D03*
D23*
X212540000Y-84720000D03*
D30*
X193027300Y-108860000D03*
X193027300Y-106320000D03*
X193027300Y-103780000D03*
X193027300Y-101240000D03*
D31*
X203437500Y-78000000D03*
X205562500Y-78000000D03*
D32*
X173000000Y-79361700D03*
X173000000Y-82638300D03*
D33*
X168960000Y-76500000D03*
X168960000Y-91500000D03*
D34*
X167000000Y-79500000D03*
X167000000Y-82500000D03*
X167000000Y-85500000D03*
X167000000Y-88500000D03*
D27*
X196247300Y-106600000D03*
X196247300Y-108500000D03*
D35*
X205530000Y-81000000D03*
X203405000Y-81000000D03*
D36*
X198417500Y-80150000D03*
X198417500Y-79500000D03*
X198417500Y-78850000D03*
X196517500Y-78850000D03*
X196517500Y-79500000D03*
X196517500Y-80150000D03*
D29*
X215000000Y-99000000D03*
D37*
X200000000Y-105950000D03*
X200000000Y-104050000D03*
D22*
X188500000Y-146912500D03*
X188500000Y-145087500D03*
D27*
X201000000Y-78560000D03*
X201000000Y-80460000D03*
D29*
X215000000Y-110500000D03*
D38*
X216000000Y-103450000D03*
X216000000Y-105550000D03*
D22*
X182283650Y-103412500D03*
X182283650Y-101587500D03*
D17*
X169650000Y-143000000D03*
D39*
X173970000Y-144500000D03*
D19*
X173970000Y-141500000D03*
%LPD*%
M02*
