M48
; DRILL file {KiCad 8.0.1} date 2024-11-23T23:09:43-0600
; FORMAT={-:-/ absolute / metric / decimal}
; #@! TF.CreationDate,2024-11-23T23:09:43-06:00
; #@! TF.GenerationSoftware,Kicad,Pcbnew,8.0.1
; #@! TF.FileFunction,Plated,1,2,PTH
FMAT,2
METRIC
; #@! TA.AperFunction,Plated,PTH,ViaDrill
T1C0.400
; #@! TA.AperFunction,Plated,PTH,ComponentDrill
T2C1.020
; #@! TA.AperFunction,Plated,PTH,ComponentDrill
T3C1.600
%
G90
G05
T1
X132.642Y-91.426
X135.5Y-109.1
X135.5Y-121.8
X135.7Y-96.4
X137.468Y-109.079
X137.468Y-121.778
X137.62Y-96.404
X138.535Y-94.169
X139.55Y-125.05
X142.475Y-93.441
X143.525Y-103.525
X143.9Y-116.175
X143.95Y-128.925
X145.375Y-121.35
X145.388Y-96.025
X145.4Y-108.575
X145.8Y-116.0
X145.8Y-128.9
X145.9Y-103.4
X159.82Y-91.299
T2
X120.4Y-110.125
X120.4Y-122.91
X120.5Y-97.45
X123.4Y-110.125
X123.4Y-122.91
X123.5Y-97.45
X126.4Y-110.125
X126.4Y-122.91
X126.5Y-97.45
X127.4Y-132.39
X129.4Y-110.125
X129.4Y-122.91
X129.5Y-97.45
X130.4Y-132.39
X134.471Y-86.295
X135.1Y-139.275
X137.471Y-86.295
X138.1Y-139.275
X147.1Y-139.19
X150.1Y-139.19
X152.7Y-97.45
X152.7Y-110.125
X152.7Y-122.91
X154.7Y-132.015
X155.7Y-97.45
X155.7Y-110.125
X155.7Y-122.91
X157.7Y-132.015
X158.7Y-97.45
X158.7Y-110.125
X158.7Y-122.91
X161.7Y-97.45
X161.7Y-110.125
X161.7Y-122.91
T3
X147.755Y-85.533
X152.225Y-85.482
M30
