%TF.GenerationSoftware,KiCad,Pcbnew,8.0.1*%
%TF.CreationDate,2024-11-23T23:09:50-06:00*%
%TF.ProjectId,ContactorDriver,436f6e74-6163-4746-9f72-447269766572,rev?*%
%TF.SameCoordinates,Original*%
%TF.FileFunction,Drillmap*%
%TF.FilePolarity,Positive*%
%FSLAX45Y45*%
G04 Gerber Fmt 4.5, Leading zero omitted, Abs format (unit mm)*
G04 Created by KiCad (PCBNEW 8.0.1) date 2024-11-23 23:09:50*
%MOMM*%
%LPD*%
G01*
G04 APERTURE LIST*
%ADD10C,0.050000*%
%ADD11C,0.200000*%
%ADD12C,0.127000*%
%ADD13C,0.300000*%
G04 APERTURE END LIST*
D10*
X16300000Y-8307487D02*
G75*
G02*
X16650003Y-8657487I0J-350003D01*
G01*
X11580000Y-8650000D02*
G75*
G02*
X11930000Y-8307410I350000J-7490D01*
G01*
X11580000Y-8650000D02*
X11580000Y-14042513D01*
X16650000Y-14050000D02*
X16650000Y-8657487D01*
X11930000Y-14392513D02*
X16300000Y-14392513D01*
X16650000Y-14050000D02*
G75*
G02*
X16300000Y-14392590I-350000J7490D01*
G01*
X11930000Y-8307487D02*
X16300000Y-8307487D01*
X11930000Y-14392513D02*
G75*
G02*
X11579997Y-14042513I0J350003D01*
G01*
D11*
D12*
X11676500Y-11145000D02*
X11803500Y-11272000D01*
X11803500Y-11145000D02*
X11676500Y-11272000D01*
X11676500Y-12423500D02*
X11803500Y-12550500D01*
X11803500Y-12423500D02*
X11676500Y-12550500D01*
X11686500Y-9877500D02*
X11813500Y-10004500D01*
X11813500Y-9877500D02*
X11686500Y-10004500D01*
X12376500Y-13371500D02*
X12503500Y-13498500D01*
X12503500Y-13371500D02*
X12376500Y-13498500D01*
X13083580Y-8370020D02*
X13210580Y-8497020D01*
X13210580Y-8370020D02*
X13083580Y-8497020D01*
X13146500Y-14060000D02*
X13273500Y-14187000D01*
X13273500Y-14060000D02*
X13146500Y-14187000D01*
X13176500Y-11145000D02*
X13303500Y-11272000D01*
X13303500Y-11145000D02*
X13176500Y-11272000D01*
X13176500Y-12423500D02*
X13303500Y-12550500D01*
X13303500Y-12423500D02*
X13176500Y-12550500D01*
X13186500Y-9877500D02*
X13313500Y-10004500D01*
X13313500Y-9877500D02*
X13186500Y-10004500D01*
X13276500Y-13371500D02*
X13403500Y-13498500D01*
X13403500Y-13371500D02*
X13276500Y-13498500D01*
X13983580Y-8370020D02*
X14110580Y-8497020D01*
X14110580Y-8370020D02*
X13983580Y-8497020D01*
X14046500Y-14060000D02*
X14173500Y-14187000D01*
X14173500Y-14060000D02*
X14046500Y-14187000D01*
X14346500Y-14051500D02*
X14473500Y-14178500D01*
X14473500Y-14051500D02*
X14346500Y-14178500D01*
X14906500Y-9877500D02*
X15033500Y-10004500D01*
X15033500Y-9877500D02*
X14906500Y-10004500D01*
X14906500Y-11145000D02*
X15033500Y-11272000D01*
X15033500Y-11145000D02*
X14906500Y-11272000D01*
X14906500Y-12423500D02*
X15033500Y-12550500D01*
X15033500Y-12423500D02*
X14906500Y-12550500D01*
X15106500Y-13334000D02*
X15233500Y-13461000D01*
X15233500Y-13334000D02*
X15106500Y-13461000D01*
X15246500Y-14051500D02*
X15373500Y-14178500D01*
X15373500Y-14051500D02*
X15246500Y-14178500D01*
X16006500Y-13334000D02*
X16133500Y-13461000D01*
X16133500Y-13334000D02*
X16006500Y-13461000D01*
X16406500Y-9877500D02*
X16533500Y-10004500D01*
X16533500Y-9877500D02*
X16406500Y-10004500D01*
X16406500Y-11145000D02*
X16533500Y-11272000D01*
X16533500Y-11145000D02*
X16406500Y-11272000D01*
X16406500Y-12423500D02*
X16533500Y-12550500D01*
X16533500Y-12423500D02*
X16406500Y-12550500D01*
D13*
X12080000Y-8660000D02*
G75*
G02*
X11780000Y-8660000I-150000J0D01*
G01*
X11780000Y-8660000D02*
G75*
G02*
X12080000Y-8660000I150000J0D01*
G01*
X12080000Y-14030000D02*
G75*
G02*
X11780000Y-14030000I-150000J0D01*
G01*
X11780000Y-14030000D02*
G75*
G02*
X12080000Y-14030000I150000J0D01*
G01*
X16450000Y-8660000D02*
G75*
G02*
X16150000Y-8660000I-150000J0D01*
G01*
X16150000Y-8660000D02*
G75*
G02*
X16450000Y-8660000I150000J0D01*
G01*
X16450000Y-14030000D02*
G75*
G02*
X16150000Y-14030000I-150000J0D01*
G01*
X16150000Y-14030000D02*
G75*
G02*
X16450000Y-14030000I150000J0D01*
G01*
D11*
X11838276Y-14706576D02*
X11838276Y-14506576D01*
X11838276Y-14506576D02*
X11885895Y-14506576D01*
X11885895Y-14506576D02*
X11914467Y-14516100D01*
X11914467Y-14516100D02*
X11933515Y-14535148D01*
X11933515Y-14535148D02*
X11943038Y-14554195D01*
X11943038Y-14554195D02*
X11952562Y-14592291D01*
X11952562Y-14592291D02*
X11952562Y-14620862D01*
X11952562Y-14620862D02*
X11943038Y-14658957D01*
X11943038Y-14658957D02*
X11933515Y-14678005D01*
X11933515Y-14678005D02*
X11914467Y-14697053D01*
X11914467Y-14697053D02*
X11885895Y-14706576D01*
X11885895Y-14706576D02*
X11838276Y-14706576D01*
X12038276Y-14706576D02*
X12038276Y-14573243D01*
X12038276Y-14611338D02*
X12047800Y-14592291D01*
X12047800Y-14592291D02*
X12057324Y-14582767D01*
X12057324Y-14582767D02*
X12076372Y-14573243D01*
X12076372Y-14573243D02*
X12095419Y-14573243D01*
X12162086Y-14706576D02*
X12162086Y-14573243D01*
X12162086Y-14506576D02*
X12152562Y-14516100D01*
X12152562Y-14516100D02*
X12162086Y-14525624D01*
X12162086Y-14525624D02*
X12171610Y-14516100D01*
X12171610Y-14516100D02*
X12162086Y-14506576D01*
X12162086Y-14506576D02*
X12162086Y-14525624D01*
X12285895Y-14706576D02*
X12266848Y-14697053D01*
X12266848Y-14697053D02*
X12257324Y-14678005D01*
X12257324Y-14678005D02*
X12257324Y-14506576D01*
X12390657Y-14706576D02*
X12371610Y-14697053D01*
X12371610Y-14697053D02*
X12362086Y-14678005D01*
X12362086Y-14678005D02*
X12362086Y-14506576D01*
X12619229Y-14706576D02*
X12619229Y-14506576D01*
X12619229Y-14506576D02*
X12685896Y-14649433D01*
X12685896Y-14649433D02*
X12752562Y-14506576D01*
X12752562Y-14506576D02*
X12752562Y-14706576D01*
X12933515Y-14706576D02*
X12933515Y-14601814D01*
X12933515Y-14601814D02*
X12923991Y-14582767D01*
X12923991Y-14582767D02*
X12904943Y-14573243D01*
X12904943Y-14573243D02*
X12866848Y-14573243D01*
X12866848Y-14573243D02*
X12847800Y-14582767D01*
X12933515Y-14697053D02*
X12914467Y-14706576D01*
X12914467Y-14706576D02*
X12866848Y-14706576D01*
X12866848Y-14706576D02*
X12847800Y-14697053D01*
X12847800Y-14697053D02*
X12838276Y-14678005D01*
X12838276Y-14678005D02*
X12838276Y-14658957D01*
X12838276Y-14658957D02*
X12847800Y-14639910D01*
X12847800Y-14639910D02*
X12866848Y-14630386D01*
X12866848Y-14630386D02*
X12914467Y-14630386D01*
X12914467Y-14630386D02*
X12933515Y-14620862D01*
X13028753Y-14573243D02*
X13028753Y-14773243D01*
X13028753Y-14582767D02*
X13047800Y-14573243D01*
X13047800Y-14573243D02*
X13085896Y-14573243D01*
X13085896Y-14573243D02*
X13104943Y-14582767D01*
X13104943Y-14582767D02*
X13114467Y-14592291D01*
X13114467Y-14592291D02*
X13123991Y-14611338D01*
X13123991Y-14611338D02*
X13123991Y-14668481D01*
X13123991Y-14668481D02*
X13114467Y-14687529D01*
X13114467Y-14687529D02*
X13104943Y-14697053D01*
X13104943Y-14697053D02*
X13085896Y-14706576D01*
X13085896Y-14706576D02*
X13047800Y-14706576D01*
X13047800Y-14706576D02*
X13028753Y-14697053D01*
X13209705Y-14687529D02*
X13219229Y-14697053D01*
X13219229Y-14697053D02*
X13209705Y-14706576D01*
X13209705Y-14706576D02*
X13200181Y-14697053D01*
X13200181Y-14697053D02*
X13209705Y-14687529D01*
X13209705Y-14687529D02*
X13209705Y-14706576D01*
X13209705Y-14582767D02*
X13219229Y-14592291D01*
X13219229Y-14592291D02*
X13209705Y-14601814D01*
X13209705Y-14601814D02*
X13200181Y-14592291D01*
X13200181Y-14592291D02*
X13209705Y-14582767D01*
X13209705Y-14582767D02*
X13209705Y-14601814D01*
D12*
X11450500Y-14971593D02*
X11577500Y-15098593D01*
X11577500Y-14971593D02*
X11450500Y-15098593D01*
D11*
X11943038Y-15126576D02*
X11828753Y-15126576D01*
X11885895Y-15126576D02*
X11885895Y-14926576D01*
X11885895Y-14926576D02*
X11866848Y-14955148D01*
X11866848Y-14955148D02*
X11847800Y-14974195D01*
X11847800Y-14974195D02*
X11828753Y-14983719D01*
X12028753Y-15107529D02*
X12038276Y-15117053D01*
X12038276Y-15117053D02*
X12028753Y-15126576D01*
X12028753Y-15126576D02*
X12019229Y-15117053D01*
X12019229Y-15117053D02*
X12028753Y-15107529D01*
X12028753Y-15107529D02*
X12028753Y-15126576D01*
X12114467Y-14945624D02*
X12123991Y-14936100D01*
X12123991Y-14936100D02*
X12143038Y-14926576D01*
X12143038Y-14926576D02*
X12190657Y-14926576D01*
X12190657Y-14926576D02*
X12209705Y-14936100D01*
X12209705Y-14936100D02*
X12219229Y-14945624D01*
X12219229Y-14945624D02*
X12228753Y-14964672D01*
X12228753Y-14964672D02*
X12228753Y-14983719D01*
X12228753Y-14983719D02*
X12219229Y-15012291D01*
X12219229Y-15012291D02*
X12104943Y-15126576D01*
X12104943Y-15126576D02*
X12228753Y-15126576D01*
X12295419Y-14926576D02*
X12428753Y-14926576D01*
X12428753Y-14926576D02*
X12343038Y-15126576D01*
X12543038Y-14926576D02*
X12562086Y-14926576D01*
X12562086Y-14926576D02*
X12581134Y-14936100D01*
X12581134Y-14936100D02*
X12590657Y-14945624D01*
X12590657Y-14945624D02*
X12600181Y-14964672D01*
X12600181Y-14964672D02*
X12609705Y-15002767D01*
X12609705Y-15002767D02*
X12609705Y-15050386D01*
X12609705Y-15050386D02*
X12600181Y-15088481D01*
X12600181Y-15088481D02*
X12590657Y-15107529D01*
X12590657Y-15107529D02*
X12581134Y-15117053D01*
X12581134Y-15117053D02*
X12562086Y-15126576D01*
X12562086Y-15126576D02*
X12543038Y-15126576D01*
X12543038Y-15126576D02*
X12523991Y-15117053D01*
X12523991Y-15117053D02*
X12514467Y-15107529D01*
X12514467Y-15107529D02*
X12504943Y-15088481D01*
X12504943Y-15088481D02*
X12495419Y-15050386D01*
X12495419Y-15050386D02*
X12495419Y-15002767D01*
X12495419Y-15002767D02*
X12504943Y-14964672D01*
X12504943Y-14964672D02*
X12514467Y-14945624D01*
X12514467Y-14945624D02*
X12523991Y-14936100D01*
X12523991Y-14936100D02*
X12543038Y-14926576D01*
X12695419Y-15126576D02*
X12695419Y-14993243D01*
X12695419Y-15012291D02*
X12704943Y-15002767D01*
X12704943Y-15002767D02*
X12723991Y-14993243D01*
X12723991Y-14993243D02*
X12752562Y-14993243D01*
X12752562Y-14993243D02*
X12771610Y-15002767D01*
X12771610Y-15002767D02*
X12781134Y-15021814D01*
X12781134Y-15021814D02*
X12781134Y-15126576D01*
X12781134Y-15021814D02*
X12790657Y-15002767D01*
X12790657Y-15002767D02*
X12809705Y-14993243D01*
X12809705Y-14993243D02*
X12838276Y-14993243D01*
X12838276Y-14993243D02*
X12857324Y-15002767D01*
X12857324Y-15002767D02*
X12866848Y-15021814D01*
X12866848Y-15021814D02*
X12866848Y-15126576D01*
X12962086Y-15126576D02*
X12962086Y-14993243D01*
X12962086Y-15012291D02*
X12971610Y-15002767D01*
X12971610Y-15002767D02*
X12990657Y-14993243D01*
X12990657Y-14993243D02*
X13019229Y-14993243D01*
X13019229Y-14993243D02*
X13038277Y-15002767D01*
X13038277Y-15002767D02*
X13047800Y-15021814D01*
X13047800Y-15021814D02*
X13047800Y-15126576D01*
X13047800Y-15021814D02*
X13057324Y-15002767D01*
X13057324Y-15002767D02*
X13076372Y-14993243D01*
X13076372Y-14993243D02*
X13104943Y-14993243D01*
X13104943Y-14993243D02*
X13123991Y-15002767D01*
X13123991Y-15002767D02*
X13133515Y-15021814D01*
X13133515Y-15021814D02*
X13133515Y-15126576D01*
X13523991Y-14917053D02*
X13352562Y-15174195D01*
X13781134Y-14926576D02*
X13800181Y-14926576D01*
X13800181Y-14926576D02*
X13819229Y-14936100D01*
X13819229Y-14936100D02*
X13828753Y-14945624D01*
X13828753Y-14945624D02*
X13838277Y-14964672D01*
X13838277Y-14964672D02*
X13847800Y-15002767D01*
X13847800Y-15002767D02*
X13847800Y-15050386D01*
X13847800Y-15050386D02*
X13838277Y-15088481D01*
X13838277Y-15088481D02*
X13828753Y-15107529D01*
X13828753Y-15107529D02*
X13819229Y-15117053D01*
X13819229Y-15117053D02*
X13800181Y-15126576D01*
X13800181Y-15126576D02*
X13781134Y-15126576D01*
X13781134Y-15126576D02*
X13762086Y-15117053D01*
X13762086Y-15117053D02*
X13752562Y-15107529D01*
X13752562Y-15107529D02*
X13743039Y-15088481D01*
X13743039Y-15088481D02*
X13733515Y-15050386D01*
X13733515Y-15050386D02*
X13733515Y-15002767D01*
X13733515Y-15002767D02*
X13743039Y-14964672D01*
X13743039Y-14964672D02*
X13752562Y-14945624D01*
X13752562Y-14945624D02*
X13762086Y-14936100D01*
X13762086Y-14936100D02*
X13781134Y-14926576D01*
X13933515Y-15107529D02*
X13943039Y-15117053D01*
X13943039Y-15117053D02*
X13933515Y-15126576D01*
X13933515Y-15126576D02*
X13923991Y-15117053D01*
X13923991Y-15117053D02*
X13933515Y-15107529D01*
X13933515Y-15107529D02*
X13933515Y-15126576D01*
X14066848Y-14926576D02*
X14085896Y-14926576D01*
X14085896Y-14926576D02*
X14104943Y-14936100D01*
X14104943Y-14936100D02*
X14114467Y-14945624D01*
X14114467Y-14945624D02*
X14123991Y-14964672D01*
X14123991Y-14964672D02*
X14133515Y-15002767D01*
X14133515Y-15002767D02*
X14133515Y-15050386D01*
X14133515Y-15050386D02*
X14123991Y-15088481D01*
X14123991Y-15088481D02*
X14114467Y-15107529D01*
X14114467Y-15107529D02*
X14104943Y-15117053D01*
X14104943Y-15117053D02*
X14085896Y-15126576D01*
X14085896Y-15126576D02*
X14066848Y-15126576D01*
X14066848Y-15126576D02*
X14047800Y-15117053D01*
X14047800Y-15117053D02*
X14038277Y-15107529D01*
X14038277Y-15107529D02*
X14028753Y-15088481D01*
X14028753Y-15088481D02*
X14019229Y-15050386D01*
X14019229Y-15050386D02*
X14019229Y-15002767D01*
X14019229Y-15002767D02*
X14028753Y-14964672D01*
X14028753Y-14964672D02*
X14038277Y-14945624D01*
X14038277Y-14945624D02*
X14047800Y-14936100D01*
X14047800Y-14936100D02*
X14066848Y-14926576D01*
X14314467Y-14926576D02*
X14219229Y-14926576D01*
X14219229Y-14926576D02*
X14209705Y-15021814D01*
X14209705Y-15021814D02*
X14219229Y-15012291D01*
X14219229Y-15012291D02*
X14238277Y-15002767D01*
X14238277Y-15002767D02*
X14285896Y-15002767D01*
X14285896Y-15002767D02*
X14304943Y-15012291D01*
X14304943Y-15012291D02*
X14314467Y-15021814D01*
X14314467Y-15021814D02*
X14323991Y-15040862D01*
X14323991Y-15040862D02*
X14323991Y-15088481D01*
X14323991Y-15088481D02*
X14314467Y-15107529D01*
X14314467Y-15107529D02*
X14304943Y-15117053D01*
X14304943Y-15117053D02*
X14285896Y-15126576D01*
X14285896Y-15126576D02*
X14238277Y-15126576D01*
X14238277Y-15126576D02*
X14219229Y-15117053D01*
X14219229Y-15117053D02*
X14209705Y-15107529D01*
X14447800Y-14926576D02*
X14466848Y-14926576D01*
X14466848Y-14926576D02*
X14485896Y-14936100D01*
X14485896Y-14936100D02*
X14495420Y-14945624D01*
X14495420Y-14945624D02*
X14504943Y-14964672D01*
X14504943Y-14964672D02*
X14514467Y-15002767D01*
X14514467Y-15002767D02*
X14514467Y-15050386D01*
X14514467Y-15050386D02*
X14504943Y-15088481D01*
X14504943Y-15088481D02*
X14495420Y-15107529D01*
X14495420Y-15107529D02*
X14485896Y-15117053D01*
X14485896Y-15117053D02*
X14466848Y-15126576D01*
X14466848Y-15126576D02*
X14447800Y-15126576D01*
X14447800Y-15126576D02*
X14428753Y-15117053D01*
X14428753Y-15117053D02*
X14419229Y-15107529D01*
X14419229Y-15107529D02*
X14409705Y-15088481D01*
X14409705Y-15088481D02*
X14400181Y-15050386D01*
X14400181Y-15050386D02*
X14400181Y-15002767D01*
X14400181Y-15002767D02*
X14409705Y-14964672D01*
X14409705Y-14964672D02*
X14419229Y-14945624D01*
X14419229Y-14945624D02*
X14428753Y-14936100D01*
X14428753Y-14936100D02*
X14447800Y-14926576D01*
X14638277Y-14926576D02*
X14657324Y-14926576D01*
X14657324Y-14926576D02*
X14676372Y-14936100D01*
X14676372Y-14936100D02*
X14685896Y-14945624D01*
X14685896Y-14945624D02*
X14695420Y-14964672D01*
X14695420Y-14964672D02*
X14704943Y-15002767D01*
X14704943Y-15002767D02*
X14704943Y-15050386D01*
X14704943Y-15050386D02*
X14695420Y-15088481D01*
X14695420Y-15088481D02*
X14685896Y-15107529D01*
X14685896Y-15107529D02*
X14676372Y-15117053D01*
X14676372Y-15117053D02*
X14657324Y-15126576D01*
X14657324Y-15126576D02*
X14638277Y-15126576D01*
X14638277Y-15126576D02*
X14619229Y-15117053D01*
X14619229Y-15117053D02*
X14609705Y-15107529D01*
X14609705Y-15107529D02*
X14600181Y-15088481D01*
X14600181Y-15088481D02*
X14590658Y-15050386D01*
X14590658Y-15050386D02*
X14590658Y-15002767D01*
X14590658Y-15002767D02*
X14600181Y-14964672D01*
X14600181Y-14964672D02*
X14609705Y-14945624D01*
X14609705Y-14945624D02*
X14619229Y-14936100D01*
X14619229Y-14936100D02*
X14638277Y-14926576D01*
X14781134Y-14926576D02*
X14781134Y-14964672D01*
X14857324Y-14926576D02*
X14857324Y-14964672D01*
X15152563Y-15202767D02*
X15143039Y-15193243D01*
X15143039Y-15193243D02*
X15123991Y-15164672D01*
X15123991Y-15164672D02*
X15114467Y-15145624D01*
X15114467Y-15145624D02*
X15104943Y-15117053D01*
X15104943Y-15117053D02*
X15095420Y-15069433D01*
X15095420Y-15069433D02*
X15095420Y-15031338D01*
X15095420Y-15031338D02*
X15104943Y-14983719D01*
X15104943Y-14983719D02*
X15114467Y-14955148D01*
X15114467Y-14955148D02*
X15123991Y-14936100D01*
X15123991Y-14936100D02*
X15143039Y-14907529D01*
X15143039Y-14907529D02*
X15152563Y-14898005D01*
X15219229Y-14945624D02*
X15228753Y-14936100D01*
X15228753Y-14936100D02*
X15247801Y-14926576D01*
X15247801Y-14926576D02*
X15295420Y-14926576D01*
X15295420Y-14926576D02*
X15314467Y-14936100D01*
X15314467Y-14936100D02*
X15323991Y-14945624D01*
X15323991Y-14945624D02*
X15333515Y-14964672D01*
X15333515Y-14964672D02*
X15333515Y-14983719D01*
X15333515Y-14983719D02*
X15323991Y-15012291D01*
X15323991Y-15012291D02*
X15209705Y-15126576D01*
X15209705Y-15126576D02*
X15333515Y-15126576D01*
X15409705Y-14945624D02*
X15419229Y-14936100D01*
X15419229Y-14936100D02*
X15438277Y-14926576D01*
X15438277Y-14926576D02*
X15485896Y-14926576D01*
X15485896Y-14926576D02*
X15504943Y-14936100D01*
X15504943Y-14936100D02*
X15514467Y-14945624D01*
X15514467Y-14945624D02*
X15523991Y-14964672D01*
X15523991Y-14964672D02*
X15523991Y-14983719D01*
X15523991Y-14983719D02*
X15514467Y-15012291D01*
X15514467Y-15012291D02*
X15400182Y-15126576D01*
X15400182Y-15126576D02*
X15523991Y-15126576D01*
X15762086Y-15126576D02*
X15762086Y-14926576D01*
X15847801Y-15126576D02*
X15847801Y-15021814D01*
X15847801Y-15021814D02*
X15838277Y-15002767D01*
X15838277Y-15002767D02*
X15819229Y-14993243D01*
X15819229Y-14993243D02*
X15790658Y-14993243D01*
X15790658Y-14993243D02*
X15771610Y-15002767D01*
X15771610Y-15002767D02*
X15762086Y-15012291D01*
X15971610Y-15126576D02*
X15952563Y-15117053D01*
X15952563Y-15117053D02*
X15943039Y-15107529D01*
X15943039Y-15107529D02*
X15933515Y-15088481D01*
X15933515Y-15088481D02*
X15933515Y-15031338D01*
X15933515Y-15031338D02*
X15943039Y-15012291D01*
X15943039Y-15012291D02*
X15952563Y-15002767D01*
X15952563Y-15002767D02*
X15971610Y-14993243D01*
X15971610Y-14993243D02*
X16000182Y-14993243D01*
X16000182Y-14993243D02*
X16019229Y-15002767D01*
X16019229Y-15002767D02*
X16028753Y-15012291D01*
X16028753Y-15012291D02*
X16038277Y-15031338D01*
X16038277Y-15031338D02*
X16038277Y-15088481D01*
X16038277Y-15088481D02*
X16028753Y-15107529D01*
X16028753Y-15107529D02*
X16019229Y-15117053D01*
X16019229Y-15117053D02*
X16000182Y-15126576D01*
X16000182Y-15126576D02*
X15971610Y-15126576D01*
X16152563Y-15126576D02*
X16133515Y-15117053D01*
X16133515Y-15117053D02*
X16123991Y-15098005D01*
X16123991Y-15098005D02*
X16123991Y-14926576D01*
X16304944Y-15117053D02*
X16285896Y-15126576D01*
X16285896Y-15126576D02*
X16247801Y-15126576D01*
X16247801Y-15126576D02*
X16228753Y-15117053D01*
X16228753Y-15117053D02*
X16219229Y-15098005D01*
X16219229Y-15098005D02*
X16219229Y-15021814D01*
X16219229Y-15021814D02*
X16228753Y-15002767D01*
X16228753Y-15002767D02*
X16247801Y-14993243D01*
X16247801Y-14993243D02*
X16285896Y-14993243D01*
X16285896Y-14993243D02*
X16304944Y-15002767D01*
X16304944Y-15002767D02*
X16314467Y-15021814D01*
X16314467Y-15021814D02*
X16314467Y-15040862D01*
X16314467Y-15040862D02*
X16219229Y-15059910D01*
X16390658Y-15117053D02*
X16409705Y-15126576D01*
X16409705Y-15126576D02*
X16447801Y-15126576D01*
X16447801Y-15126576D02*
X16466848Y-15117053D01*
X16466848Y-15117053D02*
X16476372Y-15098005D01*
X16476372Y-15098005D02*
X16476372Y-15088481D01*
X16476372Y-15088481D02*
X16466848Y-15069433D01*
X16466848Y-15069433D02*
X16447801Y-15059910D01*
X16447801Y-15059910D02*
X16419229Y-15059910D01*
X16419229Y-15059910D02*
X16400182Y-15050386D01*
X16400182Y-15050386D02*
X16390658Y-15031338D01*
X16390658Y-15031338D02*
X16390658Y-15021814D01*
X16390658Y-15021814D02*
X16400182Y-15002767D01*
X16400182Y-15002767D02*
X16419229Y-14993243D01*
X16419229Y-14993243D02*
X16447801Y-14993243D01*
X16447801Y-14993243D02*
X16466848Y-15002767D01*
X16543039Y-15202767D02*
X16552563Y-15193243D01*
X16552563Y-15193243D02*
X16571610Y-15164672D01*
X16571610Y-15164672D02*
X16581134Y-15145624D01*
X16581134Y-15145624D02*
X16590658Y-15117053D01*
X16590658Y-15117053D02*
X16600182Y-15069433D01*
X16600182Y-15069433D02*
X16600182Y-15031338D01*
X16600182Y-15031338D02*
X16590658Y-14983719D01*
X16590658Y-14983719D02*
X16581134Y-14955148D01*
X16581134Y-14955148D02*
X16571610Y-14936100D01*
X16571610Y-14936100D02*
X16552563Y-14907529D01*
X16552563Y-14907529D02*
X16543039Y-14898005D01*
X16904944Y-15202767D02*
X16895420Y-15193243D01*
X16895420Y-15193243D02*
X16876372Y-15164672D01*
X16876372Y-15164672D02*
X16866848Y-15145624D01*
X16866848Y-15145624D02*
X16857325Y-15117053D01*
X16857325Y-15117053D02*
X16847801Y-15069433D01*
X16847801Y-15069433D02*
X16847801Y-15031338D01*
X16847801Y-15031338D02*
X16857325Y-14983719D01*
X16857325Y-14983719D02*
X16866848Y-14955148D01*
X16866848Y-14955148D02*
X16876372Y-14936100D01*
X16876372Y-14936100D02*
X16895420Y-14907529D01*
X16895420Y-14907529D02*
X16904944Y-14898005D01*
X16981134Y-14993243D02*
X16981134Y-15126576D01*
X16981134Y-15012291D02*
X16990658Y-15002767D01*
X16990658Y-15002767D02*
X17009706Y-14993243D01*
X17009706Y-14993243D02*
X17038277Y-14993243D01*
X17038277Y-14993243D02*
X17057325Y-15002767D01*
X17057325Y-15002767D02*
X17066848Y-15021814D01*
X17066848Y-15021814D02*
X17066848Y-15126576D01*
X17190658Y-15126576D02*
X17171610Y-15117053D01*
X17171610Y-15117053D02*
X17162087Y-15107529D01*
X17162087Y-15107529D02*
X17152563Y-15088481D01*
X17152563Y-15088481D02*
X17152563Y-15031338D01*
X17152563Y-15031338D02*
X17162087Y-15012291D01*
X17162087Y-15012291D02*
X17171610Y-15002767D01*
X17171610Y-15002767D02*
X17190658Y-14993243D01*
X17190658Y-14993243D02*
X17219229Y-14993243D01*
X17219229Y-14993243D02*
X17238277Y-15002767D01*
X17238277Y-15002767D02*
X17247801Y-15012291D01*
X17247801Y-15012291D02*
X17257325Y-15031338D01*
X17257325Y-15031338D02*
X17257325Y-15088481D01*
X17257325Y-15088481D02*
X17247801Y-15107529D01*
X17247801Y-15107529D02*
X17238277Y-15117053D01*
X17238277Y-15117053D02*
X17219229Y-15126576D01*
X17219229Y-15126576D02*
X17190658Y-15126576D01*
X17314468Y-14993243D02*
X17390658Y-14993243D01*
X17343039Y-14926576D02*
X17343039Y-15098005D01*
X17343039Y-15098005D02*
X17352563Y-15117053D01*
X17352563Y-15117053D02*
X17371610Y-15126576D01*
X17371610Y-15126576D02*
X17390658Y-15126576D01*
X17609706Y-14993243D02*
X17609706Y-15193243D01*
X17609706Y-15002767D02*
X17628753Y-14993243D01*
X17628753Y-14993243D02*
X17666849Y-14993243D01*
X17666849Y-14993243D02*
X17685896Y-15002767D01*
X17685896Y-15002767D02*
X17695420Y-15012291D01*
X17695420Y-15012291D02*
X17704944Y-15031338D01*
X17704944Y-15031338D02*
X17704944Y-15088481D01*
X17704944Y-15088481D02*
X17695420Y-15107529D01*
X17695420Y-15107529D02*
X17685896Y-15117053D01*
X17685896Y-15117053D02*
X17666849Y-15126576D01*
X17666849Y-15126576D02*
X17628753Y-15126576D01*
X17628753Y-15126576D02*
X17609706Y-15117053D01*
X17819229Y-15126576D02*
X17800182Y-15117053D01*
X17800182Y-15117053D02*
X17790658Y-15098005D01*
X17790658Y-15098005D02*
X17790658Y-14926576D01*
X17981134Y-15126576D02*
X17981134Y-15021814D01*
X17981134Y-15021814D02*
X17971610Y-15002767D01*
X17971610Y-15002767D02*
X17952563Y-14993243D01*
X17952563Y-14993243D02*
X17914468Y-14993243D01*
X17914468Y-14993243D02*
X17895420Y-15002767D01*
X17981134Y-15117053D02*
X17962087Y-15126576D01*
X17962087Y-15126576D02*
X17914468Y-15126576D01*
X17914468Y-15126576D02*
X17895420Y-15117053D01*
X17895420Y-15117053D02*
X17885896Y-15098005D01*
X17885896Y-15098005D02*
X17885896Y-15078957D01*
X17885896Y-15078957D02*
X17895420Y-15059910D01*
X17895420Y-15059910D02*
X17914468Y-15050386D01*
X17914468Y-15050386D02*
X17962087Y-15050386D01*
X17962087Y-15050386D02*
X17981134Y-15040862D01*
X18047801Y-14993243D02*
X18123991Y-14993243D01*
X18076372Y-14926576D02*
X18076372Y-15098005D01*
X18076372Y-15098005D02*
X18085896Y-15117053D01*
X18085896Y-15117053D02*
X18104944Y-15126576D01*
X18104944Y-15126576D02*
X18123991Y-15126576D01*
X18266849Y-15117053D02*
X18247801Y-15126576D01*
X18247801Y-15126576D02*
X18209706Y-15126576D01*
X18209706Y-15126576D02*
X18190658Y-15117053D01*
X18190658Y-15117053D02*
X18181134Y-15098005D01*
X18181134Y-15098005D02*
X18181134Y-15021814D01*
X18181134Y-15021814D02*
X18190658Y-15002767D01*
X18190658Y-15002767D02*
X18209706Y-14993243D01*
X18209706Y-14993243D02*
X18247801Y-14993243D01*
X18247801Y-14993243D02*
X18266849Y-15002767D01*
X18266849Y-15002767D02*
X18276372Y-15021814D01*
X18276372Y-15021814D02*
X18276372Y-15040862D01*
X18276372Y-15040862D02*
X18181134Y-15059910D01*
X18447801Y-15126576D02*
X18447801Y-14926576D01*
X18447801Y-15117053D02*
X18428753Y-15126576D01*
X18428753Y-15126576D02*
X18390658Y-15126576D01*
X18390658Y-15126576D02*
X18371610Y-15117053D01*
X18371610Y-15117053D02*
X18362087Y-15107529D01*
X18362087Y-15107529D02*
X18352563Y-15088481D01*
X18352563Y-15088481D02*
X18352563Y-15031338D01*
X18352563Y-15031338D02*
X18362087Y-15012291D01*
X18362087Y-15012291D02*
X18371610Y-15002767D01*
X18371610Y-15002767D02*
X18390658Y-14993243D01*
X18390658Y-14993243D02*
X18428753Y-14993243D01*
X18428753Y-14993243D02*
X18447801Y-15002767D01*
X18523991Y-15202767D02*
X18533515Y-15193243D01*
X18533515Y-15193243D02*
X18552563Y-15164672D01*
X18552563Y-15164672D02*
X18562087Y-15145624D01*
X18562087Y-15145624D02*
X18571610Y-15117053D01*
X18571610Y-15117053D02*
X18581134Y-15069433D01*
X18581134Y-15069433D02*
X18581134Y-15031338D01*
X18581134Y-15031338D02*
X18571610Y-14983719D01*
X18571610Y-14983719D02*
X18562087Y-14955148D01*
X18562087Y-14955148D02*
X18552563Y-14936100D01*
X18552563Y-14936100D02*
X18533515Y-14907529D01*
X18533515Y-14907529D02*
X18523991Y-14898005D01*
X11577500Y-15299093D02*
G75*
G02*
X11377500Y-15299093I-100000J0D01*
G01*
X11377500Y-15299093D02*
G75*
G02*
X11577500Y-15299093I100000J0D01*
G01*
X11819229Y-15190576D02*
X11943038Y-15190576D01*
X11943038Y-15190576D02*
X11876372Y-15266767D01*
X11876372Y-15266767D02*
X11904943Y-15266767D01*
X11904943Y-15266767D02*
X11923991Y-15276291D01*
X11923991Y-15276291D02*
X11933515Y-15285814D01*
X11933515Y-15285814D02*
X11943038Y-15304862D01*
X11943038Y-15304862D02*
X11943038Y-15352481D01*
X11943038Y-15352481D02*
X11933515Y-15371529D01*
X11933515Y-15371529D02*
X11923991Y-15381053D01*
X11923991Y-15381053D02*
X11904943Y-15390576D01*
X11904943Y-15390576D02*
X11847800Y-15390576D01*
X11847800Y-15390576D02*
X11828753Y-15381053D01*
X11828753Y-15381053D02*
X11819229Y-15371529D01*
X12028753Y-15371529D02*
X12038276Y-15381053D01*
X12038276Y-15381053D02*
X12028753Y-15390576D01*
X12028753Y-15390576D02*
X12019229Y-15381053D01*
X12019229Y-15381053D02*
X12028753Y-15371529D01*
X12028753Y-15371529D02*
X12028753Y-15390576D01*
X12162086Y-15190576D02*
X12181134Y-15190576D01*
X12181134Y-15190576D02*
X12200181Y-15200100D01*
X12200181Y-15200100D02*
X12209705Y-15209624D01*
X12209705Y-15209624D02*
X12219229Y-15228672D01*
X12219229Y-15228672D02*
X12228753Y-15266767D01*
X12228753Y-15266767D02*
X12228753Y-15314386D01*
X12228753Y-15314386D02*
X12219229Y-15352481D01*
X12219229Y-15352481D02*
X12209705Y-15371529D01*
X12209705Y-15371529D02*
X12200181Y-15381053D01*
X12200181Y-15381053D02*
X12181134Y-15390576D01*
X12181134Y-15390576D02*
X12162086Y-15390576D01*
X12162086Y-15390576D02*
X12143038Y-15381053D01*
X12143038Y-15381053D02*
X12133515Y-15371529D01*
X12133515Y-15371529D02*
X12123991Y-15352481D01*
X12123991Y-15352481D02*
X12114467Y-15314386D01*
X12114467Y-15314386D02*
X12114467Y-15266767D01*
X12114467Y-15266767D02*
X12123991Y-15228672D01*
X12123991Y-15228672D02*
X12133515Y-15209624D01*
X12133515Y-15209624D02*
X12143038Y-15200100D01*
X12143038Y-15200100D02*
X12162086Y-15190576D01*
X12352562Y-15190576D02*
X12371610Y-15190576D01*
X12371610Y-15190576D02*
X12390657Y-15200100D01*
X12390657Y-15200100D02*
X12400181Y-15209624D01*
X12400181Y-15209624D02*
X12409705Y-15228672D01*
X12409705Y-15228672D02*
X12419229Y-15266767D01*
X12419229Y-15266767D02*
X12419229Y-15314386D01*
X12419229Y-15314386D02*
X12409705Y-15352481D01*
X12409705Y-15352481D02*
X12400181Y-15371529D01*
X12400181Y-15371529D02*
X12390657Y-15381053D01*
X12390657Y-15381053D02*
X12371610Y-15390576D01*
X12371610Y-15390576D02*
X12352562Y-15390576D01*
X12352562Y-15390576D02*
X12333515Y-15381053D01*
X12333515Y-15381053D02*
X12323991Y-15371529D01*
X12323991Y-15371529D02*
X12314467Y-15352481D01*
X12314467Y-15352481D02*
X12304943Y-15314386D01*
X12304943Y-15314386D02*
X12304943Y-15266767D01*
X12304943Y-15266767D02*
X12314467Y-15228672D01*
X12314467Y-15228672D02*
X12323991Y-15209624D01*
X12323991Y-15209624D02*
X12333515Y-15200100D01*
X12333515Y-15200100D02*
X12352562Y-15190576D01*
X12543038Y-15190576D02*
X12562086Y-15190576D01*
X12562086Y-15190576D02*
X12581134Y-15200100D01*
X12581134Y-15200100D02*
X12590657Y-15209624D01*
X12590657Y-15209624D02*
X12600181Y-15228672D01*
X12600181Y-15228672D02*
X12609705Y-15266767D01*
X12609705Y-15266767D02*
X12609705Y-15314386D01*
X12609705Y-15314386D02*
X12600181Y-15352481D01*
X12600181Y-15352481D02*
X12590657Y-15371529D01*
X12590657Y-15371529D02*
X12581134Y-15381053D01*
X12581134Y-15381053D02*
X12562086Y-15390576D01*
X12562086Y-15390576D02*
X12543038Y-15390576D01*
X12543038Y-15390576D02*
X12523991Y-15381053D01*
X12523991Y-15381053D02*
X12514467Y-15371529D01*
X12514467Y-15371529D02*
X12504943Y-15352481D01*
X12504943Y-15352481D02*
X12495419Y-15314386D01*
X12495419Y-15314386D02*
X12495419Y-15266767D01*
X12495419Y-15266767D02*
X12504943Y-15228672D01*
X12504943Y-15228672D02*
X12514467Y-15209624D01*
X12514467Y-15209624D02*
X12523991Y-15200100D01*
X12523991Y-15200100D02*
X12543038Y-15190576D01*
X12695419Y-15390576D02*
X12695419Y-15257243D01*
X12695419Y-15276291D02*
X12704943Y-15266767D01*
X12704943Y-15266767D02*
X12723991Y-15257243D01*
X12723991Y-15257243D02*
X12752562Y-15257243D01*
X12752562Y-15257243D02*
X12771610Y-15266767D01*
X12771610Y-15266767D02*
X12781134Y-15285814D01*
X12781134Y-15285814D02*
X12781134Y-15390576D01*
X12781134Y-15285814D02*
X12790657Y-15266767D01*
X12790657Y-15266767D02*
X12809705Y-15257243D01*
X12809705Y-15257243D02*
X12838276Y-15257243D01*
X12838276Y-15257243D02*
X12857324Y-15266767D01*
X12857324Y-15266767D02*
X12866848Y-15285814D01*
X12866848Y-15285814D02*
X12866848Y-15390576D01*
X12962086Y-15390576D02*
X12962086Y-15257243D01*
X12962086Y-15276291D02*
X12971610Y-15266767D01*
X12971610Y-15266767D02*
X12990657Y-15257243D01*
X12990657Y-15257243D02*
X13019229Y-15257243D01*
X13019229Y-15257243D02*
X13038277Y-15266767D01*
X13038277Y-15266767D02*
X13047800Y-15285814D01*
X13047800Y-15285814D02*
X13047800Y-15390576D01*
X13047800Y-15285814D02*
X13057324Y-15266767D01*
X13057324Y-15266767D02*
X13076372Y-15257243D01*
X13076372Y-15257243D02*
X13104943Y-15257243D01*
X13104943Y-15257243D02*
X13123991Y-15266767D01*
X13123991Y-15266767D02*
X13133515Y-15285814D01*
X13133515Y-15285814D02*
X13133515Y-15390576D01*
X13523991Y-15181053D02*
X13352562Y-15438195D01*
X13781134Y-15190576D02*
X13800181Y-15190576D01*
X13800181Y-15190576D02*
X13819229Y-15200100D01*
X13819229Y-15200100D02*
X13828753Y-15209624D01*
X13828753Y-15209624D02*
X13838277Y-15228672D01*
X13838277Y-15228672D02*
X13847800Y-15266767D01*
X13847800Y-15266767D02*
X13847800Y-15314386D01*
X13847800Y-15314386D02*
X13838277Y-15352481D01*
X13838277Y-15352481D02*
X13828753Y-15371529D01*
X13828753Y-15371529D02*
X13819229Y-15381053D01*
X13819229Y-15381053D02*
X13800181Y-15390576D01*
X13800181Y-15390576D02*
X13781134Y-15390576D01*
X13781134Y-15390576D02*
X13762086Y-15381053D01*
X13762086Y-15381053D02*
X13752562Y-15371529D01*
X13752562Y-15371529D02*
X13743039Y-15352481D01*
X13743039Y-15352481D02*
X13733515Y-15314386D01*
X13733515Y-15314386D02*
X13733515Y-15266767D01*
X13733515Y-15266767D02*
X13743039Y-15228672D01*
X13743039Y-15228672D02*
X13752562Y-15209624D01*
X13752562Y-15209624D02*
X13762086Y-15200100D01*
X13762086Y-15200100D02*
X13781134Y-15190576D01*
X13933515Y-15371529D02*
X13943039Y-15381053D01*
X13943039Y-15381053D02*
X13933515Y-15390576D01*
X13933515Y-15390576D02*
X13923991Y-15381053D01*
X13923991Y-15381053D02*
X13933515Y-15371529D01*
X13933515Y-15371529D02*
X13933515Y-15390576D01*
X14133515Y-15390576D02*
X14019229Y-15390576D01*
X14076372Y-15390576D02*
X14076372Y-15190576D01*
X14076372Y-15190576D02*
X14057324Y-15219148D01*
X14057324Y-15219148D02*
X14038277Y-15238195D01*
X14038277Y-15238195D02*
X14019229Y-15247719D01*
X14323991Y-15390576D02*
X14209705Y-15390576D01*
X14266848Y-15390576D02*
X14266848Y-15190576D01*
X14266848Y-15190576D02*
X14247800Y-15219148D01*
X14247800Y-15219148D02*
X14228753Y-15238195D01*
X14228753Y-15238195D02*
X14209705Y-15247719D01*
X14438277Y-15276291D02*
X14419229Y-15266767D01*
X14419229Y-15266767D02*
X14409705Y-15257243D01*
X14409705Y-15257243D02*
X14400181Y-15238195D01*
X14400181Y-15238195D02*
X14400181Y-15228672D01*
X14400181Y-15228672D02*
X14409705Y-15209624D01*
X14409705Y-15209624D02*
X14419229Y-15200100D01*
X14419229Y-15200100D02*
X14438277Y-15190576D01*
X14438277Y-15190576D02*
X14476372Y-15190576D01*
X14476372Y-15190576D02*
X14495420Y-15200100D01*
X14495420Y-15200100D02*
X14504943Y-15209624D01*
X14504943Y-15209624D02*
X14514467Y-15228672D01*
X14514467Y-15228672D02*
X14514467Y-15238195D01*
X14514467Y-15238195D02*
X14504943Y-15257243D01*
X14504943Y-15257243D02*
X14495420Y-15266767D01*
X14495420Y-15266767D02*
X14476372Y-15276291D01*
X14476372Y-15276291D02*
X14438277Y-15276291D01*
X14438277Y-15276291D02*
X14419229Y-15285814D01*
X14419229Y-15285814D02*
X14409705Y-15295338D01*
X14409705Y-15295338D02*
X14400181Y-15314386D01*
X14400181Y-15314386D02*
X14400181Y-15352481D01*
X14400181Y-15352481D02*
X14409705Y-15371529D01*
X14409705Y-15371529D02*
X14419229Y-15381053D01*
X14419229Y-15381053D02*
X14438277Y-15390576D01*
X14438277Y-15390576D02*
X14476372Y-15390576D01*
X14476372Y-15390576D02*
X14495420Y-15381053D01*
X14495420Y-15381053D02*
X14504943Y-15371529D01*
X14504943Y-15371529D02*
X14514467Y-15352481D01*
X14514467Y-15352481D02*
X14514467Y-15314386D01*
X14514467Y-15314386D02*
X14504943Y-15295338D01*
X14504943Y-15295338D02*
X14495420Y-15285814D01*
X14495420Y-15285814D02*
X14476372Y-15276291D01*
X14704943Y-15390576D02*
X14590658Y-15390576D01*
X14647800Y-15390576D02*
X14647800Y-15190576D01*
X14647800Y-15190576D02*
X14628753Y-15219148D01*
X14628753Y-15219148D02*
X14609705Y-15238195D01*
X14609705Y-15238195D02*
X14590658Y-15247719D01*
X14781134Y-15190576D02*
X14781134Y-15228672D01*
X14857324Y-15190576D02*
X14857324Y-15228672D01*
X15152563Y-15466767D02*
X15143039Y-15457243D01*
X15143039Y-15457243D02*
X15123991Y-15428672D01*
X15123991Y-15428672D02*
X15114467Y-15409624D01*
X15114467Y-15409624D02*
X15104943Y-15381053D01*
X15104943Y-15381053D02*
X15095420Y-15333433D01*
X15095420Y-15333433D02*
X15095420Y-15295338D01*
X15095420Y-15295338D02*
X15104943Y-15247719D01*
X15104943Y-15247719D02*
X15114467Y-15219148D01*
X15114467Y-15219148D02*
X15123991Y-15200100D01*
X15123991Y-15200100D02*
X15143039Y-15171529D01*
X15143039Y-15171529D02*
X15152563Y-15162005D01*
X15314467Y-15257243D02*
X15314467Y-15390576D01*
X15266848Y-15181053D02*
X15219229Y-15323910D01*
X15219229Y-15323910D02*
X15343039Y-15323910D01*
X15571610Y-15390576D02*
X15571610Y-15190576D01*
X15657324Y-15390576D02*
X15657324Y-15285814D01*
X15657324Y-15285814D02*
X15647801Y-15266767D01*
X15647801Y-15266767D02*
X15628753Y-15257243D01*
X15628753Y-15257243D02*
X15600182Y-15257243D01*
X15600182Y-15257243D02*
X15581134Y-15266767D01*
X15581134Y-15266767D02*
X15571610Y-15276291D01*
X15781134Y-15390576D02*
X15762086Y-15381053D01*
X15762086Y-15381053D02*
X15752563Y-15371529D01*
X15752563Y-15371529D02*
X15743039Y-15352481D01*
X15743039Y-15352481D02*
X15743039Y-15295338D01*
X15743039Y-15295338D02*
X15752563Y-15276291D01*
X15752563Y-15276291D02*
X15762086Y-15266767D01*
X15762086Y-15266767D02*
X15781134Y-15257243D01*
X15781134Y-15257243D02*
X15809705Y-15257243D01*
X15809705Y-15257243D02*
X15828753Y-15266767D01*
X15828753Y-15266767D02*
X15838277Y-15276291D01*
X15838277Y-15276291D02*
X15847801Y-15295338D01*
X15847801Y-15295338D02*
X15847801Y-15352481D01*
X15847801Y-15352481D02*
X15838277Y-15371529D01*
X15838277Y-15371529D02*
X15828753Y-15381053D01*
X15828753Y-15381053D02*
X15809705Y-15390576D01*
X15809705Y-15390576D02*
X15781134Y-15390576D01*
X15962086Y-15390576D02*
X15943039Y-15381053D01*
X15943039Y-15381053D02*
X15933515Y-15362005D01*
X15933515Y-15362005D02*
X15933515Y-15190576D01*
X16114467Y-15381053D02*
X16095420Y-15390576D01*
X16095420Y-15390576D02*
X16057324Y-15390576D01*
X16057324Y-15390576D02*
X16038277Y-15381053D01*
X16038277Y-15381053D02*
X16028753Y-15362005D01*
X16028753Y-15362005D02*
X16028753Y-15285814D01*
X16028753Y-15285814D02*
X16038277Y-15266767D01*
X16038277Y-15266767D02*
X16057324Y-15257243D01*
X16057324Y-15257243D02*
X16095420Y-15257243D01*
X16095420Y-15257243D02*
X16114467Y-15266767D01*
X16114467Y-15266767D02*
X16123991Y-15285814D01*
X16123991Y-15285814D02*
X16123991Y-15304862D01*
X16123991Y-15304862D02*
X16028753Y-15323910D01*
X16200182Y-15381053D02*
X16219229Y-15390576D01*
X16219229Y-15390576D02*
X16257324Y-15390576D01*
X16257324Y-15390576D02*
X16276372Y-15381053D01*
X16276372Y-15381053D02*
X16285896Y-15362005D01*
X16285896Y-15362005D02*
X16285896Y-15352481D01*
X16285896Y-15352481D02*
X16276372Y-15333433D01*
X16276372Y-15333433D02*
X16257324Y-15323910D01*
X16257324Y-15323910D02*
X16228753Y-15323910D01*
X16228753Y-15323910D02*
X16209705Y-15314386D01*
X16209705Y-15314386D02*
X16200182Y-15295338D01*
X16200182Y-15295338D02*
X16200182Y-15285814D01*
X16200182Y-15285814D02*
X16209705Y-15266767D01*
X16209705Y-15266767D02*
X16228753Y-15257243D01*
X16228753Y-15257243D02*
X16257324Y-15257243D01*
X16257324Y-15257243D02*
X16276372Y-15266767D01*
X16352563Y-15466767D02*
X16362086Y-15457243D01*
X16362086Y-15457243D02*
X16381134Y-15428672D01*
X16381134Y-15428672D02*
X16390658Y-15409624D01*
X16390658Y-15409624D02*
X16400182Y-15381053D01*
X16400182Y-15381053D02*
X16409705Y-15333433D01*
X16409705Y-15333433D02*
X16409705Y-15295338D01*
X16409705Y-15295338D02*
X16400182Y-15247719D01*
X16400182Y-15247719D02*
X16390658Y-15219148D01*
X16390658Y-15219148D02*
X16381134Y-15200100D01*
X16381134Y-15200100D02*
X16362086Y-15171529D01*
X16362086Y-15171529D02*
X16352563Y-15162005D01*
X16714467Y-15466767D02*
X16704944Y-15457243D01*
X16704944Y-15457243D02*
X16685896Y-15428672D01*
X16685896Y-15428672D02*
X16676372Y-15409624D01*
X16676372Y-15409624D02*
X16666848Y-15381053D01*
X16666848Y-15381053D02*
X16657325Y-15333433D01*
X16657325Y-15333433D02*
X16657325Y-15295338D01*
X16657325Y-15295338D02*
X16666848Y-15247719D01*
X16666848Y-15247719D02*
X16676372Y-15219148D01*
X16676372Y-15219148D02*
X16685896Y-15200100D01*
X16685896Y-15200100D02*
X16704944Y-15171529D01*
X16704944Y-15171529D02*
X16714467Y-15162005D01*
X16790658Y-15257243D02*
X16790658Y-15390576D01*
X16790658Y-15276291D02*
X16800182Y-15266767D01*
X16800182Y-15266767D02*
X16819229Y-15257243D01*
X16819229Y-15257243D02*
X16847801Y-15257243D01*
X16847801Y-15257243D02*
X16866848Y-15266767D01*
X16866848Y-15266767D02*
X16876372Y-15285814D01*
X16876372Y-15285814D02*
X16876372Y-15390576D01*
X17000182Y-15390576D02*
X16981134Y-15381053D01*
X16981134Y-15381053D02*
X16971610Y-15371529D01*
X16971610Y-15371529D02*
X16962087Y-15352481D01*
X16962087Y-15352481D02*
X16962087Y-15295338D01*
X16962087Y-15295338D02*
X16971610Y-15276291D01*
X16971610Y-15276291D02*
X16981134Y-15266767D01*
X16981134Y-15266767D02*
X17000182Y-15257243D01*
X17000182Y-15257243D02*
X17028753Y-15257243D01*
X17028753Y-15257243D02*
X17047801Y-15266767D01*
X17047801Y-15266767D02*
X17057325Y-15276291D01*
X17057325Y-15276291D02*
X17066848Y-15295338D01*
X17066848Y-15295338D02*
X17066848Y-15352481D01*
X17066848Y-15352481D02*
X17057325Y-15371529D01*
X17057325Y-15371529D02*
X17047801Y-15381053D01*
X17047801Y-15381053D02*
X17028753Y-15390576D01*
X17028753Y-15390576D02*
X17000182Y-15390576D01*
X17123991Y-15257243D02*
X17200182Y-15257243D01*
X17152563Y-15190576D02*
X17152563Y-15362005D01*
X17152563Y-15362005D02*
X17162087Y-15381053D01*
X17162087Y-15381053D02*
X17181134Y-15390576D01*
X17181134Y-15390576D02*
X17200182Y-15390576D01*
X17419229Y-15257243D02*
X17419229Y-15457243D01*
X17419229Y-15266767D02*
X17438277Y-15257243D01*
X17438277Y-15257243D02*
X17476372Y-15257243D01*
X17476372Y-15257243D02*
X17495420Y-15266767D01*
X17495420Y-15266767D02*
X17504944Y-15276291D01*
X17504944Y-15276291D02*
X17514468Y-15295338D01*
X17514468Y-15295338D02*
X17514468Y-15352481D01*
X17514468Y-15352481D02*
X17504944Y-15371529D01*
X17504944Y-15371529D02*
X17495420Y-15381053D01*
X17495420Y-15381053D02*
X17476372Y-15390576D01*
X17476372Y-15390576D02*
X17438277Y-15390576D01*
X17438277Y-15390576D02*
X17419229Y-15381053D01*
X17628753Y-15390576D02*
X17609706Y-15381053D01*
X17609706Y-15381053D02*
X17600182Y-15362005D01*
X17600182Y-15362005D02*
X17600182Y-15190576D01*
X17790658Y-15390576D02*
X17790658Y-15285814D01*
X17790658Y-15285814D02*
X17781134Y-15266767D01*
X17781134Y-15266767D02*
X17762087Y-15257243D01*
X17762087Y-15257243D02*
X17723991Y-15257243D01*
X17723991Y-15257243D02*
X17704944Y-15266767D01*
X17790658Y-15381053D02*
X17771610Y-15390576D01*
X17771610Y-15390576D02*
X17723991Y-15390576D01*
X17723991Y-15390576D02*
X17704944Y-15381053D01*
X17704944Y-15381053D02*
X17695420Y-15362005D01*
X17695420Y-15362005D02*
X17695420Y-15342957D01*
X17695420Y-15342957D02*
X17704944Y-15323910D01*
X17704944Y-15323910D02*
X17723991Y-15314386D01*
X17723991Y-15314386D02*
X17771610Y-15314386D01*
X17771610Y-15314386D02*
X17790658Y-15304862D01*
X17857325Y-15257243D02*
X17933515Y-15257243D01*
X17885896Y-15190576D02*
X17885896Y-15362005D01*
X17885896Y-15362005D02*
X17895420Y-15381053D01*
X17895420Y-15381053D02*
X17914468Y-15390576D01*
X17914468Y-15390576D02*
X17933515Y-15390576D01*
X18076372Y-15381053D02*
X18057325Y-15390576D01*
X18057325Y-15390576D02*
X18019229Y-15390576D01*
X18019229Y-15390576D02*
X18000182Y-15381053D01*
X18000182Y-15381053D02*
X17990658Y-15362005D01*
X17990658Y-15362005D02*
X17990658Y-15285814D01*
X17990658Y-15285814D02*
X18000182Y-15266767D01*
X18000182Y-15266767D02*
X18019229Y-15257243D01*
X18019229Y-15257243D02*
X18057325Y-15257243D01*
X18057325Y-15257243D02*
X18076372Y-15266767D01*
X18076372Y-15266767D02*
X18085896Y-15285814D01*
X18085896Y-15285814D02*
X18085896Y-15304862D01*
X18085896Y-15304862D02*
X17990658Y-15323910D01*
X18257325Y-15390576D02*
X18257325Y-15190576D01*
X18257325Y-15381053D02*
X18238277Y-15390576D01*
X18238277Y-15390576D02*
X18200182Y-15390576D01*
X18200182Y-15390576D02*
X18181134Y-15381053D01*
X18181134Y-15381053D02*
X18171610Y-15371529D01*
X18171610Y-15371529D02*
X18162087Y-15352481D01*
X18162087Y-15352481D02*
X18162087Y-15295338D01*
X18162087Y-15295338D02*
X18171610Y-15276291D01*
X18171610Y-15276291D02*
X18181134Y-15266767D01*
X18181134Y-15266767D02*
X18200182Y-15257243D01*
X18200182Y-15257243D02*
X18238277Y-15257243D01*
X18238277Y-15257243D02*
X18257325Y-15266767D01*
X18333515Y-15466767D02*
X18343039Y-15457243D01*
X18343039Y-15457243D02*
X18362087Y-15428672D01*
X18362087Y-15428672D02*
X18371610Y-15409624D01*
X18371610Y-15409624D02*
X18381134Y-15381053D01*
X18381134Y-15381053D02*
X18390658Y-15333433D01*
X18390658Y-15333433D02*
X18390658Y-15295338D01*
X18390658Y-15295338D02*
X18381134Y-15247719D01*
X18381134Y-15247719D02*
X18371610Y-15219148D01*
X18371610Y-15219148D02*
X18362087Y-15200100D01*
X18362087Y-15200100D02*
X18343039Y-15171529D01*
X18343039Y-15171529D02*
X18333515Y-15162005D01*
M02*
