%TF.GenerationSoftware,KiCad,Pcbnew,8.0.1*%
%TF.CreationDate,2024-11-23T23:09:50-06:00*%
%TF.ProjectId,ContactorDriver,436f6e74-6163-4746-9f72-447269766572,rev?*%
%TF.SameCoordinates,Original*%
%TF.FileFunction,Drillmap*%
%TF.FilePolarity,Positive*%
%FSLAX45Y45*%
G04 Gerber Fmt 4.5, Leading zero omitted, Abs format (unit mm)*
G04 Created by KiCad (PCBNEW 8.0.1) date 2024-11-23 23:09:50*
%MOMM*%
%LPD*%
G01*
G04 APERTURE LIST*
%ADD10C,0.050000*%
%ADD11C,0.200000*%
%ADD12C,0.100000*%
%ADD13C,0.102000*%
%ADD14C,0.160000*%
G04 APERTURE END LIST*
D10*
X16300000Y-8307487D02*
G75*
G02*
X16650003Y-8657487I0J-350003D01*
G01*
X11580000Y-8650000D02*
G75*
G02*
X11930000Y-8307410I350000J-7490D01*
G01*
X11580000Y-8650000D02*
X11580000Y-14042513D01*
X16650000Y-14050000D02*
X16650000Y-8657487D01*
X11930000Y-14392513D02*
X16300000Y-14392513D01*
X16650000Y-14050000D02*
G75*
G02*
X16300000Y-14392590I-350000J7490D01*
G01*
X11930000Y-8307487D02*
X16300000Y-8307487D01*
X11930000Y-14392513D02*
G75*
G02*
X11579997Y-14042513I0J350003D01*
G01*
D11*
D12*
X13244200Y-9122600D02*
X13284200Y-9162600D01*
X13284200Y-9122600D02*
X13244200Y-9162600D01*
X13530000Y-10890000D02*
X13570000Y-10930000D01*
X13570000Y-10890000D02*
X13530000Y-10930000D01*
X13530000Y-12160000D02*
X13570000Y-12200000D01*
X13570000Y-12160000D02*
X13530000Y-12200000D01*
X13550000Y-9620000D02*
X13590000Y-9660000D01*
X13590000Y-9620000D02*
X13550000Y-9660000D01*
X13726800Y-10887860D02*
X13766800Y-10927860D01*
X13766800Y-10887860D02*
X13726800Y-10927860D01*
X13726800Y-12157820D02*
X13766800Y-12197820D01*
X13766800Y-12157820D02*
X13726800Y-12197820D01*
X13742040Y-9620440D02*
X13782040Y-9660440D01*
X13782040Y-9620440D02*
X13742040Y-9660440D01*
X13833480Y-9396920D02*
X13873480Y-9436920D01*
X13873480Y-9396920D02*
X13833480Y-9436920D01*
X13935000Y-12485000D02*
X13975000Y-12525000D01*
X13975000Y-12485000D02*
X13935000Y-12525000D01*
X14227460Y-9324060D02*
X14267460Y-9364060D01*
X14267460Y-9324060D02*
X14227460Y-9364060D01*
X14332500Y-10332500D02*
X14372500Y-10372500D01*
X14372500Y-10332500D02*
X14332500Y-10372500D01*
X14370000Y-11597500D02*
X14410000Y-11637500D01*
X14410000Y-11597500D02*
X14370000Y-11637500D01*
X14375000Y-12872500D02*
X14415000Y-12912500D01*
X14415000Y-12872500D02*
X14375000Y-12912500D01*
X14517500Y-12115000D02*
X14557500Y-12155000D01*
X14557500Y-12115000D02*
X14517500Y-12155000D01*
X14518800Y-9582500D02*
X14558800Y-9622500D01*
X14558800Y-9582500D02*
X14518800Y-9622500D01*
X14520000Y-10837500D02*
X14560000Y-10877500D01*
X14560000Y-10837500D02*
X14520000Y-10877500D01*
X14560000Y-11580000D02*
X14600000Y-11620000D01*
X14600000Y-11580000D02*
X14560000Y-11620000D01*
X14560000Y-12870000D02*
X14600000Y-12910000D01*
X14600000Y-12870000D02*
X14560000Y-12910000D01*
X14570000Y-10320000D02*
X14610000Y-10360000D01*
X14610000Y-10320000D02*
X14570000Y-10360000D01*
X15962000Y-9109900D02*
X16002000Y-9149900D01*
X16002000Y-9109900D02*
X15962000Y-9149900D01*
D13*
X12091000Y-11012500D02*
G75*
G02*
X11989000Y-11012500I-51000J0D01*
G01*
X11989000Y-11012500D02*
G75*
G02*
X12091000Y-11012500I51000J0D01*
G01*
X12091000Y-12291000D02*
G75*
G02*
X11989000Y-12291000I-51000J0D01*
G01*
X11989000Y-12291000D02*
G75*
G02*
X12091000Y-12291000I51000J0D01*
G01*
X12101000Y-9745000D02*
G75*
G02*
X11999000Y-9745000I-51000J0D01*
G01*
X11999000Y-9745000D02*
G75*
G02*
X12101000Y-9745000I51000J0D01*
G01*
X12391000Y-11012500D02*
G75*
G02*
X12289000Y-11012500I-51000J0D01*
G01*
X12289000Y-11012500D02*
G75*
G02*
X12391000Y-11012500I51000J0D01*
G01*
X12391000Y-12291000D02*
G75*
G02*
X12289000Y-12291000I-51000J0D01*
G01*
X12289000Y-12291000D02*
G75*
G02*
X12391000Y-12291000I51000J0D01*
G01*
X12401000Y-9745000D02*
G75*
G02*
X12299000Y-9745000I-51000J0D01*
G01*
X12299000Y-9745000D02*
G75*
G02*
X12401000Y-9745000I51000J0D01*
G01*
X12691000Y-11012500D02*
G75*
G02*
X12589000Y-11012500I-51000J0D01*
G01*
X12589000Y-11012500D02*
G75*
G02*
X12691000Y-11012500I51000J0D01*
G01*
X12691000Y-12291000D02*
G75*
G02*
X12589000Y-12291000I-51000J0D01*
G01*
X12589000Y-12291000D02*
G75*
G02*
X12691000Y-12291000I51000J0D01*
G01*
X12701000Y-9745000D02*
G75*
G02*
X12599000Y-9745000I-51000J0D01*
G01*
X12599000Y-9745000D02*
G75*
G02*
X12701000Y-9745000I51000J0D01*
G01*
X12791000Y-13239000D02*
G75*
G02*
X12689000Y-13239000I-51000J0D01*
G01*
X12689000Y-13239000D02*
G75*
G02*
X12791000Y-13239000I51000J0D01*
G01*
X12991000Y-11012500D02*
G75*
G02*
X12889000Y-11012500I-51000J0D01*
G01*
X12889000Y-11012500D02*
G75*
G02*
X12991000Y-11012500I51000J0D01*
G01*
X12991000Y-12291000D02*
G75*
G02*
X12889000Y-12291000I-51000J0D01*
G01*
X12889000Y-12291000D02*
G75*
G02*
X12991000Y-12291000I51000J0D01*
G01*
X13001000Y-9745000D02*
G75*
G02*
X12899000Y-9745000I-51000J0D01*
G01*
X12899000Y-9745000D02*
G75*
G02*
X13001000Y-9745000I51000J0D01*
G01*
X13091000Y-13239000D02*
G75*
G02*
X12989000Y-13239000I-51000J0D01*
G01*
X12989000Y-13239000D02*
G75*
G02*
X13091000Y-13239000I51000J0D01*
G01*
X13498080Y-8629520D02*
G75*
G02*
X13396080Y-8629520I-51000J0D01*
G01*
X13396080Y-8629520D02*
G75*
G02*
X13498080Y-8629520I51000J0D01*
G01*
X13561000Y-13927500D02*
G75*
G02*
X13459000Y-13927500I-51000J0D01*
G01*
X13459000Y-13927500D02*
G75*
G02*
X13561000Y-13927500I51000J0D01*
G01*
X13798080Y-8629520D02*
G75*
G02*
X13696080Y-8629520I-51000J0D01*
G01*
X13696080Y-8629520D02*
G75*
G02*
X13798080Y-8629520I51000J0D01*
G01*
X13861000Y-13927500D02*
G75*
G02*
X13759000Y-13927500I-51000J0D01*
G01*
X13759000Y-13927500D02*
G75*
G02*
X13861000Y-13927500I51000J0D01*
G01*
X14761000Y-13919000D02*
G75*
G02*
X14659000Y-13919000I-51000J0D01*
G01*
X14659000Y-13919000D02*
G75*
G02*
X14761000Y-13919000I51000J0D01*
G01*
X15061000Y-13919000D02*
G75*
G02*
X14959000Y-13919000I-51000J0D01*
G01*
X14959000Y-13919000D02*
G75*
G02*
X15061000Y-13919000I51000J0D01*
G01*
X15321000Y-9745000D02*
G75*
G02*
X15219000Y-9745000I-51000J0D01*
G01*
X15219000Y-9745000D02*
G75*
G02*
X15321000Y-9745000I51000J0D01*
G01*
X15321000Y-11012500D02*
G75*
G02*
X15219000Y-11012500I-51000J0D01*
G01*
X15219000Y-11012500D02*
G75*
G02*
X15321000Y-11012500I51000J0D01*
G01*
X15321000Y-12291000D02*
G75*
G02*
X15219000Y-12291000I-51000J0D01*
G01*
X15219000Y-12291000D02*
G75*
G02*
X15321000Y-12291000I51000J0D01*
G01*
X15521000Y-13201500D02*
G75*
G02*
X15419000Y-13201500I-51000J0D01*
G01*
X15419000Y-13201500D02*
G75*
G02*
X15521000Y-13201500I51000J0D01*
G01*
X15621000Y-9745000D02*
G75*
G02*
X15519000Y-9745000I-51000J0D01*
G01*
X15519000Y-9745000D02*
G75*
G02*
X15621000Y-9745000I51000J0D01*
G01*
X15621000Y-11012500D02*
G75*
G02*
X15519000Y-11012500I-51000J0D01*
G01*
X15519000Y-11012500D02*
G75*
G02*
X15621000Y-11012500I51000J0D01*
G01*
X15621000Y-12291000D02*
G75*
G02*
X15519000Y-12291000I-51000J0D01*
G01*
X15519000Y-12291000D02*
G75*
G02*
X15621000Y-12291000I51000J0D01*
G01*
X15821000Y-13201500D02*
G75*
G02*
X15719000Y-13201500I-51000J0D01*
G01*
X15719000Y-13201500D02*
G75*
G02*
X15821000Y-13201500I51000J0D01*
G01*
X15921000Y-9745000D02*
G75*
G02*
X15819000Y-9745000I-51000J0D01*
G01*
X15819000Y-9745000D02*
G75*
G02*
X15921000Y-9745000I51000J0D01*
G01*
X15921000Y-11012500D02*
G75*
G02*
X15819000Y-11012500I-51000J0D01*
G01*
X15819000Y-11012500D02*
G75*
G02*
X15921000Y-11012500I51000J0D01*
G01*
X15921000Y-12291000D02*
G75*
G02*
X15819000Y-12291000I-51000J0D01*
G01*
X15819000Y-12291000D02*
G75*
G02*
X15921000Y-12291000I51000J0D01*
G01*
X16221000Y-9745000D02*
G75*
G02*
X16119000Y-9745000I-51000J0D01*
G01*
X16119000Y-9745000D02*
G75*
G02*
X16221000Y-9745000I51000J0D01*
G01*
X16221000Y-11012500D02*
G75*
G02*
X16119000Y-11012500I-51000J0D01*
G01*
X16119000Y-11012500D02*
G75*
G02*
X16221000Y-11012500I51000J0D01*
G01*
X16221000Y-12291000D02*
G75*
G02*
X16119000Y-12291000I-51000J0D01*
G01*
X16119000Y-12291000D02*
G75*
G02*
X16221000Y-12291000I51000J0D01*
G01*
D14*
X14775500Y-8473320D02*
X14775500Y-8633320D01*
X14695500Y-8553320D02*
X14855500Y-8553320D01*
X15222540Y-8468240D02*
X15222540Y-8628240D01*
X15142540Y-8548240D02*
X15302540Y-8548240D01*
D11*
X11838276Y-14706576D02*
X11838276Y-14506576D01*
X11838276Y-14506576D02*
X11885895Y-14506576D01*
X11885895Y-14506576D02*
X11914467Y-14516100D01*
X11914467Y-14516100D02*
X11933515Y-14535148D01*
X11933515Y-14535148D02*
X11943038Y-14554195D01*
X11943038Y-14554195D02*
X11952562Y-14592291D01*
X11952562Y-14592291D02*
X11952562Y-14620862D01*
X11952562Y-14620862D02*
X11943038Y-14658957D01*
X11943038Y-14658957D02*
X11933515Y-14678005D01*
X11933515Y-14678005D02*
X11914467Y-14697053D01*
X11914467Y-14697053D02*
X11885895Y-14706576D01*
X11885895Y-14706576D02*
X11838276Y-14706576D01*
X12038276Y-14706576D02*
X12038276Y-14573243D01*
X12038276Y-14611338D02*
X12047800Y-14592291D01*
X12047800Y-14592291D02*
X12057324Y-14582767D01*
X12057324Y-14582767D02*
X12076372Y-14573243D01*
X12076372Y-14573243D02*
X12095419Y-14573243D01*
X12162086Y-14706576D02*
X12162086Y-14573243D01*
X12162086Y-14506576D02*
X12152562Y-14516100D01*
X12152562Y-14516100D02*
X12162086Y-14525624D01*
X12162086Y-14525624D02*
X12171610Y-14516100D01*
X12171610Y-14516100D02*
X12162086Y-14506576D01*
X12162086Y-14506576D02*
X12162086Y-14525624D01*
X12285895Y-14706576D02*
X12266848Y-14697053D01*
X12266848Y-14697053D02*
X12257324Y-14678005D01*
X12257324Y-14678005D02*
X12257324Y-14506576D01*
X12390657Y-14706576D02*
X12371610Y-14697053D01*
X12371610Y-14697053D02*
X12362086Y-14678005D01*
X12362086Y-14678005D02*
X12362086Y-14506576D01*
X12619229Y-14706576D02*
X12619229Y-14506576D01*
X12619229Y-14506576D02*
X12685896Y-14649433D01*
X12685896Y-14649433D02*
X12752562Y-14506576D01*
X12752562Y-14506576D02*
X12752562Y-14706576D01*
X12933515Y-14706576D02*
X12933515Y-14601814D01*
X12933515Y-14601814D02*
X12923991Y-14582767D01*
X12923991Y-14582767D02*
X12904943Y-14573243D01*
X12904943Y-14573243D02*
X12866848Y-14573243D01*
X12866848Y-14573243D02*
X12847800Y-14582767D01*
X12933515Y-14697053D02*
X12914467Y-14706576D01*
X12914467Y-14706576D02*
X12866848Y-14706576D01*
X12866848Y-14706576D02*
X12847800Y-14697053D01*
X12847800Y-14697053D02*
X12838276Y-14678005D01*
X12838276Y-14678005D02*
X12838276Y-14658957D01*
X12838276Y-14658957D02*
X12847800Y-14639910D01*
X12847800Y-14639910D02*
X12866848Y-14630386D01*
X12866848Y-14630386D02*
X12914467Y-14630386D01*
X12914467Y-14630386D02*
X12933515Y-14620862D01*
X13028753Y-14573243D02*
X13028753Y-14773243D01*
X13028753Y-14582767D02*
X13047800Y-14573243D01*
X13047800Y-14573243D02*
X13085896Y-14573243D01*
X13085896Y-14573243D02*
X13104943Y-14582767D01*
X13104943Y-14582767D02*
X13114467Y-14592291D01*
X13114467Y-14592291D02*
X13123991Y-14611338D01*
X13123991Y-14611338D02*
X13123991Y-14668481D01*
X13123991Y-14668481D02*
X13114467Y-14687529D01*
X13114467Y-14687529D02*
X13104943Y-14697053D01*
X13104943Y-14697053D02*
X13085896Y-14706576D01*
X13085896Y-14706576D02*
X13047800Y-14706576D01*
X13047800Y-14706576D02*
X13028753Y-14697053D01*
X13209705Y-14687529D02*
X13219229Y-14697053D01*
X13219229Y-14697053D02*
X13209705Y-14706576D01*
X13209705Y-14706576D02*
X13200181Y-14697053D01*
X13200181Y-14697053D02*
X13209705Y-14687529D01*
X13209705Y-14687529D02*
X13209705Y-14706576D01*
X13209705Y-14582767D02*
X13219229Y-14592291D01*
X13219229Y-14592291D02*
X13209705Y-14601814D01*
X13209705Y-14601814D02*
X13200181Y-14592291D01*
X13200181Y-14592291D02*
X13209705Y-14582767D01*
X13209705Y-14582767D02*
X13209705Y-14601814D01*
D12*
X11537500Y-15015093D02*
X11577500Y-15055093D01*
X11577500Y-15015093D02*
X11537500Y-15055093D01*
D11*
X11876372Y-14926576D02*
X11895419Y-14926576D01*
X11895419Y-14926576D02*
X11914467Y-14936100D01*
X11914467Y-14936100D02*
X11923991Y-14945624D01*
X11923991Y-14945624D02*
X11933515Y-14964672D01*
X11933515Y-14964672D02*
X11943038Y-15002767D01*
X11943038Y-15002767D02*
X11943038Y-15050386D01*
X11943038Y-15050386D02*
X11933515Y-15088481D01*
X11933515Y-15088481D02*
X11923991Y-15107529D01*
X11923991Y-15107529D02*
X11914467Y-15117053D01*
X11914467Y-15117053D02*
X11895419Y-15126576D01*
X11895419Y-15126576D02*
X11876372Y-15126576D01*
X11876372Y-15126576D02*
X11857324Y-15117053D01*
X11857324Y-15117053D02*
X11847800Y-15107529D01*
X11847800Y-15107529D02*
X11838276Y-15088481D01*
X11838276Y-15088481D02*
X11828753Y-15050386D01*
X11828753Y-15050386D02*
X11828753Y-15002767D01*
X11828753Y-15002767D02*
X11838276Y-14964672D01*
X11838276Y-14964672D02*
X11847800Y-14945624D01*
X11847800Y-14945624D02*
X11857324Y-14936100D01*
X11857324Y-14936100D02*
X11876372Y-14926576D01*
X12028753Y-15107529D02*
X12038276Y-15117053D01*
X12038276Y-15117053D02*
X12028753Y-15126576D01*
X12028753Y-15126576D02*
X12019229Y-15117053D01*
X12019229Y-15117053D02*
X12028753Y-15107529D01*
X12028753Y-15107529D02*
X12028753Y-15126576D01*
X12209705Y-14993243D02*
X12209705Y-15126576D01*
X12162086Y-14917053D02*
X12114467Y-15059910D01*
X12114467Y-15059910D02*
X12238276Y-15059910D01*
X12352562Y-14926576D02*
X12371610Y-14926576D01*
X12371610Y-14926576D02*
X12390657Y-14936100D01*
X12390657Y-14936100D02*
X12400181Y-14945624D01*
X12400181Y-14945624D02*
X12409705Y-14964672D01*
X12409705Y-14964672D02*
X12419229Y-15002767D01*
X12419229Y-15002767D02*
X12419229Y-15050386D01*
X12419229Y-15050386D02*
X12409705Y-15088481D01*
X12409705Y-15088481D02*
X12400181Y-15107529D01*
X12400181Y-15107529D02*
X12390657Y-15117053D01*
X12390657Y-15117053D02*
X12371610Y-15126576D01*
X12371610Y-15126576D02*
X12352562Y-15126576D01*
X12352562Y-15126576D02*
X12333515Y-15117053D01*
X12333515Y-15117053D02*
X12323991Y-15107529D01*
X12323991Y-15107529D02*
X12314467Y-15088481D01*
X12314467Y-15088481D02*
X12304943Y-15050386D01*
X12304943Y-15050386D02*
X12304943Y-15002767D01*
X12304943Y-15002767D02*
X12314467Y-14964672D01*
X12314467Y-14964672D02*
X12323991Y-14945624D01*
X12323991Y-14945624D02*
X12333515Y-14936100D01*
X12333515Y-14936100D02*
X12352562Y-14926576D01*
X12543038Y-14926576D02*
X12562086Y-14926576D01*
X12562086Y-14926576D02*
X12581134Y-14936100D01*
X12581134Y-14936100D02*
X12590657Y-14945624D01*
X12590657Y-14945624D02*
X12600181Y-14964672D01*
X12600181Y-14964672D02*
X12609705Y-15002767D01*
X12609705Y-15002767D02*
X12609705Y-15050386D01*
X12609705Y-15050386D02*
X12600181Y-15088481D01*
X12600181Y-15088481D02*
X12590657Y-15107529D01*
X12590657Y-15107529D02*
X12581134Y-15117053D01*
X12581134Y-15117053D02*
X12562086Y-15126576D01*
X12562086Y-15126576D02*
X12543038Y-15126576D01*
X12543038Y-15126576D02*
X12523991Y-15117053D01*
X12523991Y-15117053D02*
X12514467Y-15107529D01*
X12514467Y-15107529D02*
X12504943Y-15088481D01*
X12504943Y-15088481D02*
X12495419Y-15050386D01*
X12495419Y-15050386D02*
X12495419Y-15002767D01*
X12495419Y-15002767D02*
X12504943Y-14964672D01*
X12504943Y-14964672D02*
X12514467Y-14945624D01*
X12514467Y-14945624D02*
X12523991Y-14936100D01*
X12523991Y-14936100D02*
X12543038Y-14926576D01*
X12695419Y-15126576D02*
X12695419Y-14993243D01*
X12695419Y-15012291D02*
X12704943Y-15002767D01*
X12704943Y-15002767D02*
X12723991Y-14993243D01*
X12723991Y-14993243D02*
X12752562Y-14993243D01*
X12752562Y-14993243D02*
X12771610Y-15002767D01*
X12771610Y-15002767D02*
X12781134Y-15021814D01*
X12781134Y-15021814D02*
X12781134Y-15126576D01*
X12781134Y-15021814D02*
X12790657Y-15002767D01*
X12790657Y-15002767D02*
X12809705Y-14993243D01*
X12809705Y-14993243D02*
X12838276Y-14993243D01*
X12838276Y-14993243D02*
X12857324Y-15002767D01*
X12857324Y-15002767D02*
X12866848Y-15021814D01*
X12866848Y-15021814D02*
X12866848Y-15126576D01*
X12962086Y-15126576D02*
X12962086Y-14993243D01*
X12962086Y-15012291D02*
X12971610Y-15002767D01*
X12971610Y-15002767D02*
X12990657Y-14993243D01*
X12990657Y-14993243D02*
X13019229Y-14993243D01*
X13019229Y-14993243D02*
X13038277Y-15002767D01*
X13038277Y-15002767D02*
X13047800Y-15021814D01*
X13047800Y-15021814D02*
X13047800Y-15126576D01*
X13047800Y-15021814D02*
X13057324Y-15002767D01*
X13057324Y-15002767D02*
X13076372Y-14993243D01*
X13076372Y-14993243D02*
X13104943Y-14993243D01*
X13104943Y-14993243D02*
X13123991Y-15002767D01*
X13123991Y-15002767D02*
X13133515Y-15021814D01*
X13133515Y-15021814D02*
X13133515Y-15126576D01*
X13523991Y-14917053D02*
X13352562Y-15174195D01*
X13781134Y-14926576D02*
X13800181Y-14926576D01*
X13800181Y-14926576D02*
X13819229Y-14936100D01*
X13819229Y-14936100D02*
X13828753Y-14945624D01*
X13828753Y-14945624D02*
X13838277Y-14964672D01*
X13838277Y-14964672D02*
X13847800Y-15002767D01*
X13847800Y-15002767D02*
X13847800Y-15050386D01*
X13847800Y-15050386D02*
X13838277Y-15088481D01*
X13838277Y-15088481D02*
X13828753Y-15107529D01*
X13828753Y-15107529D02*
X13819229Y-15117053D01*
X13819229Y-15117053D02*
X13800181Y-15126576D01*
X13800181Y-15126576D02*
X13781134Y-15126576D01*
X13781134Y-15126576D02*
X13762086Y-15117053D01*
X13762086Y-15117053D02*
X13752562Y-15107529D01*
X13752562Y-15107529D02*
X13743039Y-15088481D01*
X13743039Y-15088481D02*
X13733515Y-15050386D01*
X13733515Y-15050386D02*
X13733515Y-15002767D01*
X13733515Y-15002767D02*
X13743039Y-14964672D01*
X13743039Y-14964672D02*
X13752562Y-14945624D01*
X13752562Y-14945624D02*
X13762086Y-14936100D01*
X13762086Y-14936100D02*
X13781134Y-14926576D01*
X13933515Y-15107529D02*
X13943039Y-15117053D01*
X13943039Y-15117053D02*
X13933515Y-15126576D01*
X13933515Y-15126576D02*
X13923991Y-15117053D01*
X13923991Y-15117053D02*
X13933515Y-15107529D01*
X13933515Y-15107529D02*
X13933515Y-15126576D01*
X14066848Y-14926576D02*
X14085896Y-14926576D01*
X14085896Y-14926576D02*
X14104943Y-14936100D01*
X14104943Y-14936100D02*
X14114467Y-14945624D01*
X14114467Y-14945624D02*
X14123991Y-14964672D01*
X14123991Y-14964672D02*
X14133515Y-15002767D01*
X14133515Y-15002767D02*
X14133515Y-15050386D01*
X14133515Y-15050386D02*
X14123991Y-15088481D01*
X14123991Y-15088481D02*
X14114467Y-15107529D01*
X14114467Y-15107529D02*
X14104943Y-15117053D01*
X14104943Y-15117053D02*
X14085896Y-15126576D01*
X14085896Y-15126576D02*
X14066848Y-15126576D01*
X14066848Y-15126576D02*
X14047800Y-15117053D01*
X14047800Y-15117053D02*
X14038277Y-15107529D01*
X14038277Y-15107529D02*
X14028753Y-15088481D01*
X14028753Y-15088481D02*
X14019229Y-15050386D01*
X14019229Y-15050386D02*
X14019229Y-15002767D01*
X14019229Y-15002767D02*
X14028753Y-14964672D01*
X14028753Y-14964672D02*
X14038277Y-14945624D01*
X14038277Y-14945624D02*
X14047800Y-14936100D01*
X14047800Y-14936100D02*
X14066848Y-14926576D01*
X14323991Y-15126576D02*
X14209705Y-15126576D01*
X14266848Y-15126576D02*
X14266848Y-14926576D01*
X14266848Y-14926576D02*
X14247800Y-14955148D01*
X14247800Y-14955148D02*
X14228753Y-14974195D01*
X14228753Y-14974195D02*
X14209705Y-14983719D01*
X14504943Y-14926576D02*
X14409705Y-14926576D01*
X14409705Y-14926576D02*
X14400181Y-15021814D01*
X14400181Y-15021814D02*
X14409705Y-15012291D01*
X14409705Y-15012291D02*
X14428753Y-15002767D01*
X14428753Y-15002767D02*
X14476372Y-15002767D01*
X14476372Y-15002767D02*
X14495420Y-15012291D01*
X14495420Y-15012291D02*
X14504943Y-15021814D01*
X14504943Y-15021814D02*
X14514467Y-15040862D01*
X14514467Y-15040862D02*
X14514467Y-15088481D01*
X14514467Y-15088481D02*
X14504943Y-15107529D01*
X14504943Y-15107529D02*
X14495420Y-15117053D01*
X14495420Y-15117053D02*
X14476372Y-15126576D01*
X14476372Y-15126576D02*
X14428753Y-15126576D01*
X14428753Y-15126576D02*
X14409705Y-15117053D01*
X14409705Y-15117053D02*
X14400181Y-15107529D01*
X14581134Y-14926576D02*
X14714467Y-14926576D01*
X14714467Y-14926576D02*
X14628753Y-15126576D01*
X14781134Y-14926576D02*
X14781134Y-14964672D01*
X14857324Y-14926576D02*
X14857324Y-14964672D01*
X15152563Y-15202767D02*
X15143039Y-15193243D01*
X15143039Y-15193243D02*
X15123991Y-15164672D01*
X15123991Y-15164672D02*
X15114467Y-15145624D01*
X15114467Y-15145624D02*
X15104943Y-15117053D01*
X15104943Y-15117053D02*
X15095420Y-15069433D01*
X15095420Y-15069433D02*
X15095420Y-15031338D01*
X15095420Y-15031338D02*
X15104943Y-14983719D01*
X15104943Y-14983719D02*
X15114467Y-14955148D01*
X15114467Y-14955148D02*
X15123991Y-14936100D01*
X15123991Y-14936100D02*
X15143039Y-14907529D01*
X15143039Y-14907529D02*
X15152563Y-14898005D01*
X15219229Y-14945624D02*
X15228753Y-14936100D01*
X15228753Y-14936100D02*
X15247801Y-14926576D01*
X15247801Y-14926576D02*
X15295420Y-14926576D01*
X15295420Y-14926576D02*
X15314467Y-14936100D01*
X15314467Y-14936100D02*
X15323991Y-14945624D01*
X15323991Y-14945624D02*
X15333515Y-14964672D01*
X15333515Y-14964672D02*
X15333515Y-14983719D01*
X15333515Y-14983719D02*
X15323991Y-15012291D01*
X15323991Y-15012291D02*
X15209705Y-15126576D01*
X15209705Y-15126576D02*
X15333515Y-15126576D01*
X15457324Y-14926576D02*
X15476372Y-14926576D01*
X15476372Y-14926576D02*
X15495420Y-14936100D01*
X15495420Y-14936100D02*
X15504943Y-14945624D01*
X15504943Y-14945624D02*
X15514467Y-14964672D01*
X15514467Y-14964672D02*
X15523991Y-15002767D01*
X15523991Y-15002767D02*
X15523991Y-15050386D01*
X15523991Y-15050386D02*
X15514467Y-15088481D01*
X15514467Y-15088481D02*
X15504943Y-15107529D01*
X15504943Y-15107529D02*
X15495420Y-15117053D01*
X15495420Y-15117053D02*
X15476372Y-15126576D01*
X15476372Y-15126576D02*
X15457324Y-15126576D01*
X15457324Y-15126576D02*
X15438277Y-15117053D01*
X15438277Y-15117053D02*
X15428753Y-15107529D01*
X15428753Y-15107529D02*
X15419229Y-15088481D01*
X15419229Y-15088481D02*
X15409705Y-15050386D01*
X15409705Y-15050386D02*
X15409705Y-15002767D01*
X15409705Y-15002767D02*
X15419229Y-14964672D01*
X15419229Y-14964672D02*
X15428753Y-14945624D01*
X15428753Y-14945624D02*
X15438277Y-14936100D01*
X15438277Y-14936100D02*
X15457324Y-14926576D01*
X15762086Y-15126576D02*
X15762086Y-14926576D01*
X15847801Y-15126576D02*
X15847801Y-15021814D01*
X15847801Y-15021814D02*
X15838277Y-15002767D01*
X15838277Y-15002767D02*
X15819229Y-14993243D01*
X15819229Y-14993243D02*
X15790658Y-14993243D01*
X15790658Y-14993243D02*
X15771610Y-15002767D01*
X15771610Y-15002767D02*
X15762086Y-15012291D01*
X15971610Y-15126576D02*
X15952563Y-15117053D01*
X15952563Y-15117053D02*
X15943039Y-15107529D01*
X15943039Y-15107529D02*
X15933515Y-15088481D01*
X15933515Y-15088481D02*
X15933515Y-15031338D01*
X15933515Y-15031338D02*
X15943039Y-15012291D01*
X15943039Y-15012291D02*
X15952563Y-15002767D01*
X15952563Y-15002767D02*
X15971610Y-14993243D01*
X15971610Y-14993243D02*
X16000182Y-14993243D01*
X16000182Y-14993243D02*
X16019229Y-15002767D01*
X16019229Y-15002767D02*
X16028753Y-15012291D01*
X16028753Y-15012291D02*
X16038277Y-15031338D01*
X16038277Y-15031338D02*
X16038277Y-15088481D01*
X16038277Y-15088481D02*
X16028753Y-15107529D01*
X16028753Y-15107529D02*
X16019229Y-15117053D01*
X16019229Y-15117053D02*
X16000182Y-15126576D01*
X16000182Y-15126576D02*
X15971610Y-15126576D01*
X16152563Y-15126576D02*
X16133515Y-15117053D01*
X16133515Y-15117053D02*
X16123991Y-15098005D01*
X16123991Y-15098005D02*
X16123991Y-14926576D01*
X16304944Y-15117053D02*
X16285896Y-15126576D01*
X16285896Y-15126576D02*
X16247801Y-15126576D01*
X16247801Y-15126576D02*
X16228753Y-15117053D01*
X16228753Y-15117053D02*
X16219229Y-15098005D01*
X16219229Y-15098005D02*
X16219229Y-15021814D01*
X16219229Y-15021814D02*
X16228753Y-15002767D01*
X16228753Y-15002767D02*
X16247801Y-14993243D01*
X16247801Y-14993243D02*
X16285896Y-14993243D01*
X16285896Y-14993243D02*
X16304944Y-15002767D01*
X16304944Y-15002767D02*
X16314467Y-15021814D01*
X16314467Y-15021814D02*
X16314467Y-15040862D01*
X16314467Y-15040862D02*
X16219229Y-15059910D01*
X16390658Y-15117053D02*
X16409705Y-15126576D01*
X16409705Y-15126576D02*
X16447801Y-15126576D01*
X16447801Y-15126576D02*
X16466848Y-15117053D01*
X16466848Y-15117053D02*
X16476372Y-15098005D01*
X16476372Y-15098005D02*
X16476372Y-15088481D01*
X16476372Y-15088481D02*
X16466848Y-15069433D01*
X16466848Y-15069433D02*
X16447801Y-15059910D01*
X16447801Y-15059910D02*
X16419229Y-15059910D01*
X16419229Y-15059910D02*
X16400182Y-15050386D01*
X16400182Y-15050386D02*
X16390658Y-15031338D01*
X16390658Y-15031338D02*
X16390658Y-15021814D01*
X16390658Y-15021814D02*
X16400182Y-15002767D01*
X16400182Y-15002767D02*
X16419229Y-14993243D01*
X16419229Y-14993243D02*
X16447801Y-14993243D01*
X16447801Y-14993243D02*
X16466848Y-15002767D01*
X16543039Y-15202767D02*
X16552563Y-15193243D01*
X16552563Y-15193243D02*
X16571610Y-15164672D01*
X16571610Y-15164672D02*
X16581134Y-15145624D01*
X16581134Y-15145624D02*
X16590658Y-15117053D01*
X16590658Y-15117053D02*
X16600182Y-15069433D01*
X16600182Y-15069433D02*
X16600182Y-15031338D01*
X16600182Y-15031338D02*
X16590658Y-14983719D01*
X16590658Y-14983719D02*
X16581134Y-14955148D01*
X16581134Y-14955148D02*
X16571610Y-14936100D01*
X16571610Y-14936100D02*
X16552563Y-14907529D01*
X16552563Y-14907529D02*
X16543039Y-14898005D01*
D13*
X11577500Y-15299093D02*
G75*
G02*
X11475500Y-15299093I-51000J0D01*
G01*
X11475500Y-15299093D02*
G75*
G02*
X11577500Y-15299093I51000J0D01*
G01*
D11*
X11943038Y-15390576D02*
X11828753Y-15390576D01*
X11885895Y-15390576D02*
X11885895Y-15190576D01*
X11885895Y-15190576D02*
X11866848Y-15219148D01*
X11866848Y-15219148D02*
X11847800Y-15238195D01*
X11847800Y-15238195D02*
X11828753Y-15247719D01*
X12028753Y-15371529D02*
X12038276Y-15381053D01*
X12038276Y-15381053D02*
X12028753Y-15390576D01*
X12028753Y-15390576D02*
X12019229Y-15381053D01*
X12019229Y-15381053D02*
X12028753Y-15371529D01*
X12028753Y-15371529D02*
X12028753Y-15390576D01*
X12162086Y-15190576D02*
X12181134Y-15190576D01*
X12181134Y-15190576D02*
X12200181Y-15200100D01*
X12200181Y-15200100D02*
X12209705Y-15209624D01*
X12209705Y-15209624D02*
X12219229Y-15228672D01*
X12219229Y-15228672D02*
X12228753Y-15266767D01*
X12228753Y-15266767D02*
X12228753Y-15314386D01*
X12228753Y-15314386D02*
X12219229Y-15352481D01*
X12219229Y-15352481D02*
X12209705Y-15371529D01*
X12209705Y-15371529D02*
X12200181Y-15381053D01*
X12200181Y-15381053D02*
X12181134Y-15390576D01*
X12181134Y-15390576D02*
X12162086Y-15390576D01*
X12162086Y-15390576D02*
X12143038Y-15381053D01*
X12143038Y-15381053D02*
X12133515Y-15371529D01*
X12133515Y-15371529D02*
X12123991Y-15352481D01*
X12123991Y-15352481D02*
X12114467Y-15314386D01*
X12114467Y-15314386D02*
X12114467Y-15266767D01*
X12114467Y-15266767D02*
X12123991Y-15228672D01*
X12123991Y-15228672D02*
X12133515Y-15209624D01*
X12133515Y-15209624D02*
X12143038Y-15200100D01*
X12143038Y-15200100D02*
X12162086Y-15190576D01*
X12304943Y-15209624D02*
X12314467Y-15200100D01*
X12314467Y-15200100D02*
X12333515Y-15190576D01*
X12333515Y-15190576D02*
X12381134Y-15190576D01*
X12381134Y-15190576D02*
X12400181Y-15200100D01*
X12400181Y-15200100D02*
X12409705Y-15209624D01*
X12409705Y-15209624D02*
X12419229Y-15228672D01*
X12419229Y-15228672D02*
X12419229Y-15247719D01*
X12419229Y-15247719D02*
X12409705Y-15276291D01*
X12409705Y-15276291D02*
X12295419Y-15390576D01*
X12295419Y-15390576D02*
X12419229Y-15390576D01*
X12543038Y-15190576D02*
X12562086Y-15190576D01*
X12562086Y-15190576D02*
X12581134Y-15200100D01*
X12581134Y-15200100D02*
X12590657Y-15209624D01*
X12590657Y-15209624D02*
X12600181Y-15228672D01*
X12600181Y-15228672D02*
X12609705Y-15266767D01*
X12609705Y-15266767D02*
X12609705Y-15314386D01*
X12609705Y-15314386D02*
X12600181Y-15352481D01*
X12600181Y-15352481D02*
X12590657Y-15371529D01*
X12590657Y-15371529D02*
X12581134Y-15381053D01*
X12581134Y-15381053D02*
X12562086Y-15390576D01*
X12562086Y-15390576D02*
X12543038Y-15390576D01*
X12543038Y-15390576D02*
X12523991Y-15381053D01*
X12523991Y-15381053D02*
X12514467Y-15371529D01*
X12514467Y-15371529D02*
X12504943Y-15352481D01*
X12504943Y-15352481D02*
X12495419Y-15314386D01*
X12495419Y-15314386D02*
X12495419Y-15266767D01*
X12495419Y-15266767D02*
X12504943Y-15228672D01*
X12504943Y-15228672D02*
X12514467Y-15209624D01*
X12514467Y-15209624D02*
X12523991Y-15200100D01*
X12523991Y-15200100D02*
X12543038Y-15190576D01*
X12695419Y-15390576D02*
X12695419Y-15257243D01*
X12695419Y-15276291D02*
X12704943Y-15266767D01*
X12704943Y-15266767D02*
X12723991Y-15257243D01*
X12723991Y-15257243D02*
X12752562Y-15257243D01*
X12752562Y-15257243D02*
X12771610Y-15266767D01*
X12771610Y-15266767D02*
X12781134Y-15285814D01*
X12781134Y-15285814D02*
X12781134Y-15390576D01*
X12781134Y-15285814D02*
X12790657Y-15266767D01*
X12790657Y-15266767D02*
X12809705Y-15257243D01*
X12809705Y-15257243D02*
X12838276Y-15257243D01*
X12838276Y-15257243D02*
X12857324Y-15266767D01*
X12857324Y-15266767D02*
X12866848Y-15285814D01*
X12866848Y-15285814D02*
X12866848Y-15390576D01*
X12962086Y-15390576D02*
X12962086Y-15257243D01*
X12962086Y-15276291D02*
X12971610Y-15266767D01*
X12971610Y-15266767D02*
X12990657Y-15257243D01*
X12990657Y-15257243D02*
X13019229Y-15257243D01*
X13019229Y-15257243D02*
X13038277Y-15266767D01*
X13038277Y-15266767D02*
X13047800Y-15285814D01*
X13047800Y-15285814D02*
X13047800Y-15390576D01*
X13047800Y-15285814D02*
X13057324Y-15266767D01*
X13057324Y-15266767D02*
X13076372Y-15257243D01*
X13076372Y-15257243D02*
X13104943Y-15257243D01*
X13104943Y-15257243D02*
X13123991Y-15266767D01*
X13123991Y-15266767D02*
X13133515Y-15285814D01*
X13133515Y-15285814D02*
X13133515Y-15390576D01*
X13523991Y-15181053D02*
X13352562Y-15438195D01*
X13781134Y-15190576D02*
X13800181Y-15190576D01*
X13800181Y-15190576D02*
X13819229Y-15200100D01*
X13819229Y-15200100D02*
X13828753Y-15209624D01*
X13828753Y-15209624D02*
X13838277Y-15228672D01*
X13838277Y-15228672D02*
X13847800Y-15266767D01*
X13847800Y-15266767D02*
X13847800Y-15314386D01*
X13847800Y-15314386D02*
X13838277Y-15352481D01*
X13838277Y-15352481D02*
X13828753Y-15371529D01*
X13828753Y-15371529D02*
X13819229Y-15381053D01*
X13819229Y-15381053D02*
X13800181Y-15390576D01*
X13800181Y-15390576D02*
X13781134Y-15390576D01*
X13781134Y-15390576D02*
X13762086Y-15381053D01*
X13762086Y-15381053D02*
X13752562Y-15371529D01*
X13752562Y-15371529D02*
X13743039Y-15352481D01*
X13743039Y-15352481D02*
X13733515Y-15314386D01*
X13733515Y-15314386D02*
X13733515Y-15266767D01*
X13733515Y-15266767D02*
X13743039Y-15228672D01*
X13743039Y-15228672D02*
X13752562Y-15209624D01*
X13752562Y-15209624D02*
X13762086Y-15200100D01*
X13762086Y-15200100D02*
X13781134Y-15190576D01*
X13933515Y-15371529D02*
X13943039Y-15381053D01*
X13943039Y-15381053D02*
X13933515Y-15390576D01*
X13933515Y-15390576D02*
X13923991Y-15381053D01*
X13923991Y-15381053D02*
X13933515Y-15371529D01*
X13933515Y-15371529D02*
X13933515Y-15390576D01*
X14066848Y-15190576D02*
X14085896Y-15190576D01*
X14085896Y-15190576D02*
X14104943Y-15200100D01*
X14104943Y-15200100D02*
X14114467Y-15209624D01*
X14114467Y-15209624D02*
X14123991Y-15228672D01*
X14123991Y-15228672D02*
X14133515Y-15266767D01*
X14133515Y-15266767D02*
X14133515Y-15314386D01*
X14133515Y-15314386D02*
X14123991Y-15352481D01*
X14123991Y-15352481D02*
X14114467Y-15371529D01*
X14114467Y-15371529D02*
X14104943Y-15381053D01*
X14104943Y-15381053D02*
X14085896Y-15390576D01*
X14085896Y-15390576D02*
X14066848Y-15390576D01*
X14066848Y-15390576D02*
X14047800Y-15381053D01*
X14047800Y-15381053D02*
X14038277Y-15371529D01*
X14038277Y-15371529D02*
X14028753Y-15352481D01*
X14028753Y-15352481D02*
X14019229Y-15314386D01*
X14019229Y-15314386D02*
X14019229Y-15266767D01*
X14019229Y-15266767D02*
X14028753Y-15228672D01*
X14028753Y-15228672D02*
X14038277Y-15209624D01*
X14038277Y-15209624D02*
X14047800Y-15200100D01*
X14047800Y-15200100D02*
X14066848Y-15190576D01*
X14304943Y-15257243D02*
X14304943Y-15390576D01*
X14257324Y-15181053D02*
X14209705Y-15323910D01*
X14209705Y-15323910D02*
X14333515Y-15323910D01*
X14447800Y-15190576D02*
X14466848Y-15190576D01*
X14466848Y-15190576D02*
X14485896Y-15200100D01*
X14485896Y-15200100D02*
X14495420Y-15209624D01*
X14495420Y-15209624D02*
X14504943Y-15228672D01*
X14504943Y-15228672D02*
X14514467Y-15266767D01*
X14514467Y-15266767D02*
X14514467Y-15314386D01*
X14514467Y-15314386D02*
X14504943Y-15352481D01*
X14504943Y-15352481D02*
X14495420Y-15371529D01*
X14495420Y-15371529D02*
X14485896Y-15381053D01*
X14485896Y-15381053D02*
X14466848Y-15390576D01*
X14466848Y-15390576D02*
X14447800Y-15390576D01*
X14447800Y-15390576D02*
X14428753Y-15381053D01*
X14428753Y-15381053D02*
X14419229Y-15371529D01*
X14419229Y-15371529D02*
X14409705Y-15352481D01*
X14409705Y-15352481D02*
X14400181Y-15314386D01*
X14400181Y-15314386D02*
X14400181Y-15266767D01*
X14400181Y-15266767D02*
X14409705Y-15228672D01*
X14409705Y-15228672D02*
X14419229Y-15209624D01*
X14419229Y-15209624D02*
X14428753Y-15200100D01*
X14428753Y-15200100D02*
X14447800Y-15190576D01*
X14590658Y-15209624D02*
X14600181Y-15200100D01*
X14600181Y-15200100D02*
X14619229Y-15190576D01*
X14619229Y-15190576D02*
X14666848Y-15190576D01*
X14666848Y-15190576D02*
X14685896Y-15200100D01*
X14685896Y-15200100D02*
X14695420Y-15209624D01*
X14695420Y-15209624D02*
X14704943Y-15228672D01*
X14704943Y-15228672D02*
X14704943Y-15247719D01*
X14704943Y-15247719D02*
X14695420Y-15276291D01*
X14695420Y-15276291D02*
X14581134Y-15390576D01*
X14581134Y-15390576D02*
X14704943Y-15390576D01*
X14781134Y-15190576D02*
X14781134Y-15228672D01*
X14857324Y-15190576D02*
X14857324Y-15228672D01*
X15152563Y-15466767D02*
X15143039Y-15457243D01*
X15143039Y-15457243D02*
X15123991Y-15428672D01*
X15123991Y-15428672D02*
X15114467Y-15409624D01*
X15114467Y-15409624D02*
X15104943Y-15381053D01*
X15104943Y-15381053D02*
X15095420Y-15333433D01*
X15095420Y-15333433D02*
X15095420Y-15295338D01*
X15095420Y-15295338D02*
X15104943Y-15247719D01*
X15104943Y-15247719D02*
X15114467Y-15219148D01*
X15114467Y-15219148D02*
X15123991Y-15200100D01*
X15123991Y-15200100D02*
X15143039Y-15171529D01*
X15143039Y-15171529D02*
X15152563Y-15162005D01*
X15209705Y-15190576D02*
X15333515Y-15190576D01*
X15333515Y-15190576D02*
X15266848Y-15266767D01*
X15266848Y-15266767D02*
X15295420Y-15266767D01*
X15295420Y-15266767D02*
X15314467Y-15276291D01*
X15314467Y-15276291D02*
X15323991Y-15285814D01*
X15323991Y-15285814D02*
X15333515Y-15304862D01*
X15333515Y-15304862D02*
X15333515Y-15352481D01*
X15333515Y-15352481D02*
X15323991Y-15371529D01*
X15323991Y-15371529D02*
X15314467Y-15381053D01*
X15314467Y-15381053D02*
X15295420Y-15390576D01*
X15295420Y-15390576D02*
X15238277Y-15390576D01*
X15238277Y-15390576D02*
X15219229Y-15381053D01*
X15219229Y-15381053D02*
X15209705Y-15371529D01*
X15504943Y-15257243D02*
X15504943Y-15390576D01*
X15457324Y-15181053D02*
X15409705Y-15323910D01*
X15409705Y-15323910D02*
X15533515Y-15323910D01*
X15762086Y-15390576D02*
X15762086Y-15190576D01*
X15847801Y-15390576D02*
X15847801Y-15285814D01*
X15847801Y-15285814D02*
X15838277Y-15266767D01*
X15838277Y-15266767D02*
X15819229Y-15257243D01*
X15819229Y-15257243D02*
X15790658Y-15257243D01*
X15790658Y-15257243D02*
X15771610Y-15266767D01*
X15771610Y-15266767D02*
X15762086Y-15276291D01*
X15971610Y-15390576D02*
X15952563Y-15381053D01*
X15952563Y-15381053D02*
X15943039Y-15371529D01*
X15943039Y-15371529D02*
X15933515Y-15352481D01*
X15933515Y-15352481D02*
X15933515Y-15295338D01*
X15933515Y-15295338D02*
X15943039Y-15276291D01*
X15943039Y-15276291D02*
X15952563Y-15266767D01*
X15952563Y-15266767D02*
X15971610Y-15257243D01*
X15971610Y-15257243D02*
X16000182Y-15257243D01*
X16000182Y-15257243D02*
X16019229Y-15266767D01*
X16019229Y-15266767D02*
X16028753Y-15276291D01*
X16028753Y-15276291D02*
X16038277Y-15295338D01*
X16038277Y-15295338D02*
X16038277Y-15352481D01*
X16038277Y-15352481D02*
X16028753Y-15371529D01*
X16028753Y-15371529D02*
X16019229Y-15381053D01*
X16019229Y-15381053D02*
X16000182Y-15390576D01*
X16000182Y-15390576D02*
X15971610Y-15390576D01*
X16152563Y-15390576D02*
X16133515Y-15381053D01*
X16133515Y-15381053D02*
X16123991Y-15362005D01*
X16123991Y-15362005D02*
X16123991Y-15190576D01*
X16304944Y-15381053D02*
X16285896Y-15390576D01*
X16285896Y-15390576D02*
X16247801Y-15390576D01*
X16247801Y-15390576D02*
X16228753Y-15381053D01*
X16228753Y-15381053D02*
X16219229Y-15362005D01*
X16219229Y-15362005D02*
X16219229Y-15285814D01*
X16219229Y-15285814D02*
X16228753Y-15266767D01*
X16228753Y-15266767D02*
X16247801Y-15257243D01*
X16247801Y-15257243D02*
X16285896Y-15257243D01*
X16285896Y-15257243D02*
X16304944Y-15266767D01*
X16304944Y-15266767D02*
X16314467Y-15285814D01*
X16314467Y-15285814D02*
X16314467Y-15304862D01*
X16314467Y-15304862D02*
X16219229Y-15323910D01*
X16390658Y-15381053D02*
X16409705Y-15390576D01*
X16409705Y-15390576D02*
X16447801Y-15390576D01*
X16447801Y-15390576D02*
X16466848Y-15381053D01*
X16466848Y-15381053D02*
X16476372Y-15362005D01*
X16476372Y-15362005D02*
X16476372Y-15352481D01*
X16476372Y-15352481D02*
X16466848Y-15333433D01*
X16466848Y-15333433D02*
X16447801Y-15323910D01*
X16447801Y-15323910D02*
X16419229Y-15323910D01*
X16419229Y-15323910D02*
X16400182Y-15314386D01*
X16400182Y-15314386D02*
X16390658Y-15295338D01*
X16390658Y-15295338D02*
X16390658Y-15285814D01*
X16390658Y-15285814D02*
X16400182Y-15266767D01*
X16400182Y-15266767D02*
X16419229Y-15257243D01*
X16419229Y-15257243D02*
X16447801Y-15257243D01*
X16447801Y-15257243D02*
X16466848Y-15266767D01*
X16543039Y-15466767D02*
X16552563Y-15457243D01*
X16552563Y-15457243D02*
X16571610Y-15428672D01*
X16571610Y-15428672D02*
X16581134Y-15409624D01*
X16581134Y-15409624D02*
X16590658Y-15381053D01*
X16590658Y-15381053D02*
X16600182Y-15333433D01*
X16600182Y-15333433D02*
X16600182Y-15295338D01*
X16600182Y-15295338D02*
X16590658Y-15247719D01*
X16590658Y-15247719D02*
X16581134Y-15219148D01*
X16581134Y-15219148D02*
X16571610Y-15200100D01*
X16571610Y-15200100D02*
X16552563Y-15171529D01*
X16552563Y-15171529D02*
X16543039Y-15162005D01*
D14*
X11497500Y-15483093D02*
X11497500Y-15643093D01*
X11417500Y-15563093D02*
X11577500Y-15563093D01*
D11*
X11943038Y-15654576D02*
X11828753Y-15654576D01*
X11885895Y-15654576D02*
X11885895Y-15454576D01*
X11885895Y-15454576D02*
X11866848Y-15483148D01*
X11866848Y-15483148D02*
X11847800Y-15502195D01*
X11847800Y-15502195D02*
X11828753Y-15511719D01*
X12028753Y-15635529D02*
X12038276Y-15645053D01*
X12038276Y-15645053D02*
X12028753Y-15654576D01*
X12028753Y-15654576D02*
X12019229Y-15645053D01*
X12019229Y-15645053D02*
X12028753Y-15635529D01*
X12028753Y-15635529D02*
X12028753Y-15654576D01*
X12209705Y-15454576D02*
X12171610Y-15454576D01*
X12171610Y-15454576D02*
X12152562Y-15464100D01*
X12152562Y-15464100D02*
X12143038Y-15473624D01*
X12143038Y-15473624D02*
X12123991Y-15502195D01*
X12123991Y-15502195D02*
X12114467Y-15540291D01*
X12114467Y-15540291D02*
X12114467Y-15616481D01*
X12114467Y-15616481D02*
X12123991Y-15635529D01*
X12123991Y-15635529D02*
X12133515Y-15645053D01*
X12133515Y-15645053D02*
X12152562Y-15654576D01*
X12152562Y-15654576D02*
X12190657Y-15654576D01*
X12190657Y-15654576D02*
X12209705Y-15645053D01*
X12209705Y-15645053D02*
X12219229Y-15635529D01*
X12219229Y-15635529D02*
X12228753Y-15616481D01*
X12228753Y-15616481D02*
X12228753Y-15568862D01*
X12228753Y-15568862D02*
X12219229Y-15549814D01*
X12219229Y-15549814D02*
X12209705Y-15540291D01*
X12209705Y-15540291D02*
X12190657Y-15530767D01*
X12190657Y-15530767D02*
X12152562Y-15530767D01*
X12152562Y-15530767D02*
X12133515Y-15540291D01*
X12133515Y-15540291D02*
X12123991Y-15549814D01*
X12123991Y-15549814D02*
X12114467Y-15568862D01*
X12352562Y-15454576D02*
X12371610Y-15454576D01*
X12371610Y-15454576D02*
X12390657Y-15464100D01*
X12390657Y-15464100D02*
X12400181Y-15473624D01*
X12400181Y-15473624D02*
X12409705Y-15492672D01*
X12409705Y-15492672D02*
X12419229Y-15530767D01*
X12419229Y-15530767D02*
X12419229Y-15578386D01*
X12419229Y-15578386D02*
X12409705Y-15616481D01*
X12409705Y-15616481D02*
X12400181Y-15635529D01*
X12400181Y-15635529D02*
X12390657Y-15645053D01*
X12390657Y-15645053D02*
X12371610Y-15654576D01*
X12371610Y-15654576D02*
X12352562Y-15654576D01*
X12352562Y-15654576D02*
X12333515Y-15645053D01*
X12333515Y-15645053D02*
X12323991Y-15635529D01*
X12323991Y-15635529D02*
X12314467Y-15616481D01*
X12314467Y-15616481D02*
X12304943Y-15578386D01*
X12304943Y-15578386D02*
X12304943Y-15530767D01*
X12304943Y-15530767D02*
X12314467Y-15492672D01*
X12314467Y-15492672D02*
X12323991Y-15473624D01*
X12323991Y-15473624D02*
X12333515Y-15464100D01*
X12333515Y-15464100D02*
X12352562Y-15454576D01*
X12543038Y-15454576D02*
X12562086Y-15454576D01*
X12562086Y-15454576D02*
X12581134Y-15464100D01*
X12581134Y-15464100D02*
X12590657Y-15473624D01*
X12590657Y-15473624D02*
X12600181Y-15492672D01*
X12600181Y-15492672D02*
X12609705Y-15530767D01*
X12609705Y-15530767D02*
X12609705Y-15578386D01*
X12609705Y-15578386D02*
X12600181Y-15616481D01*
X12600181Y-15616481D02*
X12590657Y-15635529D01*
X12590657Y-15635529D02*
X12581134Y-15645053D01*
X12581134Y-15645053D02*
X12562086Y-15654576D01*
X12562086Y-15654576D02*
X12543038Y-15654576D01*
X12543038Y-15654576D02*
X12523991Y-15645053D01*
X12523991Y-15645053D02*
X12514467Y-15635529D01*
X12514467Y-15635529D02*
X12504943Y-15616481D01*
X12504943Y-15616481D02*
X12495419Y-15578386D01*
X12495419Y-15578386D02*
X12495419Y-15530767D01*
X12495419Y-15530767D02*
X12504943Y-15492672D01*
X12504943Y-15492672D02*
X12514467Y-15473624D01*
X12514467Y-15473624D02*
X12523991Y-15464100D01*
X12523991Y-15464100D02*
X12543038Y-15454576D01*
X12695419Y-15654576D02*
X12695419Y-15521243D01*
X12695419Y-15540291D02*
X12704943Y-15530767D01*
X12704943Y-15530767D02*
X12723991Y-15521243D01*
X12723991Y-15521243D02*
X12752562Y-15521243D01*
X12752562Y-15521243D02*
X12771610Y-15530767D01*
X12771610Y-15530767D02*
X12781134Y-15549814D01*
X12781134Y-15549814D02*
X12781134Y-15654576D01*
X12781134Y-15549814D02*
X12790657Y-15530767D01*
X12790657Y-15530767D02*
X12809705Y-15521243D01*
X12809705Y-15521243D02*
X12838276Y-15521243D01*
X12838276Y-15521243D02*
X12857324Y-15530767D01*
X12857324Y-15530767D02*
X12866848Y-15549814D01*
X12866848Y-15549814D02*
X12866848Y-15654576D01*
X12962086Y-15654576D02*
X12962086Y-15521243D01*
X12962086Y-15540291D02*
X12971610Y-15530767D01*
X12971610Y-15530767D02*
X12990657Y-15521243D01*
X12990657Y-15521243D02*
X13019229Y-15521243D01*
X13019229Y-15521243D02*
X13038277Y-15530767D01*
X13038277Y-15530767D02*
X13047800Y-15549814D01*
X13047800Y-15549814D02*
X13047800Y-15654576D01*
X13047800Y-15549814D02*
X13057324Y-15530767D01*
X13057324Y-15530767D02*
X13076372Y-15521243D01*
X13076372Y-15521243D02*
X13104943Y-15521243D01*
X13104943Y-15521243D02*
X13123991Y-15530767D01*
X13123991Y-15530767D02*
X13133515Y-15549814D01*
X13133515Y-15549814D02*
X13133515Y-15654576D01*
X13523991Y-15445053D02*
X13352562Y-15702195D01*
X13781134Y-15454576D02*
X13800181Y-15454576D01*
X13800181Y-15454576D02*
X13819229Y-15464100D01*
X13819229Y-15464100D02*
X13828753Y-15473624D01*
X13828753Y-15473624D02*
X13838277Y-15492672D01*
X13838277Y-15492672D02*
X13847800Y-15530767D01*
X13847800Y-15530767D02*
X13847800Y-15578386D01*
X13847800Y-15578386D02*
X13838277Y-15616481D01*
X13838277Y-15616481D02*
X13828753Y-15635529D01*
X13828753Y-15635529D02*
X13819229Y-15645053D01*
X13819229Y-15645053D02*
X13800181Y-15654576D01*
X13800181Y-15654576D02*
X13781134Y-15654576D01*
X13781134Y-15654576D02*
X13762086Y-15645053D01*
X13762086Y-15645053D02*
X13752562Y-15635529D01*
X13752562Y-15635529D02*
X13743039Y-15616481D01*
X13743039Y-15616481D02*
X13733515Y-15578386D01*
X13733515Y-15578386D02*
X13733515Y-15530767D01*
X13733515Y-15530767D02*
X13743039Y-15492672D01*
X13743039Y-15492672D02*
X13752562Y-15473624D01*
X13752562Y-15473624D02*
X13762086Y-15464100D01*
X13762086Y-15464100D02*
X13781134Y-15454576D01*
X13933515Y-15635529D02*
X13943039Y-15645053D01*
X13943039Y-15645053D02*
X13933515Y-15654576D01*
X13933515Y-15654576D02*
X13923991Y-15645053D01*
X13923991Y-15645053D02*
X13933515Y-15635529D01*
X13933515Y-15635529D02*
X13933515Y-15654576D01*
X14066848Y-15454576D02*
X14085896Y-15454576D01*
X14085896Y-15454576D02*
X14104943Y-15464100D01*
X14104943Y-15464100D02*
X14114467Y-15473624D01*
X14114467Y-15473624D02*
X14123991Y-15492672D01*
X14123991Y-15492672D02*
X14133515Y-15530767D01*
X14133515Y-15530767D02*
X14133515Y-15578386D01*
X14133515Y-15578386D02*
X14123991Y-15616481D01*
X14123991Y-15616481D02*
X14114467Y-15635529D01*
X14114467Y-15635529D02*
X14104943Y-15645053D01*
X14104943Y-15645053D02*
X14085896Y-15654576D01*
X14085896Y-15654576D02*
X14066848Y-15654576D01*
X14066848Y-15654576D02*
X14047800Y-15645053D01*
X14047800Y-15645053D02*
X14038277Y-15635529D01*
X14038277Y-15635529D02*
X14028753Y-15616481D01*
X14028753Y-15616481D02*
X14019229Y-15578386D01*
X14019229Y-15578386D02*
X14019229Y-15530767D01*
X14019229Y-15530767D02*
X14028753Y-15492672D01*
X14028753Y-15492672D02*
X14038277Y-15473624D01*
X14038277Y-15473624D02*
X14047800Y-15464100D01*
X14047800Y-15464100D02*
X14066848Y-15454576D01*
X14304943Y-15454576D02*
X14266848Y-15454576D01*
X14266848Y-15454576D02*
X14247800Y-15464100D01*
X14247800Y-15464100D02*
X14238277Y-15473624D01*
X14238277Y-15473624D02*
X14219229Y-15502195D01*
X14219229Y-15502195D02*
X14209705Y-15540291D01*
X14209705Y-15540291D02*
X14209705Y-15616481D01*
X14209705Y-15616481D02*
X14219229Y-15635529D01*
X14219229Y-15635529D02*
X14228753Y-15645053D01*
X14228753Y-15645053D02*
X14247800Y-15654576D01*
X14247800Y-15654576D02*
X14285896Y-15654576D01*
X14285896Y-15654576D02*
X14304943Y-15645053D01*
X14304943Y-15645053D02*
X14314467Y-15635529D01*
X14314467Y-15635529D02*
X14323991Y-15616481D01*
X14323991Y-15616481D02*
X14323991Y-15568862D01*
X14323991Y-15568862D02*
X14314467Y-15549814D01*
X14314467Y-15549814D02*
X14304943Y-15540291D01*
X14304943Y-15540291D02*
X14285896Y-15530767D01*
X14285896Y-15530767D02*
X14247800Y-15530767D01*
X14247800Y-15530767D02*
X14228753Y-15540291D01*
X14228753Y-15540291D02*
X14219229Y-15549814D01*
X14219229Y-15549814D02*
X14209705Y-15568862D01*
X14390658Y-15454576D02*
X14514467Y-15454576D01*
X14514467Y-15454576D02*
X14447800Y-15530767D01*
X14447800Y-15530767D02*
X14476372Y-15530767D01*
X14476372Y-15530767D02*
X14495420Y-15540291D01*
X14495420Y-15540291D02*
X14504943Y-15549814D01*
X14504943Y-15549814D02*
X14514467Y-15568862D01*
X14514467Y-15568862D02*
X14514467Y-15616481D01*
X14514467Y-15616481D02*
X14504943Y-15635529D01*
X14504943Y-15635529D02*
X14495420Y-15645053D01*
X14495420Y-15645053D02*
X14476372Y-15654576D01*
X14476372Y-15654576D02*
X14419229Y-15654576D01*
X14419229Y-15654576D02*
X14400181Y-15645053D01*
X14400181Y-15645053D02*
X14390658Y-15635529D01*
X14638277Y-15454576D02*
X14657324Y-15454576D01*
X14657324Y-15454576D02*
X14676372Y-15464100D01*
X14676372Y-15464100D02*
X14685896Y-15473624D01*
X14685896Y-15473624D02*
X14695420Y-15492672D01*
X14695420Y-15492672D02*
X14704943Y-15530767D01*
X14704943Y-15530767D02*
X14704943Y-15578386D01*
X14704943Y-15578386D02*
X14695420Y-15616481D01*
X14695420Y-15616481D02*
X14685896Y-15635529D01*
X14685896Y-15635529D02*
X14676372Y-15645053D01*
X14676372Y-15645053D02*
X14657324Y-15654576D01*
X14657324Y-15654576D02*
X14638277Y-15654576D01*
X14638277Y-15654576D02*
X14619229Y-15645053D01*
X14619229Y-15645053D02*
X14609705Y-15635529D01*
X14609705Y-15635529D02*
X14600181Y-15616481D01*
X14600181Y-15616481D02*
X14590658Y-15578386D01*
X14590658Y-15578386D02*
X14590658Y-15530767D01*
X14590658Y-15530767D02*
X14600181Y-15492672D01*
X14600181Y-15492672D02*
X14609705Y-15473624D01*
X14609705Y-15473624D02*
X14619229Y-15464100D01*
X14619229Y-15464100D02*
X14638277Y-15454576D01*
X14781134Y-15454576D02*
X14781134Y-15492672D01*
X14857324Y-15454576D02*
X14857324Y-15492672D01*
X15152563Y-15730767D02*
X15143039Y-15721243D01*
X15143039Y-15721243D02*
X15123991Y-15692672D01*
X15123991Y-15692672D02*
X15114467Y-15673624D01*
X15114467Y-15673624D02*
X15104943Y-15645053D01*
X15104943Y-15645053D02*
X15095420Y-15597433D01*
X15095420Y-15597433D02*
X15095420Y-15559338D01*
X15095420Y-15559338D02*
X15104943Y-15511719D01*
X15104943Y-15511719D02*
X15114467Y-15483148D01*
X15114467Y-15483148D02*
X15123991Y-15464100D01*
X15123991Y-15464100D02*
X15143039Y-15435529D01*
X15143039Y-15435529D02*
X15152563Y-15426005D01*
X15219229Y-15473624D02*
X15228753Y-15464100D01*
X15228753Y-15464100D02*
X15247801Y-15454576D01*
X15247801Y-15454576D02*
X15295420Y-15454576D01*
X15295420Y-15454576D02*
X15314467Y-15464100D01*
X15314467Y-15464100D02*
X15323991Y-15473624D01*
X15323991Y-15473624D02*
X15333515Y-15492672D01*
X15333515Y-15492672D02*
X15333515Y-15511719D01*
X15333515Y-15511719D02*
X15323991Y-15540291D01*
X15323991Y-15540291D02*
X15209705Y-15654576D01*
X15209705Y-15654576D02*
X15333515Y-15654576D01*
X15571610Y-15654576D02*
X15571610Y-15454576D01*
X15657324Y-15654576D02*
X15657324Y-15549814D01*
X15657324Y-15549814D02*
X15647801Y-15530767D01*
X15647801Y-15530767D02*
X15628753Y-15521243D01*
X15628753Y-15521243D02*
X15600182Y-15521243D01*
X15600182Y-15521243D02*
X15581134Y-15530767D01*
X15581134Y-15530767D02*
X15571610Y-15540291D01*
X15781134Y-15654576D02*
X15762086Y-15645053D01*
X15762086Y-15645053D02*
X15752563Y-15635529D01*
X15752563Y-15635529D02*
X15743039Y-15616481D01*
X15743039Y-15616481D02*
X15743039Y-15559338D01*
X15743039Y-15559338D02*
X15752563Y-15540291D01*
X15752563Y-15540291D02*
X15762086Y-15530767D01*
X15762086Y-15530767D02*
X15781134Y-15521243D01*
X15781134Y-15521243D02*
X15809705Y-15521243D01*
X15809705Y-15521243D02*
X15828753Y-15530767D01*
X15828753Y-15530767D02*
X15838277Y-15540291D01*
X15838277Y-15540291D02*
X15847801Y-15559338D01*
X15847801Y-15559338D02*
X15847801Y-15616481D01*
X15847801Y-15616481D02*
X15838277Y-15635529D01*
X15838277Y-15635529D02*
X15828753Y-15645053D01*
X15828753Y-15645053D02*
X15809705Y-15654576D01*
X15809705Y-15654576D02*
X15781134Y-15654576D01*
X15962086Y-15654576D02*
X15943039Y-15645053D01*
X15943039Y-15645053D02*
X15933515Y-15626005D01*
X15933515Y-15626005D02*
X15933515Y-15454576D01*
X16114467Y-15645053D02*
X16095420Y-15654576D01*
X16095420Y-15654576D02*
X16057324Y-15654576D01*
X16057324Y-15654576D02*
X16038277Y-15645053D01*
X16038277Y-15645053D02*
X16028753Y-15626005D01*
X16028753Y-15626005D02*
X16028753Y-15549814D01*
X16028753Y-15549814D02*
X16038277Y-15530767D01*
X16038277Y-15530767D02*
X16057324Y-15521243D01*
X16057324Y-15521243D02*
X16095420Y-15521243D01*
X16095420Y-15521243D02*
X16114467Y-15530767D01*
X16114467Y-15530767D02*
X16123991Y-15549814D01*
X16123991Y-15549814D02*
X16123991Y-15568862D01*
X16123991Y-15568862D02*
X16028753Y-15587910D01*
X16200182Y-15645053D02*
X16219229Y-15654576D01*
X16219229Y-15654576D02*
X16257324Y-15654576D01*
X16257324Y-15654576D02*
X16276372Y-15645053D01*
X16276372Y-15645053D02*
X16285896Y-15626005D01*
X16285896Y-15626005D02*
X16285896Y-15616481D01*
X16285896Y-15616481D02*
X16276372Y-15597433D01*
X16276372Y-15597433D02*
X16257324Y-15587910D01*
X16257324Y-15587910D02*
X16228753Y-15587910D01*
X16228753Y-15587910D02*
X16209705Y-15578386D01*
X16209705Y-15578386D02*
X16200182Y-15559338D01*
X16200182Y-15559338D02*
X16200182Y-15549814D01*
X16200182Y-15549814D02*
X16209705Y-15530767D01*
X16209705Y-15530767D02*
X16228753Y-15521243D01*
X16228753Y-15521243D02*
X16257324Y-15521243D01*
X16257324Y-15521243D02*
X16276372Y-15530767D01*
X16352563Y-15730767D02*
X16362086Y-15721243D01*
X16362086Y-15721243D02*
X16381134Y-15692672D01*
X16381134Y-15692672D02*
X16390658Y-15673624D01*
X16390658Y-15673624D02*
X16400182Y-15645053D01*
X16400182Y-15645053D02*
X16409705Y-15597433D01*
X16409705Y-15597433D02*
X16409705Y-15559338D01*
X16409705Y-15559338D02*
X16400182Y-15511719D01*
X16400182Y-15511719D02*
X16390658Y-15483148D01*
X16390658Y-15483148D02*
X16381134Y-15464100D01*
X16381134Y-15464100D02*
X16362086Y-15435529D01*
X16362086Y-15435529D02*
X16352563Y-15426005D01*
M02*
