M48
; DRILL file {KiCad 7.0.2} date Wed Nov 15 23:09:17 2023
; FORMAT={-:-/ absolute / metric / decimal}
; #@! TF.CreationDate,2023-11-15T23:09:17-06:00
; #@! TF.GenerationSoftware,Kicad,Pcbnew,7.0.2
; #@! TF.FileFunction,Plated,1,2,PTH
FMAT,2
METRIC
; #@! TA.AperFunction,Plated,PTH,ViaDrill
T1C0.400
; #@! TA.AperFunction,Plated,PTH,ViaDrill
T2C0.800
; #@! TA.AperFunction,Plated,PTH,ComponentDrill
T3C0.850
; #@! TA.AperFunction,Plated,PTH,ComponentDrill
T4C1.020
; #@! TA.AperFunction,Plated,PTH,ComponentDrill
T5C1.600
; #@! TA.AperFunction,Plated,PTH,ComponentDrill
T6C1.999
%
G90
G05
T1
X165.1Y-114.3
X177.8Y-114.3
X177.8Y-152.4
X177.8Y-165.1
X186.0Y-76.75
X186.0Y-78.25
X186.0Y-79.5
X186.0Y-80.75
X186.0Y-82.25
X189.0Y-76.75
X189.0Y-78.25
X189.0Y-79.5
X189.0Y-80.75
X189.1Y-82.2
X190.5Y-114.3
X190.5Y-152.4
X190.5Y-165.1
X203.2Y-114.3
X203.2Y-127.0
X203.2Y-139.7
X203.2Y-152.4
X203.2Y-165.1
X207.167Y-78.0
X215.9Y-114.3
X215.9Y-127.0
X215.9Y-139.7
X215.9Y-152.4
X215.9Y-165.1
X217.8Y-105.6
X228.6Y-114.3
X228.6Y-127.0
X228.6Y-139.7
X228.6Y-152.4
T2
X188.5Y-143.0
T3
X193.027Y-101.24
X193.027Y-103.78
X193.027Y-106.32
X193.027Y-108.86
T4
X167.0Y-79.5
X167.0Y-82.5
X167.0Y-85.5
X167.0Y-88.5
X173.97Y-141.5
X173.97Y-144.5
X220.68Y-83.0
X220.68Y-86.0
X220.68Y-103.0
X220.68Y-106.0
T5
X192.8Y-76.5
X215.0Y-99.0
X215.0Y-110.5
T6
X177.0Y-120.5
X226.0Y-158.0
T0
M30
