G04 #@! TF.GenerationSoftware,KiCad,Pcbnew,7.0.5*
G04 #@! TF.CreationDate,2023-11-04T12:06:22-05:00*
G04 #@! TF.ProjectId,ContactorDriver,436f6e74-6163-4746-9f72-447269766572,rev?*
G04 #@! TF.SameCoordinates,Original*
G04 #@! TF.FileFunction,Paste,Top*
G04 #@! TF.FilePolarity,Positive*
%FSLAX46Y46*%
G04 Gerber Fmt 4.6, Leading zero omitted, Abs format (unit mm)*
G04 Created by KiCad (PCBNEW 7.0.5) date 2023-11-04 12:06:22*
%MOMM*%
%LPD*%
G01*
G04 APERTURE LIST*
G04 Aperture macros list*
%AMRoundRect*
0 Rectangle with rounded corners*
0 $1 Rounding radius*
0 $2 $3 $4 $5 $6 $7 $8 $9 X,Y pos of 4 corners*
0 Add a 4 corners polygon primitive as box body*
4,1,4,$2,$3,$4,$5,$6,$7,$8,$9,$2,$3,0*
0 Add four circle primitives for the rounded corners*
1,1,$1+$1,$2,$3*
1,1,$1+$1,$4,$5*
1,1,$1+$1,$6,$7*
1,1,$1+$1,$8,$9*
0 Add four rect primitives between the rounded corners*
20,1,$1+$1,$2,$3,$4,$5,0*
20,1,$1+$1,$4,$5,$6,$7,0*
20,1,$1+$1,$6,$7,$8,$9,0*
20,1,$1+$1,$8,$9,$2,$3,0*%
G04 Aperture macros list end*
%ADD10RoundRect,0.250000X0.450000X-0.325000X0.450000X0.325000X-0.450000X0.325000X-0.450000X-0.325000X0*%
%ADD11RoundRect,0.150000X-0.800000X-0.150000X0.800000X-0.150000X0.800000X0.150000X-0.800000X0.150000X0*%
%ADD12RoundRect,0.250000X-0.450000X0.350000X-0.450000X-0.350000X0.450000X-0.350000X0.450000X0.350000X0*%
%ADD13RoundRect,0.250000X0.450000X-0.262500X0.450000X0.262500X-0.450000X0.262500X-0.450000X-0.262500X0*%
%ADD14RoundRect,0.250000X0.850000X0.350000X-0.850000X0.350000X-0.850000X-0.350000X0.850000X-0.350000X0*%
%ADD15RoundRect,0.250000X1.275000X1.125000X-1.275000X1.125000X-1.275000X-1.125000X1.275000X-1.125000X0*%
%ADD16RoundRect,0.250000X-0.475000X0.250000X-0.475000X-0.250000X0.475000X-0.250000X0.475000X0.250000X0*%
%ADD17RoundRect,0.250000X-0.250000X-0.475000X0.250000X-0.475000X0.250000X0.475000X-0.250000X0.475000X0*%
%ADD18RoundRect,0.218750X-0.218750X-0.381250X0.218750X-0.381250X0.218750X0.381250X-0.218750X0.381250X0*%
%ADD19R,1.193800X1.041400*%
%ADD20RoundRect,0.218750X0.218750X0.381250X-0.218750X0.381250X-0.218750X-0.381250X0.218750X-0.381250X0*%
%ADD21R,0.650000X0.400000*%
%ADD22RoundRect,0.250000X0.475000X-0.250000X0.475000X0.250000X-0.475000X0.250000X-0.475000X-0.250000X0*%
%ADD23RoundRect,0.112500X-0.112500X0.187500X-0.112500X-0.187500X0.112500X-0.187500X0.112500X0.187500X0*%
G04 APERTURE END LIST*
D10*
X182283650Y-108525000D03*
X182283650Y-106475000D03*
X176500000Y-84937500D03*
X176500000Y-82887500D03*
D11*
X180500000Y-77595000D03*
X180500000Y-78865000D03*
X180500000Y-80135000D03*
X180500000Y-81405000D03*
X187500000Y-81405000D03*
X187500000Y-80135000D03*
X187500000Y-78865000D03*
X187500000Y-77595000D03*
D12*
X215590000Y-86000000D03*
X215590000Y-88000000D03*
D13*
X188500000Y-141412500D03*
X188500000Y-139587500D03*
X176500000Y-79325000D03*
X176500000Y-77500000D03*
D14*
X212500000Y-107000000D03*
D15*
X207875000Y-106245000D03*
X207875000Y-103195000D03*
X204525000Y-106245000D03*
X204525000Y-103195000D03*
D14*
X212500000Y-102440000D03*
D16*
X196247300Y-101550000D03*
X196247300Y-103450000D03*
D17*
X196550000Y-76510000D03*
X198450000Y-76510000D03*
D14*
X212540000Y-89280000D03*
D15*
X207915000Y-88525000D03*
X207915000Y-85475000D03*
X204565000Y-88525000D03*
X204565000Y-85475000D03*
D14*
X212540000Y-84720000D03*
D18*
X203437500Y-78000000D03*
X205562500Y-78000000D03*
D19*
X173000000Y-79361700D03*
X173000000Y-82638300D03*
D16*
X196247300Y-106600000D03*
X196247300Y-108500000D03*
D20*
X205530000Y-81000000D03*
X203405000Y-81000000D03*
D21*
X198417500Y-80150000D03*
X198417500Y-79500000D03*
X198417500Y-78850000D03*
X196517500Y-78850000D03*
X196517500Y-79500000D03*
X196517500Y-80150000D03*
D22*
X200000000Y-105950000D03*
X200000000Y-104050000D03*
D13*
X188500000Y-146912500D03*
X188500000Y-145087500D03*
D16*
X201000000Y-78560000D03*
X201000000Y-80460000D03*
D23*
X216000000Y-103450000D03*
X216000000Y-105550000D03*
D13*
X182283650Y-103412500D03*
X182283650Y-101587500D03*
M02*
