G04 #@! TF.GenerationSoftware,KiCad,Pcbnew,8.0.1*
G04 #@! TF.CreationDate,2024-11-19T16:07:31-06:00*
G04 #@! TF.ProjectId,ContactorDriver,436f6e74-6163-4746-9f72-447269766572,rev?*
G04 #@! TF.SameCoordinates,Original*
G04 #@! TF.FileFunction,Paste,Top*
G04 #@! TF.FilePolarity,Positive*
%FSLAX46Y46*%
G04 Gerber Fmt 4.6, Leading zero omitted, Abs format (unit mm)*
G04 Created by KiCad (PCBNEW 8.0.1) date 2024-11-19 16:07:31*
%MOMM*%
%LPD*%
G01*
G04 APERTURE LIST*
G04 Aperture macros list*
%AMRoundRect*
0 Rectangle with rounded corners*
0 $1 Rounding radius*
0 $2 $3 $4 $5 $6 $7 $8 $9 X,Y pos of 4 corners*
0 Add a 4 corners polygon primitive as box body*
4,1,4,$2,$3,$4,$5,$6,$7,$8,$9,$2,$3,0*
0 Add four circle primitives for the rounded corners*
1,1,$1+$1,$2,$3*
1,1,$1+$1,$4,$5*
1,1,$1+$1,$6,$7*
1,1,$1+$1,$8,$9*
0 Add four rect primitives between the rounded corners*
20,1,$1+$1,$2,$3,$4,$5,0*
20,1,$1+$1,$4,$5,$6,$7,0*
20,1,$1+$1,$6,$7,$8,$9,0*
20,1,$1+$1,$8,$9,$2,$3,0*%
G04 Aperture macros list end*
%ADD10RoundRect,0.150000X-0.587500X-0.150000X0.587500X-0.150000X0.587500X0.150000X-0.587500X0.150000X0*%
%ADD11RoundRect,0.250000X-0.262500X-0.450000X0.262500X-0.450000X0.262500X0.450000X-0.262500X0.450000X0*%
%ADD12R,1.200000X1.520000*%
%ADD13RoundRect,0.250000X0.350000X0.450000X-0.350000X0.450000X-0.350000X-0.450000X0.350000X-0.450000X0*%
%ADD14RoundRect,0.250000X-0.325000X-0.450000X0.325000X-0.450000X0.325000X0.450000X-0.325000X0.450000X0*%
%ADD15RoundRect,0.250000X-0.250000X-0.475000X0.250000X-0.475000X0.250000X0.475000X-0.250000X0.475000X0*%
%ADD16RoundRect,0.150000X0.150000X-0.587500X0.150000X0.587500X-0.150000X0.587500X-0.150000X-0.587500X0*%
%ADD17R,0.910000X1.220000*%
%ADD18RoundRect,0.250000X0.262500X0.450000X-0.262500X0.450000X-0.262500X-0.450000X0.262500X-0.450000X0*%
%ADD19RoundRect,0.250000X0.450000X-0.350000X0.450000X0.350000X-0.450000X0.350000X-0.450000X-0.350000X0*%
%ADD20RoundRect,0.112500X0.112500X-0.187500X0.112500X0.187500X-0.112500X0.187500X-0.112500X-0.187500X0*%
%ADD21RoundRect,0.250000X0.325000X0.450000X-0.325000X0.450000X-0.325000X-0.450000X0.325000X-0.450000X0*%
G04 APERTURE END LIST*
D10*
X143525000Y-105425000D03*
X143525000Y-107325000D03*
X145400000Y-106375000D03*
D11*
X145512500Y-118950000D03*
X147337500Y-118950000D03*
D10*
X143512500Y-96100000D03*
X143512500Y-98000000D03*
X145387500Y-97050000D03*
D12*
X135180000Y-118625000D03*
X139500000Y-118625000D03*
D13*
X137475000Y-115375000D03*
X135475000Y-115375000D03*
D10*
X143512500Y-115062500D03*
X143512500Y-116962500D03*
X145387500Y-116012500D03*
D11*
X145537500Y-99975000D03*
X147362500Y-99975000D03*
D14*
X141475000Y-109325000D03*
X143525000Y-109325000D03*
D15*
X157920000Y-91299000D03*
X159820000Y-91299000D03*
D16*
X142475000Y-89425000D03*
X144375000Y-89425000D03*
X143425000Y-87550000D03*
D17*
X148820000Y-92525000D03*
X145550000Y-92525000D03*
D18*
X127458500Y-91426000D03*
X125633500Y-91426000D03*
D12*
X135365000Y-99525000D03*
X139685000Y-99525000D03*
D11*
X145387500Y-109325000D03*
X147212500Y-109325000D03*
D19*
X142500000Y-93450000D03*
X142500000Y-91450000D03*
D20*
X138534800Y-93517400D03*
X138534800Y-91417400D03*
D14*
X141650000Y-99975000D03*
X143700000Y-99975000D03*
D21*
X132651000Y-91426000D03*
X130601000Y-91426000D03*
D12*
X135265000Y-108925000D03*
X139585000Y-108925000D03*
D13*
X137625000Y-96425000D03*
X135625000Y-96425000D03*
X137475000Y-105875000D03*
X135475000Y-105875000D03*
D14*
X141550000Y-118950000D03*
X143600000Y-118950000D03*
M02*
