G04 #@! TF.GenerationSoftware,KiCad,Pcbnew,8.0.1*
G04 #@! TF.CreationDate,2024-11-19T16:07:31-06:00*
G04 #@! TF.ProjectId,ContactorDriver,436f6e74-6163-4746-9f72-447269766572,rev?*
G04 #@! TF.SameCoordinates,Original*
G04 #@! TF.FileFunction,Copper,L2,Bot*
G04 #@! TF.FilePolarity,Positive*
%FSLAX46Y46*%
G04 Gerber Fmt 4.6, Leading zero omitted, Abs format (unit mm)*
G04 Created by KiCad (PCBNEW 8.0.1) date 2024-11-19 16:07:31*
%MOMM*%
%LPD*%
G01*
G04 APERTURE LIST*
G04 Aperture macros list*
%AMRoundRect*
0 Rectangle with rounded corners*
0 $1 Rounding radius*
0 $2 $3 $4 $5 $6 $7 $8 $9 X,Y pos of 4 corners*
0 Add a 4 corners polygon primitive as box body*
4,1,4,$2,$3,$4,$5,$6,$7,$8,$9,$2,$3,0*
0 Add four circle primitives for the rounded corners*
1,1,$1+$1,$2,$3*
1,1,$1+$1,$4,$5*
1,1,$1+$1,$6,$7*
1,1,$1+$1,$8,$9*
0 Add four rect primitives between the rounded corners*
20,1,$1+$1,$2,$3,$4,$5,0*
20,1,$1+$1,$4,$5,$6,$7,0*
20,1,$1+$1,$6,$7,$8,$9,0*
20,1,$1+$1,$8,$9,$2,$3,0*%
G04 Aperture macros list end*
G04 #@! TA.AperFunction,ComponentPad*
%ADD10C,2.800000*%
G04 #@! TD*
G04 #@! TA.AperFunction,ComponentPad*
%ADD11RoundRect,0.250001X-0.499999X-0.759999X0.499999X-0.759999X0.499999X0.759999X-0.499999X0.759999X0*%
G04 #@! TD*
G04 #@! TA.AperFunction,ComponentPad*
%ADD12O,1.500000X2.020000*%
G04 #@! TD*
G04 #@! TA.AperFunction,ComponentPad*
%ADD13RoundRect,0.250001X0.499999X0.759999X-0.499999X0.759999X-0.499999X-0.759999X0.499999X-0.759999X0*%
G04 #@! TD*
G04 #@! TA.AperFunction,ViaPad*
%ADD14C,0.800000*%
G04 #@! TD*
G04 #@! TA.AperFunction,Conductor*
%ADD15C,1.000000*%
G04 #@! TD*
G04 APERTURE END LIST*
D10*
X147755000Y-85533200D03*
D11*
X127410000Y-116435000D03*
D12*
X130410000Y-116435000D03*
D13*
X157800000Y-107615000D03*
D12*
X154800000Y-107615000D03*
D13*
X157800000Y-116640000D03*
D12*
X154800000Y-116640000D03*
D13*
X138100000Y-131400000D03*
D12*
X135100000Y-131400000D03*
D13*
X130400000Y-124515000D03*
D12*
X127400000Y-124515000D03*
D11*
X134470800Y-86295200D03*
D12*
X137470800Y-86295200D03*
D10*
X152225400Y-85482400D03*
D11*
X127410000Y-106850000D03*
D12*
X130410000Y-106850000D03*
D13*
X157800000Y-98440000D03*
D12*
X154800000Y-98440000D03*
D11*
X127510000Y-97385000D03*
D12*
X130510000Y-97385000D03*
D13*
X157700000Y-124140000D03*
D12*
X154700000Y-124140000D03*
D13*
X150100000Y-131315000D03*
D12*
X147100000Y-131315000D03*
D14*
X142474600Y-93440600D03*
X137620400Y-96404400D03*
X137468000Y-115378200D03*
X159820000Y-91299000D03*
X132642000Y-91426000D03*
X145388000Y-96025000D03*
X145375000Y-114950000D03*
X145400000Y-105375000D03*
X137468000Y-105878600D03*
X138534800Y-94169200D03*
X145700000Y-117025000D03*
X139550000Y-118650000D03*
X145700000Y-107450000D03*
X145800000Y-98050000D03*
D15*
X145700000Y-117025000D02*
X145875000Y-116850000D01*
X154590000Y-116850000D02*
X154800000Y-116640000D01*
X145875000Y-116850000D02*
X154590000Y-116850000D01*
X156250000Y-109065000D02*
X156250000Y-122590000D01*
X154800000Y-107615000D02*
X156250000Y-109065000D01*
X154635000Y-107450000D02*
X154800000Y-107615000D01*
X156250000Y-122590000D02*
X154700000Y-124140000D01*
X145700000Y-107450000D02*
X154635000Y-107450000D01*
X154410000Y-98050000D02*
X154800000Y-98440000D01*
X145800000Y-98050000D02*
X154410000Y-98050000D01*
G04 #@! TA.AperFunction,Conductor*
G36*
X156343039Y-122069685D02*
G01*
X156388794Y-122122489D01*
X156400000Y-122174000D01*
X156400000Y-134126000D01*
X156380315Y-134193039D01*
X156327511Y-134238794D01*
X156276000Y-134250000D01*
X153650641Y-134250000D01*
X153583602Y-134230315D01*
X153537847Y-134177511D01*
X153527903Y-134108353D01*
X153556928Y-134044797D01*
X153581750Y-134022898D01*
X153613115Y-134001940D01*
X153667023Y-133965920D01*
X153790920Y-133842023D01*
X153888265Y-133696336D01*
X153955317Y-133534458D01*
X153989500Y-133362608D01*
X153989500Y-133187392D01*
X153955317Y-133015542D01*
X153944810Y-132990176D01*
X153888268Y-132853670D01*
X153888261Y-132853657D01*
X153790920Y-132707977D01*
X153790917Y-132707973D01*
X153667026Y-132584082D01*
X153667022Y-132584079D01*
X153521342Y-132486738D01*
X153521329Y-132486731D01*
X153359462Y-132419684D01*
X153359450Y-132419681D01*
X153187612Y-132385500D01*
X153187608Y-132385500D01*
X153012392Y-132385500D01*
X153012387Y-132385500D01*
X152840549Y-132419681D01*
X152840537Y-132419684D01*
X152678670Y-132486731D01*
X152678657Y-132486738D01*
X152532977Y-132584079D01*
X152532973Y-132584082D01*
X152409082Y-132707973D01*
X152409079Y-132707977D01*
X152311738Y-132853657D01*
X152311731Y-132853670D01*
X152244684Y-133015537D01*
X152244681Y-133015549D01*
X152210500Y-133187387D01*
X152210500Y-133362612D01*
X152244681Y-133534450D01*
X152244684Y-133534462D01*
X152311731Y-133696329D01*
X152311738Y-133696342D01*
X152409079Y-133842022D01*
X152409082Y-133842026D01*
X152532973Y-133965917D01*
X152532977Y-133965920D01*
X152618250Y-134022898D01*
X152663055Y-134076510D01*
X152671762Y-134145835D01*
X152641608Y-134208863D01*
X152582165Y-134245582D01*
X152549359Y-134250000D01*
X144650641Y-134250000D01*
X144583602Y-134230315D01*
X144537847Y-134177511D01*
X144527903Y-134108353D01*
X144556928Y-134044797D01*
X144581750Y-134022898D01*
X144613115Y-134001940D01*
X144667023Y-133965920D01*
X144790920Y-133842023D01*
X144888265Y-133696336D01*
X144955317Y-133534458D01*
X144989500Y-133362608D01*
X144989500Y-133187392D01*
X144955317Y-133015542D01*
X144944810Y-132990176D01*
X144888268Y-132853670D01*
X144888261Y-132853657D01*
X144790920Y-132707977D01*
X144790917Y-132707973D01*
X144667026Y-132584082D01*
X144667022Y-132584079D01*
X144521342Y-132486738D01*
X144521329Y-132486731D01*
X144359462Y-132419684D01*
X144359450Y-132419681D01*
X144187612Y-132385500D01*
X144187608Y-132385500D01*
X144012392Y-132385500D01*
X144012387Y-132385500D01*
X143840549Y-132419681D01*
X143840537Y-132419684D01*
X143678670Y-132486731D01*
X143678657Y-132486738D01*
X143532977Y-132584079D01*
X143532973Y-132584082D01*
X143511681Y-132605375D01*
X143450358Y-132638860D01*
X143380666Y-132633876D01*
X143324733Y-132592004D01*
X143300316Y-132526540D01*
X143300000Y-132517694D01*
X143300000Y-131673382D01*
X145850000Y-131673382D01*
X145880778Y-131867705D01*
X145941581Y-132054835D01*
X146030904Y-132230143D01*
X146146555Y-132389321D01*
X146285678Y-132528444D01*
X146444856Y-132644095D01*
X146620162Y-132733418D01*
X146807283Y-132794218D01*
X146850000Y-132800984D01*
X146850000Y-131759560D01*
X146903147Y-131790245D01*
X147032857Y-131825000D01*
X147167143Y-131825000D01*
X147296853Y-131790245D01*
X147350000Y-131759560D01*
X147350000Y-132800983D01*
X147392716Y-132794218D01*
X147579837Y-132733418D01*
X147755143Y-132644095D01*
X147914321Y-132528444D01*
X148053444Y-132389321D01*
X148169095Y-132230143D01*
X148220498Y-132129258D01*
X149149500Y-132129258D01*
X149152354Y-132159698D01*
X149152354Y-132159699D01*
X149197206Y-132287881D01*
X149197207Y-132287882D01*
X149277850Y-132397150D01*
X149387118Y-132477793D01*
X149515302Y-132522646D01*
X149515301Y-132522646D01*
X149519271Y-132523018D01*
X149545735Y-132525500D01*
X150654264Y-132525499D01*
X150684698Y-132522646D01*
X150812882Y-132477793D01*
X150922150Y-132397150D01*
X151002793Y-132287882D01*
X151047646Y-132159698D01*
X151050500Y-132129265D01*
X151050499Y-130500736D01*
X151047646Y-130470302D01*
X151002793Y-130342118D01*
X150922150Y-130232850D01*
X150812882Y-130152207D01*
X150812881Y-130152206D01*
X150684695Y-130107353D01*
X150684698Y-130107353D01*
X150654268Y-130104500D01*
X149545741Y-130104500D01*
X149515301Y-130107354D01*
X149515300Y-130107354D01*
X149387118Y-130152206D01*
X149277850Y-130232850D01*
X149197206Y-130342118D01*
X149152353Y-130470302D01*
X149149500Y-130500731D01*
X149149500Y-132129258D01*
X148220498Y-132129258D01*
X148258418Y-132054835D01*
X148319221Y-131867705D01*
X148350000Y-131673382D01*
X148350000Y-131565000D01*
X147544560Y-131565000D01*
X147575245Y-131511853D01*
X147610000Y-131382143D01*
X147610000Y-131247857D01*
X147575245Y-131118147D01*
X147544560Y-131065000D01*
X148350000Y-131065000D01*
X148350000Y-130956617D01*
X148319221Y-130762294D01*
X148258418Y-130575164D01*
X148169095Y-130399856D01*
X148053444Y-130240678D01*
X147914321Y-130101555D01*
X147755143Y-129985904D01*
X147579835Y-129896581D01*
X147392705Y-129835778D01*
X147350000Y-129829014D01*
X147350000Y-130870439D01*
X147296853Y-130839755D01*
X147167143Y-130805000D01*
X147032857Y-130805000D01*
X146903147Y-130839755D01*
X146850000Y-130870439D01*
X146850000Y-129829014D01*
X146849999Y-129829014D01*
X146807294Y-129835778D01*
X146620164Y-129896581D01*
X146444856Y-129985904D01*
X146285678Y-130101555D01*
X146146555Y-130240678D01*
X146030904Y-130399856D01*
X145941581Y-130575164D01*
X145880778Y-130762294D01*
X145850000Y-130956617D01*
X145850000Y-131065000D01*
X146655440Y-131065000D01*
X146624755Y-131118147D01*
X146590000Y-131247857D01*
X146590000Y-131382143D01*
X146624755Y-131511853D01*
X146655440Y-131565000D01*
X145850000Y-131565000D01*
X145850000Y-131673382D01*
X143300000Y-131673382D01*
X143300000Y-129174000D01*
X143319685Y-129106961D01*
X143372489Y-129061206D01*
X143424000Y-129050000D01*
X150900000Y-129050000D01*
X150900000Y-126857306D01*
X150919685Y-126790267D01*
X150972489Y-126744512D01*
X151041647Y-126734568D01*
X151105203Y-126763593D01*
X151111681Y-126769625D01*
X151132973Y-126790917D01*
X151132977Y-126790920D01*
X151278657Y-126888261D01*
X151278670Y-126888268D01*
X151440537Y-126955315D01*
X151440542Y-126955317D01*
X151612387Y-126989499D01*
X151612391Y-126989500D01*
X151612392Y-126989500D01*
X151787609Y-126989500D01*
X151787610Y-126989499D01*
X151959458Y-126955317D01*
X152121336Y-126888265D01*
X152267023Y-126790920D01*
X152390920Y-126667023D01*
X152488265Y-126521336D01*
X152555317Y-126359458D01*
X152589500Y-126187608D01*
X152589500Y-126012392D01*
X152555317Y-125840542D01*
X152555315Y-125840537D01*
X152488268Y-125678670D01*
X152488261Y-125678657D01*
X152390920Y-125532977D01*
X152390917Y-125532973D01*
X152267026Y-125409082D01*
X152267022Y-125409079D01*
X152121342Y-125311738D01*
X152121329Y-125311731D01*
X151959462Y-125244684D01*
X151959450Y-125244681D01*
X151787612Y-125210500D01*
X151787608Y-125210500D01*
X151612392Y-125210500D01*
X151612387Y-125210500D01*
X151440549Y-125244681D01*
X151440537Y-125244684D01*
X151278670Y-125311731D01*
X151278657Y-125311738D01*
X151132977Y-125409079D01*
X151132973Y-125409082D01*
X151111681Y-125430375D01*
X151050358Y-125463860D01*
X150980666Y-125458876D01*
X150924733Y-125417004D01*
X150900316Y-125351540D01*
X150900000Y-125342694D01*
X150900000Y-124498382D01*
X153450000Y-124498382D01*
X153480778Y-124692705D01*
X153541581Y-124879835D01*
X153630904Y-125055143D01*
X153746555Y-125214321D01*
X153885678Y-125353444D01*
X154044856Y-125469095D01*
X154220162Y-125558418D01*
X154407283Y-125619218D01*
X154450000Y-125625984D01*
X154450000Y-124584560D01*
X154503147Y-124615245D01*
X154632857Y-124650000D01*
X154767143Y-124650000D01*
X154896853Y-124615245D01*
X154950000Y-124584560D01*
X154950000Y-125625983D01*
X154992716Y-125619218D01*
X155179837Y-125558418D01*
X155355143Y-125469095D01*
X155514321Y-125353444D01*
X155653444Y-125214321D01*
X155769095Y-125055143D01*
X155858418Y-124879835D01*
X155919221Y-124692705D01*
X155950000Y-124498382D01*
X155950000Y-124390000D01*
X155144560Y-124390000D01*
X155175245Y-124336853D01*
X155210000Y-124207143D01*
X155210000Y-124072857D01*
X155175245Y-123943147D01*
X155144560Y-123890000D01*
X155950000Y-123890000D01*
X155950000Y-123781617D01*
X155919221Y-123587294D01*
X155858418Y-123400164D01*
X155769095Y-123224856D01*
X155653444Y-123065678D01*
X155514321Y-122926555D01*
X155355143Y-122810904D01*
X155179835Y-122721581D01*
X154992705Y-122660778D01*
X154950000Y-122654014D01*
X154950000Y-123695439D01*
X154896853Y-123664755D01*
X154767143Y-123630000D01*
X154632857Y-123630000D01*
X154503147Y-123664755D01*
X154450000Y-123695439D01*
X154450000Y-122654014D01*
X154449999Y-122654014D01*
X154407294Y-122660778D01*
X154220164Y-122721581D01*
X154044856Y-122810904D01*
X153885678Y-122926555D01*
X153746555Y-123065678D01*
X153630904Y-123224856D01*
X153541581Y-123400164D01*
X153480778Y-123587294D01*
X153450000Y-123781617D01*
X153450000Y-123890000D01*
X154255440Y-123890000D01*
X154224755Y-123943147D01*
X154190000Y-124072857D01*
X154190000Y-124207143D01*
X154224755Y-124336853D01*
X154255440Y-124390000D01*
X153450000Y-124390000D01*
X153450000Y-124498382D01*
X150900000Y-124498382D01*
X150900000Y-122174000D01*
X150919685Y-122106961D01*
X150972489Y-122061206D01*
X151024000Y-122050000D01*
X156276000Y-122050000D01*
X156343039Y-122069685D01*
G37*
G04 #@! TD.AperFunction*
G04 #@! TA.AperFunction,Conductor*
G36*
X131423941Y-83220185D02*
G01*
X131469696Y-83272989D01*
X131470604Y-83279304D01*
X131508628Y-83226575D01*
X131573646Y-83200994D01*
X131584698Y-83200500D01*
X140356902Y-83200500D01*
X140423941Y-83220185D01*
X140469696Y-83272989D01*
X140470604Y-83279304D01*
X140508628Y-83226575D01*
X140573646Y-83200994D01*
X140584698Y-83200500D01*
X158273071Y-83200500D01*
X158296754Y-83200500D01*
X158303243Y-83200669D01*
X158648858Y-83218783D01*
X158661766Y-83220140D01*
X159000378Y-83273770D01*
X159013061Y-83276465D01*
X159344233Y-83365203D01*
X159356566Y-83369210D01*
X159676644Y-83492077D01*
X159688479Y-83497346D01*
X159993976Y-83653005D01*
X160005191Y-83659481D01*
X160292722Y-83846205D01*
X160303223Y-83853834D01*
X160569662Y-84069592D01*
X160579307Y-84078277D01*
X160821722Y-84320692D01*
X160830407Y-84330337D01*
X161046165Y-84596776D01*
X161053794Y-84607277D01*
X161240515Y-84894802D01*
X161246997Y-84906029D01*
X161402546Y-85211309D01*
X161402648Y-85211509D01*
X161407927Y-85223366D01*
X161530787Y-85543428D01*
X161534798Y-85555772D01*
X161623532Y-85886932D01*
X161626230Y-85899628D01*
X161679859Y-86238233D01*
X161681216Y-86251141D01*
X161699330Y-86596756D01*
X161699500Y-86603246D01*
X161699500Y-99742194D01*
X161679815Y-99809233D01*
X161627011Y-99854988D01*
X161557853Y-99864932D01*
X161494297Y-99835907D01*
X161487819Y-99829875D01*
X161367026Y-99709082D01*
X161367022Y-99709079D01*
X161221342Y-99611738D01*
X161221329Y-99611731D01*
X161059462Y-99544684D01*
X161059450Y-99544681D01*
X160887612Y-99510500D01*
X160887608Y-99510500D01*
X160712392Y-99510500D01*
X160712387Y-99510500D01*
X160540549Y-99544681D01*
X160540537Y-99544684D01*
X160378670Y-99611731D01*
X160378657Y-99611738D01*
X160232977Y-99709079D01*
X160232973Y-99709082D01*
X160109082Y-99832973D01*
X160109079Y-99832977D01*
X160011738Y-99978657D01*
X160011731Y-99978670D01*
X159944684Y-100140537D01*
X159944681Y-100140549D01*
X159910500Y-100312387D01*
X159910500Y-100487612D01*
X159944681Y-100659450D01*
X159944684Y-100659462D01*
X160011731Y-100821329D01*
X160011738Y-100821342D01*
X160109079Y-100967022D01*
X160109082Y-100967026D01*
X160232973Y-101090917D01*
X160232977Y-101090920D01*
X160378657Y-101188261D01*
X160378670Y-101188268D01*
X160540537Y-101255315D01*
X160540542Y-101255317D01*
X160712387Y-101289499D01*
X160712391Y-101289500D01*
X160712392Y-101289500D01*
X160887609Y-101289500D01*
X160887610Y-101289499D01*
X161059458Y-101255317D01*
X161221336Y-101188265D01*
X161367023Y-101090920D01*
X161408983Y-101048960D01*
X161487819Y-100970125D01*
X161549142Y-100936640D01*
X161618834Y-100941624D01*
X161674767Y-100983496D01*
X161699184Y-101048960D01*
X161699500Y-101057806D01*
X161699500Y-108917194D01*
X161679815Y-108984233D01*
X161627011Y-109029988D01*
X161557853Y-109039932D01*
X161494297Y-109010907D01*
X161487819Y-109004875D01*
X161367026Y-108884082D01*
X161367022Y-108884079D01*
X161221342Y-108786738D01*
X161221329Y-108786731D01*
X161059462Y-108719684D01*
X161059450Y-108719681D01*
X160887612Y-108685500D01*
X160887608Y-108685500D01*
X160712392Y-108685500D01*
X160712387Y-108685500D01*
X160540549Y-108719681D01*
X160540537Y-108719684D01*
X160378670Y-108786731D01*
X160378657Y-108786738D01*
X160232977Y-108884079D01*
X160232973Y-108884082D01*
X160109082Y-109007973D01*
X160109079Y-109007977D01*
X160011738Y-109153657D01*
X160011731Y-109153670D01*
X159944684Y-109315537D01*
X159944681Y-109315549D01*
X159910500Y-109487387D01*
X159910500Y-109662612D01*
X159944681Y-109834450D01*
X159944684Y-109834462D01*
X160011731Y-109996329D01*
X160011738Y-109996342D01*
X160109079Y-110142022D01*
X160109082Y-110142026D01*
X160232973Y-110265917D01*
X160232977Y-110265920D01*
X160378657Y-110363261D01*
X160378670Y-110363268D01*
X160540537Y-110430315D01*
X160540542Y-110430317D01*
X160712387Y-110464499D01*
X160712391Y-110464500D01*
X160712392Y-110464500D01*
X160887609Y-110464500D01*
X160887610Y-110464499D01*
X161059458Y-110430317D01*
X161221336Y-110363265D01*
X161367023Y-110265920D01*
X161408983Y-110223960D01*
X161487819Y-110145125D01*
X161549142Y-110111640D01*
X161618834Y-110116624D01*
X161674767Y-110158496D01*
X161699184Y-110223960D01*
X161699500Y-110232806D01*
X161699500Y-117942194D01*
X161679815Y-118009233D01*
X161627011Y-118054988D01*
X161557853Y-118064932D01*
X161494297Y-118035907D01*
X161487819Y-118029875D01*
X161367026Y-117909082D01*
X161367022Y-117909079D01*
X161221342Y-117811738D01*
X161221329Y-117811731D01*
X161059462Y-117744684D01*
X161059450Y-117744681D01*
X160887612Y-117710500D01*
X160887608Y-117710500D01*
X160712392Y-117710500D01*
X160712387Y-117710500D01*
X160540549Y-117744681D01*
X160540537Y-117744684D01*
X160378670Y-117811731D01*
X160378657Y-117811738D01*
X160232977Y-117909079D01*
X160232973Y-117909082D01*
X160109082Y-118032973D01*
X160109079Y-118032977D01*
X160011738Y-118178657D01*
X160011731Y-118178670D01*
X159944684Y-118340537D01*
X159944681Y-118340549D01*
X159910500Y-118512387D01*
X159910500Y-118687612D01*
X159944681Y-118859450D01*
X159944684Y-118859462D01*
X160011731Y-119021329D01*
X160011738Y-119021342D01*
X160109079Y-119167022D01*
X160109082Y-119167026D01*
X160232973Y-119290917D01*
X160232977Y-119290920D01*
X160378657Y-119388261D01*
X160378670Y-119388268D01*
X160540537Y-119455315D01*
X160540542Y-119455317D01*
X160712387Y-119489499D01*
X160712391Y-119489500D01*
X160712392Y-119489500D01*
X160887609Y-119489500D01*
X160887610Y-119489499D01*
X161059458Y-119455317D01*
X161221336Y-119388265D01*
X161367023Y-119290920D01*
X161408983Y-119248960D01*
X161487819Y-119170125D01*
X161549142Y-119136640D01*
X161618834Y-119141624D01*
X161674767Y-119183496D01*
X161699184Y-119248960D01*
X161699500Y-119257806D01*
X161699500Y-125586025D01*
X161679815Y-125653064D01*
X161627011Y-125698819D01*
X161557853Y-125708763D01*
X161494297Y-125679738D01*
X161472398Y-125654916D01*
X161390920Y-125532977D01*
X161390917Y-125532973D01*
X161267026Y-125409082D01*
X161267022Y-125409079D01*
X161121342Y-125311738D01*
X161121329Y-125311731D01*
X160959462Y-125244684D01*
X160959450Y-125244681D01*
X160787612Y-125210500D01*
X160787608Y-125210500D01*
X160612392Y-125210500D01*
X160612387Y-125210500D01*
X160440549Y-125244681D01*
X160440537Y-125244684D01*
X160278670Y-125311731D01*
X160278657Y-125311738D01*
X160132977Y-125409079D01*
X160132973Y-125409082D01*
X160009082Y-125532973D01*
X160009079Y-125532977D01*
X159911738Y-125678657D01*
X159911731Y-125678670D01*
X159844684Y-125840537D01*
X159844681Y-125840549D01*
X159810500Y-126012387D01*
X159810500Y-126187612D01*
X159844681Y-126359450D01*
X159844684Y-126359462D01*
X159911731Y-126521329D01*
X159911738Y-126521342D01*
X160009079Y-126667022D01*
X160009082Y-126667026D01*
X160132973Y-126790917D01*
X160132977Y-126790920D01*
X160278657Y-126888261D01*
X160278670Y-126888268D01*
X160440537Y-126955315D01*
X160440542Y-126955317D01*
X160609748Y-126988974D01*
X160612387Y-126989499D01*
X160612391Y-126989500D01*
X160612392Y-126989500D01*
X160787609Y-126989500D01*
X160787610Y-126989499D01*
X160959458Y-126955317D01*
X161121336Y-126888265D01*
X161267023Y-126790920D01*
X161390920Y-126667023D01*
X161472398Y-126545083D01*
X161526010Y-126500278D01*
X161595335Y-126491571D01*
X161658362Y-126521725D01*
X161695082Y-126581168D01*
X161699500Y-126613974D01*
X161699500Y-132471753D01*
X161699330Y-132478243D01*
X161681216Y-132823858D01*
X161679859Y-132836766D01*
X161626230Y-133175371D01*
X161623532Y-133188067D01*
X161534798Y-133519227D01*
X161530787Y-133531571D01*
X161407927Y-133851633D01*
X161402648Y-133863490D01*
X161247001Y-134168964D01*
X161240511Y-134180204D01*
X161053794Y-134467722D01*
X161046165Y-134478223D01*
X160830407Y-134744662D01*
X160821722Y-134754307D01*
X160579307Y-134996722D01*
X160569662Y-135005407D01*
X160303223Y-135221165D01*
X160292722Y-135228794D01*
X160005204Y-135415511D01*
X159993964Y-135422001D01*
X159688490Y-135577648D01*
X159676633Y-135582927D01*
X159356571Y-135705787D01*
X159344227Y-135709798D01*
X159013067Y-135798532D01*
X159000371Y-135801230D01*
X158661766Y-135854859D01*
X158648858Y-135856216D01*
X158303244Y-135874330D01*
X158296754Y-135874500D01*
X126803246Y-135874500D01*
X126796756Y-135874330D01*
X126451141Y-135856216D01*
X126438233Y-135854859D01*
X126099628Y-135801230D01*
X126086932Y-135798532D01*
X125755772Y-135709798D01*
X125743428Y-135705787D01*
X125423366Y-135582927D01*
X125411509Y-135577648D01*
X125390564Y-135566976D01*
X125106029Y-135421997D01*
X125094802Y-135415515D01*
X124807277Y-135228794D01*
X124796776Y-135221165D01*
X124530337Y-135005407D01*
X124520692Y-134996722D01*
X124278277Y-134754307D01*
X124269592Y-134744662D01*
X124053834Y-134478223D01*
X124046205Y-134467722D01*
X124040535Y-134458991D01*
X123859481Y-134180191D01*
X123853005Y-134168976D01*
X123697346Y-133863479D01*
X123692077Y-133851644D01*
X123569210Y-133531566D01*
X123565201Y-133519227D01*
X123533747Y-133401840D01*
X123476465Y-133188061D01*
X123473769Y-133175371D01*
X123461917Y-133100542D01*
X123420140Y-132836766D01*
X123418783Y-132823858D01*
X123403906Y-132539989D01*
X125045500Y-132539989D01*
X125045501Y-132540005D01*
X125075518Y-132768009D01*
X125075519Y-132768014D01*
X125075520Y-132768020D01*
X125121242Y-132938657D01*
X125135046Y-132990175D01*
X125135049Y-132990185D01*
X125223057Y-133202654D01*
X125223061Y-133202664D01*
X125338055Y-133401839D01*
X125478064Y-133584303D01*
X125478070Y-133584310D01*
X125640689Y-133746929D01*
X125640696Y-133746935D01*
X125823160Y-133886944D01*
X126022335Y-134001938D01*
X126022336Y-134001938D01*
X126022339Y-134001940D01*
X126234824Y-134089954D01*
X126456980Y-134149480D01*
X126685004Y-134179500D01*
X126685011Y-134179500D01*
X126914989Y-134179500D01*
X126914996Y-134179500D01*
X127143020Y-134149480D01*
X127365176Y-134089954D01*
X127577661Y-134001940D01*
X127776840Y-133886944D01*
X127959305Y-133746934D01*
X128121934Y-133584305D01*
X128261944Y-133401840D01*
X128376940Y-133202661D01*
X128464954Y-132990176D01*
X128524480Y-132768020D01*
X128554500Y-132539996D01*
X128554500Y-132310004D01*
X128524480Y-132081980D01*
X128464954Y-131859824D01*
X128376940Y-131647339D01*
X128261944Y-131448160D01*
X128121934Y-131265695D01*
X128121929Y-131265689D01*
X127959310Y-131103070D01*
X127959303Y-131103064D01*
X127776839Y-130963055D01*
X127577664Y-130848061D01*
X127577654Y-130848057D01*
X127365185Y-130760049D01*
X127365178Y-130760047D01*
X127365176Y-130760046D01*
X127143020Y-130700520D01*
X127143014Y-130700519D01*
X127143009Y-130700518D01*
X126915005Y-130670501D01*
X126915002Y-130670500D01*
X126914996Y-130670500D01*
X126685004Y-130670500D01*
X126684998Y-130670500D01*
X126684994Y-130670501D01*
X126456990Y-130700518D01*
X126456983Y-130700519D01*
X126456980Y-130700520D01*
X126234824Y-130760046D01*
X126234814Y-130760049D01*
X126022345Y-130848057D01*
X126022335Y-130848061D01*
X125823160Y-130963055D01*
X125640696Y-131103064D01*
X125640689Y-131103070D01*
X125478070Y-131265689D01*
X125478064Y-131265696D01*
X125338055Y-131448160D01*
X125223061Y-131647335D01*
X125223057Y-131647345D01*
X125135049Y-131859814D01*
X125135046Y-131859824D01*
X125075521Y-132081977D01*
X125075518Y-132081990D01*
X125045501Y-132309994D01*
X125045500Y-132310010D01*
X125045500Y-132539989D01*
X123403906Y-132539989D01*
X123400670Y-132478243D01*
X123400500Y-132471753D01*
X123400500Y-126988974D01*
X123420185Y-126921935D01*
X123472989Y-126876180D01*
X123542147Y-126866236D01*
X123605703Y-126895261D01*
X123627602Y-126920083D01*
X123709079Y-127042022D01*
X123709082Y-127042026D01*
X123832973Y-127165917D01*
X123832977Y-127165920D01*
X123978657Y-127263261D01*
X123978670Y-127263268D01*
X124140537Y-127330315D01*
X124140542Y-127330317D01*
X124312387Y-127364499D01*
X124312391Y-127364500D01*
X124312392Y-127364500D01*
X124487609Y-127364500D01*
X124487610Y-127364499D01*
X124659458Y-127330317D01*
X124821336Y-127263265D01*
X124967023Y-127165920D01*
X125090920Y-127042023D01*
X125188265Y-126896336D01*
X125255317Y-126734458D01*
X125289500Y-126562608D01*
X125289500Y-126387392D01*
X125255317Y-126215542D01*
X125243748Y-126187612D01*
X125188268Y-126053670D01*
X125188261Y-126053657D01*
X125090920Y-125907977D01*
X125090917Y-125907973D01*
X124967026Y-125784082D01*
X124967022Y-125784079D01*
X124821342Y-125686738D01*
X124821329Y-125686731D01*
X124659462Y-125619684D01*
X124659450Y-125619681D01*
X124487612Y-125585500D01*
X124487608Y-125585500D01*
X124312392Y-125585500D01*
X124312387Y-125585500D01*
X124140549Y-125619681D01*
X124140537Y-125619684D01*
X123978670Y-125686731D01*
X123978657Y-125686738D01*
X123832977Y-125784079D01*
X123832973Y-125784082D01*
X123709082Y-125907973D01*
X123709079Y-125907977D01*
X123627602Y-126029916D01*
X123573990Y-126074721D01*
X123504665Y-126083428D01*
X123441637Y-126053273D01*
X123404918Y-125993830D01*
X123400500Y-125961025D01*
X123400500Y-124398638D01*
X124444500Y-124398638D01*
X124445678Y-124420618D01*
X124448511Y-124446965D01*
X124448512Y-124446970D01*
X124472468Y-124523474D01*
X124472470Y-124523480D01*
X124489731Y-124555091D01*
X124505951Y-124584798D01*
X124505958Y-124584808D01*
X124540998Y-124631615D01*
X124541002Y-124631619D01*
X124541009Y-124631629D01*
X124541016Y-124631636D01*
X132168199Y-132258819D01*
X132201684Y-132320142D01*
X132196700Y-132389834D01*
X132154828Y-132445767D01*
X132089364Y-132470184D01*
X132080518Y-132470500D01*
X132012387Y-132470500D01*
X131840549Y-132504681D01*
X131840537Y-132504684D01*
X131678670Y-132571731D01*
X131678657Y-132571738D01*
X131532977Y-132669079D01*
X131532973Y-132669082D01*
X131409082Y-132792973D01*
X131409079Y-132792977D01*
X131311738Y-132938657D01*
X131311731Y-132938670D01*
X131244684Y-133100537D01*
X131244681Y-133100549D01*
X131210500Y-133272387D01*
X131210500Y-133447612D01*
X131244681Y-133619450D01*
X131244684Y-133619462D01*
X131311731Y-133781329D01*
X131311738Y-133781342D01*
X131409079Y-133927022D01*
X131409082Y-133927026D01*
X131532973Y-134050917D01*
X131532977Y-134050920D01*
X131678657Y-134148261D01*
X131678670Y-134148268D01*
X131829246Y-134210638D01*
X131840542Y-134215317D01*
X132012387Y-134249499D01*
X132012391Y-134249500D01*
X132012392Y-134249500D01*
X132187609Y-134249500D01*
X132187610Y-134249499D01*
X132359458Y-134215317D01*
X132490219Y-134161154D01*
X132521329Y-134148268D01*
X132521329Y-134148267D01*
X132521336Y-134148265D01*
X132667023Y-134050920D01*
X132790920Y-133927023D01*
X132888265Y-133781336D01*
X132955317Y-133619458D01*
X132989500Y-133447608D01*
X132989500Y-133379482D01*
X133009185Y-133312443D01*
X133061989Y-133266688D01*
X133131147Y-133256744D01*
X133194703Y-133285769D01*
X133201181Y-133291801D01*
X134368365Y-134458986D01*
X134368366Y-134458987D01*
X134384716Y-134473674D01*
X134384730Y-134473686D01*
X134384738Y-134473693D01*
X134390360Y-134478223D01*
X134405379Y-134490327D01*
X134476424Y-134527490D01*
X134543456Y-134547173D01*
X134543458Y-134547173D01*
X134543464Y-134547175D01*
X134601362Y-134555500D01*
X134601366Y-134555500D01*
X140325991Y-134555500D01*
X140326000Y-134555500D01*
X140369684Y-134550803D01*
X140398875Y-134544452D01*
X140421174Y-134539602D01*
X140421190Y-134539598D01*
X140421195Y-134539597D01*
X140431373Y-134537110D01*
X140512085Y-134494100D01*
X140564889Y-134448345D01*
X140582843Y-134430754D01*
X140627490Y-134350937D01*
X140647175Y-134283898D01*
X140647174Y-134283898D01*
X140647205Y-134283796D01*
X140684980Y-134225018D01*
X140748536Y-134195994D01*
X140813635Y-134204171D01*
X140840542Y-134215317D01*
X141012387Y-134249499D01*
X141012391Y-134249500D01*
X141012392Y-134249500D01*
X141187609Y-134249500D01*
X141187610Y-134249499D01*
X141359458Y-134215317D01*
X141490219Y-134161154D01*
X141521329Y-134148268D01*
X141521329Y-134148267D01*
X141521336Y-134148265D01*
X141667023Y-134050920D01*
X141790920Y-133927023D01*
X141888265Y-133781336D01*
X141955317Y-133619458D01*
X141989500Y-133447608D01*
X141989500Y-133272392D01*
X141955317Y-133100542D01*
X141920107Y-133015537D01*
X141888268Y-132938670D01*
X141888261Y-132938657D01*
X141790920Y-132792977D01*
X141790917Y-132792973D01*
X141667026Y-132669082D01*
X141667022Y-132669079D01*
X141521342Y-132571738D01*
X141521329Y-132571731D01*
X141390878Y-132517697D01*
X143094500Y-132517697D01*
X143094631Y-132525025D01*
X143094947Y-132533874D01*
X143094947Y-132533880D01*
X143107772Y-132598352D01*
X143132188Y-132663814D01*
X143142395Y-132686786D01*
X143142397Y-132686789D01*
X143188365Y-132740946D01*
X143201579Y-132756514D01*
X143239267Y-132784727D01*
X143281137Y-132840660D01*
X143286121Y-132910352D01*
X143279516Y-132931445D01*
X143244684Y-133015537D01*
X143244681Y-133015549D01*
X143210500Y-133187387D01*
X143210500Y-133362612D01*
X143244681Y-133534450D01*
X143244684Y-133534462D01*
X143311731Y-133696329D01*
X143311738Y-133696342D01*
X143409079Y-133842022D01*
X143409082Y-133842026D01*
X143532973Y-133965917D01*
X143532977Y-133965920D01*
X143678657Y-134063261D01*
X143678670Y-134063268D01*
X143830110Y-134125996D01*
X143840542Y-134130317D01*
X144012387Y-134164499D01*
X144012391Y-134164500D01*
X144012392Y-134164500D01*
X144187607Y-134164500D01*
X144187608Y-134164500D01*
X144202432Y-134161551D01*
X144272022Y-134167777D01*
X144327201Y-134210638D01*
X144336057Y-134224853D01*
X144339530Y-134231371D01*
X144339531Y-134231373D01*
X144349958Y-134250940D01*
X144382540Y-134312083D01*
X144382542Y-134312086D01*
X144428301Y-134364895D01*
X144445883Y-134382839D01*
X144445887Y-134382843D01*
X144445888Y-134382844D01*
X144445890Y-134382845D01*
X144525700Y-134427488D01*
X144525704Y-134427490D01*
X144592743Y-134447175D01*
X144650641Y-134455500D01*
X144650645Y-134455500D01*
X152549360Y-134455500D01*
X152553999Y-134455188D01*
X152576786Y-134453661D01*
X152576790Y-134453660D01*
X152576796Y-134453660D01*
X152576806Y-134453659D01*
X152593437Y-134451418D01*
X152609592Y-134449243D01*
X152690163Y-134420415D01*
X152749606Y-134383696D01*
X152770146Y-134369201D01*
X152826985Y-134297551D01*
X152857139Y-134234523D01*
X152857151Y-134234492D01*
X152857905Y-134232786D01*
X152858971Y-134233256D01*
X152899424Y-134181785D01*
X152965445Y-134158913D01*
X152995567Y-134161153D01*
X153012392Y-134164500D01*
X153012395Y-134164500D01*
X153187607Y-134164500D01*
X153187608Y-134164500D01*
X153202432Y-134161551D01*
X153272022Y-134167777D01*
X153327201Y-134210638D01*
X153336057Y-134224853D01*
X153339530Y-134231371D01*
X153339531Y-134231373D01*
X153349958Y-134250940D01*
X153382540Y-134312083D01*
X153382542Y-134312086D01*
X153428301Y-134364895D01*
X153445883Y-134382839D01*
X153445887Y-134382843D01*
X153445888Y-134382844D01*
X153445890Y-134382845D01*
X153525700Y-134427488D01*
X153525704Y-134427490D01*
X153592743Y-134447175D01*
X153650641Y-134455500D01*
X153650645Y-134455500D01*
X156275991Y-134455500D01*
X156276000Y-134455500D01*
X156319684Y-134450803D01*
X156348875Y-134444452D01*
X156371174Y-134439602D01*
X156371190Y-134439598D01*
X156371195Y-134439597D01*
X156381373Y-134437110D01*
X156462085Y-134394100D01*
X156514889Y-134348345D01*
X156532843Y-134330754D01*
X156577490Y-134250937D01*
X156597175Y-134183898D01*
X156605500Y-134126000D01*
X156605500Y-133461815D01*
X156625185Y-133394776D01*
X156677989Y-133349021D01*
X156747147Y-133339077D01*
X156810703Y-133368102D01*
X156835779Y-133398475D01*
X156835799Y-133398463D01*
X156835925Y-133398652D01*
X156836890Y-133399820D01*
X156837787Y-133401375D01*
X156838057Y-133401842D01*
X156978064Y-133584303D01*
X156978070Y-133584310D01*
X157140689Y-133746929D01*
X157140696Y-133746935D01*
X157323160Y-133886944D01*
X157522335Y-134001938D01*
X157522336Y-134001938D01*
X157522339Y-134001940D01*
X157734824Y-134089954D01*
X157956980Y-134149480D01*
X158185004Y-134179500D01*
X158185011Y-134179500D01*
X158414989Y-134179500D01*
X158414996Y-134179500D01*
X158643020Y-134149480D01*
X158865176Y-134089954D01*
X159077661Y-134001940D01*
X159276840Y-133886944D01*
X159459305Y-133746934D01*
X159621934Y-133584305D01*
X159761944Y-133401840D01*
X159876940Y-133202661D01*
X159964954Y-132990176D01*
X160024480Y-132768020D01*
X160054500Y-132539996D01*
X160054500Y-132310004D01*
X160024480Y-132081980D01*
X159964954Y-131859824D01*
X159876940Y-131647339D01*
X159761944Y-131448160D01*
X159621934Y-131265695D01*
X159621929Y-131265689D01*
X159459310Y-131103070D01*
X159459303Y-131103064D01*
X159276839Y-130963055D01*
X159077664Y-130848061D01*
X159077654Y-130848057D01*
X158865185Y-130760049D01*
X158865178Y-130760047D01*
X158865176Y-130760046D01*
X158643020Y-130700520D01*
X158643014Y-130700519D01*
X158643009Y-130700518D01*
X158415005Y-130670501D01*
X158415002Y-130670500D01*
X158414996Y-130670500D01*
X158185004Y-130670500D01*
X158184998Y-130670500D01*
X158184994Y-130670501D01*
X157956990Y-130700518D01*
X157956983Y-130700519D01*
X157956980Y-130700520D01*
X157734824Y-130760046D01*
X157734814Y-130760049D01*
X157522345Y-130848057D01*
X157522335Y-130848061D01*
X157323160Y-130963055D01*
X157140696Y-131103064D01*
X157140689Y-131103070D01*
X156978070Y-131265689D01*
X156978064Y-131265696D01*
X156838057Y-131448158D01*
X156836887Y-131450185D01*
X156836378Y-131450670D01*
X156835799Y-131451537D01*
X156835604Y-131451407D01*
X156786319Y-131498400D01*
X156717712Y-131511622D01*
X156652848Y-131485654D01*
X156612320Y-131428740D01*
X156605500Y-131388184D01*
X156605500Y-125229959D01*
X156625185Y-125162920D01*
X156677989Y-125117165D01*
X156747147Y-125107221D01*
X156810703Y-125136246D01*
X156829265Y-125156320D01*
X156877850Y-125222150D01*
X156987118Y-125302793D01*
X157115302Y-125347646D01*
X157115301Y-125347646D01*
X157119271Y-125348018D01*
X157145735Y-125350500D01*
X158254264Y-125350499D01*
X158284698Y-125347646D01*
X158412882Y-125302793D01*
X158522150Y-125222150D01*
X158602793Y-125112882D01*
X158647646Y-124984698D01*
X158650500Y-124954265D01*
X158650499Y-123325736D01*
X158647646Y-123295302D01*
X158602793Y-123167118D01*
X158522150Y-123057850D01*
X158412882Y-122977207D01*
X158412881Y-122977206D01*
X158284695Y-122932353D01*
X158284698Y-122932353D01*
X158254268Y-122929500D01*
X157145741Y-122929500D01*
X157115301Y-122932354D01*
X157115294Y-122932356D01*
X157084474Y-122943140D01*
X157014695Y-122946701D01*
X156954069Y-122911970D01*
X156921843Y-122849976D01*
X156924333Y-122800688D01*
X156922392Y-122800302D01*
X156950500Y-122658996D01*
X156950500Y-117929750D01*
X156970185Y-117862711D01*
X157022989Y-117816956D01*
X157092147Y-117807012D01*
X157115450Y-117812707D01*
X157215302Y-117847646D01*
X157245735Y-117850500D01*
X158354264Y-117850499D01*
X158384698Y-117847646D01*
X158512882Y-117802793D01*
X158622150Y-117722150D01*
X158702793Y-117612882D01*
X158747646Y-117484698D01*
X158750500Y-117454265D01*
X158750499Y-115825736D01*
X158747646Y-115795302D01*
X158702793Y-115667118D01*
X158622150Y-115557850D01*
X158512882Y-115477207D01*
X158512881Y-115477206D01*
X158384695Y-115432353D01*
X158384698Y-115432353D01*
X158354268Y-115429500D01*
X157245741Y-115429500D01*
X157215301Y-115432354D01*
X157215297Y-115432355D01*
X157115453Y-115467291D01*
X157045674Y-115470852D01*
X156985047Y-115436122D01*
X156952821Y-115374128D01*
X156950500Y-115350249D01*
X156950500Y-108996004D01*
X156935984Y-108923029D01*
X156942211Y-108853437D01*
X156985074Y-108798260D01*
X157050964Y-108775015D01*
X157098555Y-108781795D01*
X157215302Y-108822646D01*
X157245735Y-108825500D01*
X158354264Y-108825499D01*
X158384698Y-108822646D01*
X158512882Y-108777793D01*
X158622150Y-108697150D01*
X158702793Y-108587882D01*
X158747646Y-108459698D01*
X158750500Y-108429265D01*
X158750499Y-106800736D01*
X158747646Y-106770302D01*
X158702793Y-106642118D01*
X158622150Y-106532850D01*
X158512882Y-106452207D01*
X158512881Y-106452206D01*
X158384695Y-106407353D01*
X158384698Y-106407353D01*
X158354268Y-106404500D01*
X157245741Y-106404500D01*
X157215301Y-106407354D01*
X157215300Y-106407354D01*
X157087118Y-106452206D01*
X156977850Y-106532850D01*
X156897206Y-106642118D01*
X156852353Y-106770302D01*
X156849500Y-106800731D01*
X156849500Y-108374481D01*
X156829815Y-108441520D01*
X156777011Y-108487275D01*
X156707853Y-108497219D01*
X156644297Y-108468194D01*
X156637819Y-108462162D01*
X155786819Y-107611161D01*
X155753334Y-107549838D01*
X155750500Y-107523480D01*
X155750500Y-107261383D01*
X155750499Y-107261379D01*
X155739010Y-107203620D01*
X155713973Y-107077749D01*
X155642322Y-106904769D01*
X155642321Y-106904768D01*
X155642318Y-106904762D01*
X155538302Y-106749092D01*
X155538299Y-106749088D01*
X155405911Y-106616700D01*
X155405907Y-106616697D01*
X155250237Y-106512681D01*
X155250228Y-106512676D01*
X155077251Y-106441027D01*
X155077243Y-106441025D01*
X154893620Y-106404500D01*
X154893616Y-106404500D01*
X154706384Y-106404500D01*
X154706379Y-106404500D01*
X154522756Y-106441025D01*
X154522748Y-106441027D01*
X154349771Y-106512676D01*
X154349762Y-106512681D01*
X154194093Y-106616696D01*
X154168672Y-106642118D01*
X154097607Y-106713182D01*
X154036287Y-106746666D01*
X154009928Y-106749500D01*
X145631005Y-106749500D01*
X145495677Y-106776418D01*
X145495667Y-106776421D01*
X145368195Y-106829221D01*
X145368182Y-106829228D01*
X145253458Y-106905885D01*
X145253454Y-106905888D01*
X145155888Y-107003454D01*
X145155885Y-107003458D01*
X145079228Y-107118182D01*
X145079221Y-107118195D01*
X145026421Y-107245667D01*
X145026418Y-107245677D01*
X144999500Y-107381004D01*
X144999500Y-107381007D01*
X144999500Y-107518993D01*
X144999500Y-107518995D01*
X144999499Y-107518995D01*
X145026418Y-107654322D01*
X145026421Y-107654332D01*
X145079221Y-107781804D01*
X145079228Y-107781817D01*
X145155885Y-107896541D01*
X145155888Y-107896545D01*
X145253454Y-107994111D01*
X145253458Y-107994114D01*
X145368182Y-108070771D01*
X145368195Y-108070778D01*
X145495667Y-108123578D01*
X145495672Y-108123580D01*
X145495676Y-108123580D01*
X145495677Y-108123581D01*
X145631004Y-108150500D01*
X145631007Y-108150500D01*
X153802448Y-108150500D01*
X153869487Y-108170185D01*
X153915242Y-108222989D01*
X153917009Y-108227048D01*
X153957674Y-108325224D01*
X153957681Y-108325237D01*
X154061697Y-108480907D01*
X154061700Y-108480911D01*
X154194088Y-108613299D01*
X154194092Y-108613302D01*
X154349762Y-108717318D01*
X154349768Y-108717321D01*
X154349769Y-108717322D01*
X154522749Y-108788973D01*
X154666105Y-108817488D01*
X154706379Y-108825499D01*
X154706383Y-108825500D01*
X154706384Y-108825500D01*
X154893617Y-108825500D01*
X154917620Y-108820724D01*
X154933893Y-108817488D01*
X155003485Y-108823715D01*
X155045767Y-108851424D01*
X155513181Y-109318838D01*
X155546666Y-109380161D01*
X155549500Y-109406519D01*
X155549500Y-115505655D01*
X155529815Y-115572694D01*
X155477011Y-115618449D01*
X155407853Y-115628393D01*
X155356609Y-115608757D01*
X155250237Y-115537681D01*
X155250228Y-115537676D01*
X155077251Y-115466027D01*
X155077243Y-115466025D01*
X154893620Y-115429500D01*
X154893616Y-115429500D01*
X154706384Y-115429500D01*
X154706379Y-115429500D01*
X154522756Y-115466025D01*
X154522748Y-115466027D01*
X154349771Y-115537676D01*
X154349762Y-115537681D01*
X154194092Y-115641697D01*
X154194088Y-115641700D01*
X154061700Y-115774088D01*
X154061697Y-115774092D01*
X153957681Y-115929762D01*
X153957676Y-115929771D01*
X153898369Y-116072953D01*
X153854528Y-116127356D01*
X153788234Y-116149421D01*
X153783808Y-116149500D01*
X145806003Y-116149500D01*
X145697590Y-116171065D01*
X145697589Y-116171065D01*
X145681379Y-116174289D01*
X145670669Y-116176420D01*
X145629540Y-116193457D01*
X145543191Y-116229223D01*
X145470383Y-116277873D01*
X145470382Y-116277874D01*
X145428454Y-116305888D01*
X145428453Y-116305889D01*
X145155888Y-116578453D01*
X145155887Y-116578454D01*
X145079222Y-116693192D01*
X145026421Y-116820667D01*
X145026418Y-116820677D01*
X144999500Y-116956003D01*
X144999500Y-116956006D01*
X144999500Y-117093994D01*
X144999500Y-117093996D01*
X144999499Y-117093996D01*
X145026418Y-117229322D01*
X145026421Y-117229332D01*
X145079222Y-117356807D01*
X145155887Y-117471545D01*
X145253454Y-117569112D01*
X145368192Y-117645777D01*
X145475156Y-117690082D01*
X145495672Y-117698580D01*
X145495676Y-117698580D01*
X145495677Y-117698581D01*
X145631003Y-117725500D01*
X145631006Y-117725500D01*
X145768996Y-117725500D01*
X145882987Y-117702825D01*
X145904328Y-117698580D01*
X145989316Y-117663376D01*
X146031809Y-117645776D01*
X146031813Y-117645774D01*
X146143126Y-117571398D01*
X146209803Y-117550520D01*
X146212016Y-117550500D01*
X151385951Y-117550500D01*
X151452990Y-117570185D01*
X151498745Y-117622989D01*
X151508689Y-117692147D01*
X151479664Y-117755703D01*
X151433403Y-117789061D01*
X151378670Y-117811731D01*
X151378657Y-117811738D01*
X151232977Y-117909079D01*
X151232973Y-117909082D01*
X151109082Y-118032973D01*
X151109079Y-118032977D01*
X151011738Y-118178657D01*
X151011731Y-118178670D01*
X150944684Y-118340537D01*
X150944681Y-118340549D01*
X150910500Y-118512387D01*
X150910500Y-118687612D01*
X150944681Y-118859450D01*
X150944684Y-118859462D01*
X151011731Y-119021329D01*
X151011738Y-119021342D01*
X151109079Y-119167022D01*
X151109082Y-119167026D01*
X151232973Y-119290917D01*
X151232977Y-119290920D01*
X151378657Y-119388261D01*
X151378670Y-119388268D01*
X151540537Y-119455315D01*
X151540542Y-119455317D01*
X151712387Y-119489499D01*
X151712391Y-119489500D01*
X151712392Y-119489500D01*
X151887609Y-119489500D01*
X151887610Y-119489499D01*
X152059458Y-119455317D01*
X152221336Y-119388265D01*
X152367023Y-119290920D01*
X152490920Y-119167023D01*
X152588265Y-119021336D01*
X152655317Y-118859458D01*
X152689500Y-118687608D01*
X152689500Y-118512392D01*
X152655317Y-118340542D01*
X152655315Y-118340537D01*
X152588268Y-118178670D01*
X152588261Y-118178657D01*
X152490920Y-118032977D01*
X152490917Y-118032973D01*
X152367026Y-117909082D01*
X152367022Y-117909079D01*
X152221342Y-117811738D01*
X152221329Y-117811731D01*
X152166597Y-117789061D01*
X152112193Y-117745220D01*
X152090128Y-117678926D01*
X152107407Y-117611227D01*
X152158544Y-117563616D01*
X152214049Y-117550500D01*
X154054928Y-117550500D01*
X154121967Y-117570185D01*
X154142610Y-117586820D01*
X154194088Y-117638299D01*
X154194092Y-117638302D01*
X154349762Y-117742318D01*
X154349768Y-117742321D01*
X154349769Y-117742322D01*
X154522749Y-117813973D01*
X154692031Y-117847645D01*
X154706379Y-117850499D01*
X154706383Y-117850500D01*
X154706384Y-117850500D01*
X154893617Y-117850500D01*
X154893618Y-117850499D01*
X155077251Y-117813973D01*
X155250231Y-117742322D01*
X155356610Y-117671241D01*
X155423286Y-117650364D01*
X155490666Y-117668848D01*
X155537357Y-117720827D01*
X155549500Y-117774344D01*
X155549500Y-121720500D01*
X155529815Y-121787539D01*
X155477011Y-121833294D01*
X155425500Y-121844500D01*
X151023992Y-121844500D01*
X150980313Y-121849197D01*
X150928825Y-121860397D01*
X150918627Y-121862890D01*
X150918624Y-121862891D01*
X150837916Y-121905899D01*
X150837913Y-121905901D01*
X150785104Y-121951660D01*
X150767160Y-121969242D01*
X150767154Y-121969249D01*
X150722511Y-122049059D01*
X150722509Y-122049064D01*
X150702826Y-122116096D01*
X150694500Y-122174003D01*
X150694500Y-125342697D01*
X150694631Y-125350025D01*
X150694947Y-125358874D01*
X150694947Y-125358880D01*
X150707772Y-125423352D01*
X150732188Y-125488814D01*
X150742395Y-125511786D01*
X150742397Y-125511789D01*
X150788365Y-125565946D01*
X150801579Y-125581514D01*
X150839267Y-125609727D01*
X150881137Y-125665660D01*
X150886121Y-125735352D01*
X150879516Y-125756445D01*
X150844684Y-125840537D01*
X150844681Y-125840549D01*
X150810500Y-126012387D01*
X150810500Y-126187612D01*
X150844681Y-126359450D01*
X150844684Y-126359462D01*
X150878832Y-126441903D01*
X150886301Y-126511372D01*
X150855025Y-126573851D01*
X150842891Y-126584314D01*
X150843178Y-126584646D01*
X150785104Y-126634966D01*
X150767160Y-126652548D01*
X150767154Y-126652555D01*
X150722511Y-126732365D01*
X150722509Y-126732370D01*
X150702826Y-126799402D01*
X150694500Y-126857309D01*
X150694500Y-128720500D01*
X150674815Y-128787539D01*
X150622011Y-128833294D01*
X150570500Y-128844500D01*
X143423992Y-128844500D01*
X143380313Y-128849197D01*
X143328825Y-128860397D01*
X143318627Y-128862890D01*
X143318624Y-128862891D01*
X143237916Y-128905899D01*
X143237913Y-128905901D01*
X143185104Y-128951660D01*
X143167160Y-128969242D01*
X143167154Y-128969249D01*
X143122511Y-129049059D01*
X143122509Y-129049064D01*
X143102826Y-129116096D01*
X143094500Y-129174003D01*
X143094500Y-132517697D01*
X141390878Y-132517697D01*
X141359462Y-132504684D01*
X141359450Y-132504681D01*
X141187612Y-132470500D01*
X141187608Y-132470500D01*
X141012392Y-132470500D01*
X141012387Y-132470500D01*
X140840549Y-132504681D01*
X140840538Y-132504684D01*
X140826948Y-132510313D01*
X140757478Y-132517779D01*
X140695000Y-132486501D01*
X140659350Y-132426411D01*
X140655500Y-132395750D01*
X140655500Y-118024008D01*
X140655499Y-118023992D01*
X140653912Y-118009233D01*
X140650803Y-117980316D01*
X140639803Y-117929750D01*
X140639602Y-117928825D01*
X140639348Y-117927789D01*
X140637110Y-117918627D01*
X140594100Y-117837915D01*
X140548345Y-117785111D01*
X140548339Y-117785104D01*
X140530757Y-117767160D01*
X140530756Y-117767159D01*
X140530754Y-117767157D01*
X140530752Y-117767156D01*
X140530750Y-117767154D01*
X140450940Y-117722511D01*
X140450935Y-117722509D01*
X140383903Y-117702826D01*
X140383899Y-117702825D01*
X140383898Y-117702825D01*
X140326000Y-117694500D01*
X131033771Y-117694500D01*
X130966732Y-117674815D01*
X130920977Y-117622011D01*
X130911033Y-117552853D01*
X130940058Y-117489297D01*
X130964880Y-117467398D01*
X131015908Y-117433302D01*
X131148299Y-117300911D01*
X131148302Y-117300908D01*
X131252322Y-117145231D01*
X131323973Y-116972251D01*
X131360500Y-116788616D01*
X131360500Y-116081384D01*
X131323973Y-115897749D01*
X131252322Y-115724769D01*
X131252321Y-115724768D01*
X131252318Y-115724762D01*
X131148302Y-115569092D01*
X131148299Y-115569088D01*
X131015911Y-115436700D01*
X131015907Y-115436697D01*
X130860237Y-115332681D01*
X130860228Y-115332676D01*
X130687251Y-115261027D01*
X130687243Y-115261025D01*
X130503620Y-115224500D01*
X130503616Y-115224500D01*
X130316384Y-115224500D01*
X130316379Y-115224500D01*
X130132756Y-115261025D01*
X130132748Y-115261027D01*
X129959771Y-115332676D01*
X129959762Y-115332681D01*
X129804092Y-115436697D01*
X129804088Y-115436700D01*
X129671700Y-115569088D01*
X129671697Y-115569092D01*
X129567681Y-115724762D01*
X129567676Y-115724771D01*
X129496027Y-115897748D01*
X129496025Y-115897756D01*
X129459500Y-116081379D01*
X129459500Y-116788620D01*
X129496025Y-116972243D01*
X129496027Y-116972251D01*
X129567676Y-117145228D01*
X129567681Y-117145237D01*
X129671697Y-117300907D01*
X129671700Y-117300911D01*
X129804091Y-117433302D01*
X129855120Y-117467398D01*
X129899925Y-117521010D01*
X129908632Y-117590335D01*
X129878478Y-117653362D01*
X129819035Y-117690082D01*
X129786229Y-117694500D01*
X128346890Y-117694500D01*
X128279851Y-117674815D01*
X128234096Y-117622011D01*
X128224152Y-117552853D01*
X128247120Y-117496867D01*
X128294032Y-117433302D01*
X128312793Y-117407882D01*
X128357646Y-117279698D01*
X128360500Y-117249265D01*
X128360499Y-115620736D01*
X128357646Y-115590302D01*
X128312793Y-115462118D01*
X128232150Y-115352850D01*
X128122882Y-115272207D01*
X128122881Y-115272206D01*
X127994695Y-115227353D01*
X127994698Y-115227353D01*
X127964268Y-115224500D01*
X126855741Y-115224500D01*
X126825301Y-115227354D01*
X126825300Y-115227354D01*
X126697118Y-115272206D01*
X126587850Y-115352850D01*
X126507206Y-115462118D01*
X126462353Y-115590302D01*
X126459500Y-115620731D01*
X126459500Y-117249258D01*
X126462354Y-117279698D01*
X126462354Y-117279699D01*
X126507206Y-117407881D01*
X126507208Y-117407884D01*
X126572880Y-117496867D01*
X126596851Y-117562496D01*
X126581535Y-117630666D01*
X126531795Y-117679734D01*
X126473110Y-117694500D01*
X124773992Y-117694500D01*
X124730313Y-117699197D01*
X124678825Y-117710397D01*
X124668627Y-117712890D01*
X124668624Y-117712891D01*
X124587916Y-117755899D01*
X124587913Y-117755901D01*
X124535104Y-117801660D01*
X124517160Y-117819242D01*
X124517154Y-117819249D01*
X124472511Y-117899059D01*
X124472509Y-117899064D01*
X124452826Y-117966096D01*
X124452825Y-117966101D01*
X124452825Y-117966102D01*
X124444502Y-118023992D01*
X124444500Y-118024003D01*
X124444500Y-124398638D01*
X123400500Y-124398638D01*
X123400500Y-114974008D01*
X123420185Y-114906969D01*
X123472989Y-114861214D01*
X123542147Y-114851270D01*
X123605703Y-114880295D01*
X123627602Y-114905117D01*
X123719079Y-115042022D01*
X123719082Y-115042026D01*
X123842973Y-115165917D01*
X123842977Y-115165920D01*
X123988657Y-115263261D01*
X123988670Y-115263268D01*
X124150537Y-115330315D01*
X124150542Y-115330317D01*
X124322387Y-115364499D01*
X124322391Y-115364500D01*
X124322392Y-115364500D01*
X124497609Y-115364500D01*
X124497610Y-115364499D01*
X124669458Y-115330317D01*
X124809748Y-115272207D01*
X124831329Y-115263268D01*
X124831329Y-115263267D01*
X124831336Y-115263265D01*
X124977023Y-115165920D01*
X125100920Y-115042023D01*
X125198265Y-114896336D01*
X125265317Y-114734458D01*
X125299499Y-114562612D01*
X132520500Y-114562612D01*
X132554681Y-114734450D01*
X132554684Y-114734462D01*
X132621731Y-114896329D01*
X132621738Y-114896342D01*
X132719079Y-115042022D01*
X132719082Y-115042026D01*
X132842973Y-115165917D01*
X132842977Y-115165920D01*
X132988657Y-115263261D01*
X132988670Y-115263268D01*
X133150537Y-115330315D01*
X133150542Y-115330317D01*
X133322387Y-115364499D01*
X133322391Y-115364500D01*
X133322392Y-115364500D01*
X133497609Y-115364500D01*
X133497610Y-115364499D01*
X133669458Y-115330317D01*
X133809748Y-115272207D01*
X133831329Y-115263268D01*
X133831329Y-115263267D01*
X133831336Y-115263265D01*
X133977023Y-115165920D01*
X134100920Y-115042023D01*
X134198265Y-114896336D01*
X134265317Y-114734458D01*
X134299500Y-114562608D01*
X134299500Y-114387392D01*
X134265317Y-114215542D01*
X134216793Y-114098394D01*
X134198268Y-114053670D01*
X134198261Y-114053657D01*
X134100920Y-113907977D01*
X134100917Y-113907973D01*
X133977026Y-113784082D01*
X133977022Y-113784079D01*
X133831342Y-113686738D01*
X133831329Y-113686731D01*
X133669462Y-113619684D01*
X133669450Y-113619681D01*
X133497612Y-113585500D01*
X133497608Y-113585500D01*
X133322392Y-113585500D01*
X133322387Y-113585500D01*
X133150549Y-113619681D01*
X133150537Y-113619684D01*
X132988670Y-113686731D01*
X132988657Y-113686738D01*
X132842977Y-113784079D01*
X132842973Y-113784082D01*
X132719082Y-113907973D01*
X132719079Y-113907977D01*
X132621738Y-114053657D01*
X132621731Y-114053670D01*
X132554684Y-114215537D01*
X132554681Y-114215549D01*
X132520500Y-114387387D01*
X132520500Y-114562612D01*
X125299499Y-114562612D01*
X125299500Y-114562608D01*
X125299500Y-114387392D01*
X125265317Y-114215542D01*
X125216793Y-114098394D01*
X125198268Y-114053670D01*
X125198261Y-114053657D01*
X125100920Y-113907977D01*
X125100917Y-113907973D01*
X124977026Y-113784082D01*
X124977022Y-113784079D01*
X124831342Y-113686738D01*
X124831329Y-113686731D01*
X124669462Y-113619684D01*
X124669450Y-113619681D01*
X124497612Y-113585500D01*
X124497608Y-113585500D01*
X124322392Y-113585500D01*
X124322387Y-113585500D01*
X124150549Y-113619681D01*
X124150537Y-113619684D01*
X123988670Y-113686731D01*
X123988657Y-113686738D01*
X123842977Y-113784079D01*
X123842973Y-113784082D01*
X123719082Y-113907973D01*
X123719079Y-113907977D01*
X123627602Y-114044882D01*
X123573990Y-114089687D01*
X123504665Y-114098394D01*
X123441637Y-114068239D01*
X123404918Y-114008796D01*
X123400500Y-113975991D01*
X123400500Y-109662612D01*
X150910500Y-109662612D01*
X150944681Y-109834450D01*
X150944684Y-109834462D01*
X151011731Y-109996329D01*
X151011738Y-109996342D01*
X151109079Y-110142022D01*
X151109082Y-110142026D01*
X151232973Y-110265917D01*
X151232977Y-110265920D01*
X151378657Y-110363261D01*
X151378670Y-110363268D01*
X151540537Y-110430315D01*
X151540542Y-110430317D01*
X151712387Y-110464499D01*
X151712391Y-110464500D01*
X151712392Y-110464500D01*
X151887609Y-110464500D01*
X151887610Y-110464499D01*
X152059458Y-110430317D01*
X152221336Y-110363265D01*
X152367023Y-110265920D01*
X152490920Y-110142023D01*
X152588265Y-109996336D01*
X152655317Y-109834458D01*
X152689500Y-109662608D01*
X152689500Y-109487392D01*
X152655317Y-109315542D01*
X152655315Y-109315537D01*
X152588268Y-109153670D01*
X152588261Y-109153657D01*
X152490920Y-109007977D01*
X152490917Y-109007973D01*
X152367026Y-108884082D01*
X152367022Y-108884079D01*
X152221342Y-108786738D01*
X152221329Y-108786731D01*
X152059462Y-108719684D01*
X152059450Y-108719681D01*
X151887612Y-108685500D01*
X151887608Y-108685500D01*
X151712392Y-108685500D01*
X151712387Y-108685500D01*
X151540549Y-108719681D01*
X151540537Y-108719684D01*
X151378670Y-108786731D01*
X151378657Y-108786738D01*
X151232977Y-108884079D01*
X151232973Y-108884082D01*
X151109082Y-109007973D01*
X151109079Y-109007977D01*
X151011738Y-109153657D01*
X151011731Y-109153670D01*
X150944684Y-109315537D01*
X150944681Y-109315549D01*
X150910500Y-109487387D01*
X150910500Y-109662612D01*
X123400500Y-109662612D01*
X123400500Y-107664258D01*
X126459500Y-107664258D01*
X126462354Y-107694698D01*
X126462354Y-107694699D01*
X126507206Y-107822881D01*
X126507207Y-107822882D01*
X126587850Y-107932150D01*
X126697118Y-108012793D01*
X126825302Y-108057646D01*
X126825301Y-108057646D01*
X126829271Y-108058018D01*
X126855735Y-108060500D01*
X127964264Y-108060499D01*
X127994698Y-108057646D01*
X128122882Y-108012793D01*
X128232150Y-107932150D01*
X128312793Y-107822882D01*
X128357646Y-107694698D01*
X128360500Y-107664265D01*
X128360500Y-107203620D01*
X129459500Y-107203620D01*
X129496025Y-107387243D01*
X129496027Y-107387251D01*
X129567676Y-107560228D01*
X129567681Y-107560237D01*
X129671697Y-107715907D01*
X129671700Y-107715911D01*
X129804088Y-107848299D01*
X129804092Y-107848302D01*
X129959762Y-107952318D01*
X129959768Y-107952321D01*
X129959769Y-107952322D01*
X130132749Y-108023973D01*
X130302031Y-108057645D01*
X130316379Y-108060499D01*
X130316383Y-108060500D01*
X130316384Y-108060500D01*
X130503617Y-108060500D01*
X130503618Y-108060499D01*
X130687251Y-108023973D01*
X130860231Y-107952322D01*
X131015908Y-107848302D01*
X131148302Y-107715908D01*
X131252322Y-107560231D01*
X131323973Y-107387251D01*
X131360500Y-107203616D01*
X131360500Y-106496384D01*
X131323973Y-106312749D01*
X131252322Y-106139769D01*
X131252321Y-106139768D01*
X131252318Y-106139762D01*
X131148302Y-105984092D01*
X131148299Y-105984088D01*
X131015911Y-105851700D01*
X131015907Y-105851697D01*
X130860237Y-105747681D01*
X130860228Y-105747676D01*
X130687251Y-105676027D01*
X130687243Y-105676025D01*
X130503620Y-105639500D01*
X130503616Y-105639500D01*
X130316384Y-105639500D01*
X130316379Y-105639500D01*
X130132756Y-105676025D01*
X130132748Y-105676027D01*
X129959771Y-105747676D01*
X129959762Y-105747681D01*
X129804092Y-105851697D01*
X129804088Y-105851700D01*
X129671700Y-105984088D01*
X129671697Y-105984092D01*
X129567681Y-106139762D01*
X129567676Y-106139771D01*
X129496027Y-106312748D01*
X129496025Y-106312756D01*
X129459500Y-106496379D01*
X129459500Y-107203620D01*
X128360500Y-107203620D01*
X128360499Y-106035736D01*
X128357646Y-106005302D01*
X128312793Y-105877118D01*
X128232150Y-105767850D01*
X128122882Y-105687207D01*
X128122881Y-105687206D01*
X127994695Y-105642353D01*
X127994698Y-105642353D01*
X127964268Y-105639500D01*
X126855741Y-105639500D01*
X126825301Y-105642354D01*
X126825300Y-105642354D01*
X126697118Y-105687206D01*
X126587850Y-105767850D01*
X126507206Y-105877118D01*
X126462353Y-106005302D01*
X126459500Y-106035731D01*
X126459500Y-107664258D01*
X123400500Y-107664258D01*
X123400500Y-105389008D01*
X123420185Y-105321969D01*
X123472989Y-105276214D01*
X123542147Y-105266270D01*
X123605703Y-105295295D01*
X123627602Y-105320117D01*
X123719079Y-105457022D01*
X123719082Y-105457026D01*
X123842973Y-105580917D01*
X123842977Y-105580920D01*
X123988657Y-105678261D01*
X123988670Y-105678268D01*
X124150537Y-105745315D01*
X124150542Y-105745317D01*
X124322387Y-105779499D01*
X124322391Y-105779500D01*
X124322392Y-105779500D01*
X124497609Y-105779500D01*
X124497610Y-105779499D01*
X124669458Y-105745317D01*
X124809748Y-105687207D01*
X124831329Y-105678268D01*
X124831329Y-105678267D01*
X124831336Y-105678265D01*
X124977023Y-105580920D01*
X125100920Y-105457023D01*
X125198265Y-105311336D01*
X125265317Y-105149458D01*
X125299499Y-104977612D01*
X132520500Y-104977612D01*
X132554681Y-105149450D01*
X132554684Y-105149462D01*
X132621731Y-105311329D01*
X132621738Y-105311342D01*
X132719079Y-105457022D01*
X132719082Y-105457026D01*
X132842973Y-105580917D01*
X132842977Y-105580920D01*
X132988657Y-105678261D01*
X132988670Y-105678268D01*
X133150537Y-105745315D01*
X133150542Y-105745317D01*
X133322387Y-105779499D01*
X133322391Y-105779500D01*
X133322392Y-105779500D01*
X133497609Y-105779500D01*
X133497610Y-105779499D01*
X133669458Y-105745317D01*
X133809748Y-105687207D01*
X133831329Y-105678268D01*
X133831329Y-105678267D01*
X133831336Y-105678265D01*
X133977023Y-105580920D01*
X134100920Y-105457023D01*
X134198265Y-105311336D01*
X134265317Y-105149458D01*
X134299500Y-104977608D01*
X134299500Y-104802392D01*
X134265317Y-104630542D01*
X134216793Y-104513394D01*
X134198268Y-104468670D01*
X134198261Y-104468657D01*
X134100920Y-104322977D01*
X134100917Y-104322973D01*
X133977026Y-104199082D01*
X133977022Y-104199079D01*
X133831342Y-104101738D01*
X133831329Y-104101731D01*
X133669462Y-104034684D01*
X133669450Y-104034681D01*
X133497612Y-104000500D01*
X133497608Y-104000500D01*
X133322392Y-104000500D01*
X133322387Y-104000500D01*
X133150549Y-104034681D01*
X133150537Y-104034684D01*
X132988670Y-104101731D01*
X132988657Y-104101738D01*
X132842977Y-104199079D01*
X132842973Y-104199082D01*
X132719082Y-104322973D01*
X132719079Y-104322977D01*
X132621738Y-104468657D01*
X132621731Y-104468670D01*
X132554684Y-104630537D01*
X132554681Y-104630549D01*
X132520500Y-104802387D01*
X132520500Y-104977612D01*
X125299499Y-104977612D01*
X125299500Y-104977608D01*
X125299500Y-104802392D01*
X125265317Y-104630542D01*
X125216793Y-104513394D01*
X125198268Y-104468670D01*
X125198261Y-104468657D01*
X125100920Y-104322977D01*
X125100917Y-104322973D01*
X124977026Y-104199082D01*
X124977022Y-104199079D01*
X124831342Y-104101738D01*
X124831329Y-104101731D01*
X124669462Y-104034684D01*
X124669450Y-104034681D01*
X124497612Y-104000500D01*
X124497608Y-104000500D01*
X124322392Y-104000500D01*
X124322387Y-104000500D01*
X124150549Y-104034681D01*
X124150537Y-104034684D01*
X123988670Y-104101731D01*
X123988657Y-104101738D01*
X123842977Y-104199079D01*
X123842973Y-104199082D01*
X123719082Y-104322973D01*
X123719079Y-104322977D01*
X123627602Y-104459882D01*
X123573990Y-104504687D01*
X123504665Y-104513394D01*
X123441637Y-104483239D01*
X123404918Y-104423796D01*
X123400500Y-104390991D01*
X123400500Y-100487612D01*
X150910500Y-100487612D01*
X150944681Y-100659450D01*
X150944684Y-100659462D01*
X151011731Y-100821329D01*
X151011738Y-100821342D01*
X151109079Y-100967022D01*
X151109082Y-100967026D01*
X151232973Y-101090917D01*
X151232977Y-101090920D01*
X151378657Y-101188261D01*
X151378670Y-101188268D01*
X151540537Y-101255315D01*
X151540542Y-101255317D01*
X151712387Y-101289499D01*
X151712391Y-101289500D01*
X151712392Y-101289500D01*
X151887609Y-101289500D01*
X151887610Y-101289499D01*
X152059458Y-101255317D01*
X152221336Y-101188265D01*
X152367023Y-101090920D01*
X152490920Y-100967023D01*
X152588265Y-100821336D01*
X152655317Y-100659458D01*
X152689500Y-100487608D01*
X152689500Y-100312392D01*
X152655317Y-100140542D01*
X152655315Y-100140537D01*
X152588268Y-99978670D01*
X152588261Y-99978657D01*
X152490920Y-99832977D01*
X152490917Y-99832973D01*
X152367026Y-99709082D01*
X152367022Y-99709079D01*
X152221342Y-99611738D01*
X152221329Y-99611731D01*
X152059462Y-99544684D01*
X152059450Y-99544681D01*
X151887612Y-99510500D01*
X151887608Y-99510500D01*
X151712392Y-99510500D01*
X151712387Y-99510500D01*
X151540549Y-99544681D01*
X151540537Y-99544684D01*
X151378670Y-99611731D01*
X151378657Y-99611738D01*
X151232977Y-99709079D01*
X151232973Y-99709082D01*
X151109082Y-99832973D01*
X151109079Y-99832977D01*
X151011738Y-99978657D01*
X151011731Y-99978670D01*
X150944684Y-100140537D01*
X150944681Y-100140549D01*
X150910500Y-100312387D01*
X150910500Y-100487612D01*
X123400500Y-100487612D01*
X123400500Y-98199258D01*
X126559500Y-98199258D01*
X126562354Y-98229698D01*
X126562354Y-98229699D01*
X126607206Y-98357881D01*
X126607207Y-98357882D01*
X126687850Y-98467150D01*
X126797118Y-98547793D01*
X126925302Y-98592646D01*
X126925301Y-98592646D01*
X126929271Y-98593018D01*
X126955735Y-98595500D01*
X128064264Y-98595499D01*
X128094698Y-98592646D01*
X128222882Y-98547793D01*
X128332150Y-98467150D01*
X128412793Y-98357882D01*
X128457646Y-98229698D01*
X128460500Y-98199265D01*
X128460500Y-97738620D01*
X129559500Y-97738620D01*
X129596025Y-97922243D01*
X129596027Y-97922251D01*
X129667676Y-98095228D01*
X129667681Y-98095237D01*
X129771697Y-98250907D01*
X129771700Y-98250911D01*
X129904088Y-98383299D01*
X129904092Y-98383302D01*
X130059762Y-98487318D01*
X130059771Y-98487323D01*
X130082028Y-98496542D01*
X130232749Y-98558973D01*
X130402031Y-98592645D01*
X130416379Y-98595499D01*
X130416383Y-98595500D01*
X130416384Y-98595500D01*
X130603617Y-98595500D01*
X130603618Y-98595499D01*
X130787251Y-98558973D01*
X130960231Y-98487322D01*
X131115908Y-98383302D01*
X131248302Y-98250908D01*
X131336443Y-98118995D01*
X145099499Y-98118995D01*
X145126418Y-98254322D01*
X145126421Y-98254332D01*
X145179221Y-98381804D01*
X145179228Y-98381817D01*
X145255885Y-98496541D01*
X145255888Y-98496545D01*
X145353454Y-98594111D01*
X145353458Y-98594114D01*
X145468182Y-98670771D01*
X145468195Y-98670778D01*
X145595667Y-98723578D01*
X145595672Y-98723580D01*
X145595676Y-98723580D01*
X145595677Y-98723581D01*
X145731004Y-98750500D01*
X145731007Y-98750500D01*
X153739159Y-98750500D01*
X153806198Y-98770185D01*
X153851953Y-98822989D01*
X153860776Y-98850309D01*
X153886025Y-98977243D01*
X153886027Y-98977251D01*
X153957676Y-99150228D01*
X153957681Y-99150237D01*
X154061697Y-99305907D01*
X154061700Y-99305911D01*
X154194088Y-99438299D01*
X154194092Y-99438302D01*
X154349762Y-99542318D01*
X154349768Y-99542321D01*
X154349769Y-99542322D01*
X154522749Y-99613973D01*
X154692031Y-99647645D01*
X154706379Y-99650499D01*
X154706383Y-99650500D01*
X154706384Y-99650500D01*
X154893617Y-99650500D01*
X154893618Y-99650499D01*
X155077251Y-99613973D01*
X155250231Y-99542322D01*
X155405908Y-99438302D01*
X155538302Y-99305908D01*
X155572813Y-99254258D01*
X156849500Y-99254258D01*
X156852354Y-99284698D01*
X156852354Y-99284699D01*
X156897206Y-99412881D01*
X156897207Y-99412882D01*
X156977850Y-99522150D01*
X157087118Y-99602793D01*
X157215302Y-99647646D01*
X157215301Y-99647646D01*
X157219271Y-99648018D01*
X157245735Y-99650500D01*
X158354264Y-99650499D01*
X158384698Y-99647646D01*
X158512882Y-99602793D01*
X158622150Y-99522150D01*
X158702793Y-99412882D01*
X158747646Y-99284698D01*
X158750500Y-99254265D01*
X158750499Y-97625736D01*
X158747646Y-97595302D01*
X158702793Y-97467118D01*
X158622150Y-97357850D01*
X158512882Y-97277207D01*
X158512881Y-97277206D01*
X158384695Y-97232353D01*
X158384698Y-97232353D01*
X158354268Y-97229500D01*
X157245741Y-97229500D01*
X157215301Y-97232354D01*
X157215300Y-97232354D01*
X157087118Y-97277206D01*
X156977850Y-97357850D01*
X156897206Y-97467118D01*
X156852353Y-97595302D01*
X156849500Y-97625731D01*
X156849500Y-99254258D01*
X155572813Y-99254258D01*
X155642322Y-99150231D01*
X155713973Y-98977251D01*
X155750500Y-98793616D01*
X155750500Y-98086384D01*
X155713973Y-97902749D01*
X155642322Y-97729769D01*
X155642321Y-97729768D01*
X155642318Y-97729762D01*
X155538302Y-97574092D01*
X155538299Y-97574088D01*
X155405911Y-97441700D01*
X155405907Y-97441697D01*
X155250237Y-97337681D01*
X155250228Y-97337676D01*
X155077251Y-97266027D01*
X155077243Y-97266025D01*
X154893620Y-97229500D01*
X154893616Y-97229500D01*
X154706384Y-97229500D01*
X154706379Y-97229500D01*
X154522756Y-97266025D01*
X154522748Y-97266027D01*
X154344141Y-97340009D01*
X154343221Y-97337789D01*
X154296591Y-97349500D01*
X145731005Y-97349500D01*
X145595677Y-97376418D01*
X145595667Y-97376421D01*
X145468195Y-97429221D01*
X145468182Y-97429228D01*
X145353458Y-97505885D01*
X145353454Y-97505888D01*
X145255888Y-97603454D01*
X145255885Y-97603458D01*
X145179228Y-97718182D01*
X145179221Y-97718195D01*
X145126421Y-97845667D01*
X145126418Y-97845677D01*
X145099500Y-97981004D01*
X145099500Y-97981007D01*
X145099500Y-98118993D01*
X145099500Y-98118995D01*
X145099499Y-98118995D01*
X131336443Y-98118995D01*
X131352322Y-98095231D01*
X131423973Y-97922251D01*
X131460500Y-97738616D01*
X131460500Y-97031384D01*
X131423973Y-96847749D01*
X131352322Y-96674769D01*
X131352321Y-96674768D01*
X131352318Y-96674762D01*
X131248302Y-96519092D01*
X131248299Y-96519088D01*
X131115911Y-96386700D01*
X131115907Y-96386697D01*
X130960237Y-96282681D01*
X130960228Y-96282676D01*
X130787251Y-96211027D01*
X130787243Y-96211025D01*
X130603620Y-96174500D01*
X130603616Y-96174500D01*
X130416384Y-96174500D01*
X130416379Y-96174500D01*
X130232756Y-96211025D01*
X130232748Y-96211027D01*
X130059771Y-96282676D01*
X130059762Y-96282681D01*
X129904092Y-96386697D01*
X129904088Y-96386700D01*
X129771700Y-96519088D01*
X129771697Y-96519092D01*
X129667681Y-96674762D01*
X129667676Y-96674771D01*
X129596027Y-96847748D01*
X129596025Y-96847756D01*
X129559500Y-97031379D01*
X129559500Y-97738620D01*
X128460500Y-97738620D01*
X128460499Y-96570736D01*
X128457646Y-96540302D01*
X128412793Y-96412118D01*
X128332150Y-96302850D01*
X128222882Y-96222207D01*
X128222881Y-96222206D01*
X128094695Y-96177353D01*
X128094698Y-96177353D01*
X128064268Y-96174500D01*
X126955741Y-96174500D01*
X126925301Y-96177354D01*
X126925300Y-96177354D01*
X126797118Y-96222206D01*
X126687850Y-96302850D01*
X126607206Y-96412118D01*
X126562353Y-96540302D01*
X126559500Y-96570731D01*
X126559500Y-98199258D01*
X123400500Y-98199258D01*
X123400500Y-95665587D01*
X123420185Y-95598548D01*
X123472989Y-95552793D01*
X123542147Y-95542849D01*
X123605703Y-95571874D01*
X123643477Y-95630652D01*
X123646117Y-95641396D01*
X123654681Y-95684450D01*
X123654684Y-95684462D01*
X123721731Y-95846329D01*
X123721738Y-95846342D01*
X123819079Y-95992022D01*
X123819082Y-95992026D01*
X123942973Y-96115917D01*
X123942977Y-96115920D01*
X124088657Y-96213261D01*
X124088670Y-96213268D01*
X124250537Y-96280315D01*
X124250542Y-96280317D01*
X124422387Y-96314499D01*
X124422391Y-96314500D01*
X124422392Y-96314500D01*
X124597609Y-96314500D01*
X124597610Y-96314499D01*
X124769458Y-96280317D01*
X124909748Y-96222207D01*
X124931329Y-96213268D01*
X124931329Y-96213267D01*
X124931336Y-96213265D01*
X125077023Y-96115920D01*
X125200920Y-95992023D01*
X125298265Y-95846336D01*
X125365317Y-95684458D01*
X125399499Y-95512612D01*
X132620500Y-95512612D01*
X132654681Y-95684450D01*
X132654684Y-95684462D01*
X132721731Y-95846329D01*
X132721738Y-95846342D01*
X132819079Y-95992022D01*
X132819082Y-95992026D01*
X132942973Y-96115917D01*
X132942977Y-96115920D01*
X133088657Y-96213261D01*
X133088670Y-96213268D01*
X133250537Y-96280315D01*
X133250542Y-96280317D01*
X133422387Y-96314499D01*
X133422391Y-96314500D01*
X133422392Y-96314500D01*
X133597609Y-96314500D01*
X133597610Y-96314499D01*
X133769458Y-96280317D01*
X133909748Y-96222207D01*
X133931329Y-96213268D01*
X133931329Y-96213267D01*
X133931336Y-96213265D01*
X134077023Y-96115920D01*
X134200920Y-95992023D01*
X134298265Y-95846336D01*
X134365317Y-95684458D01*
X134399500Y-95512608D01*
X134399500Y-95337392D01*
X134365317Y-95165542D01*
X134365315Y-95165537D01*
X134298268Y-95003670D01*
X134298261Y-95003657D01*
X134200920Y-94857977D01*
X134200917Y-94857973D01*
X134077026Y-94734082D01*
X134077022Y-94734079D01*
X133931342Y-94636738D01*
X133931329Y-94636731D01*
X133769462Y-94569684D01*
X133769450Y-94569681D01*
X133597612Y-94535500D01*
X133597608Y-94535500D01*
X133422392Y-94535500D01*
X133422387Y-94535500D01*
X133250549Y-94569681D01*
X133250537Y-94569684D01*
X133088670Y-94636731D01*
X133088657Y-94636738D01*
X132942977Y-94734079D01*
X132942973Y-94734082D01*
X132819082Y-94857973D01*
X132819079Y-94857977D01*
X132721738Y-95003657D01*
X132721731Y-95003670D01*
X132654684Y-95165537D01*
X132654681Y-95165549D01*
X132620500Y-95337387D01*
X132620500Y-95512612D01*
X125399499Y-95512612D01*
X125399500Y-95512608D01*
X125399500Y-95337392D01*
X125365317Y-95165542D01*
X125365315Y-95165537D01*
X125298268Y-95003670D01*
X125298261Y-95003657D01*
X125200920Y-94857977D01*
X125200917Y-94857973D01*
X125077026Y-94734082D01*
X125077022Y-94734079D01*
X124931342Y-94636738D01*
X124931329Y-94636731D01*
X124769462Y-94569684D01*
X124769450Y-94569681D01*
X124597612Y-94535500D01*
X124597608Y-94535500D01*
X124422392Y-94535500D01*
X124422387Y-94535500D01*
X124250549Y-94569681D01*
X124250537Y-94569684D01*
X124088670Y-94636731D01*
X124088657Y-94636738D01*
X123942977Y-94734079D01*
X123942973Y-94734082D01*
X123819082Y-94857973D01*
X123819079Y-94857977D01*
X123721738Y-95003657D01*
X123721731Y-95003670D01*
X123654684Y-95165537D01*
X123654681Y-95165547D01*
X123646117Y-95208604D01*
X123613732Y-95270514D01*
X123553016Y-95305089D01*
X123483247Y-95301349D01*
X123426575Y-95260482D01*
X123400994Y-95195464D01*
X123400500Y-95184412D01*
X123400500Y-86714989D01*
X125045500Y-86714989D01*
X125045501Y-86715005D01*
X125075518Y-86943009D01*
X125075519Y-86943014D01*
X125075520Y-86943020D01*
X125122642Y-87118882D01*
X125135046Y-87165175D01*
X125135049Y-87165185D01*
X125223057Y-87377654D01*
X125223061Y-87377664D01*
X125338055Y-87576839D01*
X125478064Y-87759303D01*
X125478070Y-87759310D01*
X125640689Y-87921929D01*
X125640696Y-87921935D01*
X125823160Y-88061944D01*
X126022335Y-88176938D01*
X126022336Y-88176938D01*
X126022339Y-88176940D01*
X126234824Y-88264954D01*
X126456980Y-88324480D01*
X126685004Y-88354500D01*
X126685011Y-88354500D01*
X126914989Y-88354500D01*
X126914996Y-88354500D01*
X127143020Y-88324480D01*
X127365176Y-88264954D01*
X127577661Y-88176940D01*
X127776840Y-88061944D01*
X127959305Y-87921934D01*
X128121934Y-87759305D01*
X128261944Y-87576840D01*
X128376940Y-87377661D01*
X128464954Y-87165176D01*
X128479883Y-87109458D01*
X133520300Y-87109458D01*
X133523154Y-87139898D01*
X133523154Y-87139899D01*
X133568006Y-87268081D01*
X133568007Y-87268082D01*
X133648650Y-87377350D01*
X133757918Y-87457993D01*
X133886102Y-87502846D01*
X133886101Y-87502846D01*
X133890071Y-87503218D01*
X133916535Y-87505700D01*
X135025064Y-87505699D01*
X135055498Y-87502846D01*
X135183682Y-87457993D01*
X135292950Y-87377350D01*
X135373593Y-87268082D01*
X135418446Y-87139898D01*
X135421300Y-87109465D01*
X135421300Y-86653582D01*
X136220800Y-86653582D01*
X136251578Y-86847905D01*
X136312381Y-87035035D01*
X136401704Y-87210343D01*
X136517355Y-87369521D01*
X136656478Y-87508644D01*
X136815656Y-87624295D01*
X136990962Y-87713618D01*
X137178083Y-87774418D01*
X137220800Y-87781184D01*
X137220800Y-86739760D01*
X137273947Y-86770445D01*
X137403657Y-86805200D01*
X137537943Y-86805200D01*
X137667653Y-86770445D01*
X137720800Y-86739760D01*
X137720800Y-87781183D01*
X137763516Y-87774418D01*
X137950637Y-87713618D01*
X138125943Y-87624295D01*
X138285121Y-87508644D01*
X138424244Y-87369521D01*
X138539895Y-87210343D01*
X138629218Y-87035035D01*
X138690021Y-86847905D01*
X138720800Y-86653582D01*
X138720800Y-86545200D01*
X137915360Y-86545200D01*
X137946045Y-86492053D01*
X137980800Y-86362343D01*
X137980800Y-86228057D01*
X137946045Y-86098347D01*
X137915360Y-86045200D01*
X138720800Y-86045200D01*
X138720800Y-85936817D01*
X138690021Y-85742494D01*
X138629218Y-85555364D01*
X138617925Y-85533200D01*
X146149551Y-85533200D01*
X146169317Y-85784351D01*
X146228126Y-86029310D01*
X146324533Y-86262059D01*
X146456160Y-86476853D01*
X146456161Y-86476856D01*
X146511604Y-86541771D01*
X146619776Y-86668424D01*
X146739227Y-86770445D01*
X146811343Y-86832038D01*
X146811346Y-86832039D01*
X147026140Y-86963666D01*
X147258889Y-87060073D01*
X147503852Y-87118883D01*
X147755000Y-87138649D01*
X148006148Y-87118883D01*
X148251111Y-87060073D01*
X148483859Y-86963666D01*
X148698659Y-86832036D01*
X148890224Y-86668424D01*
X149053836Y-86476859D01*
X149185466Y-86262059D01*
X149281873Y-86029311D01*
X149340683Y-85784348D01*
X149360449Y-85533200D01*
X149356451Y-85482401D01*
X150320547Y-85482401D01*
X150339936Y-85753490D01*
X150339937Y-85753497D01*
X150397705Y-86019054D01*
X150492685Y-86273706D01*
X150492687Y-86273710D01*
X150622932Y-86512235D01*
X150622937Y-86512243D01*
X150716721Y-86637523D01*
X150716722Y-86637524D01*
X151509553Y-85844693D01*
X151516449Y-85861342D01*
X151603999Y-85992370D01*
X151715430Y-86103801D01*
X151846458Y-86191351D01*
X151863105Y-86198246D01*
X151070274Y-86991076D01*
X151195563Y-87084866D01*
X151195564Y-87084867D01*
X151434089Y-87215112D01*
X151434093Y-87215114D01*
X151688745Y-87310094D01*
X151954302Y-87367862D01*
X151954309Y-87367863D01*
X152225399Y-87387253D01*
X152225401Y-87387253D01*
X152496490Y-87367863D01*
X152496497Y-87367862D01*
X152762054Y-87310094D01*
X153016706Y-87215114D01*
X153016710Y-87215112D01*
X153255244Y-87084862D01*
X153380523Y-86991077D01*
X153380524Y-86991076D01*
X153104437Y-86714989D01*
X156545500Y-86714989D01*
X156545501Y-86715005D01*
X156575518Y-86943009D01*
X156575519Y-86943014D01*
X156575520Y-86943020D01*
X156622642Y-87118882D01*
X156635046Y-87165175D01*
X156635049Y-87165185D01*
X156723057Y-87377654D01*
X156723061Y-87377664D01*
X156838055Y-87576839D01*
X156978064Y-87759303D01*
X156978070Y-87759310D01*
X157140689Y-87921929D01*
X157140696Y-87921935D01*
X157323160Y-88061944D01*
X157522335Y-88176938D01*
X157522336Y-88176938D01*
X157522339Y-88176940D01*
X157734824Y-88264954D01*
X157956980Y-88324480D01*
X158185004Y-88354500D01*
X158185011Y-88354500D01*
X158414989Y-88354500D01*
X158414996Y-88354500D01*
X158643020Y-88324480D01*
X158865176Y-88264954D01*
X159077661Y-88176940D01*
X159276840Y-88061944D01*
X159459305Y-87921934D01*
X159621934Y-87759305D01*
X159761944Y-87576840D01*
X159876940Y-87377661D01*
X159964954Y-87165176D01*
X160024480Y-86943020D01*
X160054500Y-86714996D01*
X160054500Y-86485004D01*
X160024480Y-86256980D01*
X159964954Y-86034824D01*
X159962670Y-86029311D01*
X159903695Y-85886932D01*
X159876940Y-85822339D01*
X159830841Y-85742494D01*
X159761944Y-85623160D01*
X159621935Y-85440696D01*
X159621929Y-85440689D01*
X159459310Y-85278070D01*
X159459303Y-85278064D01*
X159276839Y-85138055D01*
X159077664Y-85023061D01*
X159077654Y-85023057D01*
X158865185Y-84935049D01*
X158865178Y-84935047D01*
X158865176Y-84935046D01*
X158643020Y-84875520D01*
X158643014Y-84875519D01*
X158643009Y-84875518D01*
X158415005Y-84845501D01*
X158415002Y-84845500D01*
X158414996Y-84845500D01*
X158185004Y-84845500D01*
X158184998Y-84845500D01*
X158184994Y-84845501D01*
X157956990Y-84875518D01*
X157956983Y-84875519D01*
X157956980Y-84875520D01*
X157734824Y-84935046D01*
X157734814Y-84935049D01*
X157522345Y-85023057D01*
X157522335Y-85023061D01*
X157323160Y-85138055D01*
X157140696Y-85278064D01*
X157140689Y-85278070D01*
X156978070Y-85440689D01*
X156978064Y-85440696D01*
X156838055Y-85623160D01*
X156723061Y-85822335D01*
X156723057Y-85822345D01*
X156635049Y-86034814D01*
X156635046Y-86034824D01*
X156578823Y-86244655D01*
X156575521Y-86256977D01*
X156575518Y-86256990D01*
X156545501Y-86484994D01*
X156545500Y-86485010D01*
X156545500Y-86714989D01*
X153104437Y-86714989D01*
X152587694Y-86198246D01*
X152604342Y-86191351D01*
X152735370Y-86103801D01*
X152846801Y-85992370D01*
X152934351Y-85861342D01*
X152941246Y-85844694D01*
X153734076Y-86637524D01*
X153734077Y-86637523D01*
X153827862Y-86512244D01*
X153958112Y-86273710D01*
X153958114Y-86273706D01*
X154053094Y-86019054D01*
X154110862Y-85753497D01*
X154110863Y-85753490D01*
X154130253Y-85482401D01*
X154130253Y-85482398D01*
X154110863Y-85211309D01*
X154110862Y-85211302D01*
X154053094Y-84945745D01*
X153958114Y-84691093D01*
X153958112Y-84691089D01*
X153827867Y-84452564D01*
X153827866Y-84452563D01*
X153734076Y-84327274D01*
X152941246Y-85120104D01*
X152934351Y-85103458D01*
X152846801Y-84972430D01*
X152735370Y-84860999D01*
X152604342Y-84773449D01*
X152587694Y-84766553D01*
X153380524Y-83973722D01*
X153380523Y-83973721D01*
X153255243Y-83879937D01*
X153255235Y-83879932D01*
X153016710Y-83749687D01*
X153016706Y-83749685D01*
X152762054Y-83654705D01*
X152496497Y-83596937D01*
X152496490Y-83596936D01*
X152225401Y-83577547D01*
X152225399Y-83577547D01*
X151954309Y-83596936D01*
X151954302Y-83596937D01*
X151688745Y-83654705D01*
X151434093Y-83749685D01*
X151434089Y-83749687D01*
X151195564Y-83879932D01*
X151195556Y-83879937D01*
X151070275Y-83973721D01*
X151070274Y-83973722D01*
X151863105Y-84766553D01*
X151846458Y-84773449D01*
X151715430Y-84860999D01*
X151603999Y-84972430D01*
X151516449Y-85103458D01*
X151509553Y-85120105D01*
X150716722Y-84327274D01*
X150716721Y-84327275D01*
X150622937Y-84452556D01*
X150622932Y-84452564D01*
X150492687Y-84691089D01*
X150492685Y-84691093D01*
X150397705Y-84945745D01*
X150339937Y-85211302D01*
X150339936Y-85211309D01*
X150320547Y-85482398D01*
X150320547Y-85482401D01*
X149356451Y-85482401D01*
X149340683Y-85282052D01*
X149281873Y-85037089D01*
X149276061Y-85023057D01*
X149185466Y-84804340D01*
X149053839Y-84589546D01*
X149053838Y-84589543D01*
X149016875Y-84546266D01*
X148890224Y-84397976D01*
X148714146Y-84247591D01*
X148698656Y-84234361D01*
X148698653Y-84234360D01*
X148483859Y-84102733D01*
X148251110Y-84006326D01*
X148006151Y-83947517D01*
X147755000Y-83927751D01*
X147503848Y-83947517D01*
X147258889Y-84006326D01*
X147026140Y-84102733D01*
X146811346Y-84234360D01*
X146811343Y-84234361D01*
X146619776Y-84397976D01*
X146456161Y-84589543D01*
X146456160Y-84589546D01*
X146324533Y-84804340D01*
X146228126Y-85037089D01*
X146169317Y-85282048D01*
X146149551Y-85533200D01*
X138617925Y-85533200D01*
X138539895Y-85380056D01*
X138424244Y-85220878D01*
X138285121Y-85081755D01*
X138125943Y-84966104D01*
X137950635Y-84876781D01*
X137763505Y-84815978D01*
X137720800Y-84809214D01*
X137720800Y-85850639D01*
X137667653Y-85819955D01*
X137537943Y-85785200D01*
X137403657Y-85785200D01*
X137273947Y-85819955D01*
X137220800Y-85850639D01*
X137220800Y-84809214D01*
X137220799Y-84809214D01*
X137178094Y-84815978D01*
X136990964Y-84876781D01*
X136815656Y-84966104D01*
X136656478Y-85081755D01*
X136517355Y-85220878D01*
X136401704Y-85380056D01*
X136312381Y-85555364D01*
X136251578Y-85742494D01*
X136220800Y-85936817D01*
X136220800Y-86045200D01*
X137026240Y-86045200D01*
X136995555Y-86098347D01*
X136960800Y-86228057D01*
X136960800Y-86362343D01*
X136995555Y-86492053D01*
X137026240Y-86545200D01*
X136220800Y-86545200D01*
X136220800Y-86653582D01*
X135421300Y-86653582D01*
X135421299Y-85480936D01*
X135418446Y-85450502D01*
X135373593Y-85322318D01*
X135292950Y-85213050D01*
X135183682Y-85132407D01*
X135183681Y-85132406D01*
X135055495Y-85087553D01*
X135055498Y-85087553D01*
X135025068Y-85084700D01*
X133916541Y-85084700D01*
X133886101Y-85087554D01*
X133886100Y-85087554D01*
X133757918Y-85132406D01*
X133648650Y-85213050D01*
X133568006Y-85322318D01*
X133523153Y-85450502D01*
X133520300Y-85480931D01*
X133520300Y-87109458D01*
X128479883Y-87109458D01*
X128524480Y-86943020D01*
X128554500Y-86714996D01*
X128554500Y-86485004D01*
X128524480Y-86256980D01*
X128464954Y-86034824D01*
X128462670Y-86029311D01*
X128403695Y-85886932D01*
X128376940Y-85822339D01*
X128330841Y-85742494D01*
X128261944Y-85623160D01*
X128121935Y-85440696D01*
X128121929Y-85440689D01*
X127959310Y-85278070D01*
X127959303Y-85278064D01*
X127776839Y-85138055D01*
X127577664Y-85023061D01*
X127577654Y-85023057D01*
X127365185Y-84935049D01*
X127365178Y-84935047D01*
X127365176Y-84935046D01*
X127143020Y-84875520D01*
X127143014Y-84875519D01*
X127143009Y-84875518D01*
X126915005Y-84845501D01*
X126915002Y-84845500D01*
X126914996Y-84845500D01*
X126685004Y-84845500D01*
X126684998Y-84845500D01*
X126684994Y-84845501D01*
X126456990Y-84875518D01*
X126456983Y-84875519D01*
X126456980Y-84875520D01*
X126234824Y-84935046D01*
X126234814Y-84935049D01*
X126022345Y-85023057D01*
X126022335Y-85023061D01*
X125823160Y-85138055D01*
X125640696Y-85278064D01*
X125640689Y-85278070D01*
X125478070Y-85440689D01*
X125478064Y-85440696D01*
X125338055Y-85623160D01*
X125223061Y-85822335D01*
X125223057Y-85822345D01*
X125135049Y-86034814D01*
X125135046Y-86034824D01*
X125078823Y-86244655D01*
X125075521Y-86256977D01*
X125075518Y-86256990D01*
X125045501Y-86484994D01*
X125045500Y-86485010D01*
X125045500Y-86714989D01*
X123400500Y-86714989D01*
X123400500Y-86603246D01*
X123400670Y-86596756D01*
X123418211Y-86262059D01*
X123418783Y-86251139D01*
X123420140Y-86238233D01*
X123441432Y-86103801D01*
X123473771Y-85899617D01*
X123476464Y-85886942D01*
X123565204Y-85555761D01*
X123569208Y-85543439D01*
X123692079Y-85223348D01*
X123697342Y-85211527D01*
X123853009Y-84906014D01*
X123859475Y-84894816D01*
X124046212Y-84607266D01*
X124053827Y-84596785D01*
X124194707Y-84422812D01*
X130581300Y-84422812D01*
X130615481Y-84594650D01*
X130615484Y-84594662D01*
X130682531Y-84756529D01*
X130682538Y-84756542D01*
X130779879Y-84902222D01*
X130779882Y-84902226D01*
X130903773Y-85026117D01*
X130903777Y-85026120D01*
X131049457Y-85123461D01*
X131049470Y-85123468D01*
X131211337Y-85190515D01*
X131211342Y-85190517D01*
X131376486Y-85223366D01*
X131383187Y-85224699D01*
X131383191Y-85224700D01*
X131383192Y-85224700D01*
X131558409Y-85224700D01*
X131558410Y-85224699D01*
X131730258Y-85190517D01*
X131870548Y-85132407D01*
X131892129Y-85123468D01*
X131892129Y-85123467D01*
X131892136Y-85123465D01*
X132037823Y-85026120D01*
X132161720Y-84902223D01*
X132259065Y-84756536D01*
X132326117Y-84594658D01*
X132360299Y-84422812D01*
X139581300Y-84422812D01*
X139615481Y-84594650D01*
X139615484Y-84594662D01*
X139682531Y-84756529D01*
X139682538Y-84756542D01*
X139779879Y-84902222D01*
X139779882Y-84902226D01*
X139903773Y-85026117D01*
X139903777Y-85026120D01*
X140049457Y-85123461D01*
X140049470Y-85123468D01*
X140211337Y-85190515D01*
X140211342Y-85190517D01*
X140376486Y-85223366D01*
X140383187Y-85224699D01*
X140383191Y-85224700D01*
X140383192Y-85224700D01*
X140558409Y-85224700D01*
X140558410Y-85224699D01*
X140730258Y-85190517D01*
X140870548Y-85132407D01*
X140892129Y-85123468D01*
X140892129Y-85123467D01*
X140892136Y-85123465D01*
X141037823Y-85026120D01*
X141161720Y-84902223D01*
X141259065Y-84756536D01*
X141326117Y-84594658D01*
X141360300Y-84422808D01*
X141360300Y-84247592D01*
X141326117Y-84075742D01*
X141326115Y-84075737D01*
X141259068Y-83913870D01*
X141259061Y-83913857D01*
X141161720Y-83768177D01*
X141161717Y-83768173D01*
X141037826Y-83644282D01*
X141037822Y-83644279D01*
X140892142Y-83546938D01*
X140892129Y-83546931D01*
X140730262Y-83479884D01*
X140730250Y-83479881D01*
X140560507Y-83446117D01*
X140498596Y-83413732D01*
X140469934Y-83363399D01*
X140450615Y-83405703D01*
X140391837Y-83443477D01*
X140381093Y-83446117D01*
X140211349Y-83479881D01*
X140211337Y-83479884D01*
X140049470Y-83546931D01*
X140049457Y-83546938D01*
X139903777Y-83644279D01*
X139903773Y-83644282D01*
X139779882Y-83768173D01*
X139779879Y-83768177D01*
X139682538Y-83913857D01*
X139682531Y-83913870D01*
X139615484Y-84075737D01*
X139615481Y-84075749D01*
X139581300Y-84247587D01*
X139581300Y-84422812D01*
X132360299Y-84422812D01*
X132360300Y-84422808D01*
X132360300Y-84247592D01*
X132326117Y-84075742D01*
X132326115Y-84075737D01*
X132259068Y-83913870D01*
X132259061Y-83913857D01*
X132161720Y-83768177D01*
X132161717Y-83768173D01*
X132037826Y-83644282D01*
X132037822Y-83644279D01*
X131892142Y-83546938D01*
X131892129Y-83546931D01*
X131730262Y-83479884D01*
X131730250Y-83479881D01*
X131560507Y-83446117D01*
X131498596Y-83413732D01*
X131469934Y-83363399D01*
X131450615Y-83405703D01*
X131391837Y-83443477D01*
X131381093Y-83446117D01*
X131211349Y-83479881D01*
X131211337Y-83479884D01*
X131049470Y-83546931D01*
X131049457Y-83546938D01*
X130903777Y-83644279D01*
X130903773Y-83644282D01*
X130779882Y-83768173D01*
X130779879Y-83768177D01*
X130682538Y-83913857D01*
X130682531Y-83913870D01*
X130615484Y-84075737D01*
X130615481Y-84075749D01*
X130581300Y-84247587D01*
X130581300Y-84422812D01*
X124194707Y-84422812D01*
X124269600Y-84330327D01*
X124278267Y-84320702D01*
X124520702Y-84078267D01*
X124530327Y-84069600D01*
X124796785Y-83853827D01*
X124807266Y-83846212D01*
X125094816Y-83659475D01*
X125106014Y-83653009D01*
X125411527Y-83497342D01*
X125423348Y-83492079D01*
X125743439Y-83369208D01*
X125755761Y-83365204D01*
X126086942Y-83276464D01*
X126099617Y-83273771D01*
X126438235Y-83220139D01*
X126451139Y-83218783D01*
X126796756Y-83200669D01*
X126803246Y-83200500D01*
X126826929Y-83200500D01*
X131356902Y-83200500D01*
X131423941Y-83220185D01*
G37*
G04 #@! TD.AperFunction*
G04 #@! TA.AperFunction,Conductor*
G36*
X140393039Y-117919685D02*
G01*
X140438794Y-117972489D01*
X140450000Y-118024000D01*
X140450000Y-132700694D01*
X140430315Y-132767733D01*
X140413681Y-132788375D01*
X140409082Y-132792973D01*
X140409079Y-132792977D01*
X140311738Y-132938657D01*
X140311731Y-132938670D01*
X140244684Y-133100537D01*
X140244681Y-133100549D01*
X140210500Y-133272387D01*
X140210500Y-133447612D01*
X140244681Y-133619450D01*
X140244684Y-133619462D01*
X140311731Y-133781329D01*
X140311738Y-133781342D01*
X140409079Y-133927022D01*
X140409080Y-133927024D01*
X140413676Y-133931619D01*
X140447165Y-133992940D01*
X140450000Y-134019305D01*
X140450000Y-134226000D01*
X140430315Y-134293039D01*
X140377511Y-134338794D01*
X140326000Y-134350000D01*
X134601362Y-134350000D01*
X134534323Y-134330315D01*
X134513681Y-134313681D01*
X131958382Y-131758382D01*
X133850000Y-131758382D01*
X133880778Y-131952705D01*
X133941581Y-132139835D01*
X134030904Y-132315143D01*
X134146555Y-132474321D01*
X134285678Y-132613444D01*
X134444856Y-132729095D01*
X134620162Y-132818418D01*
X134807283Y-132879218D01*
X134850000Y-132885984D01*
X134850000Y-131844560D01*
X134903147Y-131875245D01*
X135032857Y-131910000D01*
X135167143Y-131910000D01*
X135296853Y-131875245D01*
X135350000Y-131844560D01*
X135350000Y-132885983D01*
X135392716Y-132879218D01*
X135579837Y-132818418D01*
X135755143Y-132729095D01*
X135914321Y-132613444D01*
X136053444Y-132474321D01*
X136169095Y-132315143D01*
X136220498Y-132214258D01*
X137149500Y-132214258D01*
X137152354Y-132244698D01*
X137152354Y-132244699D01*
X137197206Y-132372881D01*
X137197207Y-132372882D01*
X137277850Y-132482150D01*
X137387118Y-132562793D01*
X137515302Y-132607646D01*
X137515301Y-132607646D01*
X137519271Y-132608018D01*
X137545735Y-132610500D01*
X138654264Y-132610499D01*
X138684698Y-132607646D01*
X138812882Y-132562793D01*
X138922150Y-132482150D01*
X139002793Y-132372882D01*
X139047646Y-132244698D01*
X139050500Y-132214265D01*
X139050499Y-130585736D01*
X139047646Y-130555302D01*
X139002793Y-130427118D01*
X138922150Y-130317850D01*
X138812882Y-130237207D01*
X138812881Y-130237206D01*
X138684695Y-130192353D01*
X138684698Y-130192353D01*
X138654268Y-130189500D01*
X137545741Y-130189500D01*
X137515301Y-130192354D01*
X137515300Y-130192354D01*
X137387118Y-130237206D01*
X137277850Y-130317850D01*
X137197206Y-130427118D01*
X137152353Y-130555302D01*
X137149500Y-130585731D01*
X137149500Y-132214258D01*
X136220498Y-132214258D01*
X136258418Y-132139835D01*
X136319221Y-131952705D01*
X136350000Y-131758382D01*
X136350000Y-131650000D01*
X135544560Y-131650000D01*
X135575245Y-131596853D01*
X135610000Y-131467143D01*
X135610000Y-131332857D01*
X135575245Y-131203147D01*
X135544560Y-131150000D01*
X136350000Y-131150000D01*
X136350000Y-131041617D01*
X136319221Y-130847294D01*
X136258418Y-130660164D01*
X136169095Y-130484856D01*
X136053444Y-130325678D01*
X135914321Y-130186555D01*
X135755143Y-130070904D01*
X135579835Y-129981581D01*
X135392705Y-129920778D01*
X135350000Y-129914014D01*
X135350000Y-130955439D01*
X135296853Y-130924755D01*
X135167143Y-130890000D01*
X135032857Y-130890000D01*
X134903147Y-130924755D01*
X134850000Y-130955439D01*
X134850000Y-129914014D01*
X134849999Y-129914014D01*
X134807294Y-129920778D01*
X134620164Y-129981581D01*
X134444856Y-130070904D01*
X134285678Y-130186555D01*
X134146555Y-130325678D01*
X134030904Y-130484856D01*
X133941581Y-130660164D01*
X133880778Y-130847294D01*
X133850000Y-131041617D01*
X133850000Y-131150000D01*
X134655440Y-131150000D01*
X134624755Y-131203147D01*
X134590000Y-131332857D01*
X134590000Y-131467143D01*
X134624755Y-131596853D01*
X134655440Y-131650000D01*
X133850000Y-131650000D01*
X133850000Y-131758382D01*
X131958382Y-131758382D01*
X126762612Y-126562612D01*
X132510500Y-126562612D01*
X132544681Y-126734450D01*
X132544684Y-126734462D01*
X132611731Y-126896329D01*
X132611738Y-126896342D01*
X132709079Y-127042022D01*
X132709082Y-127042026D01*
X132832973Y-127165917D01*
X132832977Y-127165920D01*
X132978657Y-127263261D01*
X132978670Y-127263268D01*
X133140537Y-127330315D01*
X133140542Y-127330317D01*
X133312387Y-127364499D01*
X133312391Y-127364500D01*
X133312392Y-127364500D01*
X133487609Y-127364500D01*
X133487610Y-127364499D01*
X133659458Y-127330317D01*
X133821336Y-127263265D01*
X133967023Y-127165920D01*
X134090920Y-127042023D01*
X134188265Y-126896336D01*
X134255317Y-126734458D01*
X134289500Y-126562608D01*
X134289500Y-126387392D01*
X134255317Y-126215542D01*
X134255315Y-126215537D01*
X134188268Y-126053670D01*
X134188261Y-126053657D01*
X134090920Y-125907977D01*
X134090917Y-125907973D01*
X133967026Y-125784082D01*
X133967022Y-125784079D01*
X133821342Y-125686738D01*
X133821329Y-125686731D01*
X133659462Y-125619684D01*
X133659450Y-125619681D01*
X133487612Y-125585500D01*
X133487608Y-125585500D01*
X133312392Y-125585500D01*
X133312387Y-125585500D01*
X133140549Y-125619681D01*
X133140537Y-125619684D01*
X132978670Y-125686731D01*
X132978657Y-125686738D01*
X132832977Y-125784079D01*
X132832973Y-125784082D01*
X132709082Y-125907973D01*
X132709079Y-125907977D01*
X132611738Y-126053657D01*
X132611731Y-126053670D01*
X132544684Y-126215537D01*
X132544681Y-126215549D01*
X132510500Y-126387387D01*
X132510500Y-126562612D01*
X126762612Y-126562612D01*
X125073382Y-124873382D01*
X126150000Y-124873382D01*
X126180778Y-125067705D01*
X126241581Y-125254835D01*
X126330904Y-125430143D01*
X126446555Y-125589321D01*
X126585678Y-125728444D01*
X126744856Y-125844095D01*
X126920162Y-125933418D01*
X127107283Y-125994218D01*
X127150000Y-126000984D01*
X127150000Y-124959560D01*
X127203147Y-124990245D01*
X127332857Y-125025000D01*
X127467143Y-125025000D01*
X127596853Y-124990245D01*
X127650000Y-124959560D01*
X127650000Y-126000983D01*
X127692716Y-125994218D01*
X127879837Y-125933418D01*
X128055143Y-125844095D01*
X128214321Y-125728444D01*
X128353444Y-125589321D01*
X128469095Y-125430143D01*
X128520498Y-125329258D01*
X129449500Y-125329258D01*
X129452354Y-125359698D01*
X129452354Y-125359699D01*
X129497206Y-125487881D01*
X129497207Y-125487882D01*
X129577850Y-125597150D01*
X129687118Y-125677793D01*
X129815302Y-125722646D01*
X129815301Y-125722646D01*
X129819271Y-125723018D01*
X129845735Y-125725500D01*
X130954264Y-125725499D01*
X130984698Y-125722646D01*
X131112882Y-125677793D01*
X131222150Y-125597150D01*
X131302793Y-125487882D01*
X131347646Y-125359698D01*
X131350500Y-125329265D01*
X131350499Y-123700736D01*
X131347646Y-123670302D01*
X131302793Y-123542118D01*
X131222150Y-123432850D01*
X131112882Y-123352207D01*
X131112881Y-123352206D01*
X130984695Y-123307353D01*
X130984698Y-123307353D01*
X130954268Y-123304500D01*
X129845741Y-123304500D01*
X129815301Y-123307354D01*
X129815300Y-123307354D01*
X129687118Y-123352206D01*
X129577850Y-123432850D01*
X129497206Y-123542118D01*
X129452353Y-123670302D01*
X129449500Y-123700731D01*
X129449500Y-125329258D01*
X128520498Y-125329258D01*
X128558418Y-125254835D01*
X128619221Y-125067705D01*
X128650000Y-124873382D01*
X128650000Y-124765000D01*
X127844560Y-124765000D01*
X127875245Y-124711853D01*
X127910000Y-124582143D01*
X127910000Y-124447857D01*
X127875245Y-124318147D01*
X127844560Y-124265000D01*
X128650000Y-124265000D01*
X128650000Y-124156617D01*
X128619221Y-123962294D01*
X128558418Y-123775164D01*
X128469095Y-123599856D01*
X128353444Y-123440678D01*
X128214321Y-123301555D01*
X128055143Y-123185904D01*
X127879835Y-123096581D01*
X127692705Y-123035778D01*
X127650000Y-123029014D01*
X127650000Y-124070439D01*
X127596853Y-124039755D01*
X127467143Y-124005000D01*
X127332857Y-124005000D01*
X127203147Y-124039755D01*
X127150000Y-124070439D01*
X127150000Y-123029014D01*
X127149999Y-123029014D01*
X127107294Y-123035778D01*
X126920164Y-123096581D01*
X126744856Y-123185904D01*
X126585678Y-123301555D01*
X126446555Y-123440678D01*
X126330904Y-123599856D01*
X126241581Y-123775164D01*
X126180778Y-123962294D01*
X126150000Y-124156617D01*
X126150000Y-124265000D01*
X126955440Y-124265000D01*
X126924755Y-124318147D01*
X126890000Y-124447857D01*
X126890000Y-124582143D01*
X126924755Y-124711853D01*
X126955440Y-124765000D01*
X126150000Y-124765000D01*
X126150000Y-124873382D01*
X125073382Y-124873382D01*
X124686319Y-124486319D01*
X124652834Y-124424996D01*
X124650000Y-124398638D01*
X124650000Y-118024000D01*
X124669685Y-117956961D01*
X124722489Y-117911206D01*
X124774000Y-117900000D01*
X140326000Y-117900000D01*
X140393039Y-117919685D01*
G37*
G04 #@! TD.AperFunction*
M02*
