G04 #@! TF.GenerationSoftware,KiCad,Pcbnew,7.0.5*
G04 #@! TF.CreationDate,2023-11-04T12:06:22-05:00*
G04 #@! TF.ProjectId,ContactorDriver,436f6e74-6163-4746-9f72-447269766572,rev?*
G04 #@! TF.SameCoordinates,Original*
G04 #@! TF.FileFunction,Copper,L1,Top*
G04 #@! TF.FilePolarity,Positive*
%FSLAX46Y46*%
G04 Gerber Fmt 4.6, Leading zero omitted, Abs format (unit mm)*
G04 Created by KiCad (PCBNEW 7.0.5) date 2023-11-04 12:06:22*
%MOMM*%
%LPD*%
G01*
G04 APERTURE LIST*
G04 Aperture macros list*
%AMRoundRect*
0 Rectangle with rounded corners*
0 $1 Rounding radius*
0 $2 $3 $4 $5 $6 $7 $8 $9 X,Y pos of 4 corners*
0 Add a 4 corners polygon primitive as box body*
4,1,4,$2,$3,$4,$5,$6,$7,$8,$9,$2,$3,0*
0 Add four circle primitives for the rounded corners*
1,1,$1+$1,$2,$3*
1,1,$1+$1,$4,$5*
1,1,$1+$1,$6,$7*
1,1,$1+$1,$8,$9*
0 Add four rect primitives between the rounded corners*
20,1,$1+$1,$2,$3,$4,$5,0*
20,1,$1+$1,$4,$5,$6,$7,0*
20,1,$1+$1,$6,$7,$8,$9,0*
20,1,$1+$1,$8,$9,$2,$3,0*%
G04 Aperture macros list end*
G04 #@! TA.AperFunction,SMDPad,CuDef*
%ADD10RoundRect,0.250000X0.450000X-0.325000X0.450000X0.325000X-0.450000X0.325000X-0.450000X-0.325000X0*%
G04 #@! TD*
G04 #@! TA.AperFunction,ComponentPad*
%ADD11RoundRect,0.250001X-0.759999X0.499999X-0.759999X-0.499999X0.759999X-0.499999X0.759999X0.499999X0*%
G04 #@! TD*
G04 #@! TA.AperFunction,ComponentPad*
%ADD12O,2.020000X1.500000*%
G04 #@! TD*
G04 #@! TA.AperFunction,SMDPad,CuDef*
%ADD13RoundRect,0.150000X-0.800000X-0.150000X0.800000X-0.150000X0.800000X0.150000X-0.800000X0.150000X0*%
G04 #@! TD*
G04 #@! TA.AperFunction,SMDPad,CuDef*
%ADD14RoundRect,0.250000X-0.450000X0.350000X-0.450000X-0.350000X0.450000X-0.350000X0.450000X0.350000X0*%
G04 #@! TD*
G04 #@! TA.AperFunction,SMDPad,CuDef*
%ADD15RoundRect,0.250000X0.450000X-0.262500X0.450000X0.262500X-0.450000X0.262500X-0.450000X-0.262500X0*%
G04 #@! TD*
G04 #@! TA.AperFunction,SMDPad,CuDef*
%ADD16RoundRect,0.250000X0.850000X0.350000X-0.850000X0.350000X-0.850000X-0.350000X0.850000X-0.350000X0*%
G04 #@! TD*
G04 #@! TA.AperFunction,SMDPad,CuDef*
%ADD17RoundRect,0.250000X1.275000X1.125000X-1.275000X1.125000X-1.275000X-1.125000X1.275000X-1.125000X0*%
G04 #@! TD*
G04 #@! TA.AperFunction,SMDPad,CuDef*
%ADD18RoundRect,0.249997X2.950003X2.650003X-2.950003X2.650003X-2.950003X-2.650003X2.950003X-2.650003X0*%
G04 #@! TD*
G04 #@! TA.AperFunction,ComponentPad*
%ADD19C,4.500880*%
G04 #@! TD*
G04 #@! TA.AperFunction,SMDPad,CuDef*
%ADD20RoundRect,0.250000X-0.475000X0.250000X-0.475000X-0.250000X0.475000X-0.250000X0.475000X0.250000X0*%
G04 #@! TD*
G04 #@! TA.AperFunction,SMDPad,CuDef*
%ADD21RoundRect,0.250000X-0.250000X-0.475000X0.250000X-0.475000X0.250000X0.475000X-0.250000X0.475000X0*%
G04 #@! TD*
G04 #@! TA.AperFunction,ComponentPad*
%ADD22C,2.800000*%
G04 #@! TD*
G04 #@! TA.AperFunction,ComponentPad*
%ADD23O,1.800000X1.200000*%
G04 #@! TD*
G04 #@! TA.AperFunction,SMDPad,CuDef*
%ADD24RoundRect,0.218750X-0.218750X-0.381250X0.218750X-0.381250X0.218750X0.381250X-0.218750X0.381250X0*%
G04 #@! TD*
G04 #@! TA.AperFunction,SMDPad,CuDef*
%ADD25R,1.193800X1.041400*%
G04 #@! TD*
G04 #@! TA.AperFunction,ComponentPad*
%ADD26C,1.700000*%
G04 #@! TD*
G04 #@! TA.AperFunction,SMDPad,CuDef*
%ADD27RoundRect,0.218750X0.218750X0.381250X-0.218750X0.381250X-0.218750X-0.381250X0.218750X-0.381250X0*%
G04 #@! TD*
G04 #@! TA.AperFunction,SMDPad,CuDef*
%ADD28R,0.650000X0.400000*%
G04 #@! TD*
G04 #@! TA.AperFunction,SMDPad,CuDef*
%ADD29RoundRect,0.250000X0.475000X-0.250000X0.475000X0.250000X-0.475000X0.250000X-0.475000X-0.250000X0*%
G04 #@! TD*
G04 #@! TA.AperFunction,SMDPad,CuDef*
%ADD30RoundRect,0.112500X-0.112500X0.187500X-0.112500X-0.187500X0.112500X-0.187500X0.112500X0.187500X0*%
G04 #@! TD*
G04 #@! TA.AperFunction,ComponentPad*
%ADD31RoundRect,0.250001X0.759999X-0.499999X0.759999X0.499999X-0.759999X0.499999X-0.759999X-0.499999X0*%
G04 #@! TD*
G04 #@! TA.AperFunction,ViaPad*
%ADD32C,0.800000*%
G04 #@! TD*
G04 #@! TA.AperFunction,ViaPad*
%ADD33C,1.600000*%
G04 #@! TD*
G04 #@! TA.AperFunction,Conductor*
%ADD34C,0.500000*%
G04 #@! TD*
G04 #@! TA.AperFunction,Conductor*
%ADD35C,1.000000*%
G04 #@! TD*
G04 #@! TA.AperFunction,Conductor*
%ADD36C,0.250000*%
G04 #@! TD*
G04 APERTURE END LIST*
D10*
X182283650Y-108525000D03*
X182283650Y-106475000D03*
X176500000Y-84937500D03*
X176500000Y-82887500D03*
D11*
X220680000Y-83000000D03*
D12*
X220680000Y-86000000D03*
D13*
X180500000Y-77595000D03*
X180500000Y-78865000D03*
X180500000Y-80135000D03*
X180500000Y-81405000D03*
X187500000Y-81405000D03*
X187500000Y-80135000D03*
X187500000Y-78865000D03*
X187500000Y-77595000D03*
D14*
X215590000Y-86000000D03*
X215590000Y-88000000D03*
D15*
X188500000Y-141412500D03*
X188500000Y-139587500D03*
X176500000Y-79325000D03*
X176500000Y-77500000D03*
D16*
X212500000Y-107000000D03*
D17*
X207875000Y-106245000D03*
X207875000Y-103195000D03*
D18*
X206200000Y-104720000D03*
D17*
X204525000Y-106245000D03*
X204525000Y-103195000D03*
D16*
X212500000Y-102440000D03*
D19*
X226000000Y-158000000D03*
D11*
X220680000Y-103000000D03*
D12*
X220680000Y-106000000D03*
D19*
X177000000Y-120500000D03*
D20*
X196247300Y-101550000D03*
X196247300Y-103450000D03*
D21*
X196550000Y-76510000D03*
X198450000Y-76510000D03*
D22*
X192800000Y-76500000D03*
D16*
X212540000Y-89280000D03*
D17*
X207915000Y-88525000D03*
X207915000Y-85475000D03*
D18*
X206240000Y-87000000D03*
D17*
X204565000Y-88525000D03*
X204565000Y-85475000D03*
D16*
X212540000Y-84720000D03*
D23*
X193027300Y-108860000D03*
X193027300Y-106320000D03*
X193027300Y-103780000D03*
X193027300Y-101240000D03*
D24*
X203437500Y-78000000D03*
X205562500Y-78000000D03*
D25*
X173000000Y-79361700D03*
X173000000Y-82638300D03*
D26*
X167000000Y-79500000D03*
X167000000Y-82500000D03*
X167000000Y-85500000D03*
X167000000Y-88500000D03*
D20*
X196247300Y-106600000D03*
X196247300Y-108500000D03*
D27*
X205530000Y-81000000D03*
X203405000Y-81000000D03*
D28*
X198417500Y-80150000D03*
X198417500Y-79500000D03*
X198417500Y-78850000D03*
X196517500Y-78850000D03*
X196517500Y-79500000D03*
X196517500Y-80150000D03*
D22*
X215000000Y-99000000D03*
D29*
X200000000Y-105950000D03*
X200000000Y-104050000D03*
D15*
X188500000Y-146912500D03*
X188500000Y-145087500D03*
D20*
X201000000Y-78560000D03*
X201000000Y-80460000D03*
D22*
X215000000Y-110500000D03*
D30*
X216000000Y-103450000D03*
X216000000Y-105550000D03*
D15*
X182283650Y-103412500D03*
X182283650Y-101587500D03*
D31*
X173970000Y-144500000D03*
D12*
X173970000Y-141500000D03*
D32*
X207167500Y-78000000D03*
X186000000Y-76750000D03*
X186000000Y-80750000D03*
X186000000Y-78250000D03*
X189100000Y-82200000D03*
X186000000Y-82250000D03*
X186000000Y-79500000D03*
X189000000Y-80750000D03*
X189000000Y-79500000D03*
X189000000Y-78250000D03*
X189000000Y-76750000D03*
X177800000Y-114300000D03*
X203200000Y-127000000D03*
X215900000Y-139700000D03*
X215900000Y-165100000D03*
X190500000Y-165100000D03*
X177800000Y-165100000D03*
X165100000Y-114300000D03*
X190500000Y-114300000D03*
X228600000Y-139700000D03*
X203200000Y-139700000D03*
X203200000Y-165100000D03*
X177800000Y-152400000D03*
X203200000Y-152400000D03*
X190500000Y-152400000D03*
X228600000Y-114300000D03*
X215900000Y-127000000D03*
X215900000Y-114300000D03*
X215900000Y-152400000D03*
X228600000Y-127000000D03*
X228600000Y-152400000D03*
X203200000Y-114300000D03*
D33*
X188500000Y-143000000D03*
D32*
X217800000Y-105600000D03*
D34*
X195940000Y-101240000D02*
X193027300Y-101240000D01*
X196247300Y-101547300D02*
X195940000Y-101240000D01*
X205562500Y-78000000D02*
X207167500Y-78000000D01*
X196247300Y-101550000D02*
X196247300Y-101547300D01*
X182631150Y-101240000D02*
X193027300Y-101240000D01*
X182283650Y-101587500D02*
X182631150Y-101240000D01*
X196247300Y-108500000D02*
X197450000Y-108500000D01*
X200000000Y-105950000D02*
X204230000Y-105950000D01*
X195887300Y-108860000D02*
X196247300Y-108500000D01*
X204230000Y-105950000D02*
X204525000Y-106245000D01*
X197450000Y-108500000D02*
X200000000Y-105950000D01*
X193027300Y-108860000D02*
X195887300Y-108860000D01*
D35*
X188500000Y-145087500D02*
X188500000Y-143000000D01*
D34*
X192760000Y-76510000D02*
X192750000Y-76500000D01*
X196550000Y-76510000D02*
X192760000Y-76510000D01*
X196550000Y-76510000D02*
X196550000Y-78817500D01*
X196550000Y-78817500D02*
X196517500Y-78850000D01*
D35*
X188500000Y-141412500D02*
X188500000Y-143000000D01*
D34*
X180500000Y-81405000D02*
X182595000Y-83500000D01*
X196517500Y-83477500D02*
X196550000Y-83510000D01*
X182595000Y-83500000D02*
X196540000Y-83500000D01*
X196517500Y-81500000D02*
X196517500Y-83477500D01*
X196517500Y-80150000D02*
X196517500Y-81500000D01*
X196540000Y-83500000D02*
X196550000Y-83510000D01*
X220680000Y-106000000D02*
X220525000Y-106000000D01*
X220680000Y-106020000D02*
X216200000Y-110500000D01*
X213510000Y-103450000D02*
X212500000Y-102440000D01*
X216000000Y-103450000D02*
X213510000Y-103450000D01*
X220525000Y-106000000D02*
X217975000Y-103450000D01*
X220680000Y-106000000D02*
X220680000Y-106020000D01*
X216200000Y-110500000D02*
X215000000Y-110500000D01*
X217975000Y-103450000D02*
X216000000Y-103450000D01*
X213950000Y-105550000D02*
X212500000Y-107000000D01*
X216000000Y-99000000D02*
X215000000Y-99000000D01*
X216000000Y-105550000D02*
X217750000Y-105550000D01*
X216000000Y-105550000D02*
X213950000Y-105550000D01*
X195967300Y-106320000D02*
X196247300Y-106600000D01*
X220680000Y-103000000D02*
X220000000Y-103000000D01*
X217750000Y-105550000D02*
X217800000Y-105600000D01*
X193027300Y-106320000D02*
X195967300Y-106320000D01*
X220000000Y-103000000D02*
X216000000Y-99000000D01*
X173000000Y-83200000D02*
X174737500Y-84937500D01*
X173000000Y-82638300D02*
X173000000Y-83200000D01*
X172861700Y-82500000D02*
X173000000Y-82638300D01*
X174737500Y-84937500D02*
X176500000Y-84937500D01*
X167000000Y-82500000D02*
X172861700Y-82500000D01*
X178562500Y-87000000D02*
X206240000Y-87000000D01*
X176500000Y-84937500D02*
X178562500Y-87000000D01*
D36*
X176500000Y-79325000D02*
X176500000Y-82887500D01*
D34*
X180405000Y-77500000D02*
X180500000Y-77595000D01*
X167000000Y-79500000D02*
X172861700Y-79500000D01*
X172861700Y-79500000D02*
X173000000Y-79361700D01*
X173000000Y-79361700D02*
X173000000Y-78900000D01*
X174400000Y-77500000D02*
X176500000Y-77500000D01*
X176500000Y-77500000D02*
X180405000Y-77500000D01*
X173000000Y-78900000D02*
X174400000Y-77500000D01*
X180500000Y-78865000D02*
X180500000Y-80135000D01*
X180500000Y-77595000D02*
X180500000Y-78865000D01*
D36*
X182283650Y-106475000D02*
X182283650Y-103412500D01*
D34*
X219000000Y-88000000D02*
X215590000Y-88000000D01*
X220680000Y-86320000D02*
X220680000Y-86000000D01*
X212540000Y-89280000D02*
X214310000Y-89280000D01*
X214310000Y-89280000D02*
X215590000Y-88000000D01*
X219000000Y-88000000D02*
X220680000Y-86320000D01*
D36*
X198417500Y-78850000D02*
X198717500Y-78850000D01*
X198717500Y-78850000D02*
X199007500Y-78560000D01*
X202877500Y-78560000D02*
X203437500Y-78000000D01*
X199007500Y-78560000D02*
X201000000Y-78560000D01*
X201000000Y-78560000D02*
X202877500Y-78560000D01*
G04 #@! TA.AperFunction,Conductor*
G36*
X183887343Y-116019707D02*
G01*
X183956584Y-116074926D01*
X183995011Y-116154718D01*
X184000000Y-116199000D01*
X184000000Y-127000000D01*
X198301000Y-127000000D01*
X198387343Y-127019707D01*
X198456584Y-127074926D01*
X198495011Y-127154718D01*
X198500000Y-127199000D01*
X198500000Y-142551000D01*
X198480293Y-142637343D01*
X198425074Y-142706584D01*
X198345282Y-142745011D01*
X198301000Y-142750000D01*
X189617271Y-142750000D01*
X189530928Y-142730293D01*
X189461687Y-142675074D01*
X189434568Y-142623467D01*
X189432554Y-142624302D01*
X189428813Y-142615271D01*
X189335911Y-142441463D01*
X189245671Y-142331505D01*
X189206129Y-142252259D01*
X189200500Y-142205261D01*
X189200500Y-142150489D01*
X189220207Y-142064146D01*
X189263618Y-142009710D01*
X189261604Y-142007696D01*
X189272146Y-141997152D01*
X189272150Y-141997150D01*
X189352793Y-141887882D01*
X189397646Y-141759699D01*
X189400500Y-141729266D01*
X189400500Y-141095734D01*
X189397646Y-141065301D01*
X189352793Y-140937118D01*
X189347876Y-140930456D01*
X189272150Y-140827849D01*
X189162885Y-140747209D01*
X189162884Y-140747208D01*
X189162882Y-140747207D01*
X189034699Y-140702354D01*
X189004266Y-140699500D01*
X187995734Y-140699500D01*
X187965301Y-140702354D01*
X187837118Y-140747207D01*
X187837116Y-140747208D01*
X187837114Y-140747209D01*
X187727849Y-140827849D01*
X187647209Y-140937114D01*
X187647208Y-140937116D01*
X187647207Y-140937118D01*
X187602354Y-141065301D01*
X187599500Y-141095734D01*
X187599500Y-141729266D01*
X187602354Y-141759699D01*
X187647207Y-141887882D01*
X187647208Y-141887884D01*
X187647209Y-141887885D01*
X187727851Y-141997151D01*
X187738396Y-142007696D01*
X187735803Y-142010288D01*
X187776422Y-142057471D01*
X187799360Y-142143013D01*
X187799500Y-142150489D01*
X187799500Y-142205261D01*
X187779793Y-142291604D01*
X187754329Y-142331505D01*
X187664088Y-142441463D01*
X187571186Y-142615271D01*
X187567446Y-142624302D01*
X187564889Y-142623243D01*
X187529248Y-142685660D01*
X187456311Y-142735896D01*
X187382729Y-142750000D01*
X171555826Y-142750000D01*
X171469483Y-142730293D01*
X171400242Y-142675074D01*
X171365667Y-142609657D01*
X171361233Y-142595282D01*
X171287798Y-142357212D01*
X171173702Y-142120290D01*
X171025570Y-141903020D01*
X170846710Y-141710254D01*
X170846708Y-141710252D01*
X170846707Y-141710251D01*
X170641116Y-141546298D01*
X170641115Y-141546297D01*
X170413386Y-141414817D01*
X170413377Y-141414814D01*
X170168601Y-141318747D01*
X170168599Y-141318746D01*
X170168598Y-141318746D01*
X170168594Y-141318745D01*
X169912231Y-141260231D01*
X169794283Y-141251392D01*
X169715654Y-141245500D01*
X169584346Y-141245500D01*
X169518821Y-141250410D01*
X169387768Y-141260231D01*
X169131405Y-141318745D01*
X169131398Y-141318747D01*
X168886622Y-141414814D01*
X168886613Y-141414817D01*
X168658884Y-141546297D01*
X168658883Y-141546298D01*
X168453292Y-141710251D01*
X168453287Y-141710257D01*
X168274429Y-141903021D01*
X168126297Y-142120291D01*
X168012201Y-142357215D01*
X167934333Y-142609657D01*
X167890051Y-142686355D01*
X167816877Y-142736244D01*
X167744174Y-142750000D01*
X164299500Y-142750000D01*
X164213157Y-142730293D01*
X164143916Y-142675074D01*
X164105489Y-142595282D01*
X164100500Y-142551000D01*
X164100500Y-121131483D01*
X165245500Y-121131483D01*
X165284690Y-121391503D01*
X165284692Y-121391508D01*
X165362202Y-121642788D01*
X165476298Y-121879710D01*
X165624430Y-122096980D01*
X165803290Y-122289746D01*
X165803292Y-122289748D01*
X166008883Y-122453701D01*
X166008884Y-122453702D01*
X166236613Y-122585182D01*
X166236616Y-122585183D01*
X166481402Y-122681254D01*
X166737772Y-122739769D01*
X166934346Y-122754500D01*
X166934348Y-122754500D01*
X167065652Y-122754500D01*
X167065654Y-122754500D01*
X167262228Y-122739769D01*
X167518598Y-122681254D01*
X167763384Y-122585183D01*
X167991117Y-122453701D01*
X168196710Y-122289746D01*
X168375570Y-122096980D01*
X168523702Y-121879710D01*
X168637798Y-121642788D01*
X168715308Y-121391508D01*
X168754500Y-121131482D01*
X168754500Y-120868518D01*
X168715308Y-120608492D01*
X168637798Y-120357212D01*
X168523702Y-120120290D01*
X168375570Y-119903020D01*
X168196710Y-119710254D01*
X168196708Y-119710252D01*
X168196707Y-119710251D01*
X167991116Y-119546298D01*
X167991115Y-119546297D01*
X167763386Y-119414817D01*
X167763377Y-119414814D01*
X167518601Y-119318747D01*
X167518599Y-119318746D01*
X167518598Y-119318746D01*
X167518594Y-119318745D01*
X167262231Y-119260231D01*
X167144283Y-119251392D01*
X167065654Y-119245500D01*
X166934346Y-119245500D01*
X166868821Y-119250410D01*
X166737768Y-119260231D01*
X166481405Y-119318745D01*
X166481398Y-119318747D01*
X166236622Y-119414814D01*
X166236613Y-119414817D01*
X166008884Y-119546297D01*
X166008883Y-119546298D01*
X165803292Y-119710251D01*
X165803287Y-119710257D01*
X165624429Y-119903021D01*
X165476297Y-120120291D01*
X165475695Y-120121542D01*
X165382543Y-120314975D01*
X165362201Y-120357215D01*
X165284690Y-120608496D01*
X165245500Y-120868516D01*
X165245500Y-121131483D01*
X164100500Y-121131483D01*
X164100500Y-116199000D01*
X164120207Y-116112657D01*
X164175426Y-116043416D01*
X164255218Y-116004989D01*
X164299500Y-116000000D01*
X183801000Y-116000000D01*
X183887343Y-116019707D01*
G37*
G04 #@! TD.AperFunction*
G04 #@! TA.AperFunction,Conductor*
G36*
X227002787Y-68100657D02*
G01*
X227154709Y-68109188D01*
X227319068Y-68118418D01*
X227330135Y-68119664D01*
X227639684Y-68172260D01*
X227650566Y-68174744D01*
X227952273Y-68261663D01*
X227962813Y-68265351D01*
X228252875Y-68385499D01*
X228262936Y-68390344D01*
X228537731Y-68542217D01*
X228547186Y-68548158D01*
X228803250Y-68729845D01*
X228811981Y-68736808D01*
X229046085Y-68946018D01*
X229053981Y-68953914D01*
X229263191Y-69188018D01*
X229270154Y-69196749D01*
X229451841Y-69452813D01*
X229457782Y-69462268D01*
X229609655Y-69737063D01*
X229614500Y-69747124D01*
X229734648Y-70037186D01*
X229738336Y-70047726D01*
X229825255Y-70349433D01*
X229827740Y-70360319D01*
X229880331Y-70669842D01*
X229881582Y-70680939D01*
X229899343Y-70997212D01*
X229899500Y-71002792D01*
X229899500Y-164997206D01*
X229899343Y-165002786D01*
X229881582Y-165319060D01*
X229880331Y-165330157D01*
X229827740Y-165639680D01*
X229825255Y-165650566D01*
X229738336Y-165952273D01*
X229734648Y-165962813D01*
X229614500Y-166252875D01*
X229609655Y-166262936D01*
X229457782Y-166537731D01*
X229451841Y-166547186D01*
X229270154Y-166803250D01*
X229263191Y-166811981D01*
X229053981Y-167046085D01*
X229046085Y-167053981D01*
X228811981Y-167263191D01*
X228803250Y-167270153D01*
X228547180Y-167451845D01*
X228537735Y-167457780D01*
X228509893Y-167473168D01*
X228506273Y-167475169D01*
X228421171Y-167499687D01*
X228410013Y-167500000D01*
X165589987Y-167500000D01*
X165503644Y-167480293D01*
X165493751Y-167475182D01*
X165462259Y-167457777D01*
X165452819Y-167451846D01*
X165196749Y-167270153D01*
X165188018Y-167263191D01*
X164953914Y-167053981D01*
X164946018Y-167046085D01*
X164736808Y-166811981D01*
X164729845Y-166803250D01*
X164548158Y-166547186D01*
X164542217Y-166537731D01*
X164390344Y-166262936D01*
X164385499Y-166252875D01*
X164265351Y-165962813D01*
X164261663Y-165952273D01*
X164174744Y-165650566D01*
X164172259Y-165639680D01*
X164119664Y-165330135D01*
X164118418Y-165319068D01*
X164107884Y-165131483D01*
X165245500Y-165131483D01*
X165284690Y-165391503D01*
X165284692Y-165391508D01*
X165362202Y-165642788D01*
X165476298Y-165879710D01*
X165624430Y-166096980D01*
X165803290Y-166289746D01*
X165803292Y-166289748D01*
X166008883Y-166453701D01*
X166008884Y-166453702D01*
X166236613Y-166585182D01*
X166236616Y-166585183D01*
X166481402Y-166681254D01*
X166737772Y-166739769D01*
X166934346Y-166754500D01*
X166934348Y-166754500D01*
X167065652Y-166754500D01*
X167065654Y-166754500D01*
X167262228Y-166739769D01*
X167518598Y-166681254D01*
X167763384Y-166585183D01*
X167991117Y-166453701D01*
X168196710Y-166289746D01*
X168375570Y-166096980D01*
X168523702Y-165879710D01*
X168637798Y-165642788D01*
X168715308Y-165391508D01*
X168725387Y-165324641D01*
X168754500Y-165131483D01*
X225245500Y-165131483D01*
X225284690Y-165391503D01*
X225284692Y-165391508D01*
X225362202Y-165642788D01*
X225476298Y-165879710D01*
X225624430Y-166096980D01*
X225803290Y-166289746D01*
X225803292Y-166289748D01*
X226008883Y-166453701D01*
X226008884Y-166453702D01*
X226236613Y-166585182D01*
X226236616Y-166585183D01*
X226481402Y-166681254D01*
X226737772Y-166739769D01*
X226934346Y-166754500D01*
X226934348Y-166754500D01*
X227065652Y-166754500D01*
X227065654Y-166754500D01*
X227262228Y-166739769D01*
X227518598Y-166681254D01*
X227763384Y-166585183D01*
X227991117Y-166453701D01*
X228196710Y-166289746D01*
X228375570Y-166096980D01*
X228523702Y-165879710D01*
X228637798Y-165642788D01*
X228715308Y-165391508D01*
X228725387Y-165324641D01*
X228754500Y-165131483D01*
X228754500Y-164868516D01*
X228715309Y-164608496D01*
X228715308Y-164608492D01*
X228637798Y-164357212D01*
X228523702Y-164120290D01*
X228375570Y-163903020D01*
X228196710Y-163710254D01*
X228196708Y-163710252D01*
X228196707Y-163710251D01*
X227991116Y-163546298D01*
X227991115Y-163546297D01*
X227763386Y-163414817D01*
X227763377Y-163414814D01*
X227518601Y-163318747D01*
X227518599Y-163318746D01*
X227518598Y-163318746D01*
X227518594Y-163318745D01*
X227262231Y-163260231D01*
X227144283Y-163251392D01*
X227065654Y-163245500D01*
X226934346Y-163245500D01*
X226868821Y-163250410D01*
X226737768Y-163260231D01*
X226481405Y-163318745D01*
X226481398Y-163318747D01*
X226236622Y-163414814D01*
X226236613Y-163414817D01*
X226008884Y-163546297D01*
X226008883Y-163546298D01*
X225803292Y-163710251D01*
X225803287Y-163710257D01*
X225624429Y-163903021D01*
X225476297Y-164120291D01*
X225362201Y-164357215D01*
X225284690Y-164608496D01*
X225245500Y-164868516D01*
X225245500Y-165131483D01*
X168754500Y-165131483D01*
X168754500Y-164868516D01*
X168715309Y-164608496D01*
X168715308Y-164608492D01*
X168637798Y-164357212D01*
X168523702Y-164120290D01*
X168375570Y-163903020D01*
X168196710Y-163710254D01*
X168196708Y-163710252D01*
X168196707Y-163710251D01*
X167991116Y-163546298D01*
X167991115Y-163546297D01*
X167763386Y-163414817D01*
X167763377Y-163414814D01*
X167518601Y-163318747D01*
X167518599Y-163318746D01*
X167518598Y-163318746D01*
X167518594Y-163318745D01*
X167262231Y-163260231D01*
X167144283Y-163251392D01*
X167065654Y-163245500D01*
X166934346Y-163245500D01*
X166868821Y-163250410D01*
X166737768Y-163260231D01*
X166481405Y-163318745D01*
X166481398Y-163318747D01*
X166236622Y-163414814D01*
X166236613Y-163414817D01*
X166008884Y-163546297D01*
X166008883Y-163546298D01*
X165803292Y-163710251D01*
X165803287Y-163710257D01*
X165624429Y-163903021D01*
X165476297Y-164120291D01*
X165362201Y-164357215D01*
X165284690Y-164608496D01*
X165245500Y-164868516D01*
X165245500Y-165131483D01*
X164107884Y-165131483D01*
X164107884Y-165131482D01*
X164100657Y-165002786D01*
X164100500Y-164997206D01*
X164100500Y-158267912D01*
X215541779Y-158267912D01*
X215571468Y-158537737D01*
X215571472Y-158537757D01*
X215640128Y-158800374D01*
X215640131Y-158800381D01*
X215640132Y-158800384D01*
X215694040Y-158927240D01*
X215746305Y-159050228D01*
X215746307Y-159050231D01*
X215887719Y-159281945D01*
X215887720Y-159281945D01*
X216061368Y-159490604D01*
X216263546Y-159671757D01*
X216489947Y-159821542D01*
X216735743Y-159936767D01*
X216995697Y-160014975D01*
X217264268Y-160054500D01*
X217264272Y-160054500D01*
X217467769Y-160054500D01*
X217467781Y-160054500D01*
X217670740Y-160039645D01*
X217935709Y-159980621D01*
X218189261Y-159883646D01*
X218425991Y-159750786D01*
X218640853Y-159584875D01*
X218829269Y-159389447D01*
X218987223Y-159168668D01*
X219111348Y-158927244D01*
X219198998Y-158670320D01*
X219248306Y-158403371D01*
X219258220Y-158132089D01*
X219228530Y-157862253D01*
X219193868Y-157729668D01*
X219159871Y-157599625D01*
X219159869Y-157599621D01*
X219159868Y-157599616D01*
X219053697Y-157349776D01*
X218912281Y-157118056D01*
X218912280Y-157118054D01*
X218912278Y-157118053D01*
X218738632Y-156909396D01*
X218536454Y-156728243D01*
X218310053Y-156578458D01*
X218310045Y-156578454D01*
X218064262Y-156463235D01*
X218064259Y-156463234D01*
X218064257Y-156463233D01*
X217902484Y-156414563D01*
X217804304Y-156385025D01*
X217804295Y-156385023D01*
X217535737Y-156345500D01*
X217535732Y-156345500D01*
X217332219Y-156345500D01*
X217332215Y-156345500D01*
X217129264Y-156360354D01*
X217129255Y-156360356D01*
X216864297Y-156419377D01*
X216864290Y-156419379D01*
X216610741Y-156516353D01*
X216374010Y-156649213D01*
X216159148Y-156815123D01*
X215970731Y-157010552D01*
X215812773Y-157231338D01*
X215688650Y-157472759D01*
X215601005Y-157729668D01*
X215601002Y-157729679D01*
X215551693Y-157996633D01*
X215541779Y-158267912D01*
X164100500Y-158267912D01*
X164100500Y-147112500D01*
X187400000Y-147112500D01*
X187400000Y-147240636D01*
X187402900Y-147277493D01*
X187448718Y-147435199D01*
X187532317Y-147576556D01*
X187648443Y-147692682D01*
X187789800Y-147776281D01*
X187947507Y-147822099D01*
X187947505Y-147822099D01*
X187984363Y-147825000D01*
X188299999Y-147825000D01*
X188300000Y-147112500D01*
X188700000Y-147112500D01*
X188700000Y-147825000D01*
X189015637Y-147825000D01*
X189052493Y-147822099D01*
X189210199Y-147776281D01*
X189351556Y-147692682D01*
X189467682Y-147576556D01*
X189551281Y-147435199D01*
X189597099Y-147277493D01*
X189600000Y-147240636D01*
X189600000Y-147112500D01*
X188700000Y-147112500D01*
X188300000Y-147112500D01*
X187400000Y-147112500D01*
X164100500Y-147112500D01*
X164100500Y-143449000D01*
X164120207Y-143362657D01*
X164175426Y-143293416D01*
X164255218Y-143254989D01*
X164299500Y-143250000D01*
X167744174Y-143250000D01*
X167830517Y-143269707D01*
X167899758Y-143324926D01*
X167934333Y-143390343D01*
X167934691Y-143391505D01*
X167934692Y-143391508D01*
X168012202Y-143642788D01*
X168126298Y-143879710D01*
X168274430Y-144096980D01*
X168453290Y-144289746D01*
X168453292Y-144289748D01*
X168658883Y-144453701D01*
X168658884Y-144453702D01*
X168886613Y-144585182D01*
X168886616Y-144585183D01*
X169131402Y-144681254D01*
X169387772Y-144739769D01*
X169584346Y-144754500D01*
X169584348Y-144754500D01*
X169715652Y-144754500D01*
X169715654Y-144754500D01*
X169912228Y-144739769D01*
X170168598Y-144681254D01*
X170413384Y-144585183D01*
X170641117Y-144453701D01*
X170846710Y-144289746D01*
X171025570Y-144096980D01*
X171173702Y-143879710D01*
X171287798Y-143642788D01*
X171365308Y-143391508D01*
X171365308Y-143391505D01*
X171365667Y-143390343D01*
X171409949Y-143313645D01*
X171483123Y-143263756D01*
X171555826Y-143250000D01*
X187382729Y-143250000D01*
X187469072Y-143269707D01*
X187538313Y-143324926D01*
X187565431Y-143376532D01*
X187567446Y-143375698D01*
X187571186Y-143384728D01*
X187664088Y-143558536D01*
X187754328Y-143668494D01*
X187793870Y-143747740D01*
X187799499Y-143794738D01*
X187799499Y-144349510D01*
X187779792Y-144435853D01*
X187736379Y-144490290D01*
X187738394Y-144492305D01*
X187727850Y-144502848D01*
X187647209Y-144612114D01*
X187647208Y-144612116D01*
X187647207Y-144612118D01*
X187602354Y-144740301D01*
X187599500Y-144770734D01*
X187599500Y-145404266D01*
X187602354Y-145434699D01*
X187647207Y-145562882D01*
X187647208Y-145562884D01*
X187647209Y-145562885D01*
X187727849Y-145672150D01*
X187796887Y-145723102D01*
X187854656Y-145790230D01*
X187877578Y-145875776D01*
X187861113Y-145962795D01*
X187808523Y-146034053D01*
X187780017Y-146054504D01*
X187648443Y-146132317D01*
X187532317Y-146248443D01*
X187448718Y-146389800D01*
X187402900Y-146547506D01*
X187400000Y-146584363D01*
X187399999Y-146712499D01*
X187400000Y-146712500D01*
X189600000Y-146712500D01*
X189600000Y-146584363D01*
X189597099Y-146547506D01*
X189551281Y-146389800D01*
X189467682Y-146248443D01*
X189351556Y-146132317D01*
X189219982Y-146054504D01*
X189155695Y-145993589D01*
X189124205Y-145910814D01*
X189131748Y-145822572D01*
X189176830Y-145746342D01*
X189203113Y-145723101D01*
X189272150Y-145672150D01*
X189352793Y-145562882D01*
X189397646Y-145434699D01*
X189400500Y-145404266D01*
X189400500Y-144770734D01*
X189397646Y-144740301D01*
X189352793Y-144612118D01*
X189272150Y-144502850D01*
X189272146Y-144502847D01*
X189261608Y-144492309D01*
X189264197Y-144489719D01*
X189223551Y-144442477D01*
X189200638Y-144356929D01*
X189200500Y-144349510D01*
X189200500Y-143794738D01*
X189220207Y-143708395D01*
X189245668Y-143668497D01*
X189335910Y-143558538D01*
X189428814Y-143384727D01*
X189428815Y-143384721D01*
X189432554Y-143375698D01*
X189435110Y-143376756D01*
X189470752Y-143314340D01*
X189543689Y-143264104D01*
X189617271Y-143250000D01*
X200000000Y-143250000D01*
X200000000Y-115000000D01*
X164299500Y-115000000D01*
X164213157Y-114980293D01*
X164143916Y-114925074D01*
X164105489Y-114845282D01*
X164100500Y-114801000D01*
X164100500Y-108725000D01*
X181183650Y-108725000D01*
X181183650Y-108915636D01*
X181186550Y-108952493D01*
X181232368Y-109110199D01*
X181315967Y-109251556D01*
X181432093Y-109367682D01*
X181573450Y-109451281D01*
X181731157Y-109497099D01*
X181731155Y-109497099D01*
X181768013Y-109500000D01*
X182083650Y-109500000D01*
X182083650Y-108725000D01*
X182483650Y-108725000D01*
X182483650Y-109500000D01*
X182799287Y-109500000D01*
X182836143Y-109497099D01*
X182993849Y-109451281D01*
X183135206Y-109367682D01*
X183251332Y-109251556D01*
X183334931Y-109110199D01*
X183380749Y-108952493D01*
X183383650Y-108915636D01*
X183383650Y-108860000D01*
X191921735Y-108860000D01*
X191941932Y-109039255D01*
X191941932Y-109039257D01*
X191941933Y-109039258D01*
X192001510Y-109209520D01*
X192001510Y-109209521D01*
X192018415Y-109236425D01*
X192071976Y-109321667D01*
X192097487Y-109362266D01*
X192225033Y-109489812D01*
X192225035Y-109489813D01*
X192225038Y-109489816D01*
X192377778Y-109585789D01*
X192548045Y-109645368D01*
X192682346Y-109660500D01*
X192682348Y-109660500D01*
X193372252Y-109660500D01*
X193372254Y-109660500D01*
X193506555Y-109645368D01*
X193676822Y-109585789D01*
X193829562Y-109489816D01*
X193868097Y-109451281D01*
X193950593Y-109368786D01*
X194025581Y-109321667D01*
X194091307Y-109310500D01*
X195856406Y-109310500D01*
X195867555Y-109311126D01*
X195904335Y-109315270D01*
X195961000Y-109304547D01*
X195964580Y-109303939D01*
X196021587Y-109295348D01*
X196021590Y-109295346D01*
X196029724Y-109292837D01*
X196037763Y-109290024D01*
X196037772Y-109290023D01*
X196088769Y-109263068D01*
X196091986Y-109261444D01*
X196143942Y-109236425D01*
X196143946Y-109236421D01*
X196145913Y-109235081D01*
X196150346Y-109233340D01*
X196157382Y-109229953D01*
X196157635Y-109230479D01*
X196228353Y-109202723D01*
X196258017Y-109200500D01*
X196776561Y-109200500D01*
X196776566Y-109200500D01*
X196806999Y-109197646D01*
X196935182Y-109152793D01*
X197044450Y-109072150D01*
X197046381Y-109069534D01*
X197074577Y-109031330D01*
X197141705Y-108973561D01*
X197227251Y-108950639D01*
X197234692Y-108950500D01*
X197419106Y-108950500D01*
X197430255Y-108951126D01*
X197467035Y-108955270D01*
X197523700Y-108944547D01*
X197527280Y-108943939D01*
X197584287Y-108935348D01*
X197584290Y-108935346D01*
X197592424Y-108932837D01*
X197600463Y-108930024D01*
X197600472Y-108930023D01*
X197651469Y-108903068D01*
X197654686Y-108901444D01*
X197706642Y-108876425D01*
X197706649Y-108876418D01*
X197713681Y-108871624D01*
X197720530Y-108866569D01*
X197720538Y-108866566D01*
X197761322Y-108825780D01*
X197763934Y-108823265D01*
X197806194Y-108784055D01*
X197806196Y-108784050D01*
X197815093Y-108772895D01*
X197822527Y-108764575D01*
X199878316Y-106708786D01*
X199953306Y-106661667D01*
X200019031Y-106650500D01*
X200529261Y-106650500D01*
X200529266Y-106650500D01*
X200559699Y-106647646D01*
X200687882Y-106602793D01*
X200797150Y-106522150D01*
X200801673Y-106516022D01*
X200827277Y-106481330D01*
X200894405Y-106423561D01*
X200979951Y-106400639D01*
X200987392Y-106400500D01*
X202600500Y-106400500D01*
X202686843Y-106420207D01*
X202756084Y-106475426D01*
X202794511Y-106555218D01*
X202799500Y-106599500D01*
X202799500Y-107424276D01*
X202802353Y-107454702D01*
X202847206Y-107582884D01*
X202927849Y-107692151D01*
X203037116Y-107772794D01*
X203165298Y-107817647D01*
X203195724Y-107820500D01*
X203195728Y-107820500D01*
X209204272Y-107820500D01*
X209204276Y-107820500D01*
X209234702Y-107817647D01*
X209362884Y-107772794D01*
X209472151Y-107692151D01*
X209552794Y-107582884D01*
X209597647Y-107454702D01*
X209600500Y-107424276D01*
X209600500Y-107404266D01*
X211199500Y-107404266D01*
X211202354Y-107434699D01*
X211247207Y-107562882D01*
X211247208Y-107562884D01*
X211247209Y-107562885D01*
X211327849Y-107672150D01*
X211430456Y-107747876D01*
X211437118Y-107752793D01*
X211565301Y-107797646D01*
X211595734Y-107800500D01*
X211595739Y-107800500D01*
X213404261Y-107800500D01*
X213404266Y-107800500D01*
X213434699Y-107797646D01*
X213562882Y-107752793D01*
X213672150Y-107672150D01*
X213752793Y-107562882D01*
X213797646Y-107434699D01*
X213800500Y-107404266D01*
X213800500Y-106595734D01*
X213797646Y-106565301D01*
X213780401Y-106516019D01*
X213770485Y-106428016D01*
X213799735Y-106344422D01*
X213827511Y-106309591D01*
X214078319Y-106058783D01*
X214153306Y-106011667D01*
X214219031Y-106000500D01*
X215666767Y-106000500D01*
X215750868Y-106019145D01*
X215805240Y-106044499D01*
X215850821Y-106050500D01*
X216149178Y-106050499D01*
X216194760Y-106044499D01*
X216249132Y-106019144D01*
X216333233Y-106000500D01*
X217267961Y-106000500D01*
X217354304Y-106020207D01*
X217389101Y-106041621D01*
X217418105Y-106063876D01*
X217497156Y-106124535D01*
X217497159Y-106124536D01*
X217643238Y-106185044D01*
X217800000Y-106205682D01*
X217956762Y-106185044D01*
X218102841Y-106124536D01*
X218102841Y-106124535D01*
X218102843Y-106124535D01*
X218140370Y-106095739D01*
X218228282Y-106028282D01*
X218302179Y-105931976D01*
X218324535Y-105902843D01*
X218324536Y-105902840D01*
X218385044Y-105756762D01*
X218405682Y-105600000D01*
X218385044Y-105443238D01*
X218324536Y-105297159D01*
X218324535Y-105297156D01*
X218251999Y-105202627D01*
X218228282Y-105171718D01*
X218186468Y-105139633D01*
X218102843Y-105075464D01*
X218102840Y-105075463D01*
X217956764Y-105014957D01*
X217956762Y-105014956D01*
X217956761Y-105014955D01*
X217800000Y-104994318D01*
X217799999Y-104994318D01*
X217643237Y-105014956D01*
X217643236Y-105014956D01*
X217559839Y-105049501D01*
X217497159Y-105075464D01*
X217497158Y-105075464D01*
X217485108Y-105080456D01*
X217484190Y-105078241D01*
X217417078Y-105098943D01*
X217402206Y-105099500D01*
X216333233Y-105099500D01*
X216249132Y-105080855D01*
X216194758Y-105055500D01*
X216149182Y-105049500D01*
X215850823Y-105049500D01*
X215850819Y-105049501D01*
X215805241Y-105055500D01*
X215805239Y-105055501D01*
X215786681Y-105064155D01*
X215750867Y-105080855D01*
X215666767Y-105099500D01*
X213980894Y-105099500D01*
X213969746Y-105098874D01*
X213932967Y-105094730D01*
X213932965Y-105094730D01*
X213876344Y-105105442D01*
X213872679Y-105106065D01*
X213815710Y-105114652D01*
X213807536Y-105117173D01*
X213799530Y-105119975D01*
X213748557Y-105146914D01*
X213745238Y-105148590D01*
X213693353Y-105173576D01*
X213686331Y-105178363D01*
X213679462Y-105183434D01*
X213638710Y-105224185D01*
X213636032Y-105226764D01*
X213593803Y-105265947D01*
X213584898Y-105277113D01*
X213577461Y-105285434D01*
X212721683Y-106141214D01*
X212646695Y-106188333D01*
X212580969Y-106199500D01*
X211595734Y-106199500D01*
X211565301Y-106202354D01*
X211437118Y-106247207D01*
X211437116Y-106247208D01*
X211437114Y-106247209D01*
X211327849Y-106327849D01*
X211247209Y-106437114D01*
X211247208Y-106437116D01*
X211247207Y-106437118D01*
X211202354Y-106565301D01*
X211199500Y-106595734D01*
X211199500Y-107404266D01*
X209600500Y-107404266D01*
X209600500Y-102844266D01*
X211199500Y-102844266D01*
X211202354Y-102874699D01*
X211247207Y-103002882D01*
X211247208Y-103002884D01*
X211247209Y-103002885D01*
X211327849Y-103112150D01*
X211430456Y-103187876D01*
X211437118Y-103192793D01*
X211565301Y-103237646D01*
X211595734Y-103240500D01*
X212580968Y-103240500D01*
X212667311Y-103260207D01*
X212721682Y-103298786D01*
X213169609Y-103746712D01*
X213177041Y-103755029D01*
X213200121Y-103783970D01*
X213200123Y-103783972D01*
X213247734Y-103816432D01*
X213250769Y-103818586D01*
X213297115Y-103852791D01*
X213297118Y-103852793D01*
X213297120Y-103852793D01*
X213304685Y-103856792D01*
X213312329Y-103860473D01*
X213367410Y-103877462D01*
X213370883Y-103878604D01*
X213425301Y-103897646D01*
X213425309Y-103897646D01*
X213433689Y-103899232D01*
X213442097Y-103900499D01*
X213442098Y-103900500D01*
X213499691Y-103900500D01*
X213503413Y-103900570D01*
X213561008Y-103902725D01*
X213561008Y-103902724D01*
X213561010Y-103902725D01*
X213561011Y-103902724D01*
X213575198Y-103901126D01*
X213586349Y-103900500D01*
X215666767Y-103900500D01*
X215750868Y-103919145D01*
X215805240Y-103944499D01*
X215850821Y-103950500D01*
X216149178Y-103950499D01*
X216194760Y-103944499D01*
X216249132Y-103919144D01*
X216333233Y-103900500D01*
X217705968Y-103900500D01*
X217792311Y-103920207D01*
X217846682Y-103958786D01*
X218652477Y-104764581D01*
X219450202Y-105562305D01*
X219497321Y-105637293D01*
X219507237Y-105725300D01*
X219502135Y-105752899D01*
X219475616Y-105855320D01*
X219475615Y-105855322D01*
X219475615Y-105855326D01*
X219465824Y-106048390D01*
X219468415Y-106065301D01*
X219495096Y-106239474D01*
X219495097Y-106239475D01*
X219539527Y-106359437D01*
X219551035Y-106447249D01*
X219523302Y-106531359D01*
X219493629Y-106569266D01*
X216546745Y-109516150D01*
X216471757Y-109563269D01*
X216383750Y-109573185D01*
X216300157Y-109543934D01*
X216254710Y-109504676D01*
X216135224Y-109364775D01*
X215943661Y-109201165D01*
X215728861Y-109069535D01*
X215496114Y-108973128D01*
X215496112Y-108973127D01*
X215496111Y-108973127D01*
X215316569Y-108930023D01*
X215251149Y-108914317D01*
X215087240Y-108901417D01*
X215000000Y-108894551D01*
X214999999Y-108894551D01*
X214748850Y-108914317D01*
X214503885Y-108973128D01*
X214271138Y-109069535D01*
X214271137Y-109069535D01*
X214056338Y-109201165D01*
X213864775Y-109364775D01*
X213701165Y-109556338D01*
X213569535Y-109771137D01*
X213569535Y-109771138D01*
X213473128Y-110003885D01*
X213414317Y-110248850D01*
X213394551Y-110499999D01*
X213414317Y-110751149D01*
X213473128Y-110996114D01*
X213569535Y-111228861D01*
X213569535Y-111228862D01*
X213701165Y-111443661D01*
X213864775Y-111635224D01*
X214056338Y-111798834D01*
X214056340Y-111798835D01*
X214056341Y-111798836D01*
X214271141Y-111930466D01*
X214503889Y-112026873D01*
X214748852Y-112085683D01*
X215000000Y-112105449D01*
X215251148Y-112085683D01*
X215496111Y-112026873D01*
X215728859Y-111930466D01*
X215943659Y-111798836D01*
X216135224Y-111635224D01*
X216298836Y-111443659D01*
X216430466Y-111228859D01*
X216526873Y-110996111D01*
X216572494Y-110806078D01*
X216611812Y-110726723D01*
X216625272Y-110711830D01*
X220328317Y-107008785D01*
X220403305Y-106961667D01*
X220469031Y-106950500D01*
X220988204Y-106950500D01*
X220988206Y-106950500D01*
X221132321Y-106935845D01*
X221316768Y-106877974D01*
X221485791Y-106784159D01*
X221632468Y-106658240D01*
X221750796Y-106505373D01*
X221835930Y-106331816D01*
X221838990Y-106320000D01*
X221855949Y-106254500D01*
X221884385Y-106144674D01*
X221894176Y-105951610D01*
X221864903Y-105760526D01*
X221797764Y-105579247D01*
X221695509Y-105415193D01*
X221562323Y-105275081D01*
X221562322Y-105275080D01*
X221562321Y-105275079D01*
X221403658Y-105164647D01*
X221226012Y-105088413D01*
X221226011Y-105088412D01*
X221036656Y-105049500D01*
X220371794Y-105049500D01*
X220320408Y-105054725D01*
X220232514Y-105043853D01*
X220159563Y-104997460D01*
X219793586Y-104631483D01*
X223245500Y-104631483D01*
X223284690Y-104891503D01*
X223284692Y-104891508D01*
X223362202Y-105142788D01*
X223476298Y-105379710D01*
X223624430Y-105596980D01*
X223803290Y-105789746D01*
X223803292Y-105789748D01*
X224008883Y-105953701D01*
X224008884Y-105953702D01*
X224236613Y-106085182D01*
X224236616Y-106085183D01*
X224481402Y-106181254D01*
X224737772Y-106239769D01*
X224934346Y-106254500D01*
X224934348Y-106254500D01*
X225065652Y-106254500D01*
X225065654Y-106254500D01*
X225262228Y-106239769D01*
X225518598Y-106181254D01*
X225763384Y-106085183D01*
X225991117Y-105953701D01*
X226196710Y-105789746D01*
X226375570Y-105596980D01*
X226523702Y-105379710D01*
X226637798Y-105142788D01*
X226715308Y-104891508D01*
X226726436Y-104817682D01*
X226754500Y-104631483D01*
X226754500Y-104368516D01*
X226715309Y-104108496D01*
X226715308Y-104108492D01*
X226637798Y-103857212D01*
X226523702Y-103620290D01*
X226375570Y-103403020D01*
X226196710Y-103210254D01*
X226196708Y-103210252D01*
X226196707Y-103210251D01*
X225991116Y-103046298D01*
X225991115Y-103046297D01*
X225763386Y-102914817D01*
X225763377Y-102914814D01*
X225518601Y-102818747D01*
X225518599Y-102818746D01*
X225518598Y-102818746D01*
X225518594Y-102818745D01*
X225262231Y-102760231D01*
X225144283Y-102751392D01*
X225065654Y-102745500D01*
X224934346Y-102745500D01*
X224868821Y-102750410D01*
X224737768Y-102760231D01*
X224481405Y-102818745D01*
X224481398Y-102818747D01*
X224236622Y-102914814D01*
X224236613Y-102914817D01*
X224008884Y-103046297D01*
X224008883Y-103046298D01*
X223803292Y-103210251D01*
X223803287Y-103210257D01*
X223624429Y-103403021D01*
X223476297Y-103620291D01*
X223431710Y-103712878D01*
X223362405Y-103856792D01*
X223362201Y-103857215D01*
X223284690Y-104108496D01*
X223245500Y-104368516D01*
X223245500Y-104631483D01*
X219793586Y-104631483D01*
X219239893Y-104077790D01*
X218315389Y-103153286D01*
X218307957Y-103144969D01*
X218284880Y-103116031D01*
X218237256Y-103083560D01*
X218234223Y-103081408D01*
X218187881Y-103047206D01*
X218180312Y-103043206D01*
X218172672Y-103039527D01*
X218117602Y-103022541D01*
X218114067Y-103021378D01*
X218059698Y-103002353D01*
X218051322Y-103000768D01*
X218042904Y-102999500D01*
X218042902Y-102999500D01*
X217985291Y-102999500D01*
X217981571Y-102999430D01*
X217927429Y-102997404D01*
X217923990Y-102997276D01*
X217923989Y-102997276D01*
X217909808Y-102998874D01*
X217898660Y-102999500D01*
X216333233Y-102999500D01*
X216249132Y-102980855D01*
X216194758Y-102955500D01*
X216149182Y-102949500D01*
X215850823Y-102949500D01*
X215850819Y-102949501D01*
X215805241Y-102955500D01*
X215805239Y-102955501D01*
X215773924Y-102970103D01*
X215750867Y-102980855D01*
X215666767Y-102999500D01*
X213999500Y-102999500D01*
X213913157Y-102979793D01*
X213843916Y-102924574D01*
X213805489Y-102844782D01*
X213800500Y-102800500D01*
X213800500Y-102445734D01*
X213800500Y-102035734D01*
X213797646Y-102005301D01*
X213752793Y-101877118D01*
X213698208Y-101803157D01*
X213672150Y-101767849D01*
X213562885Y-101687209D01*
X213562884Y-101687208D01*
X213562882Y-101687207D01*
X213434699Y-101642354D01*
X213404266Y-101639500D01*
X211595734Y-101639500D01*
X211565301Y-101642354D01*
X211437118Y-101687207D01*
X211437116Y-101687208D01*
X211437114Y-101687209D01*
X211327849Y-101767849D01*
X211247209Y-101877114D01*
X211247208Y-101877116D01*
X211247207Y-101877118D01*
X211202354Y-102005301D01*
X211199500Y-102035734D01*
X211199500Y-102844266D01*
X209600500Y-102844266D01*
X209600500Y-102015724D01*
X209597647Y-101985298D01*
X209552794Y-101857116D01*
X209472151Y-101747849D01*
X209362884Y-101667206D01*
X209234702Y-101622353D01*
X209204276Y-101619500D01*
X203195724Y-101619500D01*
X203165298Y-101622353D01*
X203165297Y-101622353D01*
X203037116Y-101667206D01*
X202927849Y-101747849D01*
X202847206Y-101857116D01*
X202809180Y-101965789D01*
X202802353Y-101985298D01*
X202799767Y-102012882D01*
X202799500Y-102015727D01*
X202799500Y-105300500D01*
X202779793Y-105386843D01*
X202724574Y-105456084D01*
X202644782Y-105494511D01*
X202600500Y-105499500D01*
X200987392Y-105499500D01*
X200901049Y-105479793D01*
X200831808Y-105424574D01*
X200827277Y-105418670D01*
X200797150Y-105377849D01*
X200687885Y-105297209D01*
X200687884Y-105297208D01*
X200687882Y-105297207D01*
X200678174Y-105293810D01*
X200603187Y-105246689D01*
X200556070Y-105171699D01*
X200546157Y-105083693D01*
X200575410Y-105000100D01*
X200638035Y-104937478D01*
X200688389Y-104914880D01*
X200735200Y-104901280D01*
X200876556Y-104817682D01*
X200992682Y-104701556D01*
X201076281Y-104560199D01*
X201122099Y-104402493D01*
X201125000Y-104365636D01*
X201125000Y-104250000D01*
X198875000Y-104250000D01*
X198875000Y-104365636D01*
X198877900Y-104402493D01*
X198923718Y-104560199D01*
X199007317Y-104701556D01*
X199123443Y-104817682D01*
X199264798Y-104901280D01*
X199311611Y-104914880D01*
X199389028Y-104957892D01*
X199440115Y-105030235D01*
X199454756Y-105117580D01*
X199430048Y-105202627D01*
X199370887Y-105268532D01*
X199321827Y-105293809D01*
X199312121Y-105297205D01*
X199312114Y-105297209D01*
X199202849Y-105377849D01*
X199122209Y-105487114D01*
X199122208Y-105487116D01*
X199122207Y-105487118D01*
X199077354Y-105615300D01*
X199077354Y-105615301D01*
X199074500Y-105645739D01*
X199074500Y-106155968D01*
X199054793Y-106242311D01*
X199016214Y-106296682D01*
X197352593Y-107960303D01*
X197277605Y-108007422D01*
X197189598Y-108017338D01*
X197106005Y-107988087D01*
X197051765Y-107937760D01*
X197044451Y-107927850D01*
X196935185Y-107847209D01*
X196935184Y-107847208D01*
X196935182Y-107847207D01*
X196806999Y-107802354D01*
X196776566Y-107799500D01*
X195718034Y-107799500D01*
X195687601Y-107802354D01*
X195559418Y-107847207D01*
X195559416Y-107847208D01*
X195559414Y-107847209D01*
X195450149Y-107927849D01*
X195369509Y-108037114D01*
X195369508Y-108037116D01*
X195369507Y-108037118D01*
X195335533Y-108134210D01*
X195324654Y-108165301D01*
X195321800Y-108195739D01*
X195321800Y-108210500D01*
X195302093Y-108296843D01*
X195246874Y-108366084D01*
X195167082Y-108404511D01*
X195122800Y-108409500D01*
X194091307Y-108409500D01*
X194004964Y-108389793D01*
X193950593Y-108351214D01*
X193829566Y-108230187D01*
X193829563Y-108230185D01*
X193829562Y-108230184D01*
X193676822Y-108134211D01*
X193676821Y-108134210D01*
X193676820Y-108134210D01*
X193506558Y-108074633D01*
X193506557Y-108074632D01*
X193506555Y-108074632D01*
X193372254Y-108059500D01*
X192682346Y-108059500D01*
X192548045Y-108074632D01*
X192548042Y-108074632D01*
X192548041Y-108074633D01*
X192377779Y-108134210D01*
X192377778Y-108134210D01*
X192225033Y-108230187D01*
X192097487Y-108357733D01*
X192001510Y-108510478D01*
X192001510Y-108510479D01*
X191941933Y-108680741D01*
X191941932Y-108680745D01*
X191921735Y-108860000D01*
X183383650Y-108860000D01*
X183383650Y-108725000D01*
X182483650Y-108725000D01*
X182083650Y-108725000D01*
X181183650Y-108725000D01*
X164100500Y-108725000D01*
X164100500Y-108325000D01*
X181183650Y-108325000D01*
X183383650Y-108325000D01*
X183383650Y-108134363D01*
X183380749Y-108097506D01*
X183334931Y-107939800D01*
X183251332Y-107798443D01*
X183135206Y-107682317D01*
X182993852Y-107598720D01*
X182947036Y-107585119D01*
X182869620Y-107542105D01*
X182818533Y-107469762D01*
X182803894Y-107382417D01*
X182828602Y-107297370D01*
X182887764Y-107231466D01*
X182936827Y-107206188D01*
X182946532Y-107202793D01*
X183055800Y-107122150D01*
X183136443Y-107012882D01*
X183181296Y-106884699D01*
X183184150Y-106854266D01*
X183184150Y-106320000D01*
X191921735Y-106320000D01*
X191941932Y-106499255D01*
X191941932Y-106499257D01*
X191941933Y-106499258D01*
X192001510Y-106669520D01*
X192001510Y-106669521D01*
X192001511Y-106669522D01*
X192077342Y-106790207D01*
X192097487Y-106822266D01*
X192225033Y-106949812D01*
X192225035Y-106949813D01*
X192225038Y-106949816D01*
X192377778Y-107045789D01*
X192548045Y-107105368D01*
X192682346Y-107120500D01*
X192682348Y-107120500D01*
X193372252Y-107120500D01*
X193372254Y-107120500D01*
X193506555Y-107105368D01*
X193676822Y-107045789D01*
X193829562Y-106949816D01*
X193875118Y-106904260D01*
X193950593Y-106828786D01*
X194025581Y-106781667D01*
X194091307Y-106770500D01*
X195128564Y-106770500D01*
X195214907Y-106790207D01*
X195284148Y-106845426D01*
X195322575Y-106925218D01*
X195322981Y-106927036D01*
X195324654Y-106934700D01*
X195330183Y-106950500D01*
X195369507Y-107062882D01*
X195369508Y-107062884D01*
X195369509Y-107062885D01*
X195450149Y-107172150D01*
X195530521Y-107231466D01*
X195559418Y-107252793D01*
X195687601Y-107297646D01*
X195718034Y-107300500D01*
X195718039Y-107300500D01*
X196776561Y-107300500D01*
X196776566Y-107300500D01*
X196806999Y-107297646D01*
X196935182Y-107252793D01*
X197044450Y-107172150D01*
X197125093Y-107062882D01*
X197169946Y-106934699D01*
X197172800Y-106904266D01*
X197172800Y-106295734D01*
X197169946Y-106265301D01*
X197125093Y-106137118D01*
X197094554Y-106095739D01*
X197044450Y-106027849D01*
X196935185Y-105947209D01*
X196935184Y-105947208D01*
X196935182Y-105947207D01*
X196806999Y-105902354D01*
X196776566Y-105899500D01*
X196776561Y-105899500D01*
X196163390Y-105899500D01*
X196097665Y-105888333D01*
X196051999Y-105872353D01*
X196043622Y-105870768D01*
X196035204Y-105869500D01*
X196035202Y-105869500D01*
X195977591Y-105869500D01*
X195973871Y-105869430D01*
X195919729Y-105867404D01*
X195916290Y-105867276D01*
X195916289Y-105867276D01*
X195902108Y-105868874D01*
X195890960Y-105869500D01*
X194091307Y-105869500D01*
X194004964Y-105849793D01*
X193950593Y-105811214D01*
X193829566Y-105690187D01*
X193829563Y-105690185D01*
X193829562Y-105690184D01*
X193676822Y-105594211D01*
X193676821Y-105594210D01*
X193676820Y-105594210D01*
X193506558Y-105534633D01*
X193506557Y-105534632D01*
X193506555Y-105534632D01*
X193372254Y-105519500D01*
X192682346Y-105519500D01*
X192548045Y-105534632D01*
X192548042Y-105534632D01*
X192548041Y-105534633D01*
X192377779Y-105594210D01*
X192377778Y-105594210D01*
X192225033Y-105690187D01*
X192097487Y-105817733D01*
X192001510Y-105970478D01*
X192001510Y-105970479D01*
X191943201Y-106137118D01*
X191941932Y-106140745D01*
X191921735Y-106320000D01*
X183184150Y-106320000D01*
X183184150Y-106095734D01*
X183181296Y-106065301D01*
X183136443Y-105937118D01*
X183103139Y-105891992D01*
X183055800Y-105827849D01*
X182946535Y-105747209D01*
X182946534Y-105747208D01*
X182946532Y-105747207D01*
X182818349Y-105702354D01*
X182818346Y-105702353D01*
X182818345Y-105702353D01*
X182789567Y-105699654D01*
X182705442Y-105671970D01*
X182641659Y-105610527D01*
X182610852Y-105527495D01*
X182609150Y-105501524D01*
X182609150Y-104323475D01*
X182628857Y-104237132D01*
X182684076Y-104167891D01*
X182763868Y-104129464D01*
X182789561Y-104125345D01*
X182818349Y-104122646D01*
X182946532Y-104077793D01*
X183055800Y-103997150D01*
X183136443Y-103887882D01*
X183181296Y-103759699D01*
X183184150Y-103729266D01*
X183184150Y-103579999D01*
X191746107Y-103579999D01*
X191746108Y-103580000D01*
X192652216Y-103580000D01*
X192618062Y-103647031D01*
X192597002Y-103780000D01*
X192618062Y-103912969D01*
X192652216Y-103980000D01*
X191746273Y-103980000D01*
X191754230Y-104031942D01*
X191754230Y-104031944D01*
X191824865Y-104222666D01*
X191932445Y-104395261D01*
X192072567Y-104542669D01*
X192239497Y-104658856D01*
X192426396Y-104739061D01*
X192625604Y-104779999D01*
X192625610Y-104780000D01*
X192827300Y-104780000D01*
X192827299Y-104155083D01*
X192894331Y-104189238D01*
X192993849Y-104205000D01*
X193060751Y-104205000D01*
X193160269Y-104189238D01*
X193227299Y-104155083D01*
X193227300Y-104780000D01*
X193378010Y-104780000D01*
X193529633Y-104764581D01*
X193529639Y-104764580D01*
X193723687Y-104703697D01*
X193723689Y-104703697D01*
X193901516Y-104604994D01*
X194055831Y-104472518D01*
X194180323Y-104311687D01*
X194269887Y-104129098D01*
X194269889Y-104129090D01*
X194308493Y-103980000D01*
X193402384Y-103980000D01*
X193436538Y-103912969D01*
X193457598Y-103780000D01*
X193437008Y-103650000D01*
X195122300Y-103650000D01*
X195122300Y-103765636D01*
X195125200Y-103802493D01*
X195171018Y-103960199D01*
X195254617Y-104101556D01*
X195370743Y-104217682D01*
X195512100Y-104301281D01*
X195669807Y-104347099D01*
X195669805Y-104347099D01*
X195706663Y-104350000D01*
X196047299Y-104350000D01*
X196047299Y-104349999D01*
X196447299Y-104349999D01*
X196447300Y-104350000D01*
X196787937Y-104350000D01*
X196824793Y-104347099D01*
X196982499Y-104301281D01*
X197123856Y-104217682D01*
X197239982Y-104101556D01*
X197323581Y-103960199D01*
X197355597Y-103850000D01*
X198875000Y-103850000D01*
X199800000Y-103850000D01*
X199800000Y-103849999D01*
X200199999Y-103849999D01*
X200200000Y-103850000D01*
X201125000Y-103850000D01*
X201125000Y-103734363D01*
X201122099Y-103697506D01*
X201076281Y-103539800D01*
X200992682Y-103398443D01*
X200876556Y-103282317D01*
X200735199Y-103198718D01*
X200577492Y-103152900D01*
X200577494Y-103152900D01*
X200540637Y-103150000D01*
X200200000Y-103150000D01*
X200199999Y-103849999D01*
X199800000Y-103849999D01*
X199800000Y-103150000D01*
X199459363Y-103150000D01*
X199422506Y-103152900D01*
X199264800Y-103198718D01*
X199123443Y-103282317D01*
X199007317Y-103398443D01*
X198923718Y-103539800D01*
X198877900Y-103697506D01*
X198875000Y-103734363D01*
X198875000Y-103850000D01*
X197355597Y-103850000D01*
X197369399Y-103802493D01*
X197372300Y-103765636D01*
X197372300Y-103650000D01*
X196447300Y-103650000D01*
X196447299Y-104349999D01*
X196047299Y-104349999D01*
X196047300Y-103650000D01*
X195122300Y-103650000D01*
X193437008Y-103650000D01*
X193436538Y-103647031D01*
X193402384Y-103580000D01*
X194308326Y-103580000D01*
X194308326Y-103579999D01*
X194300369Y-103528057D01*
X194300369Y-103528055D01*
X194229734Y-103337333D01*
X194122154Y-103164738D01*
X193982032Y-103017330D01*
X193815102Y-102901143D01*
X193628203Y-102820938D01*
X193428995Y-102780000D01*
X193227300Y-102780000D01*
X193227299Y-103404916D01*
X193160269Y-103370762D01*
X193060751Y-103355000D01*
X192993849Y-103355000D01*
X192894331Y-103370762D01*
X192827299Y-103404916D01*
X192827300Y-102780000D01*
X192676590Y-102780000D01*
X192524966Y-102795418D01*
X192524960Y-102795419D01*
X192330912Y-102856302D01*
X192330910Y-102856302D01*
X192153083Y-102955005D01*
X191998768Y-103087481D01*
X191874276Y-103248312D01*
X191784712Y-103430901D01*
X191784710Y-103430909D01*
X191746107Y-103579999D01*
X183184150Y-103579999D01*
X183184150Y-103095734D01*
X183181296Y-103065301D01*
X183136443Y-102937118D01*
X183119982Y-102914814D01*
X183055800Y-102827849D01*
X182946535Y-102747209D01*
X182946534Y-102747208D01*
X182946532Y-102747207D01*
X182818349Y-102702354D01*
X182787916Y-102699500D01*
X181779384Y-102699500D01*
X181748951Y-102702354D01*
X181620768Y-102747207D01*
X181620766Y-102747208D01*
X181620764Y-102747209D01*
X181511499Y-102827849D01*
X181430859Y-102937114D01*
X181430858Y-102937116D01*
X181430857Y-102937118D01*
X181386004Y-103065301D01*
X181383150Y-103095734D01*
X181383150Y-103729266D01*
X181386004Y-103759699D01*
X181430857Y-103887882D01*
X181430858Y-103887884D01*
X181430859Y-103887885D01*
X181511499Y-103997150D01*
X181614106Y-104072876D01*
X181620768Y-104077793D01*
X181748951Y-104122646D01*
X181777730Y-104125344D01*
X181861854Y-104153026D01*
X181925638Y-104214467D01*
X181956447Y-104297499D01*
X181958150Y-104323475D01*
X181958150Y-105501524D01*
X181938443Y-105587867D01*
X181883224Y-105657108D01*
X181803432Y-105695535D01*
X181777733Y-105699654D01*
X181748954Y-105702353D01*
X181748951Y-105702353D01*
X181748951Y-105702354D01*
X181620768Y-105747207D01*
X181620766Y-105747208D01*
X181620764Y-105747209D01*
X181511499Y-105827849D01*
X181430859Y-105937114D01*
X181430858Y-105937116D01*
X181430857Y-105937118D01*
X181386004Y-106065301D01*
X181383150Y-106095734D01*
X181383150Y-106854266D01*
X181386004Y-106884699D01*
X181430857Y-107012882D01*
X181430858Y-107012884D01*
X181430859Y-107012885D01*
X181511499Y-107122150D01*
X181620764Y-107202790D01*
X181620764Y-107202791D01*
X181620766Y-107202791D01*
X181620768Y-107202793D01*
X181630473Y-107206188D01*
X181705459Y-107253306D01*
X181752577Y-107328295D01*
X181762493Y-107416301D01*
X181733242Y-107499895D01*
X181670618Y-107562518D01*
X181620264Y-107585118D01*
X181573449Y-107598718D01*
X181432093Y-107682317D01*
X181315967Y-107798443D01*
X181232368Y-107939800D01*
X181186550Y-108097506D01*
X181183650Y-108134363D01*
X181183650Y-108325000D01*
X164100500Y-108325000D01*
X164100500Y-101904266D01*
X181383150Y-101904266D01*
X181386004Y-101934699D01*
X181430857Y-102062882D01*
X181430858Y-102062884D01*
X181430859Y-102062885D01*
X181511499Y-102172150D01*
X181591871Y-102231466D01*
X181620768Y-102252793D01*
X181748951Y-102297646D01*
X181779384Y-102300500D01*
X181779389Y-102300500D01*
X182787911Y-102300500D01*
X182787916Y-102300500D01*
X182818349Y-102297646D01*
X182946532Y-102252793D01*
X183055800Y-102172150D01*
X183136443Y-102062882D01*
X183181296Y-101934699D01*
X183184150Y-101904266D01*
X183184150Y-101889499D01*
X183203857Y-101803157D01*
X183259076Y-101733916D01*
X183338868Y-101695489D01*
X183383150Y-101690500D01*
X191963293Y-101690500D01*
X192049636Y-101710207D01*
X192104007Y-101748786D01*
X192225033Y-101869812D01*
X192225035Y-101869813D01*
X192225038Y-101869816D01*
X192377778Y-101965789D01*
X192548045Y-102025368D01*
X192682346Y-102040500D01*
X192682348Y-102040500D01*
X193372252Y-102040500D01*
X193372254Y-102040500D01*
X193506555Y-102025368D01*
X193676822Y-101965789D01*
X193829562Y-101869816D01*
X193854160Y-101845218D01*
X193950593Y-101748786D01*
X194025581Y-101701667D01*
X194091307Y-101690500D01*
X195125231Y-101690500D01*
X195211574Y-101710207D01*
X195280815Y-101765426D01*
X195319242Y-101845218D01*
X195323361Y-101870912D01*
X195324654Y-101884699D01*
X195369507Y-102012882D01*
X195369508Y-102012884D01*
X195369509Y-102012885D01*
X195450149Y-102122150D01*
X195559414Y-102202790D01*
X195559414Y-102202791D01*
X195559416Y-102202791D01*
X195559418Y-102202793D01*
X195569123Y-102206188D01*
X195644109Y-102253306D01*
X195691227Y-102328295D01*
X195701143Y-102416301D01*
X195671892Y-102499895D01*
X195609268Y-102562518D01*
X195558914Y-102585118D01*
X195512099Y-102598718D01*
X195370743Y-102682317D01*
X195254617Y-102798443D01*
X195171018Y-102939800D01*
X195125200Y-103097506D01*
X195122300Y-103134363D01*
X195122300Y-103250000D01*
X197372300Y-103250000D01*
X197372300Y-103134363D01*
X197369399Y-103097506D01*
X197323581Y-102939800D01*
X197239982Y-102798443D01*
X197123856Y-102682317D01*
X196982502Y-102598720D01*
X196935686Y-102585119D01*
X196858270Y-102542105D01*
X196807183Y-102469762D01*
X196792544Y-102382417D01*
X196817252Y-102297370D01*
X196876414Y-102231466D01*
X196925477Y-102206188D01*
X196935182Y-102202793D01*
X197044450Y-102122150D01*
X197125093Y-102012882D01*
X197169946Y-101884699D01*
X197172800Y-101854266D01*
X197172800Y-101245734D01*
X197169946Y-101215301D01*
X197125093Y-101087118D01*
X197062901Y-101002850D01*
X197044450Y-100977849D01*
X196935185Y-100897209D01*
X196935184Y-100897208D01*
X196935182Y-100897207D01*
X196806999Y-100852354D01*
X196776566Y-100849500D01*
X196776561Y-100849500D01*
X196224566Y-100849500D01*
X196152212Y-100832986D01*
X196151924Y-100833923D01*
X196139419Y-100830066D01*
X196138223Y-100829793D01*
X196138221Y-100829792D01*
X196137675Y-100829529D01*
X196137673Y-100829528D01*
X196137670Y-100829527D01*
X196137668Y-100829526D01*
X196082602Y-100812541D01*
X196079067Y-100811378D01*
X196024698Y-100792353D01*
X196016322Y-100790768D01*
X196007904Y-100789500D01*
X196007902Y-100789500D01*
X195950291Y-100789500D01*
X195946571Y-100789430D01*
X195892429Y-100787404D01*
X195888990Y-100787276D01*
X195888989Y-100787276D01*
X195874808Y-100788874D01*
X195863660Y-100789500D01*
X194091307Y-100789500D01*
X194004964Y-100769793D01*
X193950593Y-100731214D01*
X193829566Y-100610187D01*
X193829563Y-100610185D01*
X193829562Y-100610184D01*
X193676822Y-100514211D01*
X193676821Y-100514210D01*
X193676820Y-100514210D01*
X193506558Y-100454633D01*
X193506557Y-100454632D01*
X193506555Y-100454632D01*
X193372254Y-100439500D01*
X192682346Y-100439500D01*
X192548045Y-100454632D01*
X192548042Y-100454632D01*
X192548041Y-100454633D01*
X192377779Y-100514210D01*
X192377778Y-100514210D01*
X192225033Y-100610187D01*
X192104007Y-100731214D01*
X192029019Y-100778333D01*
X191963293Y-100789500D01*
X182662044Y-100789500D01*
X182650896Y-100788874D01*
X182614116Y-100784730D01*
X182614110Y-100784730D01*
X182557490Y-100795443D01*
X182553824Y-100796066D01*
X182496862Y-100804651D01*
X182488692Y-100807171D01*
X182480680Y-100809975D01*
X182429728Y-100836903D01*
X182426410Y-100838578D01*
X182392750Y-100854790D01*
X182306408Y-100874500D01*
X181779384Y-100874500D01*
X181748951Y-100877354D01*
X181620768Y-100922207D01*
X181620766Y-100922208D01*
X181620764Y-100922209D01*
X181511499Y-101002849D01*
X181430859Y-101112114D01*
X181430858Y-101112116D01*
X181430857Y-101112118D01*
X181386004Y-101240301D01*
X181383150Y-101270734D01*
X181383150Y-101904266D01*
X164100500Y-101904266D01*
X164100500Y-99000000D01*
X213394551Y-99000000D01*
X213414317Y-99251149D01*
X213473128Y-99496114D01*
X213569535Y-99728861D01*
X213569535Y-99728862D01*
X213701165Y-99943661D01*
X213864775Y-100135224D01*
X214056338Y-100298834D01*
X214056340Y-100298835D01*
X214056341Y-100298836D01*
X214271141Y-100430466D01*
X214503889Y-100526873D01*
X214748852Y-100585683D01*
X215000000Y-100605449D01*
X215251148Y-100585683D01*
X215496111Y-100526873D01*
X215728859Y-100430466D01*
X215943659Y-100298836D01*
X216135224Y-100135224D01*
X216162581Y-100103192D01*
X216233637Y-100050338D01*
X216320594Y-100033546D01*
X216406225Y-100056146D01*
X216454615Y-100091719D01*
X219411214Y-103048317D01*
X219458333Y-103123305D01*
X219469500Y-103189030D01*
X219469500Y-103554264D01*
X219472353Y-103584697D01*
X219517205Y-103712879D01*
X219517208Y-103712884D01*
X219597849Y-103822150D01*
X219686914Y-103887882D01*
X219707118Y-103902793D01*
X219835299Y-103947645D01*
X219835302Y-103947646D01*
X219865735Y-103950500D01*
X221494264Y-103950499D01*
X221494265Y-103950499D01*
X221509481Y-103949072D01*
X221524698Y-103947646D01*
X221652882Y-103902793D01*
X221762150Y-103822150D01*
X221842793Y-103712882D01*
X221887646Y-103584698D01*
X221890500Y-103554265D01*
X221890499Y-102445736D01*
X221887646Y-102415302D01*
X221846477Y-102297645D01*
X221842794Y-102287120D01*
X221842791Y-102287115D01*
X221762150Y-102177849D01*
X221652884Y-102097208D01*
X221652878Y-102097205D01*
X221524699Y-102052354D01*
X221524701Y-102052354D01*
X221514553Y-102051402D01*
X221494265Y-102049500D01*
X221494259Y-102049500D01*
X219865734Y-102049500D01*
X219835304Y-102052353D01*
X219823471Y-102054938D01*
X219822700Y-102051410D01*
X219757232Y-102058772D01*
X219673646Y-102029502D01*
X219638845Y-102001742D01*
X216654657Y-99017554D01*
X216607538Y-98942566D01*
X216596984Y-98892453D01*
X216585683Y-98748852D01*
X216526873Y-98503889D01*
X216430466Y-98271141D01*
X216298836Y-98056341D01*
X216298835Y-98056340D01*
X216298834Y-98056338D01*
X216135224Y-97864775D01*
X215943661Y-97701165D01*
X215728861Y-97569535D01*
X215496114Y-97473128D01*
X215496112Y-97473127D01*
X215496111Y-97473127D01*
X215364279Y-97441477D01*
X215251149Y-97414317D01*
X215000000Y-97394551D01*
X214748850Y-97414317D01*
X214503885Y-97473128D01*
X214271138Y-97569535D01*
X214271137Y-97569535D01*
X214056338Y-97701165D01*
X213864775Y-97864775D01*
X213701165Y-98056338D01*
X213569535Y-98271137D01*
X213569535Y-98271138D01*
X213473128Y-98503885D01*
X213414317Y-98748850D01*
X213394551Y-99000000D01*
X164100500Y-99000000D01*
X164100500Y-91593494D01*
X168070500Y-91593494D01*
X168109372Y-91776376D01*
X168109374Y-91776382D01*
X168109375Y-91776385D01*
X168185427Y-91947200D01*
X168269852Y-92063401D01*
X168295330Y-92098469D01*
X168434285Y-92223585D01*
X168434289Y-92223588D01*
X168596214Y-92317075D01*
X168596219Y-92317077D01*
X168714767Y-92355594D01*
X168774044Y-92374855D01*
X168913380Y-92389500D01*
X168913381Y-92389500D01*
X169006619Y-92389500D01*
X169006620Y-92389500D01*
X169145956Y-92374855D01*
X169231775Y-92346970D01*
X169323780Y-92317077D01*
X169323785Y-92317075D01*
X169485710Y-92223588D01*
X169485710Y-92223587D01*
X169485715Y-92223585D01*
X169624669Y-92098470D01*
X169734573Y-91947200D01*
X169810625Y-91776385D01*
X169849500Y-91593490D01*
X169849500Y-91406510D01*
X169849500Y-91406507D01*
X169849499Y-91406505D01*
X169810627Y-91223623D01*
X169810626Y-91223621D01*
X169810625Y-91223615D01*
X169734573Y-91052800D01*
X169624669Y-90901530D01*
X169485715Y-90776415D01*
X169485714Y-90776414D01*
X169485710Y-90776411D01*
X169323785Y-90682924D01*
X169323780Y-90682922D01*
X169145957Y-90625145D01*
X169006624Y-90610500D01*
X169006620Y-90610500D01*
X168913380Y-90610500D01*
X168913375Y-90610500D01*
X168774042Y-90625145D01*
X168774041Y-90625145D01*
X168596219Y-90682922D01*
X168596214Y-90682924D01*
X168434289Y-90776411D01*
X168434285Y-90776414D01*
X168295330Y-90901530D01*
X168185425Y-91052803D01*
X168109375Y-91223615D01*
X168109372Y-91223623D01*
X168070500Y-91406505D01*
X168070500Y-91593494D01*
X164100500Y-91593494D01*
X164100500Y-88500000D01*
X165944417Y-88500000D01*
X165964699Y-88705933D01*
X166024768Y-88903955D01*
X166122313Y-89086448D01*
X166122315Y-89086450D01*
X166253590Y-89246410D01*
X166389227Y-89357724D01*
X166413551Y-89377686D01*
X166596044Y-89475231D01*
X166596046Y-89475232D01*
X166794066Y-89535300D01*
X167000000Y-89555583D01*
X167205934Y-89535300D01*
X167403954Y-89475232D01*
X167586450Y-89377685D01*
X167746410Y-89246410D01*
X167877685Y-89086450D01*
X167975232Y-88903954D01*
X168035300Y-88705934D01*
X168055583Y-88500000D01*
X168035300Y-88294066D01*
X167975232Y-88096046D01*
X167877685Y-87913550D01*
X167746410Y-87753590D01*
X167586450Y-87622315D01*
X167586451Y-87622315D01*
X167586448Y-87622313D01*
X167403955Y-87524768D01*
X167205933Y-87464699D01*
X167000000Y-87444417D01*
X166794066Y-87464699D01*
X166596044Y-87524768D01*
X166413551Y-87622313D01*
X166253590Y-87753590D01*
X166122313Y-87913551D01*
X166024768Y-88096044D01*
X165964699Y-88294066D01*
X165944417Y-88500000D01*
X164100500Y-88500000D01*
X164100500Y-85499999D01*
X165944417Y-85499999D01*
X165964699Y-85705933D01*
X166024768Y-85903955D01*
X166122313Y-86086448D01*
X166122315Y-86086450D01*
X166253590Y-86246410D01*
X166357650Y-86331809D01*
X166413551Y-86377686D01*
X166596044Y-86475231D01*
X166596046Y-86475232D01*
X166794066Y-86535300D01*
X167000000Y-86555583D01*
X167205934Y-86535300D01*
X167403954Y-86475232D01*
X167586450Y-86377685D01*
X167746410Y-86246410D01*
X167877685Y-86086450D01*
X167975232Y-85903954D01*
X168035300Y-85705934D01*
X168055583Y-85500000D01*
X168035300Y-85294066D01*
X167975232Y-85096046D01*
X167958185Y-85064154D01*
X167877686Y-84913551D01*
X167846869Y-84876000D01*
X167746410Y-84753590D01*
X167635094Y-84662236D01*
X167586448Y-84622313D01*
X167403955Y-84524768D01*
X167205933Y-84464699D01*
X167020282Y-84446414D01*
X167000000Y-84444417D01*
X166999999Y-84444417D01*
X166794066Y-84464699D01*
X166596044Y-84524768D01*
X166413551Y-84622313D01*
X166253590Y-84753590D01*
X166122313Y-84913551D01*
X166024768Y-85096044D01*
X165964699Y-85294066D01*
X165944417Y-85499999D01*
X164100500Y-85499999D01*
X164100500Y-82500000D01*
X165944417Y-82500000D01*
X165964699Y-82705933D01*
X166024768Y-82903955D01*
X166122313Y-83086448D01*
X166122315Y-83086450D01*
X166253590Y-83246410D01*
X166389227Y-83357724D01*
X166413551Y-83377686D01*
X166587257Y-83470534D01*
X166596046Y-83475232D01*
X166794066Y-83535300D01*
X167000000Y-83555583D01*
X167205934Y-83535300D01*
X167403954Y-83475232D01*
X167586450Y-83377685D01*
X167746410Y-83246410D01*
X167877685Y-83086450D01*
X167894126Y-83055692D01*
X167952207Y-82988834D01*
X168033546Y-82953798D01*
X168069628Y-82950500D01*
X172003600Y-82950500D01*
X172089943Y-82970207D01*
X172159184Y-83025426D01*
X172197611Y-83105218D01*
X172202600Y-83149500D01*
X172202600Y-83178749D01*
X172214233Y-83237232D01*
X172258547Y-83303552D01*
X172324867Y-83347866D01*
X172324869Y-83347867D01*
X172360084Y-83354871D01*
X172383350Y-83359500D01*
X172383352Y-83359500D01*
X172452170Y-83359500D01*
X172538513Y-83379207D01*
X172607754Y-83434426D01*
X172616594Y-83446403D01*
X172628396Y-83463713D01*
X172633431Y-83470534D01*
X172633432Y-83470535D01*
X172633434Y-83470538D01*
X172674194Y-83511298D01*
X172676749Y-83513951D01*
X172715944Y-83556193D01*
X172727101Y-83565090D01*
X172735418Y-83572522D01*
X173562511Y-84399614D01*
X174397101Y-85234204D01*
X174404541Y-85242529D01*
X174427621Y-85271470D01*
X174427623Y-85271472D01*
X174475234Y-85303932D01*
X174478269Y-85306086D01*
X174524615Y-85340291D01*
X174524618Y-85340293D01*
X174524620Y-85340293D01*
X174532185Y-85344292D01*
X174539824Y-85347970D01*
X174539827Y-85347972D01*
X174539829Y-85347972D01*
X174539830Y-85347973D01*
X174594910Y-85364962D01*
X174598398Y-85366109D01*
X174652801Y-85385146D01*
X174652803Y-85385146D01*
X174661185Y-85386732D01*
X174669597Y-85388000D01*
X174669598Y-85388000D01*
X174727209Y-85388000D01*
X174730929Y-85388070D01*
X174752269Y-85388867D01*
X174788510Y-85390224D01*
X174788516Y-85390222D01*
X174802692Y-85388626D01*
X174813840Y-85388000D01*
X175482256Y-85388000D01*
X175568599Y-85407707D01*
X175637840Y-85462926D01*
X175642371Y-85468830D01*
X175727849Y-85584650D01*
X175830456Y-85660376D01*
X175837118Y-85665293D01*
X175965301Y-85710146D01*
X175995734Y-85713000D01*
X176555968Y-85713000D01*
X176642311Y-85732707D01*
X176696682Y-85771286D01*
X178222105Y-87296709D01*
X178229545Y-87305034D01*
X178247740Y-87327850D01*
X178252622Y-87333971D01*
X178300219Y-87366422D01*
X178303253Y-87368575D01*
X178338368Y-87394490D01*
X178349617Y-87402792D01*
X178349619Y-87402792D01*
X178357199Y-87406798D01*
X178364824Y-87410470D01*
X178364827Y-87410472D01*
X178419930Y-87427468D01*
X178423365Y-87428598D01*
X178465892Y-87443479D01*
X178477799Y-87447646D01*
X178486172Y-87449230D01*
X178494598Y-87450500D01*
X178552208Y-87450500D01*
X178555928Y-87450570D01*
X178577295Y-87451368D01*
X178613510Y-87452724D01*
X178613516Y-87452722D01*
X178627692Y-87451126D01*
X178638840Y-87450500D01*
X202640500Y-87450500D01*
X202726843Y-87470207D01*
X202796084Y-87525426D01*
X202834511Y-87605218D01*
X202839500Y-87649499D01*
X202839500Y-89704276D01*
X202842353Y-89734702D01*
X202887206Y-89862884D01*
X202967849Y-89972151D01*
X203077116Y-90052794D01*
X203205298Y-90097647D01*
X203235724Y-90100500D01*
X203235728Y-90100500D01*
X209244272Y-90100500D01*
X209244276Y-90100500D01*
X209274702Y-90097647D01*
X209402884Y-90052794D01*
X209512151Y-89972151D01*
X209592794Y-89862884D01*
X209637647Y-89734702D01*
X209640500Y-89704276D01*
X209640500Y-89684266D01*
X211239500Y-89684266D01*
X211242354Y-89714699D01*
X211287207Y-89842882D01*
X211287208Y-89842884D01*
X211287209Y-89842885D01*
X211367849Y-89952150D01*
X211470456Y-90027876D01*
X211477118Y-90032793D01*
X211605301Y-90077646D01*
X211635734Y-90080500D01*
X211635739Y-90080500D01*
X213444261Y-90080500D01*
X213444266Y-90080500D01*
X213474699Y-90077646D01*
X213602882Y-90032793D01*
X213712150Y-89952150D01*
X213792793Y-89842882D01*
X213792794Y-89842877D01*
X213796154Y-89836521D01*
X213853920Y-89769390D01*
X213935092Y-89733971D01*
X213972097Y-89730500D01*
X214279106Y-89730500D01*
X214290255Y-89731126D01*
X214327035Y-89735270D01*
X214383700Y-89724547D01*
X214387280Y-89723939D01*
X214444287Y-89715348D01*
X214444290Y-89715346D01*
X214452424Y-89712837D01*
X214460463Y-89710024D01*
X214460472Y-89710023D01*
X214511469Y-89683068D01*
X214514686Y-89681444D01*
X214566642Y-89656425D01*
X214566649Y-89656418D01*
X214573681Y-89651624D01*
X214580530Y-89646569D01*
X214580538Y-89646566D01*
X214621309Y-89605793D01*
X214623949Y-89603250D01*
X214666194Y-89564055D01*
X214666196Y-89564051D01*
X214675092Y-89552896D01*
X214682519Y-89544583D01*
X215368317Y-88858786D01*
X215443307Y-88811667D01*
X215509032Y-88800500D01*
X216094261Y-88800500D01*
X216094266Y-88800500D01*
X216124699Y-88797646D01*
X216252882Y-88752793D01*
X216362150Y-88672150D01*
X216442793Y-88562882D01*
X216442794Y-88562877D01*
X216446154Y-88556521D01*
X216503920Y-88489390D01*
X216585092Y-88453971D01*
X216622097Y-88450500D01*
X218969106Y-88450500D01*
X218980255Y-88451126D01*
X219017035Y-88455270D01*
X219073700Y-88444547D01*
X219077280Y-88443939D01*
X219134287Y-88435348D01*
X219134290Y-88435346D01*
X219142424Y-88432837D01*
X219150463Y-88430024D01*
X219150472Y-88430023D01*
X219201469Y-88403068D01*
X219204686Y-88401444D01*
X219256642Y-88376425D01*
X219256649Y-88376418D01*
X219263681Y-88371624D01*
X219270530Y-88366569D01*
X219270538Y-88366566D01*
X219311322Y-88325780D01*
X219313934Y-88323265D01*
X219356194Y-88284055D01*
X219356196Y-88284050D01*
X219365093Y-88272895D01*
X219372527Y-88264575D01*
X220628317Y-87008786D01*
X220703306Y-86961667D01*
X220769031Y-86950500D01*
X220988204Y-86950500D01*
X220988206Y-86950500D01*
X221132321Y-86935845D01*
X221316768Y-86877974D01*
X221485791Y-86784159D01*
X221632468Y-86658240D01*
X221750796Y-86505373D01*
X221835930Y-86331816D01*
X221884385Y-86144674D01*
X221894176Y-85951610D01*
X221864903Y-85760526D01*
X221797764Y-85579247D01*
X221695509Y-85415193D01*
X221562323Y-85275081D01*
X221562322Y-85275080D01*
X221562321Y-85275079D01*
X221403658Y-85164647D01*
X221226012Y-85088413D01*
X221226011Y-85088412D01*
X221036656Y-85049500D01*
X220371794Y-85049500D01*
X220335003Y-85053241D01*
X220227683Y-85064154D01*
X220227670Y-85064157D01*
X220043236Y-85122024D01*
X220043227Y-85122028D01*
X219966443Y-85164647D01*
X219874209Y-85215841D01*
X219874206Y-85215842D01*
X219874205Y-85215844D01*
X219727530Y-85341761D01*
X219609210Y-85494617D01*
X219609206Y-85494623D01*
X219524068Y-85668188D01*
X219524067Y-85668190D01*
X219475616Y-85855320D01*
X219475615Y-85855322D01*
X219475615Y-85855326D01*
X219473149Y-85903954D01*
X219465824Y-86048389D01*
X219495096Y-86239474D01*
X219495097Y-86239475D01*
X219562236Y-86420754D01*
X219624476Y-86520609D01*
X219653423Y-86604308D01*
X219643188Y-86692278D01*
X219596309Y-86766586D01*
X218871683Y-87491214D01*
X218796695Y-87538333D01*
X218730969Y-87549500D01*
X216622097Y-87549500D01*
X216535754Y-87529793D01*
X216466513Y-87474574D01*
X216446154Y-87443479D01*
X216442790Y-87437113D01*
X216362150Y-87327849D01*
X216293112Y-87276897D01*
X216235343Y-87209768D01*
X216212421Y-87124223D01*
X216228886Y-87037204D01*
X216281477Y-86965946D01*
X216309983Y-86945494D01*
X216441557Y-86867681D01*
X216557682Y-86751556D01*
X216641281Y-86610199D01*
X216687099Y-86452493D01*
X216690000Y-86415636D01*
X216690000Y-86200000D01*
X214490000Y-86200000D01*
X214490000Y-86415636D01*
X214492900Y-86452493D01*
X214538718Y-86610199D01*
X214622317Y-86751556D01*
X214738442Y-86867681D01*
X214870016Y-86945494D01*
X214934303Y-87006409D01*
X214965794Y-87089185D01*
X214958251Y-87177426D01*
X214913169Y-87253657D01*
X214886888Y-87276896D01*
X214817850Y-87327848D01*
X214737209Y-87437114D01*
X214737208Y-87437116D01*
X214737207Y-87437118D01*
X214697883Y-87549500D01*
X214692354Y-87565301D01*
X214689499Y-87595739D01*
X214689499Y-88180969D01*
X214669792Y-88267312D01*
X214631213Y-88321683D01*
X214181683Y-88771214D01*
X214106695Y-88818333D01*
X214040969Y-88829500D01*
X213972097Y-88829500D01*
X213885754Y-88809793D01*
X213816513Y-88754574D01*
X213796154Y-88723479D01*
X213792790Y-88717113D01*
X213712150Y-88607849D01*
X213602885Y-88527209D01*
X213602884Y-88527208D01*
X213602882Y-88527207D01*
X213474699Y-88482354D01*
X213444266Y-88479500D01*
X211635734Y-88479500D01*
X211605301Y-88482354D01*
X211477118Y-88527207D01*
X211477116Y-88527208D01*
X211477114Y-88527209D01*
X211367849Y-88607849D01*
X211287209Y-88717114D01*
X211287208Y-88717116D01*
X211287207Y-88717118D01*
X211242354Y-88845301D01*
X211239500Y-88875734D01*
X211239500Y-89684266D01*
X209640500Y-89684266D01*
X209640500Y-85800000D01*
X214490000Y-85800000D01*
X215390000Y-85800000D01*
X215390000Y-85000000D01*
X215790000Y-85000000D01*
X215790000Y-85800000D01*
X216690000Y-85800000D01*
X216690000Y-85584363D01*
X216687099Y-85547506D01*
X216641281Y-85389800D01*
X216557682Y-85248443D01*
X216441556Y-85132317D01*
X216300199Y-85048718D01*
X216142492Y-85002900D01*
X216142494Y-85002900D01*
X216105637Y-85000000D01*
X215790000Y-85000000D01*
X215390000Y-85000000D01*
X215074363Y-85000000D01*
X215037506Y-85002900D01*
X214879800Y-85048718D01*
X214738443Y-85132317D01*
X214622317Y-85248443D01*
X214538718Y-85389800D01*
X214492900Y-85547506D01*
X214490000Y-85584363D01*
X214490000Y-85800000D01*
X209640500Y-85800000D01*
X209640500Y-84920000D01*
X211040000Y-84920000D01*
X211040000Y-85135636D01*
X211042900Y-85172493D01*
X211088718Y-85330199D01*
X211172317Y-85471556D01*
X211288443Y-85587682D01*
X211429800Y-85671281D01*
X211587507Y-85717099D01*
X211587505Y-85717099D01*
X211624363Y-85720000D01*
X212340000Y-85720000D01*
X212340000Y-84920000D01*
X212740000Y-84920000D01*
X212740000Y-85720000D01*
X213455637Y-85720000D01*
X213492493Y-85717099D01*
X213650199Y-85671281D01*
X213791556Y-85587682D01*
X213907682Y-85471556D01*
X213991281Y-85330199D01*
X214037099Y-85172493D01*
X214040000Y-85135636D01*
X214040000Y-84920000D01*
X212740000Y-84920000D01*
X212340000Y-84920000D01*
X211040000Y-84920000D01*
X209640500Y-84920000D01*
X209640500Y-84631483D01*
X223245500Y-84631483D01*
X223284690Y-84891503D01*
X223333185Y-85048718D01*
X223362202Y-85142788D01*
X223476298Y-85379710D01*
X223624430Y-85596980D01*
X223803290Y-85789746D01*
X223803292Y-85789748D01*
X224008883Y-85953701D01*
X224008884Y-85953702D01*
X224236613Y-86085182D01*
X224236616Y-86085183D01*
X224481402Y-86181254D01*
X224737772Y-86239769D01*
X224934346Y-86254500D01*
X224934348Y-86254500D01*
X225065652Y-86254500D01*
X225065654Y-86254500D01*
X225262228Y-86239769D01*
X225518598Y-86181254D01*
X225763384Y-86085183D01*
X225991117Y-85953701D01*
X226196710Y-85789746D01*
X226375570Y-85596980D01*
X226523702Y-85379710D01*
X226637798Y-85142788D01*
X226715308Y-84891508D01*
X226717646Y-84876000D01*
X226754500Y-84631483D01*
X226754500Y-84368516D01*
X226715309Y-84108496D01*
X226696952Y-84048985D01*
X226637798Y-83857212D01*
X226523702Y-83620290D01*
X226375570Y-83403020D01*
X226196710Y-83210254D01*
X226196708Y-83210252D01*
X226196707Y-83210251D01*
X225991116Y-83046298D01*
X225991115Y-83046297D01*
X225763386Y-82914817D01*
X225763377Y-82914814D01*
X225518601Y-82818747D01*
X225518599Y-82818746D01*
X225518598Y-82818746D01*
X225518594Y-82818745D01*
X225262231Y-82760231D01*
X225144283Y-82751392D01*
X225065654Y-82745500D01*
X224934346Y-82745500D01*
X224868821Y-82750410D01*
X224737768Y-82760231D01*
X224481405Y-82818745D01*
X224481398Y-82818747D01*
X224236622Y-82914814D01*
X224236613Y-82914817D01*
X224008884Y-83046297D01*
X224008883Y-83046298D01*
X223803292Y-83210251D01*
X223803287Y-83210257D01*
X223624429Y-83403021D01*
X223476297Y-83620291D01*
X223457104Y-83660146D01*
X223364560Y-83852317D01*
X223362201Y-83857215D01*
X223284690Y-84108496D01*
X223245500Y-84368516D01*
X223245500Y-84631483D01*
X209640500Y-84631483D01*
X209640500Y-84520000D01*
X211040000Y-84520000D01*
X212340000Y-84520000D01*
X212340000Y-83720000D01*
X212740000Y-83720000D01*
X212740000Y-84520000D01*
X214040000Y-84520000D01*
X214040000Y-84304363D01*
X214037099Y-84267506D01*
X213991281Y-84109800D01*
X213907682Y-83968443D01*
X213791556Y-83852317D01*
X213650199Y-83768718D01*
X213492492Y-83722900D01*
X213492494Y-83722900D01*
X213455637Y-83720000D01*
X212740000Y-83720000D01*
X212340000Y-83720000D01*
X211624363Y-83720000D01*
X211587506Y-83722900D01*
X211429800Y-83768718D01*
X211288443Y-83852317D01*
X211172317Y-83968443D01*
X211088718Y-84109800D01*
X211042900Y-84267506D01*
X211040000Y-84304363D01*
X211040000Y-84520000D01*
X209640500Y-84520000D01*
X209640500Y-84295724D01*
X209637647Y-84265298D01*
X209592794Y-84137116D01*
X209512151Y-84027849D01*
X209402884Y-83947206D01*
X209274702Y-83902353D01*
X209244276Y-83899500D01*
X209244272Y-83899500D01*
X205022000Y-83899500D01*
X204935657Y-83879793D01*
X204866416Y-83824574D01*
X204827989Y-83744782D01*
X204823000Y-83700500D01*
X204823000Y-83554265D01*
X219469500Y-83554265D01*
X219472353Y-83584697D01*
X219517205Y-83712879D01*
X219517208Y-83712884D01*
X219597849Y-83822150D01*
X219702656Y-83899500D01*
X219707118Y-83902793D01*
X219835299Y-83947645D01*
X219835302Y-83947646D01*
X219865735Y-83950500D01*
X221494264Y-83950499D01*
X221494265Y-83950499D01*
X221509481Y-83949072D01*
X221524698Y-83947646D01*
X221652882Y-83902793D01*
X221762150Y-83822150D01*
X221842793Y-83712882D01*
X221887646Y-83584698D01*
X221890500Y-83554265D01*
X221890499Y-82445736D01*
X221887646Y-82415302D01*
X221887645Y-82415299D01*
X221842794Y-82287120D01*
X221842791Y-82287115D01*
X221762150Y-82177849D01*
X221652884Y-82097208D01*
X221652878Y-82097205D01*
X221524699Y-82052354D01*
X221524701Y-82052354D01*
X221514553Y-82051402D01*
X221494265Y-82049500D01*
X221494259Y-82049500D01*
X219865734Y-82049500D01*
X219835302Y-82052353D01*
X219707120Y-82097205D01*
X219707115Y-82097208D01*
X219597849Y-82177849D01*
X219517208Y-82287115D01*
X219517205Y-82287121D01*
X219472354Y-82415299D01*
X219472354Y-82415302D01*
X219469501Y-82445734D01*
X219469500Y-82445740D01*
X219469500Y-83554265D01*
X204823000Y-83554265D01*
X204823000Y-82148777D01*
X204842707Y-82062434D01*
X204897926Y-81993193D01*
X204977718Y-81954766D01*
X205066282Y-81954766D01*
X205077520Y-81957679D01*
X205213686Y-81997239D01*
X205248763Y-82000000D01*
X205330000Y-82000000D01*
X205330000Y-81200000D01*
X205730000Y-81200000D01*
X205730000Y-82000000D01*
X205811237Y-82000000D01*
X205846313Y-81997239D01*
X205996438Y-81953623D01*
X206130999Y-81874045D01*
X206241545Y-81763499D01*
X206321123Y-81628938D01*
X206364739Y-81478813D01*
X206367500Y-81443736D01*
X206367500Y-81200000D01*
X205730000Y-81200000D01*
X205330000Y-81200000D01*
X204674519Y-81200000D01*
X204647906Y-81216721D01*
X204559900Y-81226635D01*
X204547110Y-81224772D01*
X204475112Y-81211880D01*
X204429750Y-81207881D01*
X204429745Y-81207881D01*
X204331995Y-81227459D01*
X204318391Y-81233115D01*
X204231098Y-81248062D01*
X204145964Y-81223654D01*
X204079852Y-81164726D01*
X204045855Y-81082947D01*
X204043000Y-81049361D01*
X204043000Y-80951725D01*
X204062707Y-80865382D01*
X204117926Y-80796141D01*
X204197718Y-80757714D01*
X204286282Y-80757714D01*
X204316510Y-80767201D01*
X204319707Y-80768492D01*
X204319713Y-80768494D01*
X204319715Y-80768495D01*
X204362668Y-80783648D01*
X204462217Y-80788983D01*
X204531375Y-80779039D01*
X204536736Y-80777771D01*
X204625296Y-80777090D01*
X204673819Y-80800000D01*
X205330000Y-80800000D01*
X205330000Y-80000000D01*
X205730000Y-80000000D01*
X205730000Y-80800000D01*
X206367500Y-80800000D01*
X206367500Y-80556263D01*
X206364739Y-80521186D01*
X206321123Y-80371061D01*
X206241545Y-80236500D01*
X206130999Y-80125954D01*
X205996438Y-80046376D01*
X205846313Y-80002760D01*
X205811237Y-80000000D01*
X205730000Y-80000000D01*
X205330000Y-80000000D01*
X205248763Y-80000000D01*
X205213689Y-80002759D01*
X205077519Y-80042321D01*
X204989106Y-80047485D01*
X204907209Y-80013776D01*
X204848047Y-79947872D01*
X204823339Y-79862826D01*
X204823000Y-79851222D01*
X204823000Y-78911188D01*
X204842707Y-78824845D01*
X204897926Y-78755604D01*
X204977718Y-78717177D01*
X205066282Y-78717177D01*
X205112344Y-78733878D01*
X205212580Y-78784951D01*
X205310754Y-78800500D01*
X205814246Y-78800500D01*
X205912420Y-78784951D01*
X206030751Y-78724658D01*
X206124658Y-78630751D01*
X206157120Y-78567042D01*
X206161138Y-78559156D01*
X206217896Y-78491171D01*
X206298531Y-78454545D01*
X206338448Y-78450500D01*
X206700622Y-78450500D01*
X206786965Y-78470207D01*
X206821765Y-78491623D01*
X206864656Y-78524534D01*
X206864659Y-78524536D01*
X207010738Y-78585044D01*
X207167500Y-78605682D01*
X207324262Y-78585044D01*
X207470341Y-78524536D01*
X207470341Y-78524535D01*
X207470343Y-78524535D01*
X207517210Y-78488572D01*
X207595782Y-78428282D01*
X207669679Y-78331976D01*
X207692035Y-78302843D01*
X207692036Y-78302840D01*
X207752544Y-78156762D01*
X207773182Y-78000000D01*
X207752544Y-77843238D01*
X207692036Y-77697159D01*
X207692035Y-77697156D01*
X207637594Y-77626209D01*
X207595782Y-77571718D01*
X207541144Y-77529793D01*
X207470343Y-77475464D01*
X207470340Y-77475463D01*
X207324264Y-77414957D01*
X207324262Y-77414956D01*
X207167500Y-77394318D01*
X207010737Y-77414956D01*
X207010735Y-77414957D01*
X206864659Y-77475463D01*
X206864656Y-77475465D01*
X206821765Y-77508377D01*
X206741268Y-77545305D01*
X206700622Y-77549500D01*
X206338448Y-77549500D01*
X206252105Y-77529793D01*
X206182864Y-77474574D01*
X206161138Y-77440844D01*
X206124658Y-77369248D01*
X206030751Y-77275341D01*
X205912423Y-77215050D01*
X205912417Y-77215048D01*
X205814246Y-77199500D01*
X205310754Y-77199500D01*
X205212582Y-77215048D01*
X205212579Y-77215049D01*
X205112343Y-77266122D01*
X205026464Y-77287761D01*
X204939701Y-77269996D01*
X204869238Y-77216344D01*
X204829032Y-77137434D01*
X204823000Y-77088811D01*
X204823000Y-75423999D01*
X204820387Y-75399697D01*
X204817161Y-75369687D01*
X204805955Y-75318176D01*
X204798719Y-75291802D01*
X204762130Y-75227548D01*
X204749389Y-75205173D01*
X204742851Y-75197628D01*
X204703633Y-75152368D01*
X204670859Y-75120743D01*
X204670858Y-75120742D01*
X204582524Y-75074535D01*
X204582522Y-75074534D01*
X204515494Y-75054852D01*
X204515473Y-75054847D01*
X204443505Y-75044500D01*
X204443500Y-75044500D01*
X199322742Y-75044500D01*
X199319194Y-75044563D01*
X199318177Y-75044581D01*
X199307054Y-75044979D01*
X199307052Y-75044979D01*
X199226890Y-75060925D01*
X199161421Y-75085344D01*
X199120342Y-75104998D01*
X199046178Y-75171613D01*
X199004310Y-75227540D01*
X198980366Y-75266300D01*
X198953992Y-75362440D01*
X198953991Y-75362448D01*
X198951327Y-75399697D01*
X198925510Y-75484414D01*
X198865493Y-75549540D01*
X198783162Y-75582175D01*
X198752834Y-75584500D01*
X198145734Y-75584500D01*
X198115301Y-75587354D01*
X197987118Y-75632207D01*
X197987116Y-75632208D01*
X197987114Y-75632209D01*
X197877849Y-75712849D01*
X197797209Y-75822114D01*
X197797208Y-75822116D01*
X197797207Y-75822118D01*
X197752354Y-75950301D01*
X197751082Y-75963872D01*
X197749500Y-75980739D01*
X197749500Y-76930425D01*
X197729793Y-77016768D01*
X197674574Y-77086009D01*
X197594782Y-77124436D01*
X197539852Y-77129140D01*
X197472780Y-77125545D01*
X197463012Y-77125982D01*
X197462905Y-77123605D01*
X197389524Y-77117593D01*
X197313135Y-77072779D01*
X197263755Y-76999260D01*
X197250500Y-76927846D01*
X197250500Y-75980739D01*
X197250500Y-75980734D01*
X197247646Y-75950301D01*
X197202793Y-75822118D01*
X197169060Y-75776411D01*
X197122150Y-75712849D01*
X197012885Y-75632209D01*
X197012884Y-75632208D01*
X197012882Y-75632207D01*
X196884699Y-75587354D01*
X196854266Y-75584500D01*
X196245734Y-75584500D01*
X196215301Y-75587354D01*
X196087118Y-75632207D01*
X196087116Y-75632208D01*
X196087114Y-75632209D01*
X195977849Y-75712849D01*
X195897209Y-75822114D01*
X195897208Y-75822116D01*
X195897207Y-75822118D01*
X195860777Y-75926228D01*
X195813660Y-76001214D01*
X195738672Y-76048333D01*
X195672946Y-76059500D01*
X194482875Y-76059500D01*
X194396532Y-76039793D01*
X194327291Y-75984574D01*
X194299023Y-75936653D01*
X194230467Y-75771142D01*
X194230464Y-75771137D01*
X194098834Y-75556338D01*
X193935224Y-75364775D01*
X193743661Y-75201165D01*
X193528861Y-75069535D01*
X193493408Y-75054850D01*
X193432451Y-75029601D01*
X193296114Y-74973128D01*
X193296112Y-74973127D01*
X193296111Y-74973127D01*
X193164279Y-74941477D01*
X193051149Y-74914317D01*
X192800000Y-74894551D01*
X192548850Y-74914317D01*
X192303885Y-74973128D01*
X192071138Y-75069535D01*
X192071137Y-75069535D01*
X191856338Y-75201165D01*
X191664775Y-75364775D01*
X191501165Y-75556338D01*
X191369535Y-75771137D01*
X191369535Y-75771138D01*
X191273128Y-76003885D01*
X191214317Y-76248850D01*
X191194551Y-76499999D01*
X191214317Y-76751149D01*
X191220376Y-76776385D01*
X191267956Y-76974574D01*
X191273128Y-76996114D01*
X191302563Y-77067176D01*
X191368810Y-77227112D01*
X191369535Y-77228861D01*
X191369535Y-77228862D01*
X191501165Y-77443661D01*
X191664775Y-77635224D01*
X191856338Y-77798834D01*
X191856340Y-77798835D01*
X191856341Y-77798836D01*
X192071141Y-77930466D01*
X192303889Y-78026873D01*
X192548852Y-78085683D01*
X192800000Y-78105449D01*
X193051148Y-78085683D01*
X193296111Y-78026873D01*
X193528859Y-77930466D01*
X193743659Y-77798836D01*
X193935224Y-77635224D01*
X194098836Y-77443659D01*
X194230466Y-77228859D01*
X194290739Y-77083345D01*
X194341988Y-77011117D01*
X194419500Y-76968278D01*
X194474591Y-76960500D01*
X195672946Y-76960500D01*
X195759289Y-76980207D01*
X195828530Y-77035426D01*
X195860776Y-77093769D01*
X195897207Y-77197882D01*
X195897208Y-77197884D01*
X195897209Y-77197885D01*
X195977848Y-77307148D01*
X195977849Y-77307148D01*
X195977850Y-77307150D01*
X196018670Y-77337276D01*
X196076438Y-77404402D01*
X196099361Y-77489947D01*
X196099500Y-77497391D01*
X196099500Y-78371468D01*
X196079793Y-78457811D01*
X196057966Y-78488572D01*
X196058836Y-78489153D01*
X196003633Y-78571767D01*
X195992000Y-78630250D01*
X195992000Y-78852385D01*
X195972293Y-78938728D01*
X195933714Y-78993099D01*
X195864859Y-79061953D01*
X195864858Y-79061954D01*
X195807335Y-79174849D01*
X195807334Y-79174851D01*
X195792500Y-79268519D01*
X195792500Y-79300000D01*
X196482164Y-79300000D01*
X196493306Y-79300625D01*
X196496608Y-79300996D01*
X196513484Y-79302898D01*
X196597074Y-79332140D01*
X196659703Y-79394759D01*
X196688960Y-79478350D01*
X196679051Y-79566358D01*
X196631938Y-79641350D01*
X196556953Y-79688475D01*
X196506127Y-79699087D01*
X196498733Y-79699642D01*
X196497701Y-79699720D01*
X196490248Y-79700000D01*
X195792501Y-79700000D01*
X195792501Y-79731476D01*
X195807335Y-79825149D01*
X195864858Y-79938045D01*
X195933714Y-80006901D01*
X195980833Y-80081889D01*
X195992000Y-80147615D01*
X195992000Y-80369749D01*
X196003633Y-80428232D01*
X196033462Y-80472873D01*
X196065046Y-80555613D01*
X196067000Y-80583432D01*
X196067000Y-82850500D01*
X196047293Y-82936843D01*
X195992074Y-83006084D01*
X195912282Y-83044511D01*
X195868000Y-83049500D01*
X189979180Y-83049500D01*
X189892837Y-83029793D01*
X189823596Y-82974574D01*
X189785169Y-82894782D01*
X189785169Y-82806218D01*
X189802848Y-82758262D01*
X189813292Y-82738293D01*
X189825465Y-82715024D01*
X189845150Y-82647985D01*
X189855500Y-82576000D01*
X189855500Y-76224000D01*
X189855459Y-76223623D01*
X189854949Y-76218876D01*
X189849661Y-76169687D01*
X189838455Y-76118176D01*
X189831219Y-76091802D01*
X189781888Y-76005172D01*
X189736133Y-75952368D01*
X189703359Y-75920743D01*
X189703358Y-75920742D01*
X189615024Y-75874535D01*
X189615022Y-75874534D01*
X189547994Y-75854852D01*
X189547973Y-75854847D01*
X189476005Y-75844500D01*
X189476000Y-75844500D01*
X185524000Y-75844500D01*
X185523999Y-75844500D01*
X185469678Y-75850340D01*
X185418188Y-75861542D01*
X185418184Y-75861543D01*
X185418176Y-75861545D01*
X185401535Y-75866110D01*
X185391801Y-75868781D01*
X185391797Y-75868783D01*
X185305173Y-75918110D01*
X185252362Y-75963872D01*
X185220742Y-75996641D01*
X185174535Y-76084975D01*
X185174534Y-76084977D01*
X185154852Y-76152005D01*
X185154847Y-76152026D01*
X185144500Y-76223994D01*
X185144500Y-82576000D01*
X185150340Y-82630321D01*
X185154183Y-82647985D01*
X185161545Y-82681824D01*
X185168160Y-82705933D01*
X185168781Y-82708198D01*
X185168782Y-82708200D01*
X185193739Y-82752027D01*
X185219339Y-82836809D01*
X185205619Y-82924303D01*
X185155295Y-82997180D01*
X185078335Y-83041004D01*
X185020811Y-83049500D01*
X182864031Y-83049500D01*
X182777688Y-83029793D01*
X182723317Y-82991214D01*
X181658271Y-81926168D01*
X181611152Y-81851180D01*
X181601236Y-81763173D01*
X181620205Y-81698055D01*
X181640573Y-81656393D01*
X181650500Y-81588260D01*
X181650500Y-81221740D01*
X181640573Y-81153607D01*
X181589198Y-81048517D01*
X181506483Y-80965802D01*
X181506482Y-80965801D01*
X181486059Y-80955817D01*
X181471663Y-80948780D01*
X181402750Y-80893155D01*
X181364795Y-80813137D01*
X181365317Y-80724575D01*
X181404213Y-80645010D01*
X181471663Y-80591219D01*
X181506483Y-80574198D01*
X181589198Y-80491483D01*
X181640573Y-80386393D01*
X181650500Y-80318260D01*
X181650500Y-79951740D01*
X181640573Y-79883607D01*
X181589198Y-79778517D01*
X181506483Y-79695802D01*
X181506482Y-79695801D01*
X181486059Y-79685817D01*
X181471663Y-79678780D01*
X181402750Y-79623155D01*
X181364795Y-79543137D01*
X181365317Y-79454575D01*
X181404213Y-79375010D01*
X181471663Y-79321219D01*
X181506483Y-79304198D01*
X181589198Y-79221483D01*
X181640573Y-79116393D01*
X181650500Y-79048260D01*
X181650500Y-78681740D01*
X181640573Y-78613607D01*
X181589198Y-78508517D01*
X181506483Y-78425802D01*
X181506482Y-78425801D01*
X181486059Y-78415817D01*
X181471663Y-78408780D01*
X181402750Y-78353155D01*
X181364795Y-78273137D01*
X181365317Y-78184575D01*
X181404213Y-78105010D01*
X181471663Y-78051219D01*
X181506483Y-78034198D01*
X181589198Y-77951483D01*
X181640573Y-77846393D01*
X181650500Y-77778260D01*
X181650500Y-77411740D01*
X181640573Y-77343607D01*
X181589198Y-77238517D01*
X181506483Y-77155802D01*
X181506482Y-77155801D01*
X181401392Y-77104426D01*
X181333265Y-77094500D01*
X181333260Y-77094500D01*
X180648787Y-77094500D01*
X180590132Y-77085659D01*
X180547602Y-77072541D01*
X180544067Y-77071378D01*
X180489698Y-77052353D01*
X180481322Y-77050768D01*
X180472904Y-77049500D01*
X180472902Y-77049500D01*
X180415291Y-77049500D01*
X180411571Y-77049430D01*
X180357429Y-77047404D01*
X180353990Y-77047276D01*
X180353989Y-77047276D01*
X180339808Y-77048874D01*
X180328660Y-77049500D01*
X177471617Y-77049500D01*
X177385274Y-77029793D01*
X177316033Y-76974574D01*
X177311501Y-76968669D01*
X177272149Y-76915349D01*
X177162885Y-76834709D01*
X177162884Y-76834708D01*
X177162882Y-76834707D01*
X177034699Y-76789854D01*
X177004266Y-76787000D01*
X175995734Y-76787000D01*
X175965301Y-76789854D01*
X175837118Y-76834707D01*
X175837116Y-76834708D01*
X175837114Y-76834709D01*
X175727850Y-76915349D01*
X175688499Y-76968669D01*
X175621371Y-77026438D01*
X175535825Y-77049361D01*
X175528383Y-77049500D01*
X174430894Y-77049500D01*
X174419746Y-77048874D01*
X174382966Y-77044730D01*
X174382960Y-77044730D01*
X174326340Y-77055443D01*
X174322674Y-77056066D01*
X174265714Y-77064651D01*
X174257529Y-77067176D01*
X174249532Y-77069975D01*
X174198559Y-77096913D01*
X174195241Y-77098588D01*
X174143359Y-77123574D01*
X174136285Y-77128396D01*
X174129463Y-77133432D01*
X174088711Y-77174184D01*
X174086032Y-77176764D01*
X174043801Y-77215949D01*
X174034898Y-77227112D01*
X174027463Y-77235432D01*
X172703293Y-78559602D01*
X172694969Y-78567042D01*
X172657303Y-78597081D01*
X172577511Y-78635509D01*
X172533224Y-78640500D01*
X172383350Y-78640500D01*
X172324867Y-78652133D01*
X172258547Y-78696447D01*
X172214233Y-78762767D01*
X172202600Y-78821250D01*
X172202600Y-78850500D01*
X172182893Y-78936843D01*
X172127674Y-79006084D01*
X172047882Y-79044511D01*
X172003600Y-79049500D01*
X168069628Y-79049500D01*
X167983285Y-79029793D01*
X167914044Y-78974574D01*
X167894126Y-78944308D01*
X167877686Y-78913551D01*
X167827488Y-78852385D01*
X167746410Y-78753590D01*
X167602527Y-78635509D01*
X167586448Y-78622313D01*
X167403955Y-78524768D01*
X167205933Y-78464699D01*
X167000000Y-78444417D01*
X166794066Y-78464699D01*
X166596044Y-78524768D01*
X166413551Y-78622313D01*
X166253590Y-78753590D01*
X166122313Y-78913551D01*
X166024768Y-79096044D01*
X165964699Y-79294066D01*
X165944417Y-79500000D01*
X165964699Y-79705933D01*
X166024768Y-79903955D01*
X166122313Y-80086448D01*
X166122315Y-80086450D01*
X166253590Y-80246410D01*
X166361782Y-80335200D01*
X166413551Y-80377686D01*
X166553076Y-80452264D01*
X166596046Y-80475232D01*
X166794066Y-80535300D01*
X167000000Y-80555583D01*
X167205934Y-80535300D01*
X167403954Y-80475232D01*
X167586450Y-80377685D01*
X167746410Y-80246410D01*
X167877685Y-80086450D01*
X167880924Y-80080391D01*
X167894126Y-80055692D01*
X167952207Y-79988834D01*
X168033546Y-79953798D01*
X168069628Y-79950500D01*
X172101096Y-79950500D01*
X172187439Y-79970207D01*
X172243148Y-80014634D01*
X172244689Y-80013094D01*
X172258546Y-80026951D01*
X172324867Y-80071266D01*
X172324869Y-80071267D01*
X172360084Y-80078271D01*
X172383350Y-80082900D01*
X172383352Y-80082900D01*
X173616650Y-80082900D01*
X173636055Y-80079039D01*
X173675131Y-80071267D01*
X173741452Y-80026952D01*
X173785767Y-79960631D01*
X173797400Y-79902148D01*
X173797400Y-78822130D01*
X173817107Y-78735787D01*
X173855686Y-78681416D01*
X174183948Y-78353155D01*
X174528316Y-78008786D01*
X174603306Y-77961667D01*
X174669031Y-77950500D01*
X175528383Y-77950500D01*
X175614726Y-77970207D01*
X175683967Y-78025426D01*
X175688499Y-78031331D01*
X175727850Y-78084650D01*
X175837118Y-78165293D01*
X175965301Y-78210146D01*
X175995734Y-78213000D01*
X175995739Y-78213000D01*
X177004261Y-78213000D01*
X177004266Y-78213000D01*
X177034699Y-78210146D01*
X177162882Y-78165293D01*
X177272150Y-78084650D01*
X177311500Y-78031331D01*
X177378629Y-77973562D01*
X177464175Y-77950639D01*
X177471617Y-77950500D01*
X179327391Y-77950500D01*
X179413734Y-77970207D01*
X179468105Y-78008785D01*
X179493517Y-78034198D01*
X179520124Y-78047205D01*
X179528336Y-78051220D01*
X179597250Y-78106846D01*
X179635205Y-78186864D01*
X179634682Y-78275426D01*
X179595785Y-78354991D01*
X179528336Y-78408780D01*
X179493518Y-78425801D01*
X179493516Y-78425802D01*
X179410801Y-78508517D01*
X179359426Y-78613607D01*
X179349500Y-78681734D01*
X179349500Y-79048265D01*
X179359426Y-79116392D01*
X179410801Y-79221482D01*
X179493518Y-79304199D01*
X179513430Y-79313933D01*
X179528334Y-79321218D01*
X179597248Y-79376843D01*
X179635204Y-79456860D01*
X179634683Y-79545422D01*
X179595787Y-79624987D01*
X179528339Y-79678778D01*
X179493517Y-79695801D01*
X179410801Y-79778517D01*
X179359426Y-79883607D01*
X179349500Y-79951734D01*
X179349500Y-80318265D01*
X179359426Y-80386392D01*
X179410801Y-80491482D01*
X179410802Y-80491483D01*
X179493517Y-80574198D01*
X179512406Y-80583432D01*
X179528336Y-80591220D01*
X179597250Y-80646846D01*
X179635205Y-80726864D01*
X179634682Y-80815426D01*
X179595785Y-80894991D01*
X179528336Y-80948780D01*
X179493518Y-80965801D01*
X179493516Y-80965802D01*
X179410801Y-81048517D01*
X179359426Y-81153607D01*
X179349500Y-81221734D01*
X179349500Y-81588265D01*
X179359426Y-81656392D01*
X179410801Y-81761482D01*
X179410802Y-81761483D01*
X179493517Y-81844198D01*
X179598607Y-81895573D01*
X179666740Y-81905500D01*
X180280968Y-81905500D01*
X180367311Y-81925207D01*
X180421682Y-81963786D01*
X182254605Y-83796709D01*
X182262046Y-83805035D01*
X182285122Y-83833971D01*
X182332719Y-83866422D01*
X182335753Y-83868575D01*
X182351897Y-83880489D01*
X182382117Y-83902792D01*
X182382119Y-83902792D01*
X182389699Y-83906798D01*
X182397324Y-83910470D01*
X182397327Y-83910472D01*
X182452430Y-83927468D01*
X182455865Y-83928598D01*
X182499811Y-83943975D01*
X182510299Y-83947646D01*
X182518672Y-83949230D01*
X182527098Y-83950500D01*
X182584708Y-83950500D01*
X182588428Y-83950570D01*
X182609795Y-83951368D01*
X182646010Y-83952724D01*
X182646016Y-83952722D01*
X182660192Y-83951126D01*
X182671340Y-83950500D01*
X196411067Y-83950500D01*
X196450216Y-83957150D01*
X196450647Y-83954873D01*
X196465295Y-83957644D01*
X196465301Y-83957646D01*
X196601010Y-83962724D01*
X196732187Y-83927576D01*
X196807127Y-83880487D01*
X196890715Y-83851237D01*
X196978722Y-83861151D01*
X197053712Y-83908268D01*
X197100832Y-83983256D01*
X197112000Y-84048985D01*
X197112000Y-84876000D01*
X197117840Y-84930321D01*
X197129042Y-84981811D01*
X197129045Y-84981824D01*
X197136281Y-85008197D01*
X197136281Y-85008198D01*
X197136283Y-85008202D01*
X197185610Y-85094826D01*
X197186667Y-85096046D01*
X197231367Y-85147632D01*
X197264141Y-85179257D01*
X197352476Y-85225465D01*
X197419515Y-85245150D01*
X197419521Y-85245150D01*
X197419526Y-85245152D01*
X197473711Y-85252942D01*
X197491495Y-85255499D01*
X197491498Y-85255500D01*
X202640500Y-85255500D01*
X202726843Y-85275207D01*
X202796084Y-85330426D01*
X202834511Y-85410218D01*
X202839500Y-85454500D01*
X202839500Y-86350500D01*
X202819793Y-86436843D01*
X202764574Y-86506084D01*
X202684782Y-86544511D01*
X202640500Y-86549500D01*
X178831531Y-86549500D01*
X178745188Y-86529793D01*
X178690817Y-86491214D01*
X177458786Y-85259183D01*
X177411667Y-85184195D01*
X177400500Y-85118469D01*
X177400500Y-84558239D01*
X177400500Y-84558234D01*
X177397646Y-84527801D01*
X177352793Y-84399618D01*
X177329839Y-84368516D01*
X177272150Y-84290349D01*
X177162885Y-84209709D01*
X177162884Y-84209708D01*
X177162882Y-84209707D01*
X177034699Y-84164854D01*
X177004266Y-84162000D01*
X175995734Y-84162000D01*
X175965301Y-84164854D01*
X175837118Y-84209707D01*
X175837116Y-84209708D01*
X175837114Y-84209709D01*
X175727849Y-84290349D01*
X175642371Y-84406170D01*
X175575243Y-84463939D01*
X175489698Y-84486861D01*
X175482256Y-84487000D01*
X175006532Y-84487000D01*
X174920189Y-84467293D01*
X174865818Y-84428714D01*
X174364561Y-83927457D01*
X173842491Y-83405388D01*
X173795373Y-83330401D01*
X173788202Y-83266760D01*
X175599499Y-83266760D01*
X175599500Y-83266766D01*
X175602354Y-83297199D01*
X175647207Y-83425382D01*
X175647208Y-83425384D01*
X175647209Y-83425385D01*
X175727849Y-83534650D01*
X175830456Y-83610376D01*
X175837118Y-83615293D01*
X175965301Y-83660146D01*
X175995734Y-83663000D01*
X175995739Y-83663000D01*
X177004261Y-83663000D01*
X177004266Y-83663000D01*
X177034699Y-83660146D01*
X177162882Y-83615293D01*
X177272150Y-83534650D01*
X177352793Y-83425382D01*
X177397646Y-83297199D01*
X177400500Y-83266766D01*
X177400500Y-82508234D01*
X177397646Y-82477801D01*
X177352793Y-82349618D01*
X177311794Y-82294066D01*
X177272150Y-82240349D01*
X177162885Y-82159709D01*
X177162884Y-82159708D01*
X177162882Y-82159707D01*
X177034699Y-82114854D01*
X177034696Y-82114853D01*
X177034695Y-82114853D01*
X177005917Y-82112154D01*
X176921792Y-82084470D01*
X176858009Y-82023027D01*
X176827202Y-81939995D01*
X176825500Y-81914024D01*
X176825500Y-80235975D01*
X176845207Y-80149632D01*
X176900426Y-80080391D01*
X176980218Y-80041964D01*
X177005911Y-80037845D01*
X177034699Y-80035146D01*
X177162882Y-79990293D01*
X177272150Y-79909650D01*
X177352793Y-79800382D01*
X177397646Y-79672199D01*
X177400500Y-79641766D01*
X177400500Y-79008234D01*
X177397646Y-78977801D01*
X177352793Y-78849618D01*
X177331857Y-78821250D01*
X177272150Y-78740349D01*
X177162885Y-78659709D01*
X177162884Y-78659708D01*
X177162882Y-78659707D01*
X177034699Y-78614854D01*
X177004266Y-78612000D01*
X175995734Y-78612000D01*
X175965301Y-78614854D01*
X175837118Y-78659707D01*
X175837116Y-78659708D01*
X175837114Y-78659709D01*
X175727849Y-78740349D01*
X175647209Y-78849614D01*
X175647208Y-78849616D01*
X175647207Y-78849618D01*
X175602354Y-78977801D01*
X175599500Y-79008234D01*
X175599500Y-79641766D01*
X175602354Y-79672199D01*
X175647207Y-79800382D01*
X175647208Y-79800384D01*
X175647209Y-79800385D01*
X175727849Y-79909650D01*
X175809902Y-79970207D01*
X175837118Y-79990293D01*
X175965301Y-80035146D01*
X175994080Y-80037844D01*
X176078204Y-80065526D01*
X176141988Y-80126967D01*
X176172797Y-80209999D01*
X176174500Y-80235975D01*
X176174500Y-81914024D01*
X176154793Y-82000367D01*
X176099574Y-82069608D01*
X176019782Y-82108035D01*
X175994083Y-82112154D01*
X175965304Y-82114853D01*
X175965301Y-82114853D01*
X175965301Y-82114854D01*
X175837118Y-82159707D01*
X175837116Y-82159708D01*
X175837114Y-82159709D01*
X175727849Y-82240349D01*
X175647209Y-82349614D01*
X175647208Y-82349616D01*
X175647207Y-82349618D01*
X175613575Y-82445734D01*
X175602354Y-82477801D01*
X175599499Y-82508239D01*
X175599499Y-83266760D01*
X173788202Y-83266760D01*
X173785457Y-83242394D01*
X173788031Y-83225848D01*
X173797400Y-83178752D01*
X173797400Y-82097850D01*
X173790355Y-82062434D01*
X173785767Y-82039369D01*
X173785766Y-82039367D01*
X173741452Y-81973047D01*
X173675132Y-81928733D01*
X173616650Y-81917100D01*
X173616648Y-81917100D01*
X172383352Y-81917100D01*
X172383350Y-81917100D01*
X172324867Y-81928733D01*
X172258546Y-81973048D01*
X172244689Y-81986906D01*
X172242031Y-81984248D01*
X172202190Y-82021909D01*
X172117807Y-82048797D01*
X172101096Y-82049500D01*
X168069628Y-82049500D01*
X167983285Y-82029793D01*
X167914044Y-81974574D01*
X167894126Y-81944308D01*
X167877686Y-81913551D01*
X167845264Y-81874045D01*
X167746410Y-81753590D01*
X167627973Y-81656392D01*
X167586448Y-81622313D01*
X167403955Y-81524768D01*
X167205933Y-81464699D01*
X167000000Y-81444417D01*
X166794066Y-81464699D01*
X166596044Y-81524768D01*
X166413551Y-81622313D01*
X166253590Y-81753590D01*
X166122313Y-81913551D01*
X166024768Y-82096044D01*
X165964699Y-82294066D01*
X165944417Y-82500000D01*
X164100500Y-82500000D01*
X164100500Y-76593494D01*
X168070500Y-76593494D01*
X168109372Y-76776376D01*
X168109374Y-76776382D01*
X168109375Y-76776385D01*
X168185427Y-76947200D01*
X168261592Y-77052032D01*
X168295330Y-77098469D01*
X168434285Y-77223585D01*
X168434289Y-77223588D01*
X168596214Y-77317075D01*
X168596219Y-77317077D01*
X168677872Y-77343607D01*
X168774044Y-77374855D01*
X168913380Y-77389500D01*
X168913381Y-77389500D01*
X169006619Y-77389500D01*
X169006620Y-77389500D01*
X169145956Y-77374855D01*
X169261619Y-77337274D01*
X169323780Y-77317077D01*
X169323785Y-77317075D01*
X169485710Y-77223588D01*
X169485710Y-77223587D01*
X169485715Y-77223585D01*
X169624669Y-77098470D01*
X169734573Y-76947200D01*
X169810625Y-76776385D01*
X169849500Y-76593490D01*
X169849500Y-76406510D01*
X169849500Y-76406509D01*
X169849500Y-76406507D01*
X169849499Y-76406505D01*
X169810627Y-76223623D01*
X169810626Y-76223621D01*
X169810625Y-76223615D01*
X169734573Y-76052800D01*
X169624669Y-75901530D01*
X169485715Y-75776415D01*
X169485714Y-75776414D01*
X169485710Y-75776411D01*
X169323785Y-75682924D01*
X169323780Y-75682922D01*
X169145957Y-75625145D01*
X169006624Y-75610500D01*
X169006620Y-75610500D01*
X168913380Y-75610500D01*
X168913375Y-75610500D01*
X168774042Y-75625145D01*
X168774041Y-75625145D01*
X168596219Y-75682922D01*
X168596214Y-75682924D01*
X168434289Y-75776411D01*
X168434285Y-75776414D01*
X168295330Y-75901530D01*
X168222906Y-76001214D01*
X168188673Y-76048333D01*
X168185425Y-76052803D01*
X168109375Y-76223615D01*
X168109372Y-76223623D01*
X168070500Y-76406505D01*
X168070500Y-76593494D01*
X164100500Y-76593494D01*
X164100500Y-71131483D01*
X165245500Y-71131483D01*
X165284690Y-71391503D01*
X165284692Y-71391508D01*
X165362202Y-71642788D01*
X165476298Y-71879710D01*
X165624430Y-72096980D01*
X165803290Y-72289746D01*
X165803292Y-72289748D01*
X166008883Y-72453701D01*
X166008884Y-72453702D01*
X166236613Y-72585182D01*
X166236616Y-72585183D01*
X166481402Y-72681254D01*
X166737772Y-72739769D01*
X166934346Y-72754500D01*
X166934348Y-72754500D01*
X167065652Y-72754500D01*
X167065654Y-72754500D01*
X167262228Y-72739769D01*
X167518598Y-72681254D01*
X167763384Y-72585183D01*
X167991117Y-72453701D01*
X168196710Y-72289746D01*
X168375570Y-72096980D01*
X168523702Y-71879710D01*
X168637798Y-71642788D01*
X168715308Y-71391508D01*
X168754500Y-71131483D01*
X225245500Y-71131483D01*
X225284690Y-71391503D01*
X225284692Y-71391508D01*
X225362202Y-71642788D01*
X225476298Y-71879710D01*
X225624430Y-72096980D01*
X225803290Y-72289746D01*
X225803292Y-72289748D01*
X226008883Y-72453701D01*
X226008884Y-72453702D01*
X226236613Y-72585182D01*
X226236616Y-72585183D01*
X226481402Y-72681254D01*
X226737772Y-72739769D01*
X226934346Y-72754500D01*
X226934348Y-72754500D01*
X227065652Y-72754500D01*
X227065654Y-72754500D01*
X227262228Y-72739769D01*
X227518598Y-72681254D01*
X227763384Y-72585183D01*
X227991117Y-72453701D01*
X228196710Y-72289746D01*
X228375570Y-72096980D01*
X228523702Y-71879710D01*
X228637798Y-71642788D01*
X228715308Y-71391508D01*
X228754500Y-71131482D01*
X228754500Y-70868518D01*
X228754500Y-70868516D01*
X228715309Y-70608496D01*
X228686256Y-70514309D01*
X228637798Y-70357212D01*
X228523702Y-70120290D01*
X228375570Y-69903020D01*
X228196710Y-69710254D01*
X228196708Y-69710252D01*
X228196707Y-69710251D01*
X227991116Y-69546298D01*
X227991115Y-69546297D01*
X227763386Y-69414817D01*
X227763377Y-69414814D01*
X227518601Y-69318747D01*
X227518599Y-69318746D01*
X227518598Y-69318746D01*
X227518594Y-69318745D01*
X227262231Y-69260231D01*
X227144283Y-69251392D01*
X227065654Y-69245500D01*
X226934346Y-69245500D01*
X226868821Y-69250410D01*
X226737768Y-69260231D01*
X226481405Y-69318745D01*
X226481398Y-69318747D01*
X226236622Y-69414814D01*
X226236613Y-69414817D01*
X226008884Y-69546297D01*
X226008883Y-69546298D01*
X225803292Y-69710251D01*
X225803287Y-69710257D01*
X225624429Y-69903021D01*
X225476297Y-70120291D01*
X225439631Y-70196430D01*
X225363364Y-70354801D01*
X225362201Y-70357215D01*
X225284690Y-70608496D01*
X225245500Y-70868516D01*
X225245500Y-71131483D01*
X168754500Y-71131483D01*
X168754500Y-71131482D01*
X168754500Y-70868518D01*
X168754500Y-70868516D01*
X168715309Y-70608496D01*
X168686256Y-70514309D01*
X168637798Y-70357212D01*
X168523702Y-70120290D01*
X168375570Y-69903020D01*
X168196710Y-69710254D01*
X168196708Y-69710252D01*
X168196707Y-69710251D01*
X167991116Y-69546298D01*
X167991115Y-69546297D01*
X167763386Y-69414817D01*
X167763377Y-69414814D01*
X167518601Y-69318747D01*
X167518599Y-69318746D01*
X167518598Y-69318746D01*
X167518594Y-69318745D01*
X167262231Y-69260231D01*
X167144283Y-69251392D01*
X167065654Y-69245500D01*
X166934346Y-69245500D01*
X166868821Y-69250410D01*
X166737768Y-69260231D01*
X166481405Y-69318745D01*
X166481398Y-69318747D01*
X166236622Y-69414814D01*
X166236613Y-69414817D01*
X166008884Y-69546297D01*
X166008883Y-69546298D01*
X165803292Y-69710251D01*
X165803287Y-69710257D01*
X165624429Y-69903021D01*
X165476297Y-70120291D01*
X165439631Y-70196430D01*
X165363364Y-70354801D01*
X165362201Y-70357215D01*
X165284690Y-70608496D01*
X165245500Y-70868516D01*
X165245500Y-71131483D01*
X164100500Y-71131483D01*
X164100500Y-71002793D01*
X164100657Y-70997213D01*
X164109625Y-70837510D01*
X164118418Y-70680929D01*
X164119664Y-70669866D01*
X164172260Y-70360311D01*
X164174744Y-70349433D01*
X164261663Y-70047726D01*
X164265351Y-70037186D01*
X164385502Y-69747116D01*
X164390344Y-69737063D01*
X164405161Y-69710254D01*
X164542222Y-69462259D01*
X164548158Y-69452813D01*
X164575120Y-69414814D01*
X164729853Y-69196738D01*
X164736797Y-69188030D01*
X164881781Y-69025794D01*
X164946018Y-68953914D01*
X164953914Y-68946018D01*
X165112152Y-68804607D01*
X165188030Y-68736797D01*
X165196738Y-68729853D01*
X165452819Y-68548154D01*
X165462259Y-68542222D01*
X165737065Y-68390342D01*
X165747116Y-68385502D01*
X166037193Y-68265348D01*
X166047726Y-68261663D01*
X166349433Y-68174744D01*
X166360311Y-68172260D01*
X166669866Y-68119664D01*
X166680929Y-68118418D01*
X166853227Y-68108742D01*
X166997213Y-68100657D01*
X167002793Y-68100500D01*
X167026929Y-68100500D01*
X226973071Y-68100500D01*
X226997207Y-68100500D01*
X227002787Y-68100657D01*
G37*
G04 #@! TD.AperFunction*
G04 #@! TA.AperFunction,Conductor*
G36*
X189543039Y-76119685D02*
G01*
X189588794Y-76172489D01*
X189600000Y-76224000D01*
X189600000Y-82576000D01*
X189580315Y-82643039D01*
X189527511Y-82688794D01*
X189476000Y-82700000D01*
X185524000Y-82700000D01*
X185456961Y-82680315D01*
X185411206Y-82627511D01*
X185400000Y-82576000D01*
X185400000Y-81655001D01*
X186052704Y-81655001D01*
X186052899Y-81657486D01*
X186098718Y-81815198D01*
X186182314Y-81956552D01*
X186182321Y-81956561D01*
X186298438Y-82072678D01*
X186298447Y-82072685D01*
X186439803Y-82156282D01*
X186439806Y-82156283D01*
X186597504Y-82202099D01*
X186597510Y-82202100D01*
X186634350Y-82204999D01*
X186634366Y-82205000D01*
X187250000Y-82205000D01*
X187250000Y-81655000D01*
X187750000Y-81655000D01*
X187750000Y-82205000D01*
X188365634Y-82205000D01*
X188365649Y-82204999D01*
X188402489Y-82202100D01*
X188402495Y-82202099D01*
X188560193Y-82156283D01*
X188560196Y-82156282D01*
X188701552Y-82072685D01*
X188701561Y-82072678D01*
X188817678Y-81956561D01*
X188817685Y-81956552D01*
X188901281Y-81815198D01*
X188947100Y-81657486D01*
X188947295Y-81655001D01*
X188947295Y-81655000D01*
X187750000Y-81655000D01*
X187250000Y-81655000D01*
X186052705Y-81655000D01*
X186052704Y-81655001D01*
X185400000Y-81655001D01*
X185400000Y-81154998D01*
X186052704Y-81154998D01*
X186052705Y-81155000D01*
X187250000Y-81155000D01*
X187250000Y-80385000D01*
X187750000Y-80385000D01*
X187750000Y-81155000D01*
X188947295Y-81155000D01*
X188947295Y-81154998D01*
X188947100Y-81152513D01*
X188901281Y-80994801D01*
X188817685Y-80853447D01*
X188812900Y-80847278D01*
X188815252Y-80845453D01*
X188788445Y-80796405D01*
X188793402Y-80726712D01*
X188814465Y-80693936D01*
X188812900Y-80692722D01*
X188817685Y-80686552D01*
X188901281Y-80545198D01*
X188947100Y-80387486D01*
X188947295Y-80385001D01*
X188947295Y-80385000D01*
X187750000Y-80385000D01*
X187250000Y-80385000D01*
X186052705Y-80385000D01*
X186052704Y-80385001D01*
X186052899Y-80387486D01*
X186098718Y-80545198D01*
X186182314Y-80686552D01*
X186187100Y-80692722D01*
X186184753Y-80694542D01*
X186211564Y-80743642D01*
X186206580Y-80813334D01*
X186185541Y-80846069D01*
X186187100Y-80847278D01*
X186182314Y-80853447D01*
X186098718Y-80994801D01*
X186052899Y-81152513D01*
X186052704Y-81154998D01*
X185400000Y-81154998D01*
X185400000Y-79884998D01*
X186052704Y-79884998D01*
X186052705Y-79885000D01*
X187250000Y-79885000D01*
X187250000Y-79115000D01*
X187750000Y-79115000D01*
X187750000Y-79885000D01*
X188947295Y-79885000D01*
X188947295Y-79884998D01*
X188947100Y-79882513D01*
X188901281Y-79724801D01*
X188817685Y-79583447D01*
X188812900Y-79577278D01*
X188815252Y-79575453D01*
X188788445Y-79526405D01*
X188793402Y-79456712D01*
X188814465Y-79423936D01*
X188812900Y-79422722D01*
X188817685Y-79416552D01*
X188901281Y-79275198D01*
X188947100Y-79117486D01*
X188947295Y-79115001D01*
X188947295Y-79115000D01*
X187750000Y-79115000D01*
X187250000Y-79115000D01*
X186052705Y-79115000D01*
X186052704Y-79115001D01*
X186052899Y-79117486D01*
X186098718Y-79275198D01*
X186182314Y-79416552D01*
X186187100Y-79422722D01*
X186184753Y-79424542D01*
X186211564Y-79473642D01*
X186206580Y-79543334D01*
X186185541Y-79576069D01*
X186187100Y-79577278D01*
X186182314Y-79583447D01*
X186098718Y-79724801D01*
X186052899Y-79882513D01*
X186052704Y-79884998D01*
X185400000Y-79884998D01*
X185400000Y-78614998D01*
X186052704Y-78614998D01*
X186052705Y-78615000D01*
X187250000Y-78615000D01*
X187250000Y-77845000D01*
X187750000Y-77845000D01*
X187750000Y-78615000D01*
X188947295Y-78615000D01*
X188947295Y-78614998D01*
X188947100Y-78612513D01*
X188901281Y-78454801D01*
X188817685Y-78313447D01*
X188812900Y-78307278D01*
X188815252Y-78305453D01*
X188788445Y-78256405D01*
X188793402Y-78186712D01*
X188814465Y-78153936D01*
X188812900Y-78152722D01*
X188817685Y-78146552D01*
X188901281Y-78005198D01*
X188947100Y-77847486D01*
X188947295Y-77845001D01*
X188947295Y-77845000D01*
X187750000Y-77845000D01*
X187250000Y-77845000D01*
X186052705Y-77845000D01*
X186052704Y-77845001D01*
X186052899Y-77847486D01*
X186098718Y-78005198D01*
X186182314Y-78146552D01*
X186187100Y-78152722D01*
X186184753Y-78154542D01*
X186211564Y-78203642D01*
X186206580Y-78273334D01*
X186185541Y-78306069D01*
X186187100Y-78307278D01*
X186182314Y-78313447D01*
X186098718Y-78454801D01*
X186052899Y-78612513D01*
X186052704Y-78614998D01*
X185400000Y-78614998D01*
X185400000Y-77344998D01*
X186052704Y-77344998D01*
X186052705Y-77345000D01*
X187250000Y-77345000D01*
X187250000Y-76795000D01*
X187750000Y-76795000D01*
X187750000Y-77345000D01*
X188947295Y-77345000D01*
X188947295Y-77344998D01*
X188947100Y-77342513D01*
X188901281Y-77184801D01*
X188817685Y-77043447D01*
X188817678Y-77043438D01*
X188701561Y-76927321D01*
X188701552Y-76927314D01*
X188560196Y-76843717D01*
X188560193Y-76843716D01*
X188402495Y-76797900D01*
X188402489Y-76797899D01*
X188365649Y-76795000D01*
X187750000Y-76795000D01*
X187250000Y-76795000D01*
X186634350Y-76795000D01*
X186597510Y-76797899D01*
X186597504Y-76797900D01*
X186439806Y-76843716D01*
X186439803Y-76843717D01*
X186298447Y-76927314D01*
X186298438Y-76927321D01*
X186182321Y-77043438D01*
X186182314Y-77043447D01*
X186098718Y-77184801D01*
X186052899Y-77342513D01*
X186052704Y-77344998D01*
X185400000Y-77344998D01*
X185400000Y-76224000D01*
X185419685Y-76156961D01*
X185472489Y-76111206D01*
X185524000Y-76100000D01*
X189476000Y-76100000D01*
X189543039Y-76119685D01*
G37*
G04 #@! TD.AperFunction*
G04 #@! TA.AperFunction,Conductor*
G36*
X204510539Y-75319685D02*
G01*
X204556294Y-75372489D01*
X204567500Y-75424000D01*
X204567500Y-80413346D01*
X204547815Y-80480385D01*
X204495011Y-80526140D01*
X204425853Y-80536084D01*
X204362297Y-80507059D01*
X204325794Y-80452350D01*
X204279593Y-80312927D01*
X204279591Y-80312922D01*
X204191385Y-80169919D01*
X204072580Y-80051114D01*
X203929577Y-79962908D01*
X203929572Y-79962906D01*
X203770083Y-79910057D01*
X203671650Y-79900000D01*
X203655000Y-79900000D01*
X203655000Y-82099999D01*
X203671636Y-82099999D01*
X203671652Y-82099998D01*
X203770083Y-82089943D01*
X203929572Y-82037093D01*
X203929577Y-82037091D01*
X204072580Y-81948885D01*
X204191385Y-81830080D01*
X204279591Y-81687077D01*
X204279593Y-81687072D01*
X204325794Y-81547649D01*
X204365567Y-81490204D01*
X204430083Y-81463381D01*
X204498858Y-81475696D01*
X204550058Y-81523239D01*
X204567500Y-81586653D01*
X204567500Y-83725500D01*
X204547815Y-83792539D01*
X204495011Y-83838294D01*
X204443500Y-83849500D01*
X203241794Y-83849500D01*
X203240459Y-83849680D01*
X203182514Y-83855909D01*
X203047670Y-83906202D01*
X203047667Y-83906204D01*
X202932453Y-83992453D01*
X202846204Y-84107667D01*
X202846202Y-84107670D01*
X202795910Y-84242510D01*
X202795908Y-84242517D01*
X202789501Y-84302114D01*
X202789500Y-84302133D01*
X202789500Y-84876000D01*
X202769815Y-84943039D01*
X202717011Y-84988794D01*
X202665500Y-85000000D01*
X197491500Y-85000000D01*
X197424461Y-84980315D01*
X197378706Y-84927511D01*
X197367500Y-84876000D01*
X197367500Y-80524249D01*
X197387185Y-80457210D01*
X197439989Y-80411455D01*
X197509147Y-80401511D01*
X197572703Y-80430536D01*
X197607682Y-80480916D01*
X197649145Y-80592086D01*
X197649149Y-80592093D01*
X197735309Y-80707187D01*
X197735312Y-80707190D01*
X197850406Y-80793350D01*
X197850413Y-80793354D01*
X197985120Y-80843596D01*
X197985127Y-80843598D01*
X198044655Y-80849999D01*
X198044672Y-80850000D01*
X198217500Y-80850000D01*
X198217500Y-80350000D01*
X198617500Y-80350000D01*
X198617500Y-80850000D01*
X198790328Y-80850000D01*
X198790344Y-80849999D01*
X198849872Y-80843598D01*
X198849879Y-80843596D01*
X198984586Y-80793354D01*
X198984593Y-80793350D01*
X199095933Y-80710000D01*
X199775001Y-80710000D01*
X199775001Y-80759986D01*
X199785494Y-80862697D01*
X199840641Y-81029119D01*
X199840643Y-81029124D01*
X199932684Y-81178345D01*
X200056654Y-81302315D01*
X200205875Y-81394356D01*
X200205880Y-81394358D01*
X200372302Y-81449505D01*
X200372309Y-81449506D01*
X200475019Y-81459999D01*
X200749999Y-81459999D01*
X200749999Y-81459998D01*
X200750000Y-80710000D01*
X201250000Y-80710000D01*
X201250000Y-81459999D01*
X201524972Y-81459999D01*
X201524986Y-81459998D01*
X201627697Y-81449505D01*
X201794119Y-81394358D01*
X201794124Y-81394356D01*
X201943345Y-81302315D01*
X201995660Y-81250000D01*
X202467501Y-81250000D01*
X202467501Y-81429152D01*
X202477556Y-81527583D01*
X202530406Y-81687072D01*
X202530408Y-81687077D01*
X202618614Y-81830080D01*
X202737419Y-81948885D01*
X202880422Y-82037091D01*
X202880427Y-82037093D01*
X203039916Y-82089942D01*
X203138356Y-82099999D01*
X203155000Y-82099998D01*
X203155000Y-81250000D01*
X202467501Y-81250000D01*
X201995660Y-81250000D01*
X202067315Y-81178345D01*
X202159356Y-81029124D01*
X202159358Y-81029119D01*
X202214505Y-80862697D01*
X202214506Y-80862690D01*
X202221882Y-80790499D01*
X202246113Y-80731113D01*
X202239883Y-80724883D01*
X202442383Y-80724883D01*
X202467500Y-80750000D01*
X203155000Y-80750000D01*
X203155000Y-79899999D01*
X203138356Y-79900000D01*
X203039915Y-79910057D01*
X202880427Y-79962906D01*
X202880422Y-79962908D01*
X202737419Y-80051114D01*
X202618614Y-80169919D01*
X202530408Y-80312922D01*
X202530406Y-80312927D01*
X202477557Y-80472416D01*
X202467500Y-80570849D01*
X202467500Y-80653138D01*
X202447815Y-80720177D01*
X202442383Y-80724883D01*
X202239883Y-80724883D01*
X202225000Y-80710000D01*
X201250000Y-80710000D01*
X200750000Y-80710000D01*
X199775001Y-80710000D01*
X199095933Y-80710000D01*
X199099687Y-80707190D01*
X199099690Y-80707187D01*
X199185850Y-80592093D01*
X199185854Y-80592086D01*
X199236096Y-80457379D01*
X199236098Y-80457372D01*
X199242499Y-80397844D01*
X199242500Y-80397827D01*
X199242500Y-80350000D01*
X198617500Y-80350000D01*
X198217500Y-80350000D01*
X198217500Y-79949999D01*
X198617499Y-79949999D01*
X198617500Y-79950000D01*
X199242500Y-79950000D01*
X199242500Y-79902172D01*
X199242499Y-79902158D01*
X199235628Y-79838257D01*
X199235628Y-79811743D01*
X199242499Y-79747841D01*
X199242500Y-79747827D01*
X199242500Y-79700000D01*
X198617500Y-79700000D01*
X198617499Y-79949999D01*
X198217500Y-79949999D01*
X198217500Y-79424500D01*
X198237185Y-79357461D01*
X198289989Y-79311706D01*
X198341500Y-79300500D01*
X198767176Y-79300500D01*
X198769218Y-79300299D01*
X198775298Y-79300000D01*
X199242500Y-79300000D01*
X199242500Y-79252172D01*
X199242499Y-79252155D01*
X199236098Y-79192627D01*
X199236096Y-79192620D01*
X199202608Y-79102833D01*
X199197624Y-79033142D01*
X199231109Y-78971819D01*
X199292432Y-78938334D01*
X199318790Y-78935500D01*
X199951533Y-78935500D01*
X200018572Y-78955185D01*
X200064327Y-79007989D01*
X200067715Y-79016166D01*
X200081203Y-79052330D01*
X200081206Y-79052335D01*
X200167452Y-79167544D01*
X200167455Y-79167547D01*
X200282664Y-79253793D01*
X200282673Y-79253798D01*
X200302468Y-79261181D01*
X200358402Y-79303051D01*
X200382820Y-79368515D01*
X200367969Y-79436788D01*
X200318565Y-79486194D01*
X200298141Y-79495069D01*
X200205878Y-79525642D01*
X200205875Y-79525643D01*
X200056654Y-79617684D01*
X199932684Y-79741654D01*
X199840643Y-79890875D01*
X199840641Y-79890880D01*
X199785494Y-80057302D01*
X199785493Y-80057309D01*
X199775000Y-80160013D01*
X199775000Y-80210000D01*
X202224999Y-80210000D01*
X202224999Y-80160028D01*
X202224998Y-80160013D01*
X202214505Y-80057302D01*
X202159358Y-79890880D01*
X202159356Y-79890875D01*
X202067315Y-79741654D01*
X201943345Y-79617684D01*
X201794124Y-79525643D01*
X201794119Y-79525641D01*
X201701859Y-79495069D01*
X201644414Y-79455296D01*
X201617591Y-79390780D01*
X201629906Y-79322004D01*
X201677449Y-79270804D01*
X201697533Y-79261180D01*
X201717326Y-79253798D01*
X201717331Y-79253796D01*
X201832546Y-79167546D01*
X201918796Y-79052331D01*
X201932284Y-79016166D01*
X201974157Y-78960233D01*
X202039621Y-78935816D01*
X202048467Y-78935500D01*
X202825696Y-78935500D01*
X202851141Y-78938139D01*
X202854940Y-78938935D01*
X202861768Y-78940367D01*
X202882725Y-78937754D01*
X202896992Y-78935977D01*
X202904668Y-78935500D01*
X202908612Y-78935500D01*
X202908614Y-78935500D01*
X202930395Y-78931864D01*
X202932902Y-78931499D01*
X202986126Y-78924866D01*
X202986128Y-78924864D01*
X202993641Y-78922628D01*
X203001106Y-78920066D01*
X203001106Y-78920065D01*
X203001110Y-78920065D01*
X203048263Y-78894547D01*
X203050504Y-78893392D01*
X203098711Y-78869826D01*
X203098710Y-78869826D01*
X203107945Y-78865312D01*
X203109243Y-78867967D01*
X203159782Y-78850397D01*
X203172502Y-78850426D01*
X203173860Y-78850498D01*
X203173870Y-78850500D01*
X203173880Y-78850500D01*
X203701130Y-78850500D01*
X203701144Y-78850499D01*
X203723023Y-78848146D01*
X203757022Y-78844491D01*
X203883450Y-78797336D01*
X203991472Y-78716472D01*
X204072336Y-78608450D01*
X204119491Y-78482022D01*
X204123146Y-78448023D01*
X204125499Y-78426144D01*
X204125500Y-78426129D01*
X204125500Y-77573870D01*
X204125499Y-77573855D01*
X204122645Y-77547318D01*
X204119491Y-77517978D01*
X204113227Y-77501183D01*
X204072337Y-77391552D01*
X204072335Y-77391549D01*
X203991472Y-77283528D01*
X203883450Y-77202664D01*
X203883447Y-77202662D01*
X203757024Y-77155509D01*
X203701144Y-77149500D01*
X203701130Y-77149500D01*
X203173870Y-77149500D01*
X203173855Y-77149500D01*
X203117975Y-77155509D01*
X202991552Y-77202662D01*
X202991549Y-77202664D01*
X202883528Y-77283528D01*
X202802664Y-77391549D01*
X202802662Y-77391552D01*
X202755509Y-77517975D01*
X202749500Y-77573855D01*
X202749500Y-78060500D01*
X202729815Y-78127539D01*
X202677011Y-78173294D01*
X202625500Y-78184500D01*
X202048467Y-78184500D01*
X201981428Y-78164815D01*
X201935673Y-78112011D01*
X201932285Y-78103834D01*
X201918796Y-78067669D01*
X201918793Y-78067664D01*
X201832547Y-77952455D01*
X201832544Y-77952452D01*
X201717335Y-77866206D01*
X201717328Y-77866202D01*
X201582482Y-77815908D01*
X201582483Y-77815908D01*
X201522883Y-77809501D01*
X201522881Y-77809500D01*
X201522873Y-77809500D01*
X201522864Y-77809500D01*
X200477129Y-77809500D01*
X200477123Y-77809501D01*
X200417516Y-77815908D01*
X200282671Y-77866202D01*
X200282664Y-77866206D01*
X200167455Y-77952452D01*
X200167452Y-77952455D01*
X200081206Y-78067664D01*
X200081203Y-78067669D01*
X200067715Y-78103834D01*
X200025843Y-78159767D01*
X199960379Y-78184184D01*
X199951533Y-78184500D01*
X199059304Y-78184500D01*
X199033859Y-78181861D01*
X199023233Y-78179633D01*
X199023230Y-78179633D01*
X198988008Y-78184023D01*
X198980332Y-78184500D01*
X198976386Y-78184500D01*
X198954626Y-78188130D01*
X198952103Y-78188498D01*
X198898871Y-78195134D01*
X198891357Y-78197371D01*
X198883887Y-78199935D01*
X198836746Y-78225447D01*
X198834470Y-78226618D01*
X198786292Y-78250171D01*
X198779875Y-78254753D01*
X198773676Y-78259578D01*
X198759205Y-78275297D01*
X198737348Y-78299039D01*
X198735603Y-78300859D01*
X198673282Y-78363181D01*
X198611959Y-78396666D01*
X198585600Y-78399500D01*
X198067823Y-78399500D01*
X197994764Y-78414032D01*
X197994760Y-78414033D01*
X197911899Y-78469399D01*
X197856533Y-78552260D01*
X197856532Y-78552264D01*
X197842000Y-78625321D01*
X197842000Y-78800873D01*
X197822315Y-78867912D01*
X197792312Y-78900139D01*
X197735314Y-78942807D01*
X197735308Y-78942814D01*
X197649149Y-79057906D01*
X197649145Y-79057913D01*
X197607682Y-79169083D01*
X197565811Y-79225017D01*
X197500346Y-79249434D01*
X197432074Y-79234582D01*
X197382668Y-79185177D01*
X197367500Y-79125750D01*
X197367500Y-77501183D01*
X197387185Y-77434144D01*
X197439989Y-77388389D01*
X197509147Y-77378445D01*
X197572703Y-77407470D01*
X197597039Y-77436087D01*
X197607682Y-77453343D01*
X197731654Y-77577315D01*
X197880875Y-77669356D01*
X197880880Y-77669358D01*
X198047302Y-77724505D01*
X198047309Y-77724506D01*
X198150019Y-77734999D01*
X198199999Y-77734998D01*
X198200000Y-77734998D01*
X198200000Y-76760000D01*
X198700000Y-76760000D01*
X198700000Y-77734999D01*
X198749972Y-77734999D01*
X198749986Y-77734998D01*
X198852697Y-77724505D01*
X199019119Y-77669358D01*
X199019124Y-77669356D01*
X199168345Y-77577315D01*
X199292315Y-77453345D01*
X199384356Y-77304124D01*
X199384358Y-77304119D01*
X199439505Y-77137697D01*
X199439506Y-77137690D01*
X199449999Y-77034986D01*
X199450000Y-77034973D01*
X199450000Y-76760000D01*
X198700000Y-76760000D01*
X198200000Y-76760000D01*
X198200000Y-76384000D01*
X198219685Y-76316961D01*
X198272489Y-76271206D01*
X198324000Y-76260000D01*
X199449999Y-76260000D01*
X199449999Y-75985028D01*
X199449998Y-75985013D01*
X199439505Y-75882302D01*
X199384358Y-75715880D01*
X199384356Y-75715875D01*
X199292315Y-75566654D01*
X199237342Y-75511681D01*
X199203857Y-75450358D01*
X199208841Y-75380666D01*
X199250713Y-75324733D01*
X199316177Y-75300316D01*
X199325023Y-75300000D01*
X204443500Y-75300000D01*
X204510539Y-75319685D01*
G37*
G04 #@! TD.AperFunction*
M02*
