G04 #@! TF.GenerationSoftware,KiCad,Pcbnew,7.0.2*
G04 #@! TF.CreationDate,2023-10-17T16:40:19-05:00*
G04 #@! TF.ProjectId,ContactorDriver,436f6e74-6163-4746-9f72-447269766572,rev?*
G04 #@! TF.SameCoordinates,Original*
G04 #@! TF.FileFunction,Copper,L1,Top*
G04 #@! TF.FilePolarity,Positive*
%FSLAX46Y46*%
G04 Gerber Fmt 4.6, Leading zero omitted, Abs format (unit mm)*
G04 Created by KiCad (PCBNEW 7.0.2) date 2023-10-17 16:40:19*
%MOMM*%
%LPD*%
G01*
G04 APERTURE LIST*
G04 Aperture macros list*
%AMRoundRect*
0 Rectangle with rounded corners*
0 $1 Rounding radius*
0 $2 $3 $4 $5 $6 $7 $8 $9 X,Y pos of 4 corners*
0 Add a 4 corners polygon primitive as box body*
4,1,4,$2,$3,$4,$5,$6,$7,$8,$9,$2,$3,0*
0 Add four circle primitives for the rounded corners*
1,1,$1+$1,$2,$3*
1,1,$1+$1,$4,$5*
1,1,$1+$1,$6,$7*
1,1,$1+$1,$8,$9*
0 Add four rect primitives between the rounded corners*
20,1,$1+$1,$2,$3,$4,$5,0*
20,1,$1+$1,$4,$5,$6,$7,0*
20,1,$1+$1,$6,$7,$8,$9,0*
20,1,$1+$1,$8,$9,$2,$3,0*%
G04 Aperture macros list end*
G04 #@! TA.AperFunction,ComponentPad*
%ADD10C,2.800000*%
G04 #@! TD*
G04 #@! TA.AperFunction,ComponentPad*
%ADD11O,2.020000X1.500000*%
G04 #@! TD*
G04 #@! TA.AperFunction,ComponentPad*
%ADD12RoundRect,0.250001X0.759999X-0.499999X0.759999X0.499999X-0.759999X0.499999X-0.759999X-0.499999X0*%
G04 #@! TD*
G04 #@! TA.AperFunction,SMDPad,CuDef*
%ADD13RoundRect,0.250000X0.450000X-0.325000X0.450000X0.325000X-0.450000X0.325000X-0.450000X-0.325000X0*%
G04 #@! TD*
G04 #@! TA.AperFunction,ComponentPad*
%ADD14RoundRect,0.250001X-0.759999X0.499999X-0.759999X-0.499999X0.759999X-0.499999X0.759999X0.499999X0*%
G04 #@! TD*
G04 #@! TA.AperFunction,SMDPad,CuDef*
%ADD15RoundRect,0.150000X-0.800000X-0.150000X0.800000X-0.150000X0.800000X0.150000X-0.800000X0.150000X0*%
G04 #@! TD*
G04 #@! TA.AperFunction,SMDPad,CuDef*
%ADD16RoundRect,0.250000X-0.450000X0.350000X-0.450000X-0.350000X0.450000X-0.350000X0.450000X0.350000X0*%
G04 #@! TD*
G04 #@! TA.AperFunction,SMDPad,CuDef*
%ADD17RoundRect,0.250000X0.450000X-0.262500X0.450000X0.262500X-0.450000X0.262500X-0.450000X-0.262500X0*%
G04 #@! TD*
G04 #@! TA.AperFunction,SMDPad,CuDef*
%ADD18RoundRect,0.250000X0.850000X0.350000X-0.850000X0.350000X-0.850000X-0.350000X0.850000X-0.350000X0*%
G04 #@! TD*
G04 #@! TA.AperFunction,SMDPad,CuDef*
%ADD19RoundRect,0.250000X1.275000X1.125000X-1.275000X1.125000X-1.275000X-1.125000X1.275000X-1.125000X0*%
G04 #@! TD*
G04 #@! TA.AperFunction,SMDPad,CuDef*
%ADD20RoundRect,0.249997X2.950003X2.650003X-2.950003X2.650003X-2.950003X-2.650003X2.950003X-2.650003X0*%
G04 #@! TD*
G04 #@! TA.AperFunction,ComponentPad*
%ADD21C,4.500880*%
G04 #@! TD*
G04 #@! TA.AperFunction,SMDPad,CuDef*
%ADD22RoundRect,0.250000X-0.475000X0.250000X-0.475000X-0.250000X0.475000X-0.250000X0.475000X0.250000X0*%
G04 #@! TD*
G04 #@! TA.AperFunction,SMDPad,CuDef*
%ADD23RoundRect,0.250000X-0.250000X-0.475000X0.250000X-0.475000X0.250000X0.475000X-0.250000X0.475000X0*%
G04 #@! TD*
G04 #@! TA.AperFunction,ComponentPad*
%ADD24O,1.800000X1.200000*%
G04 #@! TD*
G04 #@! TA.AperFunction,SMDPad,CuDef*
%ADD25RoundRect,0.218750X-0.218750X-0.381250X0.218750X-0.381250X0.218750X0.381250X-0.218750X0.381250X0*%
G04 #@! TD*
G04 #@! TA.AperFunction,SMDPad,CuDef*
%ADD26R,1.193800X1.041400*%
G04 #@! TD*
G04 #@! TA.AperFunction,ComponentPad*
%ADD27C,1.700000*%
G04 #@! TD*
G04 #@! TA.AperFunction,SMDPad,CuDef*
%ADD28RoundRect,0.218750X0.218750X0.381250X-0.218750X0.381250X-0.218750X-0.381250X0.218750X-0.381250X0*%
G04 #@! TD*
G04 #@! TA.AperFunction,SMDPad,CuDef*
%ADD29R,0.650000X0.400000*%
G04 #@! TD*
G04 #@! TA.AperFunction,SMDPad,CuDef*
%ADD30RoundRect,0.250000X0.475000X-0.250000X0.475000X0.250000X-0.475000X0.250000X-0.475000X-0.250000X0*%
G04 #@! TD*
G04 #@! TA.AperFunction,SMDPad,CuDef*
%ADD31RoundRect,0.112500X-0.112500X0.187500X-0.112500X-0.187500X0.112500X-0.187500X0.112500X0.187500X0*%
G04 #@! TD*
G04 #@! TA.AperFunction,ViaPad*
%ADD32C,0.800000*%
G04 #@! TD*
G04 #@! TA.AperFunction,ViaPad*
%ADD33C,1.600000*%
G04 #@! TD*
G04 #@! TA.AperFunction,Conductor*
%ADD34C,0.500000*%
G04 #@! TD*
G04 #@! TA.AperFunction,Conductor*
%ADD35C,1.000000*%
G04 #@! TD*
G04 #@! TA.AperFunction,Conductor*
%ADD36C,0.250000*%
G04 #@! TD*
G04 APERTURE END LIST*
D10*
X192800000Y-76500000D03*
D11*
X173970000Y-141500000D03*
D12*
X173970000Y-144500000D03*
D13*
X182283650Y-108525000D03*
X182283650Y-106475000D03*
X176500000Y-84937500D03*
X176500000Y-82887500D03*
D14*
X220680000Y-83000000D03*
D11*
X220680000Y-86000000D03*
D15*
X180500000Y-77595000D03*
X180500000Y-78865000D03*
X180500000Y-80135000D03*
X180500000Y-81405000D03*
X187500000Y-81405000D03*
X187500000Y-80135000D03*
X187500000Y-78865000D03*
X187500000Y-77595000D03*
D16*
X215590000Y-88000000D03*
X215590000Y-86000000D03*
D17*
X188500000Y-141412500D03*
X188500000Y-139587500D03*
X176500000Y-79325000D03*
X176500000Y-77500000D03*
D18*
X212500000Y-107000000D03*
D19*
X207875000Y-106245000D03*
X207875000Y-103195000D03*
D20*
X206200000Y-104720000D03*
D19*
X204525000Y-106245000D03*
X204525000Y-103195000D03*
D18*
X212500000Y-102440000D03*
D21*
X226000000Y-158000000D03*
D14*
X220680000Y-103000000D03*
D11*
X220680000Y-106000000D03*
D21*
X177000000Y-120500000D03*
D22*
X196247300Y-101550000D03*
X196247300Y-103450000D03*
D23*
X196550000Y-76510000D03*
X198450000Y-76510000D03*
D18*
X212540000Y-89280000D03*
D19*
X207915000Y-88525000D03*
X207915000Y-85475000D03*
D20*
X206240000Y-87000000D03*
D19*
X204565000Y-88525000D03*
X204565000Y-85475000D03*
D18*
X212540000Y-84720000D03*
D24*
X193027300Y-108860000D03*
X193027300Y-106320000D03*
X193027300Y-103780000D03*
X193027300Y-101240000D03*
D25*
X203437500Y-78000000D03*
X205562500Y-78000000D03*
D26*
X173000000Y-79361700D03*
X173000000Y-82638300D03*
D27*
X167000000Y-79500000D03*
X167000000Y-82500000D03*
X167000000Y-85500000D03*
X167000000Y-88500000D03*
D22*
X196247300Y-106600000D03*
X196247300Y-108500000D03*
D28*
X205530000Y-81000000D03*
X203405000Y-81000000D03*
D29*
X198417500Y-80150000D03*
X198417500Y-79500000D03*
X198417500Y-78850000D03*
X196517500Y-78850000D03*
X196517500Y-79500000D03*
X196517500Y-80150000D03*
D10*
X215000000Y-99000000D03*
D30*
X200000000Y-105950000D03*
X200000000Y-104050000D03*
D17*
X188500000Y-146912500D03*
X188500000Y-145087500D03*
D22*
X201000000Y-78560000D03*
X201000000Y-80460000D03*
D10*
X215000000Y-110500000D03*
D31*
X216000000Y-103450000D03*
X216000000Y-105550000D03*
D17*
X182283650Y-103412500D03*
X182283650Y-101587500D03*
D32*
X207167500Y-78000000D03*
X186000000Y-76750000D03*
X186000000Y-80750000D03*
X186000000Y-78250000D03*
X189100000Y-82200000D03*
X186000000Y-82250000D03*
X186000000Y-79500000D03*
X189000000Y-80750000D03*
X189000000Y-79500000D03*
X189000000Y-78250000D03*
X189000000Y-76750000D03*
X177800000Y-114300000D03*
X203200000Y-127000000D03*
X215900000Y-139700000D03*
X215900000Y-165100000D03*
X190500000Y-165100000D03*
X177800000Y-165100000D03*
X165100000Y-114300000D03*
X190500000Y-114300000D03*
X228600000Y-139700000D03*
X203200000Y-139700000D03*
X203200000Y-165100000D03*
X177800000Y-152400000D03*
X203200000Y-152400000D03*
X190500000Y-152400000D03*
X228600000Y-114300000D03*
X215900000Y-127000000D03*
X215900000Y-114300000D03*
X215900000Y-152400000D03*
X228600000Y-127000000D03*
X228600000Y-152400000D03*
X203200000Y-114300000D03*
D33*
X188500000Y-143000000D03*
D32*
X217800000Y-105600000D03*
D34*
X219000000Y-88000000D02*
X215590000Y-88000000D01*
X178562500Y-87000000D02*
X206240000Y-87000000D01*
X176500000Y-84937500D02*
X178562500Y-87000000D01*
X220680000Y-86320000D02*
X220680000Y-86000000D01*
X219000000Y-88000000D02*
X220680000Y-86320000D01*
X212540000Y-89280000D02*
X214310000Y-89280000D01*
X214310000Y-89280000D02*
X215590000Y-88000000D01*
X195940000Y-101240000D02*
X193027300Y-101240000D01*
X196247300Y-101547300D02*
X195940000Y-101240000D01*
X205562500Y-78000000D02*
X207167500Y-78000000D01*
X196247300Y-101550000D02*
X196247300Y-101547300D01*
X182631150Y-101240000D02*
X193027300Y-101240000D01*
X182283650Y-101587500D02*
X182631150Y-101240000D01*
X196247300Y-108500000D02*
X197450000Y-108500000D01*
X200000000Y-105950000D02*
X204230000Y-105950000D01*
X195887300Y-108860000D02*
X196247300Y-108500000D01*
X204230000Y-105950000D02*
X204525000Y-106245000D01*
X197450000Y-108500000D02*
X200000000Y-105950000D01*
X193027300Y-108860000D02*
X195887300Y-108860000D01*
D35*
X188500000Y-145087500D02*
X188500000Y-143000000D01*
D34*
X192760000Y-76510000D02*
X192750000Y-76500000D01*
X196550000Y-76510000D02*
X192760000Y-76510000D01*
X196550000Y-76510000D02*
X196550000Y-78817500D01*
X196550000Y-78817500D02*
X196517500Y-78850000D01*
D35*
X188500000Y-141412500D02*
X188500000Y-143000000D01*
D34*
X180500000Y-81405000D02*
X182595000Y-83500000D01*
X196517500Y-83477500D02*
X196550000Y-83510000D01*
X182595000Y-83500000D02*
X196540000Y-83500000D01*
X196517500Y-81500000D02*
X196517500Y-83477500D01*
X196517500Y-80150000D02*
X196517500Y-81500000D01*
X196540000Y-83500000D02*
X196550000Y-83510000D01*
X220680000Y-106000000D02*
X220525000Y-106000000D01*
X220680000Y-106020000D02*
X216200000Y-110500000D01*
X213510000Y-103450000D02*
X212500000Y-102440000D01*
X216000000Y-103450000D02*
X213510000Y-103450000D01*
X220525000Y-106000000D02*
X217975000Y-103450000D01*
X220680000Y-106000000D02*
X220680000Y-106020000D01*
X216200000Y-110500000D02*
X215000000Y-110500000D01*
X217975000Y-103450000D02*
X216000000Y-103450000D01*
X213950000Y-105550000D02*
X212500000Y-107000000D01*
X216000000Y-99000000D02*
X215000000Y-99000000D01*
X216000000Y-105550000D02*
X217750000Y-105550000D01*
X216000000Y-105550000D02*
X213950000Y-105550000D01*
X195967300Y-106320000D02*
X196247300Y-106600000D01*
X220680000Y-103000000D02*
X220000000Y-103000000D01*
X217750000Y-105550000D02*
X217800000Y-105600000D01*
X193027300Y-106320000D02*
X195967300Y-106320000D01*
X220000000Y-103000000D02*
X216000000Y-99000000D01*
X173000000Y-83200000D02*
X174737500Y-84937500D01*
X173000000Y-82638300D02*
X173000000Y-83200000D01*
X172861700Y-82500000D02*
X173000000Y-82638300D01*
X174737500Y-84937500D02*
X176500000Y-84937500D01*
X167000000Y-82500000D02*
X172861700Y-82500000D01*
D36*
X176500000Y-79325000D02*
X176500000Y-82887500D01*
D34*
X180405000Y-77500000D02*
X180500000Y-77595000D01*
X167000000Y-79500000D02*
X172861700Y-79500000D01*
X172861700Y-79500000D02*
X173000000Y-79361700D01*
X173000000Y-79361700D02*
X173000000Y-78900000D01*
X174400000Y-77500000D02*
X176500000Y-77500000D01*
X176500000Y-77500000D02*
X180405000Y-77500000D01*
X173000000Y-78900000D02*
X174400000Y-77500000D01*
X180500000Y-78865000D02*
X180500000Y-80135000D01*
X180500000Y-77595000D02*
X180500000Y-78865000D01*
D36*
X182283650Y-106475000D02*
X182283650Y-103412500D01*
X198417500Y-78850000D02*
X198717500Y-78850000D01*
X198717500Y-78850000D02*
X199007500Y-78560000D01*
X202877500Y-78560000D02*
X203437500Y-78000000D01*
X199007500Y-78560000D02*
X201000000Y-78560000D01*
X201000000Y-78560000D02*
X202877500Y-78560000D01*
G04 #@! TA.AperFunction,Conductor*
G36*
X183887343Y-116019707D02*
G01*
X183956584Y-116074926D01*
X183995011Y-116154718D01*
X184000000Y-116199000D01*
X184000000Y-127000000D01*
X198301000Y-127000000D01*
X198387343Y-127019707D01*
X198456584Y-127074926D01*
X198495011Y-127154718D01*
X198500000Y-127199000D01*
X198500000Y-142551000D01*
X198480293Y-142637343D01*
X198425074Y-142706584D01*
X198345282Y-142745011D01*
X198301000Y-142750000D01*
X189617272Y-142750000D01*
X189530929Y-142730293D01*
X189461688Y-142675074D01*
X189439061Y-142632019D01*
X189438054Y-142632558D01*
X189335911Y-142441464D01*
X189335910Y-142441462D01*
X189245671Y-142331506D01*
X189206130Y-142252260D01*
X189200500Y-142205261D01*
X189200500Y-142150489D01*
X189220207Y-142064146D01*
X189254370Y-142021307D01*
X189254338Y-142021284D01*
X189272148Y-141997151D01*
X189272150Y-141997150D01*
X189352793Y-141887882D01*
X189397646Y-141759699D01*
X189400500Y-141729266D01*
X189400500Y-141095734D01*
X189397646Y-141065301D01*
X189352793Y-140937118D01*
X189301907Y-140868170D01*
X189272150Y-140827849D01*
X189217516Y-140787528D01*
X189162882Y-140747207D01*
X189034699Y-140702354D01*
X189026472Y-140701582D01*
X189008896Y-140699934D01*
X189008891Y-140699933D01*
X189004266Y-140699500D01*
X187995734Y-140699500D01*
X187991109Y-140699933D01*
X187991103Y-140699934D01*
X187965301Y-140702354D01*
X187837118Y-140747207D01*
X187837116Y-140747208D01*
X187837117Y-140747208D01*
X187727849Y-140827849D01*
X187657770Y-140922804D01*
X187647207Y-140937118D01*
X187602354Y-141065301D01*
X187599500Y-141095734D01*
X187599500Y-141729266D01*
X187602354Y-141759699D01*
X187647207Y-141887882D01*
X187727850Y-141997150D01*
X187727851Y-141997150D01*
X187745662Y-142021284D01*
X187745422Y-142021460D01*
X187776436Y-142057496D01*
X187799361Y-142143041D01*
X187799500Y-142150489D01*
X187799500Y-142205261D01*
X187779793Y-142291604D01*
X187754329Y-142331506D01*
X187664088Y-142441464D01*
X187561946Y-142632558D01*
X187560126Y-142631585D01*
X187529236Y-142685671D01*
X187456296Y-142735902D01*
X187382728Y-142750000D01*
X171555826Y-142750000D01*
X171469483Y-142730293D01*
X171400242Y-142675074D01*
X171365667Y-142609657D01*
X171361233Y-142595282D01*
X171287798Y-142357212D01*
X171173702Y-142120290D01*
X171025570Y-141903020D01*
X170846710Y-141710254D01*
X170641117Y-141546299D01*
X170413384Y-141414817D01*
X170413379Y-141414814D01*
X170168602Y-141318747D01*
X169912228Y-141260231D01*
X169719352Y-141245777D01*
X169719348Y-141245776D01*
X169715654Y-141245500D01*
X169584346Y-141245500D01*
X169580652Y-141245776D01*
X169580647Y-141245777D01*
X169387771Y-141260231D01*
X169131397Y-141318747D01*
X168886620Y-141414814D01*
X168658881Y-141546300D01*
X168453290Y-141710253D01*
X168274429Y-141903021D01*
X168126299Y-142120288D01*
X168012202Y-142357212D01*
X167934333Y-142609657D01*
X167890051Y-142686355D01*
X167816877Y-142736244D01*
X167744174Y-142750000D01*
X164299500Y-142750000D01*
X164213157Y-142730293D01*
X164143916Y-142675074D01*
X164105489Y-142595282D01*
X164100500Y-142551000D01*
X164100500Y-121131484D01*
X165245500Y-121131484D01*
X165284690Y-121391504D01*
X165339952Y-121570658D01*
X165362202Y-121642788D01*
X165476298Y-121879710D01*
X165624430Y-122096980D01*
X165803290Y-122289746D01*
X166008883Y-122453701D01*
X166236616Y-122585183D01*
X166236617Y-122585183D01*
X166236620Y-122585185D01*
X166461693Y-122673519D01*
X166481402Y-122681254D01*
X166737772Y-122739769D01*
X166934346Y-122754500D01*
X166938063Y-122754500D01*
X167061937Y-122754500D01*
X167065654Y-122754500D01*
X167262228Y-122739769D01*
X167518598Y-122681254D01*
X167763384Y-122585183D01*
X167991117Y-122453701D01*
X168196710Y-122289746D01*
X168375570Y-122096980D01*
X168523702Y-121879710D01*
X168637798Y-121642788D01*
X168715308Y-121391508D01*
X168754500Y-121131482D01*
X168754500Y-120868518D01*
X168754500Y-120868515D01*
X168715309Y-120608495D01*
X168709926Y-120591046D01*
X168637798Y-120357212D01*
X168523702Y-120120290D01*
X168375570Y-119903020D01*
X168196710Y-119710254D01*
X167991117Y-119546299D01*
X167763384Y-119414817D01*
X167763379Y-119414814D01*
X167518602Y-119318747D01*
X167262228Y-119260231D01*
X167069352Y-119245777D01*
X167069348Y-119245776D01*
X167065654Y-119245500D01*
X166934346Y-119245500D01*
X166930652Y-119245776D01*
X166930647Y-119245777D01*
X166737771Y-119260231D01*
X166481397Y-119318747D01*
X166236620Y-119414814D01*
X166008881Y-119546300D01*
X165803290Y-119710253D01*
X165624429Y-119903021D01*
X165476299Y-120120288D01*
X165362202Y-120357212D01*
X165284690Y-120608495D01*
X165245500Y-120868515D01*
X165245500Y-121131484D01*
X164100500Y-121131484D01*
X164100500Y-116199000D01*
X164120207Y-116112657D01*
X164175426Y-116043416D01*
X164255218Y-116004989D01*
X164299500Y-116000000D01*
X183801000Y-116000000D01*
X183887343Y-116019707D01*
G37*
G04 #@! TD.AperFunction*
G04 #@! TA.AperFunction,Conductor*
G36*
X227005573Y-68100813D02*
G01*
X227017130Y-68101462D01*
X227313491Y-68118104D01*
X227335651Y-68120601D01*
X227634176Y-68171324D01*
X227655931Y-68176289D01*
X227946908Y-68260117D01*
X227967971Y-68267487D01*
X228247725Y-68383366D01*
X228267823Y-68393045D01*
X228532844Y-68539517D01*
X228551739Y-68551389D01*
X228798696Y-68726614D01*
X228816144Y-68740529D01*
X229041922Y-68942298D01*
X229057701Y-68958077D01*
X229259470Y-69183855D01*
X229273385Y-69201303D01*
X229448610Y-69448260D01*
X229460482Y-69467155D01*
X229606954Y-69732176D01*
X229616637Y-69752282D01*
X229732511Y-70032027D01*
X229739882Y-70053091D01*
X229823710Y-70344068D01*
X229828675Y-70365823D01*
X229879396Y-70664337D01*
X229881895Y-70686514D01*
X229899187Y-70994425D01*
X229899500Y-71005583D01*
X229899500Y-164994415D01*
X229899187Y-165005573D01*
X229881895Y-165313485D01*
X229879396Y-165335662D01*
X229828675Y-165634176D01*
X229823710Y-165655931D01*
X229739882Y-165946908D01*
X229732511Y-165967972D01*
X229616637Y-166247717D01*
X229606954Y-166267823D01*
X229460482Y-166532844D01*
X229448610Y-166551739D01*
X229273385Y-166798696D01*
X229259470Y-166816144D01*
X229057701Y-167041922D01*
X229041922Y-167057701D01*
X228816144Y-167259470D01*
X228798697Y-167273384D01*
X228551734Y-167448614D01*
X228532838Y-167460487D01*
X228506273Y-167475169D01*
X228421171Y-167499687D01*
X228410013Y-167500000D01*
X165589987Y-167500000D01*
X165503644Y-167480293D01*
X165493751Y-167475182D01*
X165467146Y-167460478D01*
X165448265Y-167448614D01*
X165201302Y-167273384D01*
X165183855Y-167259470D01*
X164958077Y-167057701D01*
X164942298Y-167041922D01*
X164740529Y-166816144D01*
X164726614Y-166798696D01*
X164551389Y-166551739D01*
X164539517Y-166532844D01*
X164393045Y-166267823D01*
X164383366Y-166247725D01*
X164267487Y-165967971D01*
X164260117Y-165946908D01*
X164176289Y-165655931D01*
X164171324Y-165634176D01*
X164130092Y-165391508D01*
X164120601Y-165335651D01*
X164118104Y-165313491D01*
X164107884Y-165131484D01*
X165245500Y-165131484D01*
X165284690Y-165391504D01*
X165339952Y-165570658D01*
X165362202Y-165642788D01*
X165476298Y-165879710D01*
X165624430Y-166096980D01*
X165803290Y-166289746D01*
X166008883Y-166453701D01*
X166236616Y-166585183D01*
X166236617Y-166585183D01*
X166236620Y-166585185D01*
X166461693Y-166673519D01*
X166481402Y-166681254D01*
X166737772Y-166739769D01*
X166934346Y-166754500D01*
X166938063Y-166754500D01*
X167061937Y-166754500D01*
X167065654Y-166754500D01*
X167262228Y-166739769D01*
X167518598Y-166681254D01*
X167763384Y-166585183D01*
X167991117Y-166453701D01*
X168196710Y-166289746D01*
X168375570Y-166096980D01*
X168523702Y-165879710D01*
X168637798Y-165642788D01*
X168715308Y-165391508D01*
X168723726Y-165335662D01*
X168754500Y-165131484D01*
X225245499Y-165131484D01*
X225284690Y-165391504D01*
X225339952Y-165570658D01*
X225362202Y-165642788D01*
X225476298Y-165879710D01*
X225624430Y-166096980D01*
X225803290Y-166289746D01*
X226008883Y-166453701D01*
X226236616Y-166585183D01*
X226236617Y-166585183D01*
X226236620Y-166585185D01*
X226461693Y-166673519D01*
X226481402Y-166681254D01*
X226737772Y-166739769D01*
X226934346Y-166754500D01*
X226938063Y-166754500D01*
X227061937Y-166754500D01*
X227065654Y-166754500D01*
X227262228Y-166739769D01*
X227518598Y-166681254D01*
X227763384Y-166585183D01*
X227991117Y-166453701D01*
X228196710Y-166289746D01*
X228375570Y-166096980D01*
X228523702Y-165879710D01*
X228637798Y-165642788D01*
X228715308Y-165391508D01*
X228723726Y-165335662D01*
X228754500Y-165131484D01*
X228754500Y-164868515D01*
X228715309Y-164608495D01*
X228709926Y-164591046D01*
X228637798Y-164357212D01*
X228523702Y-164120290D01*
X228375570Y-163903020D01*
X228196710Y-163710254D01*
X227991117Y-163546299D01*
X227763384Y-163414817D01*
X227763379Y-163414814D01*
X227518602Y-163318747D01*
X227262228Y-163260231D01*
X227069352Y-163245777D01*
X227069348Y-163245776D01*
X227065654Y-163245500D01*
X226934346Y-163245500D01*
X226930652Y-163245776D01*
X226930647Y-163245777D01*
X226737771Y-163260231D01*
X226481397Y-163318747D01*
X226236620Y-163414814D01*
X226008881Y-163546300D01*
X225803290Y-163710253D01*
X225624429Y-163903021D01*
X225476299Y-164120288D01*
X225362202Y-164357212D01*
X225284690Y-164608495D01*
X225245499Y-164868515D01*
X225245499Y-165131484D01*
X168754500Y-165131484D01*
X168754500Y-164868515D01*
X168715309Y-164608495D01*
X168709926Y-164591046D01*
X168637798Y-164357212D01*
X168523702Y-164120290D01*
X168375570Y-163903020D01*
X168196710Y-163710254D01*
X167991117Y-163546299D01*
X167763384Y-163414817D01*
X167763379Y-163414814D01*
X167518602Y-163318747D01*
X167262228Y-163260231D01*
X167069352Y-163245777D01*
X167069348Y-163245776D01*
X167065654Y-163245500D01*
X166934346Y-163245500D01*
X166930652Y-163245776D01*
X166930647Y-163245777D01*
X166737771Y-163260231D01*
X166481397Y-163318747D01*
X166236620Y-163414814D01*
X166008881Y-163546300D01*
X165803290Y-163710253D01*
X165624429Y-163903021D01*
X165476299Y-164120288D01*
X165362202Y-164357212D01*
X165284690Y-164608495D01*
X165245500Y-164868515D01*
X165245500Y-165131484D01*
X164107884Y-165131484D01*
X164100813Y-165005572D01*
X164100500Y-164994415D01*
X164100500Y-158267910D01*
X215541779Y-158267910D01*
X215571470Y-158537746D01*
X215640131Y-158800381D01*
X215746305Y-159050229D01*
X215887715Y-159281940D01*
X216061368Y-159490604D01*
X216263542Y-159671754D01*
X216263544Y-159671755D01*
X216263546Y-159671757D01*
X216489947Y-159821542D01*
X216735743Y-159936767D01*
X216995696Y-160014975D01*
X216995697Y-160014975D01*
X217264265Y-160054500D01*
X217264268Y-160054500D01*
X217464149Y-160054500D01*
X217467781Y-160054500D01*
X217670740Y-160039645D01*
X217935709Y-159980621D01*
X218189261Y-159883646D01*
X218425991Y-159750786D01*
X218640853Y-159584875D01*
X218829269Y-159389447D01*
X218987223Y-159168668D01*
X219111348Y-158927244D01*
X219198998Y-158670320D01*
X219248306Y-158403371D01*
X219258220Y-158132089D01*
X219228530Y-157862253D01*
X219159868Y-157599616D01*
X219053697Y-157349776D01*
X219053695Y-157349773D01*
X219053694Y-157349770D01*
X218912284Y-157118059D01*
X218738631Y-156909395D01*
X218536457Y-156728245D01*
X218536454Y-156728243D01*
X218310053Y-156578458D01*
X218064257Y-156463233D01*
X218064255Y-156463232D01*
X217804302Y-156385024D01*
X217535735Y-156345500D01*
X217535732Y-156345500D01*
X217332219Y-156345500D01*
X217328601Y-156345764D01*
X217328595Y-156345765D01*
X217129260Y-156360354D01*
X216864289Y-156419379D01*
X216610743Y-156516352D01*
X216374004Y-156649217D01*
X216159145Y-156815125D01*
X215970734Y-157010549D01*
X215812777Y-157231332D01*
X215688652Y-157472755D01*
X215601002Y-157729680D01*
X215551693Y-157996632D01*
X215541779Y-158267910D01*
X164100500Y-158267910D01*
X164100500Y-147112500D01*
X187400000Y-147112500D01*
X187400000Y-147236731D01*
X187400307Y-147244557D01*
X187402898Y-147277485D01*
X187448718Y-147435199D01*
X187532317Y-147576557D01*
X187648442Y-147692682D01*
X187789800Y-147776281D01*
X187947514Y-147822101D01*
X187980442Y-147824692D01*
X187988268Y-147825000D01*
X188299999Y-147825000D01*
X188300000Y-147112500D01*
X188700000Y-147112500D01*
X188700000Y-147825000D01*
X189011732Y-147825000D01*
X189019557Y-147824692D01*
X189052485Y-147822101D01*
X189210199Y-147776281D01*
X189351557Y-147692682D01*
X189467682Y-147576557D01*
X189551281Y-147435199D01*
X189597101Y-147277485D01*
X189599692Y-147244557D01*
X189600000Y-147236731D01*
X189600000Y-147112500D01*
X188700000Y-147112500D01*
X188300000Y-147112500D01*
X187400000Y-147112500D01*
X164100500Y-147112500D01*
X164100500Y-143449000D01*
X164120207Y-143362657D01*
X164175426Y-143293416D01*
X164255218Y-143254989D01*
X164299500Y-143250000D01*
X167744174Y-143250000D01*
X167830517Y-143269707D01*
X167899758Y-143324926D01*
X167934333Y-143390343D01*
X167934691Y-143391505D01*
X167934692Y-143391508D01*
X168012202Y-143642788D01*
X168126298Y-143879710D01*
X168274430Y-144096980D01*
X168453290Y-144289746D01*
X168658883Y-144453701D01*
X168886616Y-144585183D01*
X168886617Y-144585183D01*
X168886620Y-144585185D01*
X169111693Y-144673519D01*
X169131402Y-144681254D01*
X169387772Y-144739769D01*
X169584346Y-144754500D01*
X169588063Y-144754500D01*
X169711937Y-144754500D01*
X169715654Y-144754500D01*
X169912228Y-144739769D01*
X170168598Y-144681254D01*
X170413384Y-144585183D01*
X170641117Y-144453701D01*
X170846710Y-144289746D01*
X171025570Y-144096980D01*
X171173702Y-143879710D01*
X171287798Y-143642788D01*
X171365308Y-143391508D01*
X171365308Y-143391505D01*
X171365667Y-143390343D01*
X171409949Y-143313645D01*
X171483123Y-143263756D01*
X171555826Y-143250000D01*
X187382728Y-143250000D01*
X187469071Y-143269707D01*
X187538312Y-143324926D01*
X187560938Y-143367980D01*
X187561946Y-143367442D01*
X187664089Y-143558538D01*
X187754328Y-143668494D01*
X187793870Y-143747740D01*
X187799499Y-143794738D01*
X187799499Y-144349510D01*
X187779792Y-144435853D01*
X187745628Y-144478691D01*
X187745662Y-144478716D01*
X187647207Y-144612117D01*
X187647206Y-144612118D01*
X187647207Y-144612118D01*
X187602354Y-144740301D01*
X187599500Y-144770734D01*
X187599500Y-145404266D01*
X187602354Y-145434699D01*
X187647207Y-145562882D01*
X187711108Y-145649466D01*
X187727848Y-145672148D01*
X187727850Y-145672150D01*
X187796887Y-145723101D01*
X187854655Y-145790228D01*
X187877578Y-145875773D01*
X187861114Y-145962793D01*
X187808524Y-146034051D01*
X187780017Y-146054503D01*
X187648443Y-146132316D01*
X187532317Y-146248442D01*
X187448718Y-146389800D01*
X187402898Y-146547514D01*
X187400307Y-146580442D01*
X187400000Y-146588268D01*
X187400000Y-146712500D01*
X189600000Y-146712500D01*
X189600000Y-146588268D01*
X189599692Y-146580442D01*
X189597101Y-146547514D01*
X189551281Y-146389800D01*
X189467682Y-146248442D01*
X189351556Y-146132316D01*
X189219982Y-146054503D01*
X189155695Y-145993588D01*
X189124205Y-145910813D01*
X189131748Y-145822571D01*
X189176831Y-145746341D01*
X189203103Y-145723108D01*
X189272150Y-145672150D01*
X189352793Y-145562882D01*
X189397646Y-145434699D01*
X189400500Y-145404266D01*
X189400500Y-144770734D01*
X189397646Y-144740301D01*
X189352793Y-144612118D01*
X189272150Y-144502850D01*
X189254338Y-144478715D01*
X189254577Y-144478537D01*
X189223559Y-144442492D01*
X189200639Y-144356946D01*
X189200500Y-144349509D01*
X189200500Y-143794738D01*
X189220207Y-143708395D01*
X189245672Y-143668493D01*
X189335910Y-143558538D01*
X189438054Y-143367442D01*
X189439873Y-143368414D01*
X189470764Y-143314329D01*
X189543704Y-143264098D01*
X189617272Y-143250000D01*
X200000000Y-143250000D01*
X200000000Y-115000000D01*
X164299500Y-115000000D01*
X164213157Y-114980293D01*
X164143916Y-114925074D01*
X164105489Y-114845282D01*
X164100500Y-114801000D01*
X164100500Y-108725000D01*
X181183650Y-108725000D01*
X181183650Y-108911731D01*
X181183957Y-108919557D01*
X181186548Y-108952485D01*
X181232368Y-109110199D01*
X181315967Y-109251557D01*
X181432092Y-109367682D01*
X181573450Y-109451281D01*
X181731164Y-109497101D01*
X181764092Y-109499692D01*
X181771918Y-109500000D01*
X182083650Y-109500000D01*
X182083650Y-108725000D01*
X182483650Y-108725000D01*
X182483650Y-109500000D01*
X182795382Y-109500000D01*
X182803207Y-109499692D01*
X182836135Y-109497101D01*
X182993849Y-109451281D01*
X183135207Y-109367682D01*
X183251332Y-109251557D01*
X183334931Y-109110199D01*
X183380751Y-108952485D01*
X183383342Y-108919557D01*
X183383650Y-108911731D01*
X183383650Y-108860000D01*
X191921735Y-108860000D01*
X191941932Y-109039255D01*
X192001448Y-109209342D01*
X192001512Y-109209524D01*
X192097483Y-109362262D01*
X192225037Y-109489816D01*
X192266948Y-109516150D01*
X192377778Y-109585789D01*
X192548045Y-109645368D01*
X192682346Y-109660500D01*
X192687927Y-109660500D01*
X193366673Y-109660500D01*
X193372254Y-109660500D01*
X193506555Y-109645368D01*
X193676822Y-109585789D01*
X193829562Y-109489816D01*
X193950593Y-109368784D01*
X194025580Y-109321667D01*
X194091306Y-109310500D01*
X195850823Y-109310500D01*
X195873101Y-109311750D01*
X195904335Y-109315270D01*
X195959124Y-109304902D01*
X195966448Y-109303658D01*
X196021587Y-109295348D01*
X196021588Y-109295347D01*
X196030135Y-109294059D01*
X196037770Y-109290023D01*
X196037772Y-109290023D01*
X196087080Y-109263961D01*
X196093688Y-109260625D01*
X196143942Y-109236425D01*
X196143942Y-109236424D01*
X196170971Y-109223409D01*
X196172443Y-109226466D01*
X196202104Y-109209342D01*
X196260763Y-109200500D01*
X196771909Y-109200500D01*
X196776566Y-109200500D01*
X196806999Y-109197646D01*
X196935182Y-109152793D01*
X197044450Y-109072150D01*
X197046381Y-109069534D01*
X197074577Y-109031330D01*
X197141705Y-108973561D01*
X197227251Y-108950639D01*
X197234692Y-108950500D01*
X197413523Y-108950500D01*
X197435801Y-108951750D01*
X197467035Y-108955270D01*
X197521824Y-108944902D01*
X197529148Y-108943658D01*
X197584287Y-108935348D01*
X197584288Y-108935347D01*
X197592835Y-108934059D01*
X197600470Y-108930023D01*
X197600472Y-108930023D01*
X197649780Y-108903961D01*
X197656388Y-108900625D01*
X197706642Y-108876425D01*
X197706643Y-108876423D01*
X197714428Y-108872675D01*
X197720535Y-108866567D01*
X197720538Y-108866566D01*
X197760005Y-108827097D01*
X197765313Y-108821985D01*
X197806194Y-108784055D01*
X197806194Y-108784054D01*
X197816254Y-108774721D01*
X197829016Y-108758086D01*
X199878316Y-106708786D01*
X199953306Y-106661667D01*
X200019031Y-106650500D01*
X200524609Y-106650500D01*
X200529266Y-106650500D01*
X200559699Y-106647646D01*
X200687882Y-106602793D01*
X200797150Y-106522150D01*
X200801673Y-106516022D01*
X200827277Y-106481330D01*
X200894405Y-106423561D01*
X200979951Y-106400639D01*
X200987392Y-106400500D01*
X202600500Y-106400500D01*
X202686843Y-106420207D01*
X202756084Y-106475426D01*
X202794511Y-106555218D01*
X202799500Y-106599500D01*
X202799500Y-107424276D01*
X202799933Y-107428900D01*
X202799934Y-107428908D01*
X202802353Y-107454702D01*
X202847206Y-107582884D01*
X202927848Y-107692151D01*
X203008490Y-107751667D01*
X203037116Y-107772794D01*
X203165298Y-107817647D01*
X203195724Y-107820500D01*
X203195734Y-107820500D01*
X203200383Y-107820500D01*
X209199617Y-107820500D01*
X209204266Y-107820500D01*
X209204276Y-107820500D01*
X209234702Y-107817647D01*
X209362884Y-107772794D01*
X209472151Y-107692151D01*
X209552794Y-107582884D01*
X209597647Y-107454702D01*
X209600500Y-107424276D01*
X209600500Y-107404266D01*
X211199500Y-107404266D01*
X211202354Y-107434699D01*
X211247207Y-107562882D01*
X211287528Y-107617516D01*
X211327849Y-107672150D01*
X211368170Y-107701907D01*
X211437118Y-107752793D01*
X211565301Y-107797646D01*
X211595734Y-107800500D01*
X211600391Y-107800500D01*
X213399609Y-107800500D01*
X213404266Y-107800500D01*
X213434699Y-107797646D01*
X213562882Y-107752793D01*
X213672150Y-107672150D01*
X213752793Y-107562882D01*
X213797646Y-107434699D01*
X213800500Y-107404266D01*
X213800500Y-106595734D01*
X213797646Y-106565301D01*
X213780401Y-106516019D01*
X213770485Y-106428016D01*
X213799735Y-106344422D01*
X213827511Y-106309591D01*
X214078319Y-106058783D01*
X214153306Y-106011667D01*
X214219031Y-106000500D01*
X215666767Y-106000500D01*
X215750865Y-106019143D01*
X215805240Y-106044499D01*
X215850821Y-106050500D01*
X216149178Y-106050499D01*
X216194760Y-106044499D01*
X216249132Y-106019144D01*
X216333233Y-106000500D01*
X217267960Y-106000500D01*
X217354303Y-106020207D01*
X217389103Y-106041622D01*
X217497159Y-106124536D01*
X217643238Y-106185044D01*
X217800000Y-106205682D01*
X217956762Y-106185044D01*
X218102841Y-106124536D01*
X218228282Y-106028282D01*
X218324536Y-105902841D01*
X218385044Y-105756762D01*
X218405682Y-105600000D01*
X218385044Y-105443238D01*
X218324536Y-105297159D01*
X218228282Y-105171718D01*
X218102841Y-105075464D01*
X218102840Y-105075463D01*
X217956763Y-105014956D01*
X217800000Y-104994318D01*
X217643236Y-105014956D01*
X217475701Y-105084352D01*
X217399547Y-105099500D01*
X216333233Y-105099500D01*
X216249134Y-105080856D01*
X216194760Y-105055501D01*
X216194758Y-105055500D01*
X216155648Y-105050351D01*
X216155637Y-105050350D01*
X216149179Y-105049500D01*
X216142657Y-105049500D01*
X215857335Y-105049500D01*
X215857320Y-105049500D01*
X215850822Y-105049501D01*
X215844370Y-105050350D01*
X215844359Y-105050351D01*
X215805241Y-105055500D01*
X215786681Y-105064155D01*
X215750867Y-105080855D01*
X215666767Y-105099500D01*
X213986478Y-105099500D01*
X213964198Y-105098249D01*
X213960996Y-105097888D01*
X213932963Y-105094729D01*
X213878172Y-105105096D01*
X213870841Y-105106342D01*
X213807163Y-105115940D01*
X213750202Y-105146045D01*
X213743563Y-105149396D01*
X213685573Y-105177323D01*
X213640025Y-105222870D01*
X213634670Y-105228028D01*
X213583754Y-105275272D01*
X213570987Y-105291908D01*
X212721683Y-106141214D01*
X212646695Y-106188333D01*
X212580969Y-106199500D01*
X211595734Y-106199500D01*
X211591109Y-106199933D01*
X211591103Y-106199934D01*
X211565301Y-106202354D01*
X211437118Y-106247207D01*
X211437116Y-106247208D01*
X211437117Y-106247208D01*
X211327849Y-106327849D01*
X211269631Y-106406734D01*
X211247207Y-106437118D01*
X211202354Y-106565301D01*
X211199500Y-106595734D01*
X211199500Y-107404266D01*
X209600500Y-107404266D01*
X209600500Y-102844266D01*
X211199500Y-102844266D01*
X211202354Y-102874699D01*
X211247207Y-103002882D01*
X211287528Y-103057516D01*
X211327849Y-103112150D01*
X211352635Y-103130442D01*
X211437118Y-103192793D01*
X211565301Y-103237646D01*
X211595734Y-103240500D01*
X212580968Y-103240500D01*
X212667311Y-103260207D01*
X212721682Y-103298786D01*
X213165653Y-103742756D01*
X213180522Y-103759394D01*
X213200121Y-103783970D01*
X213246213Y-103815395D01*
X213252261Y-103819686D01*
X213293332Y-103849999D01*
X213304072Y-103857925D01*
X213312325Y-103860470D01*
X213312327Y-103860472D01*
X213365643Y-103876917D01*
X213372664Y-103879227D01*
X213425301Y-103897646D01*
X213425303Y-103897646D01*
X213433459Y-103900500D01*
X213442098Y-103900500D01*
X213497830Y-103900500D01*
X213505273Y-103900639D01*
X213574714Y-103903238D01*
X213595514Y-103900500D01*
X215666767Y-103900500D01*
X215750865Y-103919143D01*
X215805240Y-103944499D01*
X215850821Y-103950500D01*
X216149178Y-103950499D01*
X216194760Y-103944499D01*
X216249132Y-103919144D01*
X216333233Y-103900500D01*
X217705968Y-103900500D01*
X217792311Y-103920207D01*
X217846682Y-103958786D01*
X218652477Y-104764581D01*
X219450201Y-105562304D01*
X219497320Y-105637292D01*
X219507236Y-105725299D01*
X219502135Y-105752897D01*
X219475615Y-105855325D01*
X219465823Y-106048392D01*
X219495096Y-106239473D01*
X219539527Y-106359437D01*
X219551035Y-106447250D01*
X219523302Y-106531359D01*
X219493629Y-106569266D01*
X216546745Y-109516150D01*
X216471757Y-109563269D01*
X216383750Y-109573185D01*
X216300157Y-109543934D01*
X216254711Y-109504677D01*
X216135224Y-109364776D01*
X216077260Y-109315270D01*
X215943659Y-109201164D01*
X215728859Y-109069534D01*
X215655759Y-109039255D01*
X215496112Y-108973127D01*
X215251149Y-108914317D01*
X215000000Y-108894551D01*
X214748850Y-108914317D01*
X214503887Y-108973127D01*
X214271142Y-109069533D01*
X214056341Y-109201164D01*
X213864776Y-109364776D01*
X213701164Y-109556341D01*
X213569533Y-109771142D01*
X213473127Y-110003887D01*
X213473127Y-110003889D01*
X213414317Y-110248852D01*
X213394551Y-110500000D01*
X213414317Y-110751148D01*
X213473127Y-110996111D01*
X213569534Y-111228859D01*
X213701164Y-111443659D01*
X213864776Y-111635224D01*
X214056341Y-111798836D01*
X214271141Y-111930466D01*
X214503889Y-112026873D01*
X214748852Y-112085683D01*
X215000000Y-112105449D01*
X215251148Y-112085683D01*
X215496111Y-112026873D01*
X215728859Y-111930466D01*
X215943659Y-111798836D01*
X216135224Y-111635224D01*
X216298836Y-111443659D01*
X216430466Y-111228859D01*
X216526873Y-110996111D01*
X216572494Y-110806078D01*
X216611812Y-110726723D01*
X216625272Y-110711830D01*
X220328317Y-107008785D01*
X220403305Y-106961667D01*
X220469031Y-106950500D01*
X220983155Y-106950500D01*
X220988206Y-106950500D01*
X221132321Y-106935845D01*
X221316768Y-106877974D01*
X221485791Y-106784159D01*
X221632468Y-106658240D01*
X221750796Y-106505373D01*
X221835930Y-106331816D01*
X221884385Y-106144674D01*
X221894176Y-105951610D01*
X221893501Y-105947207D01*
X221864903Y-105760526D01*
X221863509Y-105756762D01*
X221797764Y-105579247D01*
X221695509Y-105415193D01*
X221682960Y-105401991D01*
X221562323Y-105275080D01*
X221403660Y-105164648D01*
X221360310Y-105146045D01*
X221226012Y-105088413D01*
X221036656Y-105049500D01*
X220371794Y-105049500D01*
X220366771Y-105050010D01*
X220366766Y-105050011D01*
X220320408Y-105054725D01*
X220232515Y-105043854D01*
X220159563Y-104997460D01*
X219793587Y-104631484D01*
X223245500Y-104631484D01*
X223284690Y-104891504D01*
X223298873Y-104937482D01*
X223362202Y-105142788D01*
X223476298Y-105379710D01*
X223624430Y-105596980D01*
X223803290Y-105789746D01*
X224008883Y-105953701D01*
X224236616Y-106085183D01*
X224236617Y-106085183D01*
X224236620Y-106085185D01*
X224378186Y-106140745D01*
X224481402Y-106181254D01*
X224737772Y-106239769D01*
X224934346Y-106254500D01*
X224938063Y-106254500D01*
X225061937Y-106254500D01*
X225065654Y-106254500D01*
X225262228Y-106239769D01*
X225518598Y-106181254D01*
X225763384Y-106085183D01*
X225991117Y-105953701D01*
X226196710Y-105789746D01*
X226375570Y-105596980D01*
X226523702Y-105379710D01*
X226637798Y-105142788D01*
X226715308Y-104891508D01*
X226726436Y-104817682D01*
X226754500Y-104631484D01*
X226754500Y-104368515D01*
X226715309Y-104108495D01*
X226669565Y-103960199D01*
X226637798Y-103857212D01*
X226523702Y-103620290D01*
X226375570Y-103403020D01*
X226196710Y-103210254D01*
X226182244Y-103198718D01*
X226078554Y-103116028D01*
X225991117Y-103046299D01*
X225763384Y-102914817D01*
X225763379Y-102914814D01*
X225518602Y-102818747D01*
X225429640Y-102798442D01*
X225262228Y-102760231D01*
X225262228Y-102760230D01*
X225069352Y-102745777D01*
X225069348Y-102745776D01*
X225065654Y-102745500D01*
X224934346Y-102745500D01*
X224930652Y-102745776D01*
X224930647Y-102745777D01*
X224737771Y-102760231D01*
X224481397Y-102818747D01*
X224236620Y-102914814D01*
X224008881Y-103046300D01*
X223803290Y-103210253D01*
X223624429Y-103403021D01*
X223476299Y-103620288D01*
X223362202Y-103857212D01*
X223284690Y-104108495D01*
X223245500Y-104368515D01*
X223245500Y-104631484D01*
X219793587Y-104631484D01*
X218319347Y-103157244D01*
X218304475Y-103140603D01*
X218296372Y-103130442D01*
X218284879Y-103116030D01*
X218284878Y-103116029D01*
X218284877Y-103116028D01*
X218238794Y-103084609D01*
X218232750Y-103080321D01*
X218187882Y-103047207D01*
X218187881Y-103047206D01*
X218180927Y-103042074D01*
X218119379Y-103023089D01*
X218112313Y-103020764D01*
X218098546Y-103015947D01*
X218059699Y-103002354D01*
X218059697Y-103002353D01*
X218051541Y-102999500D01*
X218042902Y-102999500D01*
X217987152Y-102999500D01*
X217979712Y-102999361D01*
X217961861Y-102998693D01*
X217923990Y-102997276D01*
X217923989Y-102997276D01*
X217910278Y-102996763D01*
X217889492Y-102999500D01*
X216333233Y-102999500D01*
X216249134Y-102980856D01*
X216194760Y-102955501D01*
X216194758Y-102955500D01*
X216155648Y-102950351D01*
X216155637Y-102950350D01*
X216149179Y-102949500D01*
X216142657Y-102949500D01*
X215857335Y-102949500D01*
X215857320Y-102949500D01*
X215850822Y-102949501D01*
X215844370Y-102950350D01*
X215844359Y-102950351D01*
X215805241Y-102955500D01*
X215772154Y-102970929D01*
X215750867Y-102980855D01*
X215666767Y-102999500D01*
X213999500Y-102999500D01*
X213913157Y-102979793D01*
X213843916Y-102924574D01*
X213805489Y-102844782D01*
X213800500Y-102800500D01*
X213800500Y-102040391D01*
X213800500Y-102040390D01*
X213800500Y-102035734D01*
X213797646Y-102005301D01*
X213752793Y-101877118D01*
X213698208Y-101803157D01*
X213672150Y-101767849D01*
X213617516Y-101727528D01*
X213562882Y-101687207D01*
X213434699Y-101642354D01*
X213426472Y-101641582D01*
X213408896Y-101639934D01*
X213408891Y-101639933D01*
X213404266Y-101639500D01*
X211595734Y-101639500D01*
X211591109Y-101639933D01*
X211591103Y-101639934D01*
X211565301Y-101642354D01*
X211437118Y-101687207D01*
X211437116Y-101687208D01*
X211437117Y-101687208D01*
X211327849Y-101767849D01*
X211270750Y-101845218D01*
X211247207Y-101877118D01*
X211216180Y-101965789D01*
X211202354Y-102005301D01*
X211200083Y-102029521D01*
X211199500Y-102035734D01*
X211199500Y-102844266D01*
X209600500Y-102844266D01*
X209600500Y-102015724D01*
X209597647Y-101985298D01*
X209552794Y-101857116D01*
X209531667Y-101828490D01*
X209472151Y-101747848D01*
X209362884Y-101667206D01*
X209234702Y-101622353D01*
X209208908Y-101619934D01*
X209208900Y-101619933D01*
X209204276Y-101619500D01*
X203195724Y-101619500D01*
X203191100Y-101619933D01*
X203191091Y-101619934D01*
X203165297Y-101622353D01*
X203037115Y-101667206D01*
X202927848Y-101747848D01*
X202847206Y-101857115D01*
X202809180Y-101965789D01*
X202802353Y-101985298D01*
X202799500Y-102015724D01*
X202799500Y-102020382D01*
X202799500Y-105300500D01*
X202779793Y-105386843D01*
X202724574Y-105456084D01*
X202644782Y-105494511D01*
X202600500Y-105499500D01*
X200987392Y-105499500D01*
X200901049Y-105479793D01*
X200831808Y-105424574D01*
X200827277Y-105418670D01*
X200797151Y-105377850D01*
X200750751Y-105343606D01*
X200687882Y-105297207D01*
X200678176Y-105293811D01*
X200603192Y-105246694D01*
X200556073Y-105171705D01*
X200546157Y-105083699D01*
X200575408Y-105000106D01*
X200638032Y-104937482D01*
X200688389Y-104914881D01*
X200735198Y-104901282D01*
X200876557Y-104817682D01*
X200992682Y-104701557D01*
X201076281Y-104560199D01*
X201122101Y-104402485D01*
X201124692Y-104369557D01*
X201125000Y-104361731D01*
X201125000Y-104250000D01*
X198875000Y-104250000D01*
X198875000Y-104361731D01*
X198875307Y-104369557D01*
X198877898Y-104402485D01*
X198923718Y-104560199D01*
X199007317Y-104701557D01*
X199123442Y-104817682D01*
X199264801Y-104901281D01*
X199311611Y-104914881D01*
X199389028Y-104957894D01*
X199440115Y-105030238D01*
X199454754Y-105117583D01*
X199430047Y-105202630D01*
X199370885Y-105268534D01*
X199321820Y-105293812D01*
X199312119Y-105297206D01*
X199202849Y-105377849D01*
X199145111Y-105456084D01*
X199122207Y-105487118D01*
X199083765Y-105596980D01*
X199077354Y-105615301D01*
X199075292Y-105637292D01*
X199074500Y-105645734D01*
X199074500Y-105650369D01*
X199074499Y-105650391D01*
X199074500Y-106155968D01*
X199054793Y-106242311D01*
X199016214Y-106296682D01*
X197352593Y-107960303D01*
X197277605Y-108007422D01*
X197189598Y-108017338D01*
X197106005Y-107988087D01*
X197051764Y-107937760D01*
X197044449Y-107927849D01*
X197021766Y-107911108D01*
X196935182Y-107847207D01*
X196806999Y-107802354D01*
X196798772Y-107801582D01*
X196781196Y-107799934D01*
X196781191Y-107799933D01*
X196776566Y-107799500D01*
X195718034Y-107799500D01*
X195713409Y-107799933D01*
X195713403Y-107799934D01*
X195687600Y-107802354D01*
X195687601Y-107802354D01*
X195559418Y-107847207D01*
X195559416Y-107847208D01*
X195559417Y-107847208D01*
X195450149Y-107927849D01*
X195384105Y-108017338D01*
X195369507Y-108037118D01*
X195324654Y-108165301D01*
X195321800Y-108195734D01*
X195321800Y-108200391D01*
X195321800Y-108210500D01*
X195302093Y-108296843D01*
X195246874Y-108366084D01*
X195167082Y-108404511D01*
X195122800Y-108409500D01*
X194091306Y-108409500D01*
X194004963Y-108389793D01*
X193950594Y-108351216D01*
X193829562Y-108230184D01*
X193767365Y-108191103D01*
X193676824Y-108134212D01*
X193676823Y-108134211D01*
X193676822Y-108134211D01*
X193506555Y-108074632D01*
X193484409Y-108072136D01*
X193377797Y-108060124D01*
X193377787Y-108060123D01*
X193372254Y-108059500D01*
X192682346Y-108059500D01*
X192676813Y-108060123D01*
X192676802Y-108060124D01*
X192548045Y-108074632D01*
X192377775Y-108134212D01*
X192225037Y-108230183D01*
X192097483Y-108357737D01*
X192001512Y-108510475D01*
X191941932Y-108680745D01*
X191931344Y-108774721D01*
X191921735Y-108860000D01*
X183383650Y-108860000D01*
X183383650Y-108725000D01*
X182483650Y-108725000D01*
X182083650Y-108725000D01*
X181183650Y-108725000D01*
X164100500Y-108725000D01*
X164100500Y-108325000D01*
X181183650Y-108325000D01*
X183383650Y-108325000D01*
X183383650Y-108138268D01*
X183383342Y-108130442D01*
X183380751Y-108097514D01*
X183334931Y-107939800D01*
X183251332Y-107798442D01*
X183135207Y-107682317D01*
X182993846Y-107598716D01*
X182947036Y-107585117D01*
X182869620Y-107542103D01*
X182818533Y-107469760D01*
X182803895Y-107382415D01*
X182828603Y-107297368D01*
X182887765Y-107231464D01*
X182936828Y-107206188D01*
X182946532Y-107202793D01*
X183055800Y-107122150D01*
X183136443Y-107012882D01*
X183181296Y-106884699D01*
X183184150Y-106854266D01*
X183184150Y-106320000D01*
X191921735Y-106320000D01*
X191941932Y-106499255D01*
X192001511Y-106669522D01*
X192001512Y-106669524D01*
X192097483Y-106822262D01*
X192225037Y-106949816D01*
X192318888Y-107008786D01*
X192377778Y-107045789D01*
X192548045Y-107105368D01*
X192682346Y-107120500D01*
X192687927Y-107120500D01*
X193366673Y-107120500D01*
X193372254Y-107120500D01*
X193506555Y-107105368D01*
X193676822Y-107045789D01*
X193829562Y-106949816D01*
X193950593Y-106828784D01*
X194025580Y-106781667D01*
X194091306Y-106770500D01*
X195128044Y-106770500D01*
X195214387Y-106790207D01*
X195283628Y-106845426D01*
X195315723Y-106912070D01*
X195316626Y-106911755D01*
X195319428Y-106919764D01*
X195322055Y-106925218D01*
X195322662Y-106929005D01*
X195324653Y-106934697D01*
X195324654Y-106934699D01*
X195369507Y-107062882D01*
X195400862Y-107105367D01*
X195450149Y-107172150D01*
X195490470Y-107201907D01*
X195559418Y-107252793D01*
X195687601Y-107297646D01*
X195718034Y-107300500D01*
X195722691Y-107300500D01*
X196771909Y-107300500D01*
X196776566Y-107300500D01*
X196806999Y-107297646D01*
X196935182Y-107252793D01*
X197044450Y-107172150D01*
X197125093Y-107062882D01*
X197169946Y-106934699D01*
X197172800Y-106904266D01*
X197172800Y-106295734D01*
X197169946Y-106265301D01*
X197125093Y-106137118D01*
X197067281Y-106058785D01*
X197044450Y-106027849D01*
X196966709Y-105970475D01*
X196935182Y-105947207D01*
X196806999Y-105902354D01*
X196798772Y-105901582D01*
X196781196Y-105899934D01*
X196781191Y-105899933D01*
X196776566Y-105899500D01*
X196771909Y-105899500D01*
X196163390Y-105899500D01*
X196097666Y-105888333D01*
X196043843Y-105869500D01*
X196035202Y-105869500D01*
X195979452Y-105869500D01*
X195972012Y-105869361D01*
X195954161Y-105868693D01*
X195916290Y-105867276D01*
X195916289Y-105867276D01*
X195902578Y-105866763D01*
X195881792Y-105869500D01*
X194091306Y-105869500D01*
X194004963Y-105849793D01*
X193950594Y-105811216D01*
X193829562Y-105690184D01*
X193760369Y-105646707D01*
X193676824Y-105594212D01*
X193676823Y-105594211D01*
X193676822Y-105594211D01*
X193506555Y-105534632D01*
X193484409Y-105532136D01*
X193377797Y-105520124D01*
X193377787Y-105520123D01*
X193372254Y-105519500D01*
X192682346Y-105519500D01*
X192676813Y-105520123D01*
X192676802Y-105520124D01*
X192548045Y-105534632D01*
X192377775Y-105594212D01*
X192225037Y-105690183D01*
X192097483Y-105817737D01*
X192001512Y-105970475D01*
X191941932Y-106140745D01*
X191934616Y-106205681D01*
X191921735Y-106320000D01*
X183184150Y-106320000D01*
X183184150Y-106095734D01*
X183181296Y-106065301D01*
X183136443Y-105937118D01*
X183076078Y-105855326D01*
X183055800Y-105827849D01*
X183001166Y-105787528D01*
X182946532Y-105747207D01*
X182818349Y-105702354D01*
X182789567Y-105699654D01*
X182705442Y-105671971D01*
X182641659Y-105610528D01*
X182610852Y-105527496D01*
X182609150Y-105501524D01*
X182609150Y-104323475D01*
X182628857Y-104237132D01*
X182684076Y-104167891D01*
X182763868Y-104129464D01*
X182789559Y-104125345D01*
X182818349Y-104122646D01*
X182946532Y-104077793D01*
X183055800Y-103997150D01*
X183136443Y-103887882D01*
X183181296Y-103759699D01*
X183184150Y-103729266D01*
X183184150Y-103580000D01*
X191746107Y-103580000D01*
X192652216Y-103580000D01*
X192618062Y-103647031D01*
X192597002Y-103780000D01*
X192618062Y-103912969D01*
X192652216Y-103980000D01*
X191746273Y-103980000D01*
X191754230Y-104031944D01*
X191824864Y-104222665D01*
X191932444Y-104395259D01*
X192072568Y-104542670D01*
X192239495Y-104658855D01*
X192426397Y-104739061D01*
X192625608Y-104780000D01*
X192827300Y-104780000D01*
X192827299Y-104155083D01*
X192894331Y-104189238D01*
X192993849Y-104205000D01*
X193060751Y-104205000D01*
X193160269Y-104189238D01*
X193227299Y-104155083D01*
X193227300Y-104780000D01*
X193372961Y-104780000D01*
X193383036Y-104779489D01*
X193529636Y-104764581D01*
X193723688Y-104703697D01*
X193901515Y-104604994D01*
X194055828Y-104472521D01*
X194180322Y-104311688D01*
X194269888Y-104129095D01*
X194308492Y-103980000D01*
X193402384Y-103980000D01*
X193436538Y-103912969D01*
X193457598Y-103780000D01*
X193437008Y-103650000D01*
X195122300Y-103650000D01*
X195122300Y-103761731D01*
X195122607Y-103769557D01*
X195125198Y-103802485D01*
X195171018Y-103960199D01*
X195254617Y-104101557D01*
X195370742Y-104217682D01*
X195512100Y-104301281D01*
X195669814Y-104347101D01*
X195702742Y-104349692D01*
X195710568Y-104350000D01*
X196047299Y-104350000D01*
X196047299Y-104349999D01*
X196447299Y-104349999D01*
X196447300Y-104350000D01*
X196784032Y-104350000D01*
X196791857Y-104349692D01*
X196824785Y-104347101D01*
X196982499Y-104301281D01*
X197123857Y-104217682D01*
X197239982Y-104101557D01*
X197323581Y-103960199D01*
X197355597Y-103850000D01*
X198875000Y-103850000D01*
X199800000Y-103850000D01*
X199800000Y-103849999D01*
X200199999Y-103849999D01*
X200200000Y-103850000D01*
X201125000Y-103850000D01*
X201125000Y-103738268D01*
X201124692Y-103730442D01*
X201122101Y-103697514D01*
X201076281Y-103539800D01*
X200992682Y-103398442D01*
X200876557Y-103282317D01*
X200735199Y-103198718D01*
X200577485Y-103152898D01*
X200544557Y-103150307D01*
X200536732Y-103150000D01*
X200200000Y-103150000D01*
X200199999Y-103849999D01*
X199800000Y-103849999D01*
X199800000Y-103150000D01*
X199463268Y-103150000D01*
X199455442Y-103150307D01*
X199422514Y-103152898D01*
X199264800Y-103198718D01*
X199123442Y-103282317D01*
X199007317Y-103398442D01*
X198923718Y-103539800D01*
X198877898Y-103697514D01*
X198875307Y-103730442D01*
X198875000Y-103738268D01*
X198875000Y-103850000D01*
X197355597Y-103850000D01*
X197369401Y-103802485D01*
X197371992Y-103769557D01*
X197372300Y-103761731D01*
X197372300Y-103650000D01*
X196447300Y-103650000D01*
X196447299Y-104349999D01*
X196047299Y-104349999D01*
X196047300Y-103650000D01*
X195122300Y-103650000D01*
X193437008Y-103650000D01*
X193436538Y-103647031D01*
X193402384Y-103580000D01*
X194308326Y-103580000D01*
X194308326Y-103579999D01*
X194300369Y-103528055D01*
X194229735Y-103337334D01*
X194122155Y-103164740D01*
X193982031Y-103017329D01*
X193815104Y-102901144D01*
X193628202Y-102820938D01*
X193428992Y-102780000D01*
X193227300Y-102780000D01*
X193227299Y-103404916D01*
X193160269Y-103370762D01*
X193060751Y-103355000D01*
X192993849Y-103355000D01*
X192894331Y-103370762D01*
X192827299Y-103404916D01*
X192827300Y-102780000D01*
X192681639Y-102780000D01*
X192671563Y-102780510D01*
X192524963Y-102795418D01*
X192330911Y-102856302D01*
X192153084Y-102955005D01*
X191998771Y-103087478D01*
X191874277Y-103248311D01*
X191784711Y-103430904D01*
X191746107Y-103580000D01*
X183184150Y-103580000D01*
X183184150Y-103095734D01*
X183181296Y-103065301D01*
X183136443Y-102937118D01*
X183085557Y-102868170D01*
X183055800Y-102827849D01*
X182990965Y-102780000D01*
X182946532Y-102747207D01*
X182818349Y-102702354D01*
X182810122Y-102701582D01*
X182792546Y-102699934D01*
X182792541Y-102699933D01*
X182787916Y-102699500D01*
X181779384Y-102699500D01*
X181774759Y-102699933D01*
X181774753Y-102699934D01*
X181748950Y-102702354D01*
X181748951Y-102702354D01*
X181620768Y-102747207D01*
X181620766Y-102747208D01*
X181620767Y-102747208D01*
X181511499Y-102827849D01*
X181447318Y-102914814D01*
X181430857Y-102937118D01*
X181386004Y-103065301D01*
X181383150Y-103095734D01*
X181383150Y-103729266D01*
X181386004Y-103759699D01*
X181430857Y-103887882D01*
X181453930Y-103919145D01*
X181511499Y-103997150D01*
X181551820Y-104026907D01*
X181620768Y-104077793D01*
X181748951Y-104122646D01*
X181777732Y-104125345D01*
X181861855Y-104153026D01*
X181925639Y-104214468D01*
X181956447Y-104297500D01*
X181958150Y-104323475D01*
X181958150Y-105501524D01*
X181938443Y-105587867D01*
X181883224Y-105657108D01*
X181803432Y-105695535D01*
X181777733Y-105699654D01*
X181748951Y-105702354D01*
X181620768Y-105747207D01*
X181620766Y-105747208D01*
X181620767Y-105747208D01*
X181511499Y-105827849D01*
X181456155Y-105902840D01*
X181430857Y-105937118D01*
X181386004Y-106065301D01*
X181383150Y-106095734D01*
X181383150Y-106854266D01*
X181386004Y-106884699D01*
X181430857Y-107012882D01*
X181471178Y-107067516D01*
X181511499Y-107122150D01*
X181575400Y-107169310D01*
X181620768Y-107202793D01*
X181630471Y-107206188D01*
X181705455Y-107253303D01*
X181752575Y-107328291D01*
X181762492Y-107416297D01*
X181733243Y-107499891D01*
X181670620Y-107562516D01*
X181620264Y-107585117D01*
X181573452Y-107598717D01*
X181432092Y-107682317D01*
X181315967Y-107798442D01*
X181232368Y-107939800D01*
X181186548Y-108097514D01*
X181183957Y-108130442D01*
X181183650Y-108138268D01*
X181183650Y-108325000D01*
X164100500Y-108325000D01*
X164100500Y-101904266D01*
X181383150Y-101904266D01*
X181386004Y-101934699D01*
X181430857Y-102062882D01*
X181456189Y-102097206D01*
X181511499Y-102172150D01*
X181551820Y-102201907D01*
X181620768Y-102252793D01*
X181748951Y-102297646D01*
X181779384Y-102300500D01*
X181784041Y-102300500D01*
X182783259Y-102300500D01*
X182787916Y-102300500D01*
X182818349Y-102297646D01*
X182946532Y-102252793D01*
X183055800Y-102172150D01*
X183136443Y-102062882D01*
X183181296Y-101934699D01*
X183184150Y-101904266D01*
X183184150Y-101889499D01*
X183203857Y-101803157D01*
X183259076Y-101733916D01*
X183338868Y-101695489D01*
X183383150Y-101690500D01*
X191963294Y-101690500D01*
X192049637Y-101710207D01*
X192104005Y-101748783D01*
X192225038Y-101869816D01*
X192377778Y-101965789D01*
X192548045Y-102025368D01*
X192682346Y-102040500D01*
X192687927Y-102040500D01*
X193366673Y-102040500D01*
X193372254Y-102040500D01*
X193506555Y-102025368D01*
X193676822Y-101965789D01*
X193829562Y-101869816D01*
X193950593Y-101748784D01*
X194025580Y-101701667D01*
X194091306Y-101690500D01*
X195125231Y-101690500D01*
X195211574Y-101710207D01*
X195280815Y-101765426D01*
X195319242Y-101845218D01*
X195323361Y-101870914D01*
X195324654Y-101884699D01*
X195369507Y-102012882D01*
X195409828Y-102067515D01*
X195450149Y-102122150D01*
X195514050Y-102169310D01*
X195559418Y-102202793D01*
X195569121Y-102206188D01*
X195644105Y-102253303D01*
X195691225Y-102328291D01*
X195701142Y-102416297D01*
X195671893Y-102499891D01*
X195609270Y-102562516D01*
X195558914Y-102585117D01*
X195512102Y-102598717D01*
X195370742Y-102682317D01*
X195254617Y-102798442D01*
X195171018Y-102939800D01*
X195125198Y-103097514D01*
X195122607Y-103130442D01*
X195122300Y-103138268D01*
X195122300Y-103250000D01*
X197372300Y-103250000D01*
X197372300Y-103138268D01*
X197371992Y-103130442D01*
X197369401Y-103097514D01*
X197323581Y-102939800D01*
X197239982Y-102798442D01*
X197123857Y-102682317D01*
X196982496Y-102598716D01*
X196935686Y-102585117D01*
X196858270Y-102542103D01*
X196807183Y-102469760D01*
X196792545Y-102382415D01*
X196817253Y-102297368D01*
X196876415Y-102231464D01*
X196925478Y-102206188D01*
X196935182Y-102202793D01*
X197044450Y-102122150D01*
X197125093Y-102012882D01*
X197169946Y-101884699D01*
X197172800Y-101854266D01*
X197172800Y-101245734D01*
X197169946Y-101215301D01*
X197125093Y-101087118D01*
X197062900Y-101002849D01*
X197044450Y-100977849D01*
X196969057Y-100922208D01*
X196935182Y-100897207D01*
X196806999Y-100852354D01*
X196798772Y-100851582D01*
X196781196Y-100849934D01*
X196781191Y-100849933D01*
X196776566Y-100849500D01*
X196771909Y-100849500D01*
X196228349Y-100849500D01*
X196167204Y-100835544D01*
X196166333Y-100838369D01*
X196137673Y-100829528D01*
X196101484Y-100818365D01*
X196084379Y-100813089D01*
X196077313Y-100810764D01*
X196059845Y-100804652D01*
X196024699Y-100792354D01*
X196024697Y-100792353D01*
X196016541Y-100789500D01*
X196007902Y-100789500D01*
X195952152Y-100789500D01*
X195944712Y-100789361D01*
X195914993Y-100788249D01*
X195888990Y-100787276D01*
X195888989Y-100787276D01*
X195875278Y-100786763D01*
X195854492Y-100789500D01*
X194091306Y-100789500D01*
X194004963Y-100769793D01*
X193950594Y-100731216D01*
X193829562Y-100610184D01*
X193790569Y-100585683D01*
X193676824Y-100514212D01*
X193676823Y-100514211D01*
X193676822Y-100514211D01*
X193506555Y-100454632D01*
X193484409Y-100452136D01*
X193377797Y-100440124D01*
X193377787Y-100440123D01*
X193372254Y-100439500D01*
X192682346Y-100439500D01*
X192676813Y-100440123D01*
X192676802Y-100440124D01*
X192548045Y-100454632D01*
X192377775Y-100514212D01*
X192225040Y-100610182D01*
X192225038Y-100610183D01*
X192225038Y-100610184D01*
X192104006Y-100731215D01*
X192029020Y-100778333D01*
X191963294Y-100789500D01*
X182667628Y-100789500D01*
X182645348Y-100788249D01*
X182614112Y-100784729D01*
X182559317Y-100795097D01*
X182551985Y-100796343D01*
X182488313Y-100805940D01*
X182431372Y-100836035D01*
X182424736Y-100839385D01*
X182392750Y-100854790D01*
X182306408Y-100874500D01*
X181779384Y-100874500D01*
X181774759Y-100874933D01*
X181774753Y-100874934D01*
X181748951Y-100877354D01*
X181620768Y-100922207D01*
X181620766Y-100922208D01*
X181620767Y-100922208D01*
X181511499Y-101002849D01*
X181449308Y-101087117D01*
X181430857Y-101112118D01*
X181386004Y-101240301D01*
X181383150Y-101270734D01*
X181383150Y-101904266D01*
X164100500Y-101904266D01*
X164100500Y-99000000D01*
X213394551Y-99000000D01*
X213414317Y-99251148D01*
X213473127Y-99496111D01*
X213569534Y-99728859D01*
X213701164Y-99943659D01*
X213864776Y-100135224D01*
X214056341Y-100298836D01*
X214271141Y-100430466D01*
X214503889Y-100526873D01*
X214748852Y-100585683D01*
X215000000Y-100605449D01*
X215251148Y-100585683D01*
X215496111Y-100526873D01*
X215728859Y-100430466D01*
X215943659Y-100298836D01*
X216135224Y-100135224D01*
X216162582Y-100103190D01*
X216233640Y-100050336D01*
X216320597Y-100033546D01*
X216406228Y-100056147D01*
X216454615Y-100091719D01*
X219411214Y-103048317D01*
X219458333Y-103123305D01*
X219469500Y-103189030D01*
X219469500Y-103549601D01*
X219469500Y-103549622D01*
X219469501Y-103554264D01*
X219469935Y-103558895D01*
X219469936Y-103558908D01*
X219472354Y-103584698D01*
X219517206Y-103712881D01*
X219597849Y-103822150D01*
X219707117Y-103902793D01*
X219753847Y-103919144D01*
X219835302Y-103947646D01*
X219865735Y-103950500D01*
X221494264Y-103950499D01*
X221524698Y-103947646D01*
X221652882Y-103902793D01*
X221762150Y-103822150D01*
X221842793Y-103712882D01*
X221887646Y-103584698D01*
X221890500Y-103554265D01*
X221890499Y-102445736D01*
X221887646Y-102415302D01*
X221842793Y-102287118D01*
X221801719Y-102231464D01*
X221762150Y-102177849D01*
X221652882Y-102097206D01*
X221524699Y-102052354D01*
X221498895Y-102049934D01*
X221498890Y-102049933D01*
X221494265Y-102049500D01*
X221489607Y-102049500D01*
X219870397Y-102049500D01*
X219870375Y-102049500D01*
X219865736Y-102049501D01*
X219861100Y-102049935D01*
X219861091Y-102049936D01*
X219811098Y-102054623D01*
X219810920Y-102052733D01*
X219757269Y-102058776D01*
X219673677Y-102029521D01*
X219638845Y-102001742D01*
X216654657Y-99017554D01*
X216607538Y-98942566D01*
X216596984Y-98892453D01*
X216585683Y-98748852D01*
X216526873Y-98503889D01*
X216430466Y-98271141D01*
X216298836Y-98056341D01*
X216135224Y-97864776D01*
X215943659Y-97701164D01*
X215728859Y-97569534D01*
X215728857Y-97569533D01*
X215496112Y-97473127D01*
X215251149Y-97414317D01*
X215000000Y-97394551D01*
X214748850Y-97414317D01*
X214503887Y-97473127D01*
X214271142Y-97569533D01*
X214056341Y-97701164D01*
X213864776Y-97864776D01*
X213701164Y-98056341D01*
X213569533Y-98271142D01*
X213473127Y-98503887D01*
X213473127Y-98503889D01*
X213414317Y-98748852D01*
X213394551Y-99000000D01*
X164100500Y-99000000D01*
X164100500Y-91593490D01*
X168070500Y-91593490D01*
X168109375Y-91776385D01*
X168109376Y-91776388D01*
X168185425Y-91947197D01*
X168295331Y-92098470D01*
X168434285Y-92223585D01*
X168596215Y-92317075D01*
X168774043Y-92374855D01*
X168850931Y-92382936D01*
X168913380Y-92389500D01*
X168918584Y-92389500D01*
X169001416Y-92389500D01*
X169006620Y-92389500D01*
X169145956Y-92374855D01*
X169323785Y-92317075D01*
X169485715Y-92223585D01*
X169624669Y-92098470D01*
X169734573Y-91947200D01*
X169810625Y-91776385D01*
X169849500Y-91593490D01*
X169849500Y-91406510D01*
X169810625Y-91223615D01*
X169734573Y-91052800D01*
X169624669Y-90901530D01*
X169485715Y-90776415D01*
X169485714Y-90776414D01*
X169323784Y-90682924D01*
X169145956Y-90625144D01*
X169011794Y-90611043D01*
X169011778Y-90611042D01*
X169006620Y-90610500D01*
X168913380Y-90610500D01*
X168908222Y-90611042D01*
X168908205Y-90611043D01*
X168774043Y-90625144D01*
X168596215Y-90682924D01*
X168434285Y-90776414D01*
X168295331Y-90901529D01*
X168185425Y-91052802D01*
X168109376Y-91223611D01*
X168109375Y-91223614D01*
X168109375Y-91223615D01*
X168070500Y-91406510D01*
X168070500Y-91593490D01*
X164100500Y-91593490D01*
X164100500Y-88500000D01*
X165944417Y-88500000D01*
X165948391Y-88540347D01*
X165964700Y-88705937D01*
X166024766Y-88903951D01*
X166122316Y-89086451D01*
X166253589Y-89246410D01*
X166364901Y-89337760D01*
X166413550Y-89377685D01*
X166596046Y-89475232D01*
X166596048Y-89475233D01*
X166794062Y-89535299D01*
X166794063Y-89535299D01*
X166794066Y-89535300D01*
X167000000Y-89555583D01*
X167205934Y-89535300D01*
X167403954Y-89475232D01*
X167586450Y-89377685D01*
X167746410Y-89246410D01*
X167877685Y-89086450D01*
X167975232Y-88903954D01*
X168035300Y-88705934D01*
X168055583Y-88500000D01*
X168035300Y-88294066D01*
X167975232Y-88096046D01*
X167877685Y-87913550D01*
X167837760Y-87864901D01*
X167746410Y-87753589D01*
X167586451Y-87622316D01*
X167586450Y-87622315D01*
X167450224Y-87549500D01*
X167403951Y-87524766D01*
X167205937Y-87464700D01*
X167000000Y-87444417D01*
X166794062Y-87464700D01*
X166596048Y-87524766D01*
X166413548Y-87622316D01*
X166253589Y-87753589D01*
X166122316Y-87913548D01*
X166024766Y-88096048D01*
X165964700Y-88294062D01*
X165948193Y-88461665D01*
X165944417Y-88500000D01*
X164100500Y-88500000D01*
X164100500Y-85499999D01*
X165944417Y-85499999D01*
X165964700Y-85705937D01*
X166024766Y-85903951D01*
X166069634Y-85987892D01*
X166101972Y-86048392D01*
X166122316Y-86086451D01*
X166253589Y-86246410D01*
X166357657Y-86331815D01*
X166413550Y-86377685D01*
X166553490Y-86452485D01*
X166596048Y-86475233D01*
X166794062Y-86535299D01*
X166794063Y-86535299D01*
X166794066Y-86535300D01*
X167000000Y-86555583D01*
X167205934Y-86535300D01*
X167403954Y-86475232D01*
X167586450Y-86377685D01*
X167746410Y-86246410D01*
X167877685Y-86086450D01*
X167975232Y-85903954D01*
X168035300Y-85705934D01*
X168055583Y-85500000D01*
X168035300Y-85294066D01*
X168028446Y-85271470D01*
X167975233Y-85096048D01*
X167958185Y-85064154D01*
X167877685Y-84913550D01*
X167837760Y-84864901D01*
X167746410Y-84753589D01*
X167610774Y-84642277D01*
X167586450Y-84622315D01*
X167487892Y-84569634D01*
X167403951Y-84524766D01*
X167205937Y-84464700D01*
X167000000Y-84444417D01*
X166794062Y-84464700D01*
X166596048Y-84524766D01*
X166413548Y-84622316D01*
X166253589Y-84753589D01*
X166122316Y-84913548D01*
X166024766Y-85096048D01*
X165964700Y-85294062D01*
X165944417Y-85499999D01*
X164100500Y-85499999D01*
X164100500Y-82500000D01*
X165944417Y-82500000D01*
X165964700Y-82705937D01*
X166024766Y-82903951D01*
X166122316Y-83086451D01*
X166253589Y-83246410D01*
X166355934Y-83330401D01*
X166413550Y-83377685D01*
X166573048Y-83462939D01*
X166596048Y-83475233D01*
X166794062Y-83535299D01*
X166794063Y-83535299D01*
X166794066Y-83535300D01*
X167000000Y-83555583D01*
X167205934Y-83535300D01*
X167304944Y-83505265D01*
X167403951Y-83475233D01*
X167403951Y-83475232D01*
X167403954Y-83475232D01*
X167586450Y-83377685D01*
X167746410Y-83246410D01*
X167877685Y-83086450D01*
X167894126Y-83055690D01*
X167952209Y-82988833D01*
X168033548Y-82953798D01*
X168069628Y-82950500D01*
X172003600Y-82950500D01*
X172089943Y-82970207D01*
X172159184Y-83025426D01*
X172197611Y-83105218D01*
X172202600Y-83149500D01*
X172202600Y-83178749D01*
X172214232Y-83237229D01*
X172214232Y-83237230D01*
X172214233Y-83237231D01*
X172258548Y-83303552D01*
X172324869Y-83347867D01*
X172344363Y-83351744D01*
X172383350Y-83359500D01*
X172383352Y-83359500D01*
X172451753Y-83359500D01*
X172538096Y-83379207D01*
X172607337Y-83434426D01*
X172624273Y-83461378D01*
X172672851Y-83509955D01*
X172678015Y-83515316D01*
X172725274Y-83566249D01*
X172741913Y-83579017D01*
X174393152Y-85230255D01*
X174408016Y-85246886D01*
X174427621Y-85271470D01*
X174473713Y-85302895D01*
X174479761Y-85307186D01*
X174510941Y-85330199D01*
X174531572Y-85345425D01*
X174539825Y-85347970D01*
X174539827Y-85347972D01*
X174593143Y-85364417D01*
X174600164Y-85366727D01*
X174652801Y-85385146D01*
X174652803Y-85385146D01*
X174660959Y-85388000D01*
X174669598Y-85388000D01*
X174725348Y-85388000D01*
X174732788Y-85388139D01*
X174734606Y-85388207D01*
X174788510Y-85390224D01*
X174788512Y-85390223D01*
X174802221Y-85390736D01*
X174823008Y-85388000D01*
X175482256Y-85388000D01*
X175568599Y-85407707D01*
X175637840Y-85462926D01*
X175642371Y-85468830D01*
X175727848Y-85584649D01*
X175757777Y-85606737D01*
X175837118Y-85665293D01*
X175965301Y-85710146D01*
X175995734Y-85713000D01*
X176555968Y-85713000D01*
X176642311Y-85732707D01*
X176696682Y-85771286D01*
X178218156Y-87292760D01*
X178233020Y-87309391D01*
X178252621Y-87333970D01*
X178252622Y-87333971D01*
X178298682Y-87365374D01*
X178304751Y-87369680D01*
X178356572Y-87407925D01*
X178364825Y-87410470D01*
X178364827Y-87410472D01*
X178418147Y-87426918D01*
X178425191Y-87429237D01*
X178485956Y-87450500D01*
X178494598Y-87450500D01*
X178550347Y-87450500D01*
X178557787Y-87450639D01*
X178559768Y-87450713D01*
X178613510Y-87452724D01*
X178613512Y-87452723D01*
X178627221Y-87453236D01*
X178648008Y-87450500D01*
X202640500Y-87450500D01*
X202726843Y-87470207D01*
X202796084Y-87525426D01*
X202834511Y-87605218D01*
X202839500Y-87649500D01*
X202839499Y-89699617D01*
X202839500Y-89699638D01*
X202839500Y-89704276D01*
X202839933Y-89708900D01*
X202839934Y-89708908D01*
X202842353Y-89734702D01*
X202887206Y-89862884D01*
X202967848Y-89972151D01*
X203048491Y-90031667D01*
X203077116Y-90052794D01*
X203205298Y-90097647D01*
X203235724Y-90100500D01*
X203235734Y-90100500D01*
X203240383Y-90100500D01*
X209239617Y-90100500D01*
X209244266Y-90100500D01*
X209244276Y-90100500D01*
X209274702Y-90097647D01*
X209402884Y-90052794D01*
X209512151Y-89972151D01*
X209592794Y-89862884D01*
X209637647Y-89734702D01*
X209640500Y-89704276D01*
X209640500Y-89684266D01*
X211239500Y-89684266D01*
X211242354Y-89714699D01*
X211287207Y-89842882D01*
X211327528Y-89897516D01*
X211367849Y-89952150D01*
X211408170Y-89981907D01*
X211477118Y-90032793D01*
X211605301Y-90077646D01*
X211635734Y-90080500D01*
X211640391Y-90080500D01*
X213439609Y-90080500D01*
X213444266Y-90080500D01*
X213474699Y-90077646D01*
X213602882Y-90032793D01*
X213712150Y-89952150D01*
X213792793Y-89842882D01*
X213792793Y-89842880D01*
X213810603Y-89818749D01*
X213812769Y-89820347D01*
X213832606Y-89788780D01*
X213907597Y-89741665D01*
X213973315Y-89730500D01*
X214273523Y-89730500D01*
X214295801Y-89731750D01*
X214327035Y-89735270D01*
X214381824Y-89724902D01*
X214389148Y-89723658D01*
X214444287Y-89715348D01*
X214444288Y-89715347D01*
X214452835Y-89714059D01*
X214460470Y-89710023D01*
X214460472Y-89710023D01*
X214509780Y-89683961D01*
X214516388Y-89680625D01*
X214566642Y-89656425D01*
X214566643Y-89656423D01*
X214574428Y-89652675D01*
X214580535Y-89646567D01*
X214580538Y-89646566D01*
X214619993Y-89607109D01*
X214625331Y-89601969D01*
X214666194Y-89564055D01*
X214666194Y-89564053D01*
X214676253Y-89554721D01*
X214689016Y-89538086D01*
X215368317Y-88858786D01*
X215443307Y-88811667D01*
X215509032Y-88800500D01*
X216089609Y-88800500D01*
X216094266Y-88800500D01*
X216124699Y-88797646D01*
X216252882Y-88752793D01*
X216362150Y-88672150D01*
X216442793Y-88562882D01*
X216442793Y-88562880D01*
X216460603Y-88538749D01*
X216462769Y-88540347D01*
X216482606Y-88508780D01*
X216557597Y-88461665D01*
X216623315Y-88450500D01*
X218963523Y-88450500D01*
X218985801Y-88451750D01*
X219017035Y-88455270D01*
X219071824Y-88444902D01*
X219079148Y-88443658D01*
X219134287Y-88435348D01*
X219134288Y-88435347D01*
X219142835Y-88434059D01*
X219150470Y-88430023D01*
X219150472Y-88430023D01*
X219199780Y-88403961D01*
X219206388Y-88400625D01*
X219256642Y-88376425D01*
X219256643Y-88376423D01*
X219264428Y-88372675D01*
X219270535Y-88366567D01*
X219270538Y-88366566D01*
X219310005Y-88327097D01*
X219315313Y-88321985D01*
X219356194Y-88284055D01*
X219356194Y-88284054D01*
X219366254Y-88274721D01*
X219379016Y-88258086D01*
X220628317Y-87008786D01*
X220703306Y-86961667D01*
X220769031Y-86950500D01*
X220983155Y-86950500D01*
X220988206Y-86950500D01*
X221132321Y-86935845D01*
X221316768Y-86877974D01*
X221485791Y-86784159D01*
X221632468Y-86658240D01*
X221750796Y-86505373D01*
X221835930Y-86331816D01*
X221884385Y-86144674D01*
X221894176Y-85951610D01*
X221886875Y-85903954D01*
X221864903Y-85760526D01*
X221849894Y-85720000D01*
X221797764Y-85579247D01*
X221695509Y-85415193D01*
X221669660Y-85388000D01*
X221562323Y-85275080D01*
X221403660Y-85164648D01*
X221364008Y-85147632D01*
X221226012Y-85088413D01*
X221036656Y-85049500D01*
X220371794Y-85049500D01*
X220366769Y-85050010D01*
X220366768Y-85050011D01*
X220227680Y-85064154D01*
X220043230Y-85122026D01*
X219874208Y-85215841D01*
X219727530Y-85341761D01*
X219609205Y-85494624D01*
X219524069Y-85668184D01*
X219475615Y-85855323D01*
X219465823Y-86048392D01*
X219495096Y-86239473D01*
X219562236Y-86420753D01*
X219624476Y-86520610D01*
X219653423Y-86604309D01*
X219643188Y-86692279D01*
X219596309Y-86766586D01*
X218871683Y-87491214D01*
X218796695Y-87538333D01*
X218730969Y-87549500D01*
X216623315Y-87549500D01*
X216536972Y-87529793D01*
X216467731Y-87474574D01*
X216459663Y-87459978D01*
X216442793Y-87437120D01*
X216442793Y-87437118D01*
X216389844Y-87365374D01*
X216362150Y-87327849D01*
X216293113Y-87276899D01*
X216235344Y-87209771D01*
X216212421Y-87124225D01*
X216228886Y-87037206D01*
X216281476Y-86965948D01*
X216309983Y-86945495D01*
X216441557Y-86867682D01*
X216557682Y-86751557D01*
X216641281Y-86610199D01*
X216687101Y-86452485D01*
X216689692Y-86419557D01*
X216690000Y-86411731D01*
X216690000Y-86200000D01*
X214490000Y-86200000D01*
X214490000Y-86411731D01*
X214490307Y-86419557D01*
X214492898Y-86452485D01*
X214538718Y-86610199D01*
X214622317Y-86751557D01*
X214738442Y-86867682D01*
X214870016Y-86945495D01*
X214934304Y-87006410D01*
X214965794Y-87089186D01*
X214958251Y-87177428D01*
X214913169Y-87253658D01*
X214886887Y-87276898D01*
X214817850Y-87327848D01*
X214749363Y-87420647D01*
X214737207Y-87437118D01*
X214692354Y-87565301D01*
X214689500Y-87595734D01*
X214689500Y-87600391D01*
X214689500Y-88180968D01*
X214669793Y-88267311D01*
X214631214Y-88321682D01*
X214181683Y-88771214D01*
X214106695Y-88818333D01*
X214040969Y-88829500D01*
X213973315Y-88829500D01*
X213886972Y-88809793D01*
X213817731Y-88754574D01*
X213809663Y-88739978D01*
X213792793Y-88717120D01*
X213792793Y-88717118D01*
X213746570Y-88654487D01*
X213712150Y-88607849D01*
X213651220Y-88562882D01*
X213602882Y-88527207D01*
X213474699Y-88482354D01*
X213466472Y-88481582D01*
X213448896Y-88479934D01*
X213448891Y-88479933D01*
X213444266Y-88479500D01*
X211635734Y-88479500D01*
X211631109Y-88479933D01*
X211631103Y-88479934D01*
X211605301Y-88482354D01*
X211477118Y-88527207D01*
X211477116Y-88527208D01*
X211477117Y-88527208D01*
X211367849Y-88607849D01*
X211297770Y-88702804D01*
X211287207Y-88717118D01*
X211242354Y-88845301D01*
X211239500Y-88875734D01*
X211239500Y-89684266D01*
X209640500Y-89684266D01*
X209640500Y-85800000D01*
X214490000Y-85800000D01*
X215390000Y-85800000D01*
X215390000Y-85000000D01*
X215790000Y-85000000D01*
X215790000Y-85800000D01*
X216690000Y-85800000D01*
X216690000Y-85588268D01*
X216689692Y-85580442D01*
X216687101Y-85547514D01*
X216641281Y-85389800D01*
X216557682Y-85248442D01*
X216441557Y-85132317D01*
X216300199Y-85048718D01*
X216142485Y-85002898D01*
X216109557Y-85000307D01*
X216101732Y-85000000D01*
X215790000Y-85000000D01*
X215390000Y-85000000D01*
X215078268Y-85000000D01*
X215070442Y-85000307D01*
X215037514Y-85002898D01*
X214879800Y-85048718D01*
X214738442Y-85132317D01*
X214622317Y-85248442D01*
X214538718Y-85389800D01*
X214492898Y-85547514D01*
X214490307Y-85580442D01*
X214490000Y-85588268D01*
X214490000Y-85800000D01*
X209640500Y-85800000D01*
X209640500Y-84920000D01*
X211040000Y-84920000D01*
X211040000Y-85131731D01*
X211040307Y-85139557D01*
X211042898Y-85172485D01*
X211088718Y-85330199D01*
X211172317Y-85471557D01*
X211288442Y-85587682D01*
X211429800Y-85671281D01*
X211587514Y-85717101D01*
X211620442Y-85719692D01*
X211628268Y-85720000D01*
X212340000Y-85720000D01*
X212340000Y-84920000D01*
X212740000Y-84920000D01*
X212740000Y-85720000D01*
X213451732Y-85720000D01*
X213459557Y-85719692D01*
X213492485Y-85717101D01*
X213650199Y-85671281D01*
X213791557Y-85587682D01*
X213907682Y-85471557D01*
X213991281Y-85330199D01*
X214037101Y-85172485D01*
X214039692Y-85139557D01*
X214040000Y-85131731D01*
X214040000Y-84920000D01*
X212740000Y-84920000D01*
X212340000Y-84920000D01*
X211040000Y-84920000D01*
X209640500Y-84920000D01*
X209640500Y-84631484D01*
X223245500Y-84631484D01*
X223284690Y-84891504D01*
X223337947Y-85064155D01*
X223362202Y-85142788D01*
X223476298Y-85379710D01*
X223624430Y-85596980D01*
X223803290Y-85789746D01*
X224008883Y-85953701D01*
X224236616Y-86085183D01*
X224236617Y-86085183D01*
X224236620Y-86085185D01*
X224388197Y-86144674D01*
X224481402Y-86181254D01*
X224737772Y-86239769D01*
X224934346Y-86254500D01*
X224938063Y-86254500D01*
X225061937Y-86254500D01*
X225065654Y-86254500D01*
X225262228Y-86239769D01*
X225518598Y-86181254D01*
X225763384Y-86085183D01*
X225991117Y-85953701D01*
X226196710Y-85789746D01*
X226375570Y-85596980D01*
X226523702Y-85379710D01*
X226637798Y-85142788D01*
X226715308Y-84891508D01*
X226717646Y-84876000D01*
X226754500Y-84631484D01*
X226754500Y-84368515D01*
X226715309Y-84108495D01*
X226690432Y-84027848D01*
X226637798Y-83857212D01*
X226523702Y-83620290D01*
X226375570Y-83403020D01*
X226196710Y-83210254D01*
X225991117Y-83046299D01*
X225763384Y-82914817D01*
X225763379Y-82914814D01*
X225518602Y-82818747D01*
X225262228Y-82760231D01*
X225069352Y-82745777D01*
X225069348Y-82745776D01*
X225065654Y-82745500D01*
X224934346Y-82745500D01*
X224930652Y-82745776D01*
X224930647Y-82745777D01*
X224737771Y-82760231D01*
X224481397Y-82818747D01*
X224236620Y-82914814D01*
X224008881Y-83046300D01*
X223803290Y-83210253D01*
X223624429Y-83403021D01*
X223500564Y-83584699D01*
X223476298Y-83620290D01*
X223457105Y-83660145D01*
X223362202Y-83857212D01*
X223284690Y-84108495D01*
X223245500Y-84368515D01*
X223245500Y-84631484D01*
X209640500Y-84631484D01*
X209640500Y-84520000D01*
X211040000Y-84520000D01*
X212340000Y-84520000D01*
X212340000Y-83720000D01*
X212740000Y-83720000D01*
X212740000Y-84520000D01*
X214040000Y-84520000D01*
X214040000Y-84308268D01*
X214039692Y-84300442D01*
X214037101Y-84267514D01*
X213991281Y-84109800D01*
X213907682Y-83968442D01*
X213791557Y-83852317D01*
X213650199Y-83768718D01*
X213492485Y-83722898D01*
X213459557Y-83720307D01*
X213451732Y-83720000D01*
X212740000Y-83720000D01*
X212340000Y-83720000D01*
X211628268Y-83720000D01*
X211620442Y-83720307D01*
X211587514Y-83722898D01*
X211429800Y-83768718D01*
X211288442Y-83852317D01*
X211172317Y-83968442D01*
X211088718Y-84109800D01*
X211042898Y-84267514D01*
X211040307Y-84300442D01*
X211040000Y-84308268D01*
X211040000Y-84520000D01*
X209640500Y-84520000D01*
X209640500Y-84295724D01*
X209637647Y-84265298D01*
X209592794Y-84137116D01*
X209527751Y-84048986D01*
X209512151Y-84027848D01*
X209402884Y-83947206D01*
X209274702Y-83902353D01*
X209248908Y-83899934D01*
X209248900Y-83899933D01*
X209244276Y-83899500D01*
X209239617Y-83899500D01*
X205022000Y-83899500D01*
X204935657Y-83879793D01*
X204866416Y-83824574D01*
X204827989Y-83744782D01*
X204823000Y-83700500D01*
X204823000Y-83549623D01*
X219469500Y-83549623D01*
X219469501Y-83554264D01*
X219469935Y-83558895D01*
X219469936Y-83558908D01*
X219472354Y-83584698D01*
X219517206Y-83712881D01*
X219597849Y-83822150D01*
X219707117Y-83902793D01*
X219776038Y-83926909D01*
X219835302Y-83947646D01*
X219865735Y-83950500D01*
X221494264Y-83950499D01*
X221524698Y-83947646D01*
X221652882Y-83902793D01*
X221762150Y-83822150D01*
X221842793Y-83712882D01*
X221887646Y-83584698D01*
X221890500Y-83554265D01*
X221890499Y-82445736D01*
X221887646Y-82415302D01*
X221842793Y-82287118D01*
X221808276Y-82240349D01*
X221762150Y-82177849D01*
X221652882Y-82097206D01*
X221524699Y-82052354D01*
X221498895Y-82049934D01*
X221498890Y-82049933D01*
X221494265Y-82049500D01*
X221489607Y-82049500D01*
X219870397Y-82049500D01*
X219870375Y-82049500D01*
X219865736Y-82049501D01*
X219861100Y-82049935D01*
X219861091Y-82049936D01*
X219835301Y-82052354D01*
X219707118Y-82097206D01*
X219597849Y-82177849D01*
X219517206Y-82287117D01*
X219472354Y-82415300D01*
X219469936Y-82441091D01*
X219469500Y-82445735D01*
X219469500Y-82450391D01*
X219469500Y-82450392D01*
X219469500Y-83549602D01*
X219469500Y-83549623D01*
X204823000Y-83549623D01*
X204823000Y-82925465D01*
X204823000Y-82148772D01*
X204842706Y-82062434D01*
X204897924Y-81993193D01*
X204977717Y-81954766D01*
X205066281Y-81954766D01*
X205077519Y-81957679D01*
X205213684Y-81997239D01*
X205244867Y-81999693D01*
X205252668Y-82000000D01*
X205330000Y-82000000D01*
X205330000Y-81200000D01*
X205730000Y-81200000D01*
X205730000Y-82000000D01*
X205807332Y-82000000D01*
X205815132Y-81999693D01*
X205846316Y-81997239D01*
X205996436Y-81953624D01*
X206131002Y-81874043D01*
X206241543Y-81763502D01*
X206321124Y-81628936D01*
X206364739Y-81478816D01*
X206367193Y-81447632D01*
X206367500Y-81439831D01*
X206367500Y-81200000D01*
X205730000Y-81200000D01*
X205330000Y-81200000D01*
X204674519Y-81200000D01*
X204647906Y-81216721D01*
X204559900Y-81226635D01*
X204547110Y-81224772D01*
X204479481Y-81212662D01*
X204479464Y-81212659D01*
X204475115Y-81211881D01*
X204470699Y-81211491D01*
X204470694Y-81211491D01*
X204429744Y-81207880D01*
X204331989Y-81227459D01*
X204318394Y-81233112D01*
X204231101Y-81248061D01*
X204145967Y-81223655D01*
X204079854Y-81164727D01*
X204045855Y-81082950D01*
X204043000Y-81049360D01*
X204043000Y-80951512D01*
X204062707Y-80865169D01*
X204117926Y-80795928D01*
X204197718Y-80757501D01*
X204286282Y-80757501D01*
X204316206Y-80766893D01*
X204319715Y-80768496D01*
X204362668Y-80783649D01*
X204462217Y-80788984D01*
X204531375Y-80779040D01*
X204536736Y-80777772D01*
X204537003Y-80777770D01*
X204540061Y-80777191D01*
X204537349Y-80777768D01*
X204625296Y-80777091D01*
X204673819Y-80800000D01*
X205330000Y-80800000D01*
X205330000Y-80000000D01*
X205730000Y-80000000D01*
X205730000Y-80800000D01*
X206367500Y-80800000D01*
X206367500Y-80560168D01*
X206367193Y-80552367D01*
X206364739Y-80521183D01*
X206321124Y-80371063D01*
X206241543Y-80236497D01*
X206131002Y-80125956D01*
X205996436Y-80046375D01*
X205846316Y-80002760D01*
X205815132Y-80000306D01*
X205807332Y-80000000D01*
X205730000Y-80000000D01*
X205330000Y-80000000D01*
X205252668Y-80000000D01*
X205244867Y-80000306D01*
X205213683Y-80002760D01*
X205077520Y-80042320D01*
X204989107Y-80047485D01*
X204907209Y-80013777D01*
X204848047Y-79947873D01*
X204823339Y-79862826D01*
X204823000Y-79851222D01*
X204823000Y-79391119D01*
X204823000Y-78911182D01*
X204842706Y-78824844D01*
X204897924Y-78755603D01*
X204977717Y-78717176D01*
X205066280Y-78717176D01*
X205112337Y-78733874D01*
X205212580Y-78784951D01*
X205310754Y-78800500D01*
X205310755Y-78800500D01*
X205814245Y-78800500D01*
X205814246Y-78800500D01*
X205912420Y-78784951D01*
X206030751Y-78724658D01*
X206124658Y-78630751D01*
X206161138Y-78559154D01*
X206217896Y-78491170D01*
X206298532Y-78454544D01*
X206338448Y-78450500D01*
X206700622Y-78450500D01*
X206786965Y-78470207D01*
X206821762Y-78491620D01*
X206864659Y-78524536D01*
X207010738Y-78585044D01*
X207167500Y-78605682D01*
X207324262Y-78585044D01*
X207470341Y-78524536D01*
X207595782Y-78428282D01*
X207692036Y-78302841D01*
X207752544Y-78156762D01*
X207773182Y-78000000D01*
X207752544Y-77843238D01*
X207692036Y-77697159D01*
X207595782Y-77571718D01*
X207470341Y-77475464D01*
X207470340Y-77475463D01*
X207324263Y-77414956D01*
X207167500Y-77394318D01*
X207010737Y-77414956D01*
X206864660Y-77475463D01*
X206864658Y-77475464D01*
X206864659Y-77475464D01*
X206821763Y-77508378D01*
X206741267Y-77545305D01*
X206700622Y-77549500D01*
X206338448Y-77549500D01*
X206252105Y-77529793D01*
X206182864Y-77474574D01*
X206161138Y-77440845D01*
X206124658Y-77369249D01*
X206030751Y-77275342D01*
X206030750Y-77275341D01*
X205912421Y-77215049D01*
X205863333Y-77207274D01*
X205814246Y-77199500D01*
X205310754Y-77199500D01*
X205278029Y-77204683D01*
X205212578Y-77215049D01*
X205112343Y-77266122D01*
X205026464Y-77287762D01*
X204939701Y-77269997D01*
X204869237Y-77216346D01*
X204829031Y-77137435D01*
X204823000Y-77088820D01*
X204823000Y-75424000D01*
X204817161Y-75369687D01*
X204805955Y-75318176D01*
X204798719Y-75291802D01*
X204762130Y-75227548D01*
X204749390Y-75205175D01*
X204749389Y-75205174D01*
X204749388Y-75205172D01*
X204703633Y-75152368D01*
X204700438Y-75149285D01*
X204700421Y-75149267D01*
X204670860Y-75120743D01*
X204582525Y-75074535D01*
X204515480Y-75054848D01*
X204443503Y-75044500D01*
X204443500Y-75044500D01*
X199325024Y-75044500D01*
X199315408Y-75044671D01*
X199307096Y-75044971D01*
X199226890Y-75060925D01*
X199165583Y-75083791D01*
X199165561Y-75083800D01*
X199161425Y-75085343D01*
X199157443Y-75087247D01*
X199157422Y-75087257D01*
X199120342Y-75104998D01*
X199046180Y-75171612D01*
X199046177Y-75171615D01*
X199046178Y-75171615D01*
X199004306Y-75227548D01*
X199001986Y-75231303D01*
X199001966Y-75231333D01*
X198980368Y-75266298D01*
X198953992Y-75362443D01*
X198951329Y-75399694D01*
X198925514Y-75484411D01*
X198865497Y-75549538D01*
X198783167Y-75582175D01*
X198752836Y-75584500D01*
X198145734Y-75584500D01*
X198141109Y-75584933D01*
X198141103Y-75584934D01*
X198115300Y-75587354D01*
X198115301Y-75587354D01*
X197987118Y-75632207D01*
X197987116Y-75632208D01*
X197987117Y-75632208D01*
X197877849Y-75712849D01*
X197830937Y-75776415D01*
X197797207Y-75822118D01*
X197762697Y-75920743D01*
X197752354Y-75950301D01*
X197750781Y-75967078D01*
X197749500Y-75980734D01*
X197749500Y-75985390D01*
X197749500Y-75985391D01*
X197749500Y-76930425D01*
X197729793Y-77016768D01*
X197674574Y-77086009D01*
X197594782Y-77124436D01*
X197539851Y-77129140D01*
X197453212Y-77124497D01*
X197453302Y-77122816D01*
X197389552Y-77117603D01*
X197313156Y-77072801D01*
X197263765Y-76999289D01*
X197250500Y-76927852D01*
X197250500Y-75980734D01*
X197247646Y-75950301D01*
X197202793Y-75822118D01*
X197132006Y-75726204D01*
X197122150Y-75712849D01*
X197067516Y-75672528D01*
X197012882Y-75632207D01*
X196884699Y-75587354D01*
X196876472Y-75586582D01*
X196858896Y-75584934D01*
X196858891Y-75584933D01*
X196854266Y-75584500D01*
X196245734Y-75584500D01*
X196241109Y-75584933D01*
X196241103Y-75584934D01*
X196215300Y-75587354D01*
X196215301Y-75587354D01*
X196087118Y-75632207D01*
X196087116Y-75632208D01*
X196087117Y-75632208D01*
X195977849Y-75712849D01*
X195897208Y-75822117D01*
X195897207Y-75822118D01*
X195863618Y-75918112D01*
X195860779Y-75926225D01*
X195813660Y-76001214D01*
X195738672Y-76048333D01*
X195672946Y-76059500D01*
X194482876Y-76059500D01*
X194396533Y-76039793D01*
X194327292Y-75984574D01*
X194299024Y-75936654D01*
X194251581Y-75822117D01*
X194230466Y-75771141D01*
X194098836Y-75556341D01*
X193935224Y-75364776D01*
X193743659Y-75201164D01*
X193528859Y-75069534D01*
X193528857Y-75069533D01*
X193296112Y-74973127D01*
X193051149Y-74914317D01*
X192925573Y-74904433D01*
X192800000Y-74894551D01*
X192799999Y-74894551D01*
X192548850Y-74914317D01*
X192303887Y-74973127D01*
X192071142Y-75069533D01*
X191856341Y-75201164D01*
X191664776Y-75364776D01*
X191501164Y-75556341D01*
X191369533Y-75771142D01*
X191273127Y-76003887D01*
X191214317Y-76248850D01*
X191194551Y-76499999D01*
X191214317Y-76751149D01*
X191273127Y-76996112D01*
X191356703Y-77197882D01*
X191369534Y-77228859D01*
X191501164Y-77443659D01*
X191664776Y-77635224D01*
X191856341Y-77798836D01*
X192071141Y-77930466D01*
X192303889Y-78026873D01*
X192548852Y-78085683D01*
X192800000Y-78105449D01*
X193051148Y-78085683D01*
X193296111Y-78026873D01*
X193528859Y-77930466D01*
X193743659Y-77798836D01*
X193935224Y-77635224D01*
X194098836Y-77443659D01*
X194230466Y-77228859D01*
X194286173Y-77094370D01*
X194290739Y-77083347D01*
X194341987Y-77011118D01*
X194419500Y-76968278D01*
X194474591Y-76960500D01*
X195672946Y-76960500D01*
X195759289Y-76980207D01*
X195828530Y-77035426D01*
X195860777Y-77093772D01*
X195897207Y-77197882D01*
X195937528Y-77252515D01*
X195977850Y-77307151D01*
X196018668Y-77337275D01*
X196076438Y-77404402D01*
X196099361Y-77489948D01*
X196099500Y-77497391D01*
X196099499Y-78367929D01*
X196079792Y-78454272D01*
X196065961Y-78478488D01*
X196003632Y-78571768D01*
X195992000Y-78630250D01*
X195992000Y-78852385D01*
X195972293Y-78938728D01*
X195933715Y-78993098D01*
X195864859Y-79061953D01*
X195807334Y-79174852D01*
X195792500Y-79268517D01*
X195792500Y-79300000D01*
X196476584Y-79300000D01*
X196498863Y-79301251D01*
X196513491Y-79302899D01*
X196597084Y-79332149D01*
X196659709Y-79394772D01*
X196688960Y-79478365D01*
X196679046Y-79566371D01*
X196631928Y-79641361D01*
X196556940Y-79688480D01*
X196506087Y-79699091D01*
X196501391Y-79699443D01*
X196486516Y-79700000D01*
X195792501Y-79700000D01*
X195792501Y-79731483D01*
X195807334Y-79825146D01*
X195864859Y-79938045D01*
X195933713Y-80006898D01*
X195980832Y-80081886D01*
X195992000Y-80147613D01*
X195992000Y-80369749D01*
X196003632Y-80428229D01*
X196003632Y-80428230D01*
X196003633Y-80428231D01*
X196033461Y-80472872D01*
X196065046Y-80555610D01*
X196067000Y-80583431D01*
X196067000Y-82850500D01*
X196047293Y-82936843D01*
X195992074Y-83006084D01*
X195912282Y-83044511D01*
X195868000Y-83049500D01*
X189979180Y-83049500D01*
X189892837Y-83029793D01*
X189823596Y-82974574D01*
X189785169Y-82894782D01*
X189785169Y-82806218D01*
X189802848Y-82758261D01*
X189825464Y-82715025D01*
X189825465Y-82715024D01*
X189845150Y-82647985D01*
X189846942Y-82635526D01*
X189855500Y-82576000D01*
X189855500Y-76229332D01*
X189855500Y-76224000D01*
X189849661Y-76169687D01*
X189838455Y-76118176D01*
X189831219Y-76091802D01*
X189781888Y-76005172D01*
X189736133Y-75952368D01*
X189732938Y-75949285D01*
X189732921Y-75949267D01*
X189703360Y-75920743D01*
X189615025Y-75874535D01*
X189547980Y-75854848D01*
X189476003Y-75844500D01*
X189476000Y-75844500D01*
X185524000Y-75844500D01*
X185518715Y-75845068D01*
X185518699Y-75845069D01*
X185474992Y-75849768D01*
X185474979Y-75849770D01*
X185469687Y-75850339D01*
X185464478Y-75851472D01*
X185464473Y-75851473D01*
X185420783Y-75860977D01*
X185420752Y-75860984D01*
X185418176Y-75861545D01*
X185415636Y-75862241D01*
X185415607Y-75862249D01*
X185391800Y-75868781D01*
X185305175Y-75918109D01*
X185255724Y-75960959D01*
X185252368Y-75963867D01*
X185249297Y-75967049D01*
X185249267Y-75967078D01*
X185220743Y-75996639D01*
X185174535Y-76084974D01*
X185154848Y-76152019D01*
X185144500Y-76223996D01*
X185144500Y-76223999D01*
X185144500Y-76224000D01*
X185144500Y-77089499D01*
X185144500Y-78100500D01*
X185144500Y-79370500D01*
X185144500Y-80640500D01*
X185144500Y-81910500D01*
X185144500Y-82576000D01*
X185145068Y-82581285D01*
X185145069Y-82581300D01*
X185149768Y-82625007D01*
X185149769Y-82625017D01*
X185150339Y-82630313D01*
X185151472Y-82635524D01*
X185151473Y-82635526D01*
X185160977Y-82679216D01*
X185160982Y-82679238D01*
X185161545Y-82681824D01*
X185162244Y-82684372D01*
X185162249Y-82684392D01*
X185165546Y-82696408D01*
X185168781Y-82708198D01*
X185193740Y-82752030D01*
X185219341Y-82836810D01*
X185205620Y-82924304D01*
X185155296Y-82997180D01*
X185078336Y-83041005D01*
X185020812Y-83049500D01*
X182864031Y-83049500D01*
X182777688Y-83029793D01*
X182723317Y-82991214D01*
X181658271Y-81926168D01*
X181611152Y-81851180D01*
X181601236Y-81763173D01*
X181620204Y-81698057D01*
X181640573Y-81656393D01*
X181650500Y-81588260D01*
X181650500Y-81221740D01*
X181640573Y-81153607D01*
X181640572Y-81153604D01*
X181589198Y-81048516D01*
X181506484Y-80965802D01*
X181477252Y-80951512D01*
X181471663Y-80948780D01*
X181402750Y-80893155D01*
X181364795Y-80813137D01*
X181365317Y-80724576D01*
X181404212Y-80645011D01*
X181471663Y-80591219D01*
X181506483Y-80574198D01*
X181589198Y-80491483D01*
X181640573Y-80386393D01*
X181650500Y-80318260D01*
X181650500Y-79951740D01*
X181640573Y-79883607D01*
X181630414Y-79862826D01*
X181589198Y-79778516D01*
X181506484Y-79695802D01*
X181486437Y-79686002D01*
X181471663Y-79678780D01*
X181402750Y-79623155D01*
X181364795Y-79543137D01*
X181365317Y-79454576D01*
X181404212Y-79375011D01*
X181471663Y-79321219D01*
X181506483Y-79304198D01*
X181589198Y-79221483D01*
X181640573Y-79116393D01*
X181650500Y-79048260D01*
X181650500Y-78681740D01*
X181640573Y-78613607D01*
X181640000Y-78612434D01*
X181589198Y-78508516D01*
X181506484Y-78425802D01*
X181486437Y-78416002D01*
X181471663Y-78408780D01*
X181402750Y-78353155D01*
X181364795Y-78273137D01*
X181365317Y-78184576D01*
X181404212Y-78105011D01*
X181471663Y-78051219D01*
X181506483Y-78034198D01*
X181589198Y-77951483D01*
X181640573Y-77846393D01*
X181650500Y-77778260D01*
X181650500Y-77411740D01*
X181640573Y-77343607D01*
X181640572Y-77343604D01*
X181589198Y-77238516D01*
X181506483Y-77155801D01*
X181401395Y-77104427D01*
X181366863Y-77099396D01*
X181333260Y-77094500D01*
X181333258Y-77094500D01*
X180648785Y-77094500D01*
X180590127Y-77085658D01*
X180571998Y-77080066D01*
X180549377Y-77073088D01*
X180542313Y-77070764D01*
X180524845Y-77064652D01*
X180489699Y-77052354D01*
X180489697Y-77052353D01*
X180481541Y-77049500D01*
X180472902Y-77049500D01*
X180417152Y-77049500D01*
X180409712Y-77049361D01*
X180379993Y-77048249D01*
X180353990Y-77047276D01*
X180353989Y-77047276D01*
X180340278Y-77046763D01*
X180319492Y-77049500D01*
X177471617Y-77049500D01*
X177385274Y-77029793D01*
X177316033Y-76974574D01*
X177311501Y-76968669D01*
X177272150Y-76915350D01*
X177162882Y-76834707D01*
X177034699Y-76789854D01*
X177026472Y-76789082D01*
X177008896Y-76787434D01*
X177008891Y-76787433D01*
X177004266Y-76787000D01*
X175995734Y-76787000D01*
X175991109Y-76787433D01*
X175991103Y-76787434D01*
X175965300Y-76789854D01*
X175965301Y-76789854D01*
X175837118Y-76834707D01*
X175837116Y-76834708D01*
X175837117Y-76834708D01*
X175727849Y-76915350D01*
X175688499Y-76968669D01*
X175621370Y-77026438D01*
X175535825Y-77049361D01*
X175528383Y-77049500D01*
X174436478Y-77049500D01*
X174414198Y-77048249D01*
X174382962Y-77044729D01*
X174328167Y-77055097D01*
X174320835Y-77056343D01*
X174257163Y-77065940D01*
X174200204Y-77096044D01*
X174193564Y-77099396D01*
X174135572Y-77127323D01*
X174090024Y-77172870D01*
X174084670Y-77178027D01*
X174033754Y-77225271D01*
X174020989Y-77241905D01*
X172707240Y-78555655D01*
X172690605Y-78570522D01*
X172657303Y-78597081D01*
X172577511Y-78635509D01*
X172533224Y-78640500D01*
X172383350Y-78640500D01*
X172324870Y-78652132D01*
X172258548Y-78696448D01*
X172214232Y-78762770D01*
X172202600Y-78821250D01*
X172202600Y-78850500D01*
X172182893Y-78936843D01*
X172127674Y-79006084D01*
X172047882Y-79044511D01*
X172003600Y-79049500D01*
X168069628Y-79049500D01*
X167983285Y-79029793D01*
X167914044Y-78974574D01*
X167894126Y-78944309D01*
X167877684Y-78913548D01*
X167746410Y-78753589D01*
X167586451Y-78622316D01*
X167586450Y-78622315D01*
X167487892Y-78569634D01*
X167403951Y-78524766D01*
X167205937Y-78464700D01*
X167000000Y-78444417D01*
X166794062Y-78464700D01*
X166596048Y-78524766D01*
X166413548Y-78622316D01*
X166253589Y-78753589D01*
X166122316Y-78913548D01*
X166024766Y-79096048D01*
X165964700Y-79294062D01*
X165944417Y-79500000D01*
X165964700Y-79705937D01*
X166024766Y-79903951D01*
X166055062Y-79960629D01*
X166120417Y-80082900D01*
X166122316Y-80086451D01*
X166253589Y-80246410D01*
X166315100Y-80296890D01*
X166413550Y-80377685D01*
X166583225Y-80468379D01*
X166596048Y-80475233D01*
X166794062Y-80535299D01*
X166794063Y-80535299D01*
X166794066Y-80535300D01*
X167000000Y-80555583D01*
X167205934Y-80535300D01*
X167363248Y-80487580D01*
X167403951Y-80475233D01*
X167403951Y-80475232D01*
X167403954Y-80475232D01*
X167586450Y-80377685D01*
X167746410Y-80246410D01*
X167877685Y-80086450D01*
X167894126Y-80055690D01*
X167952209Y-79988833D01*
X168033548Y-79953798D01*
X168069628Y-79950500D01*
X172101097Y-79950500D01*
X172187440Y-79970207D01*
X172256681Y-80025426D01*
X172257078Y-80025969D01*
X172258547Y-80026950D01*
X172258548Y-80026952D01*
X172324869Y-80071267D01*
X172330696Y-80072426D01*
X172383350Y-80082900D01*
X172383352Y-80082900D01*
X173616650Y-80082900D01*
X173645889Y-80077083D01*
X173675131Y-80071267D01*
X173741452Y-80026952D01*
X173785767Y-79960631D01*
X173797041Y-79903954D01*
X173797400Y-79902149D01*
X173797400Y-78822130D01*
X173817107Y-78735787D01*
X173855686Y-78681416D01*
X174183948Y-78353155D01*
X174528316Y-78008786D01*
X174603306Y-77961667D01*
X174669031Y-77950500D01*
X175528383Y-77950500D01*
X175614726Y-77970207D01*
X175683967Y-78025426D01*
X175688499Y-78031331D01*
X175727850Y-78084650D01*
X175837118Y-78165293D01*
X175965301Y-78210146D01*
X175995734Y-78213000D01*
X176000391Y-78213000D01*
X176999609Y-78213000D01*
X177004266Y-78213000D01*
X177034699Y-78210146D01*
X177162882Y-78165293D01*
X177272150Y-78084650D01*
X177311500Y-78031331D01*
X177378630Y-77973562D01*
X177464175Y-77950639D01*
X177471617Y-77950500D01*
X179327390Y-77950500D01*
X179413733Y-77970207D01*
X179468104Y-78008786D01*
X179493516Y-78034198D01*
X179528335Y-78051220D01*
X179597250Y-78106846D01*
X179635205Y-78186864D01*
X179634682Y-78275426D01*
X179595786Y-78354990D01*
X179528335Y-78408780D01*
X179493516Y-78425801D01*
X179410801Y-78508516D01*
X179359427Y-78613604D01*
X179349500Y-78681742D01*
X179349500Y-79048257D01*
X179359427Y-79116395D01*
X179410801Y-79221483D01*
X179493516Y-79304198D01*
X179528335Y-79321220D01*
X179597250Y-79376846D01*
X179635205Y-79456864D01*
X179634682Y-79545426D01*
X179595786Y-79624990D01*
X179528335Y-79678780D01*
X179493516Y-79695801D01*
X179410801Y-79778516D01*
X179359427Y-79883604D01*
X179353470Y-79924486D01*
X179350064Y-79947873D01*
X179349500Y-79951742D01*
X179349500Y-80318257D01*
X179359427Y-80386395D01*
X179410801Y-80491483D01*
X179493516Y-80574198D01*
X179528335Y-80591220D01*
X179597250Y-80646846D01*
X179635205Y-80726864D01*
X179634682Y-80815426D01*
X179595786Y-80894990D01*
X179528335Y-80948780D01*
X179493516Y-80965801D01*
X179410801Y-81048516D01*
X179359427Y-81153604D01*
X179353470Y-81194486D01*
X179350232Y-81216721D01*
X179349500Y-81221742D01*
X179349500Y-81588257D01*
X179359427Y-81656395D01*
X179410801Y-81761483D01*
X179493516Y-81844198D01*
X179598604Y-81895572D01*
X179598605Y-81895572D01*
X179598607Y-81895573D01*
X179666740Y-81905500D01*
X180280968Y-81905500D01*
X180367311Y-81925207D01*
X180421682Y-81963786D01*
X182250656Y-83792760D01*
X182265520Y-83809391D01*
X182275695Y-83822150D01*
X182285122Y-83833971D01*
X182331182Y-83865374D01*
X182337251Y-83869680D01*
X182389072Y-83907925D01*
X182397325Y-83910470D01*
X182397327Y-83910472D01*
X182450647Y-83926918D01*
X182457691Y-83929237D01*
X182518456Y-83950500D01*
X182527098Y-83950500D01*
X182582847Y-83950500D01*
X182590287Y-83950639D01*
X182592268Y-83950713D01*
X182646010Y-83952724D01*
X182646012Y-83952723D01*
X182659721Y-83953236D01*
X182680508Y-83950500D01*
X196411067Y-83950500D01*
X196449686Y-83957061D01*
X196465298Y-83957645D01*
X196465301Y-83957646D01*
X196601010Y-83962724D01*
X196732187Y-83927576D01*
X196807124Y-83880488D01*
X196890717Y-83851237D01*
X196978724Y-83861153D01*
X197053713Y-83908270D01*
X197100832Y-83983259D01*
X197112000Y-84048986D01*
X197112000Y-84876000D01*
X197112568Y-84881285D01*
X197112569Y-84881300D01*
X197117268Y-84925007D01*
X197117269Y-84925017D01*
X197117839Y-84930313D01*
X197118972Y-84935524D01*
X197118973Y-84935526D01*
X197128477Y-84979216D01*
X197128482Y-84979238D01*
X197129045Y-84981824D01*
X197129744Y-84984372D01*
X197129749Y-84984392D01*
X197136281Y-85008199D01*
X197185609Y-85094824D01*
X197185611Y-85094826D01*
X197185612Y-85094828D01*
X197231367Y-85147632D01*
X197234560Y-85150713D01*
X197234578Y-85150732D01*
X197264139Y-85179256D01*
X197264141Y-85179257D01*
X197352476Y-85225465D01*
X197419515Y-85245150D01*
X197419516Y-85245150D01*
X197419519Y-85245151D01*
X197491497Y-85255500D01*
X202640500Y-85255500D01*
X202726843Y-85275207D01*
X202796084Y-85330426D01*
X202834511Y-85410218D01*
X202839500Y-85454500D01*
X202839500Y-86350500D01*
X202819793Y-86436843D01*
X202764574Y-86506084D01*
X202684782Y-86544511D01*
X202640500Y-86549500D01*
X178831531Y-86549500D01*
X178745188Y-86529793D01*
X178690817Y-86491214D01*
X177458786Y-85259183D01*
X177411667Y-85184195D01*
X177400500Y-85118469D01*
X177400500Y-84562891D01*
X177400500Y-84558234D01*
X177397646Y-84527801D01*
X177352793Y-84399618D01*
X177285374Y-84308268D01*
X177272150Y-84290349D01*
X177217515Y-84250028D01*
X177162882Y-84209707D01*
X177034699Y-84164854D01*
X177026472Y-84164082D01*
X177008896Y-84162434D01*
X177008891Y-84162433D01*
X177004266Y-84162000D01*
X175995734Y-84162000D01*
X175991109Y-84162433D01*
X175991103Y-84162434D01*
X175965301Y-84164854D01*
X175837118Y-84209707D01*
X175837116Y-84209708D01*
X175837117Y-84209708D01*
X175727848Y-84290350D01*
X175642371Y-84406170D01*
X175575243Y-84463939D01*
X175489698Y-84486861D01*
X175482256Y-84487000D01*
X175006532Y-84487000D01*
X174920189Y-84467293D01*
X174865818Y-84428714D01*
X174364013Y-83926909D01*
X173842491Y-83405388D01*
X173795373Y-83330401D01*
X173788203Y-83266766D01*
X175599500Y-83266766D01*
X175602354Y-83297199D01*
X175647207Y-83425382D01*
X175683998Y-83475232D01*
X175727849Y-83534650D01*
X175762862Y-83560490D01*
X175837118Y-83615293D01*
X175965301Y-83660146D01*
X175995734Y-83663000D01*
X176000391Y-83663000D01*
X176999609Y-83663000D01*
X177004266Y-83663000D01*
X177034699Y-83660146D01*
X177162882Y-83615293D01*
X177272150Y-83534650D01*
X177352793Y-83425382D01*
X177397646Y-83297199D01*
X177400500Y-83266766D01*
X177400500Y-82508234D01*
X177397646Y-82477801D01*
X177352793Y-82349618D01*
X177301907Y-82280670D01*
X177272150Y-82240349D01*
X177217516Y-82200028D01*
X177162882Y-82159707D01*
X177034699Y-82114854D01*
X177005917Y-82112154D01*
X176921792Y-82084471D01*
X176858009Y-82023028D01*
X176827202Y-81939996D01*
X176825500Y-81914024D01*
X176825500Y-80235975D01*
X176845207Y-80149632D01*
X176900426Y-80080391D01*
X176980218Y-80041964D01*
X177005909Y-80037845D01*
X177034699Y-80035146D01*
X177162882Y-79990293D01*
X177272150Y-79909650D01*
X177352793Y-79800382D01*
X177397646Y-79672199D01*
X177400500Y-79641766D01*
X177400500Y-79008234D01*
X177397646Y-78977801D01*
X177352793Y-78849618D01*
X177288696Y-78762769D01*
X177272150Y-78740349D01*
X177217516Y-78700028D01*
X177162882Y-78659707D01*
X177034699Y-78614854D01*
X177026472Y-78614082D01*
X177008896Y-78612434D01*
X177008891Y-78612433D01*
X177004266Y-78612000D01*
X175995734Y-78612000D01*
X175991109Y-78612433D01*
X175991103Y-78612434D01*
X175965301Y-78614854D01*
X175837118Y-78659707D01*
X175837116Y-78659708D01*
X175837117Y-78659708D01*
X175727849Y-78740349D01*
X175668143Y-78821250D01*
X175647207Y-78849618D01*
X175602354Y-78977801D01*
X175599500Y-79008234D01*
X175599500Y-79641766D01*
X175602354Y-79672199D01*
X175647207Y-79800382D01*
X175665376Y-79825000D01*
X175727849Y-79909650D01*
X175755761Y-79930249D01*
X175837118Y-79990293D01*
X175965301Y-80035146D01*
X175994082Y-80037845D01*
X176078205Y-80065526D01*
X176141989Y-80126968D01*
X176172797Y-80210000D01*
X176174500Y-80235975D01*
X176174500Y-81914024D01*
X176154793Y-82000367D01*
X176099574Y-82069608D01*
X176019782Y-82108035D01*
X175994083Y-82112154D01*
X175965301Y-82114854D01*
X175837118Y-82159707D01*
X175837116Y-82159708D01*
X175837117Y-82159708D01*
X175727849Y-82240349D01*
X175657770Y-82335304D01*
X175647207Y-82349618D01*
X175602354Y-82477801D01*
X175599500Y-82508234D01*
X175599500Y-83266766D01*
X173788203Y-83266766D01*
X173785457Y-83242394D01*
X173788027Y-83225868D01*
X173797400Y-83178748D01*
X173797400Y-82097852D01*
X173797041Y-82096048D01*
X173787869Y-82049936D01*
X173785767Y-82039369D01*
X173741452Y-81973048D01*
X173675131Y-81928733D01*
X173675130Y-81928732D01*
X173675129Y-81928732D01*
X173616650Y-81917100D01*
X173616648Y-81917100D01*
X172383352Y-81917100D01*
X172383350Y-81917100D01*
X172324870Y-81928732D01*
X172242621Y-81983690D01*
X172202206Y-82021900D01*
X172117825Y-82048796D01*
X172101097Y-82049500D01*
X168069628Y-82049500D01*
X167983285Y-82029793D01*
X167914044Y-81974574D01*
X167894126Y-81944309D01*
X167877684Y-81913548D01*
X167746410Y-81753589D01*
X167586451Y-81622316D01*
X167586450Y-81622315D01*
X167487892Y-81569634D01*
X167403951Y-81524766D01*
X167205937Y-81464700D01*
X167032642Y-81447632D01*
X167000000Y-81444417D01*
X166999999Y-81444417D01*
X166794062Y-81464700D01*
X166596048Y-81524766D01*
X166413548Y-81622316D01*
X166253589Y-81753589D01*
X166122316Y-81913548D01*
X166024766Y-82096048D01*
X165964700Y-82294062D01*
X165944417Y-82500000D01*
X164100500Y-82500000D01*
X164100500Y-76593490D01*
X168070500Y-76593490D01*
X168104011Y-76751148D01*
X168109376Y-76776388D01*
X168185425Y-76947197D01*
X168185426Y-76947199D01*
X168185427Y-76947200D01*
X168242997Y-77026438D01*
X168295331Y-77098470D01*
X168434285Y-77223585D01*
X168596215Y-77317075D01*
X168774043Y-77374855D01*
X168850931Y-77382936D01*
X168913380Y-77389500D01*
X168918584Y-77389500D01*
X169001416Y-77389500D01*
X169006620Y-77389500D01*
X169145956Y-77374855D01*
X169323785Y-77317075D01*
X169485715Y-77223585D01*
X169624669Y-77098470D01*
X169734573Y-76947200D01*
X169810625Y-76776385D01*
X169849500Y-76593490D01*
X169849500Y-76406510D01*
X169810625Y-76223615D01*
X169734573Y-76052800D01*
X169624669Y-75901530D01*
X169579631Y-75860977D01*
X169485714Y-75776414D01*
X169323784Y-75682924D01*
X169145956Y-75625144D01*
X169011794Y-75611043D01*
X169011778Y-75611042D01*
X169006620Y-75610500D01*
X168913380Y-75610500D01*
X168908222Y-75611042D01*
X168908205Y-75611043D01*
X168774043Y-75625144D01*
X168596215Y-75682924D01*
X168434285Y-75776414D01*
X168295331Y-75901529D01*
X168185425Y-76052802D01*
X168109376Y-76223611D01*
X168109375Y-76223614D01*
X168109375Y-76223615D01*
X168070500Y-76406510D01*
X168070500Y-76593490D01*
X164100500Y-76593490D01*
X164100500Y-71131484D01*
X165245500Y-71131484D01*
X165284690Y-71391504D01*
X165339952Y-71570658D01*
X165362202Y-71642788D01*
X165476298Y-71879710D01*
X165624430Y-72096980D01*
X165803290Y-72289746D01*
X166008883Y-72453701D01*
X166236616Y-72585183D01*
X166236617Y-72585183D01*
X166236620Y-72585185D01*
X166461693Y-72673519D01*
X166481402Y-72681254D01*
X166737772Y-72739769D01*
X166934346Y-72754500D01*
X166938063Y-72754500D01*
X167061937Y-72754500D01*
X167065654Y-72754500D01*
X167262228Y-72739769D01*
X167518598Y-72681254D01*
X167763384Y-72585183D01*
X167991117Y-72453701D01*
X168196710Y-72289746D01*
X168375570Y-72096980D01*
X168523702Y-71879710D01*
X168637798Y-71642788D01*
X168715308Y-71391508D01*
X168754500Y-71131484D01*
X225245499Y-71131484D01*
X225284690Y-71391504D01*
X225339952Y-71570658D01*
X225362202Y-71642788D01*
X225476298Y-71879710D01*
X225624430Y-72096980D01*
X225803290Y-72289746D01*
X226008883Y-72453701D01*
X226236616Y-72585183D01*
X226236617Y-72585183D01*
X226236620Y-72585185D01*
X226461693Y-72673519D01*
X226481402Y-72681254D01*
X226737772Y-72739769D01*
X226934346Y-72754500D01*
X226938063Y-72754500D01*
X227061937Y-72754500D01*
X227065654Y-72754500D01*
X227262228Y-72739769D01*
X227518598Y-72681254D01*
X227763384Y-72585183D01*
X227991117Y-72453701D01*
X228196710Y-72289746D01*
X228375570Y-72096980D01*
X228523702Y-71879710D01*
X228637798Y-71642788D01*
X228715308Y-71391508D01*
X228754500Y-71131482D01*
X228754500Y-70868518D01*
X228754500Y-70868515D01*
X228715309Y-70608495D01*
X228686256Y-70514309D01*
X228637798Y-70357212D01*
X228523702Y-70120290D01*
X228375570Y-69903020D01*
X228196710Y-69710254D01*
X227991117Y-69546299D01*
X227763384Y-69414817D01*
X227763379Y-69414814D01*
X227518602Y-69318747D01*
X227262228Y-69260231D01*
X227069352Y-69245777D01*
X227069348Y-69245776D01*
X227065654Y-69245500D01*
X226934346Y-69245500D01*
X226930652Y-69245776D01*
X226930647Y-69245777D01*
X226737771Y-69260231D01*
X226481397Y-69318747D01*
X226236620Y-69414814D01*
X226008881Y-69546300D01*
X225803290Y-69710253D01*
X225624429Y-69903021D01*
X225476299Y-70120288D01*
X225362202Y-70357212D01*
X225284690Y-70608495D01*
X225245499Y-70868515D01*
X225245499Y-71131484D01*
X168754500Y-71131484D01*
X168754500Y-71131482D01*
X168754500Y-70868518D01*
X168754500Y-70868515D01*
X168715309Y-70608495D01*
X168686256Y-70514309D01*
X168637798Y-70357212D01*
X168523702Y-70120290D01*
X168375570Y-69903020D01*
X168196710Y-69710254D01*
X167991117Y-69546299D01*
X167763384Y-69414817D01*
X167763379Y-69414814D01*
X167518602Y-69318747D01*
X167262228Y-69260231D01*
X167069352Y-69245777D01*
X167069348Y-69245776D01*
X167065654Y-69245500D01*
X166934346Y-69245500D01*
X166930652Y-69245776D01*
X166930647Y-69245777D01*
X166737771Y-69260231D01*
X166481397Y-69318747D01*
X166236620Y-69414814D01*
X166008881Y-69546300D01*
X165803290Y-69710253D01*
X165624429Y-69903021D01*
X165476299Y-70120288D01*
X165362202Y-70357212D01*
X165284690Y-70608495D01*
X165245500Y-70868515D01*
X165245500Y-71131484D01*
X164100500Y-71131484D01*
X164100500Y-71005584D01*
X164100813Y-70994427D01*
X164109625Y-70837510D01*
X164118105Y-70686506D01*
X164120601Y-70664350D01*
X164171324Y-70365818D01*
X164176289Y-70344068D01*
X164260117Y-70053091D01*
X164267488Y-70032027D01*
X164383369Y-69752267D01*
X164393045Y-69732176D01*
X164539517Y-69467155D01*
X164551389Y-69448260D01*
X164575120Y-69414814D01*
X164726620Y-69201295D01*
X164740524Y-69183860D01*
X164817340Y-69097903D01*
X164942298Y-68958077D01*
X164958077Y-68942298D01*
X165112152Y-68804607D01*
X165183860Y-68740524D01*
X165201295Y-68726620D01*
X165448260Y-68551388D01*
X165467155Y-68539517D01*
X165732176Y-68393045D01*
X165752267Y-68383369D01*
X166032033Y-68267485D01*
X166053085Y-68260118D01*
X166344069Y-68176288D01*
X166365818Y-68171324D01*
X166664350Y-68120601D01*
X166686506Y-68118105D01*
X166982870Y-68101462D01*
X166994427Y-68100813D01*
X167005584Y-68100500D01*
X167026929Y-68100500D01*
X226973071Y-68100500D01*
X226994416Y-68100500D01*
X227005573Y-68100813D01*
G37*
G04 #@! TD.AperFunction*
G04 #@! TA.AperFunction,Conductor*
G36*
X189543039Y-76119685D02*
G01*
X189588794Y-76172489D01*
X189600000Y-76224000D01*
X189600000Y-82576000D01*
X189580315Y-82643039D01*
X189527511Y-82688794D01*
X189476000Y-82700000D01*
X185524000Y-82700000D01*
X185456961Y-82680315D01*
X185411206Y-82627511D01*
X185400000Y-82576000D01*
X185400000Y-81655000D01*
X186052704Y-81655000D01*
X186052900Y-81657488D01*
X186098719Y-81815200D01*
X186182317Y-81956557D01*
X186298442Y-82072682D01*
X186439802Y-82156282D01*
X186597506Y-82202099D01*
X186631923Y-82204808D01*
X186636803Y-82205000D01*
X187250000Y-82205000D01*
X187250000Y-81655000D01*
X187750000Y-81655000D01*
X187750000Y-82205000D01*
X188363197Y-82205000D01*
X188368076Y-82204808D01*
X188402493Y-82202099D01*
X188560197Y-82156282D01*
X188701557Y-82072682D01*
X188817682Y-81956557D01*
X188901280Y-81815200D01*
X188947099Y-81657488D01*
X188947295Y-81655000D01*
X187750000Y-81655000D01*
X187250000Y-81655000D01*
X186052704Y-81655000D01*
X185400000Y-81655000D01*
X185400000Y-80385000D01*
X186052704Y-80385000D01*
X186052900Y-80387488D01*
X186098719Y-80545200D01*
X186190291Y-80700040D01*
X186188374Y-80701173D01*
X186211564Y-80743642D01*
X186206580Y-80813334D01*
X186189694Y-80839607D01*
X186190291Y-80839960D01*
X186098719Y-80994799D01*
X186052900Y-81152511D01*
X186052704Y-81154999D01*
X186052705Y-81155000D01*
X187250000Y-81155000D01*
X187250000Y-80385000D01*
X187750000Y-80385000D01*
X187750000Y-81155000D01*
X188947295Y-81155000D01*
X188947295Y-81154999D01*
X188947099Y-81152511D01*
X188901280Y-80994799D01*
X188809709Y-80839960D01*
X188811625Y-80838826D01*
X188788435Y-80796357D01*
X188793419Y-80726665D01*
X188810306Y-80700393D01*
X188809709Y-80700040D01*
X188901280Y-80545200D01*
X188947099Y-80387488D01*
X188947295Y-80385000D01*
X187750000Y-80385000D01*
X187250000Y-80385000D01*
X186052704Y-80385000D01*
X185400000Y-80385000D01*
X185400000Y-79115000D01*
X186052704Y-79115000D01*
X186052900Y-79117488D01*
X186098719Y-79275200D01*
X186190291Y-79430040D01*
X186188374Y-79431173D01*
X186211564Y-79473642D01*
X186206580Y-79543334D01*
X186189694Y-79569607D01*
X186190291Y-79569960D01*
X186098719Y-79724799D01*
X186052900Y-79882511D01*
X186052704Y-79884999D01*
X186052705Y-79885000D01*
X187250000Y-79885000D01*
X187250000Y-79115000D01*
X187750000Y-79115000D01*
X187750000Y-79885000D01*
X188947295Y-79885000D01*
X188947295Y-79884999D01*
X188947099Y-79882511D01*
X188901280Y-79724799D01*
X188809709Y-79569960D01*
X188811625Y-79568826D01*
X188788437Y-79526367D01*
X188793416Y-79456675D01*
X188810306Y-79430393D01*
X188809709Y-79430040D01*
X188901280Y-79275200D01*
X188947099Y-79117488D01*
X188947295Y-79115000D01*
X187750000Y-79115000D01*
X187250000Y-79115000D01*
X186052704Y-79115000D01*
X185400000Y-79115000D01*
X185400000Y-77845000D01*
X186052704Y-77845000D01*
X186052900Y-77847488D01*
X186098719Y-78005200D01*
X186190291Y-78160040D01*
X186188374Y-78161173D01*
X186211564Y-78203642D01*
X186206580Y-78273334D01*
X186189694Y-78299607D01*
X186190291Y-78299960D01*
X186098719Y-78454799D01*
X186052900Y-78612511D01*
X186052704Y-78614999D01*
X186052705Y-78615000D01*
X187250000Y-78615000D01*
X187250000Y-77845000D01*
X187750000Y-77845000D01*
X187750000Y-78615000D01*
X188947295Y-78615000D01*
X188947295Y-78614999D01*
X188947099Y-78612511D01*
X188901280Y-78454799D01*
X188809709Y-78299960D01*
X188811625Y-78298826D01*
X188788437Y-78256367D01*
X188793416Y-78186675D01*
X188810306Y-78160393D01*
X188809709Y-78160040D01*
X188901280Y-78005200D01*
X188947099Y-77847488D01*
X188947295Y-77845000D01*
X187750000Y-77845000D01*
X187250000Y-77845000D01*
X186052704Y-77845000D01*
X185400000Y-77845000D01*
X185400000Y-77344999D01*
X186052704Y-77344999D01*
X186052705Y-77345000D01*
X187250000Y-77345000D01*
X187250000Y-76795000D01*
X187750000Y-76795000D01*
X187750000Y-77345000D01*
X188947295Y-77345000D01*
X188947295Y-77344999D01*
X188947099Y-77342511D01*
X188901280Y-77184799D01*
X188817682Y-77043442D01*
X188701557Y-76927317D01*
X188560197Y-76843717D01*
X188402493Y-76797900D01*
X188368076Y-76795191D01*
X188363197Y-76795000D01*
X187750000Y-76795000D01*
X187250000Y-76795000D01*
X186636803Y-76795000D01*
X186631923Y-76795191D01*
X186597506Y-76797900D01*
X186439802Y-76843717D01*
X186298442Y-76927317D01*
X186182317Y-77043442D01*
X186098719Y-77184799D01*
X186052900Y-77342511D01*
X186052704Y-77344999D01*
X185400000Y-77344999D01*
X185400000Y-76224000D01*
X185419685Y-76156961D01*
X185472489Y-76111206D01*
X185524000Y-76100000D01*
X189476000Y-76100000D01*
X189543039Y-76119685D01*
G37*
G04 #@! TD.AperFunction*
G04 #@! TA.AperFunction,Conductor*
G36*
X204510539Y-75319685D02*
G01*
X204556294Y-75372489D01*
X204567500Y-75424000D01*
X204567500Y-80413347D01*
X204547815Y-80480386D01*
X204495011Y-80526141D01*
X204425853Y-80536085D01*
X204362297Y-80507060D01*
X204325794Y-80452351D01*
X204279593Y-80312926D01*
X204191385Y-80169918D01*
X204072581Y-80051114D01*
X203929573Y-79962906D01*
X203770083Y-79910056D01*
X203674775Y-79900319D01*
X203668496Y-79900000D01*
X203655000Y-79900000D01*
X203655000Y-82099999D01*
X203668493Y-82099999D01*
X203674775Y-82099678D01*
X203770082Y-82089943D01*
X203929573Y-82037093D01*
X204072581Y-81948885D01*
X204191385Y-81830081D01*
X204279593Y-81687073D01*
X204325794Y-81547649D01*
X204365567Y-81490204D01*
X204430082Y-81463381D01*
X204498858Y-81475696D01*
X204550058Y-81523239D01*
X204567500Y-81586653D01*
X204567500Y-83725500D01*
X204547815Y-83792539D01*
X204495011Y-83838294D01*
X204443500Y-83849500D01*
X203235401Y-83849500D01*
X203228845Y-83850927D01*
X203182519Y-83855907D01*
X203047665Y-83906205D01*
X202932452Y-83992452D01*
X202846205Y-84107665D01*
X202846203Y-84107668D01*
X202846204Y-84107668D01*
X202795909Y-84242515D01*
X202789500Y-84302125D01*
X202789500Y-84305446D01*
X202789500Y-84305447D01*
X202789500Y-84876000D01*
X202769815Y-84943039D01*
X202717011Y-84988794D01*
X202665500Y-85000000D01*
X197491500Y-85000000D01*
X197424461Y-84980315D01*
X197378706Y-84927511D01*
X197367500Y-84876000D01*
X197367500Y-80524249D01*
X197387185Y-80457210D01*
X197439989Y-80411455D01*
X197509147Y-80401511D01*
X197572703Y-80430536D01*
X197607682Y-80480915D01*
X197649147Y-80592089D01*
X197735311Y-80707188D01*
X197850410Y-80793352D01*
X197985128Y-80843599D01*
X198041367Y-80849645D01*
X198047982Y-80850000D01*
X198217500Y-80850000D01*
X198217500Y-80350000D01*
X198617500Y-80350000D01*
X198617500Y-80850000D01*
X198787018Y-80850000D01*
X198793632Y-80849645D01*
X198849871Y-80843599D01*
X198984589Y-80793352D01*
X199095932Y-80710000D01*
X199775001Y-80710000D01*
X199775001Y-80756829D01*
X199775321Y-80763111D01*
X199785493Y-80862695D01*
X199840642Y-81029122D01*
X199932683Y-81178345D01*
X200056654Y-81302316D01*
X200205877Y-81394357D01*
X200372303Y-81449506D01*
X200471890Y-81459680D01*
X200478168Y-81459999D01*
X200749999Y-81459999D01*
X200749999Y-81459998D01*
X200750000Y-80710000D01*
X201250000Y-80710000D01*
X201250000Y-81459999D01*
X201521829Y-81459999D01*
X201528111Y-81459678D01*
X201627695Y-81449506D01*
X201794122Y-81394357D01*
X201943345Y-81302316D01*
X201995661Y-81250000D01*
X202467501Y-81250000D01*
X202467501Y-81425993D01*
X202467821Y-81432275D01*
X202477556Y-81527582D01*
X202530406Y-81687073D01*
X202618614Y-81830081D01*
X202737418Y-81948885D01*
X202880426Y-82037093D01*
X203039916Y-82089943D01*
X203135206Y-82099678D01*
X203141522Y-82099999D01*
X203155000Y-82099999D01*
X203155000Y-81250000D01*
X202467501Y-81250000D01*
X201995661Y-81250000D01*
X202067316Y-81178345D01*
X202159357Y-81029122D01*
X202214506Y-80862695D01*
X202221882Y-80790500D01*
X202246113Y-80731113D01*
X202239883Y-80724883D01*
X202442383Y-80724883D01*
X202467500Y-80750000D01*
X203155000Y-80750000D01*
X203155000Y-79900000D01*
X203141509Y-79900000D01*
X203135222Y-79900321D01*
X203039917Y-79910056D01*
X202880426Y-79962906D01*
X202737418Y-80051114D01*
X202618614Y-80169918D01*
X202530406Y-80312926D01*
X202477556Y-80472416D01*
X202467819Y-80567724D01*
X202467500Y-80574004D01*
X202467500Y-80653138D01*
X202447815Y-80720177D01*
X202442383Y-80724883D01*
X202239883Y-80724883D01*
X202225000Y-80710000D01*
X201250000Y-80710000D01*
X200750000Y-80710000D01*
X199775001Y-80710000D01*
X199095932Y-80710000D01*
X199099688Y-80707188D01*
X199185852Y-80592089D01*
X199236099Y-80457371D01*
X199242145Y-80401132D01*
X199242500Y-80394518D01*
X199242500Y-80350000D01*
X198617500Y-80350000D01*
X198217500Y-80350000D01*
X198217500Y-79949999D01*
X198617499Y-79949999D01*
X198617500Y-79950000D01*
X199242500Y-79950000D01*
X199242500Y-79905481D01*
X199242145Y-79898871D01*
X199235628Y-79838254D01*
X199235628Y-79811739D01*
X199242146Y-79751125D01*
X199242500Y-79744518D01*
X199242500Y-79700000D01*
X198617500Y-79700000D01*
X198617499Y-79949999D01*
X198217500Y-79949999D01*
X198217500Y-79424500D01*
X198237185Y-79357461D01*
X198289989Y-79311706D01*
X198341500Y-79300500D01*
X198776822Y-79300500D01*
X198781899Y-79300000D01*
X199242500Y-79300000D01*
X199242500Y-79255481D01*
X199242145Y-79248867D01*
X199236099Y-79192626D01*
X199202608Y-79102833D01*
X199197624Y-79033142D01*
X199231109Y-78971819D01*
X199292432Y-78938334D01*
X199318790Y-78935500D01*
X199951534Y-78935500D01*
X200018573Y-78955185D01*
X200064328Y-79007989D01*
X200067713Y-79016160D01*
X200081204Y-79052331D01*
X200167454Y-79167546D01*
X200282669Y-79253796D01*
X200302470Y-79261181D01*
X200358404Y-79303052D01*
X200382821Y-79368517D01*
X200367969Y-79436790D01*
X200318564Y-79486195D01*
X200298141Y-79495069D01*
X200205877Y-79525642D01*
X200056654Y-79617683D01*
X199932683Y-79741654D01*
X199840642Y-79890877D01*
X199785493Y-80057303D01*
X199775319Y-80156890D01*
X199775000Y-80163168D01*
X199775000Y-80210000D01*
X202224999Y-80210000D01*
X202224999Y-80163170D01*
X202224678Y-80156888D01*
X202214506Y-80057304D01*
X202159357Y-79890877D01*
X202067316Y-79741654D01*
X201943345Y-79617683D01*
X201794122Y-79525642D01*
X201701858Y-79495069D01*
X201644413Y-79455296D01*
X201617590Y-79390781D01*
X201629905Y-79322005D01*
X201677448Y-79270805D01*
X201697527Y-79261182D01*
X201717331Y-79253796D01*
X201832546Y-79167546D01*
X201918796Y-79052331D01*
X201932284Y-79016166D01*
X201974155Y-78960233D01*
X202039620Y-78935816D01*
X202048466Y-78935500D01*
X202825695Y-78935500D01*
X202851141Y-78938139D01*
X202854940Y-78938935D01*
X202861768Y-78940367D01*
X202891638Y-78936643D01*
X202893177Y-78936452D01*
X202908514Y-78935500D01*
X202908611Y-78935500D01*
X202908614Y-78935500D01*
X202929143Y-78932073D01*
X202934159Y-78931342D01*
X202986126Y-78924866D01*
X202986128Y-78924864D01*
X202993957Y-78923889D01*
X202994166Y-78923822D01*
X203001107Y-78920065D01*
X203001110Y-78920065D01*
X203047166Y-78895140D01*
X203051624Y-78892845D01*
X203098711Y-78869826D01*
X203098713Y-78869823D01*
X203113156Y-78862763D01*
X203173625Y-78850473D01*
X203173870Y-78850500D01*
X203177190Y-78850500D01*
X203697820Y-78850500D01*
X203701130Y-78850500D01*
X203757022Y-78844491D01*
X203883450Y-78797336D01*
X203991472Y-78716472D01*
X204072336Y-78608450D01*
X204119491Y-78482022D01*
X204125500Y-78426130D01*
X204125500Y-77573870D01*
X204119491Y-77517978D01*
X204072336Y-77391550D01*
X204062526Y-77378445D01*
X203991472Y-77283527D01*
X203883452Y-77202665D01*
X203883450Y-77202664D01*
X203757022Y-77155509D01*
X203704416Y-77149853D01*
X203704410Y-77149852D01*
X203701130Y-77149500D01*
X203173870Y-77149500D01*
X203170590Y-77149852D01*
X203170583Y-77149853D01*
X203117977Y-77155509D01*
X202991547Y-77202665D01*
X202883527Y-77283527D01*
X202802665Y-77391547D01*
X202767623Y-77485500D01*
X202755509Y-77517978D01*
X202749500Y-77573870D01*
X202749500Y-77577178D01*
X202749500Y-77577179D01*
X202749500Y-78060500D01*
X202729815Y-78127539D01*
X202677011Y-78173294D01*
X202625500Y-78184500D01*
X202048466Y-78184500D01*
X201981427Y-78164815D01*
X201935672Y-78112011D01*
X201932284Y-78103833D01*
X201918796Y-78067669D01*
X201832546Y-77952454D01*
X201717331Y-77866204D01*
X201582483Y-77815909D01*
X201522873Y-77809500D01*
X201519550Y-77809500D01*
X200480439Y-77809500D01*
X200480420Y-77809500D01*
X200477128Y-77809501D01*
X200473848Y-77809853D01*
X200473840Y-77809854D01*
X200417515Y-77815909D01*
X200282669Y-77866204D01*
X200167454Y-77952454D01*
X200081204Y-78067669D01*
X200067716Y-78103833D01*
X200025845Y-78159767D01*
X199960380Y-78184184D01*
X199951534Y-78184500D01*
X199059305Y-78184500D01*
X199033859Y-78181861D01*
X199023233Y-78179633D01*
X199023232Y-78179633D01*
X199005358Y-78181861D01*
X198991823Y-78183548D01*
X198976486Y-78184500D01*
X198976384Y-78184500D01*
X198955899Y-78187918D01*
X198950832Y-78188657D01*
X198891067Y-78196107D01*
X198890812Y-78196189D01*
X198837870Y-78224838D01*
X198833320Y-78227180D01*
X198779215Y-78253632D01*
X198779006Y-78253788D01*
X198738243Y-78298068D01*
X198734697Y-78301764D01*
X198673283Y-78363180D01*
X198611960Y-78396666D01*
X198585600Y-78399500D01*
X198067825Y-78399500D01*
X197994761Y-78414033D01*
X197911899Y-78469399D01*
X197856533Y-78552261D01*
X197842000Y-78625325D01*
X197842000Y-78800874D01*
X197822315Y-78867913D01*
X197792311Y-78900141D01*
X197735311Y-78942810D01*
X197649147Y-79057911D01*
X197607682Y-79169084D01*
X197565810Y-79225017D01*
X197500346Y-79249434D01*
X197432073Y-79234582D01*
X197382668Y-79185177D01*
X197367500Y-79125750D01*
X197367500Y-77501183D01*
X197387185Y-77434144D01*
X197439989Y-77388389D01*
X197509147Y-77378445D01*
X197572703Y-77407470D01*
X197597040Y-77436088D01*
X197607685Y-77453347D01*
X197731654Y-77577316D01*
X197880877Y-77669357D01*
X198047303Y-77724506D01*
X198146891Y-77734680D01*
X198153167Y-77734999D01*
X198199999Y-77734999D01*
X198200000Y-77734998D01*
X198200000Y-76760000D01*
X198700000Y-76760000D01*
X198700000Y-77734999D01*
X198746829Y-77734999D01*
X198753111Y-77734678D01*
X198852695Y-77724506D01*
X199019122Y-77669357D01*
X199168345Y-77577316D01*
X199292316Y-77453345D01*
X199384357Y-77304122D01*
X199439506Y-77137696D01*
X199449680Y-77038109D01*
X199450000Y-77031831D01*
X199450000Y-76760000D01*
X198700000Y-76760000D01*
X198200000Y-76760000D01*
X198200000Y-76384000D01*
X198219685Y-76316961D01*
X198272489Y-76271206D01*
X198324000Y-76260000D01*
X199449999Y-76260000D01*
X199449999Y-75988170D01*
X199449678Y-75981888D01*
X199439506Y-75882304D01*
X199384357Y-75715877D01*
X199292316Y-75566654D01*
X199237343Y-75511681D01*
X199203858Y-75450358D01*
X199208842Y-75380666D01*
X199250714Y-75324733D01*
X199316178Y-75300316D01*
X199325024Y-75300000D01*
X204443500Y-75300000D01*
X204510539Y-75319685D01*
G37*
G04 #@! TD.AperFunction*
M02*
