%TF.GenerationSoftware,KiCad,Pcbnew,8.0.1*%
%TF.CreationDate,2024-11-19T16:07:40-06:00*%
%TF.ProjectId,ContactorDriver,436f6e74-6163-4746-9f72-447269766572,rev?*%
%TF.SameCoordinates,Original*%
%TF.FileFunction,Drillmap*%
%TF.FilePolarity,Positive*%
%FSLAX45Y45*%
G04 Gerber Fmt 4.5, Leading zero omitted, Abs format (unit mm)*
G04 Created by KiCad (PCBNEW 8.0.1) date 2024-11-19 16:07:40*
%MOMM*%
%LPD*%
G01*
G04 APERTURE LIST*
%ADD10C,0.050000*%
%ADD11C,0.200000*%
%ADD12C,0.100000*%
%ADD13C,0.102000*%
%ADD14C,0.160000*%
G04 APERTURE END LIST*
D10*
X15830000Y-8310000D02*
G75*
G02*
X16180000Y-8660000I0J-350000D01*
G01*
X12330000Y-8660000D02*
G75*
G02*
X12680000Y-8310000I350000J0D01*
G01*
X12330000Y-8660000D02*
X12330000Y-13247500D01*
X16180000Y-13247500D02*
X16180000Y-8660000D01*
X12680000Y-13597500D02*
X15830000Y-13597500D01*
X16180000Y-13247500D02*
G75*
G02*
X15830000Y-13597500I-350000J0D01*
G01*
X12680000Y-8310000D02*
X15830000Y-8310000D01*
X12680000Y-13597500D02*
G75*
G02*
X12330000Y-13247500I0J350000D01*
G01*
D11*
D12*
X13244200Y-9122600D02*
X13284200Y-9162600D01*
X13284200Y-9122600D02*
X13244200Y-9162600D01*
X13726800Y-10567860D02*
X13766800Y-10607860D01*
X13766800Y-10567860D02*
X13726800Y-10607860D01*
X13726800Y-11517820D02*
X13766800Y-11557820D01*
X13766800Y-11517820D02*
X13726800Y-11557820D01*
X13742040Y-9620440D02*
X13782040Y-9660440D01*
X13782040Y-9620440D02*
X13742040Y-9660440D01*
X13833480Y-9396920D02*
X13873480Y-9436920D01*
X13873480Y-9396920D02*
X13833480Y-9436920D01*
X13935000Y-11845000D02*
X13975000Y-11885000D01*
X13975000Y-11845000D02*
X13935000Y-11885000D01*
X14227460Y-9324060D02*
X14267460Y-9364060D01*
X14267460Y-9324060D02*
X14227460Y-9364060D01*
X14517500Y-11475000D02*
X14557500Y-11515000D01*
X14557500Y-11475000D02*
X14517500Y-11515000D01*
X14518800Y-9582500D02*
X14558800Y-9622500D01*
X14558800Y-9582500D02*
X14518800Y-9622500D01*
X14520000Y-10517500D02*
X14560000Y-10557500D01*
X14560000Y-10517500D02*
X14520000Y-10557500D01*
X14550000Y-10725000D02*
X14590000Y-10765000D01*
X14590000Y-10725000D02*
X14550000Y-10765000D01*
X14550000Y-11682500D02*
X14590000Y-11722500D01*
X14590000Y-11682500D02*
X14550000Y-11722500D01*
X14560000Y-9785000D02*
X14600000Y-9825000D01*
X14600000Y-9785000D02*
X14560000Y-9825000D01*
X15962000Y-9109900D02*
X16002000Y-9149900D01*
X16002000Y-9109900D02*
X15962000Y-9149900D01*
D13*
X12791000Y-12451500D02*
G75*
G02*
X12689000Y-12451500I-51000J0D01*
G01*
X12689000Y-12451500D02*
G75*
G02*
X12791000Y-12451500I51000J0D01*
G01*
X12792000Y-10685000D02*
G75*
G02*
X12690000Y-10685000I-51000J0D01*
G01*
X12690000Y-10685000D02*
G75*
G02*
X12792000Y-10685000I51000J0D01*
G01*
X12792000Y-11643500D02*
G75*
G02*
X12690000Y-11643500I-51000J0D01*
G01*
X12690000Y-11643500D02*
G75*
G02*
X12792000Y-11643500I51000J0D01*
G01*
X12802000Y-9738500D02*
G75*
G02*
X12700000Y-9738500I-51000J0D01*
G01*
X12700000Y-9738500D02*
G75*
G02*
X12802000Y-9738500I51000J0D01*
G01*
X13091000Y-12451500D02*
G75*
G02*
X12989000Y-12451500I-51000J0D01*
G01*
X12989000Y-12451500D02*
G75*
G02*
X13091000Y-12451500I51000J0D01*
G01*
X13092000Y-10685000D02*
G75*
G02*
X12990000Y-10685000I-51000J0D01*
G01*
X12990000Y-10685000D02*
G75*
G02*
X13092000Y-10685000I51000J0D01*
G01*
X13092000Y-11643500D02*
G75*
G02*
X12990000Y-11643500I-51000J0D01*
G01*
X12990000Y-11643500D02*
G75*
G02*
X13092000Y-11643500I51000J0D01*
G01*
X13102000Y-9738500D02*
G75*
G02*
X13000000Y-9738500I-51000J0D01*
G01*
X13000000Y-9738500D02*
G75*
G02*
X13102000Y-9738500I51000J0D01*
G01*
X13498080Y-8629520D02*
G75*
G02*
X13396080Y-8629520I-51000J0D01*
G01*
X13396080Y-8629520D02*
G75*
G02*
X13498080Y-8629520I51000J0D01*
G01*
X13561000Y-13140000D02*
G75*
G02*
X13459000Y-13140000I-51000J0D01*
G01*
X13459000Y-13140000D02*
G75*
G02*
X13561000Y-13140000I51000J0D01*
G01*
X13798080Y-8629520D02*
G75*
G02*
X13696080Y-8629520I-51000J0D01*
G01*
X13696080Y-8629520D02*
G75*
G02*
X13798080Y-8629520I51000J0D01*
G01*
X13861000Y-13140000D02*
G75*
G02*
X13759000Y-13140000I-51000J0D01*
G01*
X13759000Y-13140000D02*
G75*
G02*
X13861000Y-13140000I51000J0D01*
G01*
X14761000Y-13131500D02*
G75*
G02*
X14659000Y-13131500I-51000J0D01*
G01*
X14659000Y-13131500D02*
G75*
G02*
X14761000Y-13131500I51000J0D01*
G01*
X15061000Y-13131500D02*
G75*
G02*
X14959000Y-13131500I-51000J0D01*
G01*
X14959000Y-13131500D02*
G75*
G02*
X15061000Y-13131500I51000J0D01*
G01*
X15521000Y-12414000D02*
G75*
G02*
X15419000Y-12414000I-51000J0D01*
G01*
X15419000Y-12414000D02*
G75*
G02*
X15521000Y-12414000I51000J0D01*
G01*
X15531000Y-9844000D02*
G75*
G02*
X15429000Y-9844000I-51000J0D01*
G01*
X15429000Y-9844000D02*
G75*
G02*
X15531000Y-9844000I51000J0D01*
G01*
X15531000Y-10761500D02*
G75*
G02*
X15429000Y-10761500I-51000J0D01*
G01*
X15429000Y-10761500D02*
G75*
G02*
X15531000Y-10761500I51000J0D01*
G01*
X15531000Y-11664000D02*
G75*
G02*
X15429000Y-11664000I-51000J0D01*
G01*
X15429000Y-11664000D02*
G75*
G02*
X15531000Y-11664000I51000J0D01*
G01*
X15821000Y-12414000D02*
G75*
G02*
X15719000Y-12414000I-51000J0D01*
G01*
X15719000Y-12414000D02*
G75*
G02*
X15821000Y-12414000I51000J0D01*
G01*
X15831000Y-9844000D02*
G75*
G02*
X15729000Y-9844000I-51000J0D01*
G01*
X15729000Y-9844000D02*
G75*
G02*
X15831000Y-9844000I51000J0D01*
G01*
X15831000Y-10761500D02*
G75*
G02*
X15729000Y-10761500I-51000J0D01*
G01*
X15729000Y-10761500D02*
G75*
G02*
X15831000Y-10761500I51000J0D01*
G01*
X15831000Y-11664000D02*
G75*
G02*
X15729000Y-11664000I-51000J0D01*
G01*
X15729000Y-11664000D02*
G75*
G02*
X15831000Y-11664000I51000J0D01*
G01*
D14*
X14775500Y-8473320D02*
X14775500Y-8633320D01*
X14695500Y-8553320D02*
X14855500Y-8553320D01*
X15222540Y-8468240D02*
X15222540Y-8628240D01*
X15142540Y-8548240D02*
X15302540Y-8548240D01*
D11*
X12588277Y-13911484D02*
X12588277Y-13711484D01*
X12588277Y-13711484D02*
X12635896Y-13711484D01*
X12635896Y-13711484D02*
X12664467Y-13721008D01*
X12664467Y-13721008D02*
X12683515Y-13740055D01*
X12683515Y-13740055D02*
X12693039Y-13759103D01*
X12693039Y-13759103D02*
X12702562Y-13797198D01*
X12702562Y-13797198D02*
X12702562Y-13825769D01*
X12702562Y-13825769D02*
X12693039Y-13863865D01*
X12693039Y-13863865D02*
X12683515Y-13882912D01*
X12683515Y-13882912D02*
X12664467Y-13901960D01*
X12664467Y-13901960D02*
X12635896Y-13911484D01*
X12635896Y-13911484D02*
X12588277Y-13911484D01*
X12788277Y-13911484D02*
X12788277Y-13778150D01*
X12788277Y-13816246D02*
X12797801Y-13797198D01*
X12797801Y-13797198D02*
X12807324Y-13787674D01*
X12807324Y-13787674D02*
X12826372Y-13778150D01*
X12826372Y-13778150D02*
X12845420Y-13778150D01*
X12912086Y-13911484D02*
X12912086Y-13778150D01*
X12912086Y-13711484D02*
X12902562Y-13721008D01*
X12902562Y-13721008D02*
X12912086Y-13730531D01*
X12912086Y-13730531D02*
X12921610Y-13721008D01*
X12921610Y-13721008D02*
X12912086Y-13711484D01*
X12912086Y-13711484D02*
X12912086Y-13730531D01*
X13035896Y-13911484D02*
X13016848Y-13901960D01*
X13016848Y-13901960D02*
X13007324Y-13882912D01*
X13007324Y-13882912D02*
X13007324Y-13711484D01*
X13140658Y-13911484D02*
X13121610Y-13901960D01*
X13121610Y-13901960D02*
X13112086Y-13882912D01*
X13112086Y-13882912D02*
X13112086Y-13711484D01*
X13369229Y-13911484D02*
X13369229Y-13711484D01*
X13369229Y-13711484D02*
X13435896Y-13854341D01*
X13435896Y-13854341D02*
X13502562Y-13711484D01*
X13502562Y-13711484D02*
X13502562Y-13911484D01*
X13683515Y-13911484D02*
X13683515Y-13806722D01*
X13683515Y-13806722D02*
X13673991Y-13787674D01*
X13673991Y-13787674D02*
X13654943Y-13778150D01*
X13654943Y-13778150D02*
X13616848Y-13778150D01*
X13616848Y-13778150D02*
X13597801Y-13787674D01*
X13683515Y-13901960D02*
X13664467Y-13911484D01*
X13664467Y-13911484D02*
X13616848Y-13911484D01*
X13616848Y-13911484D02*
X13597801Y-13901960D01*
X13597801Y-13901960D02*
X13588277Y-13882912D01*
X13588277Y-13882912D02*
X13588277Y-13863865D01*
X13588277Y-13863865D02*
X13597801Y-13844817D01*
X13597801Y-13844817D02*
X13616848Y-13835293D01*
X13616848Y-13835293D02*
X13664467Y-13835293D01*
X13664467Y-13835293D02*
X13683515Y-13825769D01*
X13778753Y-13778150D02*
X13778753Y-13978150D01*
X13778753Y-13787674D02*
X13797801Y-13778150D01*
X13797801Y-13778150D02*
X13835896Y-13778150D01*
X13835896Y-13778150D02*
X13854943Y-13787674D01*
X13854943Y-13787674D02*
X13864467Y-13797198D01*
X13864467Y-13797198D02*
X13873991Y-13816246D01*
X13873991Y-13816246D02*
X13873991Y-13873388D01*
X13873991Y-13873388D02*
X13864467Y-13892436D01*
X13864467Y-13892436D02*
X13854943Y-13901960D01*
X13854943Y-13901960D02*
X13835896Y-13911484D01*
X13835896Y-13911484D02*
X13797801Y-13911484D01*
X13797801Y-13911484D02*
X13778753Y-13901960D01*
X13959705Y-13892436D02*
X13969229Y-13901960D01*
X13969229Y-13901960D02*
X13959705Y-13911484D01*
X13959705Y-13911484D02*
X13950182Y-13901960D01*
X13950182Y-13901960D02*
X13959705Y-13892436D01*
X13959705Y-13892436D02*
X13959705Y-13911484D01*
X13959705Y-13787674D02*
X13969229Y-13797198D01*
X13969229Y-13797198D02*
X13959705Y-13806722D01*
X13959705Y-13806722D02*
X13950182Y-13797198D01*
X13950182Y-13797198D02*
X13959705Y-13787674D01*
X13959705Y-13787674D02*
X13959705Y-13806722D01*
D12*
X12287500Y-14220000D02*
X12327500Y-14260000D01*
X12327500Y-14220000D02*
X12287500Y-14260000D01*
D11*
X12626372Y-14131484D02*
X12645420Y-14131484D01*
X12645420Y-14131484D02*
X12664467Y-14141008D01*
X12664467Y-14141008D02*
X12673991Y-14150531D01*
X12673991Y-14150531D02*
X12683515Y-14169579D01*
X12683515Y-14169579D02*
X12693039Y-14207674D01*
X12693039Y-14207674D02*
X12693039Y-14255293D01*
X12693039Y-14255293D02*
X12683515Y-14293388D01*
X12683515Y-14293388D02*
X12673991Y-14312436D01*
X12673991Y-14312436D02*
X12664467Y-14321960D01*
X12664467Y-14321960D02*
X12645420Y-14331484D01*
X12645420Y-14331484D02*
X12626372Y-14331484D01*
X12626372Y-14331484D02*
X12607324Y-14321960D01*
X12607324Y-14321960D02*
X12597801Y-14312436D01*
X12597801Y-14312436D02*
X12588277Y-14293388D01*
X12588277Y-14293388D02*
X12578753Y-14255293D01*
X12578753Y-14255293D02*
X12578753Y-14207674D01*
X12578753Y-14207674D02*
X12588277Y-14169579D01*
X12588277Y-14169579D02*
X12597801Y-14150531D01*
X12597801Y-14150531D02*
X12607324Y-14141008D01*
X12607324Y-14141008D02*
X12626372Y-14131484D01*
X12778753Y-14312436D02*
X12788277Y-14321960D01*
X12788277Y-14321960D02*
X12778753Y-14331484D01*
X12778753Y-14331484D02*
X12769229Y-14321960D01*
X12769229Y-14321960D02*
X12778753Y-14312436D01*
X12778753Y-14312436D02*
X12778753Y-14331484D01*
X12959705Y-14198150D02*
X12959705Y-14331484D01*
X12912086Y-14121960D02*
X12864467Y-14264817D01*
X12864467Y-14264817D02*
X12988277Y-14264817D01*
X13102562Y-14131484D02*
X13121610Y-14131484D01*
X13121610Y-14131484D02*
X13140658Y-14141008D01*
X13140658Y-14141008D02*
X13150182Y-14150531D01*
X13150182Y-14150531D02*
X13159705Y-14169579D01*
X13159705Y-14169579D02*
X13169229Y-14207674D01*
X13169229Y-14207674D02*
X13169229Y-14255293D01*
X13169229Y-14255293D02*
X13159705Y-14293388D01*
X13159705Y-14293388D02*
X13150182Y-14312436D01*
X13150182Y-14312436D02*
X13140658Y-14321960D01*
X13140658Y-14321960D02*
X13121610Y-14331484D01*
X13121610Y-14331484D02*
X13102562Y-14331484D01*
X13102562Y-14331484D02*
X13083515Y-14321960D01*
X13083515Y-14321960D02*
X13073991Y-14312436D01*
X13073991Y-14312436D02*
X13064467Y-14293388D01*
X13064467Y-14293388D02*
X13054943Y-14255293D01*
X13054943Y-14255293D02*
X13054943Y-14207674D01*
X13054943Y-14207674D02*
X13064467Y-14169579D01*
X13064467Y-14169579D02*
X13073991Y-14150531D01*
X13073991Y-14150531D02*
X13083515Y-14141008D01*
X13083515Y-14141008D02*
X13102562Y-14131484D01*
X13293039Y-14131484D02*
X13312086Y-14131484D01*
X13312086Y-14131484D02*
X13331134Y-14141008D01*
X13331134Y-14141008D02*
X13340658Y-14150531D01*
X13340658Y-14150531D02*
X13350182Y-14169579D01*
X13350182Y-14169579D02*
X13359705Y-14207674D01*
X13359705Y-14207674D02*
X13359705Y-14255293D01*
X13359705Y-14255293D02*
X13350182Y-14293388D01*
X13350182Y-14293388D02*
X13340658Y-14312436D01*
X13340658Y-14312436D02*
X13331134Y-14321960D01*
X13331134Y-14321960D02*
X13312086Y-14331484D01*
X13312086Y-14331484D02*
X13293039Y-14331484D01*
X13293039Y-14331484D02*
X13273991Y-14321960D01*
X13273991Y-14321960D02*
X13264467Y-14312436D01*
X13264467Y-14312436D02*
X13254943Y-14293388D01*
X13254943Y-14293388D02*
X13245420Y-14255293D01*
X13245420Y-14255293D02*
X13245420Y-14207674D01*
X13245420Y-14207674D02*
X13254943Y-14169579D01*
X13254943Y-14169579D02*
X13264467Y-14150531D01*
X13264467Y-14150531D02*
X13273991Y-14141008D01*
X13273991Y-14141008D02*
X13293039Y-14131484D01*
X13445420Y-14331484D02*
X13445420Y-14198150D01*
X13445420Y-14217198D02*
X13454943Y-14207674D01*
X13454943Y-14207674D02*
X13473991Y-14198150D01*
X13473991Y-14198150D02*
X13502563Y-14198150D01*
X13502563Y-14198150D02*
X13521610Y-14207674D01*
X13521610Y-14207674D02*
X13531134Y-14226722D01*
X13531134Y-14226722D02*
X13531134Y-14331484D01*
X13531134Y-14226722D02*
X13540658Y-14207674D01*
X13540658Y-14207674D02*
X13559705Y-14198150D01*
X13559705Y-14198150D02*
X13588277Y-14198150D01*
X13588277Y-14198150D02*
X13607324Y-14207674D01*
X13607324Y-14207674D02*
X13616848Y-14226722D01*
X13616848Y-14226722D02*
X13616848Y-14331484D01*
X13712086Y-14331484D02*
X13712086Y-14198150D01*
X13712086Y-14217198D02*
X13721610Y-14207674D01*
X13721610Y-14207674D02*
X13740658Y-14198150D01*
X13740658Y-14198150D02*
X13769229Y-14198150D01*
X13769229Y-14198150D02*
X13788277Y-14207674D01*
X13788277Y-14207674D02*
X13797801Y-14226722D01*
X13797801Y-14226722D02*
X13797801Y-14331484D01*
X13797801Y-14226722D02*
X13807324Y-14207674D01*
X13807324Y-14207674D02*
X13826372Y-14198150D01*
X13826372Y-14198150D02*
X13854943Y-14198150D01*
X13854943Y-14198150D02*
X13873991Y-14207674D01*
X13873991Y-14207674D02*
X13883515Y-14226722D01*
X13883515Y-14226722D02*
X13883515Y-14331484D01*
X14273991Y-14121960D02*
X14102563Y-14379103D01*
X14531134Y-14131484D02*
X14550182Y-14131484D01*
X14550182Y-14131484D02*
X14569229Y-14141008D01*
X14569229Y-14141008D02*
X14578753Y-14150531D01*
X14578753Y-14150531D02*
X14588277Y-14169579D01*
X14588277Y-14169579D02*
X14597801Y-14207674D01*
X14597801Y-14207674D02*
X14597801Y-14255293D01*
X14597801Y-14255293D02*
X14588277Y-14293388D01*
X14588277Y-14293388D02*
X14578753Y-14312436D01*
X14578753Y-14312436D02*
X14569229Y-14321960D01*
X14569229Y-14321960D02*
X14550182Y-14331484D01*
X14550182Y-14331484D02*
X14531134Y-14331484D01*
X14531134Y-14331484D02*
X14512086Y-14321960D01*
X14512086Y-14321960D02*
X14502563Y-14312436D01*
X14502563Y-14312436D02*
X14493039Y-14293388D01*
X14493039Y-14293388D02*
X14483515Y-14255293D01*
X14483515Y-14255293D02*
X14483515Y-14207674D01*
X14483515Y-14207674D02*
X14493039Y-14169579D01*
X14493039Y-14169579D02*
X14502563Y-14150531D01*
X14502563Y-14150531D02*
X14512086Y-14141008D01*
X14512086Y-14141008D02*
X14531134Y-14131484D01*
X14683515Y-14312436D02*
X14693039Y-14321960D01*
X14693039Y-14321960D02*
X14683515Y-14331484D01*
X14683515Y-14331484D02*
X14673991Y-14321960D01*
X14673991Y-14321960D02*
X14683515Y-14312436D01*
X14683515Y-14312436D02*
X14683515Y-14331484D01*
X14816848Y-14131484D02*
X14835896Y-14131484D01*
X14835896Y-14131484D02*
X14854944Y-14141008D01*
X14854944Y-14141008D02*
X14864467Y-14150531D01*
X14864467Y-14150531D02*
X14873991Y-14169579D01*
X14873991Y-14169579D02*
X14883515Y-14207674D01*
X14883515Y-14207674D02*
X14883515Y-14255293D01*
X14883515Y-14255293D02*
X14873991Y-14293388D01*
X14873991Y-14293388D02*
X14864467Y-14312436D01*
X14864467Y-14312436D02*
X14854944Y-14321960D01*
X14854944Y-14321960D02*
X14835896Y-14331484D01*
X14835896Y-14331484D02*
X14816848Y-14331484D01*
X14816848Y-14331484D02*
X14797801Y-14321960D01*
X14797801Y-14321960D02*
X14788277Y-14312436D01*
X14788277Y-14312436D02*
X14778753Y-14293388D01*
X14778753Y-14293388D02*
X14769229Y-14255293D01*
X14769229Y-14255293D02*
X14769229Y-14207674D01*
X14769229Y-14207674D02*
X14778753Y-14169579D01*
X14778753Y-14169579D02*
X14788277Y-14150531D01*
X14788277Y-14150531D02*
X14797801Y-14141008D01*
X14797801Y-14141008D02*
X14816848Y-14131484D01*
X15073991Y-14331484D02*
X14959706Y-14331484D01*
X15016848Y-14331484D02*
X15016848Y-14131484D01*
X15016848Y-14131484D02*
X14997801Y-14160055D01*
X14997801Y-14160055D02*
X14978753Y-14179103D01*
X14978753Y-14179103D02*
X14959706Y-14188627D01*
X15254944Y-14131484D02*
X15159706Y-14131484D01*
X15159706Y-14131484D02*
X15150182Y-14226722D01*
X15150182Y-14226722D02*
X15159706Y-14217198D01*
X15159706Y-14217198D02*
X15178753Y-14207674D01*
X15178753Y-14207674D02*
X15226372Y-14207674D01*
X15226372Y-14207674D02*
X15245420Y-14217198D01*
X15245420Y-14217198D02*
X15254944Y-14226722D01*
X15254944Y-14226722D02*
X15264467Y-14245769D01*
X15264467Y-14245769D02*
X15264467Y-14293388D01*
X15264467Y-14293388D02*
X15254944Y-14312436D01*
X15254944Y-14312436D02*
X15245420Y-14321960D01*
X15245420Y-14321960D02*
X15226372Y-14331484D01*
X15226372Y-14331484D02*
X15178753Y-14331484D01*
X15178753Y-14331484D02*
X15159706Y-14321960D01*
X15159706Y-14321960D02*
X15150182Y-14312436D01*
X15331134Y-14131484D02*
X15464467Y-14131484D01*
X15464467Y-14131484D02*
X15378753Y-14331484D01*
X15531134Y-14131484D02*
X15531134Y-14169579D01*
X15607325Y-14131484D02*
X15607325Y-14169579D01*
X15902563Y-14407674D02*
X15893039Y-14398150D01*
X15893039Y-14398150D02*
X15873991Y-14369579D01*
X15873991Y-14369579D02*
X15864468Y-14350531D01*
X15864468Y-14350531D02*
X15854944Y-14321960D01*
X15854944Y-14321960D02*
X15845420Y-14274341D01*
X15845420Y-14274341D02*
X15845420Y-14236246D01*
X15845420Y-14236246D02*
X15854944Y-14188627D01*
X15854944Y-14188627D02*
X15864468Y-14160055D01*
X15864468Y-14160055D02*
X15873991Y-14141008D01*
X15873991Y-14141008D02*
X15893039Y-14112436D01*
X15893039Y-14112436D02*
X15902563Y-14102912D01*
X16083515Y-14331484D02*
X15969229Y-14331484D01*
X16026372Y-14331484D02*
X16026372Y-14131484D01*
X16026372Y-14131484D02*
X16007325Y-14160055D01*
X16007325Y-14160055D02*
X15988277Y-14179103D01*
X15988277Y-14179103D02*
X15969229Y-14188627D01*
X16254944Y-14198150D02*
X16254944Y-14331484D01*
X16207325Y-14121960D02*
X16159706Y-14264817D01*
X16159706Y-14264817D02*
X16283515Y-14264817D01*
X16512087Y-14331484D02*
X16512087Y-14131484D01*
X16597801Y-14331484D02*
X16597801Y-14226722D01*
X16597801Y-14226722D02*
X16588277Y-14207674D01*
X16588277Y-14207674D02*
X16569230Y-14198150D01*
X16569230Y-14198150D02*
X16540658Y-14198150D01*
X16540658Y-14198150D02*
X16521610Y-14207674D01*
X16521610Y-14207674D02*
X16512087Y-14217198D01*
X16721610Y-14331484D02*
X16702563Y-14321960D01*
X16702563Y-14321960D02*
X16693039Y-14312436D01*
X16693039Y-14312436D02*
X16683515Y-14293388D01*
X16683515Y-14293388D02*
X16683515Y-14236246D01*
X16683515Y-14236246D02*
X16693039Y-14217198D01*
X16693039Y-14217198D02*
X16702563Y-14207674D01*
X16702563Y-14207674D02*
X16721610Y-14198150D01*
X16721610Y-14198150D02*
X16750182Y-14198150D01*
X16750182Y-14198150D02*
X16769230Y-14207674D01*
X16769230Y-14207674D02*
X16778753Y-14217198D01*
X16778753Y-14217198D02*
X16788277Y-14236246D01*
X16788277Y-14236246D02*
X16788277Y-14293388D01*
X16788277Y-14293388D02*
X16778753Y-14312436D01*
X16778753Y-14312436D02*
X16769230Y-14321960D01*
X16769230Y-14321960D02*
X16750182Y-14331484D01*
X16750182Y-14331484D02*
X16721610Y-14331484D01*
X16902563Y-14331484D02*
X16883515Y-14321960D01*
X16883515Y-14321960D02*
X16873992Y-14302912D01*
X16873992Y-14302912D02*
X16873992Y-14131484D01*
X17054944Y-14321960D02*
X17035896Y-14331484D01*
X17035896Y-14331484D02*
X16997801Y-14331484D01*
X16997801Y-14331484D02*
X16978753Y-14321960D01*
X16978753Y-14321960D02*
X16969230Y-14302912D01*
X16969230Y-14302912D02*
X16969230Y-14226722D01*
X16969230Y-14226722D02*
X16978753Y-14207674D01*
X16978753Y-14207674D02*
X16997801Y-14198150D01*
X16997801Y-14198150D02*
X17035896Y-14198150D01*
X17035896Y-14198150D02*
X17054944Y-14207674D01*
X17054944Y-14207674D02*
X17064468Y-14226722D01*
X17064468Y-14226722D02*
X17064468Y-14245769D01*
X17064468Y-14245769D02*
X16969230Y-14264817D01*
X17140658Y-14321960D02*
X17159706Y-14331484D01*
X17159706Y-14331484D02*
X17197801Y-14331484D01*
X17197801Y-14331484D02*
X17216849Y-14321960D01*
X17216849Y-14321960D02*
X17226373Y-14302912D01*
X17226373Y-14302912D02*
X17226373Y-14293388D01*
X17226373Y-14293388D02*
X17216849Y-14274341D01*
X17216849Y-14274341D02*
X17197801Y-14264817D01*
X17197801Y-14264817D02*
X17169230Y-14264817D01*
X17169230Y-14264817D02*
X17150182Y-14255293D01*
X17150182Y-14255293D02*
X17140658Y-14236246D01*
X17140658Y-14236246D02*
X17140658Y-14226722D01*
X17140658Y-14226722D02*
X17150182Y-14207674D01*
X17150182Y-14207674D02*
X17169230Y-14198150D01*
X17169230Y-14198150D02*
X17197801Y-14198150D01*
X17197801Y-14198150D02*
X17216849Y-14207674D01*
X17293039Y-14407674D02*
X17302563Y-14398150D01*
X17302563Y-14398150D02*
X17321611Y-14369579D01*
X17321611Y-14369579D02*
X17331134Y-14350531D01*
X17331134Y-14350531D02*
X17340658Y-14321960D01*
X17340658Y-14321960D02*
X17350182Y-14274341D01*
X17350182Y-14274341D02*
X17350182Y-14236246D01*
X17350182Y-14236246D02*
X17340658Y-14188627D01*
X17340658Y-14188627D02*
X17331134Y-14160055D01*
X17331134Y-14160055D02*
X17321611Y-14141008D01*
X17321611Y-14141008D02*
X17302563Y-14112436D01*
X17302563Y-14112436D02*
X17293039Y-14102912D01*
D13*
X12327500Y-14504000D02*
G75*
G02*
X12225500Y-14504000I-51000J0D01*
G01*
X12225500Y-14504000D02*
G75*
G02*
X12327500Y-14504000I51000J0D01*
G01*
D11*
X12693039Y-14595484D02*
X12578753Y-14595484D01*
X12635896Y-14595484D02*
X12635896Y-14395484D01*
X12635896Y-14395484D02*
X12616848Y-14424055D01*
X12616848Y-14424055D02*
X12597801Y-14443103D01*
X12597801Y-14443103D02*
X12578753Y-14452627D01*
X12778753Y-14576436D02*
X12788277Y-14585960D01*
X12788277Y-14585960D02*
X12778753Y-14595484D01*
X12778753Y-14595484D02*
X12769229Y-14585960D01*
X12769229Y-14585960D02*
X12778753Y-14576436D01*
X12778753Y-14576436D02*
X12778753Y-14595484D01*
X12912086Y-14395484D02*
X12931134Y-14395484D01*
X12931134Y-14395484D02*
X12950182Y-14405008D01*
X12950182Y-14405008D02*
X12959705Y-14414531D01*
X12959705Y-14414531D02*
X12969229Y-14433579D01*
X12969229Y-14433579D02*
X12978753Y-14471674D01*
X12978753Y-14471674D02*
X12978753Y-14519293D01*
X12978753Y-14519293D02*
X12969229Y-14557388D01*
X12969229Y-14557388D02*
X12959705Y-14576436D01*
X12959705Y-14576436D02*
X12950182Y-14585960D01*
X12950182Y-14585960D02*
X12931134Y-14595484D01*
X12931134Y-14595484D02*
X12912086Y-14595484D01*
X12912086Y-14595484D02*
X12893039Y-14585960D01*
X12893039Y-14585960D02*
X12883515Y-14576436D01*
X12883515Y-14576436D02*
X12873991Y-14557388D01*
X12873991Y-14557388D02*
X12864467Y-14519293D01*
X12864467Y-14519293D02*
X12864467Y-14471674D01*
X12864467Y-14471674D02*
X12873991Y-14433579D01*
X12873991Y-14433579D02*
X12883515Y-14414531D01*
X12883515Y-14414531D02*
X12893039Y-14405008D01*
X12893039Y-14405008D02*
X12912086Y-14395484D01*
X13054943Y-14414531D02*
X13064467Y-14405008D01*
X13064467Y-14405008D02*
X13083515Y-14395484D01*
X13083515Y-14395484D02*
X13131134Y-14395484D01*
X13131134Y-14395484D02*
X13150182Y-14405008D01*
X13150182Y-14405008D02*
X13159705Y-14414531D01*
X13159705Y-14414531D02*
X13169229Y-14433579D01*
X13169229Y-14433579D02*
X13169229Y-14452627D01*
X13169229Y-14452627D02*
X13159705Y-14481198D01*
X13159705Y-14481198D02*
X13045420Y-14595484D01*
X13045420Y-14595484D02*
X13169229Y-14595484D01*
X13293039Y-14395484D02*
X13312086Y-14395484D01*
X13312086Y-14395484D02*
X13331134Y-14405008D01*
X13331134Y-14405008D02*
X13340658Y-14414531D01*
X13340658Y-14414531D02*
X13350182Y-14433579D01*
X13350182Y-14433579D02*
X13359705Y-14471674D01*
X13359705Y-14471674D02*
X13359705Y-14519293D01*
X13359705Y-14519293D02*
X13350182Y-14557388D01*
X13350182Y-14557388D02*
X13340658Y-14576436D01*
X13340658Y-14576436D02*
X13331134Y-14585960D01*
X13331134Y-14585960D02*
X13312086Y-14595484D01*
X13312086Y-14595484D02*
X13293039Y-14595484D01*
X13293039Y-14595484D02*
X13273991Y-14585960D01*
X13273991Y-14585960D02*
X13264467Y-14576436D01*
X13264467Y-14576436D02*
X13254943Y-14557388D01*
X13254943Y-14557388D02*
X13245420Y-14519293D01*
X13245420Y-14519293D02*
X13245420Y-14471674D01*
X13245420Y-14471674D02*
X13254943Y-14433579D01*
X13254943Y-14433579D02*
X13264467Y-14414531D01*
X13264467Y-14414531D02*
X13273991Y-14405008D01*
X13273991Y-14405008D02*
X13293039Y-14395484D01*
X13445420Y-14595484D02*
X13445420Y-14462150D01*
X13445420Y-14481198D02*
X13454943Y-14471674D01*
X13454943Y-14471674D02*
X13473991Y-14462150D01*
X13473991Y-14462150D02*
X13502563Y-14462150D01*
X13502563Y-14462150D02*
X13521610Y-14471674D01*
X13521610Y-14471674D02*
X13531134Y-14490722D01*
X13531134Y-14490722D02*
X13531134Y-14595484D01*
X13531134Y-14490722D02*
X13540658Y-14471674D01*
X13540658Y-14471674D02*
X13559705Y-14462150D01*
X13559705Y-14462150D02*
X13588277Y-14462150D01*
X13588277Y-14462150D02*
X13607324Y-14471674D01*
X13607324Y-14471674D02*
X13616848Y-14490722D01*
X13616848Y-14490722D02*
X13616848Y-14595484D01*
X13712086Y-14595484D02*
X13712086Y-14462150D01*
X13712086Y-14481198D02*
X13721610Y-14471674D01*
X13721610Y-14471674D02*
X13740658Y-14462150D01*
X13740658Y-14462150D02*
X13769229Y-14462150D01*
X13769229Y-14462150D02*
X13788277Y-14471674D01*
X13788277Y-14471674D02*
X13797801Y-14490722D01*
X13797801Y-14490722D02*
X13797801Y-14595484D01*
X13797801Y-14490722D02*
X13807324Y-14471674D01*
X13807324Y-14471674D02*
X13826372Y-14462150D01*
X13826372Y-14462150D02*
X13854943Y-14462150D01*
X13854943Y-14462150D02*
X13873991Y-14471674D01*
X13873991Y-14471674D02*
X13883515Y-14490722D01*
X13883515Y-14490722D02*
X13883515Y-14595484D01*
X14273991Y-14385960D02*
X14102563Y-14643103D01*
X14531134Y-14395484D02*
X14550182Y-14395484D01*
X14550182Y-14395484D02*
X14569229Y-14405008D01*
X14569229Y-14405008D02*
X14578753Y-14414531D01*
X14578753Y-14414531D02*
X14588277Y-14433579D01*
X14588277Y-14433579D02*
X14597801Y-14471674D01*
X14597801Y-14471674D02*
X14597801Y-14519293D01*
X14597801Y-14519293D02*
X14588277Y-14557388D01*
X14588277Y-14557388D02*
X14578753Y-14576436D01*
X14578753Y-14576436D02*
X14569229Y-14585960D01*
X14569229Y-14585960D02*
X14550182Y-14595484D01*
X14550182Y-14595484D02*
X14531134Y-14595484D01*
X14531134Y-14595484D02*
X14512086Y-14585960D01*
X14512086Y-14585960D02*
X14502563Y-14576436D01*
X14502563Y-14576436D02*
X14493039Y-14557388D01*
X14493039Y-14557388D02*
X14483515Y-14519293D01*
X14483515Y-14519293D02*
X14483515Y-14471674D01*
X14483515Y-14471674D02*
X14493039Y-14433579D01*
X14493039Y-14433579D02*
X14502563Y-14414531D01*
X14502563Y-14414531D02*
X14512086Y-14405008D01*
X14512086Y-14405008D02*
X14531134Y-14395484D01*
X14683515Y-14576436D02*
X14693039Y-14585960D01*
X14693039Y-14585960D02*
X14683515Y-14595484D01*
X14683515Y-14595484D02*
X14673991Y-14585960D01*
X14673991Y-14585960D02*
X14683515Y-14576436D01*
X14683515Y-14576436D02*
X14683515Y-14595484D01*
X14816848Y-14395484D02*
X14835896Y-14395484D01*
X14835896Y-14395484D02*
X14854944Y-14405008D01*
X14854944Y-14405008D02*
X14864467Y-14414531D01*
X14864467Y-14414531D02*
X14873991Y-14433579D01*
X14873991Y-14433579D02*
X14883515Y-14471674D01*
X14883515Y-14471674D02*
X14883515Y-14519293D01*
X14883515Y-14519293D02*
X14873991Y-14557388D01*
X14873991Y-14557388D02*
X14864467Y-14576436D01*
X14864467Y-14576436D02*
X14854944Y-14585960D01*
X14854944Y-14585960D02*
X14835896Y-14595484D01*
X14835896Y-14595484D02*
X14816848Y-14595484D01*
X14816848Y-14595484D02*
X14797801Y-14585960D01*
X14797801Y-14585960D02*
X14788277Y-14576436D01*
X14788277Y-14576436D02*
X14778753Y-14557388D01*
X14778753Y-14557388D02*
X14769229Y-14519293D01*
X14769229Y-14519293D02*
X14769229Y-14471674D01*
X14769229Y-14471674D02*
X14778753Y-14433579D01*
X14778753Y-14433579D02*
X14788277Y-14414531D01*
X14788277Y-14414531D02*
X14797801Y-14405008D01*
X14797801Y-14405008D02*
X14816848Y-14395484D01*
X15054944Y-14462150D02*
X15054944Y-14595484D01*
X15007325Y-14385960D02*
X14959706Y-14528817D01*
X14959706Y-14528817D02*
X15083515Y-14528817D01*
X15197801Y-14395484D02*
X15216848Y-14395484D01*
X15216848Y-14395484D02*
X15235896Y-14405008D01*
X15235896Y-14405008D02*
X15245420Y-14414531D01*
X15245420Y-14414531D02*
X15254944Y-14433579D01*
X15254944Y-14433579D02*
X15264467Y-14471674D01*
X15264467Y-14471674D02*
X15264467Y-14519293D01*
X15264467Y-14519293D02*
X15254944Y-14557388D01*
X15254944Y-14557388D02*
X15245420Y-14576436D01*
X15245420Y-14576436D02*
X15235896Y-14585960D01*
X15235896Y-14585960D02*
X15216848Y-14595484D01*
X15216848Y-14595484D02*
X15197801Y-14595484D01*
X15197801Y-14595484D02*
X15178753Y-14585960D01*
X15178753Y-14585960D02*
X15169229Y-14576436D01*
X15169229Y-14576436D02*
X15159706Y-14557388D01*
X15159706Y-14557388D02*
X15150182Y-14519293D01*
X15150182Y-14519293D02*
X15150182Y-14471674D01*
X15150182Y-14471674D02*
X15159706Y-14433579D01*
X15159706Y-14433579D02*
X15169229Y-14414531D01*
X15169229Y-14414531D02*
X15178753Y-14405008D01*
X15178753Y-14405008D02*
X15197801Y-14395484D01*
X15340658Y-14414531D02*
X15350182Y-14405008D01*
X15350182Y-14405008D02*
X15369229Y-14395484D01*
X15369229Y-14395484D02*
X15416848Y-14395484D01*
X15416848Y-14395484D02*
X15435896Y-14405008D01*
X15435896Y-14405008D02*
X15445420Y-14414531D01*
X15445420Y-14414531D02*
X15454944Y-14433579D01*
X15454944Y-14433579D02*
X15454944Y-14452627D01*
X15454944Y-14452627D02*
X15445420Y-14481198D01*
X15445420Y-14481198D02*
X15331134Y-14595484D01*
X15331134Y-14595484D02*
X15454944Y-14595484D01*
X15531134Y-14395484D02*
X15531134Y-14433579D01*
X15607325Y-14395484D02*
X15607325Y-14433579D01*
X15902563Y-14671674D02*
X15893039Y-14662150D01*
X15893039Y-14662150D02*
X15873991Y-14633579D01*
X15873991Y-14633579D02*
X15864468Y-14614531D01*
X15864468Y-14614531D02*
X15854944Y-14585960D01*
X15854944Y-14585960D02*
X15845420Y-14538341D01*
X15845420Y-14538341D02*
X15845420Y-14500246D01*
X15845420Y-14500246D02*
X15854944Y-14452627D01*
X15854944Y-14452627D02*
X15864468Y-14424055D01*
X15864468Y-14424055D02*
X15873991Y-14405008D01*
X15873991Y-14405008D02*
X15893039Y-14376436D01*
X15893039Y-14376436D02*
X15902563Y-14366912D01*
X15969229Y-14414531D02*
X15978753Y-14405008D01*
X15978753Y-14405008D02*
X15997801Y-14395484D01*
X15997801Y-14395484D02*
X16045420Y-14395484D01*
X16045420Y-14395484D02*
X16064468Y-14405008D01*
X16064468Y-14405008D02*
X16073991Y-14414531D01*
X16073991Y-14414531D02*
X16083515Y-14433579D01*
X16083515Y-14433579D02*
X16083515Y-14452627D01*
X16083515Y-14452627D02*
X16073991Y-14481198D01*
X16073991Y-14481198D02*
X15959706Y-14595484D01*
X15959706Y-14595484D02*
X16083515Y-14595484D01*
X16159706Y-14414531D02*
X16169229Y-14405008D01*
X16169229Y-14405008D02*
X16188277Y-14395484D01*
X16188277Y-14395484D02*
X16235896Y-14395484D01*
X16235896Y-14395484D02*
X16254944Y-14405008D01*
X16254944Y-14405008D02*
X16264468Y-14414531D01*
X16264468Y-14414531D02*
X16273991Y-14433579D01*
X16273991Y-14433579D02*
X16273991Y-14452627D01*
X16273991Y-14452627D02*
X16264468Y-14481198D01*
X16264468Y-14481198D02*
X16150182Y-14595484D01*
X16150182Y-14595484D02*
X16273991Y-14595484D01*
X16512087Y-14595484D02*
X16512087Y-14395484D01*
X16597801Y-14595484D02*
X16597801Y-14490722D01*
X16597801Y-14490722D02*
X16588277Y-14471674D01*
X16588277Y-14471674D02*
X16569230Y-14462150D01*
X16569230Y-14462150D02*
X16540658Y-14462150D01*
X16540658Y-14462150D02*
X16521610Y-14471674D01*
X16521610Y-14471674D02*
X16512087Y-14481198D01*
X16721610Y-14595484D02*
X16702563Y-14585960D01*
X16702563Y-14585960D02*
X16693039Y-14576436D01*
X16693039Y-14576436D02*
X16683515Y-14557388D01*
X16683515Y-14557388D02*
X16683515Y-14500246D01*
X16683515Y-14500246D02*
X16693039Y-14481198D01*
X16693039Y-14481198D02*
X16702563Y-14471674D01*
X16702563Y-14471674D02*
X16721610Y-14462150D01*
X16721610Y-14462150D02*
X16750182Y-14462150D01*
X16750182Y-14462150D02*
X16769230Y-14471674D01*
X16769230Y-14471674D02*
X16778753Y-14481198D01*
X16778753Y-14481198D02*
X16788277Y-14500246D01*
X16788277Y-14500246D02*
X16788277Y-14557388D01*
X16788277Y-14557388D02*
X16778753Y-14576436D01*
X16778753Y-14576436D02*
X16769230Y-14585960D01*
X16769230Y-14585960D02*
X16750182Y-14595484D01*
X16750182Y-14595484D02*
X16721610Y-14595484D01*
X16902563Y-14595484D02*
X16883515Y-14585960D01*
X16883515Y-14585960D02*
X16873992Y-14566912D01*
X16873992Y-14566912D02*
X16873992Y-14395484D01*
X17054944Y-14585960D02*
X17035896Y-14595484D01*
X17035896Y-14595484D02*
X16997801Y-14595484D01*
X16997801Y-14595484D02*
X16978753Y-14585960D01*
X16978753Y-14585960D02*
X16969230Y-14566912D01*
X16969230Y-14566912D02*
X16969230Y-14490722D01*
X16969230Y-14490722D02*
X16978753Y-14471674D01*
X16978753Y-14471674D02*
X16997801Y-14462150D01*
X16997801Y-14462150D02*
X17035896Y-14462150D01*
X17035896Y-14462150D02*
X17054944Y-14471674D01*
X17054944Y-14471674D02*
X17064468Y-14490722D01*
X17064468Y-14490722D02*
X17064468Y-14509769D01*
X17064468Y-14509769D02*
X16969230Y-14528817D01*
X17140658Y-14585960D02*
X17159706Y-14595484D01*
X17159706Y-14595484D02*
X17197801Y-14595484D01*
X17197801Y-14595484D02*
X17216849Y-14585960D01*
X17216849Y-14585960D02*
X17226373Y-14566912D01*
X17226373Y-14566912D02*
X17226373Y-14557388D01*
X17226373Y-14557388D02*
X17216849Y-14538341D01*
X17216849Y-14538341D02*
X17197801Y-14528817D01*
X17197801Y-14528817D02*
X17169230Y-14528817D01*
X17169230Y-14528817D02*
X17150182Y-14519293D01*
X17150182Y-14519293D02*
X17140658Y-14500246D01*
X17140658Y-14500246D02*
X17140658Y-14490722D01*
X17140658Y-14490722D02*
X17150182Y-14471674D01*
X17150182Y-14471674D02*
X17169230Y-14462150D01*
X17169230Y-14462150D02*
X17197801Y-14462150D01*
X17197801Y-14462150D02*
X17216849Y-14471674D01*
X17293039Y-14671674D02*
X17302563Y-14662150D01*
X17302563Y-14662150D02*
X17321611Y-14633579D01*
X17321611Y-14633579D02*
X17331134Y-14614531D01*
X17331134Y-14614531D02*
X17340658Y-14585960D01*
X17340658Y-14585960D02*
X17350182Y-14538341D01*
X17350182Y-14538341D02*
X17350182Y-14500246D01*
X17350182Y-14500246D02*
X17340658Y-14452627D01*
X17340658Y-14452627D02*
X17331134Y-14424055D01*
X17331134Y-14424055D02*
X17321611Y-14405008D01*
X17321611Y-14405008D02*
X17302563Y-14376436D01*
X17302563Y-14376436D02*
X17293039Y-14366912D01*
D14*
X12247500Y-14688000D02*
X12247500Y-14848000D01*
X12167500Y-14768000D02*
X12327500Y-14768000D01*
D11*
X12693039Y-14859484D02*
X12578753Y-14859484D01*
X12635896Y-14859484D02*
X12635896Y-14659484D01*
X12635896Y-14659484D02*
X12616848Y-14688055D01*
X12616848Y-14688055D02*
X12597801Y-14707103D01*
X12597801Y-14707103D02*
X12578753Y-14716627D01*
X12778753Y-14840436D02*
X12788277Y-14849960D01*
X12788277Y-14849960D02*
X12778753Y-14859484D01*
X12778753Y-14859484D02*
X12769229Y-14849960D01*
X12769229Y-14849960D02*
X12778753Y-14840436D01*
X12778753Y-14840436D02*
X12778753Y-14859484D01*
X12959705Y-14659484D02*
X12921610Y-14659484D01*
X12921610Y-14659484D02*
X12902562Y-14669008D01*
X12902562Y-14669008D02*
X12893039Y-14678531D01*
X12893039Y-14678531D02*
X12873991Y-14707103D01*
X12873991Y-14707103D02*
X12864467Y-14745198D01*
X12864467Y-14745198D02*
X12864467Y-14821388D01*
X12864467Y-14821388D02*
X12873991Y-14840436D01*
X12873991Y-14840436D02*
X12883515Y-14849960D01*
X12883515Y-14849960D02*
X12902562Y-14859484D01*
X12902562Y-14859484D02*
X12940658Y-14859484D01*
X12940658Y-14859484D02*
X12959705Y-14849960D01*
X12959705Y-14849960D02*
X12969229Y-14840436D01*
X12969229Y-14840436D02*
X12978753Y-14821388D01*
X12978753Y-14821388D02*
X12978753Y-14773769D01*
X12978753Y-14773769D02*
X12969229Y-14754722D01*
X12969229Y-14754722D02*
X12959705Y-14745198D01*
X12959705Y-14745198D02*
X12940658Y-14735674D01*
X12940658Y-14735674D02*
X12902562Y-14735674D01*
X12902562Y-14735674D02*
X12883515Y-14745198D01*
X12883515Y-14745198D02*
X12873991Y-14754722D01*
X12873991Y-14754722D02*
X12864467Y-14773769D01*
X13102562Y-14659484D02*
X13121610Y-14659484D01*
X13121610Y-14659484D02*
X13140658Y-14669008D01*
X13140658Y-14669008D02*
X13150182Y-14678531D01*
X13150182Y-14678531D02*
X13159705Y-14697579D01*
X13159705Y-14697579D02*
X13169229Y-14735674D01*
X13169229Y-14735674D02*
X13169229Y-14783293D01*
X13169229Y-14783293D02*
X13159705Y-14821388D01*
X13159705Y-14821388D02*
X13150182Y-14840436D01*
X13150182Y-14840436D02*
X13140658Y-14849960D01*
X13140658Y-14849960D02*
X13121610Y-14859484D01*
X13121610Y-14859484D02*
X13102562Y-14859484D01*
X13102562Y-14859484D02*
X13083515Y-14849960D01*
X13083515Y-14849960D02*
X13073991Y-14840436D01*
X13073991Y-14840436D02*
X13064467Y-14821388D01*
X13064467Y-14821388D02*
X13054943Y-14783293D01*
X13054943Y-14783293D02*
X13054943Y-14735674D01*
X13054943Y-14735674D02*
X13064467Y-14697579D01*
X13064467Y-14697579D02*
X13073991Y-14678531D01*
X13073991Y-14678531D02*
X13083515Y-14669008D01*
X13083515Y-14669008D02*
X13102562Y-14659484D01*
X13293039Y-14659484D02*
X13312086Y-14659484D01*
X13312086Y-14659484D02*
X13331134Y-14669008D01*
X13331134Y-14669008D02*
X13340658Y-14678531D01*
X13340658Y-14678531D02*
X13350182Y-14697579D01*
X13350182Y-14697579D02*
X13359705Y-14735674D01*
X13359705Y-14735674D02*
X13359705Y-14783293D01*
X13359705Y-14783293D02*
X13350182Y-14821388D01*
X13350182Y-14821388D02*
X13340658Y-14840436D01*
X13340658Y-14840436D02*
X13331134Y-14849960D01*
X13331134Y-14849960D02*
X13312086Y-14859484D01*
X13312086Y-14859484D02*
X13293039Y-14859484D01*
X13293039Y-14859484D02*
X13273991Y-14849960D01*
X13273991Y-14849960D02*
X13264467Y-14840436D01*
X13264467Y-14840436D02*
X13254943Y-14821388D01*
X13254943Y-14821388D02*
X13245420Y-14783293D01*
X13245420Y-14783293D02*
X13245420Y-14735674D01*
X13245420Y-14735674D02*
X13254943Y-14697579D01*
X13254943Y-14697579D02*
X13264467Y-14678531D01*
X13264467Y-14678531D02*
X13273991Y-14669008D01*
X13273991Y-14669008D02*
X13293039Y-14659484D01*
X13445420Y-14859484D02*
X13445420Y-14726150D01*
X13445420Y-14745198D02*
X13454943Y-14735674D01*
X13454943Y-14735674D02*
X13473991Y-14726150D01*
X13473991Y-14726150D02*
X13502563Y-14726150D01*
X13502563Y-14726150D02*
X13521610Y-14735674D01*
X13521610Y-14735674D02*
X13531134Y-14754722D01*
X13531134Y-14754722D02*
X13531134Y-14859484D01*
X13531134Y-14754722D02*
X13540658Y-14735674D01*
X13540658Y-14735674D02*
X13559705Y-14726150D01*
X13559705Y-14726150D02*
X13588277Y-14726150D01*
X13588277Y-14726150D02*
X13607324Y-14735674D01*
X13607324Y-14735674D02*
X13616848Y-14754722D01*
X13616848Y-14754722D02*
X13616848Y-14859484D01*
X13712086Y-14859484D02*
X13712086Y-14726150D01*
X13712086Y-14745198D02*
X13721610Y-14735674D01*
X13721610Y-14735674D02*
X13740658Y-14726150D01*
X13740658Y-14726150D02*
X13769229Y-14726150D01*
X13769229Y-14726150D02*
X13788277Y-14735674D01*
X13788277Y-14735674D02*
X13797801Y-14754722D01*
X13797801Y-14754722D02*
X13797801Y-14859484D01*
X13797801Y-14754722D02*
X13807324Y-14735674D01*
X13807324Y-14735674D02*
X13826372Y-14726150D01*
X13826372Y-14726150D02*
X13854943Y-14726150D01*
X13854943Y-14726150D02*
X13873991Y-14735674D01*
X13873991Y-14735674D02*
X13883515Y-14754722D01*
X13883515Y-14754722D02*
X13883515Y-14859484D01*
X14273991Y-14649960D02*
X14102563Y-14907103D01*
X14531134Y-14659484D02*
X14550182Y-14659484D01*
X14550182Y-14659484D02*
X14569229Y-14669008D01*
X14569229Y-14669008D02*
X14578753Y-14678531D01*
X14578753Y-14678531D02*
X14588277Y-14697579D01*
X14588277Y-14697579D02*
X14597801Y-14735674D01*
X14597801Y-14735674D02*
X14597801Y-14783293D01*
X14597801Y-14783293D02*
X14588277Y-14821388D01*
X14588277Y-14821388D02*
X14578753Y-14840436D01*
X14578753Y-14840436D02*
X14569229Y-14849960D01*
X14569229Y-14849960D02*
X14550182Y-14859484D01*
X14550182Y-14859484D02*
X14531134Y-14859484D01*
X14531134Y-14859484D02*
X14512086Y-14849960D01*
X14512086Y-14849960D02*
X14502563Y-14840436D01*
X14502563Y-14840436D02*
X14493039Y-14821388D01*
X14493039Y-14821388D02*
X14483515Y-14783293D01*
X14483515Y-14783293D02*
X14483515Y-14735674D01*
X14483515Y-14735674D02*
X14493039Y-14697579D01*
X14493039Y-14697579D02*
X14502563Y-14678531D01*
X14502563Y-14678531D02*
X14512086Y-14669008D01*
X14512086Y-14669008D02*
X14531134Y-14659484D01*
X14683515Y-14840436D02*
X14693039Y-14849960D01*
X14693039Y-14849960D02*
X14683515Y-14859484D01*
X14683515Y-14859484D02*
X14673991Y-14849960D01*
X14673991Y-14849960D02*
X14683515Y-14840436D01*
X14683515Y-14840436D02*
X14683515Y-14859484D01*
X14816848Y-14659484D02*
X14835896Y-14659484D01*
X14835896Y-14659484D02*
X14854944Y-14669008D01*
X14854944Y-14669008D02*
X14864467Y-14678531D01*
X14864467Y-14678531D02*
X14873991Y-14697579D01*
X14873991Y-14697579D02*
X14883515Y-14735674D01*
X14883515Y-14735674D02*
X14883515Y-14783293D01*
X14883515Y-14783293D02*
X14873991Y-14821388D01*
X14873991Y-14821388D02*
X14864467Y-14840436D01*
X14864467Y-14840436D02*
X14854944Y-14849960D01*
X14854944Y-14849960D02*
X14835896Y-14859484D01*
X14835896Y-14859484D02*
X14816848Y-14859484D01*
X14816848Y-14859484D02*
X14797801Y-14849960D01*
X14797801Y-14849960D02*
X14788277Y-14840436D01*
X14788277Y-14840436D02*
X14778753Y-14821388D01*
X14778753Y-14821388D02*
X14769229Y-14783293D01*
X14769229Y-14783293D02*
X14769229Y-14735674D01*
X14769229Y-14735674D02*
X14778753Y-14697579D01*
X14778753Y-14697579D02*
X14788277Y-14678531D01*
X14788277Y-14678531D02*
X14797801Y-14669008D01*
X14797801Y-14669008D02*
X14816848Y-14659484D01*
X15054944Y-14659484D02*
X15016848Y-14659484D01*
X15016848Y-14659484D02*
X14997801Y-14669008D01*
X14997801Y-14669008D02*
X14988277Y-14678531D01*
X14988277Y-14678531D02*
X14969229Y-14707103D01*
X14969229Y-14707103D02*
X14959706Y-14745198D01*
X14959706Y-14745198D02*
X14959706Y-14821388D01*
X14959706Y-14821388D02*
X14969229Y-14840436D01*
X14969229Y-14840436D02*
X14978753Y-14849960D01*
X14978753Y-14849960D02*
X14997801Y-14859484D01*
X14997801Y-14859484D02*
X15035896Y-14859484D01*
X15035896Y-14859484D02*
X15054944Y-14849960D01*
X15054944Y-14849960D02*
X15064467Y-14840436D01*
X15064467Y-14840436D02*
X15073991Y-14821388D01*
X15073991Y-14821388D02*
X15073991Y-14773769D01*
X15073991Y-14773769D02*
X15064467Y-14754722D01*
X15064467Y-14754722D02*
X15054944Y-14745198D01*
X15054944Y-14745198D02*
X15035896Y-14735674D01*
X15035896Y-14735674D02*
X14997801Y-14735674D01*
X14997801Y-14735674D02*
X14978753Y-14745198D01*
X14978753Y-14745198D02*
X14969229Y-14754722D01*
X14969229Y-14754722D02*
X14959706Y-14773769D01*
X15140658Y-14659484D02*
X15264467Y-14659484D01*
X15264467Y-14659484D02*
X15197801Y-14735674D01*
X15197801Y-14735674D02*
X15226372Y-14735674D01*
X15226372Y-14735674D02*
X15245420Y-14745198D01*
X15245420Y-14745198D02*
X15254944Y-14754722D01*
X15254944Y-14754722D02*
X15264467Y-14773769D01*
X15264467Y-14773769D02*
X15264467Y-14821388D01*
X15264467Y-14821388D02*
X15254944Y-14840436D01*
X15254944Y-14840436D02*
X15245420Y-14849960D01*
X15245420Y-14849960D02*
X15226372Y-14859484D01*
X15226372Y-14859484D02*
X15169229Y-14859484D01*
X15169229Y-14859484D02*
X15150182Y-14849960D01*
X15150182Y-14849960D02*
X15140658Y-14840436D01*
X15388277Y-14659484D02*
X15407325Y-14659484D01*
X15407325Y-14659484D02*
X15426372Y-14669008D01*
X15426372Y-14669008D02*
X15435896Y-14678531D01*
X15435896Y-14678531D02*
X15445420Y-14697579D01*
X15445420Y-14697579D02*
X15454944Y-14735674D01*
X15454944Y-14735674D02*
X15454944Y-14783293D01*
X15454944Y-14783293D02*
X15445420Y-14821388D01*
X15445420Y-14821388D02*
X15435896Y-14840436D01*
X15435896Y-14840436D02*
X15426372Y-14849960D01*
X15426372Y-14849960D02*
X15407325Y-14859484D01*
X15407325Y-14859484D02*
X15388277Y-14859484D01*
X15388277Y-14859484D02*
X15369229Y-14849960D01*
X15369229Y-14849960D02*
X15359706Y-14840436D01*
X15359706Y-14840436D02*
X15350182Y-14821388D01*
X15350182Y-14821388D02*
X15340658Y-14783293D01*
X15340658Y-14783293D02*
X15340658Y-14735674D01*
X15340658Y-14735674D02*
X15350182Y-14697579D01*
X15350182Y-14697579D02*
X15359706Y-14678531D01*
X15359706Y-14678531D02*
X15369229Y-14669008D01*
X15369229Y-14669008D02*
X15388277Y-14659484D01*
X15531134Y-14659484D02*
X15531134Y-14697579D01*
X15607325Y-14659484D02*
X15607325Y-14697579D01*
X15902563Y-14935674D02*
X15893039Y-14926150D01*
X15893039Y-14926150D02*
X15873991Y-14897579D01*
X15873991Y-14897579D02*
X15864468Y-14878531D01*
X15864468Y-14878531D02*
X15854944Y-14849960D01*
X15854944Y-14849960D02*
X15845420Y-14802341D01*
X15845420Y-14802341D02*
X15845420Y-14764246D01*
X15845420Y-14764246D02*
X15854944Y-14716627D01*
X15854944Y-14716627D02*
X15864468Y-14688055D01*
X15864468Y-14688055D02*
X15873991Y-14669008D01*
X15873991Y-14669008D02*
X15893039Y-14640436D01*
X15893039Y-14640436D02*
X15902563Y-14630912D01*
X15969229Y-14678531D02*
X15978753Y-14669008D01*
X15978753Y-14669008D02*
X15997801Y-14659484D01*
X15997801Y-14659484D02*
X16045420Y-14659484D01*
X16045420Y-14659484D02*
X16064468Y-14669008D01*
X16064468Y-14669008D02*
X16073991Y-14678531D01*
X16073991Y-14678531D02*
X16083515Y-14697579D01*
X16083515Y-14697579D02*
X16083515Y-14716627D01*
X16083515Y-14716627D02*
X16073991Y-14745198D01*
X16073991Y-14745198D02*
X15959706Y-14859484D01*
X15959706Y-14859484D02*
X16083515Y-14859484D01*
X16321610Y-14859484D02*
X16321610Y-14659484D01*
X16407325Y-14859484D02*
X16407325Y-14754722D01*
X16407325Y-14754722D02*
X16397801Y-14735674D01*
X16397801Y-14735674D02*
X16378753Y-14726150D01*
X16378753Y-14726150D02*
X16350182Y-14726150D01*
X16350182Y-14726150D02*
X16331134Y-14735674D01*
X16331134Y-14735674D02*
X16321610Y-14745198D01*
X16531134Y-14859484D02*
X16512087Y-14849960D01*
X16512087Y-14849960D02*
X16502563Y-14840436D01*
X16502563Y-14840436D02*
X16493039Y-14821388D01*
X16493039Y-14821388D02*
X16493039Y-14764246D01*
X16493039Y-14764246D02*
X16502563Y-14745198D01*
X16502563Y-14745198D02*
X16512087Y-14735674D01*
X16512087Y-14735674D02*
X16531134Y-14726150D01*
X16531134Y-14726150D02*
X16559706Y-14726150D01*
X16559706Y-14726150D02*
X16578753Y-14735674D01*
X16578753Y-14735674D02*
X16588277Y-14745198D01*
X16588277Y-14745198D02*
X16597801Y-14764246D01*
X16597801Y-14764246D02*
X16597801Y-14821388D01*
X16597801Y-14821388D02*
X16588277Y-14840436D01*
X16588277Y-14840436D02*
X16578753Y-14849960D01*
X16578753Y-14849960D02*
X16559706Y-14859484D01*
X16559706Y-14859484D02*
X16531134Y-14859484D01*
X16712087Y-14859484D02*
X16693039Y-14849960D01*
X16693039Y-14849960D02*
X16683515Y-14830912D01*
X16683515Y-14830912D02*
X16683515Y-14659484D01*
X16864468Y-14849960D02*
X16845420Y-14859484D01*
X16845420Y-14859484D02*
X16807325Y-14859484D01*
X16807325Y-14859484D02*
X16788277Y-14849960D01*
X16788277Y-14849960D02*
X16778753Y-14830912D01*
X16778753Y-14830912D02*
X16778753Y-14754722D01*
X16778753Y-14754722D02*
X16788277Y-14735674D01*
X16788277Y-14735674D02*
X16807325Y-14726150D01*
X16807325Y-14726150D02*
X16845420Y-14726150D01*
X16845420Y-14726150D02*
X16864468Y-14735674D01*
X16864468Y-14735674D02*
X16873992Y-14754722D01*
X16873992Y-14754722D02*
X16873992Y-14773769D01*
X16873992Y-14773769D02*
X16778753Y-14792817D01*
X16950182Y-14849960D02*
X16969230Y-14859484D01*
X16969230Y-14859484D02*
X17007325Y-14859484D01*
X17007325Y-14859484D02*
X17026373Y-14849960D01*
X17026373Y-14849960D02*
X17035896Y-14830912D01*
X17035896Y-14830912D02*
X17035896Y-14821388D01*
X17035896Y-14821388D02*
X17026373Y-14802341D01*
X17026373Y-14802341D02*
X17007325Y-14792817D01*
X17007325Y-14792817D02*
X16978753Y-14792817D01*
X16978753Y-14792817D02*
X16959706Y-14783293D01*
X16959706Y-14783293D02*
X16950182Y-14764246D01*
X16950182Y-14764246D02*
X16950182Y-14754722D01*
X16950182Y-14754722D02*
X16959706Y-14735674D01*
X16959706Y-14735674D02*
X16978753Y-14726150D01*
X16978753Y-14726150D02*
X17007325Y-14726150D01*
X17007325Y-14726150D02*
X17026373Y-14735674D01*
X17102563Y-14935674D02*
X17112087Y-14926150D01*
X17112087Y-14926150D02*
X17131134Y-14897579D01*
X17131134Y-14897579D02*
X17140658Y-14878531D01*
X17140658Y-14878531D02*
X17150182Y-14849960D01*
X17150182Y-14849960D02*
X17159706Y-14802341D01*
X17159706Y-14802341D02*
X17159706Y-14764246D01*
X17159706Y-14764246D02*
X17150182Y-14716627D01*
X17150182Y-14716627D02*
X17140658Y-14688055D01*
X17140658Y-14688055D02*
X17131134Y-14669008D01*
X17131134Y-14669008D02*
X17112087Y-14640436D01*
X17112087Y-14640436D02*
X17102563Y-14630912D01*
M02*
