M48
; DRILL file {KiCad 8.0.1} date 2024-11-19T16:07:38-0600
; FORMAT={-:-/ absolute / metric / decimal}
; #@! TF.CreationDate,2024-11-19T16:07:38-06:00
; #@! TF.GenerationSoftware,Kicad,Pcbnew,8.0.1
; #@! TF.FileFunction,Plated,1,2,PTH
FMAT,2
METRIC
; #@! TA.AperFunction,Plated,PTH,ViaDrill
T1C0.400
; #@! TA.AperFunction,Plated,PTH,ComponentDrill
T2C1.020
; #@! TA.AperFunction,Plated,PTH,ComponentDrill
T3C1.600
%
G90
G05
T1
X132.642Y-91.426
X137.468Y-105.879
X137.468Y-115.378
X137.62Y-96.404
X138.535Y-94.169
X139.55Y-118.65
X142.475Y-93.441
X145.375Y-114.95
X145.388Y-96.025
X145.4Y-105.375
X145.7Y-107.45
X145.7Y-117.025
X145.8Y-98.05
X159.82Y-91.299
T2
X127.4Y-124.515
X127.41Y-106.85
X127.41Y-116.435
X127.51Y-97.385
X130.4Y-124.515
X130.41Y-106.85
X130.41Y-116.435
X130.51Y-97.385
X134.471Y-86.295
X135.1Y-131.4
X137.471Y-86.295
X138.1Y-131.4
X147.1Y-131.315
X150.1Y-131.315
X154.7Y-124.14
X154.8Y-98.44
X154.8Y-107.615
X154.8Y-116.64
X157.7Y-124.14
X157.8Y-98.44
X157.8Y-107.615
X157.8Y-116.64
T3
X147.755Y-85.533
X152.225Y-85.482
M30
