G04 #@! TF.GenerationSoftware,KiCad,Pcbnew,7.0.5*
G04 #@! TF.CreationDate,2023-11-04T12:06:23-05:00*
G04 #@! TF.ProjectId,ContactorDriver,436f6e74-6163-4746-9f72-447269766572,rev?*
G04 #@! TF.SameCoordinates,Original*
G04 #@! TF.FileFunction,Legend,Bot*
G04 #@! TF.FilePolarity,Positive*
%FSLAX46Y46*%
G04 Gerber Fmt 4.6, Leading zero omitted, Abs format (unit mm)*
G04 Created by KiCad (PCBNEW 7.0.5) date 2023-11-04 12:06:23*
%MOMM*%
%LPD*%
G01*
G04 APERTURE LIST*
G04 Aperture macros list*
%AMRoundRect*
0 Rectangle with rounded corners*
0 $1 Rounding radius*
0 $2 $3 $4 $5 $6 $7 $8 $9 X,Y pos of 4 corners*
0 Add a 4 corners polygon primitive as box body*
4,1,4,$2,$3,$4,$5,$6,$7,$8,$9,$2,$3,0*
0 Add four circle primitives for the rounded corners*
1,1,$1+$1,$2,$3*
1,1,$1+$1,$4,$5*
1,1,$1+$1,$6,$7*
1,1,$1+$1,$8,$9*
0 Add four rect primitives between the rounded corners*
20,1,$1+$1,$2,$3,$4,$5,0*
20,1,$1+$1,$4,$5,$6,$7,0*
20,1,$1+$1,$6,$7,$8,$9,0*
20,1,$1+$1,$8,$9,$2,$3,0*%
G04 Aperture macros list end*
%ADD10C,0.120000*%
%ADD11C,0.100000*%
%ADD12C,0.150000*%
%ADD13C,3.102000*%
%ADD14RoundRect,0.301001X-0.759999X0.499999X-0.759999X-0.499999X0.759999X-0.499999X0.759999X0.499999X0*%
%ADD15O,2.122000X1.602000*%
%ADD16C,4.602880*%
%ADD17C,3.302000*%
%ADD18C,2.902000*%
%ADD19O,1.902000X1.302000*%
%ADD20C,1.372000*%
%ADD21C,1.802000*%
%ADD22RoundRect,0.301001X0.759999X-0.499999X0.759999X0.499999X-0.759999X0.499999X-0.759999X-0.499999X0*%
G04 APERTURE END LIST*
D10*
X167000000Y-167250000D02*
X195000000Y-167250000D01*
X226500000Y-167250000D02*
X200000000Y-167250000D01*
X167000000Y-167000000D02*
X167000000Y-167500000D01*
D11*
X167500000Y-167500000D02*
X167000000Y-167250000D01*
X167500000Y-167000000D01*
X167500000Y-167500000D01*
G36*
X167500000Y-167500000D02*
G01*
X167000000Y-167250000D01*
X167500000Y-167000000D01*
X167500000Y-167500000D01*
G37*
X165000000Y-121500000D02*
X164500000Y-121500000D01*
X164750000Y-121000000D01*
X165000000Y-121500000D01*
G36*
X165000000Y-121500000D02*
G01*
X164500000Y-121500000D01*
X164750000Y-121000000D01*
X165000000Y-121500000D01*
G37*
X164750000Y-121000000D02*
X164500000Y-120500000D01*
X165000000Y-120500000D01*
X164750000Y-121000000D01*
G36*
X164750000Y-121000000D02*
G01*
X164500000Y-120500000D01*
X165000000Y-120500000D01*
X164750000Y-121000000D01*
G37*
D10*
X164500000Y-71000000D02*
X165000000Y-71000000D01*
X164750000Y-93500000D02*
X164750000Y-71500000D01*
X165000000Y-121000000D02*
X164500000Y-121000000D01*
X164750000Y-164500000D02*
X164750000Y-145500000D01*
D11*
X165000000Y-71500000D02*
X164500000Y-71500000D01*
X164750000Y-71000000D01*
X165000000Y-71500000D01*
G36*
X165000000Y-71500000D02*
G01*
X164500000Y-71500000D01*
X164750000Y-71000000D01*
X165000000Y-71500000D01*
G37*
D10*
X164750000Y-120500000D02*
X164750000Y-98500000D01*
D11*
X164750000Y-165000000D02*
X164500000Y-164500000D01*
X165000000Y-164500000D01*
X164750000Y-165000000D01*
G36*
X164750000Y-165000000D02*
G01*
X164500000Y-164500000D01*
X165000000Y-164500000D01*
X164750000Y-165000000D01*
G37*
D10*
X165000000Y-165000000D02*
X164500000Y-165000000D01*
D11*
X227000000Y-167250000D02*
X226500000Y-167500000D01*
X226500000Y-167000000D01*
X227000000Y-167250000D01*
G36*
X227000000Y-167250000D02*
G01*
X226500000Y-167500000D01*
X226500000Y-167000000D01*
X227000000Y-167250000D01*
G37*
D10*
X227000000Y-167500000D02*
X227000000Y-167000000D01*
X164750000Y-140500000D02*
X164750000Y-121500000D01*
D12*
X199119047Y-166454819D02*
X199309523Y-166454819D01*
X199309523Y-166454819D02*
X199404761Y-166502438D01*
X199404761Y-166502438D02*
X199452380Y-166550057D01*
X199452380Y-166550057D02*
X199547618Y-166692914D01*
X199547618Y-166692914D02*
X199595237Y-166883390D01*
X199595237Y-166883390D02*
X199595237Y-167264342D01*
X199595237Y-167264342D02*
X199547618Y-167359580D01*
X199547618Y-167359580D02*
X199499999Y-167407200D01*
X199499999Y-167407200D02*
X199404761Y-167454819D01*
X199404761Y-167454819D02*
X199214285Y-167454819D01*
X199214285Y-167454819D02*
X199119047Y-167407200D01*
X199119047Y-167407200D02*
X199071428Y-167359580D01*
X199071428Y-167359580D02*
X199023809Y-167264342D01*
X199023809Y-167264342D02*
X199023809Y-167026247D01*
X199023809Y-167026247D02*
X199071428Y-166931009D01*
X199071428Y-166931009D02*
X199119047Y-166883390D01*
X199119047Y-166883390D02*
X199214285Y-166835771D01*
X199214285Y-166835771D02*
X199404761Y-166835771D01*
X199404761Y-166835771D02*
X199499999Y-166883390D01*
X199499999Y-166883390D02*
X199547618Y-166931009D01*
X199547618Y-166931009D02*
X199595237Y-167026247D01*
X198404761Y-166454819D02*
X198309523Y-166454819D01*
X198309523Y-166454819D02*
X198214285Y-166502438D01*
X198214285Y-166502438D02*
X198166666Y-166550057D01*
X198166666Y-166550057D02*
X198119047Y-166645295D01*
X198119047Y-166645295D02*
X198071428Y-166835771D01*
X198071428Y-166835771D02*
X198071428Y-167073866D01*
X198071428Y-167073866D02*
X198119047Y-167264342D01*
X198119047Y-167264342D02*
X198166666Y-167359580D01*
X198166666Y-167359580D02*
X198214285Y-167407200D01*
X198214285Y-167407200D02*
X198309523Y-167454819D01*
X198309523Y-167454819D02*
X198404761Y-167454819D01*
X198404761Y-167454819D02*
X198499999Y-167407200D01*
X198499999Y-167407200D02*
X198547618Y-167359580D01*
X198547618Y-167359580D02*
X198595237Y-167264342D01*
X198595237Y-167264342D02*
X198642856Y-167073866D01*
X198642856Y-167073866D02*
X198642856Y-166835771D01*
X198642856Y-166835771D02*
X198595237Y-166645295D01*
X198595237Y-166645295D02*
X198547618Y-166550057D01*
X198547618Y-166550057D02*
X198499999Y-166502438D01*
X198499999Y-166502438D02*
X198404761Y-166454819D01*
X197642856Y-167454819D02*
X197642856Y-166788152D01*
X197642856Y-166883390D02*
X197595237Y-166835771D01*
X197595237Y-166835771D02*
X197499999Y-166788152D01*
X197499999Y-166788152D02*
X197357142Y-166788152D01*
X197357142Y-166788152D02*
X197261904Y-166835771D01*
X197261904Y-166835771D02*
X197214285Y-166931009D01*
X197214285Y-166931009D02*
X197214285Y-167454819D01*
X197214285Y-166931009D02*
X197166666Y-166835771D01*
X197166666Y-166835771D02*
X197071428Y-166788152D01*
X197071428Y-166788152D02*
X196928571Y-166788152D01*
X196928571Y-166788152D02*
X196833332Y-166835771D01*
X196833332Y-166835771D02*
X196785713Y-166931009D01*
X196785713Y-166931009D02*
X196785713Y-167454819D01*
X196309523Y-167454819D02*
X196309523Y-166788152D01*
X196309523Y-166883390D02*
X196261904Y-166835771D01*
X196261904Y-166835771D02*
X196166666Y-166788152D01*
X196166666Y-166788152D02*
X196023809Y-166788152D01*
X196023809Y-166788152D02*
X195928571Y-166835771D01*
X195928571Y-166835771D02*
X195880952Y-166931009D01*
X195880952Y-166931009D02*
X195880952Y-167454819D01*
X195880952Y-166931009D02*
X195833333Y-166835771D01*
X195833333Y-166835771D02*
X195738095Y-166788152D01*
X195738095Y-166788152D02*
X195595238Y-166788152D01*
X195595238Y-166788152D02*
X195499999Y-166835771D01*
X195499999Y-166835771D02*
X195452380Y-166931009D01*
X195452380Y-166931009D02*
X195452380Y-167454819D01*
X221500000Y-154654819D02*
X221500000Y-153654819D01*
X221500000Y-153654819D02*
X221261905Y-153654819D01*
X221261905Y-153654819D02*
X221119048Y-153702438D01*
X221119048Y-153702438D02*
X221023810Y-153797676D01*
X221023810Y-153797676D02*
X220976191Y-153892914D01*
X220976191Y-153892914D02*
X220928572Y-154083390D01*
X220928572Y-154083390D02*
X220928572Y-154226247D01*
X220928572Y-154226247D02*
X220976191Y-154416723D01*
X220976191Y-154416723D02*
X221023810Y-154511961D01*
X221023810Y-154511961D02*
X221119048Y-154607200D01*
X221119048Y-154607200D02*
X221261905Y-154654819D01*
X221261905Y-154654819D02*
X221500000Y-154654819D01*
X220500000Y-154654819D02*
X220500000Y-153988152D01*
X220500000Y-154178628D02*
X220452381Y-154083390D01*
X220452381Y-154083390D02*
X220404762Y-154035771D01*
X220404762Y-154035771D02*
X220309524Y-153988152D01*
X220309524Y-153988152D02*
X220214286Y-153988152D01*
X219880952Y-154559580D02*
X219833333Y-154607200D01*
X219833333Y-154607200D02*
X219880952Y-154654819D01*
X219880952Y-154654819D02*
X219928571Y-154607200D01*
X219928571Y-154607200D02*
X219880952Y-154559580D01*
X219880952Y-154559580D02*
X219880952Y-154654819D01*
X218119048Y-153702438D02*
X218214286Y-153654819D01*
X218214286Y-153654819D02*
X218357143Y-153654819D01*
X218357143Y-153654819D02*
X218500000Y-153702438D01*
X218500000Y-153702438D02*
X218595238Y-153797676D01*
X218595238Y-153797676D02*
X218642857Y-153892914D01*
X218642857Y-153892914D02*
X218690476Y-154083390D01*
X218690476Y-154083390D02*
X218690476Y-154226247D01*
X218690476Y-154226247D02*
X218642857Y-154416723D01*
X218642857Y-154416723D02*
X218595238Y-154511961D01*
X218595238Y-154511961D02*
X218500000Y-154607200D01*
X218500000Y-154607200D02*
X218357143Y-154654819D01*
X218357143Y-154654819D02*
X218261905Y-154654819D01*
X218261905Y-154654819D02*
X218119048Y-154607200D01*
X218119048Y-154607200D02*
X218071429Y-154559580D01*
X218071429Y-154559580D02*
X218071429Y-154226247D01*
X218071429Y-154226247D02*
X218261905Y-154226247D01*
X217214286Y-154654819D02*
X217214286Y-154131009D01*
X217214286Y-154131009D02*
X217261905Y-154035771D01*
X217261905Y-154035771D02*
X217357143Y-153988152D01*
X217357143Y-153988152D02*
X217547619Y-153988152D01*
X217547619Y-153988152D02*
X217642857Y-154035771D01*
X217214286Y-154607200D02*
X217309524Y-154654819D01*
X217309524Y-154654819D02*
X217547619Y-154654819D01*
X217547619Y-154654819D02*
X217642857Y-154607200D01*
X217642857Y-154607200D02*
X217690476Y-154511961D01*
X217690476Y-154511961D02*
X217690476Y-154416723D01*
X217690476Y-154416723D02*
X217642857Y-154321485D01*
X217642857Y-154321485D02*
X217547619Y-154273866D01*
X217547619Y-154273866D02*
X217309524Y-154273866D01*
X217309524Y-154273866D02*
X217214286Y-154226247D01*
X216738095Y-154654819D02*
X216738095Y-153988152D01*
X216738095Y-154178628D02*
X216690476Y-154083390D01*
X216690476Y-154083390D02*
X216642857Y-154035771D01*
X216642857Y-154035771D02*
X216547619Y-153988152D01*
X216547619Y-153988152D02*
X216452381Y-153988152D01*
X216214285Y-153988152D02*
X215976190Y-154654819D01*
X215738095Y-153988152D02*
X215976190Y-154654819D01*
X215976190Y-154654819D02*
X216071428Y-154892914D01*
X216071428Y-154892914D02*
X216119047Y-154940533D01*
X216119047Y-154940533D02*
X216214285Y-154988152D01*
X214595237Y-154654819D02*
X214595237Y-153654819D01*
X214595237Y-154131009D02*
X214023809Y-154131009D01*
X214023809Y-154654819D02*
X214023809Y-153654819D01*
X213119047Y-154654819D02*
X213119047Y-154131009D01*
X213119047Y-154131009D02*
X213166666Y-154035771D01*
X213166666Y-154035771D02*
X213261904Y-153988152D01*
X213261904Y-153988152D02*
X213452380Y-153988152D01*
X213452380Y-153988152D02*
X213547618Y-154035771D01*
X213119047Y-154607200D02*
X213214285Y-154654819D01*
X213214285Y-154654819D02*
X213452380Y-154654819D01*
X213452380Y-154654819D02*
X213547618Y-154607200D01*
X213547618Y-154607200D02*
X213595237Y-154511961D01*
X213595237Y-154511961D02*
X213595237Y-154416723D01*
X213595237Y-154416723D02*
X213547618Y-154321485D01*
X213547618Y-154321485D02*
X213452380Y-154273866D01*
X213452380Y-154273866D02*
X213214285Y-154273866D01*
X213214285Y-154273866D02*
X213119047Y-154226247D01*
X212499999Y-154654819D02*
X212595237Y-154607200D01*
X212595237Y-154607200D02*
X212642856Y-154511961D01*
X212642856Y-154511961D02*
X212642856Y-153654819D01*
X211976189Y-154654819D02*
X212071427Y-154607200D01*
X212071427Y-154607200D02*
X212119046Y-154511961D01*
X212119046Y-154511961D02*
X212119046Y-153654819D01*
X211452379Y-154654819D02*
X211547617Y-154607200D01*
X211547617Y-154607200D02*
X211595236Y-154559580D01*
X211595236Y-154559580D02*
X211642855Y-154464342D01*
X211642855Y-154464342D02*
X211642855Y-154178628D01*
X211642855Y-154178628D02*
X211595236Y-154083390D01*
X211595236Y-154083390D02*
X211547617Y-154035771D01*
X211547617Y-154035771D02*
X211452379Y-153988152D01*
X211452379Y-153988152D02*
X211309522Y-153988152D01*
X211309522Y-153988152D02*
X211214284Y-154035771D01*
X211214284Y-154035771D02*
X211166665Y-154083390D01*
X211166665Y-154083390D02*
X211119046Y-154178628D01*
X211119046Y-154178628D02*
X211119046Y-154464342D01*
X211119046Y-154464342D02*
X211166665Y-154559580D01*
X211166665Y-154559580D02*
X211214284Y-154607200D01*
X211214284Y-154607200D02*
X211309522Y-154654819D01*
X211309522Y-154654819D02*
X211452379Y-154654819D01*
X210261903Y-154607200D02*
X210357141Y-154654819D01*
X210357141Y-154654819D02*
X210547617Y-154654819D01*
X210547617Y-154654819D02*
X210642855Y-154607200D01*
X210642855Y-154607200D02*
X210690474Y-154559580D01*
X210690474Y-154559580D02*
X210738093Y-154464342D01*
X210738093Y-154464342D02*
X210738093Y-154178628D01*
X210738093Y-154178628D02*
X210690474Y-154083390D01*
X210690474Y-154083390D02*
X210642855Y-154035771D01*
X210642855Y-154035771D02*
X210547617Y-153988152D01*
X210547617Y-153988152D02*
X210357141Y-153988152D01*
X210357141Y-153988152D02*
X210261903Y-154035771D01*
X209833331Y-154654819D02*
X209833331Y-153654819D01*
X209738093Y-154273866D02*
X209452379Y-154654819D01*
X209452379Y-153988152D02*
X209833331Y-154369104D01*
X165211847Y-144619047D02*
X164545180Y-144619047D01*
X165592800Y-144857142D02*
X164878514Y-145095237D01*
X164878514Y-145095237D02*
X164878514Y-144476190D01*
X165211847Y-143666666D02*
X164545180Y-143666666D01*
X165592800Y-143904761D02*
X164878514Y-144142856D01*
X164878514Y-144142856D02*
X164878514Y-143523809D01*
X164545180Y-143142856D02*
X165211847Y-143142856D01*
X165116609Y-143142856D02*
X165164228Y-143095237D01*
X165164228Y-143095237D02*
X165211847Y-142999999D01*
X165211847Y-142999999D02*
X165211847Y-142857142D01*
X165211847Y-142857142D02*
X165164228Y-142761904D01*
X165164228Y-142761904D02*
X165068990Y-142714285D01*
X165068990Y-142714285D02*
X164545180Y-142714285D01*
X165068990Y-142714285D02*
X165164228Y-142666666D01*
X165164228Y-142666666D02*
X165211847Y-142571428D01*
X165211847Y-142571428D02*
X165211847Y-142428571D01*
X165211847Y-142428571D02*
X165164228Y-142333332D01*
X165164228Y-142333332D02*
X165068990Y-142285713D01*
X165068990Y-142285713D02*
X164545180Y-142285713D01*
X164545180Y-141809523D02*
X165211847Y-141809523D01*
X165116609Y-141809523D02*
X165164228Y-141761904D01*
X165164228Y-141761904D02*
X165211847Y-141666666D01*
X165211847Y-141666666D02*
X165211847Y-141523809D01*
X165211847Y-141523809D02*
X165164228Y-141428571D01*
X165164228Y-141428571D02*
X165068990Y-141380952D01*
X165068990Y-141380952D02*
X164545180Y-141380952D01*
X165068990Y-141380952D02*
X165164228Y-141333333D01*
X165164228Y-141333333D02*
X165211847Y-141238095D01*
X165211847Y-141238095D02*
X165211847Y-141095238D01*
X165211847Y-141095238D02*
X165164228Y-140999999D01*
X165164228Y-140999999D02*
X165068990Y-140952380D01*
X165068990Y-140952380D02*
X164545180Y-140952380D01*
X167809523Y-75204819D02*
X167809523Y-74204819D01*
X167809523Y-74204819D02*
X167476190Y-74919104D01*
X167476190Y-74919104D02*
X167142857Y-74204819D01*
X167142857Y-74204819D02*
X167142857Y-75204819D01*
X166761904Y-74204819D02*
X166142857Y-74204819D01*
X166142857Y-74204819D02*
X166476190Y-74585771D01*
X166476190Y-74585771D02*
X166333333Y-74585771D01*
X166333333Y-74585771D02*
X166238095Y-74633390D01*
X166238095Y-74633390D02*
X166190476Y-74681009D01*
X166190476Y-74681009D02*
X166142857Y-74776247D01*
X166142857Y-74776247D02*
X166142857Y-75014342D01*
X166142857Y-75014342D02*
X166190476Y-75109580D01*
X166190476Y-75109580D02*
X166238095Y-75157200D01*
X166238095Y-75157200D02*
X166333333Y-75204819D01*
X166333333Y-75204819D02*
X166619047Y-75204819D01*
X166619047Y-75204819D02*
X166714285Y-75157200D01*
X166714285Y-75157200D02*
X166761904Y-75109580D01*
X165545180Y-97571428D02*
X165545180Y-98047618D01*
X165545180Y-98047618D02*
X165068990Y-98095237D01*
X165068990Y-98095237D02*
X165116609Y-98047618D01*
X165116609Y-98047618D02*
X165164228Y-97952380D01*
X165164228Y-97952380D02*
X165164228Y-97714285D01*
X165164228Y-97714285D02*
X165116609Y-97619047D01*
X165116609Y-97619047D02*
X165068990Y-97571428D01*
X165068990Y-97571428D02*
X164973752Y-97523809D01*
X164973752Y-97523809D02*
X164735657Y-97523809D01*
X164735657Y-97523809D02*
X164640419Y-97571428D01*
X164640419Y-97571428D02*
X164592800Y-97619047D01*
X164592800Y-97619047D02*
X164545180Y-97714285D01*
X164545180Y-97714285D02*
X164545180Y-97952380D01*
X164545180Y-97952380D02*
X164592800Y-98047618D01*
X164592800Y-98047618D02*
X164640419Y-98095237D01*
X165545180Y-96904761D02*
X165545180Y-96809523D01*
X165545180Y-96809523D02*
X165497561Y-96714285D01*
X165497561Y-96714285D02*
X165449942Y-96666666D01*
X165449942Y-96666666D02*
X165354704Y-96619047D01*
X165354704Y-96619047D02*
X165164228Y-96571428D01*
X165164228Y-96571428D02*
X164926133Y-96571428D01*
X164926133Y-96571428D02*
X164735657Y-96619047D01*
X164735657Y-96619047D02*
X164640419Y-96666666D01*
X164640419Y-96666666D02*
X164592800Y-96714285D01*
X164592800Y-96714285D02*
X164545180Y-96809523D01*
X164545180Y-96809523D02*
X164545180Y-96904761D01*
X164545180Y-96904761D02*
X164592800Y-96999999D01*
X164592800Y-96999999D02*
X164640419Y-97047618D01*
X164640419Y-97047618D02*
X164735657Y-97095237D01*
X164735657Y-97095237D02*
X164926133Y-97142856D01*
X164926133Y-97142856D02*
X165164228Y-97142856D01*
X165164228Y-97142856D02*
X165354704Y-97095237D01*
X165354704Y-97095237D02*
X165449942Y-97047618D01*
X165449942Y-97047618D02*
X165497561Y-96999999D01*
X165497561Y-96999999D02*
X165545180Y-96904761D01*
X164545180Y-96142856D02*
X165211847Y-96142856D01*
X165116609Y-96142856D02*
X165164228Y-96095237D01*
X165164228Y-96095237D02*
X165211847Y-95999999D01*
X165211847Y-95999999D02*
X165211847Y-95857142D01*
X165211847Y-95857142D02*
X165164228Y-95761904D01*
X165164228Y-95761904D02*
X165068990Y-95714285D01*
X165068990Y-95714285D02*
X164545180Y-95714285D01*
X165068990Y-95714285D02*
X165164228Y-95666666D01*
X165164228Y-95666666D02*
X165211847Y-95571428D01*
X165211847Y-95571428D02*
X165211847Y-95428571D01*
X165211847Y-95428571D02*
X165164228Y-95333332D01*
X165164228Y-95333332D02*
X165068990Y-95285713D01*
X165068990Y-95285713D02*
X164545180Y-95285713D01*
X164545180Y-94809523D02*
X165211847Y-94809523D01*
X165116609Y-94809523D02*
X165164228Y-94761904D01*
X165164228Y-94761904D02*
X165211847Y-94666666D01*
X165211847Y-94666666D02*
X165211847Y-94523809D01*
X165211847Y-94523809D02*
X165164228Y-94428571D01*
X165164228Y-94428571D02*
X165068990Y-94380952D01*
X165068990Y-94380952D02*
X164545180Y-94380952D01*
X165068990Y-94380952D02*
X165164228Y-94333333D01*
X165164228Y-94333333D02*
X165211847Y-94238095D01*
X165211847Y-94238095D02*
X165211847Y-94095238D01*
X165211847Y-94095238D02*
X165164228Y-93999999D01*
X165164228Y-93999999D02*
X165068990Y-93952380D01*
X165068990Y-93952380D02*
X164545180Y-93952380D01*
%LPC*%
D13*
X227000000Y-165000000D03*
X227000000Y-71000000D03*
X225000000Y-84500000D03*
D14*
X220680000Y-83000000D03*
D15*
X220680000Y-86000000D03*
D16*
X226000000Y-158000000D03*
D13*
X167000000Y-165000000D03*
X225000000Y-104500000D03*
D14*
X220680000Y-103000000D03*
D15*
X220680000Y-106000000D03*
D13*
X167000000Y-71000000D03*
X167000000Y-121000000D03*
D17*
X217400000Y-158200000D03*
X196000000Y-118500000D03*
D16*
X177000000Y-120500000D03*
D18*
X192800000Y-76500000D03*
D19*
X193027300Y-108860000D03*
X193027300Y-106320000D03*
X193027300Y-103780000D03*
X193027300Y-101240000D03*
D20*
X168960000Y-76500000D03*
X168960000Y-91500000D03*
D21*
X167000000Y-79500000D03*
X167000000Y-82500000D03*
X167000000Y-85500000D03*
X167000000Y-88500000D03*
D18*
X215000000Y-99000000D03*
X215000000Y-110500000D03*
D13*
X169650000Y-143000000D03*
D22*
X173970000Y-144500000D03*
D15*
X173970000Y-141500000D03*
%LPD*%
M02*
