M48
; DRILL file {KiCad 7.0.5} date Sat Nov  4 12:06:28 2023
; FORMAT={-:-/ absolute / inch / decimal}
; #@! TF.CreationDate,2023-11-04T12:06:28-05:00
; #@! TF.GenerationSoftware,Kicad,Pcbnew,7.0.5
; #@! TF.FileFunction,Plated,1,2,PTH
FMAT,2
INCH
; #@! TA.AperFunction,Plated,PTH,ViaDrill
T1C0.0157
; #@! TA.AperFunction,Plated,PTH,ViaDrill
T2C0.0315
; #@! TA.AperFunction,Plated,PTH,ComponentDrill
T3C0.0335
; #@! TA.AperFunction,Plated,PTH,ComponentDrill
T4C0.0402
; #@! TA.AperFunction,Plated,PTH,ComponentDrill
T5C0.0630
; #@! TA.AperFunction,Plated,PTH,ComponentDrill
T6C0.0787
%
G90
G05
T1
X6.5Y-4.5
X7.0Y-4.5
X7.0Y-6.0
X7.0Y-6.5
X7.3228Y-3.0217
X7.3228Y-3.0807
X7.3228Y-3.1299
X7.3228Y-3.1791
X7.3228Y-3.2382
X7.4409Y-3.0217
X7.4409Y-3.0807
X7.4409Y-3.1299
X7.4409Y-3.1791
X7.4449Y-3.2362
X7.5Y-4.5
X7.5Y-6.0
X7.5Y-6.5
X8.0Y-4.5
X8.0Y-5.0
X8.0Y-5.5
X8.0Y-6.0
X8.0Y-6.5
X8.1562Y-3.0709
X8.5Y-4.5
X8.5Y-5.0
X8.5Y-5.5
X8.5Y-6.0
X8.5Y-6.5
X8.5748Y-4.1575
X9.0Y-4.5
X9.0Y-5.0
X9.0Y-5.5
X9.0Y-6.0
T2
X7.4213Y-5.6299
T3
X7.5995Y-3.9858
X7.5995Y-4.0858
X7.5995Y-4.1858
X7.5995Y-4.2858
T4
X6.5748Y-3.1299
X6.5748Y-3.248
X6.5748Y-3.3661
X6.5748Y-3.4843
X6.8492Y-5.5709
X6.8492Y-5.689
X8.6882Y-3.2677
X8.6882Y-3.3858
X8.6882Y-4.0551
X8.6882Y-4.1732
T5
X7.5906Y-3.0118
X8.4646Y-3.8976
X8.4646Y-4.3504
T6
X6.9685Y-4.7441
X8.8976Y-6.2205
T0
M30
