%TF.GenerationSoftware,KiCad,Pcbnew,8.0.1*%
%TF.CreationDate,2024-11-23T23:09:25-06:00*%
%TF.ProjectId,ContactorDriver,436f6e74-6163-4746-9f72-447269766572,rev?*%
%TF.SameCoordinates,Original*%
%TF.FileFunction,Copper,L2,Bot*%
%TF.FilePolarity,Positive*%
%FSLAX46Y46*%
G04 Gerber Fmt 4.6, Leading zero omitted, Abs format (unit mm)*
G04 Created by KiCad (PCBNEW 8.0.1) date 2024-11-23 23:09:25*
%MOMM*%
%LPD*%
G01*
G04 APERTURE LIST*
G04 Aperture macros list*
%AMRoundRect*
0 Rectangle with rounded corners*
0 $1 Rounding radius*
0 $2 $3 $4 $5 $6 $7 $8 $9 X,Y pos of 4 corners*
0 Add a 4 corners polygon primitive as box body*
4,1,4,$2,$3,$4,$5,$6,$7,$8,$9,$2,$3,0*
0 Add four circle primitives for the rounded corners*
1,1,$1+$1,$2,$3*
1,1,$1+$1,$4,$5*
1,1,$1+$1,$6,$7*
1,1,$1+$1,$8,$9*
0 Add four rect primitives between the rounded corners*
20,1,$1+$1,$2,$3,$4,$5,0*
20,1,$1+$1,$4,$5,$6,$7,0*
20,1,$1+$1,$6,$7,$8,$9,0*
20,1,$1+$1,$8,$9,$2,$3,0*%
G04 Aperture macros list end*
%TA.AperFunction,ComponentPad*%
%ADD10C,2.800000*%
%TD*%
%TA.AperFunction,ComponentPad*%
%ADD11C,1.700000*%
%TD*%
%TA.AperFunction,ComponentPad*%
%ADD12RoundRect,0.250001X0.499999X0.759999X-0.499999X0.759999X-0.499999X-0.759999X0.499999X-0.759999X0*%
%TD*%
%TA.AperFunction,ComponentPad*%
%ADD13O,1.500000X2.020000*%
%TD*%
%TA.AperFunction,ComponentPad*%
%ADD14RoundRect,0.250001X-0.499999X-0.759999X0.499999X-0.759999X0.499999X0.759999X-0.499999X0.759999X0*%
%TD*%
%TA.AperFunction,ViaPad*%
%ADD15C,0.800000*%
%TD*%
%TA.AperFunction,Conductor*%
%ADD16C,1.000000*%
%TD*%
%TA.AperFunction,Conductor*%
%ADD17C,0.500000*%
%TD*%
G04 APERTURE END LIST*
D10*
X147755000Y-85533200D03*
D11*
X129400000Y-122910000D03*
X126400000Y-122910000D03*
X123400000Y-122910000D03*
X120400000Y-122910000D03*
X161700000Y-97450000D03*
X158700000Y-97450000D03*
X155700000Y-97450000D03*
X152700000Y-97450000D03*
X161700000Y-110125000D03*
X158700000Y-110125000D03*
X155700000Y-110125000D03*
X152700000Y-110125000D03*
D12*
X138100000Y-139275000D03*
D13*
X135100000Y-139275000D03*
D12*
X130400000Y-132390000D03*
D13*
X127400000Y-132390000D03*
D14*
X134470800Y-86295200D03*
D13*
X137470800Y-86295200D03*
D10*
X152225400Y-85482400D03*
D11*
X129400000Y-110125000D03*
X126400000Y-110125000D03*
X123400000Y-110125000D03*
X120400000Y-110125000D03*
X161700000Y-122910000D03*
X158700000Y-122910000D03*
X155700000Y-122910000D03*
X152700000Y-122910000D03*
X129500000Y-97450000D03*
X126500000Y-97450000D03*
X123500000Y-97450000D03*
X120500000Y-97450000D03*
D12*
X157700000Y-132015000D03*
D13*
X154700000Y-132015000D03*
D12*
X150100000Y-139190000D03*
D13*
X147100000Y-139190000D03*
D15*
X143900000Y-116175000D03*
X142474600Y-93440600D03*
X143950000Y-128925000D03*
X137620400Y-96404400D03*
X137468000Y-121778200D03*
X143525000Y-103525000D03*
X159820000Y-91299000D03*
X132642000Y-91426000D03*
X145388000Y-96025000D03*
X145375000Y-121350000D03*
X145400000Y-108575000D03*
X137468000Y-109078600D03*
X138534800Y-94169200D03*
X139550000Y-125050000D03*
X135500000Y-121800000D03*
X145800000Y-116000000D03*
X135500000Y-109100000D03*
X145900000Y-103400000D03*
X135700000Y-96400000D03*
X145800000Y-128900000D03*
D16*
X158700000Y-110125000D02*
X163250000Y-114675000D01*
X163250000Y-114675000D02*
X163250000Y-123854570D01*
X155089570Y-132015000D02*
X154700000Y-132015000D01*
X163250000Y-123854570D02*
X155089570Y-132015000D01*
D17*
X123400000Y-122910000D02*
X124700000Y-121610000D01*
X135310000Y-121610000D02*
X135475000Y-121775000D01*
X124700000Y-121610000D02*
X135310000Y-121610000D01*
X145700000Y-116060000D02*
X145740000Y-116060000D01*
X145800000Y-116000000D02*
X145860000Y-116060000D01*
X145860000Y-116060000D02*
X147967081Y-116060000D01*
X147967081Y-116060000D02*
X152700000Y-111327081D01*
X152700000Y-111327081D02*
X152700000Y-110125000D01*
X145740000Y-116060000D02*
X145800000Y-116000000D01*
X124700000Y-108825000D02*
X135225000Y-108825000D01*
X135225000Y-108825000D02*
X135475000Y-109075000D01*
X123400000Y-110125000D02*
X124700000Y-108825000D01*
X145880000Y-103400000D02*
X145900000Y-103400000D01*
X152700000Y-98652081D02*
X152700000Y-97450000D01*
X145900000Y-103400000D02*
X147952081Y-103400000D01*
X147952081Y-103400000D02*
X152700000Y-98652081D01*
X123500000Y-97460000D02*
X124960000Y-96000000D01*
X124960000Y-96000000D02*
X135200000Y-96000000D01*
X135200000Y-96000000D02*
X135625000Y-96425000D01*
X145800000Y-128900000D02*
X147912081Y-128900000D01*
X147912081Y-128900000D02*
X152700000Y-124112081D01*
X145700000Y-128900000D02*
X145800000Y-128900000D01*
X152700000Y-124112081D02*
X152700000Y-122910000D01*
%TA.AperFunction,Conductor*%
G36*
X156343039Y-129944685D02*
G01*
X156388794Y-129997489D01*
X156400000Y-130049000D01*
X156400000Y-142001000D01*
X156380315Y-142068039D01*
X156327511Y-142113794D01*
X156276000Y-142125000D01*
X153650641Y-142125000D01*
X153583602Y-142105315D01*
X153537847Y-142052511D01*
X153527903Y-141983353D01*
X153556928Y-141919797D01*
X153581750Y-141897898D01*
X153612066Y-141877640D01*
X153667023Y-141840920D01*
X153790920Y-141717023D01*
X153888265Y-141571336D01*
X153955317Y-141409458D01*
X153989500Y-141237608D01*
X153989500Y-141062392D01*
X153955317Y-140890542D01*
X153955315Y-140890537D01*
X153888268Y-140728670D01*
X153888261Y-140728657D01*
X153790920Y-140582977D01*
X153790917Y-140582973D01*
X153667026Y-140459082D01*
X153667022Y-140459079D01*
X153521342Y-140361738D01*
X153521329Y-140361731D01*
X153359462Y-140294684D01*
X153359450Y-140294681D01*
X153187612Y-140260500D01*
X153187608Y-140260500D01*
X153012392Y-140260500D01*
X153012387Y-140260500D01*
X152840549Y-140294681D01*
X152840537Y-140294684D01*
X152678670Y-140361731D01*
X152678657Y-140361738D01*
X152532977Y-140459079D01*
X152532973Y-140459082D01*
X152409082Y-140582973D01*
X152409079Y-140582977D01*
X152311738Y-140728657D01*
X152311731Y-140728670D01*
X152244684Y-140890537D01*
X152244681Y-140890549D01*
X152210500Y-141062387D01*
X152210500Y-141237612D01*
X152244681Y-141409450D01*
X152244684Y-141409462D01*
X152311731Y-141571329D01*
X152311738Y-141571342D01*
X152409079Y-141717022D01*
X152409082Y-141717026D01*
X152532973Y-141840917D01*
X152532977Y-141840920D01*
X152618250Y-141897898D01*
X152663055Y-141951510D01*
X152671762Y-142020835D01*
X152641608Y-142083863D01*
X152582165Y-142120582D01*
X152549359Y-142125000D01*
X144650641Y-142125000D01*
X144583602Y-142105315D01*
X144537847Y-142052511D01*
X144527903Y-141983353D01*
X144556928Y-141919797D01*
X144581750Y-141897898D01*
X144612066Y-141877640D01*
X144667023Y-141840920D01*
X144790920Y-141717023D01*
X144888265Y-141571336D01*
X144955317Y-141409458D01*
X144989500Y-141237608D01*
X144989500Y-141062392D01*
X144955317Y-140890542D01*
X144955315Y-140890537D01*
X144888268Y-140728670D01*
X144888261Y-140728657D01*
X144790920Y-140582977D01*
X144790917Y-140582973D01*
X144667026Y-140459082D01*
X144667022Y-140459079D01*
X144521342Y-140361738D01*
X144521329Y-140361731D01*
X144359462Y-140294684D01*
X144359450Y-140294681D01*
X144187612Y-140260500D01*
X144187608Y-140260500D01*
X144012392Y-140260500D01*
X144012387Y-140260500D01*
X143840549Y-140294681D01*
X143840537Y-140294684D01*
X143678670Y-140361731D01*
X143678657Y-140361738D01*
X143532977Y-140459079D01*
X143532973Y-140459082D01*
X143511681Y-140480375D01*
X143450358Y-140513860D01*
X143380666Y-140508876D01*
X143324733Y-140467004D01*
X143300316Y-140401540D01*
X143300000Y-140392694D01*
X143300000Y-139548382D01*
X145850000Y-139548382D01*
X145880778Y-139742705D01*
X145941581Y-139929835D01*
X146030904Y-140105143D01*
X146146555Y-140264321D01*
X146285678Y-140403444D01*
X146444856Y-140519095D01*
X146620162Y-140608418D01*
X146807283Y-140669218D01*
X146850000Y-140675984D01*
X146850000Y-139634560D01*
X146903147Y-139665245D01*
X147032857Y-139700000D01*
X147167143Y-139700000D01*
X147296853Y-139665245D01*
X147350000Y-139634560D01*
X147350000Y-140675983D01*
X147392716Y-140669218D01*
X147579837Y-140608418D01*
X147755143Y-140519095D01*
X147914321Y-140403444D01*
X148053444Y-140264321D01*
X148169095Y-140105143D01*
X148220498Y-140004258D01*
X149149500Y-140004258D01*
X149152354Y-140034698D01*
X149152354Y-140034699D01*
X149197206Y-140162881D01*
X149197207Y-140162882D01*
X149277850Y-140272150D01*
X149387118Y-140352793D01*
X149515302Y-140397646D01*
X149515301Y-140397646D01*
X149519271Y-140398018D01*
X149545735Y-140400500D01*
X150654264Y-140400499D01*
X150684698Y-140397646D01*
X150812882Y-140352793D01*
X150922150Y-140272150D01*
X151002793Y-140162882D01*
X151047646Y-140034698D01*
X151050500Y-140004265D01*
X151050499Y-138375736D01*
X151047646Y-138345302D01*
X151002793Y-138217118D01*
X150922150Y-138107850D01*
X150812882Y-138027207D01*
X150812881Y-138027206D01*
X150684695Y-137982353D01*
X150684698Y-137982353D01*
X150654268Y-137979500D01*
X149545741Y-137979500D01*
X149515301Y-137982354D01*
X149515300Y-137982354D01*
X149387118Y-138027206D01*
X149277850Y-138107850D01*
X149197206Y-138217118D01*
X149152353Y-138345302D01*
X149149500Y-138375731D01*
X149149500Y-140004258D01*
X148220498Y-140004258D01*
X148258418Y-139929835D01*
X148319221Y-139742705D01*
X148350000Y-139548382D01*
X148350000Y-139440000D01*
X147544560Y-139440000D01*
X147575245Y-139386853D01*
X147610000Y-139257143D01*
X147610000Y-139122857D01*
X147575245Y-138993147D01*
X147544560Y-138940000D01*
X148350000Y-138940000D01*
X148350000Y-138831617D01*
X148319221Y-138637294D01*
X148258418Y-138450164D01*
X148169095Y-138274856D01*
X148053444Y-138115678D01*
X147914321Y-137976555D01*
X147755143Y-137860904D01*
X147579835Y-137771581D01*
X147392705Y-137710778D01*
X147350000Y-137704014D01*
X147350000Y-138745439D01*
X147296853Y-138714755D01*
X147167143Y-138680000D01*
X147032857Y-138680000D01*
X146903147Y-138714755D01*
X146850000Y-138745439D01*
X146850000Y-137704014D01*
X146849999Y-137704014D01*
X146807294Y-137710778D01*
X146620164Y-137771581D01*
X146444856Y-137860904D01*
X146285678Y-137976555D01*
X146146555Y-138115678D01*
X146030904Y-138274856D01*
X145941581Y-138450164D01*
X145880778Y-138637294D01*
X145850000Y-138831617D01*
X145850000Y-138940000D01*
X146655440Y-138940000D01*
X146624755Y-138993147D01*
X146590000Y-139122857D01*
X146590000Y-139257143D01*
X146624755Y-139386853D01*
X146655440Y-139440000D01*
X145850000Y-139440000D01*
X145850000Y-139548382D01*
X143300000Y-139548382D01*
X143300000Y-137049000D01*
X143319685Y-136981961D01*
X143372489Y-136936206D01*
X143424000Y-136925000D01*
X150900000Y-136925000D01*
X150900000Y-134732306D01*
X150919685Y-134665267D01*
X150972489Y-134619512D01*
X151041647Y-134609568D01*
X151105203Y-134638593D01*
X151111681Y-134644625D01*
X151132973Y-134665917D01*
X151132977Y-134665920D01*
X151278657Y-134763261D01*
X151278670Y-134763268D01*
X151440537Y-134830315D01*
X151440542Y-134830317D01*
X151612387Y-134864499D01*
X151612391Y-134864500D01*
X151612392Y-134864500D01*
X151787609Y-134864500D01*
X151787610Y-134864499D01*
X151959458Y-134830317D01*
X152121336Y-134763265D01*
X152267023Y-134665920D01*
X152390920Y-134542023D01*
X152488265Y-134396336D01*
X152555317Y-134234458D01*
X152589500Y-134062608D01*
X152589500Y-133887392D01*
X152555317Y-133715542D01*
X152555315Y-133715537D01*
X152488268Y-133553670D01*
X152488261Y-133553657D01*
X152390920Y-133407977D01*
X152390917Y-133407973D01*
X152267026Y-133284082D01*
X152267022Y-133284079D01*
X152121342Y-133186738D01*
X152121329Y-133186731D01*
X151959462Y-133119684D01*
X151959450Y-133119681D01*
X151787612Y-133085500D01*
X151787608Y-133085500D01*
X151612392Y-133085500D01*
X151612387Y-133085500D01*
X151440549Y-133119681D01*
X151440537Y-133119684D01*
X151278670Y-133186731D01*
X151278657Y-133186738D01*
X151132977Y-133284079D01*
X151132973Y-133284082D01*
X151111681Y-133305375D01*
X151050358Y-133338860D01*
X150980666Y-133333876D01*
X150924733Y-133292004D01*
X150900316Y-133226540D01*
X150900000Y-133217694D01*
X150900000Y-132373382D01*
X153450000Y-132373382D01*
X153480778Y-132567705D01*
X153541581Y-132754835D01*
X153630904Y-132930143D01*
X153746555Y-133089321D01*
X153885678Y-133228444D01*
X154044856Y-133344095D01*
X154220162Y-133433418D01*
X154407283Y-133494218D01*
X154450000Y-133500984D01*
X154450000Y-132459560D01*
X154503147Y-132490245D01*
X154632857Y-132525000D01*
X154767143Y-132525000D01*
X154896853Y-132490245D01*
X154950000Y-132459560D01*
X154950000Y-133500983D01*
X154992716Y-133494218D01*
X155179837Y-133433418D01*
X155355143Y-133344095D01*
X155514321Y-133228444D01*
X155653444Y-133089321D01*
X155769095Y-132930143D01*
X155858418Y-132754835D01*
X155919221Y-132567705D01*
X155950000Y-132373382D01*
X155950000Y-132265000D01*
X155144560Y-132265000D01*
X155175245Y-132211853D01*
X155210000Y-132082143D01*
X155210000Y-131947857D01*
X155175245Y-131818147D01*
X155144560Y-131765000D01*
X155950000Y-131765000D01*
X155950000Y-131656617D01*
X155919221Y-131462294D01*
X155858418Y-131275164D01*
X155769095Y-131099856D01*
X155653444Y-130940678D01*
X155514321Y-130801555D01*
X155355143Y-130685904D01*
X155179835Y-130596581D01*
X154992705Y-130535778D01*
X154950000Y-130529014D01*
X154950000Y-131570439D01*
X154896853Y-131539755D01*
X154767143Y-131505000D01*
X154632857Y-131505000D01*
X154503147Y-131539755D01*
X154450000Y-131570439D01*
X154450000Y-130529014D01*
X154449999Y-130529014D01*
X154407294Y-130535778D01*
X154220164Y-130596581D01*
X154044856Y-130685904D01*
X153885678Y-130801555D01*
X153746555Y-130940678D01*
X153630904Y-131099856D01*
X153541581Y-131275164D01*
X153480778Y-131462294D01*
X153450000Y-131656617D01*
X153450000Y-131765000D01*
X154255440Y-131765000D01*
X154224755Y-131818147D01*
X154190000Y-131947857D01*
X154190000Y-132082143D01*
X154224755Y-132211853D01*
X154255440Y-132265000D01*
X153450000Y-132265000D01*
X153450000Y-132373382D01*
X150900000Y-132373382D01*
X150900000Y-130049000D01*
X150919685Y-129981961D01*
X150972489Y-129936206D01*
X151024000Y-129925000D01*
X156276000Y-129925000D01*
X156343039Y-129944685D01*
G37*
%TD.AperFunction*%
%TA.AperFunction,Conductor*%
G36*
X163003243Y-83175543D02*
G01*
X163348859Y-83193657D01*
X163361766Y-83195014D01*
X163430996Y-83205978D01*
X163700388Y-83248645D01*
X163713055Y-83251337D01*
X164044237Y-83340077D01*
X164056564Y-83344082D01*
X164263237Y-83423416D01*
X164376638Y-83466947D01*
X164388494Y-83472226D01*
X164693969Y-83627872D01*
X164705210Y-83634362D01*
X164992735Y-83821082D01*
X165003235Y-83828711D01*
X165269660Y-84044456D01*
X165279306Y-84053140D01*
X165521737Y-84295569D01*
X165530422Y-84305215D01*
X165746174Y-84571644D01*
X165753803Y-84582144D01*
X165934895Y-84860999D01*
X165940530Y-84869675D01*
X165947013Y-84880904D01*
X166052308Y-85087553D01*
X166102662Y-85186378D01*
X166107941Y-85198235D01*
X166230805Y-85518301D01*
X166234816Y-85530644D01*
X166263004Y-85635838D01*
X166308703Y-85806386D01*
X166323553Y-85861803D01*
X166326251Y-85874499D01*
X166379884Y-86213108D01*
X166381241Y-86226017D01*
X166394388Y-86476856D01*
X166399330Y-86571134D01*
X166399500Y-86577624D01*
X166399500Y-140493624D01*
X166399169Y-140502673D01*
X166374369Y-140841589D01*
X166372777Y-140854293D01*
X166313439Y-141187299D01*
X166310545Y-141199770D01*
X166217185Y-141524889D01*
X166213022Y-141536995D01*
X166086638Y-141850755D01*
X166081247Y-141862368D01*
X165923190Y-142161415D01*
X165916631Y-142172410D01*
X165728585Y-142453560D01*
X165720928Y-142463821D01*
X165504875Y-142724106D01*
X165496200Y-142733521D01*
X165254486Y-142970118D01*
X165244887Y-142978589D01*
X164980044Y-143189019D01*
X164969622Y-143196456D01*
X164684505Y-143378449D01*
X164673372Y-143384771D01*
X164371006Y-143536397D01*
X164359281Y-143541537D01*
X164042898Y-143661176D01*
X164030706Y-143665080D01*
X163703675Y-143751460D01*
X163691143Y-143754087D01*
X163356935Y-143806286D01*
X163344202Y-143807606D01*
X163037029Y-143823485D01*
X163018163Y-143824461D01*
X163011764Y-143824626D01*
X119303243Y-143824626D01*
X119296753Y-143824456D01*
X118951138Y-143806342D01*
X118938230Y-143804985D01*
X118599621Y-143751355D01*
X118586926Y-143748657D01*
X118255769Y-143659924D01*
X118243425Y-143655913D01*
X117923360Y-143533052D01*
X117911502Y-143527773D01*
X117606028Y-143372126D01*
X117594788Y-143365636D01*
X117307263Y-143178916D01*
X117296763Y-143171287D01*
X117030338Y-142955542D01*
X117020692Y-142946858D01*
X116778261Y-142704429D01*
X116769576Y-142694783D01*
X116582545Y-142463821D01*
X116553821Y-142428350D01*
X116546195Y-142417854D01*
X116517516Y-142373693D01*
X116359468Y-142130322D01*
X116352981Y-142119086D01*
X116350607Y-142114427D01*
X116197330Y-141813606D01*
X116192060Y-141801770D01*
X116069194Y-141481697D01*
X116065183Y-141469354D01*
X116062492Y-141459310D01*
X115976442Y-141138178D01*
X115973750Y-141125511D01*
X115920113Y-140786873D01*
X115918759Y-140773997D01*
X115900667Y-140428806D01*
X115900497Y-140422316D01*
X115900497Y-140414989D01*
X117545497Y-140414989D01*
X117545498Y-140415005D01*
X117575515Y-140643009D01*
X117575516Y-140643014D01*
X117575517Y-140643020D01*
X117621239Y-140813657D01*
X117635043Y-140865175D01*
X117635046Y-140865185D01*
X117723054Y-141077654D01*
X117723058Y-141077664D01*
X117838052Y-141276839D01*
X117978061Y-141459303D01*
X117978067Y-141459310D01*
X118140686Y-141621929D01*
X118140693Y-141621935D01*
X118323157Y-141761944D01*
X118522332Y-141876938D01*
X118522333Y-141876938D01*
X118522336Y-141876940D01*
X118734821Y-141964954D01*
X118956977Y-142024480D01*
X119185001Y-142054500D01*
X119185008Y-142054500D01*
X119414986Y-142054500D01*
X119414993Y-142054500D01*
X119643017Y-142024480D01*
X119865173Y-141964954D01*
X120077658Y-141876940D01*
X120276837Y-141761944D01*
X120459302Y-141621934D01*
X120621931Y-141459305D01*
X120761941Y-141276840D01*
X120876937Y-141077661D01*
X120964951Y-140865176D01*
X121024477Y-140643020D01*
X121054497Y-140414996D01*
X121054497Y-140185004D01*
X121024477Y-139956980D01*
X120964951Y-139734824D01*
X120876937Y-139522339D01*
X120761941Y-139323160D01*
X120621931Y-139140695D01*
X120621926Y-139140689D01*
X120459307Y-138978070D01*
X120459300Y-138978064D01*
X120276836Y-138838055D01*
X120077661Y-138723061D01*
X120077651Y-138723057D01*
X119865182Y-138635049D01*
X119865175Y-138635047D01*
X119865173Y-138635046D01*
X119643017Y-138575520D01*
X119643011Y-138575519D01*
X119643006Y-138575518D01*
X119415002Y-138545501D01*
X119414999Y-138545500D01*
X119414993Y-138545500D01*
X119185001Y-138545500D01*
X119184995Y-138545500D01*
X119184991Y-138545501D01*
X118956987Y-138575518D01*
X118956980Y-138575519D01*
X118956977Y-138575520D01*
X118734821Y-138635046D01*
X118734811Y-138635049D01*
X118522342Y-138723057D01*
X118522332Y-138723061D01*
X118323157Y-138838055D01*
X118140693Y-138978064D01*
X118140686Y-138978070D01*
X117978067Y-139140689D01*
X117978061Y-139140696D01*
X117838052Y-139323160D01*
X117723058Y-139522335D01*
X117723054Y-139522345D01*
X117635046Y-139734814D01*
X117635043Y-139734824D01*
X117575518Y-139956977D01*
X117575515Y-139956990D01*
X117545498Y-140184994D01*
X117545497Y-140185010D01*
X117545497Y-140414989D01*
X115900497Y-140414989D01*
X115900497Y-124957612D01*
X116510500Y-124957612D01*
X116544681Y-125129450D01*
X116544684Y-125129462D01*
X116611731Y-125291329D01*
X116611738Y-125291342D01*
X116709079Y-125437022D01*
X116709082Y-125437026D01*
X116832973Y-125560917D01*
X116832977Y-125560920D01*
X116978657Y-125658261D01*
X116978670Y-125658268D01*
X117140537Y-125725315D01*
X117140542Y-125725317D01*
X117312387Y-125759499D01*
X117312391Y-125759500D01*
X117312392Y-125759500D01*
X117487609Y-125759500D01*
X117487610Y-125759499D01*
X117659458Y-125725317D01*
X117821336Y-125658265D01*
X117967023Y-125560920D01*
X118090920Y-125437023D01*
X118188265Y-125291336D01*
X118255317Y-125129458D01*
X118289500Y-124957608D01*
X118289500Y-124782392D01*
X118255317Y-124610542D01*
X118216002Y-124515626D01*
X118188268Y-124448670D01*
X118188261Y-124448657D01*
X118090920Y-124302977D01*
X118090917Y-124302973D01*
X117967026Y-124179082D01*
X117967022Y-124179079D01*
X117821342Y-124081738D01*
X117821329Y-124081731D01*
X117659462Y-124014684D01*
X117659450Y-124014681D01*
X117487612Y-123980500D01*
X117487608Y-123980500D01*
X117312392Y-123980500D01*
X117312387Y-123980500D01*
X117140549Y-124014681D01*
X117140537Y-124014684D01*
X116978670Y-124081731D01*
X116978657Y-124081738D01*
X116832977Y-124179079D01*
X116832973Y-124179082D01*
X116709082Y-124302973D01*
X116709079Y-124302977D01*
X116611738Y-124448657D01*
X116611731Y-124448670D01*
X116544684Y-124610537D01*
X116544681Y-124610549D01*
X116510500Y-124782387D01*
X116510500Y-124957612D01*
X115900497Y-124957612D01*
X115900497Y-122910000D01*
X119344417Y-122910000D01*
X119364699Y-123115932D01*
X119364700Y-123115934D01*
X119424768Y-123313954D01*
X119522315Y-123496450D01*
X119522317Y-123496452D01*
X119653589Y-123656410D01*
X119750209Y-123735702D01*
X119813550Y-123787685D01*
X119996046Y-123885232D01*
X120194066Y-123945300D01*
X120194065Y-123945300D01*
X120212529Y-123947118D01*
X120400000Y-123965583D01*
X120605934Y-123945300D01*
X120803954Y-123885232D01*
X120986450Y-123787685D01*
X121146410Y-123656410D01*
X121277685Y-123496450D01*
X121375232Y-123313954D01*
X121435300Y-123115934D01*
X121455583Y-122910000D01*
X122344417Y-122910000D01*
X122364699Y-123115932D01*
X122364700Y-123115934D01*
X122424768Y-123313954D01*
X122522315Y-123496450D01*
X122522317Y-123496452D01*
X122653589Y-123656410D01*
X122750209Y-123735702D01*
X122813550Y-123787685D01*
X122996046Y-123885232D01*
X123194066Y-123945300D01*
X123194065Y-123945300D01*
X123212529Y-123947118D01*
X123400000Y-123965583D01*
X123605934Y-123945300D01*
X123803954Y-123885232D01*
X123986450Y-123787685D01*
X124146410Y-123656410D01*
X124277685Y-123496450D01*
X124375232Y-123313954D01*
X124435300Y-123115934D01*
X124455583Y-122910000D01*
X124435300Y-122704066D01*
X124412125Y-122627671D01*
X124411503Y-122557805D01*
X124443104Y-122503998D01*
X124850285Y-122096819D01*
X124911608Y-122063334D01*
X124937966Y-122060500D01*
X125476018Y-122060500D01*
X125543057Y-122080185D01*
X125588812Y-122132989D01*
X125598756Y-122202147D01*
X125571871Y-122263165D01*
X125522317Y-122323546D01*
X125424769Y-122506043D01*
X125364699Y-122704067D01*
X125344417Y-122910000D01*
X125364699Y-123115932D01*
X125364700Y-123115934D01*
X125424768Y-123313954D01*
X125522315Y-123496450D01*
X125522317Y-123496452D01*
X125653589Y-123656410D01*
X125750209Y-123735702D01*
X125813550Y-123787685D01*
X125936087Y-123853183D01*
X125950977Y-123861142D01*
X126000821Y-123910105D01*
X126016281Y-123978243D01*
X125992449Y-124043922D01*
X125936891Y-124086291D01*
X125892523Y-124094500D01*
X124773992Y-124094500D01*
X124730313Y-124099197D01*
X124678825Y-124110397D01*
X124668627Y-124112890D01*
X124668624Y-124112891D01*
X124587916Y-124155899D01*
X124587913Y-124155901D01*
X124535104Y-124201660D01*
X124517160Y-124219242D01*
X124517154Y-124219249D01*
X124472511Y-124299059D01*
X124472509Y-124299064D01*
X124452826Y-124366096D01*
X124452825Y-124366101D01*
X124452825Y-124366102D01*
X124444502Y-124423992D01*
X124444500Y-124424003D01*
X124444500Y-133098638D01*
X124445678Y-133120618D01*
X124448511Y-133146965D01*
X124448512Y-133146967D01*
X124464315Y-133197436D01*
X124472471Y-133223482D01*
X124472473Y-133223486D01*
X124472474Y-133223488D01*
X124501734Y-133277073D01*
X124516586Y-133345345D01*
X124492170Y-133410810D01*
X124436236Y-133452682D01*
X124392902Y-133460500D01*
X124312387Y-133460500D01*
X124140549Y-133494681D01*
X124140537Y-133494684D01*
X123978670Y-133561731D01*
X123978657Y-133561738D01*
X123832977Y-133659079D01*
X123832973Y-133659082D01*
X123709082Y-133782973D01*
X123709079Y-133782977D01*
X123611738Y-133928657D01*
X123611731Y-133928670D01*
X123544684Y-134090537D01*
X123544681Y-134090549D01*
X123510500Y-134262387D01*
X123510500Y-134437612D01*
X123544681Y-134609450D01*
X123544684Y-134609462D01*
X123611731Y-134771329D01*
X123611738Y-134771342D01*
X123709079Y-134917022D01*
X123709082Y-134917026D01*
X123832973Y-135040917D01*
X123832977Y-135040920D01*
X123978657Y-135138261D01*
X123978670Y-135138268D01*
X124140537Y-135205315D01*
X124140542Y-135205317D01*
X124312387Y-135239499D01*
X124312391Y-135239500D01*
X124312392Y-135239500D01*
X124487609Y-135239500D01*
X124487610Y-135239499D01*
X124659458Y-135205317D01*
X124821336Y-135138265D01*
X124967023Y-135040920D01*
X125090920Y-134917023D01*
X125188265Y-134771336D01*
X125255317Y-134609458D01*
X125289500Y-134437608D01*
X125289500Y-134379482D01*
X125309185Y-134312443D01*
X125361989Y-134266688D01*
X125431147Y-134256744D01*
X125494703Y-134285769D01*
X125501181Y-134291801D01*
X131558307Y-140348927D01*
X131591792Y-140410250D01*
X131586808Y-140479942D01*
X131544936Y-140535875D01*
X131539522Y-140539707D01*
X131532974Y-140544082D01*
X131532970Y-140544086D01*
X131409082Y-140667973D01*
X131409079Y-140667977D01*
X131311738Y-140813657D01*
X131311731Y-140813670D01*
X131244684Y-140975537D01*
X131244681Y-140975549D01*
X131210500Y-141147387D01*
X131210500Y-141322612D01*
X131244681Y-141494450D01*
X131244684Y-141494462D01*
X131311731Y-141656329D01*
X131311738Y-141656342D01*
X131409079Y-141802022D01*
X131409082Y-141802026D01*
X131532973Y-141925917D01*
X131532977Y-141925920D01*
X131678657Y-142023261D01*
X131678670Y-142023268D01*
X131829246Y-142085638D01*
X131840542Y-142090317D01*
X131985174Y-142119086D01*
X132012387Y-142124499D01*
X132012391Y-142124500D01*
X132012392Y-142124500D01*
X132187609Y-142124500D01*
X132187610Y-142124499D01*
X132359458Y-142090317D01*
X132490219Y-142036154D01*
X132521329Y-142023268D01*
X132521329Y-142023267D01*
X132521336Y-142023265D01*
X132667023Y-141925920D01*
X132790920Y-141802023D01*
X132795289Y-141795485D01*
X132848901Y-141750679D01*
X132918225Y-141741970D01*
X132981253Y-141772124D01*
X132986073Y-141776693D01*
X133568365Y-142358986D01*
X133568366Y-142358987D01*
X133584716Y-142373674D01*
X133584730Y-142373686D01*
X133584738Y-142373693D01*
X133593136Y-142380460D01*
X133605379Y-142390327D01*
X133676424Y-142427490D01*
X133743456Y-142447173D01*
X133743458Y-142447173D01*
X133743464Y-142447175D01*
X133801362Y-142455500D01*
X133801366Y-142455500D01*
X140325991Y-142455500D01*
X140326000Y-142455500D01*
X140369684Y-142450803D01*
X140398875Y-142444452D01*
X140421174Y-142439602D01*
X140421190Y-142439598D01*
X140421195Y-142439597D01*
X140431373Y-142437110D01*
X140512085Y-142394100D01*
X140564889Y-142348345D01*
X140582843Y-142330754D01*
X140627490Y-142250937D01*
X140647175Y-142183898D01*
X140648025Y-142177979D01*
X140677051Y-142114427D01*
X140735829Y-142076653D01*
X140805699Y-142076653D01*
X140818211Y-142081067D01*
X140840542Y-142090317D01*
X140985174Y-142119086D01*
X141012387Y-142124499D01*
X141012391Y-142124500D01*
X141012392Y-142124500D01*
X141187609Y-142124500D01*
X141187610Y-142124499D01*
X141359458Y-142090317D01*
X141490219Y-142036154D01*
X141521329Y-142023268D01*
X141521329Y-142023267D01*
X141521336Y-142023265D01*
X141667023Y-141925920D01*
X141790920Y-141802023D01*
X141888265Y-141656336D01*
X141955317Y-141494458D01*
X141989500Y-141322608D01*
X141989500Y-141147392D01*
X141955317Y-140975542D01*
X141899832Y-140841589D01*
X141888268Y-140813670D01*
X141888261Y-140813657D01*
X141790920Y-140667977D01*
X141790917Y-140667973D01*
X141667026Y-140544082D01*
X141667022Y-140544079D01*
X141521342Y-140446738D01*
X141521329Y-140446731D01*
X141390878Y-140392697D01*
X143094500Y-140392697D01*
X143094631Y-140400025D01*
X143094947Y-140408874D01*
X143094947Y-140408880D01*
X143107772Y-140473352D01*
X143132188Y-140538814D01*
X143142395Y-140561786D01*
X143142397Y-140561789D01*
X143176535Y-140602008D01*
X143201579Y-140631514D01*
X143239267Y-140659727D01*
X143281137Y-140715660D01*
X143286121Y-140785352D01*
X143279516Y-140806445D01*
X143244684Y-140890537D01*
X143244681Y-140890549D01*
X143210500Y-141062387D01*
X143210500Y-141237612D01*
X143244681Y-141409450D01*
X143244684Y-141409462D01*
X143311731Y-141571329D01*
X143311738Y-141571342D01*
X143409079Y-141717022D01*
X143409082Y-141717026D01*
X143532973Y-141840917D01*
X143532977Y-141840920D01*
X143678657Y-141938261D01*
X143678670Y-141938268D01*
X143746578Y-141966396D01*
X143840542Y-142005317D01*
X144012387Y-142039499D01*
X144012391Y-142039500D01*
X144012392Y-142039500D01*
X144187607Y-142039500D01*
X144187608Y-142039500D01*
X144202432Y-142036551D01*
X144272022Y-142042777D01*
X144327201Y-142085638D01*
X144336057Y-142099853D01*
X144339530Y-142106371D01*
X144339531Y-142106373D01*
X144349958Y-142125940D01*
X144382540Y-142187083D01*
X144382542Y-142187086D01*
X144428301Y-142239895D01*
X144445883Y-142257839D01*
X144445887Y-142257843D01*
X144445888Y-142257844D01*
X144445890Y-142257845D01*
X144525700Y-142302488D01*
X144525704Y-142302490D01*
X144592743Y-142322175D01*
X144650641Y-142330500D01*
X144650645Y-142330500D01*
X152549360Y-142330500D01*
X152553999Y-142330188D01*
X152576786Y-142328661D01*
X152576790Y-142328660D01*
X152576796Y-142328660D01*
X152576806Y-142328659D01*
X152593437Y-142326418D01*
X152609592Y-142324243D01*
X152690163Y-142295415D01*
X152749606Y-142258696D01*
X152770146Y-142244201D01*
X152826985Y-142172551D01*
X152857139Y-142109523D01*
X152857151Y-142109492D01*
X152857905Y-142107786D01*
X152858971Y-142108256D01*
X152899424Y-142056785D01*
X152965445Y-142033913D01*
X152995567Y-142036153D01*
X153012392Y-142039500D01*
X153012395Y-142039500D01*
X153187607Y-142039500D01*
X153187608Y-142039500D01*
X153202432Y-142036551D01*
X153272022Y-142042777D01*
X153327201Y-142085638D01*
X153336057Y-142099853D01*
X153339530Y-142106371D01*
X153339531Y-142106373D01*
X153349958Y-142125940D01*
X153382540Y-142187083D01*
X153382542Y-142187086D01*
X153428301Y-142239895D01*
X153445883Y-142257839D01*
X153445887Y-142257843D01*
X153445888Y-142257844D01*
X153445890Y-142257845D01*
X153525700Y-142302488D01*
X153525704Y-142302490D01*
X153592743Y-142322175D01*
X153650641Y-142330500D01*
X153650645Y-142330500D01*
X156275991Y-142330500D01*
X156276000Y-142330500D01*
X156319684Y-142325803D01*
X156348875Y-142319452D01*
X156371174Y-142314602D01*
X156371190Y-142314598D01*
X156371195Y-142314597D01*
X156381373Y-142312110D01*
X156462085Y-142269100D01*
X156514889Y-142223345D01*
X156532843Y-142205754D01*
X156577490Y-142125937D01*
X156597175Y-142058898D01*
X156605500Y-142001000D01*
X156605500Y-140414989D01*
X161245500Y-140414989D01*
X161245501Y-140415005D01*
X161275518Y-140643009D01*
X161275519Y-140643014D01*
X161275520Y-140643020D01*
X161321242Y-140813657D01*
X161335046Y-140865175D01*
X161335049Y-140865185D01*
X161423057Y-141077654D01*
X161423061Y-141077664D01*
X161538055Y-141276839D01*
X161678064Y-141459303D01*
X161678070Y-141459310D01*
X161840689Y-141621929D01*
X161840696Y-141621935D01*
X162023160Y-141761944D01*
X162222335Y-141876938D01*
X162222336Y-141876938D01*
X162222339Y-141876940D01*
X162434824Y-141964954D01*
X162656980Y-142024480D01*
X162885004Y-142054500D01*
X162885011Y-142054500D01*
X163114989Y-142054500D01*
X163114996Y-142054500D01*
X163343020Y-142024480D01*
X163565176Y-141964954D01*
X163777661Y-141876940D01*
X163976840Y-141761944D01*
X164159305Y-141621934D01*
X164321934Y-141459305D01*
X164461944Y-141276840D01*
X164576940Y-141077661D01*
X164664954Y-140865176D01*
X164724480Y-140643020D01*
X164754500Y-140414996D01*
X164754500Y-140185004D01*
X164724480Y-139956980D01*
X164664954Y-139734824D01*
X164576940Y-139522339D01*
X164461944Y-139323160D01*
X164321934Y-139140695D01*
X164321929Y-139140689D01*
X164159310Y-138978070D01*
X164159303Y-138978064D01*
X163976839Y-138838055D01*
X163777664Y-138723061D01*
X163777654Y-138723057D01*
X163565185Y-138635049D01*
X163565178Y-138635047D01*
X163565176Y-138635046D01*
X163343020Y-138575520D01*
X163343014Y-138575519D01*
X163343009Y-138575518D01*
X163115005Y-138545501D01*
X163115002Y-138545500D01*
X163114996Y-138545500D01*
X162885004Y-138545500D01*
X162884998Y-138545500D01*
X162884994Y-138545501D01*
X162656990Y-138575518D01*
X162656983Y-138575519D01*
X162656980Y-138575520D01*
X162434824Y-138635046D01*
X162434814Y-138635049D01*
X162222345Y-138723057D01*
X162222335Y-138723061D01*
X162023160Y-138838055D01*
X161840696Y-138978064D01*
X161840689Y-138978070D01*
X161678070Y-139140689D01*
X161678064Y-139140696D01*
X161538055Y-139323160D01*
X161423061Y-139522335D01*
X161423057Y-139522345D01*
X161335049Y-139734814D01*
X161335046Y-139734824D01*
X161275521Y-139956977D01*
X161275518Y-139956990D01*
X161245501Y-140184994D01*
X161245500Y-140185010D01*
X161245500Y-140414989D01*
X156605500Y-140414989D01*
X156605500Y-134062612D01*
X159810500Y-134062612D01*
X159844681Y-134234450D01*
X159844684Y-134234462D01*
X159911731Y-134396329D01*
X159911738Y-134396342D01*
X160009079Y-134542022D01*
X160009082Y-134542026D01*
X160132973Y-134665917D01*
X160132977Y-134665920D01*
X160278657Y-134763261D01*
X160278670Y-134763268D01*
X160440537Y-134830315D01*
X160440542Y-134830317D01*
X160612387Y-134864499D01*
X160612391Y-134864500D01*
X160612392Y-134864500D01*
X160787609Y-134864500D01*
X160787610Y-134864499D01*
X160959458Y-134830317D01*
X161121336Y-134763265D01*
X161267023Y-134665920D01*
X161390920Y-134542023D01*
X161488265Y-134396336D01*
X161555317Y-134234458D01*
X161589500Y-134062608D01*
X161589500Y-133887392D01*
X161555317Y-133715542D01*
X161531930Y-133659080D01*
X161488268Y-133553670D01*
X161488261Y-133553657D01*
X161390920Y-133407977D01*
X161390917Y-133407973D01*
X161267026Y-133284082D01*
X161267022Y-133284079D01*
X161121342Y-133186738D01*
X161121329Y-133186731D01*
X160959462Y-133119684D01*
X160959450Y-133119681D01*
X160787612Y-133085500D01*
X160787608Y-133085500D01*
X160612392Y-133085500D01*
X160612387Y-133085500D01*
X160440549Y-133119681D01*
X160440537Y-133119684D01*
X160278670Y-133186731D01*
X160278657Y-133186738D01*
X160132977Y-133284079D01*
X160132973Y-133284082D01*
X160009082Y-133407973D01*
X160009079Y-133407977D01*
X159911738Y-133553657D01*
X159911731Y-133553670D01*
X159844684Y-133715537D01*
X159844681Y-133715549D01*
X159810500Y-133887387D01*
X159810500Y-134062612D01*
X156605500Y-134062612D01*
X156605500Y-133104959D01*
X156625185Y-133037920D01*
X156677989Y-132992165D01*
X156747147Y-132982221D01*
X156810703Y-133011246D01*
X156829265Y-133031320D01*
X156877850Y-133097150D01*
X156987118Y-133177793D01*
X157115302Y-133222646D01*
X157115301Y-133222646D01*
X157119271Y-133223018D01*
X157145735Y-133225500D01*
X158254264Y-133225499D01*
X158284698Y-133222646D01*
X158412882Y-133177793D01*
X158522150Y-133097150D01*
X158602793Y-132987882D01*
X158647646Y-132859698D01*
X158650500Y-132829265D01*
X158650499Y-131200736D01*
X158647646Y-131170302D01*
X158602793Y-131042118D01*
X158522150Y-130932850D01*
X158412882Y-130852207D01*
X158412881Y-130852206D01*
X158284695Y-130807353D01*
X158284698Y-130807353D01*
X158254269Y-130804500D01*
X158254265Y-130804500D01*
X157590088Y-130804500D01*
X157523049Y-130784815D01*
X157477294Y-130732011D01*
X157467350Y-130662853D01*
X157496375Y-130599297D01*
X157502407Y-130592819D01*
X163658436Y-124436791D01*
X163719759Y-124403306D01*
X163789451Y-124408290D01*
X163845384Y-124450162D01*
X163869801Y-124515626D01*
X163860679Y-124571923D01*
X163844683Y-124610541D01*
X163844681Y-124610549D01*
X163810500Y-124782387D01*
X163810500Y-124957612D01*
X163844681Y-125129450D01*
X163844684Y-125129462D01*
X163911731Y-125291329D01*
X163911738Y-125291342D01*
X164009079Y-125437022D01*
X164009082Y-125437026D01*
X164132973Y-125560917D01*
X164132977Y-125560920D01*
X164278657Y-125658261D01*
X164278670Y-125658268D01*
X164440537Y-125725315D01*
X164440542Y-125725317D01*
X164612387Y-125759499D01*
X164612391Y-125759500D01*
X164612392Y-125759500D01*
X164787609Y-125759500D01*
X164787610Y-125759499D01*
X164959458Y-125725317D01*
X165121336Y-125658265D01*
X165267023Y-125560920D01*
X165390920Y-125437023D01*
X165488265Y-125291336D01*
X165555317Y-125129458D01*
X165589500Y-124957608D01*
X165589500Y-124782392D01*
X165555317Y-124610542D01*
X165516002Y-124515626D01*
X165488268Y-124448670D01*
X165488261Y-124448657D01*
X165390920Y-124302977D01*
X165390917Y-124302973D01*
X165267026Y-124179082D01*
X165267022Y-124179079D01*
X165121342Y-124081738D01*
X165121329Y-124081731D01*
X164959462Y-124014684D01*
X164959450Y-124014681D01*
X164787612Y-123980500D01*
X164787608Y-123980500D01*
X164612392Y-123980500D01*
X164612387Y-123980500D01*
X164440549Y-124014681D01*
X164440537Y-124014684D01*
X164278670Y-124081731D01*
X164278657Y-124081738D01*
X164132977Y-124179079D01*
X164132969Y-124179085D01*
X164130107Y-124181948D01*
X164068782Y-124215429D01*
X163999090Y-124210440D01*
X163943160Y-124168565D01*
X163918747Y-124103098D01*
X163923019Y-124064996D01*
X163922392Y-124064872D01*
X163950500Y-123923566D01*
X163950500Y-114606004D01*
X163923581Y-114470677D01*
X163923580Y-114470676D01*
X163923580Y-114470672D01*
X163923578Y-114470667D01*
X163870777Y-114343192D01*
X163794112Y-114228454D01*
X163794111Y-114228453D01*
X161738269Y-112172612D01*
X163810500Y-112172612D01*
X163844681Y-112344450D01*
X163844684Y-112344462D01*
X163911731Y-112506329D01*
X163911738Y-112506342D01*
X164009079Y-112652022D01*
X164009082Y-112652026D01*
X164132973Y-112775917D01*
X164132977Y-112775920D01*
X164278657Y-112873261D01*
X164278670Y-112873268D01*
X164440537Y-112940315D01*
X164440542Y-112940317D01*
X164612387Y-112974499D01*
X164612391Y-112974500D01*
X164612392Y-112974500D01*
X164787609Y-112974500D01*
X164787610Y-112974499D01*
X164959458Y-112940317D01*
X165121336Y-112873265D01*
X165267023Y-112775920D01*
X165390920Y-112652023D01*
X165488265Y-112506336D01*
X165555317Y-112344458D01*
X165589500Y-112172608D01*
X165589500Y-111997392D01*
X165555317Y-111825542D01*
X165555315Y-111825537D01*
X165488268Y-111663670D01*
X165488261Y-111663657D01*
X165390920Y-111517977D01*
X165390917Y-111517973D01*
X165267026Y-111394082D01*
X165267022Y-111394079D01*
X165121342Y-111296738D01*
X165121329Y-111296731D01*
X164959462Y-111229684D01*
X164959450Y-111229681D01*
X164787612Y-111195500D01*
X164787608Y-111195500D01*
X164612392Y-111195500D01*
X164612387Y-111195500D01*
X164440549Y-111229681D01*
X164440537Y-111229684D01*
X164278670Y-111296731D01*
X164278657Y-111296738D01*
X164132977Y-111394079D01*
X164132973Y-111394082D01*
X164009082Y-111517973D01*
X164009079Y-111517977D01*
X163911738Y-111663657D01*
X163911731Y-111663670D01*
X163844684Y-111825537D01*
X163844681Y-111825549D01*
X163810500Y-111997387D01*
X163810500Y-112172612D01*
X161738269Y-112172612D01*
X159791232Y-110225575D01*
X159757747Y-110164252D01*
X159755821Y-110131093D01*
X159755583Y-110131093D01*
X159755583Y-110126993D01*
X159755510Y-110125737D01*
X159755583Y-110125000D01*
X160644417Y-110125000D01*
X160664699Y-110330932D01*
X160664700Y-110330934D01*
X160724768Y-110528954D01*
X160822315Y-110711450D01*
X160822317Y-110711452D01*
X160953589Y-110871410D01*
X161050209Y-110950702D01*
X161113550Y-111002685D01*
X161296046Y-111100232D01*
X161494066Y-111160300D01*
X161494065Y-111160300D01*
X161512529Y-111162118D01*
X161700000Y-111180583D01*
X161905934Y-111160300D01*
X162103954Y-111100232D01*
X162286450Y-111002685D01*
X162446410Y-110871410D01*
X162577685Y-110711450D01*
X162675232Y-110528954D01*
X162735300Y-110330934D01*
X162755583Y-110125000D01*
X162735300Y-109919066D01*
X162675232Y-109721046D01*
X162577685Y-109538550D01*
X162478053Y-109417147D01*
X162446410Y-109378589D01*
X162286452Y-109247317D01*
X162286453Y-109247317D01*
X162286450Y-109247315D01*
X162103954Y-109149768D01*
X161905934Y-109089700D01*
X161905932Y-109089699D01*
X161905934Y-109089699D01*
X161700000Y-109069417D01*
X161494067Y-109089699D01*
X161296043Y-109149769D01*
X161185898Y-109208643D01*
X161113550Y-109247315D01*
X161113548Y-109247316D01*
X161113547Y-109247317D01*
X160953589Y-109378589D01*
X160822317Y-109538547D01*
X160724769Y-109721043D01*
X160664699Y-109919067D01*
X160644417Y-110125000D01*
X159755583Y-110125000D01*
X159735300Y-109919066D01*
X159675232Y-109721046D01*
X159577685Y-109538550D01*
X159478053Y-109417147D01*
X159446410Y-109378589D01*
X159286452Y-109247317D01*
X159286453Y-109247317D01*
X159286450Y-109247315D01*
X159103954Y-109149768D01*
X158905934Y-109089700D01*
X158905932Y-109089699D01*
X158905934Y-109089699D01*
X158700000Y-109069417D01*
X158494067Y-109089699D01*
X158296043Y-109149769D01*
X158185898Y-109208643D01*
X158113550Y-109247315D01*
X158113548Y-109247316D01*
X158113547Y-109247317D01*
X157953589Y-109378589D01*
X157822317Y-109538547D01*
X157724769Y-109721043D01*
X157664699Y-109919067D01*
X157644417Y-110125000D01*
X157664699Y-110330932D01*
X157664700Y-110330934D01*
X157724768Y-110528954D01*
X157822315Y-110711450D01*
X157822317Y-110711452D01*
X157953589Y-110871410D01*
X158050209Y-110950702D01*
X158113550Y-111002685D01*
X158296046Y-111100232D01*
X158494066Y-111160300D01*
X158494065Y-111160300D01*
X158516563Y-111162515D01*
X158700000Y-111180583D01*
X158700738Y-111180510D01*
X158701122Y-111180583D01*
X158706093Y-111180583D01*
X158706093Y-111181525D01*
X158769383Y-111193528D01*
X158800575Y-111216232D01*
X162513181Y-114928838D01*
X162546666Y-114990161D01*
X162549500Y-115016519D01*
X162549500Y-121986017D01*
X162529815Y-122053056D01*
X162477011Y-122098811D01*
X162407853Y-122108755D01*
X162346836Y-122081871D01*
X162286453Y-122032317D01*
X162286451Y-122032316D01*
X162286450Y-122032315D01*
X162103954Y-121934768D01*
X161905934Y-121874700D01*
X161905932Y-121874699D01*
X161905934Y-121874699D01*
X161700000Y-121854417D01*
X161494067Y-121874699D01*
X161296043Y-121934769D01*
X161254902Y-121956760D01*
X161113550Y-122032315D01*
X161113548Y-122032316D01*
X161113547Y-122032317D01*
X160953589Y-122163589D01*
X160822318Y-122323546D01*
X160822315Y-122323550D01*
X160783643Y-122395898D01*
X160724769Y-122506043D01*
X160664699Y-122704067D01*
X160644417Y-122910000D01*
X160664699Y-123115932D01*
X160664700Y-123115934D01*
X160724768Y-123313954D01*
X160822315Y-123496450D01*
X160822317Y-123496452D01*
X160953589Y-123656410D01*
X161050209Y-123735702D01*
X161113550Y-123787685D01*
X161296046Y-123885232D01*
X161494066Y-123945300D01*
X161494065Y-123945300D01*
X161514348Y-123947297D01*
X161700000Y-123965583D01*
X161852423Y-123950570D01*
X161921069Y-123963589D01*
X161971779Y-124011653D01*
X161988454Y-124079504D01*
X161965798Y-124145599D01*
X161952258Y-124161654D01*
X156423416Y-129690495D01*
X156362093Y-129723980D01*
X156318089Y-129725551D01*
X156276000Y-129719500D01*
X151024000Y-129719500D01*
X151023992Y-129719500D01*
X150980313Y-129724197D01*
X150928825Y-129735397D01*
X150918627Y-129737890D01*
X150918624Y-129737891D01*
X150837916Y-129780899D01*
X150837913Y-129780901D01*
X150785104Y-129826660D01*
X150767160Y-129844242D01*
X150767154Y-129844249D01*
X150722511Y-129924059D01*
X150722509Y-129924064D01*
X150702826Y-129991096D01*
X150702825Y-129991101D01*
X150702825Y-129991102D01*
X150694500Y-130049000D01*
X150694500Y-131559500D01*
X150694500Y-132055089D01*
X150694500Y-132470500D01*
X150694500Y-133217694D01*
X150694603Y-133223488D01*
X150694631Y-133225025D01*
X150694947Y-133233874D01*
X150694947Y-133233880D01*
X150707772Y-133298352D01*
X150732188Y-133363814D01*
X150742395Y-133386786D01*
X150742397Y-133386789D01*
X150762786Y-133410810D01*
X150801579Y-133456514D01*
X150839267Y-133484727D01*
X150881137Y-133540660D01*
X150886121Y-133610352D01*
X150879516Y-133631445D01*
X150844684Y-133715537D01*
X150844681Y-133715549D01*
X150810500Y-133887387D01*
X150810500Y-134062612D01*
X150844681Y-134234450D01*
X150844684Y-134234462D01*
X150878832Y-134316903D01*
X150886301Y-134386372D01*
X150855025Y-134448851D01*
X150842891Y-134459314D01*
X150843178Y-134459646D01*
X150785104Y-134509966D01*
X150767160Y-134527548D01*
X150767154Y-134527555D01*
X150722511Y-134607365D01*
X150722509Y-134607370D01*
X150702826Y-134674402D01*
X150694500Y-134732309D01*
X150694500Y-136595500D01*
X150674815Y-136662539D01*
X150622011Y-136708294D01*
X150570500Y-136719500D01*
X143423992Y-136719500D01*
X143380313Y-136724197D01*
X143328825Y-136735397D01*
X143318627Y-136737890D01*
X143318624Y-136737891D01*
X143237916Y-136780899D01*
X143237913Y-136780901D01*
X143185104Y-136826660D01*
X143167160Y-136844242D01*
X143167154Y-136844249D01*
X143122511Y-136924059D01*
X143122509Y-136924064D01*
X143102826Y-136991096D01*
X143094500Y-137049003D01*
X143094500Y-140392697D01*
X141390878Y-140392697D01*
X141359462Y-140379684D01*
X141359450Y-140379681D01*
X141187612Y-140345500D01*
X141187608Y-140345500D01*
X141012392Y-140345500D01*
X141012387Y-140345500D01*
X140840549Y-140379681D01*
X140840538Y-140379684D01*
X140826948Y-140385313D01*
X140757478Y-140392779D01*
X140695000Y-140361501D01*
X140659350Y-140301411D01*
X140655500Y-140270750D01*
X140655500Y-128900001D01*
X145194318Y-128900001D01*
X145214955Y-129056760D01*
X145214956Y-129056762D01*
X145275464Y-129202841D01*
X145371718Y-129328282D01*
X145497159Y-129424536D01*
X145643238Y-129485044D01*
X145721619Y-129495363D01*
X145799999Y-129505682D01*
X145800000Y-129505682D01*
X145800001Y-129505682D01*
X145852254Y-129498802D01*
X145956762Y-129485044D01*
X146102841Y-129424536D01*
X146165933Y-129376123D01*
X146231102Y-129350930D01*
X146241419Y-129350500D01*
X147971389Y-129350500D01*
X147971390Y-129350500D01*
X148061754Y-129326286D01*
X148085968Y-129319799D01*
X148188695Y-129260489D01*
X153060489Y-124388695D01*
X153119799Y-124285968D01*
X153130101Y-124247518D01*
X153150500Y-124171390D01*
X153150500Y-123934674D01*
X153170185Y-123867635D01*
X153216046Y-123825316D01*
X153286450Y-123787685D01*
X153446410Y-123656410D01*
X153577685Y-123496450D01*
X153675232Y-123313954D01*
X153735300Y-123115934D01*
X153755583Y-122910000D01*
X154644417Y-122910000D01*
X154664699Y-123115932D01*
X154664700Y-123115934D01*
X154724768Y-123313954D01*
X154822315Y-123496450D01*
X154822317Y-123496452D01*
X154953589Y-123656410D01*
X155050209Y-123735702D01*
X155113550Y-123787685D01*
X155296046Y-123885232D01*
X155494066Y-123945300D01*
X155494065Y-123945300D01*
X155512529Y-123947118D01*
X155700000Y-123965583D01*
X155905934Y-123945300D01*
X156103954Y-123885232D01*
X156286450Y-123787685D01*
X156446410Y-123656410D01*
X156577685Y-123496450D01*
X156675232Y-123313954D01*
X156735300Y-123115934D01*
X156755583Y-122910000D01*
X157644417Y-122910000D01*
X157664699Y-123115932D01*
X157664700Y-123115934D01*
X157724768Y-123313954D01*
X157822315Y-123496450D01*
X157822317Y-123496452D01*
X157953589Y-123656410D01*
X158050209Y-123735702D01*
X158113550Y-123787685D01*
X158296046Y-123885232D01*
X158494066Y-123945300D01*
X158494065Y-123945300D01*
X158512529Y-123947118D01*
X158700000Y-123965583D01*
X158905934Y-123945300D01*
X159103954Y-123885232D01*
X159286450Y-123787685D01*
X159446410Y-123656410D01*
X159577685Y-123496450D01*
X159675232Y-123313954D01*
X159735300Y-123115934D01*
X159755583Y-122910000D01*
X159735300Y-122704066D01*
X159675232Y-122506046D01*
X159577685Y-122323550D01*
X159478053Y-122202147D01*
X159446410Y-122163589D01*
X159286452Y-122032317D01*
X159286453Y-122032317D01*
X159286450Y-122032315D01*
X159103954Y-121934768D01*
X158905934Y-121874700D01*
X158905932Y-121874699D01*
X158905934Y-121874699D01*
X158700000Y-121854417D01*
X158494067Y-121874699D01*
X158296043Y-121934769D01*
X158254902Y-121956760D01*
X158113550Y-122032315D01*
X158113548Y-122032316D01*
X158113547Y-122032317D01*
X157953589Y-122163589D01*
X157822318Y-122323546D01*
X157822315Y-122323550D01*
X157783643Y-122395898D01*
X157724769Y-122506043D01*
X157664699Y-122704067D01*
X157644417Y-122910000D01*
X156755583Y-122910000D01*
X156735300Y-122704066D01*
X156675232Y-122506046D01*
X156577685Y-122323550D01*
X156478053Y-122202147D01*
X156446410Y-122163589D01*
X156286452Y-122032317D01*
X156286453Y-122032317D01*
X156286450Y-122032315D01*
X156103954Y-121934768D01*
X155905934Y-121874700D01*
X155905932Y-121874699D01*
X155905934Y-121874699D01*
X155700000Y-121854417D01*
X155494067Y-121874699D01*
X155296043Y-121934769D01*
X155254902Y-121956760D01*
X155113550Y-122032315D01*
X155113548Y-122032316D01*
X155113547Y-122032317D01*
X154953589Y-122163589D01*
X154822318Y-122323546D01*
X154822315Y-122323550D01*
X154783643Y-122395898D01*
X154724769Y-122506043D01*
X154664699Y-122704067D01*
X154644417Y-122910000D01*
X153755583Y-122910000D01*
X153735300Y-122704066D01*
X153675232Y-122506046D01*
X153577685Y-122323550D01*
X153478053Y-122202147D01*
X153446410Y-122163589D01*
X153286452Y-122032317D01*
X153286453Y-122032317D01*
X153286450Y-122032315D01*
X153103954Y-121934768D01*
X152905934Y-121874700D01*
X152905932Y-121874699D01*
X152905934Y-121874699D01*
X152700000Y-121854417D01*
X152494067Y-121874699D01*
X152296043Y-121934769D01*
X152254902Y-121956760D01*
X152113550Y-122032315D01*
X152113548Y-122032316D01*
X152113547Y-122032317D01*
X151953589Y-122163589D01*
X151822318Y-122323546D01*
X151822315Y-122323550D01*
X151783643Y-122395898D01*
X151724769Y-122506043D01*
X151664699Y-122704067D01*
X151644417Y-122910000D01*
X151664699Y-123115932D01*
X151664700Y-123115934D01*
X151724768Y-123313954D01*
X151822315Y-123496450D01*
X151822317Y-123496452D01*
X151953589Y-123656410D01*
X152084864Y-123764143D01*
X152113546Y-123787682D01*
X152113549Y-123787684D01*
X152113551Y-123787686D01*
X152144487Y-123804221D01*
X152194332Y-123853183D01*
X152209793Y-123921320D01*
X152185962Y-123987000D01*
X152173716Y-124001261D01*
X150582348Y-125592629D01*
X150521025Y-125626114D01*
X150451333Y-125621130D01*
X150448020Y-125618650D01*
X150457981Y-125680120D01*
X150430096Y-125744184D01*
X150422629Y-125752348D01*
X147761797Y-128413181D01*
X147700474Y-128446666D01*
X147674116Y-128449500D01*
X146241419Y-128449500D01*
X146174380Y-128429815D01*
X146165933Y-128423876D01*
X146102842Y-128375464D01*
X145956762Y-128314956D01*
X145956760Y-128314955D01*
X145800001Y-128294318D01*
X145799999Y-128294318D01*
X145643239Y-128314955D01*
X145643237Y-128314956D01*
X145497160Y-128375463D01*
X145371718Y-128471718D01*
X145275463Y-128597160D01*
X145214956Y-128743237D01*
X145214955Y-128743239D01*
X145194318Y-128899998D01*
X145194318Y-128900001D01*
X140655500Y-128900001D01*
X140655500Y-124957612D01*
X148810500Y-124957612D01*
X148844681Y-125129450D01*
X148844684Y-125129462D01*
X148911731Y-125291329D01*
X148911738Y-125291342D01*
X149009079Y-125437022D01*
X149009082Y-125437026D01*
X149132973Y-125560917D01*
X149132977Y-125560920D01*
X149278657Y-125658261D01*
X149278670Y-125658268D01*
X149440537Y-125725315D01*
X149440542Y-125725317D01*
X149612387Y-125759499D01*
X149612391Y-125759500D01*
X149612392Y-125759500D01*
X149787609Y-125759500D01*
X149787610Y-125759499D01*
X149959458Y-125725317D01*
X150121336Y-125658265D01*
X150266058Y-125561564D01*
X150332734Y-125540687D01*
X150386516Y-125555440D01*
X150370983Y-125513794D01*
X150385835Y-125445521D01*
X150391565Y-125436057D01*
X150488265Y-125291336D01*
X150555317Y-125129458D01*
X150589500Y-124957608D01*
X150589500Y-124782392D01*
X150555317Y-124610542D01*
X150516002Y-124515626D01*
X150488268Y-124448670D01*
X150488261Y-124448657D01*
X150390920Y-124302977D01*
X150390917Y-124302973D01*
X150267026Y-124179082D01*
X150267022Y-124179079D01*
X150121342Y-124081738D01*
X150121329Y-124081731D01*
X149959462Y-124014684D01*
X149959450Y-124014681D01*
X149787612Y-123980500D01*
X149787608Y-123980500D01*
X149612392Y-123980500D01*
X149612387Y-123980500D01*
X149440549Y-124014681D01*
X149440537Y-124014684D01*
X149278670Y-124081731D01*
X149278657Y-124081738D01*
X149132977Y-124179079D01*
X149132973Y-124179082D01*
X149009082Y-124302973D01*
X149009079Y-124302977D01*
X148911738Y-124448657D01*
X148911731Y-124448670D01*
X148844684Y-124610537D01*
X148844681Y-124610549D01*
X148810500Y-124782387D01*
X148810500Y-124957612D01*
X140655500Y-124957612D01*
X140655500Y-124424008D01*
X140655499Y-124423992D01*
X140650803Y-124380316D01*
X140646897Y-124362364D01*
X140639602Y-124328825D01*
X140639348Y-124327789D01*
X140637110Y-124318627D01*
X140594100Y-124237915D01*
X140557100Y-124195215D01*
X140548339Y-124185104D01*
X140530757Y-124167160D01*
X140530756Y-124167159D01*
X140530754Y-124167157D01*
X140530752Y-124167156D01*
X140530750Y-124167154D01*
X140450940Y-124122511D01*
X140450935Y-124122509D01*
X140383903Y-124102826D01*
X140383899Y-124102825D01*
X140383898Y-124102825D01*
X140326000Y-124094500D01*
X133312266Y-124094500D01*
X133312265Y-124094500D01*
X133286657Y-124096101D01*
X133286641Y-124096103D01*
X133255987Y-124099954D01*
X133255984Y-124099955D01*
X133176744Y-124127117D01*
X133176743Y-124127117D01*
X133116656Y-124162766D01*
X133116654Y-124162768D01*
X133099452Y-124174453D01*
X133032936Y-124195838D01*
X132965417Y-124177866D01*
X132960888Y-124174980D01*
X132821342Y-124081738D01*
X132821329Y-124081731D01*
X132659462Y-124014684D01*
X132659450Y-124014681D01*
X132487612Y-123980500D01*
X132487608Y-123980500D01*
X132312392Y-123980500D01*
X132312387Y-123980500D01*
X132140549Y-124014681D01*
X132140537Y-124014684D01*
X131978670Y-124081731D01*
X131978657Y-124081738D01*
X131840074Y-124174337D01*
X131773396Y-124195215D01*
X131706016Y-124176730D01*
X131695861Y-124169736D01*
X131692489Y-124167157D01*
X131612674Y-124122511D01*
X131612669Y-124122509D01*
X131545637Y-124102826D01*
X131545633Y-124102825D01*
X131545632Y-124102825D01*
X131487734Y-124094500D01*
X129907477Y-124094500D01*
X129840438Y-124074815D01*
X129794683Y-124022011D01*
X129784739Y-123952853D01*
X129813764Y-123889297D01*
X129849023Y-123861142D01*
X129863913Y-123853183D01*
X129986450Y-123787685D01*
X130146410Y-123656410D01*
X130277685Y-123496450D01*
X130375232Y-123313954D01*
X130435300Y-123115934D01*
X130455583Y-122910000D01*
X130435300Y-122704066D01*
X130375232Y-122506046D01*
X130277685Y-122323550D01*
X130228129Y-122263165D01*
X130200816Y-122198855D01*
X130212607Y-122129987D01*
X130259760Y-122078427D01*
X130323982Y-122060500D01*
X134881824Y-122060500D01*
X134948863Y-122080185D01*
X134980199Y-122109012D01*
X135071718Y-122228282D01*
X135197159Y-122324536D01*
X135343238Y-122385044D01*
X135421619Y-122395363D01*
X135499999Y-122405682D01*
X135500000Y-122405682D01*
X135500001Y-122405682D01*
X135552254Y-122398802D01*
X135656762Y-122385044D01*
X135802841Y-122324536D01*
X135928282Y-122228282D01*
X136024536Y-122102841D01*
X136085044Y-121956762D01*
X136105682Y-121800000D01*
X136085044Y-121643238D01*
X136024536Y-121497159D01*
X135928282Y-121371718D01*
X135802841Y-121275464D01*
X135656762Y-121214956D01*
X135629188Y-121211325D01*
X135506590Y-121195185D01*
X135490686Y-121192022D01*
X135466089Y-121185432D01*
X135459675Y-121183713D01*
X135459674Y-121183713D01*
X135414491Y-121171606D01*
X135369309Y-121159500D01*
X124640691Y-121159500D01*
X124554758Y-121182525D01*
X124526113Y-121190201D01*
X124423386Y-121249509D01*
X123806002Y-121866893D01*
X123744679Y-121900378D01*
X123682327Y-121897873D01*
X123605932Y-121874699D01*
X123605933Y-121874699D01*
X123420282Y-121856414D01*
X123400000Y-121854417D01*
X123399999Y-121854417D01*
X123194067Y-121874699D01*
X122996043Y-121934769D01*
X122954902Y-121956760D01*
X122813550Y-122032315D01*
X122813548Y-122032316D01*
X122813547Y-122032317D01*
X122653589Y-122163589D01*
X122522318Y-122323546D01*
X122522315Y-122323550D01*
X122483643Y-122395898D01*
X122424769Y-122506043D01*
X122364699Y-122704067D01*
X122344417Y-122910000D01*
X121455583Y-122910000D01*
X121435300Y-122704066D01*
X121375232Y-122506046D01*
X121277685Y-122323550D01*
X121178053Y-122202147D01*
X121146410Y-122163589D01*
X120986452Y-122032317D01*
X120986453Y-122032317D01*
X120986450Y-122032315D01*
X120803954Y-121934768D01*
X120605934Y-121874700D01*
X120605932Y-121874699D01*
X120605934Y-121874699D01*
X120400000Y-121854417D01*
X120194067Y-121874699D01*
X119996043Y-121934769D01*
X119954902Y-121956760D01*
X119813550Y-122032315D01*
X119813548Y-122032316D01*
X119813547Y-122032317D01*
X119653589Y-122163589D01*
X119522318Y-122323546D01*
X119522315Y-122323550D01*
X119483643Y-122395898D01*
X119424769Y-122506043D01*
X119364699Y-122704067D01*
X119344417Y-122910000D01*
X115900497Y-122910000D01*
X115900497Y-116000001D01*
X145194318Y-116000001D01*
X145214955Y-116156760D01*
X145214956Y-116156762D01*
X145275464Y-116302841D01*
X145371718Y-116428282D01*
X145497159Y-116524536D01*
X145643238Y-116585044D01*
X145721619Y-116595363D01*
X145799999Y-116605682D01*
X145800000Y-116605682D01*
X145800001Y-116605682D01*
X145852254Y-116598802D01*
X145956762Y-116585044D01*
X146033992Y-116553054D01*
X146110351Y-116521426D01*
X146111276Y-116523659D01*
X146160378Y-116510500D01*
X148026389Y-116510500D01*
X148026390Y-116510500D01*
X148116754Y-116486286D01*
X148140968Y-116479799D01*
X148243695Y-116420489D01*
X153060489Y-111603695D01*
X153119799Y-111500968D01*
X153148439Y-111394080D01*
X153148440Y-111394080D01*
X153148440Y-111394074D01*
X153150500Y-111386390D01*
X153150500Y-111149674D01*
X153170185Y-111082635D01*
X153216046Y-111040316D01*
X153286450Y-111002685D01*
X153446410Y-110871410D01*
X153577685Y-110711450D01*
X153675232Y-110528954D01*
X153735300Y-110330934D01*
X153755583Y-110125000D01*
X154644417Y-110125000D01*
X154664699Y-110330932D01*
X154664700Y-110330934D01*
X154724768Y-110528954D01*
X154822315Y-110711450D01*
X154822317Y-110711452D01*
X154953589Y-110871410D01*
X155050209Y-110950702D01*
X155113550Y-111002685D01*
X155296046Y-111100232D01*
X155494066Y-111160300D01*
X155494065Y-111160300D01*
X155512529Y-111162118D01*
X155700000Y-111180583D01*
X155905934Y-111160300D01*
X156103954Y-111100232D01*
X156286450Y-111002685D01*
X156446410Y-110871410D01*
X156577685Y-110711450D01*
X156675232Y-110528954D01*
X156735300Y-110330934D01*
X156755583Y-110125000D01*
X156735300Y-109919066D01*
X156675232Y-109721046D01*
X156577685Y-109538550D01*
X156478053Y-109417147D01*
X156446410Y-109378589D01*
X156286452Y-109247317D01*
X156286453Y-109247317D01*
X156286450Y-109247315D01*
X156103954Y-109149768D01*
X155905934Y-109089700D01*
X155905932Y-109089699D01*
X155905934Y-109089699D01*
X155700000Y-109069417D01*
X155494067Y-109089699D01*
X155296043Y-109149769D01*
X155185898Y-109208643D01*
X155113550Y-109247315D01*
X155113548Y-109247316D01*
X155113547Y-109247317D01*
X154953589Y-109378589D01*
X154822317Y-109538547D01*
X154724769Y-109721043D01*
X154664699Y-109919067D01*
X154644417Y-110125000D01*
X153755583Y-110125000D01*
X153735300Y-109919066D01*
X153675232Y-109721046D01*
X153577685Y-109538550D01*
X153478053Y-109417147D01*
X153446410Y-109378589D01*
X153286452Y-109247317D01*
X153286453Y-109247317D01*
X153286450Y-109247315D01*
X153103954Y-109149768D01*
X152905934Y-109089700D01*
X152905932Y-109089699D01*
X152905934Y-109089699D01*
X152700000Y-109069417D01*
X152494067Y-109089699D01*
X152296043Y-109149769D01*
X152185898Y-109208643D01*
X152113550Y-109247315D01*
X152113548Y-109247316D01*
X152113547Y-109247317D01*
X151953589Y-109378589D01*
X151822317Y-109538547D01*
X151724769Y-109721043D01*
X151664699Y-109919067D01*
X151644417Y-110125000D01*
X151664699Y-110330932D01*
X151664700Y-110330934D01*
X151724768Y-110528954D01*
X151822315Y-110711450D01*
X151822317Y-110711452D01*
X151953589Y-110871410D01*
X152084864Y-110979143D01*
X152113546Y-111002682D01*
X152113549Y-111002684D01*
X152113551Y-111002686D01*
X152144487Y-111019221D01*
X152194332Y-111068183D01*
X152209793Y-111136320D01*
X152185962Y-111202000D01*
X152173716Y-111216261D01*
X150582348Y-112807629D01*
X150521025Y-112841114D01*
X150451333Y-112836130D01*
X150448020Y-112833650D01*
X150457981Y-112895120D01*
X150430096Y-112959184D01*
X150422629Y-112967348D01*
X147816797Y-115573181D01*
X147755474Y-115606666D01*
X147729116Y-115609500D01*
X146317426Y-115609500D01*
X146250387Y-115589815D01*
X146229745Y-115573181D01*
X146228286Y-115571722D01*
X146228283Y-115571720D01*
X146228282Y-115571718D01*
X146102841Y-115475464D01*
X145956762Y-115414956D01*
X145956760Y-115414955D01*
X145800001Y-115394318D01*
X145799999Y-115394318D01*
X145643239Y-115414955D01*
X145643237Y-115414956D01*
X145497160Y-115475463D01*
X145371718Y-115571718D01*
X145275463Y-115697160D01*
X145214956Y-115843237D01*
X145214955Y-115843239D01*
X145194318Y-115999998D01*
X145194318Y-116000001D01*
X115900497Y-116000001D01*
X115900497Y-112172612D01*
X116510500Y-112172612D01*
X116544681Y-112344450D01*
X116544684Y-112344462D01*
X116611731Y-112506329D01*
X116611738Y-112506342D01*
X116709079Y-112652022D01*
X116709082Y-112652026D01*
X116832973Y-112775917D01*
X116832977Y-112775920D01*
X116978657Y-112873261D01*
X116978670Y-112873268D01*
X117140537Y-112940315D01*
X117140542Y-112940317D01*
X117312387Y-112974499D01*
X117312391Y-112974500D01*
X117312392Y-112974500D01*
X117487609Y-112974500D01*
X117487610Y-112974499D01*
X117659458Y-112940317D01*
X117821336Y-112873265D01*
X117967023Y-112775920D01*
X118090920Y-112652023D01*
X118188265Y-112506336D01*
X118255317Y-112344458D01*
X118289499Y-112172612D01*
X131510500Y-112172612D01*
X131544681Y-112344450D01*
X131544684Y-112344462D01*
X131611731Y-112506329D01*
X131611738Y-112506342D01*
X131709079Y-112652022D01*
X131709082Y-112652026D01*
X131832973Y-112775917D01*
X131832977Y-112775920D01*
X131978657Y-112873261D01*
X131978670Y-112873268D01*
X132140537Y-112940315D01*
X132140542Y-112940317D01*
X132312387Y-112974499D01*
X132312391Y-112974500D01*
X132312392Y-112974500D01*
X132487609Y-112974500D01*
X132487610Y-112974499D01*
X132659458Y-112940317D01*
X132821336Y-112873265D01*
X132967023Y-112775920D01*
X133090920Y-112652023D01*
X133188265Y-112506336D01*
X133255317Y-112344458D01*
X133289499Y-112172612D01*
X148810500Y-112172612D01*
X148844681Y-112344450D01*
X148844684Y-112344462D01*
X148911731Y-112506329D01*
X148911738Y-112506342D01*
X149009079Y-112652022D01*
X149009082Y-112652026D01*
X149132973Y-112775917D01*
X149132977Y-112775920D01*
X149278657Y-112873261D01*
X149278670Y-112873268D01*
X149440537Y-112940315D01*
X149440542Y-112940317D01*
X149612387Y-112974499D01*
X149612391Y-112974500D01*
X149612392Y-112974500D01*
X149787609Y-112974500D01*
X149787610Y-112974499D01*
X149959458Y-112940317D01*
X150121336Y-112873265D01*
X150266058Y-112776564D01*
X150332734Y-112755687D01*
X150386516Y-112770440D01*
X150370983Y-112728794D01*
X150385835Y-112660521D01*
X150391565Y-112651057D01*
X150488265Y-112506336D01*
X150555317Y-112344458D01*
X150589500Y-112172608D01*
X150589500Y-111997392D01*
X150555317Y-111825542D01*
X150555315Y-111825537D01*
X150488268Y-111663670D01*
X150488261Y-111663657D01*
X150390920Y-111517977D01*
X150390917Y-111517973D01*
X150267026Y-111394082D01*
X150267022Y-111394079D01*
X150121342Y-111296738D01*
X150121329Y-111296731D01*
X149959462Y-111229684D01*
X149959450Y-111229681D01*
X149787612Y-111195500D01*
X149787608Y-111195500D01*
X149612392Y-111195500D01*
X149612387Y-111195500D01*
X149440549Y-111229681D01*
X149440537Y-111229684D01*
X149278670Y-111296731D01*
X149278657Y-111296738D01*
X149132977Y-111394079D01*
X149132973Y-111394082D01*
X149009082Y-111517973D01*
X149009079Y-111517977D01*
X148911738Y-111663657D01*
X148911731Y-111663670D01*
X148844684Y-111825537D01*
X148844681Y-111825549D01*
X148810500Y-111997387D01*
X148810500Y-112172612D01*
X133289499Y-112172612D01*
X133289500Y-112172608D01*
X133289500Y-111997392D01*
X133255317Y-111825542D01*
X133255315Y-111825537D01*
X133188268Y-111663670D01*
X133188261Y-111663657D01*
X133090920Y-111517977D01*
X133090917Y-111517973D01*
X132967026Y-111394082D01*
X132967022Y-111394079D01*
X132821342Y-111296738D01*
X132821329Y-111296731D01*
X132659462Y-111229684D01*
X132659450Y-111229681D01*
X132487612Y-111195500D01*
X132487608Y-111195500D01*
X132312392Y-111195500D01*
X132312387Y-111195500D01*
X132140549Y-111229681D01*
X132140537Y-111229684D01*
X131978670Y-111296731D01*
X131978657Y-111296738D01*
X131832977Y-111394079D01*
X131832973Y-111394082D01*
X131709082Y-111517973D01*
X131709079Y-111517977D01*
X131611738Y-111663657D01*
X131611731Y-111663670D01*
X131544684Y-111825537D01*
X131544681Y-111825549D01*
X131510500Y-111997387D01*
X131510500Y-112172612D01*
X118289499Y-112172612D01*
X118289500Y-112172608D01*
X118289500Y-111997392D01*
X118255317Y-111825542D01*
X118255315Y-111825537D01*
X118188268Y-111663670D01*
X118188261Y-111663657D01*
X118090920Y-111517977D01*
X118090917Y-111517973D01*
X117967026Y-111394082D01*
X117967022Y-111394079D01*
X117821342Y-111296738D01*
X117821329Y-111296731D01*
X117659462Y-111229684D01*
X117659450Y-111229681D01*
X117487612Y-111195500D01*
X117487608Y-111195500D01*
X117312392Y-111195500D01*
X117312387Y-111195500D01*
X117140549Y-111229681D01*
X117140537Y-111229684D01*
X116978670Y-111296731D01*
X116978657Y-111296738D01*
X116832977Y-111394079D01*
X116832973Y-111394082D01*
X116709082Y-111517973D01*
X116709079Y-111517977D01*
X116611738Y-111663657D01*
X116611731Y-111663670D01*
X116544684Y-111825537D01*
X116544681Y-111825549D01*
X116510500Y-111997387D01*
X116510500Y-112172612D01*
X115900497Y-112172612D01*
X115900497Y-110125000D01*
X119344417Y-110125000D01*
X119364699Y-110330932D01*
X119364700Y-110330934D01*
X119424768Y-110528954D01*
X119522315Y-110711450D01*
X119522317Y-110711452D01*
X119653589Y-110871410D01*
X119750209Y-110950702D01*
X119813550Y-111002685D01*
X119996046Y-111100232D01*
X120194066Y-111160300D01*
X120194065Y-111160300D01*
X120212529Y-111162118D01*
X120400000Y-111180583D01*
X120605934Y-111160300D01*
X120803954Y-111100232D01*
X120986450Y-111002685D01*
X121146410Y-110871410D01*
X121277685Y-110711450D01*
X121375232Y-110528954D01*
X121435300Y-110330934D01*
X121455583Y-110125000D01*
X122344417Y-110125000D01*
X122364699Y-110330932D01*
X122364700Y-110330934D01*
X122424768Y-110528954D01*
X122522315Y-110711450D01*
X122522317Y-110711452D01*
X122653589Y-110871410D01*
X122750209Y-110950702D01*
X122813550Y-111002685D01*
X122996046Y-111100232D01*
X123194066Y-111160300D01*
X123194065Y-111160300D01*
X123212529Y-111162118D01*
X123400000Y-111180583D01*
X123605934Y-111160300D01*
X123803954Y-111100232D01*
X123986450Y-111002685D01*
X124146410Y-110871410D01*
X124277685Y-110711450D01*
X124375232Y-110528954D01*
X124435300Y-110330934D01*
X124455583Y-110125000D01*
X124435300Y-109919066D01*
X124412125Y-109842671D01*
X124411503Y-109772805D01*
X124443104Y-109718998D01*
X124850285Y-109311819D01*
X124911608Y-109278334D01*
X124937966Y-109275500D01*
X125476018Y-109275500D01*
X125543057Y-109295185D01*
X125588812Y-109347989D01*
X125598756Y-109417147D01*
X125571871Y-109478165D01*
X125522317Y-109538546D01*
X125424769Y-109721043D01*
X125364699Y-109919067D01*
X125344417Y-110125000D01*
X125364699Y-110330932D01*
X125364700Y-110330934D01*
X125424768Y-110528954D01*
X125522315Y-110711450D01*
X125522317Y-110711452D01*
X125653589Y-110871410D01*
X125750209Y-110950702D01*
X125813550Y-111002685D01*
X125996046Y-111100232D01*
X126194066Y-111160300D01*
X126194065Y-111160300D01*
X126212529Y-111162118D01*
X126400000Y-111180583D01*
X126605934Y-111160300D01*
X126803954Y-111100232D01*
X126986450Y-111002685D01*
X127146410Y-110871410D01*
X127277685Y-110711450D01*
X127375232Y-110528954D01*
X127435300Y-110330934D01*
X127455583Y-110125000D01*
X127435300Y-109919066D01*
X127375232Y-109721046D01*
X127277685Y-109538550D01*
X127277682Y-109538546D01*
X127228129Y-109478165D01*
X127200816Y-109413855D01*
X127212607Y-109344987D01*
X127259760Y-109293427D01*
X127323982Y-109275500D01*
X128476018Y-109275500D01*
X128543057Y-109295185D01*
X128588812Y-109347989D01*
X128598756Y-109417147D01*
X128571871Y-109478165D01*
X128522317Y-109538546D01*
X128424769Y-109721043D01*
X128364699Y-109919067D01*
X128344417Y-110125000D01*
X128364699Y-110330932D01*
X128364700Y-110330934D01*
X128424768Y-110528954D01*
X128522315Y-110711450D01*
X128522317Y-110711452D01*
X128653589Y-110871410D01*
X128750209Y-110950702D01*
X128813550Y-111002685D01*
X128996046Y-111100232D01*
X129194066Y-111160300D01*
X129194065Y-111160300D01*
X129212529Y-111162118D01*
X129400000Y-111180583D01*
X129605934Y-111160300D01*
X129803954Y-111100232D01*
X129986450Y-111002685D01*
X130146410Y-110871410D01*
X130277685Y-110711450D01*
X130375232Y-110528954D01*
X130435300Y-110330934D01*
X130455583Y-110125000D01*
X130435300Y-109919066D01*
X130375232Y-109721046D01*
X130277685Y-109538550D01*
X130277682Y-109538546D01*
X130228129Y-109478165D01*
X130200816Y-109413855D01*
X130212607Y-109344987D01*
X130259760Y-109293427D01*
X130323982Y-109275500D01*
X134839864Y-109275500D01*
X134906903Y-109295185D01*
X134952658Y-109347989D01*
X134954425Y-109352048D01*
X134975462Y-109402838D01*
X134975463Y-109402839D01*
X134975464Y-109402841D01*
X135071718Y-109528282D01*
X135197159Y-109624536D01*
X135343238Y-109685044D01*
X135421619Y-109695363D01*
X135499999Y-109705682D01*
X135500000Y-109705682D01*
X135500001Y-109705682D01*
X135552254Y-109698802D01*
X135656762Y-109685044D01*
X135802841Y-109624536D01*
X135928282Y-109528282D01*
X136024536Y-109402841D01*
X136085044Y-109256762D01*
X136101147Y-109134447D01*
X136105682Y-109100001D01*
X136105682Y-109099998D01*
X136085044Y-108943239D01*
X136085044Y-108943238D01*
X136024536Y-108797159D01*
X135928282Y-108671718D01*
X135802841Y-108575464D01*
X135802839Y-108575463D01*
X135656761Y-108514955D01*
X135577915Y-108504575D01*
X135514018Y-108476308D01*
X135506420Y-108469317D01*
X135501616Y-108464513D01*
X135501614Y-108464511D01*
X135450250Y-108434856D01*
X135398888Y-108405201D01*
X135386780Y-108401957D01*
X135374673Y-108398713D01*
X135374670Y-108398712D01*
X135336478Y-108388478D01*
X135284309Y-108374500D01*
X124640691Y-108374500D01*
X124554758Y-108397525D01*
X124526113Y-108405201D01*
X124423386Y-108464509D01*
X123806002Y-109081893D01*
X123744679Y-109115378D01*
X123682327Y-109112873D01*
X123605932Y-109089699D01*
X123605933Y-109089699D01*
X123420282Y-109071414D01*
X123400000Y-109069417D01*
X123399999Y-109069417D01*
X123194067Y-109089699D01*
X122996043Y-109149769D01*
X122885898Y-109208643D01*
X122813550Y-109247315D01*
X122813548Y-109247316D01*
X122813547Y-109247317D01*
X122653589Y-109378589D01*
X122522317Y-109538547D01*
X122424769Y-109721043D01*
X122364699Y-109919067D01*
X122344417Y-110125000D01*
X121455583Y-110125000D01*
X121435300Y-109919066D01*
X121375232Y-109721046D01*
X121277685Y-109538550D01*
X121178053Y-109417147D01*
X121146410Y-109378589D01*
X120986452Y-109247317D01*
X120986453Y-109247317D01*
X120986450Y-109247315D01*
X120803954Y-109149768D01*
X120605934Y-109089700D01*
X120605932Y-109089699D01*
X120605934Y-109089699D01*
X120400000Y-109069417D01*
X120194067Y-109089699D01*
X119996043Y-109149769D01*
X119885898Y-109208643D01*
X119813550Y-109247315D01*
X119813548Y-109247316D01*
X119813547Y-109247317D01*
X119653589Y-109378589D01*
X119522317Y-109538547D01*
X119424769Y-109721043D01*
X119364699Y-109919067D01*
X119344417Y-110125000D01*
X115900497Y-110125000D01*
X115900497Y-103400001D01*
X145294318Y-103400001D01*
X145314955Y-103556760D01*
X145314956Y-103556762D01*
X145375464Y-103702841D01*
X145471718Y-103828282D01*
X145597159Y-103924536D01*
X145743238Y-103985044D01*
X145821619Y-103995363D01*
X145899999Y-104005682D01*
X145900000Y-104005682D01*
X145900001Y-104005682D01*
X145952254Y-103998802D01*
X146056762Y-103985044D01*
X146202841Y-103924536D01*
X146265933Y-103876123D01*
X146331102Y-103850930D01*
X146341419Y-103850500D01*
X148011389Y-103850500D01*
X148011390Y-103850500D01*
X148101754Y-103826286D01*
X148125968Y-103819799D01*
X148228695Y-103760489D01*
X152491572Y-99497612D01*
X163810500Y-99497612D01*
X163844681Y-99669450D01*
X163844684Y-99669462D01*
X163911731Y-99831329D01*
X163911738Y-99831342D01*
X164009079Y-99977022D01*
X164009082Y-99977026D01*
X164132973Y-100100917D01*
X164132977Y-100100920D01*
X164278657Y-100198261D01*
X164278670Y-100198268D01*
X164440537Y-100265315D01*
X164440542Y-100265317D01*
X164612387Y-100299499D01*
X164612391Y-100299500D01*
X164612392Y-100299500D01*
X164787609Y-100299500D01*
X164787610Y-100299499D01*
X164959458Y-100265317D01*
X165121336Y-100198265D01*
X165267023Y-100100920D01*
X165390920Y-99977023D01*
X165488265Y-99831336D01*
X165555317Y-99669458D01*
X165589500Y-99497608D01*
X165589500Y-99322392D01*
X165555317Y-99150542D01*
X165555315Y-99150537D01*
X165488268Y-98988670D01*
X165488261Y-98988657D01*
X165390920Y-98842977D01*
X165390917Y-98842973D01*
X165267026Y-98719082D01*
X165267022Y-98719079D01*
X165121342Y-98621738D01*
X165121329Y-98621731D01*
X164959462Y-98554684D01*
X164959450Y-98554681D01*
X164787612Y-98520500D01*
X164787608Y-98520500D01*
X164612392Y-98520500D01*
X164612387Y-98520500D01*
X164440549Y-98554681D01*
X164440537Y-98554684D01*
X164278670Y-98621731D01*
X164278657Y-98621738D01*
X164132977Y-98719079D01*
X164132973Y-98719082D01*
X164009082Y-98842973D01*
X164009079Y-98842977D01*
X163911738Y-98988657D01*
X163911731Y-98988670D01*
X163844684Y-99150537D01*
X163844681Y-99150549D01*
X163810500Y-99322387D01*
X163810500Y-99497612D01*
X152491572Y-99497612D01*
X153060489Y-98928695D01*
X153119798Y-98825968D01*
X153119799Y-98825967D01*
X153150500Y-98711390D01*
X153150500Y-98474674D01*
X153170185Y-98407635D01*
X153216046Y-98365316D01*
X153286450Y-98327685D01*
X153446410Y-98196410D01*
X153577685Y-98036450D01*
X153675232Y-97853954D01*
X153735300Y-97655934D01*
X153755583Y-97450000D01*
X154644417Y-97450000D01*
X154664699Y-97655932D01*
X154664700Y-97655934D01*
X154724768Y-97853954D01*
X154822315Y-98036450D01*
X154822317Y-98036452D01*
X154953589Y-98196410D01*
X155050209Y-98275702D01*
X155113550Y-98327685D01*
X155296046Y-98425232D01*
X155494066Y-98485300D01*
X155494065Y-98485300D01*
X155512529Y-98487118D01*
X155700000Y-98505583D01*
X155905934Y-98485300D01*
X156103954Y-98425232D01*
X156286450Y-98327685D01*
X156446410Y-98196410D01*
X156577685Y-98036450D01*
X156675232Y-97853954D01*
X156735300Y-97655934D01*
X156755583Y-97450000D01*
X157644417Y-97450000D01*
X157664699Y-97655932D01*
X157664700Y-97655934D01*
X157724768Y-97853954D01*
X157822315Y-98036450D01*
X157822317Y-98036452D01*
X157953589Y-98196410D01*
X158050209Y-98275702D01*
X158113550Y-98327685D01*
X158296046Y-98425232D01*
X158494066Y-98485300D01*
X158494065Y-98485300D01*
X158512529Y-98487118D01*
X158700000Y-98505583D01*
X158905934Y-98485300D01*
X159103954Y-98425232D01*
X159286450Y-98327685D01*
X159446410Y-98196410D01*
X159577685Y-98036450D01*
X159675232Y-97853954D01*
X159735300Y-97655934D01*
X159755583Y-97450000D01*
X160644417Y-97450000D01*
X160664699Y-97655932D01*
X160664700Y-97655934D01*
X160724768Y-97853954D01*
X160822315Y-98036450D01*
X160822317Y-98036452D01*
X160953589Y-98196410D01*
X161050209Y-98275702D01*
X161113550Y-98327685D01*
X161296046Y-98425232D01*
X161494066Y-98485300D01*
X161494065Y-98485300D01*
X161512529Y-98487118D01*
X161700000Y-98505583D01*
X161905934Y-98485300D01*
X162103954Y-98425232D01*
X162286450Y-98327685D01*
X162446410Y-98196410D01*
X162577685Y-98036450D01*
X162675232Y-97853954D01*
X162735300Y-97655934D01*
X162755583Y-97450000D01*
X162735300Y-97244066D01*
X162675232Y-97046046D01*
X162577685Y-96863550D01*
X162525702Y-96800209D01*
X162446410Y-96703589D01*
X162328677Y-96606969D01*
X162286450Y-96572315D01*
X162103954Y-96474768D01*
X161905934Y-96414700D01*
X161905932Y-96414699D01*
X161905934Y-96414699D01*
X161700000Y-96394417D01*
X161494067Y-96414699D01*
X161296043Y-96474769D01*
X161190298Y-96531292D01*
X161113550Y-96572315D01*
X161113548Y-96572316D01*
X161113547Y-96572317D01*
X160953589Y-96703589D01*
X160822317Y-96863547D01*
X160724769Y-97046043D01*
X160664699Y-97244067D01*
X160644417Y-97450000D01*
X159755583Y-97450000D01*
X159735300Y-97244066D01*
X159675232Y-97046046D01*
X159577685Y-96863550D01*
X159525702Y-96800209D01*
X159446410Y-96703589D01*
X159328677Y-96606969D01*
X159286450Y-96572315D01*
X159103954Y-96474768D01*
X158905934Y-96414700D01*
X158905932Y-96414699D01*
X158905934Y-96414699D01*
X158700000Y-96394417D01*
X158494067Y-96414699D01*
X158296043Y-96474769D01*
X158190298Y-96531292D01*
X158113550Y-96572315D01*
X158113548Y-96572316D01*
X158113547Y-96572317D01*
X157953589Y-96703589D01*
X157822317Y-96863547D01*
X157724769Y-97046043D01*
X157664699Y-97244067D01*
X157644417Y-97450000D01*
X156755583Y-97450000D01*
X156735300Y-97244066D01*
X156675232Y-97046046D01*
X156577685Y-96863550D01*
X156525702Y-96800209D01*
X156446410Y-96703589D01*
X156328677Y-96606969D01*
X156286450Y-96572315D01*
X156103954Y-96474768D01*
X155905934Y-96414700D01*
X155905932Y-96414699D01*
X155905934Y-96414699D01*
X155700000Y-96394417D01*
X155494067Y-96414699D01*
X155296043Y-96474769D01*
X155190298Y-96531292D01*
X155113550Y-96572315D01*
X155113548Y-96572316D01*
X155113547Y-96572317D01*
X154953589Y-96703589D01*
X154822317Y-96863547D01*
X154724769Y-97046043D01*
X154664699Y-97244067D01*
X154644417Y-97450000D01*
X153755583Y-97450000D01*
X153735300Y-97244066D01*
X153675232Y-97046046D01*
X153577685Y-96863550D01*
X153525702Y-96800209D01*
X153446410Y-96703589D01*
X153328677Y-96606969D01*
X153286450Y-96572315D01*
X153103954Y-96474768D01*
X152905934Y-96414700D01*
X152905932Y-96414699D01*
X152905934Y-96414699D01*
X152700000Y-96394417D01*
X152494067Y-96414699D01*
X152296043Y-96474769D01*
X152190298Y-96531292D01*
X152113550Y-96572315D01*
X152113548Y-96572316D01*
X152113547Y-96572317D01*
X151953589Y-96703589D01*
X151822317Y-96863547D01*
X151724769Y-97046043D01*
X151664699Y-97244067D01*
X151644417Y-97450000D01*
X151664699Y-97655932D01*
X151664700Y-97655934D01*
X151724768Y-97853954D01*
X151822315Y-98036450D01*
X151822317Y-98036452D01*
X151953589Y-98196410D01*
X152084864Y-98304143D01*
X152113546Y-98327682D01*
X152113549Y-98327684D01*
X152113551Y-98327686D01*
X152144487Y-98344221D01*
X152194332Y-98393183D01*
X152209793Y-98461320D01*
X152185962Y-98527000D01*
X152173716Y-98541261D01*
X150582348Y-100132629D01*
X150521025Y-100166114D01*
X150451333Y-100161130D01*
X150448020Y-100158650D01*
X150457981Y-100220120D01*
X150430096Y-100284184D01*
X150422629Y-100292348D01*
X147801797Y-102913181D01*
X147740474Y-102946666D01*
X147714116Y-102949500D01*
X146341419Y-102949500D01*
X146274380Y-102929815D01*
X146265933Y-102923876D01*
X146202842Y-102875464D01*
X146056762Y-102814956D01*
X146056760Y-102814955D01*
X145900001Y-102794318D01*
X145899999Y-102794318D01*
X145743239Y-102814955D01*
X145743237Y-102814956D01*
X145597160Y-102875463D01*
X145471718Y-102971718D01*
X145375463Y-103097160D01*
X145314956Y-103243237D01*
X145314955Y-103243239D01*
X145294318Y-103399998D01*
X145294318Y-103400001D01*
X115900497Y-103400001D01*
X115900497Y-99497612D01*
X116610500Y-99497612D01*
X116644681Y-99669450D01*
X116644684Y-99669462D01*
X116711731Y-99831329D01*
X116711738Y-99831342D01*
X116809079Y-99977022D01*
X116809082Y-99977026D01*
X116932973Y-100100917D01*
X116932977Y-100100920D01*
X117078657Y-100198261D01*
X117078670Y-100198268D01*
X117240537Y-100265315D01*
X117240542Y-100265317D01*
X117412387Y-100299499D01*
X117412391Y-100299500D01*
X117412392Y-100299500D01*
X117587609Y-100299500D01*
X117587610Y-100299499D01*
X117759458Y-100265317D01*
X117921336Y-100198265D01*
X118067023Y-100100920D01*
X118190920Y-99977023D01*
X118288265Y-99831336D01*
X118355317Y-99669458D01*
X118389499Y-99497612D01*
X131610500Y-99497612D01*
X131644681Y-99669450D01*
X131644684Y-99669462D01*
X131711731Y-99831329D01*
X131711738Y-99831342D01*
X131809079Y-99977022D01*
X131809082Y-99977026D01*
X131932973Y-100100917D01*
X131932977Y-100100920D01*
X132078657Y-100198261D01*
X132078670Y-100198268D01*
X132240537Y-100265315D01*
X132240542Y-100265317D01*
X132412387Y-100299499D01*
X132412391Y-100299500D01*
X132412392Y-100299500D01*
X132587609Y-100299500D01*
X132587610Y-100299499D01*
X132759458Y-100265317D01*
X132921336Y-100198265D01*
X133067023Y-100100920D01*
X133190920Y-99977023D01*
X133288265Y-99831336D01*
X133355317Y-99669458D01*
X133389499Y-99497612D01*
X148810500Y-99497612D01*
X148844681Y-99669450D01*
X148844684Y-99669462D01*
X148911731Y-99831329D01*
X148911738Y-99831342D01*
X149009079Y-99977022D01*
X149009082Y-99977026D01*
X149132973Y-100100917D01*
X149132977Y-100100920D01*
X149278657Y-100198261D01*
X149278670Y-100198268D01*
X149440537Y-100265315D01*
X149440542Y-100265317D01*
X149612387Y-100299499D01*
X149612391Y-100299500D01*
X149612392Y-100299500D01*
X149787609Y-100299500D01*
X149787610Y-100299499D01*
X149959458Y-100265317D01*
X150121336Y-100198265D01*
X150266058Y-100101564D01*
X150332734Y-100080687D01*
X150386516Y-100095440D01*
X150370983Y-100053794D01*
X150385835Y-99985521D01*
X150391565Y-99976057D01*
X150488265Y-99831336D01*
X150555317Y-99669458D01*
X150589500Y-99497608D01*
X150589500Y-99322392D01*
X150555317Y-99150542D01*
X150555315Y-99150537D01*
X150488268Y-98988670D01*
X150488261Y-98988657D01*
X150390920Y-98842977D01*
X150390917Y-98842973D01*
X150267026Y-98719082D01*
X150267022Y-98719079D01*
X150121342Y-98621738D01*
X150121329Y-98621731D01*
X149959462Y-98554684D01*
X149959450Y-98554681D01*
X149787612Y-98520500D01*
X149787608Y-98520500D01*
X149612392Y-98520500D01*
X149612387Y-98520500D01*
X149440549Y-98554681D01*
X149440537Y-98554684D01*
X149278670Y-98621731D01*
X149278657Y-98621738D01*
X149132977Y-98719079D01*
X149132973Y-98719082D01*
X149009082Y-98842973D01*
X149009079Y-98842977D01*
X148911738Y-98988657D01*
X148911731Y-98988670D01*
X148844684Y-99150537D01*
X148844681Y-99150549D01*
X148810500Y-99322387D01*
X148810500Y-99497612D01*
X133389499Y-99497612D01*
X133389500Y-99497608D01*
X133389500Y-99322392D01*
X133355317Y-99150542D01*
X133355315Y-99150537D01*
X133288268Y-98988670D01*
X133288261Y-98988657D01*
X133190920Y-98842977D01*
X133190917Y-98842973D01*
X133067026Y-98719082D01*
X133067022Y-98719079D01*
X132921342Y-98621738D01*
X132921329Y-98621731D01*
X132759462Y-98554684D01*
X132759450Y-98554681D01*
X132587612Y-98520500D01*
X132587608Y-98520500D01*
X132412392Y-98520500D01*
X132412387Y-98520500D01*
X132240549Y-98554681D01*
X132240537Y-98554684D01*
X132078670Y-98621731D01*
X132078657Y-98621738D01*
X131932977Y-98719079D01*
X131932973Y-98719082D01*
X131809082Y-98842973D01*
X131809079Y-98842977D01*
X131711738Y-98988657D01*
X131711731Y-98988670D01*
X131644684Y-99150537D01*
X131644681Y-99150549D01*
X131610500Y-99322387D01*
X131610500Y-99497612D01*
X118389499Y-99497612D01*
X118389500Y-99497608D01*
X118389500Y-99322392D01*
X118355317Y-99150542D01*
X118355315Y-99150537D01*
X118288268Y-98988670D01*
X118288261Y-98988657D01*
X118190920Y-98842977D01*
X118190917Y-98842973D01*
X118067026Y-98719082D01*
X118067022Y-98719079D01*
X117921342Y-98621738D01*
X117921329Y-98621731D01*
X117759462Y-98554684D01*
X117759450Y-98554681D01*
X117587612Y-98520500D01*
X117587608Y-98520500D01*
X117412392Y-98520500D01*
X117412387Y-98520500D01*
X117240549Y-98554681D01*
X117240537Y-98554684D01*
X117078670Y-98621731D01*
X117078657Y-98621738D01*
X116932977Y-98719079D01*
X116932973Y-98719082D01*
X116809082Y-98842973D01*
X116809079Y-98842977D01*
X116711738Y-98988657D01*
X116711731Y-98988670D01*
X116644684Y-99150537D01*
X116644681Y-99150549D01*
X116610500Y-99322387D01*
X116610500Y-99497612D01*
X115900497Y-99497612D01*
X115900497Y-97450000D01*
X119444417Y-97450000D01*
X119464699Y-97655932D01*
X119464700Y-97655934D01*
X119524768Y-97853954D01*
X119622315Y-98036450D01*
X119622317Y-98036452D01*
X119753589Y-98196410D01*
X119850209Y-98275702D01*
X119913550Y-98327685D01*
X120096046Y-98425232D01*
X120294066Y-98485300D01*
X120294065Y-98485300D01*
X120312529Y-98487118D01*
X120500000Y-98505583D01*
X120705934Y-98485300D01*
X120903954Y-98425232D01*
X121086450Y-98327685D01*
X121246410Y-98196410D01*
X121377685Y-98036450D01*
X121475232Y-97853954D01*
X121535300Y-97655934D01*
X121555583Y-97450000D01*
X122444417Y-97450000D01*
X122464699Y-97655932D01*
X122464700Y-97655934D01*
X122524768Y-97853954D01*
X122622315Y-98036450D01*
X122622317Y-98036452D01*
X122753589Y-98196410D01*
X122850209Y-98275702D01*
X122913550Y-98327685D01*
X123096046Y-98425232D01*
X123294066Y-98485300D01*
X123294065Y-98485300D01*
X123312529Y-98487118D01*
X123500000Y-98505583D01*
X123705934Y-98485300D01*
X123903954Y-98425232D01*
X124086450Y-98327685D01*
X124246410Y-98196410D01*
X124377685Y-98036450D01*
X124475232Y-97853954D01*
X124535300Y-97655934D01*
X124555583Y-97450000D01*
X124535300Y-97244066D01*
X124514452Y-97175342D01*
X124513830Y-97105478D01*
X124545431Y-97051670D01*
X125110285Y-96486819D01*
X125171608Y-96453334D01*
X125197966Y-96450500D01*
X125715424Y-96450500D01*
X125782463Y-96470185D01*
X125828218Y-96522989D01*
X125838162Y-96592147D01*
X125809137Y-96655703D01*
X125794088Y-96670354D01*
X125753589Y-96703589D01*
X125622317Y-96863547D01*
X125524769Y-97046043D01*
X125464699Y-97244067D01*
X125444417Y-97450000D01*
X125464699Y-97655932D01*
X125464700Y-97655934D01*
X125524768Y-97853954D01*
X125622315Y-98036450D01*
X125622317Y-98036452D01*
X125753589Y-98196410D01*
X125850209Y-98275702D01*
X125913550Y-98327685D01*
X126096046Y-98425232D01*
X126294066Y-98485300D01*
X126294065Y-98485300D01*
X126312529Y-98487118D01*
X126500000Y-98505583D01*
X126705934Y-98485300D01*
X126903954Y-98425232D01*
X127086450Y-98327685D01*
X127246410Y-98196410D01*
X127377685Y-98036450D01*
X127475232Y-97853954D01*
X127535300Y-97655934D01*
X127555583Y-97450000D01*
X127535300Y-97244066D01*
X127475232Y-97046046D01*
X127377685Y-96863550D01*
X127325702Y-96800209D01*
X127246410Y-96703589D01*
X127205912Y-96670354D01*
X127166577Y-96612608D01*
X127164706Y-96542763D01*
X127200893Y-96482995D01*
X127263649Y-96452279D01*
X127284576Y-96450500D01*
X128715424Y-96450500D01*
X128782463Y-96470185D01*
X128828218Y-96522989D01*
X128838162Y-96592147D01*
X128809137Y-96655703D01*
X128794088Y-96670354D01*
X128753589Y-96703589D01*
X128622317Y-96863547D01*
X128524769Y-97046043D01*
X128464699Y-97244067D01*
X128444417Y-97450000D01*
X128464699Y-97655932D01*
X128464700Y-97655934D01*
X128524768Y-97853954D01*
X128622315Y-98036450D01*
X128622317Y-98036452D01*
X128753589Y-98196410D01*
X128850209Y-98275702D01*
X128913550Y-98327685D01*
X129096046Y-98425232D01*
X129294066Y-98485300D01*
X129294065Y-98485300D01*
X129312529Y-98487118D01*
X129500000Y-98505583D01*
X129705934Y-98485300D01*
X129903954Y-98425232D01*
X130086450Y-98327685D01*
X130246410Y-98196410D01*
X130377685Y-98036450D01*
X130475232Y-97853954D01*
X130535300Y-97655934D01*
X130555583Y-97450000D01*
X130535300Y-97244066D01*
X130475232Y-97046046D01*
X130377685Y-96863550D01*
X130325702Y-96800209D01*
X130246410Y-96703589D01*
X130205912Y-96670354D01*
X130166577Y-96612608D01*
X130164706Y-96542763D01*
X130200893Y-96482995D01*
X130263649Y-96452279D01*
X130284576Y-96450500D01*
X134962035Y-96450500D01*
X135029074Y-96470185D01*
X135049716Y-96486819D01*
X135094189Y-96531292D01*
X135121068Y-96571519D01*
X135175464Y-96702841D01*
X135271718Y-96828282D01*
X135397159Y-96924536D01*
X135543238Y-96985044D01*
X135621619Y-96995363D01*
X135699999Y-97005682D01*
X135700000Y-97005682D01*
X135700001Y-97005682D01*
X135752254Y-96998802D01*
X135856762Y-96985044D01*
X136002841Y-96924536D01*
X136128282Y-96828282D01*
X136224536Y-96702841D01*
X136285044Y-96556762D01*
X136305682Y-96400000D01*
X136285044Y-96243238D01*
X136224536Y-96097159D01*
X136128282Y-95971718D01*
X136002841Y-95875464D01*
X135856762Y-95814956D01*
X135856760Y-95814955D01*
X135700001Y-95794318D01*
X135691873Y-95794318D01*
X135691873Y-95793044D01*
X135630982Y-95783545D01*
X135596159Y-95759056D01*
X135476616Y-95639513D01*
X135476614Y-95639511D01*
X135425250Y-95609856D01*
X135373888Y-95580201D01*
X135361780Y-95576957D01*
X135349673Y-95573713D01*
X135349670Y-95573712D01*
X135311478Y-95563478D01*
X135259309Y-95549500D01*
X124900691Y-95549500D01*
X124810325Y-95573713D01*
X124810324Y-95573712D01*
X124786115Y-95580200D01*
X124786106Y-95580204D01*
X124683392Y-95639505D01*
X124683384Y-95639511D01*
X123913675Y-96409220D01*
X123852352Y-96442705D01*
X123790000Y-96440200D01*
X123705933Y-96414699D01*
X123705934Y-96414699D01*
X123500000Y-96394417D01*
X123294067Y-96414699D01*
X123096043Y-96474769D01*
X122990298Y-96531292D01*
X122913550Y-96572315D01*
X122913548Y-96572316D01*
X122913547Y-96572317D01*
X122753589Y-96703589D01*
X122622317Y-96863547D01*
X122524769Y-97046043D01*
X122464699Y-97244067D01*
X122444417Y-97450000D01*
X121555583Y-97450000D01*
X121535300Y-97244066D01*
X121475232Y-97046046D01*
X121377685Y-96863550D01*
X121325702Y-96800209D01*
X121246410Y-96703589D01*
X121128677Y-96606969D01*
X121086450Y-96572315D01*
X120903954Y-96474768D01*
X120705934Y-96414700D01*
X120705932Y-96414699D01*
X120705934Y-96414699D01*
X120500000Y-96394417D01*
X120294067Y-96414699D01*
X120096043Y-96474769D01*
X119990298Y-96531292D01*
X119913550Y-96572315D01*
X119913548Y-96572316D01*
X119913547Y-96572317D01*
X119753589Y-96703589D01*
X119622317Y-96863547D01*
X119524769Y-97046043D01*
X119464699Y-97244067D01*
X119444417Y-97450000D01*
X115900497Y-97450000D01*
X115900497Y-86714989D01*
X117545497Y-86714989D01*
X117545498Y-86715005D01*
X117575515Y-86943009D01*
X117575516Y-86943014D01*
X117575517Y-86943020D01*
X117622639Y-87118882D01*
X117635043Y-87165175D01*
X117635046Y-87165185D01*
X117723054Y-87377654D01*
X117723058Y-87377664D01*
X117838052Y-87576839D01*
X117978061Y-87759303D01*
X117978067Y-87759310D01*
X118140686Y-87921929D01*
X118140693Y-87921935D01*
X118323157Y-88061944D01*
X118522332Y-88176938D01*
X118522333Y-88176938D01*
X118522336Y-88176940D01*
X118734821Y-88264954D01*
X118956977Y-88324480D01*
X119185001Y-88354500D01*
X119185008Y-88354500D01*
X119414986Y-88354500D01*
X119414993Y-88354500D01*
X119643017Y-88324480D01*
X119865173Y-88264954D01*
X120077658Y-88176940D01*
X120276837Y-88061944D01*
X120459302Y-87921934D01*
X120621931Y-87759305D01*
X120761941Y-87576840D01*
X120876937Y-87377661D01*
X120964951Y-87165176D01*
X120979880Y-87109458D01*
X133520300Y-87109458D01*
X133523154Y-87139898D01*
X133523154Y-87139899D01*
X133568006Y-87268081D01*
X133568007Y-87268082D01*
X133648650Y-87377350D01*
X133757918Y-87457993D01*
X133886102Y-87502846D01*
X133886101Y-87502846D01*
X133890071Y-87503218D01*
X133916535Y-87505700D01*
X135025064Y-87505699D01*
X135055498Y-87502846D01*
X135183682Y-87457993D01*
X135292950Y-87377350D01*
X135373593Y-87268082D01*
X135418446Y-87139898D01*
X135421300Y-87109465D01*
X135421300Y-86653582D01*
X136220800Y-86653582D01*
X136251578Y-86847905D01*
X136312381Y-87035035D01*
X136401704Y-87210343D01*
X136517355Y-87369521D01*
X136656478Y-87508644D01*
X136815656Y-87624295D01*
X136990962Y-87713618D01*
X137178083Y-87774418D01*
X137220800Y-87781184D01*
X137220800Y-86739760D01*
X137273947Y-86770445D01*
X137403657Y-86805200D01*
X137537943Y-86805200D01*
X137667653Y-86770445D01*
X137720800Y-86739760D01*
X137720800Y-87781183D01*
X137763516Y-87774418D01*
X137950637Y-87713618D01*
X138125943Y-87624295D01*
X138285121Y-87508644D01*
X138424244Y-87369521D01*
X138539895Y-87210343D01*
X138629218Y-87035035D01*
X138690021Y-86847905D01*
X138720800Y-86653582D01*
X138720800Y-86545200D01*
X137915360Y-86545200D01*
X137946045Y-86492053D01*
X137980800Y-86362343D01*
X137980800Y-86228057D01*
X137946045Y-86098347D01*
X137915360Y-86045200D01*
X138720800Y-86045200D01*
X138720800Y-85936817D01*
X138690021Y-85742494D01*
X138629218Y-85555364D01*
X138617925Y-85533200D01*
X146149551Y-85533200D01*
X146169317Y-85784351D01*
X146228126Y-86029310D01*
X146324533Y-86262059D01*
X146456160Y-86476853D01*
X146456161Y-86476856D01*
X146511604Y-86541771D01*
X146619776Y-86668424D01*
X146739227Y-86770445D01*
X146811343Y-86832038D01*
X146811346Y-86832039D01*
X147026140Y-86963666D01*
X147258889Y-87060073D01*
X147503852Y-87118883D01*
X147755000Y-87138649D01*
X148006148Y-87118883D01*
X148251111Y-87060073D01*
X148483859Y-86963666D01*
X148698659Y-86832036D01*
X148890224Y-86668424D01*
X149053836Y-86476859D01*
X149185466Y-86262059D01*
X149281873Y-86029311D01*
X149340683Y-85784348D01*
X149360449Y-85533200D01*
X149356451Y-85482401D01*
X150320547Y-85482401D01*
X150339936Y-85753490D01*
X150339937Y-85753497D01*
X150397705Y-86019054D01*
X150492685Y-86273706D01*
X150492687Y-86273710D01*
X150622932Y-86512235D01*
X150622937Y-86512243D01*
X150716721Y-86637523D01*
X150716722Y-86637524D01*
X151509553Y-85844693D01*
X151516449Y-85861342D01*
X151603999Y-85992370D01*
X151715430Y-86103801D01*
X151846458Y-86191351D01*
X151863105Y-86198246D01*
X151070274Y-86991076D01*
X151195563Y-87084866D01*
X151195564Y-87084867D01*
X151434089Y-87215112D01*
X151434093Y-87215114D01*
X151688745Y-87310094D01*
X151954302Y-87367862D01*
X151954309Y-87367863D01*
X152225399Y-87387253D01*
X152225401Y-87387253D01*
X152496490Y-87367863D01*
X152496497Y-87367862D01*
X152762054Y-87310094D01*
X153016706Y-87215114D01*
X153016710Y-87215112D01*
X153255244Y-87084862D01*
X153380523Y-86991077D01*
X153380524Y-86991076D01*
X153104437Y-86714989D01*
X161245500Y-86714989D01*
X161245501Y-86715005D01*
X161275518Y-86943009D01*
X161275519Y-86943014D01*
X161275520Y-86943020D01*
X161322642Y-87118882D01*
X161335046Y-87165175D01*
X161335049Y-87165185D01*
X161423057Y-87377654D01*
X161423061Y-87377664D01*
X161538055Y-87576839D01*
X161678064Y-87759303D01*
X161678070Y-87759310D01*
X161840689Y-87921929D01*
X161840696Y-87921935D01*
X162023160Y-88061944D01*
X162222335Y-88176938D01*
X162222336Y-88176938D01*
X162222339Y-88176940D01*
X162434824Y-88264954D01*
X162656980Y-88324480D01*
X162885004Y-88354500D01*
X162885011Y-88354500D01*
X163114989Y-88354500D01*
X163114996Y-88354500D01*
X163343020Y-88324480D01*
X163565176Y-88264954D01*
X163777661Y-88176940D01*
X163976840Y-88061944D01*
X164159305Y-87921934D01*
X164321934Y-87759305D01*
X164461944Y-87576840D01*
X164576940Y-87377661D01*
X164664954Y-87165176D01*
X164724480Y-86943020D01*
X164754500Y-86714996D01*
X164754500Y-86485004D01*
X164724480Y-86256980D01*
X164664954Y-86034824D01*
X164662670Y-86029311D01*
X164593286Y-85861803D01*
X164576940Y-85822339D01*
X164530841Y-85742494D01*
X164461944Y-85623160D01*
X164321935Y-85440696D01*
X164321929Y-85440689D01*
X164159310Y-85278070D01*
X164159303Y-85278064D01*
X163976839Y-85138055D01*
X163777664Y-85023061D01*
X163777654Y-85023057D01*
X163565185Y-84935049D01*
X163565178Y-84935047D01*
X163565176Y-84935046D01*
X163343020Y-84875520D01*
X163343014Y-84875519D01*
X163343009Y-84875518D01*
X163115005Y-84845501D01*
X163115002Y-84845500D01*
X163114996Y-84845500D01*
X162885004Y-84845500D01*
X162884998Y-84845500D01*
X162884994Y-84845501D01*
X162656990Y-84875518D01*
X162656983Y-84875519D01*
X162656980Y-84875520D01*
X162557311Y-84902226D01*
X162434824Y-84935046D01*
X162434814Y-84935049D01*
X162222345Y-85023057D01*
X162222335Y-85023061D01*
X162023160Y-85138055D01*
X161840696Y-85278064D01*
X161840689Y-85278070D01*
X161678070Y-85440689D01*
X161678064Y-85440696D01*
X161538055Y-85623160D01*
X161423061Y-85822335D01*
X161423057Y-85822345D01*
X161335049Y-86034814D01*
X161335046Y-86034824D01*
X161283817Y-86226017D01*
X161275521Y-86256977D01*
X161275518Y-86256990D01*
X161245501Y-86484994D01*
X161245500Y-86485010D01*
X161245500Y-86714989D01*
X153104437Y-86714989D01*
X152587694Y-86198246D01*
X152604342Y-86191351D01*
X152735370Y-86103801D01*
X152846801Y-85992370D01*
X152934351Y-85861342D01*
X152941246Y-85844694D01*
X153734076Y-86637524D01*
X153734077Y-86637523D01*
X153827862Y-86512244D01*
X153958112Y-86273710D01*
X153958114Y-86273706D01*
X154053094Y-86019054D01*
X154110862Y-85753497D01*
X154110863Y-85753490D01*
X154130253Y-85482401D01*
X154130253Y-85482398D01*
X154110863Y-85211309D01*
X154110862Y-85211302D01*
X154053094Y-84945745D01*
X153958114Y-84691093D01*
X153958112Y-84691089D01*
X153827867Y-84452564D01*
X153827866Y-84452563D01*
X153734076Y-84327274D01*
X152941246Y-85120104D01*
X152934351Y-85103458D01*
X152846801Y-84972430D01*
X152735370Y-84860999D01*
X152604342Y-84773449D01*
X152587694Y-84766553D01*
X153380524Y-83973722D01*
X153380523Y-83973721D01*
X153255243Y-83879937D01*
X153255235Y-83879932D01*
X153016710Y-83749687D01*
X153016706Y-83749685D01*
X152762054Y-83654705D01*
X152496497Y-83596937D01*
X152496490Y-83596936D01*
X152225401Y-83577547D01*
X152225399Y-83577547D01*
X151954309Y-83596936D01*
X151954302Y-83596937D01*
X151688745Y-83654705D01*
X151434093Y-83749685D01*
X151434089Y-83749687D01*
X151195564Y-83879932D01*
X151195556Y-83879937D01*
X151070275Y-83973721D01*
X151070274Y-83973722D01*
X151863105Y-84766553D01*
X151846458Y-84773449D01*
X151715430Y-84860999D01*
X151603999Y-84972430D01*
X151516449Y-85103458D01*
X151509553Y-85120105D01*
X150716722Y-84327274D01*
X150716721Y-84327275D01*
X150622937Y-84452556D01*
X150622932Y-84452564D01*
X150492687Y-84691089D01*
X150492685Y-84691093D01*
X150397705Y-84945745D01*
X150339937Y-85211302D01*
X150339936Y-85211309D01*
X150320547Y-85482398D01*
X150320547Y-85482401D01*
X149356451Y-85482401D01*
X149340683Y-85282052D01*
X149281873Y-85037089D01*
X149276061Y-85023057D01*
X149185466Y-84804340D01*
X149053839Y-84589546D01*
X149053838Y-84589543D01*
X149008256Y-84536174D01*
X148890224Y-84397976D01*
X148714146Y-84247591D01*
X148698656Y-84234361D01*
X148698653Y-84234360D01*
X148483859Y-84102733D01*
X148251110Y-84006326D01*
X148006151Y-83947517D01*
X147755000Y-83927751D01*
X147503848Y-83947517D01*
X147258889Y-84006326D01*
X147026140Y-84102733D01*
X146811346Y-84234360D01*
X146811343Y-84234361D01*
X146619776Y-84397976D01*
X146456161Y-84589543D01*
X146456160Y-84589546D01*
X146324533Y-84804340D01*
X146228126Y-85037089D01*
X146169317Y-85282048D01*
X146149551Y-85533200D01*
X138617925Y-85533200D01*
X138539895Y-85380056D01*
X138424244Y-85220878D01*
X138285121Y-85081755D01*
X138125943Y-84966104D01*
X137950635Y-84876781D01*
X137763505Y-84815978D01*
X137720800Y-84809214D01*
X137720800Y-85850639D01*
X137667653Y-85819955D01*
X137537943Y-85785200D01*
X137403657Y-85785200D01*
X137273947Y-85819955D01*
X137220800Y-85850639D01*
X137220800Y-84809214D01*
X137220799Y-84809214D01*
X137178094Y-84815978D01*
X136990964Y-84876781D01*
X136815656Y-84966104D01*
X136656478Y-85081755D01*
X136517355Y-85220878D01*
X136401704Y-85380056D01*
X136312381Y-85555364D01*
X136251578Y-85742494D01*
X136220800Y-85936817D01*
X136220800Y-86045200D01*
X137026240Y-86045200D01*
X136995555Y-86098347D01*
X136960800Y-86228057D01*
X136960800Y-86362343D01*
X136995555Y-86492053D01*
X137026240Y-86545200D01*
X136220800Y-86545200D01*
X136220800Y-86653582D01*
X135421300Y-86653582D01*
X135421299Y-85480936D01*
X135418446Y-85450502D01*
X135373593Y-85322318D01*
X135292950Y-85213050D01*
X135206502Y-85149249D01*
X135183681Y-85132406D01*
X135055495Y-85087553D01*
X135055498Y-85087553D01*
X135025068Y-85084700D01*
X133916541Y-85084700D01*
X133886101Y-85087554D01*
X133886100Y-85087554D01*
X133757918Y-85132406D01*
X133648650Y-85213050D01*
X133568006Y-85322318D01*
X133523153Y-85450502D01*
X133520300Y-85480931D01*
X133520300Y-87109458D01*
X120979880Y-87109458D01*
X121024477Y-86943020D01*
X121054497Y-86714996D01*
X121054497Y-86485004D01*
X121024477Y-86256980D01*
X120964951Y-86034824D01*
X120962667Y-86029311D01*
X120893283Y-85861803D01*
X120876937Y-85822339D01*
X120830838Y-85742494D01*
X120761941Y-85623160D01*
X120621932Y-85440696D01*
X120621926Y-85440689D01*
X120459307Y-85278070D01*
X120459300Y-85278064D01*
X120276836Y-85138055D01*
X120077661Y-85023061D01*
X120077651Y-85023057D01*
X119865182Y-84935049D01*
X119865175Y-84935047D01*
X119865173Y-84935046D01*
X119643017Y-84875520D01*
X119643011Y-84875519D01*
X119643006Y-84875518D01*
X119415002Y-84845501D01*
X119414999Y-84845500D01*
X119414993Y-84845500D01*
X119185001Y-84845500D01*
X119184995Y-84845500D01*
X119184991Y-84845501D01*
X118956987Y-84875518D01*
X118956980Y-84875519D01*
X118956977Y-84875520D01*
X118857308Y-84902226D01*
X118734821Y-84935046D01*
X118734811Y-84935049D01*
X118522342Y-85023057D01*
X118522332Y-85023061D01*
X118323157Y-85138055D01*
X118140693Y-85278064D01*
X118140686Y-85278070D01*
X117978067Y-85440689D01*
X117978061Y-85440696D01*
X117838052Y-85623160D01*
X117723058Y-85822335D01*
X117723054Y-85822345D01*
X117635046Y-86034814D01*
X117635043Y-86034824D01*
X117583814Y-86226017D01*
X117575518Y-86256977D01*
X117575515Y-86256990D01*
X117545498Y-86484994D01*
X117545497Y-86485010D01*
X117545497Y-86714989D01*
X115900497Y-86714989D01*
X115900497Y-86506401D01*
X115900828Y-86497352D01*
X115902328Y-86476853D01*
X115925631Y-86158391D01*
X115927218Y-86145725D01*
X115986562Y-85812682D01*
X115989447Y-85800246D01*
X116082817Y-85475089D01*
X116086971Y-85463013D01*
X116213363Y-85149237D01*
X116218742Y-85137648D01*
X116376815Y-84838571D01*
X116383359Y-84827602D01*
X116571427Y-84546420D01*
X116579063Y-84536188D01*
X116673172Y-84422812D01*
X130581300Y-84422812D01*
X130615481Y-84594650D01*
X130615484Y-84594662D01*
X130682531Y-84756529D01*
X130682538Y-84756542D01*
X130779879Y-84902222D01*
X130779882Y-84902226D01*
X130903773Y-85026117D01*
X130903777Y-85026120D01*
X131049457Y-85123461D01*
X131049470Y-85123468D01*
X131211337Y-85190515D01*
X131211342Y-85190517D01*
X131383187Y-85224699D01*
X131383191Y-85224700D01*
X131383192Y-85224700D01*
X131558409Y-85224700D01*
X131558410Y-85224699D01*
X131730258Y-85190517D01*
X131870548Y-85132407D01*
X131892129Y-85123468D01*
X131892129Y-85123467D01*
X131892136Y-85123465D01*
X132037823Y-85026120D01*
X132161720Y-84902223D01*
X132259065Y-84756536D01*
X132326117Y-84594658D01*
X132360299Y-84422812D01*
X139581300Y-84422812D01*
X139615481Y-84594650D01*
X139615484Y-84594662D01*
X139682531Y-84756529D01*
X139682538Y-84756542D01*
X139779879Y-84902222D01*
X139779882Y-84902226D01*
X139903773Y-85026117D01*
X139903777Y-85026120D01*
X140049457Y-85123461D01*
X140049470Y-85123468D01*
X140211337Y-85190515D01*
X140211342Y-85190517D01*
X140383187Y-85224699D01*
X140383191Y-85224700D01*
X140383192Y-85224700D01*
X140558409Y-85224700D01*
X140558410Y-85224699D01*
X140730258Y-85190517D01*
X140870548Y-85132407D01*
X140892129Y-85123468D01*
X140892129Y-85123467D01*
X140892136Y-85123465D01*
X141037823Y-85026120D01*
X141161720Y-84902223D01*
X141259065Y-84756536D01*
X141326117Y-84594658D01*
X141360300Y-84422808D01*
X141360300Y-84247592D01*
X141326117Y-84075742D01*
X141303610Y-84021405D01*
X141259068Y-83913870D01*
X141259061Y-83913857D01*
X141161720Y-83768177D01*
X141161717Y-83768173D01*
X141037826Y-83644282D01*
X141037822Y-83644279D01*
X140892142Y-83546938D01*
X140892129Y-83546931D01*
X140730262Y-83479884D01*
X140730250Y-83479881D01*
X140558412Y-83445700D01*
X140558408Y-83445700D01*
X140383192Y-83445700D01*
X140383187Y-83445700D01*
X140211349Y-83479881D01*
X140211337Y-83479884D01*
X140049470Y-83546931D01*
X140049457Y-83546938D01*
X139903777Y-83644279D01*
X139903773Y-83644282D01*
X139779882Y-83768173D01*
X139779879Y-83768177D01*
X139682538Y-83913857D01*
X139682531Y-83913870D01*
X139615484Y-84075737D01*
X139615481Y-84075749D01*
X139581300Y-84247587D01*
X139581300Y-84422812D01*
X132360299Y-84422812D01*
X132360300Y-84422808D01*
X132360300Y-84247592D01*
X132326117Y-84075742D01*
X132303610Y-84021405D01*
X132259068Y-83913870D01*
X132259061Y-83913857D01*
X132161720Y-83768177D01*
X132161717Y-83768173D01*
X132037826Y-83644282D01*
X132037822Y-83644279D01*
X131892142Y-83546938D01*
X131892129Y-83546931D01*
X131730262Y-83479884D01*
X131730250Y-83479881D01*
X131558412Y-83445700D01*
X131558408Y-83445700D01*
X131383192Y-83445700D01*
X131383187Y-83445700D01*
X131211349Y-83479881D01*
X131211337Y-83479884D01*
X131049470Y-83546931D01*
X131049457Y-83546938D01*
X130903777Y-83644279D01*
X130903773Y-83644282D01*
X130779882Y-83768173D01*
X130779879Y-83768177D01*
X130682538Y-83913857D01*
X130682531Y-83913870D01*
X130615484Y-84075737D01*
X130615481Y-84075749D01*
X130581300Y-84247587D01*
X130581300Y-84422812D01*
X116673172Y-84422812D01*
X116795127Y-84275888D01*
X116803782Y-84266493D01*
X117045527Y-84029866D01*
X117055105Y-84021414D01*
X117319962Y-83810973D01*
X117330354Y-83803557D01*
X117615508Y-83621540D01*
X117626608Y-83615237D01*
X117928994Y-83463601D01*
X117940713Y-83458464D01*
X118257095Y-83338824D01*
X118269288Y-83334920D01*
X118585717Y-83251341D01*
X118596330Y-83248537D01*
X118608840Y-83245914D01*
X118943061Y-83193711D01*
X118955796Y-83192392D01*
X119281813Y-83175538D01*
X119288214Y-83175374D01*
X162973071Y-83175374D01*
X162996754Y-83175374D01*
X163003243Y-83175543D01*
G37*
%TD.AperFunction*%
%TA.AperFunction,Conductor*%
G36*
X131554773Y-124319685D02*
G01*
X131600528Y-124372489D01*
X131610472Y-124441647D01*
X131602295Y-124471452D01*
X131544684Y-124610537D01*
X131544681Y-124610549D01*
X131510500Y-124782387D01*
X131510500Y-124957612D01*
X131544681Y-125129450D01*
X131544684Y-125129462D01*
X131611731Y-125291329D01*
X131611738Y-125291342D01*
X131709079Y-125437022D01*
X131709082Y-125437026D01*
X131832973Y-125560917D01*
X131832977Y-125560920D01*
X131978657Y-125658261D01*
X131978670Y-125658268D01*
X132140537Y-125725315D01*
X132140542Y-125725317D01*
X132312387Y-125759499D01*
X132312391Y-125759500D01*
X132312392Y-125759500D01*
X132487609Y-125759500D01*
X132487610Y-125759499D01*
X132659458Y-125725317D01*
X132821336Y-125658265D01*
X132967023Y-125560920D01*
X133090920Y-125437023D01*
X133188265Y-125291336D01*
X133255317Y-125129458D01*
X133289500Y-124957608D01*
X133289500Y-124782392D01*
X133255317Y-124610542D01*
X133255315Y-124610537D01*
X133197705Y-124471452D01*
X133190236Y-124401983D01*
X133221511Y-124339504D01*
X133281601Y-124303852D01*
X133312266Y-124300000D01*
X140326000Y-124300000D01*
X140393039Y-124319685D01*
X140438794Y-124372489D01*
X140450000Y-124424000D01*
X140450000Y-140575694D01*
X140430315Y-140642733D01*
X140413681Y-140663375D01*
X140409082Y-140667973D01*
X140409079Y-140667977D01*
X140311738Y-140813657D01*
X140311731Y-140813670D01*
X140244684Y-140975537D01*
X140244681Y-140975549D01*
X140210500Y-141147387D01*
X140210500Y-141322612D01*
X140244681Y-141494450D01*
X140244684Y-141494462D01*
X140311731Y-141656329D01*
X140311738Y-141656342D01*
X140409079Y-141802022D01*
X140409080Y-141802024D01*
X140413676Y-141806619D01*
X140447165Y-141867940D01*
X140450000Y-141894305D01*
X140450000Y-142126000D01*
X140430315Y-142193039D01*
X140377511Y-142238794D01*
X140326000Y-142250000D01*
X133801362Y-142250000D01*
X133734323Y-142230315D01*
X133713681Y-142213681D01*
X133008677Y-141508677D01*
X132975192Y-141447354D01*
X132974741Y-141396806D01*
X132989500Y-141322608D01*
X132989500Y-141147392D01*
X132955317Y-140975542D01*
X132955315Y-140975537D01*
X132888268Y-140813670D01*
X132888261Y-140813657D01*
X132790920Y-140667977D01*
X132790917Y-140667973D01*
X132667026Y-140544082D01*
X132667022Y-140544079D01*
X132521342Y-140446738D01*
X132521329Y-140446731D01*
X132359462Y-140379684D01*
X132359450Y-140379681D01*
X132187612Y-140345500D01*
X132187608Y-140345500D01*
X132012392Y-140345500D01*
X132012387Y-140345500D01*
X131938194Y-140360258D01*
X131868602Y-140354031D01*
X131826322Y-140326322D01*
X131133382Y-139633382D01*
X133850000Y-139633382D01*
X133880778Y-139827705D01*
X133941581Y-140014835D01*
X134030904Y-140190143D01*
X134146555Y-140349321D01*
X134285678Y-140488444D01*
X134444856Y-140604095D01*
X134620162Y-140693418D01*
X134807283Y-140754218D01*
X134850000Y-140760984D01*
X134850000Y-139719560D01*
X134903147Y-139750245D01*
X135032857Y-139785000D01*
X135167143Y-139785000D01*
X135296853Y-139750245D01*
X135350000Y-139719560D01*
X135350000Y-140760983D01*
X135392716Y-140754218D01*
X135579837Y-140693418D01*
X135755143Y-140604095D01*
X135914321Y-140488444D01*
X136053444Y-140349321D01*
X136169095Y-140190143D01*
X136220498Y-140089258D01*
X137149500Y-140089258D01*
X137152354Y-140119698D01*
X137152354Y-140119699D01*
X137197206Y-140247881D01*
X137197207Y-140247882D01*
X137277850Y-140357150D01*
X137387118Y-140437793D01*
X137515302Y-140482646D01*
X137515301Y-140482646D01*
X137519271Y-140483018D01*
X137545735Y-140485500D01*
X138654264Y-140485499D01*
X138684698Y-140482646D01*
X138812882Y-140437793D01*
X138922150Y-140357150D01*
X139002793Y-140247882D01*
X139047646Y-140119698D01*
X139050500Y-140089265D01*
X139050499Y-138460736D01*
X139047646Y-138430302D01*
X139002793Y-138302118D01*
X138922150Y-138192850D01*
X138812882Y-138112207D01*
X138812881Y-138112206D01*
X138684695Y-138067353D01*
X138684698Y-138067353D01*
X138654268Y-138064500D01*
X137545741Y-138064500D01*
X137515301Y-138067354D01*
X137515300Y-138067354D01*
X137387118Y-138112206D01*
X137277850Y-138192850D01*
X137197206Y-138302118D01*
X137152353Y-138430302D01*
X137149500Y-138460731D01*
X137149500Y-140089258D01*
X136220498Y-140089258D01*
X136258418Y-140014835D01*
X136319221Y-139827705D01*
X136350000Y-139633382D01*
X136350000Y-139525000D01*
X135544560Y-139525000D01*
X135575245Y-139471853D01*
X135610000Y-139342143D01*
X135610000Y-139207857D01*
X135575245Y-139078147D01*
X135544560Y-139025000D01*
X136350000Y-139025000D01*
X136350000Y-138916617D01*
X136319221Y-138722294D01*
X136258418Y-138535164D01*
X136169095Y-138359856D01*
X136053444Y-138200678D01*
X135914321Y-138061555D01*
X135755143Y-137945904D01*
X135579835Y-137856581D01*
X135392705Y-137795778D01*
X135350000Y-137789014D01*
X135350000Y-138830439D01*
X135296853Y-138799755D01*
X135167143Y-138765000D01*
X135032857Y-138765000D01*
X134903147Y-138799755D01*
X134850000Y-138830439D01*
X134850000Y-137789014D01*
X134849999Y-137789014D01*
X134807294Y-137795778D01*
X134620164Y-137856581D01*
X134444856Y-137945904D01*
X134285678Y-138061555D01*
X134146555Y-138200678D01*
X134030904Y-138359856D01*
X133941581Y-138535164D01*
X133880778Y-138722294D01*
X133850000Y-138916617D01*
X133850000Y-139025000D01*
X134655440Y-139025000D01*
X134624755Y-139078147D01*
X134590000Y-139207857D01*
X134590000Y-139342143D01*
X134624755Y-139471853D01*
X134655440Y-139525000D01*
X133850000Y-139525000D01*
X133850000Y-139633382D01*
X131133382Y-139633382D01*
X125937612Y-134437612D01*
X132510500Y-134437612D01*
X132544681Y-134609450D01*
X132544684Y-134609462D01*
X132611731Y-134771329D01*
X132611738Y-134771342D01*
X132709079Y-134917022D01*
X132709082Y-134917026D01*
X132832973Y-135040917D01*
X132832977Y-135040920D01*
X132978657Y-135138261D01*
X132978670Y-135138268D01*
X133140537Y-135205315D01*
X133140542Y-135205317D01*
X133312387Y-135239499D01*
X133312391Y-135239500D01*
X133312392Y-135239500D01*
X133487609Y-135239500D01*
X133487610Y-135239499D01*
X133659458Y-135205317D01*
X133821336Y-135138265D01*
X133967023Y-135040920D01*
X134090920Y-134917023D01*
X134188265Y-134771336D01*
X134255317Y-134609458D01*
X134289500Y-134437608D01*
X134289500Y-134262392D01*
X134255317Y-134090542D01*
X134255315Y-134090537D01*
X134188268Y-133928670D01*
X134188261Y-133928657D01*
X134090920Y-133782977D01*
X134090917Y-133782973D01*
X133967026Y-133659082D01*
X133967022Y-133659079D01*
X133821342Y-133561738D01*
X133821329Y-133561731D01*
X133659462Y-133494684D01*
X133659450Y-133494681D01*
X133487612Y-133460500D01*
X133487608Y-133460500D01*
X133312392Y-133460500D01*
X133312387Y-133460500D01*
X133140549Y-133494681D01*
X133140537Y-133494684D01*
X132978670Y-133561731D01*
X132978657Y-133561738D01*
X132832977Y-133659079D01*
X132832973Y-133659082D01*
X132709082Y-133782973D01*
X132709079Y-133782977D01*
X132611738Y-133928657D01*
X132611731Y-133928670D01*
X132544684Y-134090537D01*
X132544681Y-134090549D01*
X132510500Y-134262387D01*
X132510500Y-134437612D01*
X125937612Y-134437612D01*
X124686319Y-133186319D01*
X124652834Y-133124996D01*
X124650000Y-133098638D01*
X124650000Y-132748382D01*
X126150000Y-132748382D01*
X126180778Y-132942705D01*
X126241581Y-133129835D01*
X126330904Y-133305143D01*
X126446555Y-133464321D01*
X126585678Y-133603444D01*
X126744856Y-133719095D01*
X126920162Y-133808418D01*
X127107283Y-133869218D01*
X127150000Y-133875984D01*
X127150000Y-132834560D01*
X127203147Y-132865245D01*
X127332857Y-132900000D01*
X127467143Y-132900000D01*
X127596853Y-132865245D01*
X127650000Y-132834560D01*
X127650000Y-133875983D01*
X127692716Y-133869218D01*
X127879837Y-133808418D01*
X128055143Y-133719095D01*
X128214321Y-133603444D01*
X128353444Y-133464321D01*
X128469095Y-133305143D01*
X128520498Y-133204258D01*
X129449500Y-133204258D01*
X129452354Y-133234698D01*
X129452354Y-133234699D01*
X129497206Y-133362881D01*
X129497207Y-133362882D01*
X129577850Y-133472150D01*
X129687118Y-133552793D01*
X129815302Y-133597646D01*
X129815301Y-133597646D01*
X129819271Y-133598018D01*
X129845735Y-133600500D01*
X130954264Y-133600499D01*
X130984698Y-133597646D01*
X131112882Y-133552793D01*
X131222150Y-133472150D01*
X131302793Y-133362882D01*
X131347646Y-133234698D01*
X131350500Y-133204265D01*
X131350499Y-131575736D01*
X131347646Y-131545302D01*
X131302793Y-131417118D01*
X131222150Y-131307850D01*
X131112882Y-131227207D01*
X131112881Y-131227206D01*
X130984695Y-131182353D01*
X130984698Y-131182353D01*
X130954268Y-131179500D01*
X129845741Y-131179500D01*
X129815301Y-131182354D01*
X129815300Y-131182354D01*
X129687118Y-131227206D01*
X129577850Y-131307850D01*
X129497206Y-131417118D01*
X129452353Y-131545302D01*
X129449500Y-131575731D01*
X129449500Y-133204258D01*
X128520498Y-133204258D01*
X128558418Y-133129835D01*
X128619221Y-132942705D01*
X128650000Y-132748382D01*
X128650000Y-132640000D01*
X127844560Y-132640000D01*
X127875245Y-132586853D01*
X127910000Y-132457143D01*
X127910000Y-132322857D01*
X127875245Y-132193147D01*
X127844560Y-132140000D01*
X128650000Y-132140000D01*
X128650000Y-132031617D01*
X128619221Y-131837294D01*
X128558418Y-131650164D01*
X128469095Y-131474856D01*
X128353444Y-131315678D01*
X128214321Y-131176555D01*
X128055143Y-131060904D01*
X127879835Y-130971581D01*
X127692705Y-130910778D01*
X127650000Y-130904014D01*
X127650000Y-131945439D01*
X127596853Y-131914755D01*
X127467143Y-131880000D01*
X127332857Y-131880000D01*
X127203147Y-131914755D01*
X127150000Y-131945439D01*
X127150000Y-130904014D01*
X127149999Y-130904014D01*
X127107294Y-130910778D01*
X126920164Y-130971581D01*
X126744856Y-131060904D01*
X126585678Y-131176555D01*
X126446555Y-131315678D01*
X126330904Y-131474856D01*
X126241581Y-131650164D01*
X126180778Y-131837294D01*
X126150000Y-132031617D01*
X126150000Y-132140000D01*
X126955440Y-132140000D01*
X126924755Y-132193147D01*
X126890000Y-132322857D01*
X126890000Y-132457143D01*
X126924755Y-132586853D01*
X126955440Y-132640000D01*
X126150000Y-132640000D01*
X126150000Y-132748382D01*
X124650000Y-132748382D01*
X124650000Y-124424000D01*
X124669685Y-124356961D01*
X124722489Y-124311206D01*
X124774000Y-124300000D01*
X131487734Y-124300000D01*
X131554773Y-124319685D01*
G37*
%TD.AperFunction*%
M02*
