M48
; DRILL file {KiCad 8.0.1} date 2024-11-23T23:09:43-0600
; FORMAT={-:-/ absolute / metric / decimal}
; #@! TF.CreationDate,2024-11-23T23:09:43-06:00
; #@! TF.GenerationSoftware,Kicad,Pcbnew,8.0.1
; #@! TF.FileFunction,NonPlated,1,2,NPTH
FMAT,2
METRIC
; #@! TA.AperFunction,NonPlated,NPTH,ComponentDrill
T1C1.270
; #@! TA.AperFunction,NonPlated,NPTH,ComponentDrill
T2C3.000
%
G90
G05
T1
X117.4Y-112.085
X117.4Y-124.87
X117.5Y-99.41
X124.4Y-134.35
X131.471Y-84.335
X132.1Y-141.235
X132.4Y-112.085
X132.4Y-124.87
X132.5Y-99.41
X133.4Y-134.35
X140.471Y-84.335
X141.1Y-141.235
X144.1Y-141.15
X149.7Y-99.41
X149.7Y-112.085
X149.7Y-124.87
X151.7Y-133.975
X153.1Y-141.15
X160.7Y-133.975
X164.7Y-99.41
X164.7Y-112.085
X164.7Y-124.87
T2
X119.3Y-86.6
X119.3Y-140.3
X163.0Y-86.6
X163.0Y-140.3
M30
