%TF.GenerationSoftware,KiCad,Pcbnew,8.0.1*%
%TF.CreationDate,2024-11-23T23:09:25-06:00*%
%TF.ProjectId,ContactorDriver,436f6e74-6163-4746-9f72-447269766572,rev?*%
%TF.SameCoordinates,Original*%
%TF.FileFunction,Soldermask,Top*%
%TF.FilePolarity,Negative*%
%FSLAX46Y46*%
G04 Gerber Fmt 4.6, Leading zero omitted, Abs format (unit mm)*
G04 Created by KiCad (PCBNEW 8.0.1) date 2024-11-23 23:09:25*
%MOMM*%
%LPD*%
G01*
G04 APERTURE LIST*
G04 Aperture macros list*
%AMRoundRect*
0 Rectangle with rounded corners*
0 $1 Rounding radius*
0 $2 $3 $4 $5 $6 $7 $8 $9 X,Y pos of 4 corners*
0 Add a 4 corners polygon primitive as box body*
4,1,4,$2,$3,$4,$5,$6,$7,$8,$9,$2,$3,0*
0 Add four circle primitives for the rounded corners*
1,1,$1+$1,$2,$3*
1,1,$1+$1,$4,$5*
1,1,$1+$1,$6,$7*
1,1,$1+$1,$8,$9*
0 Add four rect primitives between the rounded corners*
20,1,$1+$1,$2,$3,$4,$5,0*
20,1,$1+$1,$4,$5,$6,$7,0*
20,1,$1+$1,$6,$7,$8,$9,0*
20,1,$1+$1,$8,$9,$2,$3,0*%
G04 Aperture macros list end*
%ADD10RoundRect,0.150000X-0.587500X-0.150000X0.587500X-0.150000X0.587500X0.150000X-0.587500X0.150000X0*%
%ADD11C,3.000000*%
%ADD12RoundRect,0.250000X-0.262500X-0.450000X0.262500X-0.450000X0.262500X0.450000X-0.262500X0.450000X0*%
%ADD13R,1.200000X1.520000*%
%ADD14RoundRect,0.250000X0.350000X0.450000X-0.350000X0.450000X-0.350000X-0.450000X0.350000X-0.450000X0*%
%ADD15C,2.800000*%
%ADD16C,1.270000*%
%ADD17C,1.700000*%
%ADD18RoundRect,0.250000X-0.325000X-0.450000X0.325000X-0.450000X0.325000X0.450000X-0.325000X0.450000X0*%
%ADD19RoundRect,0.150000X0.662500X0.150000X-0.662500X0.150000X-0.662500X-0.150000X0.662500X-0.150000X0*%
%ADD20RoundRect,0.250000X-0.250000X-0.475000X0.250000X-0.475000X0.250000X0.475000X-0.250000X0.475000X0*%
%ADD21RoundRect,0.150000X0.150000X-0.587500X0.150000X0.587500X-0.150000X0.587500X-0.150000X-0.587500X0*%
%ADD22RoundRect,0.250001X0.499999X0.759999X-0.499999X0.759999X-0.499999X-0.759999X0.499999X-0.759999X0*%
%ADD23O,1.500000X2.020000*%
%ADD24RoundRect,0.250000X-0.450000X0.350000X-0.450000X-0.350000X0.450000X-0.350000X0.450000X0.350000X0*%
%ADD25R,0.910000X1.220000*%
%ADD26RoundRect,0.250000X0.262500X0.450000X-0.262500X0.450000X-0.262500X-0.450000X0.262500X-0.450000X0*%
%ADD27RoundRect,0.250001X-0.499999X-0.759999X0.499999X-0.759999X0.499999X0.759999X-0.499999X0.759999X0*%
%ADD28RoundRect,0.250000X0.450000X-0.350000X0.450000X0.350000X-0.450000X0.350000X-0.450000X-0.350000X0*%
%ADD29RoundRect,0.112500X0.112500X-0.187500X0.112500X0.187500X-0.112500X0.187500X-0.112500X-0.187500X0*%
%ADD30RoundRect,0.250000X0.325000X0.450000X-0.325000X0.450000X-0.325000X-0.450000X0.325000X-0.450000X0*%
G04 APERTURE END LIST*
D10*
X143525000Y-108625000D03*
X143525000Y-110525000D03*
X145400000Y-109575000D03*
D11*
X119299997Y-140300000D03*
D12*
X145512500Y-125350000D03*
X147337500Y-125350000D03*
D10*
X143512500Y-96100000D03*
X143512500Y-98000000D03*
X145387500Y-97050000D03*
D13*
X135180000Y-125025000D03*
X139500000Y-125025000D03*
D14*
X137475000Y-121775000D03*
X135475000Y-121775000D03*
D10*
X143512500Y-121462500D03*
X143512500Y-123362500D03*
X145387500Y-122412500D03*
D15*
X147755000Y-85533200D03*
D12*
X145537500Y-99975000D03*
X147362500Y-99975000D03*
D11*
X163000000Y-140300000D03*
D16*
X132400000Y-124870000D03*
X117400000Y-124870000D03*
D17*
X129400000Y-122910000D03*
X126400000Y-122910000D03*
X123400000Y-122910000D03*
X120400000Y-122910000D03*
D18*
X141475000Y-112525000D03*
X143525000Y-112525000D03*
D16*
X164700000Y-99410000D03*
X149700000Y-99410000D03*
D17*
X161700000Y-97450000D03*
X158700000Y-97450000D03*
X155700000Y-97450000D03*
X152700000Y-97450000D03*
D19*
X142462500Y-117435000D03*
X142462500Y-116165000D03*
X136087500Y-116165000D03*
X136087500Y-117435000D03*
D20*
X157920000Y-91299000D03*
X159820000Y-91299000D03*
D21*
X142475000Y-89425000D03*
X144375000Y-89425000D03*
X143425000Y-87550000D03*
D16*
X164700000Y-112085000D03*
X149700000Y-112085000D03*
D17*
X161700000Y-110125000D03*
X158700000Y-110125000D03*
X155700000Y-110125000D03*
X152700000Y-110125000D03*
D16*
X141100000Y-141235000D03*
X132100000Y-141235000D03*
D22*
X138100000Y-139275000D03*
D23*
X135100000Y-139275000D03*
D24*
X145880000Y-103400000D03*
X145880000Y-105400000D03*
D19*
X142162500Y-104785000D03*
X142162500Y-103515000D03*
X135787500Y-103515000D03*
X135787500Y-104785000D03*
D25*
X148820000Y-92525000D03*
X145550000Y-92525000D03*
D16*
X133400000Y-134350000D03*
X124400000Y-134350000D03*
D22*
X130400000Y-132390000D03*
D23*
X127400000Y-132390000D03*
D26*
X127458500Y-91426000D03*
X125633500Y-91426000D03*
D11*
X163000000Y-86600000D03*
D13*
X135365000Y-99525000D03*
X139685000Y-99525000D03*
D16*
X131470800Y-84335200D03*
X140470800Y-84335200D03*
D27*
X134470800Y-86295200D03*
D23*
X137470800Y-86295200D03*
D12*
X145387500Y-112525000D03*
X147212500Y-112525000D03*
D24*
X145800000Y-128900000D03*
X145800000Y-130900000D03*
D15*
X152225400Y-85482400D03*
D28*
X142500000Y-93450000D03*
X142500000Y-91450000D03*
D11*
X119299997Y-86600000D03*
D24*
X145800000Y-116060000D03*
X145800000Y-118060000D03*
D29*
X138534800Y-93517400D03*
X138534800Y-91417400D03*
D16*
X132400000Y-112085000D03*
X117400000Y-112085000D03*
D17*
X129400000Y-110125000D03*
X126400000Y-110125000D03*
X123400000Y-110125000D03*
X120400000Y-110125000D03*
D18*
X141650000Y-99975000D03*
X143700000Y-99975000D03*
D16*
X164700000Y-124870000D03*
X149700000Y-124870000D03*
D17*
X161700000Y-122910000D03*
X158700000Y-122910000D03*
X155700000Y-122910000D03*
X152700000Y-122910000D03*
D30*
X132651000Y-91426000D03*
X130601000Y-91426000D03*
D16*
X132500000Y-99410000D03*
X117500000Y-99410000D03*
D17*
X129500000Y-97450000D03*
X126500000Y-97450000D03*
X123500000Y-97450000D03*
X120500000Y-97450000D03*
D13*
X135265000Y-112125000D03*
X139585000Y-112125000D03*
D14*
X137625000Y-96425000D03*
X135625000Y-96425000D03*
D19*
X142487500Y-130185000D03*
X142487500Y-128915000D03*
X136112500Y-128915000D03*
X136112500Y-130185000D03*
D14*
X137475000Y-109075000D03*
X135475000Y-109075000D03*
D16*
X160700000Y-133975000D03*
X151700000Y-133975000D03*
D22*
X157700000Y-132015000D03*
D23*
X154700000Y-132015000D03*
D18*
X141550000Y-125350000D03*
X143600000Y-125350000D03*
D16*
X153100000Y-141150000D03*
X144100000Y-141150000D03*
D22*
X150100000Y-139190000D03*
D23*
X147100000Y-139190000D03*
M02*
